<?xml version="1.0" standalone="no"?>
<!DOCTYPE svg PUBLIC "-//W3C//DTD SVG 1.1//EN" "http://www.w3.org/Graphics/SVG/1.1/DTD/svg11.dtd" >
<svg xmlns="http://www.w3.org/2000/svg">
<metadata></metadata>
<defs>
<font id="bliss_proitalic" horiz-adv-x="826" >
<font-face units-per-em="2048" ascent="1638" descent="-410" />
<missing-glyph horiz-adv-x="402" />
<glyph unicode="&#xfb01;" horiz-adv-x="1232" d="M-202 -383q62 60 111 123t88.5 129.5t72 150.5t57.5 169.5t48.5 203t42.5 234t42 278.5h-168l25 161h165l22 142q23 130 77 213q58 90 142 132t182 42q123 0 207 -52l-63 -153q-68 33 -135 33q-87 0 -139 -54t-72 -166l-23 -137h250l-61 -161h-214q-25 -167 -41.5 -268 t-43.5 -239.5t-53 -227t-65 -197t-84.5 -186t-107.5 -157t-137 -144.5zM730 0l227 1066h197l-230 -1066h-194zM993 1397q0 63 42.5 102.5t99.5 39.5q54 0 86 -31.5t32 -79.5q0 -42 -20.5 -75t-52.5 -50t-69 -17q-53 0 -85.5 31.5t-32.5 79.5z" />
<glyph unicode="&#xfb02;" horiz-adv-x="1294" d="M-202 -383q62 60 111 123t88.5 129.5t72 150.5t57.5 169.5t48.5 203t42.5 234t42 278.5h-168l25 161h165l22 142q23 130 77 213q58 90 142 132t182 42q123 0 207 -52l-63 -153q-68 33 -135 33q-87 0 -139 -54t-72 -166l-23 -137h250l-61 -161h-214q-25 -167 -41.5 -268 t-43.5 -239.5t-53 -227t-65 -197t-84.5 -186t-107.5 -157t-137 -144.5zM755 176q0 36 13 110l279 1309h196l-278 -1307q-10 -44 -10 -69q0 -59 66 -59q34 0 86 16v-163q-71 -26 -148 -26q-94 0 -149 48.5t-55 140.5z" />
<glyph horiz-adv-x="2048" />
<glyph horiz-adv-x="2048" />
<glyph unicode="&#xd;" horiz-adv-x="2048" />
<glyph unicode=" "  horiz-adv-x="402" />
<glyph unicode="&#x09;" horiz-adv-x="402" />
<glyph unicode="&#xa0;" horiz-adv-x="402" />
<glyph unicode="!" horiz-adv-x="628" d="M67 95q0 59 37.5 98t93.5 39q48 0 79.5 -34.5t31.5 -80.5q0 -38 -17.5 -69t-48 -48.5t-67.5 -17.5q-48 0 -78.5 33t-30.5 80zM187 408q10 202 36.5 364t118.5 595l25 118h198l-24 -118q-47 -223 -62 -290.5t-43.5 -195t-45 -181t-41 -130.5t-56.5 -162h-106z" />
<glyph unicode="&#x22;" horiz-adv-x="997" d="M286 1115l106 495l187 -37l-155 -485zM667 1115l105 495l185 -37l-155 -485z" />
<glyph unicode="#" horiz-adv-x="1529" d="M34 394l16 160h315l121 383h-281l16 160h315l122 386h191l-121 -386h295l121 386h191l-121 -386h278l-17 -160h-312l-120 -383h279l-15 -160h-316l-124 -394h-192l125 394h-295l-124 -394h-192l125 394h-280zM557 554h294l123 383h-296z" />
<glyph unicode="$" horiz-adv-x="1191" d="M97 129l70 153q55 -36 127.5 -59t146.5 -23q31 0 60.5 3.5t59 11.5t55 20t47.5 31t38 43t25 56.5t9 71.5q0 42 -13 79.5t-34.5 65.5t-50.5 55t-61.5 49t-67 47t-67.5 48.5t-62 55t-50.5 65.5t-34 80.5t-12.5 98.5q0 155 105.5 258.5t274.5 120.5l43 210h157l-45 -212 q132 -17 228 -65l-35 -163q-133 70 -280 70q-48 0 -91 -11t-78.5 -33.5t-56 -61t-20.5 -87.5q0 -42 15.5 -78.5t41.5 -64t60 -53.5t72 -51t75.5 -52t71.5 -61t60 -73.5t41.5 -94.5t15.5 -119q0 -92 -32 -168t-88.5 -127.5t-131 -83t-163.5 -40.5l-47 -226h-157l47 226 q-148 14 -268 88z" />
<glyph unicode="%" horiz-adv-x="1967" d="M214 1014q0 136 48 245.5t140 174t213 64.5q90 0 154 -37t97 -105.5t33 -161.5q0 -135 -48 -244t-139.5 -173.5t-211.5 -64.5q-135 0 -210.5 80.5t-75.5 221.5zM340 0l1104 1485h176l-1104 -1485h-176zM378 1019q0 -176 136 -176q52 0 95 31.5t70.5 82t42.5 111t15 121.5 q0 178 -135 178q-52 0 -95.5 -31.5t-71 -82t-42.5 -112t-15 -122.5zM1052 279q0 136 48 245.5t140 174t213 64.5q136 0 210 -80.5t74 -220.5q0 -136 -48 -245.5t-139.5 -174t-210.5 -64.5q-136 0 -211.5 80t-75.5 221zM1217 284q0 -176 135 -176q51 0 94.5 31.5t71 82.5 t42.5 112t15 121q0 177 -137 177q-51 0 -94 -31.5t-70.5 -82t-42 -111.5t-14.5 -123z" />
<glyph unicode="&#x26;" horiz-adv-x="1747" d="M69 387q0 186 121 307t341 162v4q-92 43 -139.5 115.5t-47.5 164.5q0 80 35.5 147.5t96.5 113.5t145.5 71.5t182.5 25.5q114 0 216 -25.5t174 -66.5l-57 -158q-156 85 -326 85q-54 0 -100.5 -11t-84 -34t-59 -61.5t-21.5 -89.5q0 -60 29 -108.5t82 -82.5t129 -56 l-31 -144q-227 0 -355.5 -89.5t-128.5 -235.5q0 -128 83 -203.5t237 -75.5q83 0 162 20.5t154 65.5t136.5 111t110.5 162t76 213h-187l34 160h626l-65 -160h-221q-33 -153 -98.5 -278t-148.5 -209t-184.5 -141t-205 -82.5t-210.5 -25.5q-146 0 -259.5 49.5t-177.5 142.5 t-64 217z" />
<glyph unicode="'" horiz-adv-x="617" d="M286 1115l106 495l187 -37l-155 -485z" />
<glyph unicode="(" horiz-adv-x="746" d="M142 299q0 141 20.5 285.5t66 299t113.5 299.5t168.5 289t224.5 265l112 -117q-239 -250 -372 -598t-133 -725q0 -246 40 -409t123 -322l-146 -91q-217 305 -217 824z" />
<glyph unicode=")" horiz-adv-x="746" d="M-106 -408q159 166 272 378t172.5 453t59.5 491q0 246 -39.5 410t-122.5 323l147 90q217 -305 217 -825q0 -141 -20.5 -285.5t-66.5 -299t-113.5 -299.5t-168 -288.5t-224.5 -264.5z" />
<glyph unicode="*" horiz-adv-x="1096" d="M196 1206q43 9 188 6t173 -2q-18 21 -110.5 115t-132.5 152l118 88q45 -54 111.5 -177t73.5 -135q10 26 45.5 155t65.5 191l137 -58q-19 -49 -52.5 -107.5t-72 -119t-55.5 -91.5q16 3 151 38.5t207 40.5l16 -150q-75 -7 -125 -6.5t-126.5 3.5t-111.5 3q18 -21 111 -116 t132 -153l-124 -90q-42 56 -104 173t-79 143q-9 -32 -26.5 -102.5t-36.5 -134.5t-42 -113l-140 61q16 37 41 83t48 82.5t50 80t42 71.5q-19 -3 -151.5 -39t-204.5 -41z" />
<glyph unicode="+" horiz-adv-x="1195" d="M38 484v167h439v473h185v-473h442v-167h-442v-484h-185v484h-439z" />
<glyph unicode="," horiz-adv-x="529" d="M-117 -226q101 111 139.5 218.5t40.5 246.5h197q0 -165 -66 -297.5t-219 -240.5z" />
<glyph unicode="-" horiz-adv-x="770" d="M41 473l36 172h563l-36 -172h-563z" />
<glyph unicode="." horiz-adv-x="529" d="M22 95q0 59 37.5 98t93.5 39q47 0 78 -34.5t31 -80.5q0 -58 -37.5 -96.5t-93.5 -38.5q-48 0 -78.5 33t-30.5 80z" />
<glyph unicode="/" horiz-adv-x="880" d="M-34 -73l741 1641h207l-740 -1641h-208z" />
<glyph unicode="0" horiz-adv-x="1208" d="M79 482q0 121 19 242t55 234.5t92 211.5t126 171t161 115t193 42q199 0 301.5 -129.5t102.5 -377.5q0 -80 -8.5 -160.5t-25.5 -160t-41 -154.5t-57.5 -144t-73 -129t-88.5 -108.5t-103.5 -83.5t-119 -54t-132.5 -19q-198 0 -299.5 129t-101.5 375zM288 460 q0 -104 21.5 -172.5t66.5 -104t115 -35.5q88 0 168 73t137 192.5t90.5 277.5t33.5 323q0 157 -50.5 235t-155.5 78q-87 0 -167 -73t-136 -193t-89.5 -278t-33.5 -323z" />
<glyph unicode="1" horiz-adv-x="929" d="M191 1122v166q62 16 145.5 49.5t167.5 76t143 82.5h168l-319 -1496h-195l269 1262q-66 -38 -176.5 -78t-202.5 -62z" />
<glyph unicode="2" horiz-adv-x="1170" d="M15 0q14 94 41.5 179t58 148.5t80 126.5t86.5 103t99 89.5t96.5 73.5t97.5 67q52 35 78 53t66.5 49.5t60.5 55t42.5 55t31.5 65t9 70.5q0 65 -29 108.5t-80 63.5t-123 20q-164 0 -357 -93l-39 161q221 103 428 103q122 0 213.5 -40.5t143 -119.5t51.5 -186 q0 -73 -23 -137t-62.5 -113.5t-91.5 -95.5t-111.5 -88t-121 -84.5t-121 -91t-110 -101.5t-90.5 -123t-60 -149h688l-36 -169h-916z" />
<glyph unicode="3" horiz-adv-x="1178" d="M-9 65l84 158q60 -34 142 -54.5t168 -20.5q53 0 105 9t104.5 31t92 55.5t64.5 86.5t25 119q0 62 -23.5 105.5t-71 68t-110.5 35.5t-150 11h-173l23 163h96q139 0 224 24q53 15 97.5 39t78.5 58t52.5 80t18.5 100q0 66 -32.5 110.5t-86 64t-124.5 19.5q-164 0 -341 -79 l-35 156q208 94 409 94q197 0 308 -92t111 -252q0 -143 -84.5 -241t-232.5 -147v-5q54 -12 97.5 -33.5t80 -56.5t56.5 -89t20 -122q0 -103 -43 -191.5t-120 -153t-189.5 -101t-246.5 -36.5q-235 0 -394 87z" />
<glyph unicode="4" horiz-adv-x="1294" d="M88 536l881 960h164l-200 -946h223l-36 -165h-224l-81 -385h-196l82 385h-593zM311 548q30 0 96.5 1t104.5 1h227l63 288q42 186 86 347z" />
<glyph unicode="5" horiz-adv-x="1168" d="M2 65l84 158q125 -75 297 -75q48 0 95 9t91.5 26t82 45t66 64t44.5 84.5t16 105.5q0 248 -380 248h-186l155 755h781l-58 -169h-561l-88 -424h66q121 0 214 -30t150.5 -83.5t86.5 -123t29 -152.5q0 -154 -76 -273.5t-215 -185.5t-320 -66q-115 0 -213.5 24.5t-160.5 62.5 z" />
<glyph unicode="6" horiz-adv-x="1265" d="M140 509q0 139 27 267.5t77.5 237.5t125 199t165 153t201 97.5t231.5 34.5q108 0 215 -36l-60 -155q-68 24 -161 24q-97 0 -185.5 -31.5t-158 -87t-125 -131t-93 -165t-57.5 -188.5h4q57 83 156.5 133.5t209.5 50.5q183 0 291 -111t108 -303q0 -110 -41 -207t-111 -165.5 t-165 -108t-199 -39.5q-102 0 -184 31t-143.5 94.5t-94.5 166.5t-33 239zM351 410q0 -116 64.5 -191t181.5 -75q62 0 117.5 24.5t96.5 68.5t65.5 108t24.5 139q0 116 -61.5 189t-179.5 73q-63 0 -119 -24t-98 -67t-67 -106.5t-25 -138.5z" />
<glyph unicode="7" horiz-adv-x="1064" d="M142 0q41 165 99 321.5t123.5 289.5t144.5 261t157 233.5t168 210.5h-665l-18 169h950v-81q-125 -146 -235 -303t-210 -334t-178.5 -373t-126.5 -394h-209z" />
<glyph unicode="8" horiz-adv-x="1270" d="M88 359q0 79 27 146.5t76 117t110 85t136 60.5v4q-196 116 -196 318q0 86 36 161t100.5 129.5t159 86t204.5 31.5q206 0 328 -98t122 -256q0 -70 -27.5 -133.5t-75.5 -110.5t-103.5 -82t-119.5 -59v-4q119 -47 187 -131t68 -207q0 -82 -30 -153.5t-82 -123t-122 -88.5 t-150.5 -55.5t-165.5 -18.5q-218 0 -350 102.5t-132 278.5zM297 372q0 -61 24.5 -108t65.5 -73.5t89 -39.5t100 -13q93 0 167.5 30.5t120.5 93t46 146.5q0 101 -82.5 166.5t-236.5 110.5q-43 -13 -81.5 -31.5t-71 -40.5t-59 -49t-44.5 -57t-28 -64.5t-10 -70.5zM451 1094 q0 -86 62.5 -156.5t169.5 -103.5q299 88 299 295q0 101 -70 155.5t-182 54.5q-73 0 -135 -27t-103 -84t-41 -134z" />
<glyph unicode="9" horiz-adv-x="1283" d="M112 34l57 157q43 -21 104.5 -34t113.5 -13q221 0 351 129t182 383h-6q-73 -53 -164.5 -81.5t-184.5 -28.5q-82 0 -153.5 25.5t-127 75.5t-87.5 130t-32 182q0 121 39.5 223t107.5 170.5t160 107t197 38.5t192.5 -35.5t151.5 -103.5t99.5 -174t35.5 -241q0 -184 -34 -338 t-98.5 -270t-156.5 -196.5t-208 -121t-253 -40.5q-166 0 -286 56zM374 971q0 -118 63 -189.5t182 -71.5q153 0 318 117q11 64 11 132q0 175 -74 273.5t-207 98.5q-84 0 -151.5 -48t-104.5 -130t-37 -182z" />
<glyph unicode=":" horiz-adv-x="529" d="M22 95q0 59 37.5 98t93.5 39q47 0 78 -34.5t31 -80.5q0 -58 -37.5 -96.5t-93.5 -38.5q-48 0 -78.5 33t-30.5 80zM176 865q0 39 17 70t47 48t67 17q47 0 77.5 -33t30.5 -79q0 -59 -37.5 -97.5t-93.5 -38.5q-48 0 -78 33t-30 80z" />
<glyph unicode=";" horiz-adv-x="529" d="M-117 -226q101 111 139.5 218.5t40.5 246.5h197q0 -165 -66 -297.5t-219 -240.5zM148 865q0 39 17.5 70t47 48t66.5 17q48 0 79 -33t31 -79q0 -59 -38 -97.5t-95 -38.5q-30 0 -55 15.5t-39 41t-14 56.5z" />
<glyph unicode="&#x3c;" horiz-adv-x="1346" d="M155 503v166l949 415v-172l-768 -324v-5l768 -323v-172z" />
<glyph unicode="=" horiz-adv-x="1195" d="M58 284v167h1066v-167h-1066zM58 688v166h1066v-166h-1066z" />
<glyph unicode="&#x3e;" horiz-adv-x="1346" d="M228 88v172l768 323v5l-768 324v172l948 -415v-166z" />
<glyph unicode="?" horiz-adv-x="1015" d="M202 95q0 59 37.5 98t93.5 39q48 0 78 -34t30 -81q0 -58 -37 -96.5t-93 -38.5q-31 0 -56.5 15.5t-39 41t-13.5 56.5zM232 1361q190 137 406 137q95 0 172 -33t124.5 -101t47.5 -161q0 -118 -65 -207q-29 -43 -76.5 -89t-94 -82.5t-99 -83.5t-94.5 -92.5t-77.5 -108.5 t-51.5 -132h-129q3 89 31.5 167t71.5 133.5t94.5 105t102.5 92t93 82.5t68 87.5t26 98.5q0 76 -47.5 115.5t-130.5 39.5q-150 0 -300 -110z" />
<glyph unicode="@" horiz-adv-x="1736" d="M63 428q0 154 42.5 290.5t118.5 239t178 176.5t224.5 112t254.5 38q162 0 301 -51t239.5 -142.5t157.5 -225.5t57 -293q0 -124 -29 -221.5t-80 -159.5t-119.5 -94t-150.5 -32q-89 0 -148.5 49.5t-72.5 139.5h-4q-35 -72 -119 -128.5t-190 -56.5q-43 0 -82.5 11t-77 37.5 t-65 65.5t-44.5 100.5t-17 137.5q0 110 35.5 204t97 159.5t147.5 102.5t184 37q169 0 318 -90l-47 -363q-12 -72 -12 -117q0 -48 10 -80.5t35.5 -53t67.5 -20.5q97 0 155.5 98.5t58.5 264.5q0 94 -23.5 180.5t-73 161.5t-120.5 130t-172 87t-221 32q-137 0 -257 -49.5 t-210.5 -140t-143 -226.5t-52.5 -299q0 -149 43.5 -268.5t120 -196.5t178 -118t220.5 -41q74 0 151 14t135 40l39 -123q-156 -62 -344 -62q-150 0 -278 53t-220 148.5t-144 235.5t-52 307zM608 426q0 -109 40 -164t111 -55q27 0 53 7.5t53.5 23.5t51.5 44.5t45 67t37 95 t24 125.5l22 178q-61 43 -146 43q-124 0 -207.5 -102t-83.5 -263z" />
<glyph unicode="A" horiz-adv-x="1305" d="M-99 0l789 1489h157l271 -1489h-208l-67 389h-523l-198 -389h-221zM410 554h405l-67 439q-4 26 -9 59t-10.5 69.5t-10.5 67.5h-4q-76 -173 -92 -207z" />
<glyph unicode="B" horiz-adv-x="1221" d="M22 0l316 1485h333q86 0 156 -18.5t116.5 -50.5t77.5 -75.5t44.5 -92t13.5 -102.5q0 -130 -66 -223.5t-186 -144.5v-6q44 -10 83.5 -34t72 -59t52 -86t19.5 -109q0 -63 -17.5 -122t-51.5 -113.5t-88 -99.5t-123 -78.5t-161 -52t-198 -18.5h-393zM256 165h197 q94 0 169.5 22.5t125.5 63t76.5 96.5t26.5 122q0 98 -67.5 152t-183.5 54h-237zM398 840h185q60 0 110 17.5t83.5 46t57.5 65.5t34.5 76t10.5 77q0 41 -12.5 75.5t-38.5 62t-71 43t-106 15.5h-151z" />
<glyph unicode="C" horiz-adv-x="1331" d="M101 593q0 194 65.5 362.5t179 287.5t273.5 187t342 68q200 0 370 -79l-40 -171q-156 79 -326 79q-116 0 -219 -37t-181.5 -103.5t-136 -155t-87.5 -196t-30 -222.5q0 -138 48.5 -242t146.5 -163.5t233 -59.5q184 0 368 93l37 -164q-91 -47 -203.5 -73t-217.5 -26 q-187 0 -327 72.5t-217.5 212t-77.5 330.5z" />
<glyph unicode="D" horiz-adv-x="1436" d="M22 0l316 1485h262q253 0 419 -75q154 -68 238 -201t84 -335q0 -274 -132 -484t-373 -311q-194 -79 -453 -79h-361zM256 169h148q211 0 355 67q179 81 275.5 252t96.5 398q0 274 -221 376q-118 54 -317 54h-93z" />
<glyph unicode="E" horiz-adv-x="1053" d="M22 0l316 1485h719l-68 -169h-489l-98 -473h479l-36 -170h-482l-107 -504h548l-36 -169h-746z" />
<glyph unicode="F" horiz-adv-x="1015" d="M22 0l316 1485h719l-66 -169h-491l-98 -473h477l-36 -170h-480l-142 -673h-199z" />
<glyph unicode="G" horiz-adv-x="1490" d="M101 600q0 101 20 198.5t59 186t95 167t130 142t161 109t192.5 70.5t219.5 25q115 0 226 -24t202 -66l-41 -172q-48 27 -107.5 47.5t-129.5 33t-137 12.5q-122 0 -229.5 -36.5t-189 -102t-141 -153.5t-90 -194.5t-30.5 -220.5q0 -121 33.5 -213t93.5 -148t138 -84.5 t172 -28.5q181 0 284 54l110 505h197l-133 -621q-81 -46 -209 -77t-264 -31q-139 0 -254.5 41t-199.5 118t-131 195.5t-47 267.5z" />
<glyph unicode="H" horiz-adv-x="1499" d="M22 0l316 1485h198l-138 -645h744l137 645h198l-314 -1485h-198l142 669h-744l-142 -669h-199z" />
<glyph unicode="I" horiz-adv-x="557" d="M22 0l316 1485h198l-315 -1485h-199z" />
<glyph unicode="J" horiz-adv-x="650" d="M-322 -374l60 160q57 -27 142 -27q67 0 111 23.5t74 77.5q40 83 57 176l308 1449h198l-312 -1470q-34 -166 -88 -258q-106 -169 -348 -169q-112 0 -202 38z" />
<glyph unicode="K" horiz-adv-x="1232" d="M22 0l316 1485h198l-144 -683h6l647 683h241l-738 -773l495 -712h-239l-441 649h-4l-138 -649h-199z" />
<glyph unicode="L" horiz-adv-x="974" d="M22 0l316 1485h198l-280 -1316h542l-39 -169h-737z" />
<glyph unicode="M" horiz-adv-x="1769" d="M22 0l316 1485h189l230 -631q14 -40 36 -101t37.5 -105t25.5 -76h4q101 146 165 230l514 683h209l-315 -1485h-199l165 770q52 246 88 374h-6q-91 -131 -181 -243l-430 -570h-109l-207 559q-67 185 -88 254h-4q-34 -176 -79 -378l-162 -766h-199z" />
<glyph unicode="N" horiz-adv-x="1578" d="M22 0l316 1485h187l489 -958q41 -79 99 -209h5q7 44 22.5 123t19.5 105l198 939h201l-318 -1485h-164l-505 989q-74 145 -99 207h-4q-8 -55 -39 -214l-209 -982h-199z" />
<glyph unicode="O" horiz-adv-x="1617" d="M101 600q0 140 36.5 273t107 245.5t167.5 198t226.5 133.5t275.5 48q136 0 246.5 -40.5t189.5 -117.5t122.5 -194.5t43.5 -266.5q0 -140 -36.5 -273.5t-107 -246.5t-167.5 -198.5t-226.5 -134t-275.5 -48.5q-136 0 -247 40.5t-190 118.5t-122 195.5t-43 267.5zM311 602 q0 -215 103.5 -334.5t301.5 -119.5q91 0 172.5 30t145.5 81.5t115.5 121.5t85.5 151t52 169t18 176q0 215 -103 332.5t-299 117.5q-109 0 -205 -42t-165.5 -113t-120 -163.5t-76 -196.5t-25.5 -210z" />
<glyph unicode="P" horiz-adv-x="1152" d="M22 0l316 1485h227q150 0 243 -36q63 -22 113 -58.5t84.5 -84.5t53 -108.5t18.5 -129.5q0 -176 -100 -309t-279 -185q-130 -38 -281 -38h-84l-112 -536h-199zM370 701h77q111 0 191 32q115 36 175.5 123.5t60.5 207.5q0 80 -38.5 141.5t-117.5 90.5q-64 24 -157 24h-61z " />
<glyph unicode="Q" horiz-adv-x="1617" d="M101 600q0 140 36.5 273t107 245.5t167.5 198t226.5 133.5t275.5 48q136 0 246.5 -40.5t189.5 -117.5t122.5 -194.5t43.5 -266.5q0 -131 -32 -256.5t-94.5 -234.5t-149 -194t-202.5 -138.5t-247 -64.5q-20 -1 -39.5 -1t-39.5 1v-4q22 -12 73 -48.5t92.5 -63t108.5 -49 t136 -22.5q99 0 202 31l41 -155q-131 -45 -275 -45q-324 0 -606 313q-24 27 -65.5 63t-76 64.5t-75 71t-67.5 85.5q-99 156 -99 368zM311 602q0 -215 103.5 -334.5t301.5 -119.5q91 0 172.5 30t145.5 81.5t115.5 121.5t85.5 151t52 169t18 176q0 215 -103 332.5t-299 117.5 q-109 0 -205 -42t-165.5 -113t-120 -163.5t-76 -196.5t-25.5 -210z" />
<glyph unicode="R" horiz-adv-x="1206" d="M22 0l316 1485h292q98 0 177.5 -20.5t133 -55.5t90 -83t52.5 -101.5t16 -113.5q0 -185 -106.5 -296.5t-294.5 -150.5v-4q32 -51 100 -196l208 -464h-215l-161 376q-88 193 -118 243h-161l-130 -619h-199zM387 784h127q177 0 279.5 79.5t102.5 228.5q0 49 -15 89.5t-47 72 t-87 49t-130 17.5h-117z" />
<glyph unicode="S" horiz-adv-x="1060" d="M-9 77l82 157q131 -86 294 -86q38 0 73.5 5.5t70.5 17.5t63.5 31.5t50.5 46.5t34 65t12 84q0 64 -26.5 117.5t-68.5 92t-93 75t-102 75.5t-93 83t-68 108t-26 141q0 88 33 163.5t93.5 129.5t148.5 84.5t193 30.5q186 0 336 -75l-37 -170q-137 76 -297 76 q-113 0 -187.5 -56.5t-74.5 -154.5q0 -56 26 -104t68 -85t93 -73t102 -77t93 -89t68.5 -117t26.5 -152q0 -88 -27 -162t-74 -125.5t-112 -87t-140 -52t-159 -16.5q-212 0 -376 99z" />
<glyph unicode="T" horiz-adv-x="1107" d="M138 1316l36 169h1079l-73 -169h-408l-278 -1316h-199l279 1316h-436z" />
<glyph unicode="U" horiz-adv-x="1466" d="M129 410q0 69 26 205l185 870h198l-187 -875q-22 -104 -22 -176q0 -95 37 -160t104 -96.5t160 -31.5q190 0 292 106q87 90 125 270l206 963h198l-208 -982q-55 -254 -181 -374q-56 -53 -123.5 -86.5t-145.5 -49t-171 -15.5q-235 0 -364 115.5t-129 316.5z" />
<glyph unicode="V" horiz-adv-x="1294" d="M162 1485h214l165 -879q5 -29 17.5 -97.5t20 -114t14.5 -97.5h4q63 141 140 282l477 906h224l-819 -1494h-148z" />
<glyph unicode="W" horiz-adv-x="1883" d="M162 1485h216l99 -853q22 -183 35 -339h4q59 154 137 311l308 630l-33 251h198l104 -855q20 -153 36 -337h4q50 145 129 315l405 877h219l-729 -1494h-163l-88 654q-29 189 -39 303h-4q-56 -135 -144 -310l-325 -647h-164z" />
<glyph unicode="X" horiz-adv-x="1312" d="M-97 0l628 761l-337 724h214l263 -573l469 573h238l-619 -750l345 -735h-212l-273 581l-479 -581h-237z" />
<glyph unicode="Y" horiz-adv-x="1157" d="M160 1485h207l241 -717h5l462 717h223l-613 -917l-122 -568h-198l121 574z" />
<glyph unicode="Z" horiz-adv-x="1184" d="M-63 0l937 1316h-638l-17 169h993l-930 -1316h718l-39 -169h-1024z" />
<glyph unicode="[" horiz-adv-x="738" d="M-30 -525l483 2264h407l-33 -153h-219l-414 -1960h216l-32 -151h-408z" />
<glyph unicode="\" horiz-adv-x="965" d="M157 1568h194l442 -1641h-193z" />
<glyph unicode="]" horiz-adv-x="738" d="M-209 -525l33 151h219l415 1960h-217l32 153h407l-482 -2264h-407z" />
<glyph unicode="^" horiz-adv-x="1274" d="M196 647l356 838h171l356 -838h-171l-268 658h-4l-269 -658h-171z" />
<glyph unicode="_" horiz-adv-x="986" d="M-200 -271l26 123h1006l-28 -123h-1004z" />
<glyph unicode="`" d="M176 1528h226l110 -332h-153z" />
<glyph unicode="a" horiz-adv-x="1056" d="M2 260q0 180 127 283q141 117 430 117l148 2q13 51 13 110q0 79 -46.5 121t-148.5 42q-146 0 -316 -81l-26 150q186 88 374 88q56 0 105 -8.5t97 -30.5t82.5 -56t55 -88.5t20.5 -124.5q0 -12 -0.5 -25t-1.5 -24t-3 -27t-3 -25t-4.5 -27t-4.5 -25t-5 -27.5t-5 -25 t-5.5 -26.5t-5.5 -25l-23 -95q-39 -170 -39 -275q0 -66 19 -135l-169 -35q-28 90 -31 182q-67 -85 -158.5 -138t-191.5 -53q-129 0 -206.5 78.5t-77.5 203.5zM196 286q0 -48 16 -81t47.5 -49t78.5 -16q68 0 136.5 37.5t121.5 107.5t71 156l16 75h-83q-240 0 -332 -73 q-72 -59 -72 -157z" />
<glyph unicode="b" horiz-adv-x="1137" d="M9 25l335 1570h197l-107 -494q-14 -76 -53 -205h4q17 25 36.5 47t41.5 41.5t46 36t50 30t52.5 22.5t55 14t56.5 5q135 0 222 -96t87 -268q0 -160 -55 -299.5t-150 -238.5t-229.5 -155.5t-288.5 -56.5q-70 0 -158.5 13.5t-141.5 33.5zM234 160q57 -16 120 -16 q100 0 188.5 42t152 116t100.5 179t37 226q0 41 -9.5 78t-29 69t-54 51t-79.5 19q-47 0 -102.5 -27t-102.5 -77q-107 -116 -154 -326z" />
<glyph unicode="c" horiz-adv-x="986" d="M47 426q0 110 29 211.5t84 183.5t130 143.5t171 94.5t203 33q152 0 269 -54l-37 -164q-109 54 -229 54q-85 0 -162 -36t-133.5 -99t-90 -153.5t-33.5 -192.5q0 -141 69.5 -223t202.5 -82q136 0 271 79l52 -142q-64 -44 -160 -72.5t-185 -28.5q-208 0 -329.5 122 t-121.5 326z" />
<glyph unicode="d" horiz-adv-x="1126" d="M47 447q0 146 49.5 269t134 204.5t196 126.5t235.5 45q128 0 221 -33l115 536h196l-332 -1545q-68 -31 -164 -51.5t-178 -20.5q-139 0 -245.5 55t-167 162t-60.5 252zM248 458q0 -143 74.5 -228.5t213.5 -85.5q88 0 160 32l151 718q-93 32 -172 32q-87 0 -165 -33.5 t-136.5 -93t-92 -148.5t-33.5 -193z" />
<glyph unicode="e" horiz-adv-x="1056" d="M47 432q0 139 42.5 261t116 210t177.5 138.5t223 50.5q174 0 266.5 -95.5t92.5 -252.5q0 -115 -48 -248l-672 -10q-2 -17 -2 -54q0 -137 73 -214.5t193 -77.5q132 0 291 81l54 -144q-51 -31 -113 -53.5t-126 -34t-124 -11.5q-201 0 -322.5 121.5t-121.5 332.5zM271 632 l481 8q18 62 18 110q0 36 -9 67.5t-29 58.5t-56.5 43t-87.5 16q-111 0 -200 -87.5t-117 -215.5z" />
<glyph unicode="f" horiz-adv-x="699" d="M-202 -383q62 60 111 123t88.5 129.5t72 150.5t57.5 169.5t48.5 203t42.5 234t42 278.5h-168l25 161h165l22 142q23 130 77 213q58 90 142 132t182 42q123 0 207 -52l-63 -153q-68 33 -135 33q-87 0 -139 -54t-72 -166l-23 -137h250l-61 -161h-214q-25 -167 -41.5 -268 t-43.5 -239.5t-53 -227t-65 -197t-84.5 -186t-107.5 -157t-137 -144.5z" />
<glyph unicode="g" horiz-adv-x="1137" d="M-47 -453l69 165q131 -75 266 -75q155 0 238 84.5t123 267.5l39 168h-5q-74 -93 -161.5 -135t-172.5 -42q-137 0 -219.5 91.5t-82.5 270.5q0 116 25.5 224.5t80 204.5t132.5 167t189.5 112.5t243.5 41.5q95 0 188 -17.5t160 -42.5l-228 -1066q-19 -93 -45.5 -165 t-70 -137t-102.5 -107t-144.5 -66.5t-193.5 -24.5q-81 0 -167.5 20.5t-161.5 60.5zM248 376q0 -66 15 -116.5t52 -83t93 -32.5q34 0 71 12t81.5 44t83.5 81.5t75.5 132.5t58.5 188l65 303q-66 21 -151 21q-68 0 -129.5 -21t-110 -59t-87.5 -90t-64.5 -113t-39 -129 t-13.5 -138z" />
<glyph unicode="h" horiz-adv-x="1128" d="M0 0l340 1595h196l-117 -538q-16 -93 -54 -203h5q66 105 171.5 171.5t219.5 66.5q112 0 178.5 -64.5t66.5 -195.5q0 -82 -26 -208l-133 -624h-196l133 617q22 113 22 165q0 47 -15.5 78t-41.5 44t-61 13q-66 0 -141.5 -44t-138.5 -129q-27 -38 -47 -78t-38 -93t-33 -120 l-96 -453h-194z" />
<glyph unicode="i" horiz-adv-x="501" d="M0 0l228 1066h196l-230 -1066h-194zM264 1397q0 63 42.5 102.5t99.5 39.5q53 0 84.5 -31.5t31.5 -79.5q0 -62 -42.5 -102t-98.5 -40q-54 0 -85.5 31.5t-31.5 79.5z" />
<glyph unicode="j" horiz-adv-x="533" d="M-361 -503l60 163q50 -21 105 -21q85 0 129 52t69 169l258 1206h195l-277 -1289q-66 -311 -367 -311q-98 0 -172 31zM297 1397q0 63 42.5 102.5t99.5 39.5q53 0 84 -31.5t31 -79.5q0 -63 -41.5 -102.5t-100.5 -39.5q-35 0 -61.5 14.5t-40 39.5t-13.5 57z" />
<glyph unicode="k" horiz-adv-x="1002" d="M0 0l340 1595h196l-198 -926h4l447 397h243l-541 -475l374 -591h-225l-326 529h-5l-115 -529h-194z" />
<glyph unicode="l" horiz-adv-x="594" d="M54 176q0 36 13 110l279 1309h197l-279 -1307q-10 -44 -10 -69q0 -59 66 -59q35 0 86 16v-163q-71 -26 -146 -26q-62 0 -108 20.5t-72 63.5t-26 105z" />
<glyph unicode="m" horiz-adv-x="1733" d="M0 0l228 1066h157l-26 -212h4q72 106 172.5 172t210 66t171.5 -62t61 -187h4q73 108 178 178.5t218 70.5q109 0 174 -61t65 -182v-13q0 -66 -26 -204l-136 -632h-193l135 640q20 91 20 149q0 66 -30.5 97t-84.5 31q-39 0 -81 -17t-87.5 -54.5t-88.5 -93.5 q-42 -56 -70.5 -124.5t-50.5 -169.5l-99 -458h-195l136 640q20 96 20 149q0 34 -8 59t-24 40t-36.5 22t-46.5 7q-60 0 -126.5 -41t-129.5 -126q-82 -105 -122 -292l-99 -458h-194z" />
<glyph unicode="n" horiz-adv-x="1128" d="M0 0l228 1066h157l-26 -212h4q71 104 178 171t220 67q112 0 178.5 -64.5t66.5 -195.5q0 -82 -26 -208l-133 -624h-196l133 617q22 113 22 165q0 47 -15.5 78t-41.5 44t-61 13q-65 0 -138.5 -41.5t-134.5 -123.5q-42 -53 -71.5 -123t-53.5 -176l-96 -453h-194z" />
<glyph unicode="o" horiz-adv-x="1146" d="M47 396q0 150 46.5 281t124.5 221.5t184 142t224 51.5q101 0 181 -32t130.5 -89.5t77 -133t26.5 -164.5q0 -150 -46 -281t-124 -221t-183.5 -141.5t-223.5 -51.5q-102 0 -182.5 32t-131 89t-77 132.5t-26.5 164.5zM248 408q0 -127 55.5 -196.5t167.5 -69.5q65 0 123.5 28 t103 78t77 115t49 142t16.5 157q0 128 -54.5 197t-166.5 69q-81 0 -151.5 -43.5t-118 -115.5t-74.5 -166t-27 -195z" />
<glyph unicode="p" horiz-adv-x="1139" d="M-114 -534l337 1577q162 49 318 49q123 0 218.5 -34t154.5 -95t89.5 -141.5t30.5 -176.5q0 -123 -33.5 -230t-92 -186.5t-137 -136.5t-170 -85.5t-189.5 -28.5q-112 0 -216 31l-115 -543h-195zM234 174q70 -30 164 -30q129 0 229.5 65t153.5 175t53 244q0 98 -37 165 t-104 100t-162 33q-64 0 -142 -18z" />
<glyph unicode="q" horiz-adv-x="1141" d="M47 342q0 117 26.5 226t82 204.5t135 166.5t192.5 112t247 41q87 0 178 -17.5t162 -42.5l-335 -1566h-194l101 484q28 121 50 207h-4q-53 -63 -114.5 -104.5t-116 -58t-108.5 -16.5q-137 0 -219.5 92.5t-82.5 271.5zM248 374q0 -39 5 -72.5t17.5 -63t31 -50t46 -32.5 t62.5 -12q34 0 70.5 12t82 44t85 81.5t76 132.5t58.5 188l65 303q-76 21 -155 21q-82 0 -153.5 -30t-124 -83t-90.5 -123t-57 -150.5t-19 -165.5z" />
<glyph unicode="r" horiz-adv-x="738" d="M0 0l228 1066h157l-26 -212h4q53 111 131.5 174.5t169.5 63.5q73 0 131 -38l-83 -171q-44 25 -93 25q-48 0 -94.5 -28t-91 -83.5t-83 -148t-64.5 -214.5l-90 -434h-196z" />
<glyph unicode="s" horiz-adv-x="810" d="M-58 63l65 149q119 -72 249 -72q86 0 146 38t60 110q0 33 -15 63t-39.5 52.5t-55.5 47t-63.5 46t-64 51.5t-56 61.5t-39.5 77t-15 97.5q0 65 23 120t67 97.5t114.5 66.5t158.5 24q148 0 269 -47l-32 -159q-125 47 -228 47q-76 0 -124 -35t-48 -105q0 -34 14.5 -64 t39 -52.5t55.5 -47t63.5 -46.5t63.5 -51.5t55.5 -62t39.5 -78t15 -98.5q0 -98 -52 -170t-140.5 -108.5t-201.5 -36.5q-186 0 -324 85z" />
<glyph unicode="t" horiz-adv-x="767" d="M73 905l33 161h178l52 241l207 58l-66 -299h291l-63 -161h-262l-127 -604q-9 -36 -9 -69q0 -90 95 -90q79 0 179 56l49 -144q-131 -76 -276 -76q-125 0 -185.5 57t-60.5 156q0 54 16 131l124 583h-175z" />
<glyph unicode="u" horiz-adv-x="1130" d="M65 245q0 70 27 210l129 611h196l-133 -629q-20 -91 -20 -149q0 -71 33 -105.5t88 -34.5q84 0 159.5 52t127 137.5t74.5 189.5l114 539h194l-134 -634q-34 -189 -34 -270q0 -65 15 -140l-166 -35q-29 93 -29 181q0 13 1 26h-4q-68 -96 -170.5 -156t-208.5 -60 q-54 0 -100 15.5t-82 47t-56.5 83.5t-20.5 121z" />
<glyph unicode="v" horiz-adv-x="993" d="M86 1066h191l88 -514q39 -234 47 -300h5q102 209 142 289l270 525h207l-585 -1073h-152z" />
<glyph unicode="w" horiz-adv-x="1518" d="M88 1066h185l71 -512q25 -169 34 -290h5q46 111 113 252l265 550h140l64 -501q13 -110 31 -301h4q11 28 111 256l247 546h205l-531 -1073h-153l-64 516q-22 177 -31 269h-4q-43 -103 -129 -275l-253 -510h-148z" />
<glyph unicode="x" horiz-adv-x="1008" d="M-112 0l475 546l-282 520h201l209 -391l332 391h213l-462 -535l291 -531h-205l-213 406l-348 -406h-211z" />
<glyph unicode="y" horiz-adv-x="1017" d="M-282 -494l70 154q64 -30 131 -30q52 0 98.5 17t97 57t101.5 113.5t104 180.5l-241 1068h196l112 -544q26 -116 62 -303h4q62 145 126 277l277 570h206l-562 -1102q-95 -188 -184.5 -296t-187 -155t-225.5 -47q-117 0 -185 40z" />
<glyph unicode="z" horiz-adv-x="871" d="M-79 0l613 905h-422l-20 161h764l-617 -909h481l-30 -157h-769z" />
<glyph unicode="{" horiz-adv-x="778" d="M86 541l31 149q102 3 147 60q26 34 37 95l107 511q31 154 101 232q112 129 353 144v-173q-144 -20 -209 -97q-39 -45 -60 -155l-93 -447q-20 -97 -57 -157q-28 -39 -66 -60.5t-89 -34.5v-4q50 -9 83 -46.5t33 -104.5q0 -42 -17 -131l-80 -387q-14 -59 -14 -104 q0 -72 40.5 -111t132.5 -56l-56 -171q-167 25 -243.5 95.5t-76.5 190.5q0 48 18 137l92 443q7 38 7 67q0 38 -14 63t-40.5 37.5t-66.5 14.5z" />
<glyph unicode="|" horiz-adv-x="650" d="M232 -534v2291h189v-2291h-189z" />
<glyph unicode="}" horiz-adv-x="778" d="M-142 -331q144 20 209 97q39 44 64 155l90 446q23 108 58 155q49 71 153 97v5q-49 9 -80.5 47t-31.5 109q0 54 13 125l84 389q11 60 11 103q0 71 -40.5 110t-131.5 54l58 171q167 -23 241.5 -93t74.5 -193q0 -45 -17 -135l-93 -444q-6 -33 -6 -65q0 -57 30.5 -84 t91.5 -30l-32 -150q-100 -3 -146 -63q-29 -36 -39 -92l-105 -512q-32 -153 -102 -232q-110 -127 -354 -146v176z" />
<glyph unicode="~" horiz-adv-x="1195" d="M45 588q151 151 306 151q54 0 122.5 -21t123.5 -46.5t118.5 -46.5t109.5 -21q54 0 95 21.5t103 75.5l101 -122q-145 -149 -307 -149q-52 0 -120.5 21t-124 46t-119 45.5t-107.5 20.5q-56 0 -98 -21.5t-100 -75.5z" />
<glyph unicode="&#xa1;" horiz-adv-x="628" d="M-25 -410l25 117q6 26 16 76q84 396 122 544.5t110 336.5h103q-8 -197 -33.5 -351.5t-119.5 -605.5l-24 -117h-199zM232 955q0 57 38.5 96t94.5 39q46 0 77 -34t31 -80q0 -58 -37.5 -97t-93.5 -39q-32 0 -57 15.5t-39 42t-14 57.5z" />
<glyph unicode="&#xa2;" horiz-adv-x="1180" d="M194 653q0 123 37 230t101.5 184.5t151.5 128t187 66.5l49 223h157l-45 -219q118 -7 198 -47l-34 -155q-105 49 -218 49q-112 0 -201 -59.5t-138.5 -162t-49.5 -227.5q0 -84 29.5 -146t88 -96.5t140.5 -34.5q126 0 249 73l41 -144q-65 -40 -150.5 -63t-167.5 -23 l-49 -230h-158l54 250q-124 38 -198 143t-74 260z" />
<glyph unicode="&#xa3;" horiz-adv-x="1191" d="M60 0l21 135q30 12 56.5 29.5t48.5 42t40.5 50t33.5 59t27 61t22.5 65.5t17.5 63.5t14.5 63t11 56.5t8.5 50h-170l26 165h166l27 179q21 157 76 251q34 61 80.5 106t100 71t110 38.5t117.5 12.5q134 0 252 -54l-67 -156q-80 41 -174 41q-49 0 -93.5 -14.5t-87.5 -51 t-71 -91.5q-33 -69 -47 -174l-23 -158h401l-53 -165h-370q-14 -90 -30.5 -160.5t-42.5 -144t-64 -128t-86 -87.5v-4q121 14 243 14h390l-25 -165h-886z" />
<glyph unicode="&#xa5;" horiz-adv-x="1191" d="M47 271l28 137h355l39 183h-363l29 137h295l-225 757h203l185 -696h4l426 696h216l-491 -757h297l-29 -137h-356l-38 -183h362l-29 -137h-362l-59 -271h-192l56 271h-351z" />
<glyph unicode="&#xa7;" horiz-adv-x="1229" d="M28 -266l82 154q145 -95 305 -95q47 0 89 7.5t81 24.5t67 43t45 65.5t17 88.5q0 43 -16.5 80t-44 64.5t-64.5 54t-78.5 47.5t-85.5 46.5t-86 50.5t-79 58.5t-64.5 71t-44 88.5t-16.5 111q0 108 63.5 199.5t166.5 144.5q-81 85 -81 208q0 90 36 163t98.5 121t146 73.5 t179.5 25.5q185 0 331 -75l-37 -166q-134 76 -290 76q-73 0 -131.5 -22.5t-95.5 -69.5t-37 -112q0 -43 16.5 -79t44.5 -62t66 -51.5t80.5 -45.5t87 -45t87 -49.5t80 -59t66 -73.5t44.5 -93.5t16 -118.5q0 -112 -60.5 -201.5t-162.5 -149.5q65 -79 65 -200q0 -83 -28 -151 t-76 -114t-112.5 -78t-136 -46.5t-149.5 -14.5q-223 0 -384 106zM322 723q0 -49 21 -90.5t53.5 -71t80 -60.5t92.5 -54.5t99.5 -56.5t92.5 -63q125 95 125 227q0 49 -20 91.5t-50 72.5t-76 61t-89 53t-98 53.5t-93 58.5q-138 -85 -138 -221z" />
<glyph unicode="&#xa8;" d="M120 1345q0 56 33.5 92t82.5 36q29 0 50.5 -12t33 -33.5t11.5 -49.5q0 -55 -33.5 -91t-83.5 -36q-43 0 -68.5 26t-25.5 68zM525 1345q0 56 34 92t83 36q44 0 70.5 -26t26.5 -69q0 -55 -35 -91t-85 -36q-43 0 -68.5 26t-25.5 68z" />
<glyph unicode="&#xa9;" horiz-adv-x="1750" d="M122 737q0 159 56.5 299t154.5 241.5t237.5 160t299.5 58.5q159 0 298 -58.5t237 -160t154 -242t56 -298.5t-56 -298.5t-154 -242t-237 -160t-298 -58.5q-160 0 -299.5 58.5t-237.5 160t-154.5 241.5t-56.5 299zM250 737q0 -138 47 -259t129 -206.5t197 -134.5t247 -49 t246.5 49t196 135t128 206.5t46.5 258.5t-46.5 258t-128 205t-196 134t-246.5 49t-247 -49t-197 -133.5t-129 -205t-47 -258.5zM475 725q0 94 29.5 177.5t82.5 147t134.5 100.5t179.5 37q121 0 214 -52v-123q-96 56 -212 56q-132 0 -212.5 -92t-80.5 -239q0 -158 76 -246.5 t206 -88.5q112 0 207 58l43 -101q-123 -73 -259 -73q-125 0 -218.5 58.5t-141.5 157t-48 223.5z" />
<glyph unicode="&#xaa;" horiz-adv-x="742" d="M-60 309l26 130h666l-28 -130h-664zM63 798q0 75 30.5 131t85 88.5t123.5 48t153 15.5h95q9 40 9 63q0 99 -129 99q-97 0 -223 -54l-27 124q130 63 273 63q119 0 190 -55t71 -167q0 -63 -24 -172l-19 -70q-26 -103 -26 -187q0 -48 13 -99l-133 -29q-17 52 -20 110h-5 q-48 -52 -109 -83t-127 -31q-92 0 -146.5 55.5t-54.5 149.5zM219 817q0 -43 22 -67.5t66 -24.5q66 0 129.5 57.5t81.5 141.5l9 35h-63q-245 0 -245 -142z" />
<glyph unicode="&#xab;" horiz-adv-x="1211" d="M43 548l443 464l118 -109l-348 -372l228 -371l-140 -85zM536 548l444 464l119 -109l-349 -372l228 -371l-138 -85z" />
<glyph unicode="&#xac;" horiz-adv-x="1195" d="M36 536v167h1065v-651h-187v484h-878z" />
<glyph unicode="&#xae;" horiz-adv-x="1301" d="M169 950.5q0 114.5 40 215.5t110 174.5t170.5 115.5t215.5 42q114 0 214 -42.5t171 -115t112 -174t41 -216t-41 -215.5t-112 -173t-171 -114t-214 -42q-115 0 -215.5 42t-170.5 114t-110 173t-40 215.5zM268 950q0 -75 21 -144t59.5 -125t91.5 -98t121.5 -64.5 t143.5 -22.5q126 0 226.5 60.5t155.5 164t55 229.5q0 128 -55.5 231.5t-155.5 164t-226 60.5t-226 -60.5t-155.5 -164t-55.5 -231.5zM529 669v586h156q56 0 104 -16q50 -16 76.5 -55.5t26.5 -89.5q0 -41 -17.5 -73.5t-48.5 -52.5t-74 -29v-2q28 -20 65.5 -79.5t110.5 -188.5 h-108l-21 36q-22 40 -32.5 59t-27 47.5t-25.5 42t-20.5 29t-20 22.5t-15.5 9h-36v-245h-93zM622 989h40q58 0 93.5 23t35.5 76q0 19 -5.5 35t-16.5 27.5t-25 16.5q-28 11 -82 11h-40v-189z" />
<glyph unicode="&#xaf;" d="M124 1288l31 156h586l-34 -156h-583z" />
<glyph unicode="&#xb0;" horiz-adv-x="862" d="M155 1139.5q0 148.5 100 247t250 98.5q149 0 247.5 -98.5t98.5 -247t-99 -246.5t-249 -98t-249 98t-99 246.5zM304 1140q0 -61 26.5 -109.5t72.5 -75.5t102 -27q84 0 141 60t57 152q0 90 -57.5 150t-140.5 60q-85 0 -143 -60t-58 -150z" />
<glyph unicode="&#xb1;" horiz-adv-x="1195" d="M45 0v167h1066v-167h-1066zM45 630v168h439v342h185v-342h442v-168h-442v-342h-185v342h-439z" />
<glyph unicode="&#xb4;" d="M301 1196l172 332h225l-245 -332h-152z" />
<glyph unicode="&#xb5;" horiz-adv-x="1213" d="M-112 -534l344 1600h194l-131 -617q-20 -84 -20 -145q0 -80 40 -118t104 -38q54 0 106.5 23t99 67.5t83.5 117t55 164.5l120 546h194l-157 -739q-15 -73 -15 -101q0 -64 69 -64q35 0 71 14v-167q-60 -22 -125 -22q-77 0 -123 39t-51 116q0 38 2 52h-4q-69 -106 -160 -161 t-190 -55q-59 0 -108.5 24t-76.5 75h-4q-16 -117 -50 -284l-71 -327h-196z" />
<glyph unicode="&#xb6;" horiz-adv-x="1333" d="M142 881q0 130 51 242t141 191.5t218 125t277 45.5h450l-387 -1846h-169l358 1704h-234l-359 -1704h-168l178 845q-162 5 -259 115t-97 282z" />
<glyph unicode="&#xb7;" horiz-adv-x="529" d="M106 559q0 59 37 98t93 39q48 0 78 -34t30 -81q0 -38 -16.5 -69t-46.5 -48t-67 -17q-47 0 -77.5 32.5t-30.5 79.5z" />
<glyph unicode="&#xb8;" d="M183 -447l47 103q44 -23 106 -23q29 0 53.5 5.5t42.5 16.5t28.5 29t10.5 41q0 80 -176 73l97 202h149l-57 -120q75 -5 118 -43.5t43 -102.5q0 -69 -40.5 -117.5t-106 -71t-149.5 -22.5q-94 0 -166 30z" />
<glyph unicode="&#xba;" horiz-adv-x="804" d="M-36 309l29 130h692l-27 -130h-694zM90 883q0 105 32.5 197.5t88 157t131 101.5t158.5 37q138 0 215.5 -81.5t77.5 -213.5q0 -103 -32.5 -194.5t-88 -155.5t-131 -101t-158.5 -37q-137 0 -215 81t-78 209zM248 901q0 -171 141 -171q74 0 131.5 51t86.5 127.5t29 161.5 q0 169 -142 169q-72 0 -130 -50.5t-87 -127t-29 -160.5z" />
<glyph unicode="&#xbb;" horiz-adv-x="1211" d="M22 183l348 371l-228 372l140 86l301 -474l-443 -463zM516 183l349 371l-229 372l140 86l301 -474l-441 -463z" />
<glyph unicode="&#xbf;" horiz-adv-x="1015" d="M-9 -131q0 113 65 208q26 37 65.5 76t79 72.5t83.5 69.5t84.5 75t76 82.5t63.5 97.5t42 114h128q-4 -89 -32.5 -166.5t-71.5 -133t-94 -105t-102 -91.5t-93 -82.5t-68 -88t-26 -98.5q0 -75 48.5 -114t130.5 -39q145 0 301 108l70 -140q-185 -138 -405 -138q-96 0 -173 33 t-124.5 101t-47.5 159zM531 955q0 59 37.5 97t93.5 38q48 0 78 -32.5t30 -79.5q0 -59 -36.5 -97t-93.5 -38q-47 0 -78 32.5t-31 79.5z" />
<glyph unicode="&#xc0;" horiz-adv-x="1305" d="M-99 0l789 1489h157l271 -1489h-208l-67 389h-523l-198 -389h-221zM410 554h405l-67 439q-4 26 -9 59t-10.5 69.5t-10.5 67.5h-4q-76 -173 -92 -207zM531 1899h226l110 -331h-153z" />
<glyph unicode="&#xc1;" horiz-adv-x="1305" d="M-99 0l789 1489h157l271 -1489h-208l-67 389h-523l-198 -389h-221zM410 554h405l-67 439q-4 26 -9 59t-10.5 69.5t-10.5 67.5h-4q-76 -173 -92 -207zM685 1568l171 331h225l-245 -331h-151z" />
<glyph unicode="&#xc2;" horiz-adv-x="1305" d="M-99 0l789 1489h157l271 -1489h-208l-67 389h-523l-198 -389h-221zM410 554h405l-67 439q-4 26 -9 59t-10.5 69.5t-10.5 67.5h-4q-76 -173 -92 -207zM464 1568l269 331h166l185 -331h-160l-118 212l-174 -212h-168z" />
<glyph unicode="&#xc3;" horiz-adv-x="1305" d="M-99 0l789 1489h157l271 -1489h-208l-67 389h-523l-198 -389h-221zM410 554h405l-67 439q-4 26 -9 59t-10.5 69.5t-10.5 67.5h-4q-76 -173 -92 -207zM449 1631q9 119 64.5 179t135.5 60q34 0 67.5 -11t60 -26.5t50.5 -31t48.5 -26.5t46.5 -11q62 0 76 93h139 q-9 -119 -64.5 -179.5t-133.5 -60.5q-42 0 -84 16.5t-70 36.5t-61.5 37t-59.5 17q-32 0 -49 -23.5t-24 -69.5h-142z" />
<glyph unicode="&#xc4;" horiz-adv-x="1305" d="M-99 0l789 1489h157l271 -1489h-208l-67 389h-523l-198 -389h-221zM410 554h405l-67 439q-4 26 -9 59t-10.5 69.5t-10.5 67.5h-4q-76 -173 -92 -207zM480 1681q0 55 35 90t85 35q43 0 68.5 -24.5t25.5 -66.5q0 -56 -34 -92.5t-84 -36.5q-43 0 -69.5 26.5t-26.5 68.5z M888 1681q0 55 33.5 90t82.5 35q44 0 69.5 -24.5t25.5 -66.5q0 -56 -34 -92.5t-83 -36.5q-43 0 -68.5 26t-25.5 69z" />
<glyph unicode="&#xc5;" horiz-adv-x="1305" d="M-99 0l779 1477q-60 17 -95 63t-35 111q0 109 75.5 176t189.5 67q98 0 158.5 -51t60.5 -138q0 -23 -3.5 -44t-10.5 -40t-17 -36t-22.5 -31.5t-27.5 -27t-31.5 -22t-34.5 -17t-38 -12.5l269 -1475h-208l-67 389h-523l-198 -389h-221zM410 554h405l-67 439q-4 26 -9 59 t-10.5 69.5t-10.5 67.5h-4q-76 -173 -92 -207zM688 1658q0 -44 24.5 -69.5t65.5 -25.5q53 0 85.5 39.5t32.5 98.5q0 28 -10.5 49t-31 33t-48.5 12q-53 0 -85.5 -39t-32.5 -98z" />
<glyph unicode="&#xc6;" horiz-adv-x="1756" d="M-148 0l1058 1485h766l-49 -169h-485l-65 -473h477l-24 -170h-476l-67 -504h545l-25 -169h-739l52 389h-466l-275 -389h-227zM473 554h370l94 667h-4q-15 -23 -46 -69t-53 -79.5t-48 -71.5t-42 -59z" />
<glyph unicode="&#xc7;" horiz-adv-x="1331" d="M101 593q0 194 65.5 362.5t179 287.5t273.5 187t342 68q200 0 370 -79l-40 -171q-156 79 -326 79q-116 0 -219 -37t-181.5 -103.5t-136 -155t-87.5 -196t-30 -222.5q0 -138 48.5 -242t146.5 -163.5t233 -59.5q184 0 368 93l37 -164q-45 -23 -97.5 -41.5t-107 -31 t-110 -19t-109.5 -7.5l-45 -98q75 -5 118 -43.5t43 -102.5q0 -69 -40 -117.5t-105 -71t-150 -22.5q-95 0 -165 30l48 103q41 -23 105 -23q59 0 96 23.5t37 68.5q0 80 -176 73l90 193q-219 40 -347 197t-128 405z" />
<glyph unicode="&#xc8;" horiz-adv-x="1053" d="M22 0l316 1485h719l-68 -169h-489l-98 -473h479l-36 -170h-482l-107 -504h548l-36 -169h-746zM471 1899h225l110 -331h-153z" />
<glyph unicode="&#xc9;" horiz-adv-x="1053" d="M22 0l316 1485h719l-68 -169h-489l-98 -473h479l-36 -170h-482l-107 -504h548l-36 -169h-746zM597 1568l171 331h225l-245 -331h-151z" />
<glyph unicode="&#xca;" horiz-adv-x="1053" d="M22 0l316 1485h719l-68 -169h-489l-98 -473h479l-36 -170h-482l-107 -504h548l-36 -169h-746zM389 1568l269 331h167l185 -331h-161l-116 212l-174 -212h-170z" />
<glyph unicode="&#xcb;" horiz-adv-x="1053" d="M22 0l316 1485h719l-68 -169h-489l-98 -473h479l-36 -170h-482l-107 -504h548l-36 -169h-746zM412 1681q0 55 35 90t84 35q44 0 69.5 -24.5t25.5 -66.5q0 -56 -34 -92.5t-83 -36.5q-43 0 -70 26.5t-27 68.5zM820 1681q0 55 34 90t83 35q44 0 69.5 -24.5t25.5 -66.5 q0 -37 -16 -66.5t-43 -46t-59 -16.5q-43 0 -68.5 26t-25.5 69z" />
<glyph unicode="&#xcc;" horiz-adv-x="557" d="M22 0l316 1485h198l-315 -1485h-199zM226 1899h225l110 -331h-153z" />
<glyph unicode="&#xcd;" horiz-adv-x="557" d="M22 0l316 1485h198l-315 -1485h-199zM363 1568l171 331h225l-245 -331h-151z" />
<glyph unicode="&#xce;" horiz-adv-x="557" d="M22 0l316 1485h198l-315 -1485h-199zM142 1568l268 331h166l185 -331h-159l-118 212l-173 -212h-169z" />
<glyph unicode="&#xcf;" horiz-adv-x="557" d="M22 0l316 1485h198l-315 -1485h-199zM160 1681q0 55 35 90t84 35q44 0 69.5 -24.5t25.5 -66.5q0 -37 -16 -66.5t-42.5 -46t-59.5 -16.5q-43 0 -69.5 26.5t-26.5 68.5zM568 1681q0 55 34 90t83 35q29 0 50.5 -11t33 -31.5t11.5 -48.5q0 -37 -16 -66.5t-43 -46t-59 -16.5 q-43 0 -68.5 26t-25.5 69z" />
<glyph unicode="&#xd0;" horiz-adv-x="1436" d="M-13 664l35 165h176l140 656h262q253 0 419 -75q322 -143 322 -543q0 -173 -58 -326.5t-173 -274t-274 -187.5q-194 -79 -453 -79h-361l140 664h-175zM256 169h148q211 0 355 67q179 81 275.5 250.5t96.5 394.5q0 279 -221 381q-118 54 -317 54h-93l-104 -487h359 l-37 -165h-357z" />
<glyph unicode="&#xd1;" horiz-adv-x="1582" d="M22 0l316 1485h187l489 -958q41 -79 99 -209h5q7 44 22.5 123t19.5 105l198 939h201l-318 -1485h-164l-505 989q-74 145 -99 207h-4q-8 -55 -39 -214l-209 -982h-199zM638 1631q9 119 65 179t135 60q42 0 84 -16.5t70 -36.5t60.5 -36.5t58.5 -16.5q62 0 76 93h140 q-10 -119 -65 -179.5t-133 -60.5q-35 0 -68.5 11t-60 26.5t-51 31.5t-49.5 27t-46 11q-22 0 -37.5 -11.5t-24 -31t-12.5 -50.5h-142z" />
<glyph unicode="&#xd2;" horiz-adv-x="1617" d="M101 600q0 140 36.5 273t107 245.5t167.5 198t226.5 133.5t275.5 48q136 0 246.5 -40.5t189.5 -117.5t122.5 -194.5t43.5 -266.5q0 -140 -36.5 -273.5t-107 -246.5t-167.5 -198.5t-226.5 -134t-275.5 -48.5q-136 0 -247 40.5t-190 118.5t-122 195.5t-43 267.5zM311 602 q0 -215 103.5 -334.5t301.5 -119.5q91 0 172.5 30t145.5 81.5t115.5 121.5t85.5 151t52 169t18 176q0 215 -103 332.5t-299 117.5q-109 0 -205 -42t-165.5 -113t-120 -163.5t-76 -196.5t-25.5 -210zM716 1899h226l110 -331h-153z" />
<glyph unicode="&#xd3;" horiz-adv-x="1617" d="M101 600q0 140 36.5 273t107 245.5t167.5 198t226.5 133.5t275.5 48q136 0 246.5 -40.5t189.5 -117.5t122.5 -194.5t43.5 -266.5q0 -140 -36.5 -273.5t-107 -246.5t-167.5 -198.5t-226.5 -134t-275.5 -48.5q-136 0 -247 40.5t-190 118.5t-122 195.5t-43 267.5zM311 602 q0 -215 103.5 -334.5t301.5 -119.5q91 0 172.5 30t145.5 81.5t115.5 121.5t85.5 151t52 169t18 176q0 215 -103 332.5t-299 117.5q-109 0 -205 -42t-165.5 -113t-120 -163.5t-76 -196.5t-25.5 -210zM854 1568l171 331h226l-247 -331h-150z" />
<glyph unicode="&#xd4;" horiz-adv-x="1617" d="M101 600q0 140 36.5 273t107 245.5t167.5 198t226.5 133.5t275.5 48q136 0 246.5 -40.5t189.5 -117.5t122.5 -194.5t43.5 -266.5q0 -140 -36.5 -273.5t-107 -246.5t-167.5 -198.5t-226.5 -134t-275.5 -48.5q-136 0 -247 40.5t-190 118.5t-122 195.5t-43 267.5zM311 602 q0 -215 103.5 -334.5t301.5 -119.5q91 0 172.5 30t145.5 81.5t115.5 121.5t85.5 151t52 169t18 176q0 215 -103 332.5t-299 117.5q-109 0 -205 -42t-165.5 -113t-120 -163.5t-76 -196.5t-25.5 -210zM647 1568l267 331h167l185 -331h-159l-118 212l-174 -212h-168z" />
<glyph unicode="&#xd5;" horiz-adv-x="1617" d="M101 600q0 140 36.5 273t107 245.5t167.5 198t226.5 133.5t275.5 48q136 0 246.5 -40.5t189.5 -117.5t122.5 -194.5t43.5 -266.5q0 -140 -36.5 -273.5t-107 -246.5t-167.5 -198.5t-226.5 -134t-275.5 -48.5q-136 0 -247 40.5t-190 118.5t-122 195.5t-43 267.5zM311 602 q0 -215 103.5 -334.5t301.5 -119.5q91 0 172.5 30t145.5 81.5t115.5 121.5t85.5 151t52 169t18 176q0 215 -103 332.5t-299 117.5q-109 0 -205 -42t-165.5 -113t-120 -163.5t-76 -196.5t-25.5 -210zM630 1631q5 61 23 108t46 75t61.5 42t71.5 14q42 0 83.5 -16.5t69.5 -36.5 t60.5 -36.5t58.5 -16.5q62 0 76 93h140q-9 -119 -64.5 -179.5t-133.5 -60.5q-34 0 -68 11t-60.5 26.5t-51 31.5t-49 27t-46.5 11q-33 0 -50.5 -23.5t-24.5 -69.5h-142z" />
<glyph unicode="&#xd6;" horiz-adv-x="1617" d="M101 600q0 140 36.5 273t107 245.5t167.5 198t226.5 133.5t275.5 48q136 0 246.5 -40.5t189.5 -117.5t122.5 -194.5t43.5 -266.5q0 -140 -36.5 -273.5t-107 -246.5t-167.5 -198.5t-226.5 -134t-275.5 -48.5q-136 0 -247 40.5t-190 118.5t-122 195.5t-43 267.5zM311 602 q0 -215 103.5 -334.5t301.5 -119.5q91 0 172.5 30t145.5 81.5t115.5 121.5t85.5 151t52 169t18 176q0 215 -103 332.5t-299 117.5q-109 0 -205 -42t-165.5 -113t-120 -163.5t-76 -196.5t-25.5 -210zM662 1681q0 55 35 90t85 35q44 0 69.5 -24.5t25.5 -66.5q0 -37 -16 -66.5 t-43 -46t-59 -16.5q-44 0 -70.5 26.5t-26.5 68.5zM1070 1681q0 55 33.5 90t83.5 35q17 0 32 -4t26.5 -12t19.5 -19t12.5 -25t4.5 -31q0 -56 -34 -92.5t-83 -36.5q-43 0 -69 26t-26 69z" />
<glyph unicode="&#xd8;" horiz-adv-x="1617" d="M84 47l133 151q-116 156 -116 408q0 116 25.5 227.5t72.5 210.5t118.5 182.5t159 143.5t198.5 94t233 34q227 0 369 -110l131 146l122 -101l-133 -151q119 -160 119 -410q0 -139 -35.5 -271t-105.5 -244.5t-166.5 -197.5t-225.5 -133t-276 -48q-228 0 -371 114l-131 -148 zM311 602q0 -143 48 -239l795 880q-97 84 -258 84q-87 0 -166.5 -27t-143.5 -75t-116 -115.5t-86.5 -147.5t-53.5 -172t-19 -188zM460 234q100 -86 263 -86q86 0 165.5 27.5t143 76t115 116t86 148t53.5 172.5t19 189q0 146 -50 241z" />
<glyph unicode="&#xd9;" horiz-adv-x="1466" d="M129 410q0 69 26 205l185 870h198l-187 -875q-22 -104 -22 -176q0 -95 37 -160t104 -96.5t160 -31.5q190 0 292 106q87 90 125 270l206 963h198l-208 -982q-55 -254 -181 -374q-56 -53 -123.5 -86.5t-145.5 -49t-171 -15.5q-235 0 -364 115.5t-129 316.5zM660 1899h226 l110 -331h-153z" />
<glyph unicode="&#xda;" horiz-adv-x="1466" d="M129 410q0 69 26 205l185 870h198l-187 -875q-22 -104 -22 -176q0 -95 37 -160t104 -96.5t160 -31.5q190 0 292 106q87 90 125 270l206 963h198l-208 -982q-55 -254 -181 -374q-56 -53 -123.5 -86.5t-145.5 -49t-171 -15.5q-235 0 -364 115.5t-129 316.5zM815 1568 l172 331h225l-245 -331h-152z" />
<glyph unicode="&#xdb;" horiz-adv-x="1466" d="M129 410q0 69 26 205l185 870h198l-187 -875q-22 -104 -22 -176q0 -95 37 -160t104 -96.5t160 -31.5q190 0 292 106q87 90 125 270l206 963h198l-208 -982q-55 -254 -181 -374q-56 -53 -123.5 -86.5t-145.5 -49t-171 -15.5q-235 0 -364 115.5t-129 316.5zM600 1568 l267 331h167l185 -331h-160l-117 212l-174 -212h-168z" />
<glyph unicode="&#xdc;" horiz-adv-x="1466" d="M129 410q0 69 26 205l185 870h198l-187 -875q-22 -104 -22 -176q0 -95 37 -160t104 -96.5t160 -31.5q190 0 292 106q87 90 125 270l206 963h198l-208 -982q-55 -254 -181 -374q-56 -53 -123.5 -86.5t-145.5 -49t-171 -15.5q-235 0 -364 115.5t-129 316.5zM622 1681 q0 55 35 90t84 35q44 0 69.5 -24.5t25.5 -66.5q0 -37 -16 -66.5t-42.5 -46t-59.5 -16.5q-43 0 -69.5 26.5t-26.5 68.5zM1030 1681q0 55 33.5 90t82.5 35q44 0 69.5 -24.5t25.5 -66.5q0 -56 -34 -92.5t-83 -36.5q-43 0 -68.5 26t-25.5 69z" />
<glyph unicode="&#xdd;" horiz-adv-x="1157" d="M162 1485h208l240 -717h5l462 717h223l-612 -917l-123 -568h-198l121 574zM642 1568l171 331h225l-245 -331h-151z" />
<glyph unicode="&#xde;" horiz-adv-x="1148" d="M22 0l316 1485h198l-52 -251h30q137 0 241 -35q128 -46 198 -145.5t70 -238.5q0 -176 -99 -307.5t-279 -185.5q-124 -36 -282 -36h-81l-61 -286h-199zM318 451h74q122 0 193 29q113 36 174 124t61 207q0 82 -37.5 143.5t-115.5 90.5q-71 25 -160 25h-58z" />
<glyph unicode="&#xdf;" horiz-adv-x="1294" d="M-36 -318l315 1478q37 165 113 261q70 90 171.5 132t214.5 42q90 0 165.5 -23.5t133 -69t90 -119t32.5 -166.5q0 -57 -21 -168q-159 -6 -249.5 -64t-90.5 -158q0 -39 16 -75.5t41 -66t55 -59t60.5 -62.5t55.5 -69t40.5 -85.5t15.5 -105.5q0 -102 -52 -177t-139 -112 t-196 -37q-183 0 -318 85l65 149q126 -72 243 -72q84 0 141.5 41t57.5 120q0 35 -12 67t-32 57.5t-45 53t-51.5 52t-52 55.5t-45 62.5t-32 73.5t-12.5 89q0 94 43 167.5t123.5 119.5t191.5 58q4 13 4 56q0 107 -60.5 159t-161.5 52q-119 0 -200 -72.5t-113 -224.5 l-307 -1444h-198z" />
<glyph unicode="&#xe0;" horiz-adv-x="1056" d="M2 260q0 180 127 283q141 117 430 117l148 2q13 51 13 110q0 79 -46.5 121t-148.5 42q-146 0 -316 -81l-26 150q186 88 374 88q56 0 105 -8.5t97 -30.5t82.5 -56t55 -88.5t20.5 -124.5q0 -12 -0.5 -25t-1.5 -24t-3 -27t-3 -25t-4.5 -27t-4.5 -25t-5 -27.5t-5 -25 t-5.5 -26.5t-5.5 -25l-23 -95q-39 -170 -39 -275q0 -66 19 -135l-169 -35q-28 90 -31 182q-67 -85 -158.5 -138t-191.5 -53q-129 0 -206.5 78.5t-77.5 203.5zM196 286q0 -48 16 -81t47.5 -49t78.5 -16q68 0 136.5 37.5t121.5 107.5t71 156l16 75h-83q-240 0 -332 -73 q-72 -59 -72 -157zM365 1528h226l110 -332h-153z" />
<glyph unicode="&#xe1;" horiz-adv-x="1056" d="M2 260q0 180 127 283q141 117 430 117l148 2q13 51 13 110q0 79 -46.5 121t-148.5 42q-146 0 -316 -81l-26 150q186 88 374 88q56 0 105 -8.5t97 -30.5t82.5 -56t55 -88.5t20.5 -124.5q0 -12 -0.5 -25t-1.5 -24t-3 -27t-3 -25t-4.5 -27t-4.5 -25t-5 -27.5t-5 -25 t-5.5 -26.5t-5.5 -25l-23 -95q-39 -170 -39 -275q0 -66 19 -135l-169 -35q-28 90 -31 182q-67 -85 -158.5 -138t-191.5 -53q-129 0 -206.5 78.5t-77.5 203.5zM196 286q0 -48 16 -81t47.5 -49t78.5 -16q68 0 136.5 37.5t121.5 107.5t71 156l16 75h-83q-240 0 -332 -73 q-72 -59 -72 -157zM491 1196l171 332h226l-246 -332h-151z" />
<glyph unicode="&#xe2;" horiz-adv-x="1056" d="M2 260q0 180 127 283q141 117 430 117l148 2q13 51 13 110q0 79 -46.5 121t-148.5 42q-146 0 -316 -81l-26 150q186 88 374 88q56 0 105 -8.5t97 -30.5t82.5 -56t55 -88.5t20.5 -124.5q0 -12 -0.5 -25t-1.5 -24t-3 -27t-3 -25t-4.5 -27t-4.5 -25t-5 -27.5t-5 -25 t-5.5 -26.5t-5.5 -25l-23 -95q-39 -170 -39 -275q0 -66 19 -135l-169 -35q-28 90 -31 182q-67 -85 -158.5 -138t-191.5 -53q-129 0 -206.5 78.5t-77.5 203.5zM196 286q0 -48 16 -81t47.5 -49t78.5 -16q68 0 136.5 37.5t121.5 107.5t71 156l16 75h-83q-240 0 -332 -73 q-72 -59 -72 -157zM277 1196l269 332h166l184 -332h-159l-118 212l-172 -212h-170z" />
<glyph unicode="&#xe3;" horiz-adv-x="1056" d="M2 260q0 180 127 283q141 117 430 117l148 2q13 51 13 110q0 79 -46.5 121t-148.5 42q-146 0 -316 -81l-26 150q186 88 374 88q56 0 105 -8.5t97 -30.5t82.5 -56t55 -88.5t20.5 -124.5q0 -12 -0.5 -25t-1.5 -24t-3 -27t-3 -25t-4.5 -27t-4.5 -25t-5 -27.5t-5 -25 t-5.5 -26.5t-5.5 -25l-23 -95q-39 -170 -39 -275q0 -66 19 -135l-169 -35q-28 90 -31 182q-67 -85 -158.5 -138t-191.5 -53q-129 0 -206.5 78.5t-77.5 203.5zM196 286q0 -48 16 -81t47.5 -49t78.5 -16q68 0 136.5 37.5t121.5 107.5t71 156l16 75h-83q-240 0 -332 -73 q-72 -59 -72 -157zM264 1243q9 119 65 179.5t135 60.5q35 0 68.5 -11t59.5 -27t50 -31.5t48.5 -26.5t46.5 -11q62 0 76 92h140q-10 -118 -65 -178t-133 -60q-42 0 -84.5 16.5t-70.5 36t-61 36t-59 16.5q-33 0 -50 -23.5t-24 -68.5h-142z" />
<glyph unicode="&#xe4;" horiz-adv-x="1056" d="M2 260q0 180 127 283q141 117 430 117l148 2q13 51 13 110q0 79 -46.5 121t-148.5 42q-146 0 -316 -81l-26 150q186 88 374 88q56 0 105 -8.5t97 -30.5t82.5 -56t55 -88.5t20.5 -124.5q0 -12 -0.5 -25t-1.5 -24t-3 -27t-3 -25t-4.5 -27t-4.5 -25t-5 -27.5t-5 -25 t-5.5 -26.5t-5.5 -25l-23 -95q-39 -170 -39 -275q0 -66 19 -135l-169 -35q-28 90 -31 182q-67 -85 -158.5 -138t-191.5 -53q-129 0 -206.5 78.5t-77.5 203.5zM196 286q0 -48 16 -81t47.5 -49t78.5 -16q68 0 136.5 37.5t121.5 107.5t71 156l16 75h-83q-240 0 -332 -73 q-72 -59 -72 -157zM309 1345q0 56 33.5 92t83.5 36q43 0 68.5 -26t25.5 -69q0 -55 -33.5 -91t-82.5 -36q-44 0 -69.5 26t-25.5 68zM714 1345q0 56 34 92t84 36q28 0 50 -12t34 -33.5t12 -49.5q0 -55 -35 -91t-85 -36q-43 0 -68.5 26t-25.5 68z" />
<glyph unicode="&#xe5;" horiz-adv-x="1056" d="M2 260q0 180 127 283q141 117 430 117l148 2q13 51 13 110q0 79 -46.5 121t-148.5 42q-146 0 -316 -81l-26 150q186 88 374 88q56 0 105 -8.5t97 -30.5t82.5 -56t55 -88.5t20.5 -124.5q0 -12 -0.5 -25t-1.5 -24t-3 -27t-3 -25t-4.5 -27t-4.5 -25t-5 -27.5t-5 -25 t-5.5 -26.5t-5.5 -25l-23 -95q-39 -170 -39 -275q0 -66 19 -135l-169 -35q-28 90 -31 182q-67 -85 -158.5 -138t-191.5 -53q-129 0 -206.5 78.5t-77.5 203.5zM196 286q0 -48 16 -81t47.5 -49t78.5 -16q68 0 136.5 37.5t121.5 107.5t71 156l16 75h-83q-240 0 -332 -73 q-72 -59 -72 -157zM389 1367q0 109 76 175t188 66q99 0 160 -51t61 -136q0 -73 -36 -129t-96 -85t-134 -29q-99 0 -159 51t-60 138zM525 1372q0 -44 25 -69.5t67 -25.5q54 0 87 39.5t33 98.5q0 43 -25 68.5t-67 25.5q-52 0 -86 -39.5t-34 -97.5z" />
<glyph unicode="&#xe6;" horiz-adv-x="1686" d="M2 268q0 124 69.5 208.5t193 124.5t296.5 41l142 3q15 66 15 123q0 56 -19 92.5t-62.5 55.5t-114.5 19q-143 0 -313 -81l-26 150q86 41 183 64.5t182 23.5q54 0 102 -9.5t91 -30t74.5 -56.5t46.5 -84h5q67 85 162 132.5t205 47.5q174 0 265.5 -95.5t91.5 -252.5 q0 -30 -3.5 -63.5t-9.5 -64.5t-14.5 -59.5t-17.5 -49.5l-672 -9q-4 -39 -4 -61q0 -140 73.5 -218.5t193.5 -78.5q134 0 289 81l57 -144q-77 -47 -172.5 -73t-186.5 -26q-144 0 -243.5 68t-136.5 193h-5q-49 -84 -120 -143.5t-151.5 -88.5t-166.5 -29q-135 0 -217 80t-82 210 zM196 286q0 -70 36.5 -108t105.5 -38q52 0 104.5 20.5t98 58.5t80.5 98.5t50 133.5l9 45h-110q-180 -3 -277 -54.5t-97 -155.5zM899 647l481 4q19 51 19 99q0 36 -9 67.5t-29.5 58.5t-58.5 43t-90 16q-108 0 -196.5 -84.5t-116.5 -203.5z" />
<glyph unicode="&#xe7;" horiz-adv-x="986" d="M47 426q0 138 46.5 261t127 212.5t196 141t247.5 51.5q152 0 269 -54l-37 -164q-109 54 -229 54q-85 0 -162 -36t-133.5 -98.5t-90 -153t-33.5 -193.5q0 -141 69.5 -223t202.5 -82q136 0 271 79l52 -142q-30 -21 -70.5 -39t-84 -31t-90 -21t-89.5 -10l-45 -98 q75 -5 117.5 -43.5t42.5 -102.5q0 -69 -40 -117.5t-105.5 -71t-149.5 -22.5q-95 0 -167 30l47 103q45 -23 107 -23q38 0 68 9.5t48.5 31t18.5 51.5q0 80 -176 73l90 195q-146 35 -232 150t-86 283z" />
<glyph unicode="&#xe8;" horiz-adv-x="1056" d="M47 432q0 139 42.5 261t116 210t177.5 138.5t223 50.5q174 0 266.5 -95.5t92.5 -252.5q0 -115 -48 -248l-672 -10q-2 -17 -2 -54q0 -137 73 -214.5t193 -77.5q132 0 291 81l54 -144q-51 -31 -113 -53.5t-126 -34t-124 -11.5q-201 0 -322.5 121.5t-121.5 332.5zM271 632 l481 8q18 62 18 110q0 36 -9 67.5t-29 58.5t-56.5 43t-87.5 16q-111 0 -200 -87.5t-117 -215.5zM385 1528h225l110 -332h-152z" />
<glyph unicode="&#xe9;" horiz-adv-x="1056" d="M47 432q0 139 42.5 261t116 210t177.5 138.5t223 50.5q174 0 266.5 -95.5t92.5 -252.5q0 -115 -48 -248l-672 -10q-2 -17 -2 -54q0 -137 73 -214.5t193 -77.5q132 0 291 81l54 -144q-51 -31 -113 -53.5t-126 -34t-124 -11.5q-201 0 -322.5 121.5t-121.5 332.5zM271 632 l481 8q18 62 18 110q0 36 -9 67.5t-29 58.5t-56.5 43t-87.5 16q-111 0 -200 -87.5t-117 -215.5zM538 1196l172 332h225l-245 -332h-152z" />
<glyph unicode="&#xea;" horiz-adv-x="1056" d="M47 432q0 139 42.5 261t116 210t177.5 138.5t223 50.5q174 0 266.5 -95.5t92.5 -252.5q0 -115 -48 -248l-672 -10q-2 -17 -2 -54q0 -137 73 -214.5t193 -77.5q132 0 291 81l54 -144q-51 -31 -113 -53.5t-126 -34t-124 -11.5q-201 0 -322.5 121.5t-121.5 332.5zM271 632 l481 8q18 62 18 110q0 36 -9 67.5t-29 58.5t-56.5 43t-87.5 16q-111 0 -200 -87.5t-117 -215.5zM318 1196l267 332h167l185 -332h-159l-118 212l-174 -212h-168z" />
<glyph unicode="&#xeb;" horiz-adv-x="1056" d="M47 432q0 139 42.5 261t116 210t177.5 138.5t223 50.5q174 0 266.5 -95.5t92.5 -252.5q0 -115 -48 -248l-672 -10q-2 -17 -2 -54q0 -137 73 -214.5t193 -77.5q132 0 291 81l54 -144q-51 -31 -113 -53.5t-126 -34t-124 -11.5q-201 0 -322.5 121.5t-121.5 332.5zM271 632 l481 8q18 62 18 110q0 36 -9 67.5t-29 58.5t-56.5 43t-87.5 16q-111 0 -200 -87.5t-117 -215.5zM336 1345q0 56 34 92t83 36q44 0 69.5 -26t25.5 -69q0 -55 -34.5 -91t-83.5 -36q-43 0 -68.5 26t-25.5 68zM741 1345q0 56 34 92t83 36q44 0 70.5 -26t26.5 -69 q0 -55 -34.5 -91t-84.5 -36q-43 0 -69 26t-26 68z" />
<glyph unicode="&#xec;" horiz-adv-x="501" d="M2 0l228 1066h194l-228 -1066h-194zM122 1528h224l112 -332h-154z" />
<glyph unicode="&#xed;" horiz-adv-x="501" d="M2 0l228 1066h194l-228 -1066h-194zM248 1196l171 332h226l-247 -332h-150z" />
<glyph unicode="&#xee;" horiz-adv-x="501" d="M2 0l228 1066h194l-228 -1066h-194zM38 1196l269 332h166l185 -332h-160l-117 212l-174 -212h-169z" />
<glyph unicode="&#xef;" horiz-adv-x="501" d="M2 0l228 1066h194l-228 -1066h-194zM60 1345q0 56 34.5 92t83.5 36q29 0 50.5 -12t33 -33.5t11.5 -49.5q0 -55 -34.5 -91t-83.5 -36q-21 0 -39 7t-30 19t-19 29.5t-7 38.5zM466 1345q0 56 34 92t83 36q44 0 70.5 -26t26.5 -69q0 -55 -34.5 -91t-84.5 -36q-43 0 -69 26 t-26 68z" />
<glyph unicode="&#xf0;" horiz-adv-x="1157" d="M47 412q0 146 46 273t122 213t175 136t205 50q97 0 171.5 -40t119.5 -105h4q-10 117 -63.5 214.5t-151.5 164.5l-277 -136l-49 100l201 94q-130 53 -300 60l36 159q276 -12 460 -122l247 122l50 -99l-200 -97q209 -194 209 -554q0 -208 -46.5 -374.5t-127.5 -273 t-189 -163t-234 -56.5q-99 0 -178 34t-128.5 93.5t-75.5 137.5t-26 169zM248 419q0 -134 56 -205.5t171 -71.5q105 0 189 69t129 182t47 247q4 135 -57.5 207.5t-167.5 72.5q-108 0 -192.5 -69.5t-129.5 -183t-45 -248.5z" />
<glyph unicode="&#xf1;" horiz-adv-x="1123" d="M0 0l228 1066h157l-26 -212h4q71 104 178 171t220 67q112 0 178.5 -64.5t66.5 -195.5q0 -82 -26 -208l-133 -624h-196l133 617q22 113 22 165q0 47 -15.5 78t-41.5 44t-61 13q-65 0 -138.5 -41.5t-134.5 -123.5q-42 -53 -71.5 -123t-53.5 -176l-96 -453h-194zM333 1243 q10 119 65.5 179.5t135.5 60.5q34 0 67.5 -11t59.5 -27t50 -31.5t49 -26.5t46 -11q63 0 77 92h140q-9 -118 -64.5 -178t-133.5 -60q-29 0 -58 7.5t-51 19.5t-45.5 25.5t-42 25.5t-39.5 19.5t-39 7.5q-60 0 -75 -92h-142z" />
<glyph unicode="&#xf2;" horiz-adv-x="1146" d="M45 396q0 150 46 281t124.5 221.5t184.5 142t224 51.5q101 0 181 -32t130.5 -89.5t76.5 -133t26 -164.5q0 -150 -45.5 -281t-123.5 -221t-184 -141.5t-223 -51.5q-102 0 -182.5 32t-131 89t-77 132.5t-26.5 164.5zM245 408q0 -127 56 -196.5t168 -69.5q81 0 151 43.5 t117.5 116t74 166.5t26.5 194q0 128 -54.5 197t-166.5 69q-81 0 -151.5 -43.5t-118.5 -115.5t-75 -166t-27 -195zM421 1528h226l110 -332h-153z" />
<glyph unicode="&#xf3;" horiz-adv-x="1146" d="M45 396q0 150 46 281t124.5 221.5t184.5 142t224 51.5q101 0 181 -32t130.5 -89.5t76.5 -133t26 -164.5q0 -150 -45.5 -281t-123.5 -221t-184 -141.5t-223 -51.5q-102 0 -182.5 32t-131 89t-77 132.5t-26.5 164.5zM245 408q0 -127 56 -196.5t168 -69.5q81 0 151 43.5 t117.5 116t74 166.5t26.5 194q0 128 -54.5 197t-166.5 69q-81 0 -151.5 -43.5t-118.5 -115.5t-75 -166t-27 -195zM570 1196l171 332h226l-247 -332h-150z" />
<glyph unicode="&#xf4;" horiz-adv-x="1146" d="M45 396q0 150 46 281t124.5 221.5t184.5 142t224 51.5q101 0 181 -32t130.5 -89.5t76.5 -133t26 -164.5q0 -150 -45.5 -281t-123.5 -221t-184 -141.5t-223 -51.5q-102 0 -182.5 32t-131 89t-77 132.5t-26.5 164.5zM245 408q0 -127 56 -196.5t168 -69.5q81 0 151 43.5 t117.5 116t74 166.5t26.5 194q0 128 -54.5 197t-166.5 69q-81 0 -151.5 -43.5t-118.5 -115.5t-75 -166t-27 -195zM367 1196l269 332h166l185 -332h-160l-117 212l-174 -212h-169z" />
<glyph unicode="&#xf5;" horiz-adv-x="1146" d="M45 396q0 150 46 281t124.5 221.5t184.5 142t224 51.5q101 0 181 -32t130.5 -89.5t76.5 -133t26 -164.5q0 -150 -45.5 -281t-123.5 -221t-184 -141.5t-223 -51.5q-102 0 -182.5 32t-131 89t-77 132.5t-26.5 164.5zM245 408q0 -127 56 -196.5t168 -69.5q81 0 151 43.5 t117.5 116t74 166.5t26.5 194q0 128 -54.5 197t-166.5 69q-81 0 -151.5 -43.5t-118.5 -115.5t-75 -166t-27 -195zM342 1243q9 119 65.5 179.5t135.5 60.5q42 0 84 -17t69.5 -37t60 -36.5t58.5 -16.5q63 0 77 92h140q-10 -118 -65 -178t-133 -60q-42 0 -84.5 16.5t-70.5 36 t-61 36t-59 16.5q-61 0 -75 -92h-142z" />
<glyph unicode="&#xf6;" horiz-adv-x="1146" d="M45 396q0 150 46 281t124.5 221.5t184.5 142t224 51.5q101 0 181 -32t130.5 -89.5t76.5 -133t26 -164.5q0 -150 -45.5 -281t-123.5 -221t-184 -141.5t-223 -51.5q-102 0 -182.5 32t-131 89t-77 132.5t-26.5 164.5zM245 408q0 -127 56 -196.5t168 -69.5q81 0 151 43.5 t117.5 116t74 166.5t26.5 194q0 128 -54.5 197t-166.5 69q-81 0 -151.5 -43.5t-118.5 -115.5t-75 -166t-27 -195zM383 1345q0 56 34 92t83 36q44 0 69.5 -26t25.5 -69q0 -55 -34 -91t-84 -36q-43 0 -68.5 26t-25.5 68zM789 1345q0 56 33.5 92t82.5 36q44 0 70.5 -26 t26.5 -69q0 -55 -34.5 -91t-84.5 -36q-43 0 -68.5 26t-25.5 68z" />
<glyph unicode="&#xf7;" horiz-adv-x="1195" d="M38 484v167h1063v-167h-1063zM460 183q0 24 8.5 45.5t23.5 37t36 24.5t44 9q47 0 80 -34t33 -82q0 -32 -15 -59.5t-41 -43t-57 -15.5q-47 0 -79.5 34.5t-32.5 83.5zM460 950q0 32 14.5 59.5t40.5 43t57 15.5q47 0 80 -34.5t33 -83.5q0 -47 -33 -81.5t-80 -34.5 q-23 0 -44 9.5t-36 25t-23.5 37t-8.5 44.5z" />
<glyph unicode="&#xf8;" horiz-adv-x="1146" d="M36 28l90 105q-79 106 -79 263q0 150 46.5 281t124.5 221.5t184 142t224 51.5q153 0 251 -71l82 101l90 -79l-88 -106q80 -106 80 -264q0 -150 -46 -281t-124 -221t-183.5 -141.5t-223.5 -51.5q-152 0 -255 72l-83 -102zM245 408q0 -59 15 -118l501 596q-55 45 -142 45 q-81 0 -152 -44t-119 -117t-75.5 -167.5t-27.5 -194.5zM327 187q50 -47 144 -47q65 0 124 28.5t104 78t78 115.5t50.5 143t17.5 157q0 67 -18 118z" />
<glyph unicode="&#xf9;" horiz-adv-x="1130" d="M65 245q0 70 27 210l129 611h196l-133 -629q-20 -91 -20 -149q0 -71 33 -105.5t88 -34.5q84 0 159.5 52t127 137.5t74.5 189.5l114 539h194l-134 -634q-34 -189 -34 -270q0 -65 15 -140l-166 -35q-33 107 -28 207h-4q-68 -96 -170.5 -156t-208.5 -60q-54 0 -100 15.5 t-82 47t-56.5 83.5t-20.5 121zM419 1528h226l110 -332h-153z" />
<glyph unicode="&#xfa;" horiz-adv-x="1130" d="M65 245q0 70 27 210l129 611h196l-133 -629q-20 -91 -20 -149q0 -71 33 -105.5t88 -34.5q84 0 159.5 52t127 137.5t74.5 189.5l114 539h194l-134 -634q-34 -189 -34 -270q0 -65 15 -140l-166 -35q-33 107 -28 207h-4q-68 -96 -170.5 -156t-208.5 -60q-54 0 -100 15.5 t-82 47t-56.5 83.5t-20.5 121zM561 1196l172 332h224l-245 -332h-151z" />
<glyph unicode="&#xfb;" horiz-adv-x="1130" d="M65 245q0 70 27 210l129 611h196l-133 -629q-20 -91 -20 -149q0 -71 33 -105.5t88 -34.5q84 0 159.5 52t127 137.5t74.5 189.5l114 539h194l-134 -634q-34 -189 -34 -270q0 -65 15 -140l-166 -35q-33 107 -28 207h-4q-68 -96 -170.5 -156t-208.5 -60q-54 0 -100 15.5 t-82 47t-56.5 83.5t-20.5 121zM349 1196l268 332h167l185 -332h-161l-116 212l-174 -212h-169z" />
<glyph unicode="&#xfc;" horiz-adv-x="1130" d="M65 245q0 70 27 210l129 611h196l-133 -629q-20 -91 -20 -149q0 -71 33 -105.5t88 -34.5q84 0 159.5 52t127 137.5t74.5 189.5l114 539h194l-134 -634q-34 -189 -34 -270q0 -65 15 -140l-166 -35q-33 107 -28 207h-4q-68 -96 -170.5 -156t-208.5 -60q-54 0 -100 15.5 t-82 47t-56.5 83.5t-20.5 121zM370 1345q0 56 33.5 92t82.5 36q44 0 69.5 -26t25.5 -69q0 -55 -34 -91t-83 -36q-43 0 -68.5 26t-25.5 68zM776 1345q0 56 33.5 92t82.5 36q29 0 51 -12t34 -33.5t12 -49.5q0 -55 -34.5 -91t-84.5 -36q-43 0 -68.5 26t-25.5 68z" />
<glyph unicode="&#xfd;" horiz-adv-x="1017" d="M-282 -494l70 154q64 -30 131 -30q52 0 98.5 17t97 57t101.5 113.5t104 180.5l-241 1068h196l112 -544q26 -116 62 -303h4q62 145 126 277l277 570h206l-562 -1102q-95 -188 -184.5 -296t-187 -155t-225.5 -47q-117 0 -185 40zM488 1196l172 332h226l-246 -332h-152z" />
<glyph unicode="&#xfe;" horiz-adv-x="1139" d="M-114 -534l454 2129h196l-110 -514q53 11 115 11q99 0 180 -22t138.5 -62.5t97 -97.5t58.5 -126t19 -148q0 -126 -35 -234t-95 -185t-139.5 -131.5t-169 -81t-183.5 -26.5q-112 0 -216 31l-115 -543h-195zM234 174q70 -30 164 -30t174.5 35t138 97t90.5 150.5t33 192.5 q0 152 -79.5 229.5t-223.5 77.5q-64 0 -142 -18z" />
<glyph unicode="&#xff;" horiz-adv-x="1017" d="M-282 -494l70 154q64 -30 131 -30q52 0 98.5 17t97 57t101.5 113.5t104 180.5l-241 1068h196l112 -544q26 -116 62 -303h4q62 145 126 277l277 570h206l-562 -1102q-95 -188 -184.5 -296t-187 -155t-225.5 -47q-117 0 -185 40zM293 1345q0 56 34 92t83 36q44 0 69.5 -26 t25.5 -69q0 -55 -34 -91t-84 -36q-43 0 -68.5 26t-25.5 68zM698 1345q0 56 34 92t83 36q29 0 51 -12t34 -33.5t12 -49.5q0 -55 -34.5 -91t-84.5 -36q-43 0 -69 26t-26 68z" />
<glyph unicode="&#x131;" horiz-adv-x="501" d="M2 0l228 1066h194l-228 -1066h-194z" />
<glyph unicode="&#x152;" horiz-adv-x="1918" d="M101 602q0 144 36.5 277t111 245.5t178.5 196t247.5 130.5t309.5 47q56 0 196 -6.5t213 -6.5h529l-65 -169h-492l-99 -473h480l-37 -170h-479l-106 -504h548l-38 -169h-530q-63 0 -195 -10t-193 -10q-286 0 -450.5 164t-164.5 458zM311 608q0 -217 108.5 -338.5 t324.5 -121.5q81 0 180 14l243 1154q-86 13 -202 13q-127 0 -235 -40t-184 -109t-130 -161t-79.5 -196t-25.5 -215z" />
<glyph unicode="&#x153;" horiz-adv-x="1833" d="M47 396q0 150 46 281t123.5 221.5t181.5 142t219 51.5q135 0 222 -60.5t128 -166.5h4q66 106 176.5 166.5t240.5 60.5q114 0 194.5 -45.5t118.5 -122.5t38 -180q0 -125 -47 -248l-671 -10q0 -7 -1 -27t-1 -29q0 -136 73.5 -213t193.5 -77q134 0 289 81l56 -144 q-78 -47 -176 -73t-189 -26q-136 0 -236 65.5t-140 184.5h-4q-50 -77 -118 -133.5t-148.5 -86.5t-164.5 -30q-99 0 -177.5 32t-128 89t-76 132.5t-26.5 164.5zM248 408q0 -127 55.5 -196.5t167.5 -69.5q65 0 123.5 28t103 78t77 115t49 142t16.5 157q0 128 -54.5 197 t-166.5 69q-81 0 -151.5 -43.5t-118 -115.5t-74.5 -166t-27 -195zM1047 632l483 8q16 54 16 110q0 37 -9 68t-29 58t-58 43t-89 16q-111 0 -199.5 -88t-114.5 -215z" />
<glyph unicode="&#x178;" horiz-adv-x="1157" d="M162 1485h208l240 -717h5l462 717h223l-612 -917l-123 -568h-198l121 574zM449 1681q0 55 34.5 90t84.5 35q43 0 68.5 -24.5t25.5 -66.5q0 -56 -33.5 -92.5t-82.5 -36.5q-44 0 -70.5 26.5t-26.5 68.5zM856 1681q0 55 34 90t84 35q17 0 32 -4t26 -12t19.5 -19t12.5 -25 t4 -31q0 -56 -34 -92.5t-84 -36.5q-43 0 -68.5 26t-25.5 69z" />
<glyph unicode="&#x192;" horiz-adv-x="1180" d="M-196 -322l70 160q66 -45 171 -45q46 0 82.5 13t69.5 43.5t58.5 84.5t43.5 133l144 640h-224l22 158h236l75 324q44 202 152.5 304t286.5 102q67 0 132.5 -16t115.5 -45l-70 -160q-66 45 -171 45q-45 0 -81.5 -13t-69.5 -43.5t-59 -85t-44 -133.5l-64 -279h287l-57 -158 h-265l-154 -685q-45 -202 -152 -303.5t-285 -101.5q-144 0 -250 61z" />
<glyph unicode="&#x2c6;" d="M103 1196l269 332h166l185 -332h-160l-116 212l-174 -212h-170z" />
<glyph unicode="&#x2c7;" d="M148 1530h161l117 -214l174 214h168l-268 -331h-169z" />
<glyph unicode="&#x2d8;" d="M160 1509h139q-3 -153 129 -153q69 0 115 41.5t67 111.5h147q-29 -134 -120 -210t-222 -76q-86 0 -146.5 35t-88.5 99.5t-20 151.5z" />
<glyph unicode="&#x2d9;" d="M314 1397q0 63 42 102.5t99 39.5q36 0 62.5 -15t40.5 -40t14 -56q0 -62 -42.5 -102t-99.5 -40q-53 0 -84.5 31.5t-31.5 79.5z" />
<glyph unicode="&#x2da;" d="M200 1367q0 109 76 175t188 66q99 0 160 -51t61 -136q0 -110 -76.5 -176.5t-189.5 -66.5q-99 0 -159 51t-60 138zM336 1372q0 -22 6.5 -39.5t18.5 -30t29 -19t38 -6.5q53 0 86.5 39.5t33.5 98.5q0 43 -25 68.5t-68 25.5q-51 0 -85 -39.5t-34 -97.5z" />
<glyph unicode="&#x2db;" d="M176 -320q0 50 18.5 96.5t46.5 81.5t69.5 68.5t79 56.5t83.5 47l178 -30q-307 -139 -307 -282q0 -34 20 -53t57 -19q32 0 86 18l15 -119q-84 -25 -155 -25q-96 0 -143.5 44.5t-47.5 115.5z" />
<glyph unicode="&#x2dc;" d="M75 1243q9 119 64.5 179.5t135.5 60.5q34 0 67.5 -11t60 -27t50.5 -31.5t48.5 -26.5t46.5 -11q62 0 76 92h139q-9 -118 -64 -178t-134 -60q-42 0 -84 16.5t-70 36t-61.5 36t-59.5 16.5q-32 0 -49 -23.5t-24 -68.5h-142z" />
<glyph unicode="&#x2dd;" d="M148 1196l172 332h226l-245 -332h-153zM522 1196l174 332h226l-247 -332h-153z" />
<glyph unicode="&#x3a9;" horiz-adv-x="1630" d="M0 0l34 169h146q70 0 171 -16v4q-91 86 -153.5 220.5t-62.5 289.5q0 133 36 258t105.5 228.5t164 181t219 120.5t264.5 43q144 0 259.5 -44.5t189 -123t113 -182.5t39.5 -224q0 -126 -35.5 -241t-100.5 -210t-145 -172.5t-180 -145.5v-4q91 18 177 18h131l-33 -169h-550 l26 135q235 145 368 340.5t133 429.5q0 88 -25.5 163.5t-74.5 133.5t-127 91.5t-177 33.5q-120 0 -225.5 -50.5t-182 -140t-120.5 -219t-44 -281.5q0 -145 59.5 -277t170.5 -224l-27 -135h-543z" />
<glyph unicode="&#x3c0;" horiz-adv-x="1285" d="M86 0l193 905h-184l36 161h1160l-66 -161h-191l-133 -632q-9 -30 -9 -56q0 -55 61 -55q21 0 68 12v-167q-65 -20 -142 -20q-189 0 -189 168q0 48 17 131l131 619h-363l-193 -905h-196z" />
<glyph unicode="&#x400;" horiz-adv-x="1021" d="M30 0l314 1485h720l-68 -169h-489l-99 -473h480l-37 -170h-481l-106 -504h547l-35 -169h-746zM477 1899h226l110 -331h-153z" />
<glyph unicode="&#x401;" horiz-adv-x="1045" d="M30 0l314 1485h720l-68 -169h-489l-99 -473h480l-37 -170h-481l-106 -504h547l-35 -169h-746zM419 1681q0 55 34.5 90t84.5 35q44 0 69 -24.5t25 -66.5q0 -56 -33.5 -92.5t-82.5 -36.5q-44 0 -70.5 26.5t-26.5 68.5zM827 1681q0 55 33.5 90t83.5 35q29 0 50.5 -11 t32.5 -31.5t11 -48.5q0 -56 -33.5 -92.5t-82.5 -36.5q-44 0 -69.5 26t-25.5 69z" />
<glyph unicode="&#x402;" horiz-adv-x="1599" d="M142 1320l36 165h1138l-63 -165h-477l-98 -460q87 14 167 14q170 0 293 -50.5t186.5 -144.5t63.5 -224q0 -134 -54.5 -240t-160.5 -167t-247 -61q-121 0 -206 38l62 155q59 -25 130 -25q124 0 199.5 77.5t75.5 216.5q0 47 -13 86t-37 66.5t-56 48t-73.5 32.5t-86 17.5 t-96.5 5.5q-82 0 -183 -17l-146 -688h-199l279 1320h-434z" />
<glyph unicode="&#x403;" horiz-adv-x="1008" d="M28 0l316 1485h737l-71 -169h-503l-279 -1316h-200zM632 1568l172 331h226l-246 -331h-152z" />
<glyph unicode="&#x404;" horiz-adv-x="1337" d="M108 591q0 195 62 363.5t172 288t268 187.5t343 68q208 0 378 -79l-37 -168q-160 78 -339 78q-116 0 -218.5 -36t-180 -101.5t-133 -155t-83.5 -198.5h724l-34 -163h-714q-5 -55 -5 -80q0 -62 11 -118t32.5 -106.5t56.5 -91t80.5 -70.5t107 -46.5t134.5 -16.5 q192 0 374 95l39 -164q-92 -46 -207 -72.5t-221 -26.5q-292 0 -451 163t-159 450z" />
<glyph unicode="&#x405;" horiz-adv-x="1062" d="M-2 77l81 157q132 -86 295 -86q38 0 73.5 5.5t70 17.5t63 31.5t50.5 46.5t34.5 65t12.5 84t-13.5 86t-36.5 70.5t-53.5 60.5t-65 53.5t-70.5 51t-70.5 53.5t-65 59.5t-53.5 69.5t-36.5 84.5t-13.5 103.5q0 88 33.5 163.5t93.5 129.5t148 84.5t194 30.5q186 0 335 -75 l-35 -170q-138 76 -298 76q-114 0 -188.5 -56.5t-74.5 -154.5q0 -56 26.5 -104t68.5 -85t93 -73t102 -77t93 -89t68.5 -117t26.5 -152q0 -88 -27 -162t-74 -125.5t-112 -87t-140 -52t-159 -16.5q-212 0 -376 99z" />
<glyph unicode="&#x406;" horiz-adv-x="569" d="M30 0l314 1485h199l-315 -1485h-198z" />
<glyph unicode="&#x407;" horiz-adv-x="569" d="M30 0l314 1485h199l-315 -1485h-198zM165 1681q0 55 34.5 90t84.5 35q43 0 68.5 -24.5t25.5 -66.5q0 -56 -33.5 -92.5t-82.5 -36.5q-44 0 -70.5 26.5t-26.5 68.5zM572 1681q0 55 34 90t84 35q43 0 68.5 -24.5t25.5 -66.5q0 -37 -15.5 -66.5t-42.5 -46t-59 -16.5 q-44 0 -69.5 26t-25.5 69z" />
<glyph unicode="&#x408;" horiz-adv-x="662" d="M-316 -374l62 160q57 -27 142 -27q67 0 110.5 23.5t74.5 77.5q38 79 56 176l308 1449h199l-314 -1470q-33 -166 -88 -258q-105 -169 -346 -169q-113 0 -204 38z" />
<glyph unicode="&#x409;" horiz-adv-x="1956" d="M-117 -2l42 180q31 -4 41 -4q56 0 104 28.5t95 87.5q101 127 208.5 414t252.5 781h676l-126 -589h81q218 0 329 -53q194 -98 194 -316q0 -250 -165.5 -388.5t-470.5 -138.5h-355l281 1320h-300q-130 -448 -241.5 -737.5t-219.5 -425.5q-70 -89 -152 -129.5t-187 -40.5 q-41 0 -87 11zM1023 167h137q96 0 172 21t131.5 63t86 110t30.5 157q0 124 -103 176q-69 39 -222 39h-113z" />
<glyph unicode="&#x40a;" horiz-adv-x="2115" d="M28 0l316 1485h199l-137 -645h705l137 645h198l-126 -589h95q217 0 329 -53q193 -98 193 -316q0 -250 -165 -388.5t-470 -138.5h-371l141 669h-705l-141 -669h-198zM1165 167h155q94 0 169.5 21t131.5 63t86 110t30 157q0 125 -101 176q-70 39 -221 39h-129z" />
<glyph unicode="&#x40b;" horiz-adv-x="1639" d="M144 1320l36 165h1129l-66 -165h-463l-97 -455q135 23 250 23q225 0 348 -97.5t123 -272.5q0 -52 -24 -174l-73 -344h-196l69 318q26 123 26 178q0 109 -77.5 165.5t-229.5 56.5q-115 0 -254 -28l-147 -690h-199l282 1320h-437z" />
<glyph unicode="&#x40c;" horiz-adv-x="1310" d="M28 0l316 1485h199l-139 -658h168q48 0 89.5 27.5t71.5 70.5t61.5 102.5t57 117t61 121.5t69.5 108q97 124 250 124q61 0 122 -21l-36 -175q-38 14 -72 14q-68 0 -128 -75q-28 -35 -59.5 -95.5t-59.5 -118t-60.5 -114t-74 -100t-88.5 -61.5v-4q25 -9 45 -27t36.5 -46.5 t28.5 -58t26 -73.5l178 -543h-218l-154 512q-25 83 -52 116.5t-58 33.5h-241l-141 -662h-198zM720 1568l172 331h226l-246 -331h-152z" />
<glyph unicode="&#x40d;" horiz-adv-x="1576" d="M28 0l316 1485h199l-199 -928q-21 -105 -51 -226h4q72 91 262 293l795 861h196l-316 -1485h-200l202 948q5 26 12 57.5t13 56t13.5 54t11.5 47.5h-4q-29 -36 -74 -87t-72.5 -80.5t-103.5 -109.5l-820 -886h-184zM688 1899h224l111 -331h-153z" />
<glyph unicode="&#x40e;" horiz-adv-x="1189" d="M52 4l40 168q45 -15 82 -15q80 0 147.5 62.5t153.5 210.5l-284 1055h211l206 -843h5l498 843h218l-699 -1147q-115 -192 -216 -272.5t-229 -80.5q-76 0 -133 19zM437 1866l160 36q20 -183 162 -183q60 0 111.5 29.5t89 76t74.5 117.5l142 -68q-81 -156 -183 -231 t-243 -75q-133 0 -216 76t-97 222z" />
<glyph unicode="&#x40f;" horiz-adv-x="1452" d="M28 0l316 1485h199l-279 -1311h684l277 1311h198l-316 -1485h-436l-88 -415h-189l88 415h-454z" />
<glyph unicode="&#x410;" horiz-adv-x="1317" d="M-92 0l788 1489h158l270 -1489h-207l-68 389h-522l-198 -389h-221zM417 554h406l-68 439q-5 30 -15 94.5t-15 101.5h-5q-76 -173 -92 -207z" />
<glyph unicode="&#x411;" horiz-adv-x="1236" d="M28 0l316 1485h798l-65 -165h-570l-92 -434h119q220 0 336 -59q90 -45 137 -124t47 -187q0 -239 -167 -377.5t-468 -138.5h-391zM262 167h172q103 0 182.5 24.5t131.5 69.5t79 107.5t27 140.5q0 120 -93 169q-66 40 -232 40h-151z" />
<glyph unicode="&#x412;" horiz-adv-x="1221" d="M30 0l314 1485h334q86 0 156 -18.5t116 -50.5t77 -75.5t45 -92t14 -102.5q0 -87 -31 -159t-86.5 -123.5t-134.5 -85.5v-6q34 -8 66.5 -24.5t62 -42t51.5 -57.5t35 -74.5t13 -89.5q0 -75 -24.5 -145t-76.5 -132t-126 -108t-180.5 -72.5t-233.5 -26.5h-391zM264 165h196 q186 0 292 84t106 220q0 98 -68 152t-184 54h-236zM406 840h185q50 0 93.5 12.5t75 33.5t56 48.5t39.5 59.5t23 64t8 64q0 41 -12.5 75.5t-38.5 62t-71.5 43t-105.5 15.5h-151z" />
<glyph unicode="&#x413;" horiz-adv-x="965" d="M28 0l316 1485h737l-71 -169h-503l-279 -1316h-200z" />
<glyph unicode="&#x414;" horiz-adv-x="1432" d="M-185 -415l125 584h71q209 214 360 533.5t282 782.5h692l-279 -1316h180l-124 -584h-198l88 415h-911l-88 -415h-198zM250 169h617l246 1151h-320q-224 -798 -543 -1146v-5z" />
<glyph unicode="&#x415;" horiz-adv-x="1045" d="M30 0l314 1485h720l-68 -169h-489l-99 -473h480l-37 -170h-481l-106 -504h547l-35 -169h-746z" />
<glyph unicode="&#x416;" horiz-adv-x="1988" d="M-65 0l340 557q25 39 47.5 69t51.5 61.5t61.5 52t67.5 28.5v4q-35 32 -55.5 101t-27 136.5t-19.5 142t-34 112.5q-26 52 -88 52q-36 0 -74 -14l38 179q55 17 108 17q118 0 176 -99q24 -43 39.5 -108t21.5 -126t15.5 -124.5t21.5 -110.5t40.5 -77t71.5 -30h151l142 662 h193l-139 -662h159q41 0 76.5 19.5t64 54.5t54 78.5t50.5 97t48 103t53 102.5t60 92q98 128 253 128q68 0 119 -21l-37 -172q-34 11 -71 11q-69 0 -129 -75q-27 -36 -58.5 -95.5t-59 -116t-59 -113t-71.5 -100t-85 -61.5v-5q48 -17 78 -67.5t57 -139.5l173 -543h-213 l-149 512q-26 88 -57 118t-65 30h-226l-139 -660h-194l140 660h-205q-48 0 -92.5 -33t-98.5 -122l-303 -505h-222z" />
<glyph unicode="&#x417;" horiz-adv-x="1184" d="M30 69l37 172q68 -42 163 -67.5t191 -25.5q57 0 106.5 9.5t96 31t79.5 54.5t53 84t20 116q0 57 -22 101t-65 73t-107 43.5t-148 14.5q-75 0 -120 -2l35 167q43 -4 115 -4q107 0 184.5 20t122.5 57.5t66 87.5t21 114q0 99 -73.5 155.5t-201.5 56.5q-163 0 -327 -76 l-37 153q193 94 394 94q103 0 188.5 -27.5t142.5 -76t88.5 -115t31.5 -144.5q0 -90 -32.5 -165t-104 -132.5t-177.5 -85.5v-4q118 -39 175 -122t57 -200q0 -99 -36 -181t-104.5 -141.5t-173.5 -92.5t-236 -33q-120 0 -224.5 25t-177.5 66z" />
<glyph unicode="&#x418;" horiz-adv-x="1576" d="M28 0l316 1485h199l-199 -928q-21 -105 -51 -226h4q72 91 262 293l795 861h196l-316 -1485h-200l202 948q5 26 12 57.5t13 56t13.5 54t11.5 47.5h-4q-29 -36 -74 -87t-72.5 -80.5t-103.5 -109.5l-820 -886h-184z" />
<glyph unicode="&#x419;" horiz-adv-x="1576" d="M28 0l316 1485h199l-199 -928q-21 -105 -51 -226h4q72 91 262 293l795 861h196l-316 -1485h-200l202 948q5 26 12 57.5t13 56t13.5 54t11.5 47.5h-4q-29 -36 -74 -87t-72.5 -80.5t-103.5 -109.5l-820 -886h-184zM626 1866l160 36q21 -183 162 -183q60 0 111.5 29.5t89 76 t74.5 117.5l142 -68q-81 -156 -183 -231t-243 -75q-133 0 -216 76t-97 222z" />
<glyph unicode="&#x41a;" horiz-adv-x="1322" d="M28 0l316 1485h199l-139 -658h168q48 0 89.5 27.5t71.5 70.5t61.5 102.5t57 117t61 121.5t69.5 108q97 124 250 124q61 0 122 -21l-36 -175q-38 14 -72 14q-68 0 -128 -75q-28 -35 -59.5 -95.5t-59.5 -118t-60.5 -114t-74 -100t-88.5 -61.5v-4q25 -9 45 -27t36.5 -46.5 t28.5 -58t26 -73.5l178 -543h-218l-154 512q-25 83 -52 116.5t-58 33.5h-241l-141 -662h-198z" />
<glyph unicode="&#x41b;" horiz-adv-x="1346" d="M-117 -2l42 180q31 -4 41 -4q56 0 104 28.5t95 87.5q101 127 208.5 414t252.5 781h694l-316 -1485h-200l284 1320h-318q-130 -448 -241.5 -737.5t-219.5 -425.5q-70 -89 -152 -129.5t-187 -40.5q-41 0 -87 11z" />
<glyph unicode="&#x41c;" horiz-adv-x="1780" d="M30 0l314 1485h190l229 -631q14 -40 36.5 -101t38 -105t24.5 -76h5q101 146 165 230l514 683h208l-314 -1485h-199l165 770q52 246 88 374h-7q-91 -131 -180 -243l-430 -570h-109l-207 559q-67 185 -88 254h-4q-35 -176 -80 -378l-161 -766h-198z" />
<glyph unicode="&#x41d;" horiz-adv-x="1511" d="M30 0l314 1485h199l-137 -645h742l138 645h199l-316 -1485h-198l142 669h-743l-142 -669h-198z" />
<glyph unicode="&#x41e;" horiz-adv-x="1628" d="M108 600q0 99 18.5 196.5t55.5 186t89 167t121.5 142.5t150 110t177.5 71t202 25q135 0 245.5 -40.5t189.5 -117.5t122 -194.5t43 -266.5q0 -140 -36 -273.5t-107 -246.5t-168 -198.5t-226.5 -134t-274.5 -48.5q-137 0 -248 40.5t-189.5 118.5t-121.5 195.5t-43 267.5z M318 602q0 -215 103 -334.5t302 -119.5q108 0 203.5 42t164.5 113.5t119.5 165t75.5 198t25 210.5q0 215 -102.5 332.5t-298.5 117.5q-109 0 -205 -42t-165.5 -113t-120.5 -163.5t-76 -196.5t-25 -210z" />
<glyph unicode="&#x41f;" horiz-adv-x="1466" d="M28 0l316 1485h1096l-318 -1485h-198l279 1316h-698l-279 -1316h-198z" />
<glyph unicode="&#x420;" horiz-adv-x="1135" d="M30 0l314 1485h228q150 0 243 -36q63 -22 112.5 -58.5t84.5 -84.5t53.5 -108.5t18.5 -129.5q0 -176 -100.5 -309t-278.5 -185q-131 -38 -281 -38h-84l-112 -536h-198zM376 701h77q112 0 192 32q114 36 175 123.5t61 207.5q0 80 -38.5 141.5t-117.5 90.5q-64 24 -157 24 h-61z" />
<glyph unicode="&#x421;" horiz-adv-x="1328" d="M108 593q0 194 65.5 362.5t179.5 287.5t273.5 187t342.5 68q200 0 370 -79l-41 -171q-156 79 -327 79q-96 0 -184.5 -26.5t-160 -73t-129.5 -112.5t-97.5 -145t-60.5 -170t-21 -187q0 -138 48.5 -242t146 -163.5t233.5 -59.5q184 0 367 93l39 -164q-91 -47 -203.5 -73 t-218.5 -26q-186 0 -326.5 72.5t-218 212t-77.5 330.5z" />
<glyph unicode="&#x422;" horiz-adv-x="1107" d="M138 1316l36 169h1079l-73 -169h-408l-278 -1316h-199l279 1316h-436z" />
<glyph unicode="&#x423;" horiz-adv-x="1189" d="M45 4l41 168q44 -15 81 -15q81 0 148 62.5t154 210.5l-284 1055h209l208 -843h4l498 843h218l-698 -1147q-116 -192 -217 -272.5t-229 -80.5q-75 0 -133 19z" />
<glyph unicode="&#x424;" horiz-adv-x="1651" d="M106 630q0 115 28.5 217t89 189t147 151t208.5 101.5t268 42.5l41 187h198l-41 -194q244 -25 372.5 -143t128.5 -319q0 -115 -29.5 -217.5t-90.5 -190t-149 -151t-211 -101t-271 -40.5l-43 -203h-198l46 213q-242 25 -368 141.5t-126 316.5zM309 645q0 -141 81.5 -217 t245.5 -92l175 824q-228 -11 -365 -151t-137 -364zM834 333q233 9 372 149t139 369q0 281 -335 307z" />
<glyph unicode="&#x425;" horiz-adv-x="1324" d="M-90 0l628 761l-338 724h215l263 -573l468 573h240l-620 -750l345 -735h-212l-273 581l-480 -581h-236z" />
<glyph unicode="&#x426;" horiz-adv-x="1486" d="M28 0l316 1485h199l-281 -1316h660l279 1316h198l-279 -1316h182l-126 -584h-194l88 415h-1042z" />
<glyph unicode="&#x427;" horiz-adv-x="1350" d="M219 967q0 57 22 173l75 345h196l-71 -318q-24 -117 -24 -178q0 -109 77 -166t229 -57q112 0 257 29l146 690h198l-314 -1485h-199l131 619q-125 -22 -252 -22q-225 0 -348 97.5t-123 272.5z" />
<glyph unicode="&#x428;" horiz-adv-x="1905" d="M28 0l316 1485h199l-281 -1316h471l279 1316h200l-281 -1316h468l280 1316h200l-318 -1485h-1533z" />
<glyph unicode="&#x429;" horiz-adv-x="1950" d="M28 0l316 1485h199l-281 -1316h461l281 1316h199l-281 -1316h464l278 1316h199l-279 -1316h183l-125 -584h-196l88 415h-1506z" />
<glyph unicode="&#x42a;" horiz-adv-x="1529" d="M172 1485h686l-123 -589h94q218 0 329 -53q194 -98 194 -316q0 -250 -165.5 -388.5t-470.5 -138.5h-372l280 1320h-435zM579 167h154q95 0 171 21t131.5 63t86 110t30.5 157q0 122 -103 176q-69 39 -222 39h-129z" />
<glyph unicode="&#x42b;" horiz-adv-x="1641" d="M28 0l316 1485h199l-126 -589h79q221 0 329 -53q196 -97 196 -316q0 -250 -166.5 -388.5t-471.5 -138.5h-355zM262 167h140q95 0 170.5 21t131.5 63t86 110t30 157q0 123 -102 176q-69 39 -222 39h-113zM1099 0l316 1485h198l-315 -1485h-199z" />
<glyph unicode="&#x42c;" horiz-adv-x="1232" d="M28 0l316 1485h199l-126 -589h114q218 0 329 -53q194 -98 194 -316q0 -250 -165.5 -388.5t-469.5 -138.5h-391zM262 167h172q96 0 172 21t131.5 63t86 110t30.5 157q0 123 -102 176q-69 39 -223 39h-146z" />
<glyph unicode="&#x42d;" horiz-adv-x="1324" d="M22 69l36 172q157 -95 372 -95q96 0 178.5 24.5t147.5 70.5t115 111t81.5 146.5t45.5 176.5h-687l33 163h668q4 145 -48 256t-155.5 173t-243.5 62q-153 0 -317 -69l-39 150q180 88 386 88q148 0 267 -49.5t196 -137t118 -206.5t41 -260q0 -149 -34 -281.5t-100.5 -239.5 t-160.5 -184.5t-220.5 -119.5t-273.5 -42q-119 0 -227 25.5t-179 65.5z" />
<glyph unicode="&#x42e;" horiz-adv-x="2137" d="M28 0l316 1485h199l-135 -640h302q33 138 99.5 256t160.5 207t220 139.5t270 50.5q126 0 230.5 -40t180 -115t117.5 -189.5t42 -257.5q0 -144 -34.5 -280.5t-102.5 -251.5t-161 -201.5t-217.5 -135.5t-266.5 -49q-126 0 -230.5 39.5t-180 114.5t-117.5 189t-42 258 q0 14 5 94h-313l-144 -673h-198zM888 591q0 -137 43 -236t127.5 -153t203.5 -54q106 0 197.5 42.5t156.5 114.5t111.5 167t68.5 200t22 214q0 206 -97 323.5t-275 117.5q-88 0 -167.5 -30t-139.5 -82t-108.5 -122.5t-79.5 -152.5t-47 -171t-16 -178z" />
<glyph unicode="&#x42f;" horiz-adv-x="1247" d="M-77 0l320 509q91 144 181 187v5q-88 46 -139 128t-51 183q0 87 27.5 162.5t76.5 132t115.5 97t146.5 61t168 20.5h451l-316 -1485h-198l131 615h-217q-47 0 -92 -34.5t-101 -125.5l-280 -455h-223zM441 1006q0 -71 34 -123t90 -77.5t127 -25.5h178l114 540h-184 q-159 2 -259 -81.5t-100 -232.5z" />
<glyph unicode="&#x430;" horiz-adv-x="1067" d="M9 260q0 180 126 283q141 117 430 117l149 2q14 56 14 110q0 163 -197 163q-144 0 -314 -81l-28 150q187 88 374 88q56 0 105.5 -8.5t97.5 -30.5t82 -56t55 -88.5t21 -124.5q0 -12 -0.5 -25t-1.5 -24t-3 -27t-3.5 -25l-4.5 -27t-4 -25t-5.5 -27.5t-5.5 -25t-5.5 -26.5 t-4.5 -25l-24 -95q-37 -166 -37 -275q0 -70 18 -135l-170 -35q-27 90 -31 182q-66 -85 -157.5 -138t-191.5 -53q-129 0 -206.5 78.5t-77.5 203.5zM202 286q0 -72 36.5 -109t105.5 -37q68 0 136.5 37.5t122 107.5t70.5 156l17 75h-84q-240 0 -331 -73q-73 -59 -73 -157z" />
<glyph unicode="&#x431;" horiz-adv-x="1144" d="M77 458q0 143 35.5 308.5t100 314t141.5 228.5q22 22 45 41t43 34t51.5 30.5t52.5 26t64 24.5t67.5 22t82.5 24t89.5 24t107 27.5t118.5 30.5l45 -174q-51 -14 -132.5 -36t-118 -32t-95.5 -27t-86.5 -27t-66.5 -25t-60.5 -28t-44.5 -29t-41 -35q-58 -58 -107 -161.5 t-80 -220.5h5q66 107 168.5 164t207.5 57q86 0 155 -31.5t113 -86.5t67 -127t23 -155q0 -97 -25 -191.5t-73 -175.5t-113 -142.5t-150.5 -96.5t-179.5 -35q-188 0 -298.5 124t-110.5 356zM271 404q0 -52 10.5 -95t30.5 -73.5t48 -52t62.5 -31.5t73.5 -10q77 0 141 39.5 t105 105t63 149t22 172.5q0 51 -11.5 95t-34.5 79t-62.5 55.5t-90.5 20.5q-76 0 -143.5 -39t-114 -102.5t-73 -145.5t-26.5 -167z" />
<glyph unicode="&#x432;" horiz-adv-x="1085" d="M25 54l209 982q154 56 345 56q105 0 185 -22t126 -61t68 -86.5t22 -102.5q-1 -111 -76 -181t-197 -93v-5q102 -24 150 -82t48 -132t-30 -136t-89 -110t-156.5 -75.5t-223.5 -27.5q-94 0 -199.5 20.5t-181.5 55.5zM241 155q71 -29 180 -29q139 0 212.5 55.5t73.5 142.5 q0 47 -22 78t-76.5 50t-142.5 19h-159zM336 610h124q107 0 180 24.5t107 66t35 99.5q2 69 -52.5 106.5t-164.5 37.5q-86 0 -163 -24z" />
<glyph unicode="&#x433;" horiz-adv-x="907" d="M15 264q0 57 17.5 104.5t47 81t68.5 62.5t83 48t90.5 38.5t91 34t83.5 33.5t68.5 39t46.5 48t17 62q0 62 -47.5 90t-122.5 28q-113 0 -249 -50l-42 149q151 60 308 60q169 0 259.5 -74t90.5 -198q0 -61 -21 -110t-56.5 -83t-81.5 -62t-96.5 -48t-101.5 -39t-97 -38 t-81.5 -41t-56.5 -53t-21 -69q0 -65 47 -101t133 -36q142 0 264 67l60 -144q-70 -40 -159.5 -62.5t-178.5 -22.5q-164 0 -263.5 76t-99.5 210z" />
<glyph unicode="&#x434;" horiz-adv-x="1141" d="M54 402q0 126 41.5 240t112.5 196.5t171 131.5t212 49q141 0 263 -66h4q-14 470 -351 470q-100 0 -203 -35l-42 160q48 19 116.5 33t135.5 14q111 0 200.5 -34t151 -94.5t102.5 -146.5t60 -187t19 -219q0 -120 -15.5 -233.5t-47 -219t-81.5 -193t-115 -152.5 t-152.5 -101.5t-188.5 -36.5q-184 0 -288.5 116.5t-104.5 307.5zM254 402q0 -260 204 -260q85 0 155.5 52.5t118 142.5t77.5 203t40 242q-110 76 -234 76q-57 0 -107.5 -18.5t-89.5 -50.5t-70.5 -75.5t-51.5 -94.5t-31 -106t-11 -111z" />
<glyph unicode="&#x435;" horiz-adv-x="1067" d="M54 432q0 139 42.5 261t116 210t177.5 138.5t223 50.5q173 0 265.5 -95.5t92.5 -252.5q0 -115 -47 -248l-672 -10q-2 -17 -2 -54q0 -137 73 -214.5t193 -77.5q131 0 290 81l54 -144q-76 -46 -173.5 -72.5t-188.5 -26.5q-201 0 -322.5 121.5t-121.5 332.5zM277 632l482 8 q19 66 19 110q0 36 -9.5 67.5t-29.5 58.5t-57 43t-87 16q-112 0 -201 -87.5t-117 -215.5z" />
<glyph unicode="&#x436;" horiz-adv-x="1632" d="M-81 2l47 165q24 -12 54 -12q45 0 83 45q17 21 44 65.5t52.5 86.5t56.5 85t69 75t77 42v5q-30 22 -50 58t-36 97l-95 352h198l77 -320q31 -127 101 -127h119l92 447h190l-93 -447h125q42 0 78 26t63.5 71t51 92t54 103t58.5 91q72 86 187 86q59 0 109 -18l-38 -165 q-24 12 -52 12q-47 0 -81 -43q-20 -25 -51 -81t-56 -100.5t-66.5 -88t-87.5 -61.5v-5q62 -42 99 -166l108 -372h-198l-88 338q-17 61 -40 94.5t-48 33.5h-153l-99 -466h-189l97 466h-140q-35 0 -69 -28t-65 -75t-60.5 -97.5t-66.5 -107.5t-70 -93q-74 -80 -195 -80 q-63 0 -103 17z" />
<glyph unicode="&#x437;" horiz-adv-x="933" d="M-20 58l35 149q54 -31 132 -52.5t152 -21.5q52 0 96.5 9.5t83.5 30.5t61.5 59.5t22.5 89.5q0 76 -68 117t-198 41q-54 0 -106 -5l32 151q50 -2 128 -2q139 0 210 49.5t71 124.5q0 37 -17 65.5t-46.5 44t-63 22.5t-71.5 7q-119 0 -240 -51l-41 144q146 62 311 62 q105 0 185.5 -29t129 -91t48.5 -149q0 -53 -19 -99t-53 -80t-76.5 -59t-93.5 -39v-5q92 -30 133 -90.5t41 -134.5q0 -152 -124 -245t-324 -93q-97 0 -185.5 23.5t-145.5 56.5z" />
<glyph unicode="&#x438;" horiz-adv-x="1141" d="M73 245q0 75 26 210l129 611h196l-134 -629q-19 -91 -19 -149q0 -71 32.5 -105.5t88.5 -34.5q84 0 159.5 52t127 137.5t73.5 189.5l115 539h195l-136 -634q-34 -189 -34 -270q0 -65 16 -140l-167 -35q-32 107 -27 207h-4q-68 -96 -170.5 -156t-208.5 -60 q-55 0 -100.5 15.5t-81.5 47t-56 83.5t-20 121z" />
<glyph unicode="&#x439;" horiz-adv-x="1141" d="M73 245q0 75 26 210l129 611h196l-134 -629q-19 -91 -19 -149q0 -71 32.5 -105.5t88.5 -34.5q84 0 159.5 52t127 137.5t73.5 189.5l115 539h195l-136 -634q-34 -189 -34 -270q0 -65 16 -140l-167 -35q-32 107 -27 207h-4q-68 -96 -170.5 -156t-208.5 -60 q-55 0 -100.5 15.5t-81.5 47t-56 83.5t-20 121zM349 1518l156 34q20 -182 159 -182q89 0 153.5 57t121.5 166l138 -68q-56 -103 -114.5 -168t-134 -99.5t-168.5 -34.5q-133 0 -215 74.5t-96 220.5z" />
<glyph unicode="&#x43a;" horiz-adv-x="1042" d="M2 0l228 1066h194l-95 -447h126q36 0 66 20t50.5 51t41.5 74t37.5 84t40 87t48.5 77q64 80 185 80q57 0 112 -17l-38 -167q-25 12 -54 12q-51 0 -82 -43q-22 -28 -49.5 -82.5t-48.5 -99.5t-58.5 -89.5t-81.5 -62.5v-5q65 -44 104 -166l115 -372h-198l-93 338 q-16 60 -40.5 93t-51.5 33h-163l-101 -464h-194z" />
<glyph unicode="&#x43b;" horiz-adv-x="1197" d="M-92 2l42 167q26 -7 52 -7q75 0 120 66q34 49 78 150.5t80.5 199t88 203t100.5 165.5q64 78 146.5 112t192.5 34q136 0 271 -38l-131 -611l-19.5 -97.5t-11.5 -74.5t-5 -77q0 -72 27 -166l-187 -41q-36 83 -36 193q0 83 30 228l108 509q-27 7 -72 7q-105 0 -176 -90 q-40 -55 -86.5 -160.5t-83 -205.5t-87 -208.5t-97.5 -169.5q-42 -56 -99 -79.5t-133 -23.5q-60 0 -112 15z" />
<glyph unicode="&#x43c;" horiz-adv-x="1443" d="M-92 0l38 165q26 -8 54 -8q79 0 131 75q32 50 61 129.5t56.5 201t47.5 225.5t50 278h166q53 -114 111 -275t100 -303h5q71 99 142 185l319 393h194l-132 -623q-14 -65 -20 -97.5t-11.5 -75.5t-5.5 -81q0 -86 22 -161l-189 -41q-28 87 -28 185q0 37 5.5 86.5t13 95 t23.5 119.5t28 125.5t35 147.5h-4q-91 -117 -133 -167l-259 -315h-96q-112 363 -163 486h-5q-47 -259 -93.5 -413t-125.5 -253q-80 -99 -227 -99q-55 0 -110 15z" />
<glyph unicode="&#x43d;" horiz-adv-x="1148" d="M2 0l228 1066h196l-88 -410h466l88 410h196l-228 -1066h-196l102 482h-467l-101 -482h-196z" />
<glyph unicode="&#x43e;" horiz-adv-x="1157" d="M54 396q0 150 46 281t124.5 221.5t184.5 142t223 51.5q102 0 182 -32t130.5 -89.5t76.5 -133t26 -164.5q0 -150 -45.5 -281t-123.5 -221t-184 -141.5t-223 -51.5q-102 0 -182.5 32t-131.5 89t-77 132.5t-26 164.5zM254 408q0 -62 13.5 -111t40.5 -84t70 -53t99 -18 q82 0 152 43.5t117 116t74 166.5t27 194q0 84 -23 142.5t-73 91t-125 32.5q-81 0 -152 -43.5t-118.5 -115.5t-74.5 -166t-27 -195z" />
<glyph unicode="&#x43f;" horiz-adv-x="1139" d="M7 0l227 1066h158l-27 -212h5q71 104 177.5 171t220.5 67q112 0 179 -64.5t67 -195.5q0 -76 -27 -208l-133 -624h-196l133 617q22 113 22 165q0 47 -15.5 78t-41.5 44t-62 13q-64 0 -138 -41.5t-135 -123.5q-41 -53 -71 -123t-53 -176l-97 -453h-193z" />
<glyph unicode="&#x440;" horiz-adv-x="1150" d="M-108 -534l338 1577q161 49 318 49q82 0 152.5 -15.5t124.5 -44.5t95 -69t67.5 -90.5t40 -107.5t13.5 -120q0 -123 -33.5 -230t-92.5 -186.5t-137 -136.5t-169.5 -85.5t-189.5 -28.5q-112 0 -217 31l-114 -543h-196zM241 174q70 -30 165 -30q129 0 229 65t152.5 175 t52.5 244q0 98 -36.5 165t-104 100t-161.5 33q-65 0 -142 -18z" />
<glyph unicode="&#x441;" horiz-adv-x="997" d="M54 426q0 110 29 211.5t84 183.5t129.5 143.5t171 94.5t203.5 33q151 0 268 -54l-36 -164q-109 54 -230 54q-84 0 -161 -36t-134 -99t-90.5 -153.5t-33.5 -192.5q0 -141 69.5 -223t203.5 -82q136 0 271 79l51 -142q-63 -44 -159 -72.5t-185 -28.5q-208 0 -329.5 122 t-121.5 326z" />
<glyph unicode="&#x442;" horiz-adv-x="1743" d="M4 0l228 1066h157l-26 -212h4q72 106 173 172t210.5 66t171.5 -62t60 -187h5q72 108 177 178.5t219 70.5q70 0 123 -25t84.5 -81t31.5 -137q3 -59 -27 -217l-135 -632h-194l135 640q20 91 20 149q0 66 -30.5 97t-83.5 31q-61 0 -127.5 -41t-130.5 -124 q-42 -56 -70.5 -124.5t-50.5 -169.5l-99 -458h-193l134 640q21 96 21 149q0 34 -8.5 59t-24.5 40t-36.5 22t-46.5 7q-60 0 -126 -41t-130 -126q-81 -105 -122 -292l-99 -458h-194z" />
<glyph unicode="&#x443;" horiz-adv-x="1028" d="M-275 -494l70 154q65 -30 130 -30q53 0 99.5 17t96.5 57t101.5 113.5t104.5 180.5l-241 1068h196l112 -544q26 -116 61 -303h5q62 145 125 277l277 570h206l-561 -1102q-95 -188 -184.5 -296t-187.5 -155t-225 -47q-118 0 -185 40z" />
<glyph unicode="&#x444;" horiz-adv-x="1513" d="M50 356q0 105 23.5 209.5t70.5 197.5t110.5 165.5t149.5 115t181 42.5q77 0 156 -29l31 151q19 90 46 158t68 121t99.5 80.5t132.5 27.5q75 0 146 -27l-54 -158q-38 13 -79 13q-66 0 -101.5 -45.5t-62.5 -149.5q-3 -13 -24.5 -108t-30.5 -122h5q19 22 42 40t49.5 30 t55 18t58.5 6q123 0 200 -103.5t77 -281.5q0 -104 -23.5 -208.5t-71 -198t-111.5 -165.5t-150.5 -114.5t-182.5 -42.5q-79 0 -155 29q-16 -63 -25 -99t-28 -97t-36 -100.5t-41.5 -83t-52.5 -70.5q-86 -91 -229 -91q-76 0 -140 27l54 158q41 -14 77 -14q76 0 120 59 q22 26 41 69.5t30 82.5t29.5 108.5t31.5 110.5h-5q-37 -45 -91 -71t-113 -26q-125 0 -201 104t-76 282zM250 370q-2 -109 34.5 -170.5t109.5 -61.5q40 0 74 18.5t57.5 51t39.5 70t26 81.5l114 537q-52 26 -108 26q-53 0 -101.5 -24t-85.5 -65t-67.5 -95.5t-50.5 -116 t-31 -126t-11 -125.5zM741 165q60 -23 110 -23q64 0 120 34t96.5 90t70 128t45 148.5t16.5 151.5q0 110 -36.5 171t-110.5 61q-40 0 -73 -18t-56.5 -50.5t-39.5 -70t-27 -82.5z" />
<glyph unicode="&#x445;" horiz-adv-x="1021" d="M-106 0l476 546l-282 520h200l210 -391l331 391h214l-462 -535l291 -531h-205l-214 406l-347 -406h-212z" />
<glyph unicode="&#x446;" horiz-adv-x="1223" d="M73 245q0 89 26 210l129 611h196l-136 -629q-17 -81 -17 -149q0 -140 123 -140q83 0 157.5 50.5t125 134t73.5 185.5l115 548h197l-118 -554q-41 -197 -41 -269q0 -75 37.5 -94.5t151.5 -6.5l-105 -512h-181l75 361q-163 22 -163 207h-4q-71 -102 -169 -161t-214 -59 q-55 0 -100.5 15.5t-81.5 47t-56 83.5t-20 121z" />
<glyph unicode="&#x447;" horiz-adv-x="1103" d="M131 628q0 56 22 161l61 277h194l-70 -311q-11 -51 -11 -91q0 -36 15.5 -60.5t49 -37t85.5 -12.5q56 0 109 12.5t89.5 31t59.5 39t26 36.5l86 393h194l-228 -1066h-196l66 297q23 113 40 178h-5q-135 -83 -308 -83q-137 0 -208 64.5t-71 171.5z" />
<glyph unicode="&#x448;" horiz-adv-x="1653" d="M73 250q0 84 26 205l129 611h196l-136 -629q-17 -94 -17 -144q0 -52 15 -85t39.5 -46.5t57.5 -13.5q44 0 85.5 22.5t75.5 59.5t63 86t49 102.5t32 108.5l114 539h196l-136 -629q-17 -94 -17 -151q0 -71 30 -104.5t80 -33.5q55 0 106.5 33.5t90 88t67 121t43.5 136.5 l114 539h194l-132 -634q-37 -181 -37 -270q0 -65 16 -140l-166 -35q-31 94 -28 200h-4q-71 -104 -151.5 -156.5t-179.5 -52.5q-63 0 -111.5 22t-80.5 71.5t-36 122.5h-4q-151 -216 -342 -216q-112 0 -176.5 67.5t-64.5 204.5z" />
<glyph unicode="&#x449;" horiz-adv-x="1731" d="M73 250q0 84 26 205l129 611h196l-136 -629q-17 -94 -17 -144q0 -52 15 -85t39.5 -46.5t57.5 -13.5q44 0 85.5 22.5t75.5 59.5t63 86t49 102.5t32 108.5l114 539h196l-136 -629q-17 -94 -17 -151q0 -71 30 -104.5t80 -33.5q55 0 106.5 33.5t90 88t67 121t43.5 136.5 l114 539h194l-117 -554q-41 -197 -41 -269q0 -75 38 -94.5t154 -6.5l-106 -512h-180l75 361q-158 22 -165 196h-5q-144 -209 -335 -209q-63 0 -111.5 22t-80.5 71.5t-36 122.5h-4q-151 -216 -342 -216q-112 0 -176.5 67.5t-64.5 204.5z" />
<glyph unicode="&#x44a;" horiz-adv-x="1320" d="M90 1066h590l-87 -415q105 16 164 16q195 0 300.5 -81t105.5 -214q0 -85 -36 -157t-101 -124.5t-162 -82.5t-215 -30q-99 0 -204 20.5t-174 55.5l178 847h-343zM488 162q74 -29 176 -29q132 0 214.5 60.5t82.5 162.5q0 156 -251 156q-82 0 -153 -16z" />
<glyph unicode="&#x44b;" horiz-adv-x="1457" d="M30 54l215 1012h196l-87 -415q80 16 149 16q189 0 292.5 -82t103.5 -213q0 -84 -33 -155.5t-95.5 -124.5t-158.5 -83.5t-216 -30.5q-93 0 -194 21.5t-172 54.5zM248 162q76 -29 176 -29q122 0 198 59.5t76 161.5q0 78 -56 118t-180 40q-69 0 -144 -16zM974 0l227 1066 h194l-228 -1066h-193z" />
<glyph unicode="&#x44c;" horiz-adv-x="1078" d="M30 54l215 1012h196l-87 -415q105 16 164 16q196 0 301 -81t105 -214q0 -85 -35.5 -157t-101 -124.5t-162.5 -82.5t-215 -30q-98 0 -203.5 20.5t-176.5 55.5zM248 162q76 -29 178 -29q132 0 214.5 60t82.5 163q0 156 -252 156q-82 0 -153 -16z" />
<glyph unicode="&#x44d;" horiz-adv-x="999" d="M11 56l36 151q48 -33 122.5 -53.5t148.5 -20.5q146 0 243.5 88.5t128.5 251.5h-458l32 146h434q-3 152 -81 234t-213 82q-109 0 -219 -54l-43 140q60 32 136 51.5t148 19.5q150 0 255.5 -64.5t157 -176.5t51.5 -263q0 -127 -38.5 -238t-109 -194t-178 -130.5 t-237.5 -47.5q-175 0 -316 78z" />
<glyph unicode="&#x44e;" horiz-adv-x="1599" d="M2 0l228 1066h196l-90 -428h214q63 206 211 330t329 124q97 0 174 -30.5t126.5 -85.5t75.5 -128.5t26 -159.5q0 -152 -46.5 -285t-125 -225.5t-184.5 -146t-222 -53.5q-94 0 -168.5 28.5t-123 80t-75.5 119t-31 148.5q-4 61 4 110h-223l-99 -464h-196zM712 392 q0 -250 214 -250q79 0 148.5 46t116 121t73.5 171.5t27 197.5q0 250 -212 250q-79 0 -149 -46t-117 -121.5t-74 -172t-27 -196.5z" />
<glyph unicode="&#x44f;" horiz-adv-x="1092" d="M-69 4l47 165q30 -9 56 -9q44 0 78 42q18 23 45 67t49 80.5t54.5 74t66.5 56.5v4q-147 70 -147 239q0 77 32 144.5t89.5 117.5t144.5 78.5t192 28.5q180 0 385 -65l-221 -1027h-194l88 412h-174q-32 0 -61.5 -21.5t-55 -60.5t-49 -81t-56.5 -94t-66 -88q-73 -80 -200 -80 q-53 0 -103 17zM374 714q0 -64 43 -109.5t129 -45.5h182l76 355q-88 28 -168 28q-62 0 -112 -18t-82.5 -49t-50 -72t-17.5 -89z" />
<glyph unicode="&#x450;" horiz-adv-x="1067" d="M54 432q0 139 42.5 261t116 210t177.5 138.5t223 50.5q173 0 265.5 -95.5t92.5 -252.5q0 -115 -47 -248l-672 -10q-2 -17 -2 -54q0 -137 73 -214.5t193 -77.5q131 0 290 81l54 -144q-76 -46 -173.5 -72.5t-188.5 -26.5q-201 0 -322.5 121.5t-121.5 332.5zM277 632l482 8 q19 66 19 110q0 36 -9.5 67.5t-29.5 58.5t-57 43t-87 16q-112 0 -201 -87.5t-117 -215.5zM398 1528h226l111 -332h-154z" />
<glyph unicode="&#x451;" horiz-adv-x="1067" d="M54 432q0 139 42.5 261t116 210t177.5 138.5t223 50.5q173 0 265.5 -95.5t92.5 -252.5q0 -115 -47 -248l-672 -10q-2 -17 -2 -54q0 -137 73 -214.5t193 -77.5q131 0 290 81l54 -144q-76 -46 -173.5 -72.5t-188.5 -26.5q-201 0 -322.5 121.5t-121.5 332.5zM277 632l482 8 q19 66 19 110q0 36 -9.5 67.5t-29.5 58.5t-57 43t-87 16q-112 0 -201 -87.5t-117 -215.5zM342 1345q0 56 34 92t84 36q43 0 68.5 -26t25.5 -69q0 -55 -34 -91t-83 -36q-44 0 -69.5 26t-25.5 68zM748 1345q0 56 33.5 92t83.5 36q28 0 50 -12t34 -33.5t12 -49.5 q0 -55 -34.5 -91t-83.5 -36q-44 0 -69.5 26t-25.5 68z" />
<glyph unicode="&#x452;" horiz-adv-x="1150" d="M2 0l266 1251h-128l36 155h128l40 189h194l-40 -189h308l-36 -155h-308l-47 -235q-22 -102 -56 -203h4q72 108 165 173.5t202 65.5q75 0 132.5 -30.5t93 -84.5t53.5 -125t18 -156q0 -120 -24.5 -240.5t-76.5 -237.5t-126 -216t-179 -177.5t-229 -120.5l-63 156 q117 40 213 128t156.5 201t93.5 240.5t33 255.5q0 118 -43.5 176t-121.5 58q-123 0 -250 -165q-44 -59 -73.5 -127.5t-52.5 -174.5l-88 -412h-194z" />
<glyph unicode="&#x453;" horiz-adv-x="907" d="M15 264q0 57 17.5 104.5t47 81t68.5 62.5t83 48t90.5 38.5t91 34t83.5 33.5t68.5 39t46.5 48t17 62q0 62 -47.5 90t-122.5 28q-113 0 -249 -50l-42 149q151 60 308 60q169 0 259.5 -74t90.5 -198q0 -61 -21 -110t-56.5 -83t-81.5 -62t-96.5 -48t-101.5 -39t-97 -38 t-81.5 -41t-56.5 -53t-21 -69q0 -65 47 -101t133 -36q142 0 264 67l60 -144q-70 -40 -159.5 -62.5t-178.5 -22.5q-164 0 -263.5 76t-99.5 210zM437 1196l171 332h226l-246 -332h-151z" />
<glyph unicode="&#x454;" horiz-adv-x="1006" d="M54 432q0 91 19.5 176t55.5 158t89.5 133.5t119.5 103t147 66t171 23.5q150 0 272 -54l-38 -159q-103 56 -226 56q-138 0 -246 -88.5t-145 -227.5h466l-29 -146h-458q-2 -9 -2 -47q0 -137 68 -215t198 -78t268 81l54 -137q-68 -45 -154.5 -72t-178.5 -27 q-204 0 -327.5 121.5t-123.5 332.5z" />
<glyph unicode="&#x455;" horiz-adv-x="821" d="M-52 63l65 149q120 -72 251 -72q86 0 145.5 38t59.5 110q0 33 -15 63t-39.5 52.5t-55.5 47t-63.5 46t-63.5 51.5t-55.5 61.5t-39.5 77t-15 97.5q0 65 23 120t66.5 97.5t113.5 66.5t159 24q148 0 268 -47l-32 -159q-125 47 -226 47q-77 0 -125.5 -35t-48.5 -105 q0 -34 15 -64t39.5 -52.5t55.5 -47t63.5 -46.5t63.5 -51.5t55.5 -62t39.5 -78t15 -98.5q0 -98 -52.5 -170t-141 -108.5t-200.5 -36.5q-186 0 -325 85z" />
<glyph unicode="&#x456;" horiz-adv-x="510" d="M4 0l228 1066h196l-230 -1066h-194zM268 1397q0 63 42.5 102.5t99.5 39.5q54 0 85.5 -31.5t31.5 -79.5q0 -42 -20.5 -75t-52.5 -50t-69 -17q-53 0 -85 31.5t-32 79.5z" />
<glyph unicode="&#x457;" horiz-adv-x="510" d="M4 0l228 1066h194l-228 -1066h-194zM63 1345q0 56 34 92t83 36q29 0 50.5 -12t33 -33.5t11.5 -49.5q0 -55 -34 -91t-84 -36q-21 0 -39 7t-30 19t-18.5 29.5t-6.5 38.5zM469 1345q0 56 33.5 92t82.5 36q44 0 71 -26.5t27 -68.5q0 -36 -16.5 -65.5t-43.5 -45.5t-60 -16 q-43 0 -68.5 26t-25.5 68z" />
<glyph unicode="&#x458;" horiz-adv-x="546" d="M-354 -503l59 163q51 -21 106 -21q85 0 129 52t69 169l257 1206h196l-277 -1289q-66 -311 -368 -311q-98 0 -171 31zM304 1397q0 63 42.5 102.5t100.5 39.5q53 0 83.5 -31.5t30.5 -79.5q0 -63 -42 -102.5t-100 -39.5q-35 0 -61.5 14.5t-40 39.5t-13.5 57z" />
<glyph unicode="&#x459;" horiz-adv-x="1681" d="M-92 2l42 167q26 -7 52 -7q75 0 120 66q34 49 78 150.5t80.5 199t88 203t100.5 165.5q64 78 146.5 112t192.5 34q128 0 262 -38l-88 -401q102 11 149 11q189 0 291.5 -80t102.5 -212q0 -85 -32.5 -157t-94.5 -125t-157.5 -82.5t-215.5 -29.5q-87 0 -189.5 21t-173.5 55 l185 863q-30 7 -65 7q-105 0 -176 -90q-40 -55 -86.5 -160.5t-83 -205.5t-87 -208.5t-97.5 -169.5q-42 -56 -99 -79.5t-133 -23.5q-60 0 -112 15zM877 160q81 -27 172 -27q123 0 200.5 61t77.5 162q0 156 -233 156q-65 0 -148 -16z" />
<glyph unicode="&#x45a;" horiz-adv-x="1668" d="M2 0l228 1066h196l-88 -410h434l88 410h197l-90 -415q81 13 151 13q189 0 290 -79.5t101 -212.5q0 -85 -32.5 -157t-94.5 -125t-157.5 -82.5t-214.5 -29.5q-89 0 -192 20.5t-173 55.5l92 428h-438l-101 -482h-196zM862 160q78 -27 172 -27q123 0 200 61t77 162 q0 156 -232 156q-67 0 -146 -16z" />
<glyph unicode="&#x45b;" horiz-adv-x="1137" d="M2 0l266 1251h-137l36 155h137l40 189h194l-40 -189h278l-37 -155h-275l-49 -235q-22 -102 -56 -203h4q70 107 169.5 173t211.5 66q56 0 103.5 -15.5t85 -46t58.5 -80.5t21 -115q0 -55 -30 -210l-124 -585h-196l122 579q22 99 22 165q0 69 -35.5 102t-95.5 33 q-65 0 -134.5 -42.5t-132.5 -124.5q-81 -104 -124 -304l-86 -408h-196z" />
<glyph unicode="&#x45c;" horiz-adv-x="1040" d="M2 0l228 1066h194l-95 -447h126q36 0 66 20t50.5 51t41.5 74t37.5 84t40 87t48.5 77q64 80 185 80q57 0 112 -17l-38 -167q-25 12 -54 12q-51 0 -82 -43q-22 -28 -49.5 -82.5t-48.5 -99.5t-58.5 -89.5t-81.5 -62.5v-5q65 -44 104 -166l115 -372h-198l-93 338 q-16 60 -40.5 93t-51.5 33h-163l-101 -464h-194zM546 1196l170 332h226l-246 -332h-150z" />
<glyph unicode="&#x45d;" horiz-adv-x="1141" d="M73 245q0 75 26 210l129 611h196l-134 -629q-19 -91 -19 -149q0 -71 32.5 -105.5t88.5 -34.5q84 0 159.5 52t127 137.5t73.5 189.5l115 539h195l-136 -634q-34 -189 -34 -270q0 -65 16 -140l-167 -35q-32 107 -27 207h-4q-68 -96 -170.5 -156t-208.5 -60 q-55 0 -100.5 15.5t-81.5 47t-56 83.5t-20 121zM424 1528h225l110 -332h-153z" />
<glyph unicode="&#x45e;" horiz-adv-x="1028" d="M-275 -494l70 154q65 -30 130 -30q53 0 99.5 17t96.5 57t101.5 113.5t104.5 180.5l-241 1068h196l112 -544q26 -116 61 -303h5q62 145 125 277l277 570h206l-561 -1102q-95 -188 -184.5 -296t-187.5 -155t-225 -47q-118 0 -185 40zM273 1518l155 34q20 -182 160 -182 q89 0 153 57t121 166l138 -68q-56 -103 -114.5 -168t-134 -99.5t-168.5 -34.5q-66 0 -119.5 18.5t-93.5 54.5t-65 92.5t-32 129.5z" />
<glyph unicode="&#x45f;" horiz-adv-x="1141" d="M73 245q0 89 26 210l129 611h196l-136 -629q-17 -81 -17 -149q0 -71 32 -105.5t89 -34.5q84 0 159.5 52t126.5 137.5t72 189.5l115 539h197l-136 -634q-36 -181 -36 -270q0 -71 18 -140l-169 -35q-30 99 -27 207h-5q-68 -96 -169 -156t-207 -60q-55 0 -100.5 15.5 t-81.5 47t-56 83.5t-20 121zM243 -473l120 365h146l-75 -365h-191z" />
<glyph unicode="&#x462;" horiz-adv-x="1357" d="M108 1144l36 165h288l45 213h198l-45 -213h366l-65 -165h-336l-57 -265h129q215 0 324 -56q189 -94 189 -311q0 -238 -167 -375t-467 -137h-393l243 1144h-288zM387 167h174q205 0 312 90.5t107 247.5q0 64 -24 105t-75 65q-65 37 -225 37h-151z" />
<glyph unicode="&#x463;" horiz-adv-x="1159" d="M18 912l36 154h273l62 297h196l-63 -297h357l-64 -154h-327l-58 -272q105 16 172 16q196 0 298 -79.5t102 -211.5q0 -82 -35.5 -153.5t-100.5 -123t-162 -81t-213 -29.5q-100 0 -204 20.5t-177 55.5l183 858h-275zM329 157q73 -28 176 -28q133 0 216 59t83 161 q0 154 -250 154q-80 0 -160 -17z" />
<glyph unicode="&#x472;" horiz-adv-x="1664" d="M101 595q0 146 36 280.5t107 247.5t170 197t232.5 131t286.5 47q295 0 461.5 -161.5t166.5 -455.5q0 -146 -36 -281t-106.5 -248t-169.5 -196.5t-232 -130.5t-287 -47q-295 0 -462 162t-167 455zM309 591q0 -101 25.5 -181.5t77 -140t134 -91.5t191.5 -32q121 0 224.5 42 t176 115t121 167.5t70.5 204.5h-1015q-5 -59 -5 -84zM342 843h1010v40q0 102 -25 182.5t-76 140t-133.5 91.5t-191.5 32q-116 0 -216 -38.5t-171.5 -105.5t-121 -153.5t-75.5 -188.5z" />
<glyph unicode="&#x473;" horiz-adv-x="1159" d="M54 396q1 126 30 236.5t81.5 194t124 143.5t159 91t183.5 31q105 0 185.5 -30.5t130 -87t74.5 -132t25 -169.5q0 -157 -44.5 -288.5t-122.5 -220t-183.5 -137.5t-225.5 -49q-106 0 -186.5 30.5t-130.5 86.5t-75 131.5t-25 169.5zM254 389q0 -126 52 -188.5t171 -62.5 q54 0 101.5 16t86.5 46t70.5 71.5t54.5 92t37 109.5h-567q-6 -34 -6 -84zM282 619h565q0 6 1 27.5t1 33.5q0 83 -21.5 138t-72 85t-129.5 30q-128 0 -217 -85.5t-127 -228.5z" />
<glyph unicode="&#x474;" horiz-adv-x="1384" d="M180 1485h207l129 -857q23 -149 41 -331h4q205 562 372 877q95 175 191 249.5t228 74.5q72 0 148 -23l-36 -177q-35 15 -88 15q-72 0 -134.5 -53.5t-134.5 -184.5q-89 -160 -203 -414.5t-285 -669.5h-193z" />
<glyph unicode="&#x475;" horiz-adv-x="1045" d="M112 1066h189l71 -514q27 -205 36 -298h4q144 416 250 618q36 66 75 111t78.5 68t76 32t77.5 9q71 0 135 -22l-38 -162q-29 14 -73 14q-30 0 -57.5 -13.5t-60.5 -52t-67 -101.5q-64 -120 -129.5 -271t-205.5 -491h-185z" />
<glyph unicode="&#x490;" horiz-adv-x="1056" d="M28 0l316 1485h609l74 351l196 54l-119 -570h-597l-281 -1320h-198z" />
<glyph unicode="&#x491;" horiz-adv-x="880" d="M2 0l228 1066h503l69 314l187 56l-115 -544h-487l-189 -892h-196z" />
<glyph unicode="&#x2013;" horiz-adv-x="1013" d="M0 494v153h1014v-153h-1014z" />
<glyph unicode="&#x2014;" horiz-adv-x="1801" d="M0 494v153h1802v-153h-1802z" />
<glyph unicode="&#x2018;" horiz-adv-x="484" d="M243 1194q0 109 38 208t123 200l108 -46q-84 -148 -84 -305q0 -83 25 -189l-185 -52q-25 87 -25 184z" />
<glyph unicode="&#x2019;" horiz-adv-x="495" d="M207 1054q81 150 81 307q0 81 -22 189l185 52q24 -95 24 -185q0 -109 -37.5 -207.5t-121.5 -199.5z" />
<glyph unicode="&#x201a;" horiz-adv-x="495" d="M-58 -284q80 149 80 306q0 82 -22 190l185 52q24 -95 24 -185q0 -109 -38 -208t-121 -200z" />
<glyph unicode="&#x201c;" horiz-adv-x="888" d="M243 1194q0 109 38 208t123 200l108 -46q-84 -148 -84 -305q0 -83 25 -189l-185 -52q-25 87 -25 184zM651 1194q0 110 37.5 208.5t122.5 199.5l109 -46q-84 -148 -84 -305q0 -88 24 -189l-185 -52q-24 83 -24 184z" />
<glyph unicode="&#x201d;" horiz-adv-x="903" d="M207 1054q81 150 81 307q0 81 -22 189l185 52q24 -95 24 -185q0 -109 -37.5 -207.5t-121.5 -199.5zM613 1054q83 149 83 307q0 75 -23 189l185 52q25 -100 25 -185q0 -109 -38 -207.5t-122 -199.5z" />
<glyph unicode="&#x201e;" horiz-adv-x="903" d="M-58 -284q80 149 80 306q0 82 -22 190l185 52q24 -95 24 -185q0 -109 -38 -208t-121 -200zM346 -284q84 149 84 306q0 82 -22 190l185 52q24 -95 24 -185q0 -109 -37.5 -208t-121.5 -200z" />
<glyph unicode="&#x2020;" horiz-adv-x="1096" d="M146 888l41 198q42 -1 108 -8.5t131.5 -16t100.5 -9.5q11 51 28.5 180.5t27.5 182.5h197q-11 -54 -50.5 -183.5t-49.5 -179.5q37 1 168.5 16.5t185.5 15.5l-41 -198q-51 1 -174 13t-166 13q-8 -37 -43 -236t-79 -410l-76 -372h-187l65 311q37 180 72.5 328t61.5 247.5 t33 131.5q-42 0 -172.5 -12t-181.5 -12z" />
<glyph unicode="&#x2021;" horiz-adv-x="1096" d="M9 226l41 198q50 -2 173 -14.5t166 -13.5q6 23 12 63t15 96t21 112q13 56 35.5 136t27.5 109q-42 0 -172.5 -12t-181.5 -12l41 198q42 -1 108 -8.5t131.5 -16t100.5 -9.5q12 54 28.5 185t25.5 178h199q-11 -54 -50.5 -183.5t-49.5 -179.5q35 1 167 16.5t187 15.5 l-41 -198q-51 1 -174 13t-166 13q-5 -26 -11.5 -61.5t-15.5 -91.5t-18 -103q-14 -72 -37.5 -156t-27.5 -104q42 0 171 12.5t180 12.5l-40 -198q-55 2 -179 15.5t-161 15.5q-13 -55 -29.5 -189.5t-22.5 -170.5h-196q11 60 49.5 189.5t47.5 170.5q-35 -2 -167.5 -15 t-186.5 -13z" />
<glyph unicode="&#x2022;" horiz-adv-x="697" d="M97 716q0 105 69 178t172 73q51 0 96.5 -19.5t77.5 -53.5t50.5 -80t18.5 -98q0 -104 -70 -177t-173 -73t-172 73t-69 177z" />
<glyph unicode="&#x2026;" horiz-adv-x="2008" d="M101 95q0 59 37.5 98t93.5 39q48 0 79 -34.5t31 -80.5q0 -38 -17.5 -69t-48 -48.5t-67.5 -17.5q-48 0 -78 33t-30 80zM757 95q0 59 37 98t94 39q47 0 78.5 -34.5t31.5 -80.5q0 -58 -38.5 -96.5t-94.5 -38.5q-47 0 -77.5 33t-30.5 80zM1415 95q0 58 38 97.5t93 39.5 q47 0 78.5 -34.5t31.5 -80.5q0 -58 -38.5 -96.5t-92.5 -38.5q-48 0 -79 33t-31 80z" />
<glyph unicode="&#x2030;" horiz-adv-x="2720" d="M214 1014q0 136 48 245.5t140 174t213 64.5q90 0 154 -37t97 -105.5t33 -161.5q0 -135 -48 -244t-139.5 -173.5t-211.5 -64.5q-135 0 -210.5 80.5t-75.5 221.5zM340 0l1104 1485h176l-1104 -1485h-176zM378 1019q0 -176 136 -176q52 0 95 31.5t70.5 82t42.5 111t15 121.5 q0 178 -135 178q-52 0 -95.5 -31.5t-71 -82t-42.5 -112t-15 -122.5zM1052 279q0 136 48 245.5t140 174t213 64.5q136 0 210 -80.5t74 -220.5q0 -136 -48 -245.5t-139.5 -174t-210.5 -64.5q-136 0 -211.5 80t-75.5 221zM1217 284q0 -176 135 -176q51 0 94.5 31.5t71 82.5 t42.5 112t15 121q0 177 -137 177q-51 0 -94 -31.5t-70.5 -82t-42 -111.5t-14.5 -123zM1845 279q0 136 48 245.5t139.5 174t211.5 64.5q136 0 211 -80.5t75 -220.5q0 -208 -110 -346t-292 -138q-90 0 -154 36.5t-96.5 104t-32.5 160.5zM2008 284q0 -176 137 -176 q51 0 94 31.5t69.5 82.5t41.5 111.5t15 121.5q0 177 -134 177q-51 0 -94.5 -31.5t-71 -82t-42.5 -112t-15 -122.5z" />
<glyph unicode="&#x2039;" horiz-adv-x="718" d="M43 548l443 464l118 -109l-348 -372l228 -371l-140 -85z" />
<glyph unicode="&#x203a;" horiz-adv-x="718" d="M22 183l348 371l-228 372l140 86l301 -474l-443 -463z" />
<glyph unicode="&#x2044;" horiz-adv-x="305" d="M-482 0l1106 1485h174l-1105 -1485h-175z" />
<glyph unicode="&#x20ac;" horiz-adv-x="1191" d="M45 480l18 137h144v13q0 117 23 226h-151l20 137h167q82 234 255.5 369.5t395.5 135.5q181 0 304 -79l-34 -173q-126 78 -259 78q-153 0 -266.5 -88.5t-177.5 -242.5h546l-48 -137h-543q-22 -93 -22 -207v-32h527l-48 -137h-468q43 -329 313 -329q74 0 139.5 19t142.5 66 l41 -159q-153 -99 -348 -99q-218 0 -345.5 127.5t-156.5 374.5h-169z" />
<glyph unicode="&#x2122;" horiz-adv-x="1894" d="M167 1352v133h678l-34 -133h-237v-757h-159v757h-248zM924 595v890h140l213 -316q63 -91 95 -157h6q29 58 93 155l212 318h146v-890h-157v469q0 130 7 179h-5q-33 -65 -81 -134l-178 -264h-80l-177 264q-51 80 -79 134h-4q6 -74 6 -179v-469h-157z" />
<glyph unicode="&#x2202;" horiz-adv-x="1166" d="M41 394q1 127 45.5 234t120 178.5t176 111t212.5 39.5q156 0 288 -83h5v79q-2 69 -16 127t-36.5 99t-52 72t-65 49t-73 26.5t-77.5 8.5q-142 0 -295 -94l-73 139q196 118 381 118q88 0 165.5 -24.5t140 -73.5t107.5 -119t69.5 -165.5t24.5 -207.5q0 -201 -48.5 -373.5 t-133.5 -295t-206.5 -192t-262.5 -69.5q-186 0 -293 114t-103 302zM241 417q-3 -124 54 -199.5t165 -75.5q62 0 118.5 26.5t104 76t85.5 118t65 154t41 181.5q-125 95 -266 95q-156 0 -260.5 -106.5t-106.5 -269.5z" />
<glyph unicode="&#x2206;" horiz-adv-x="1331" d="M-90 0l791 1492h157l284 -1492h-1232zM209 169h703l-140 790q-20 112 -35 235h-4q-37 -86 -111 -225z" />
<glyph unicode="&#x220f;" horiz-adv-x="1466" d="M18 -406l365 1726h-198l36 165h1372l-65 -165h-204l-365 -1726h-198l365 1726h-545l-364 -1726h-199z" />
<glyph unicode="&#x2211;" horiz-adv-x="1315" d="M-106 -406l757 980l-365 911h1172l-78 -165h-804l305 -772l-613 -789h816l-37 -165h-1153z" />
<glyph unicode="&#x221a;" horiz-adv-x="1504" d="M90 808l435 129l77 -666q11 -135 22 -321h4q53 137 133 298l771 1615h214l-1043 -2138h-223l-124 978l-221 -65z" />
<glyph unicode="&#x221e;" horiz-adv-x="1729" d="M67 604q0 76 26 145t73 121.5t119 83t158 30.5q66 0 126 -19.5t112.5 -58t93 -78t87.5 -95.5q47 56 87 95.5t92.5 78t114 58t130.5 19.5q86 0 158 -30.5t119 -83t73 -121.5t26 -145q0 -77 -26 -146t-73 -121t-119 -83t-158 -31q-69 0 -130.5 19.5t-114 57.5t-93 77.5 t-86.5 95.5q-38 -44 -69.5 -76.5t-73.5 -67t-82 -56.5t-90.5 -36t-103.5 -14q-86 0 -158 31t-119 83t-73 121t-26 146zM268 604q0 -92 53.5 -147t140.5 -55q44 0 84.5 14.5t78.5 46t67.5 62.5t68.5 79q-41 49 -69 78.5t-67 61.5t-79 47t-84 15q-42 0 -78 -14.5t-61.5 -40.5 t-40 -64t-14.5 -83zM967 604q32 -38 56 -64t55 -54.5t59 -45t62 -27.5t69 -11q87 0 140.5 55t53.5 147q0 60 -24.5 106t-68.5 71t-101 25q-43 0 -83 -15t-79 -47t-68.5 -62t-70.5 -78z" />
<glyph unicode="&#x222b;" horiz-adv-x="705" d="M-356 -484l63 155q63 -34 136 -34q86 0 136.5 53.5t74.5 167.5l275 1345q24 126 79 216q110 176 325 176q119 0 206 -52l-65 -153q-68 33 -133 33q-88 0 -139 -53t-75 -167l-275 -1345q-29 -146 -76 -217q-110 -175 -324 -175q-123 0 -208 50z" />
<glyph unicode="&#x2248;" horiz-adv-x="1195" d="M45 367q149 149 306 149q54 0 122.5 -21t123.5 -46t118.5 -45.5t109.5 -20.5q55 0 96.5 21.5t101.5 75.5l101 -121q-148 -152 -307 -152q-52 0 -120.5 21t-124 46.5t-119 46.5t-107.5 21q-55 0 -96.5 -21.5t-101.5 -75.5zM45 780q151 151 306 151q54 0 122.5 -21.5 t123.5 -46.5t118.5 -46.5t109.5 -21.5q37 0 70 11.5t59.5 30.5t68.5 55l101 -122q-145 -148 -307 -148q-52 0 -120.5 21t-124 46.5t-119 46.5t-107.5 21q-56 0 -97 -22.5t-101 -76.5z" />
<glyph unicode="&#x2260;" horiz-adv-x="1195" d="M58 284v167h383l116 237h-499v166h580l103 212h196l-103 -212h290v-166h-372l-114 -237h486v-167h-567l-110 -226h-197l111 226h-303z" />
<glyph unicode="&#x2264;" horiz-adv-x="1195" d="M47 0v167h1066v-167h-1066zM97 617v176l948 342v-170l-748 -258v-4l748 -260v-170z" />
<glyph unicode="&#x2265;" horiz-adv-x="1195" d="M36 0v167h1065v-167h-1065zM103 273v170l748 260v4l-748 258v170l949 -342v-176z" />
<glyph unicode="&#x25ca;" horiz-adv-x="1051" d="M110 651l447 651h182l187 -651l-446 -651h-183zM279 640l131 -480h5l344 502l-131 480h-4z" />
<glyph unicode="&#x25fc;" horiz-adv-x="1069" d="M0 0v1070h1070v-1070h-1070z" />
</font>
</defs>
</svg>
