<?xml version="1.0" standalone="no"?>
<!DOCTYPE svg PUBLIC "-//W3C//DTD SVG 1.1//EN" "http://www.w3.org/Graphics/SVG/1.1/DTD/svg11.dtd" >
<svg xmlns="http://www.w3.org/2000/svg">
<metadata></metadata>
<defs>
<font id="bliss_proheavy" horiz-adv-x="1260" >
<font-face units-per-em="2048" ascent="1638" descent="-410" />
<missing-glyph horiz-adv-x="473" />
<glyph unicode="&#xfb01;" horiz-adv-x="1404" d="M34 804v262h171v121q0 186 103 297t296 111q145 0 263 -56l-65 -269q-94 32 -142 32q-57 0 -85.5 -30t-28.5 -85v-121h283l-77 -262h-206v-804h-341v804h-171zM926 1388q0 80 58.5 137t144.5 57q56 0 102.5 -25.5t73 -70t26.5 -98.5q0 -80 -59 -138.5t-143 -58.5 q-86 0 -144.5 57t-58.5 140zM957 0v1066h341v-1066h-341z" />
<glyph unicode="&#xfb02;" horiz-adv-x="1556" d="M34 804v262h171v121q0 186 103 297t296 111q145 0 263 -56l-65 -269q-94 32 -142 32q-57 0 -85.5 -30t-28.5 -85v-121h283l-77 -262h-206v-804h-341v804h-171zM974 273v1322h339v-1236q0 -47 19.5 -65.5t57.5 -18.5q36 0 68 11l64 -261q-103 -43 -234 -43q-156 0 -235 73 t-79 218z" />
<glyph horiz-adv-x="2048" />
<glyph horiz-adv-x="2048" />
<glyph unicode="&#xd;" horiz-adv-x="2048" />
<glyph unicode=" "  horiz-adv-x="473" />
<glyph unicode="&#x09;" horiz-adv-x="473" />
<glyph unicode="&#xa0;" horiz-adv-x="473" />
<glyph unicode="!" horiz-adv-x="607" d="M124 161.5q0 78.5 52.5 131.5t127.5 53t127.5 -53t52.5 -131.5t-52.5 -131t-127.5 -52.5t-127.5 52.5t-52.5 131zM135 1383v102h338v-105q0 -419 -11.5 -578t-53.5 -336h-208q-42 176 -53.5 336.5t-11.5 580.5z" />
<glyph unicode="&#x22;" horiz-adv-x="972" d="M103 1595h309l-25 -550h-254zM565 1595h309l-25 -550h-254z" />
<glyph unicode="#" horiz-adv-x="1681" d="M101 354v256h280l58 264h-227v257h284l78 354h318l-79 -354h225l80 354h318l-80 -354h226v-257h-282l-59 -264h230v-256h-286l-76 -354h-318l76 354h-225l-77 -354h-317l76 354h-223zM698 610h226l58 264h-225z" />
<glyph unicode="$" d="M117 167l131 250q177 -113 317 -113q196 0 196 122q0 34 -20.5 63.5t-55 53.5t-79.5 47t-95 47.5t-99.5 52t-94.5 64t-79.5 80t-55 103t-20.5 129.5q0 68 22.5 130.5t66 115.5t113.5 90t158 49v230h235v-223q153 -16 270 -82v-282q-108 54 -190 79.5t-173 25.5 q-71 0 -110.5 -28.5t-39.5 -78.5q0 -35 20.5 -65.5t55 -54t79 -46t94 -46t99 -50t94.5 -62t79.5 -77.5t55 -100.5t20.5 -128.5q0 -171 -109 -283.5t-304 -137.5v-243h-234v240q-180 22 -347 129z" />
<glyph unicode="%" horiz-adv-x="2096" d="M114 1097q0 100 29 177.5t80 126.5t120 74t151 25t150.5 -25t119.5 -74t79.5 -126.5t28.5 -177.5t-28.5 -178t-79.5 -126.5t-119.5 -73.5t-150.5 -25t-151 25t-120 73.5t-80 126.5t-29 178zM376 1097q0 -98 29 -153.5t89 -55.5q116 0 116 209q0 98 -28 154t-88 56 q-41 0 -67.5 -27t-38.5 -73t-12 -110zM441 0l942 1485h268l-941 -1485h-269zM1225 381q0 67 13 124.5t37 101.5t58 78t76.5 55.5t91 32.5t103.5 11q82 0 150.5 -25t119.5 -74t79.5 -126.5t28.5 -177.5t-28.5 -178t-79.5 -126.5t-119.5 -73.5t-151 -25t-150.5 25t-119.5 73.5 t-80 126.5t-28.5 178zM1487 381q0 -209 117 -209q60 0 89 55.5t29 153.5t-29 154t-89 56t-88.5 -56t-28.5 -154z" />
<glyph unicode="&#x26;" horiz-adv-x="1793" d="M114 424q0 58 17 112.5t44.5 97t67 80.5t81 66t88.5 52q-20 22 -26.5 29t-25.5 29t-26 31.5t-22.5 30.5t-21.5 34.5t-16 35t-14 39.5t-7 41t-3 46q0 70 31.5 132.5t90 112t150 78.5t203.5 29q88 0 164 -17.5t132.5 -49.5t96.5 -75.5t60.5 -97.5t20.5 -114 q0 -61 -22.5 -117.5t-63.5 -103t-91 -84.5t-112 -71q79 -81 259 -252q55 59 100 135.5t64 161.5l287 -71q-78 -258 -232 -415q51 -39 100 -58t111 -19q34 0 69 10l56 -247q-70 -28 -183 -28q-206 0 -395 144q-208 -153 -497 -153q-153 0 -274 54.5t-191 156.5t-70 235z M464 441q0 -84 67.5 -140t169.5 -56q123 0 221 71q-186 160 -329 316q-41 -25 -67 -48.5t-44 -60.5t-18 -82zM600 1158q0 -86 114 -189q70 40 105 88.5t35 94.5q0 51 -35.5 81.5t-95.5 30.5t-91.5 -29.5t-31.5 -76.5z" />
<glyph unicode="'" horiz-adv-x="514" d="M103 1595h309l-25 -550h-254z" />
<glyph unicode="(" horiz-adv-x="837" d="M157 604q0 143 10 258t36 236.5t70.5 226.5t116 213t169.5 210l223 -171q-100 -117 -156.5 -244.5t-83 -301.5t-26.5 -427.5t26 -426.5t82.5 -299t155.5 -239l-223 -170q-98 99 -169 205.5t-115 210.5t-70 225t-36 236t-10 258z" />
<glyph unicode=")" horiz-adv-x="837" d="M56 1577l223 171q99 -102 170 -210t115.5 -213t70.5 -226.5t35.5 -236.5t9.5 -258t-9.5 -258t-35.5 -236.5t-70 -225t-115 -210t-168 -205.5l-224 170q75 85 123.5 173.5t81 203.5t46 256t13.5 332t-13.5 332t-46 257t-82 206t-124.5 178z" />
<glyph unicode="*" horiz-adv-x="1120" d="M112 1059q49 34 120.5 57.5t138 38.5t89.5 25q-21 9 -88.5 25.5t-137.5 41t-120 58.5l118 202q42 -20 87 -56t76.5 -69t64.5 -67t49 -47q-2 24 -20.5 89.5t-32.5 139t-9 132.5h231q4 -60 -10.5 -133t-34.5 -139t-23 -89q17 13 50.5 47t65 66t77.5 68t89 56l118 -203 q-49 -33 -120.5 -56.5t-138 -39t-89.5 -26.5q22 -10 88 -26t136.5 -39.5t119.5 -57.5l-116 -203q-42 20 -87 56t-76.5 68.5t-65 66.5t-51.5 47q3 -22 22.5 -88t33.5 -139t9 -132h-234q-4 59 12 132t35.5 137.5t20.5 91.5q-14 -10 -37.5 -34.5t-49.5 -51t-55.5 -55t-65.5 -55 t-71 -42.5z" />
<glyph unicode="+" horiz-adv-x="1281" d="M112 419v279h370v413h316v-413h371v-279h-371v-419h-316v419h-370z" />
<glyph unicode="," horiz-adv-x="652" d="M69 -284q103 183 103 359q0 55 -12 146l304 52q16 -63 16 -142q0 -270 -207 -507z" />
<glyph unicode="-" horiz-adv-x="839" d="M112 421v280h616v-280h-616z" />
<glyph unicode="." horiz-adv-x="652" d="M146 162q0 31 9.5 59.5t26 51t39 39.5t49.5 25.5t57 8.5q75 0 127.5 -53t52.5 -131.5t-52.5 -131t-127.5 -52.5t-128 52.5t-53 131.5z" />
<glyph unicode="/" horiz-adv-x="961" d="M22 -84l575 1652h342l-574 -1652h-343z" />
<glyph unicode="0" horiz-adv-x="1320" d="M101 739q0 373 145 567t414 194t414 -194t145 -566.5t-145 -567t-414 -194.5q-179 0 -303.5 85.5t-190 256.5t-65.5 419zM462 739q0 -85 3 -147.5t11.5 -118.5t22.5 -93t36 -64t53 -39.5t72 -12.5q49 0 84 19t57 54.5t34.5 96t17.5 132t5 174t-5 174t-17.5 131.5 t-34.5 95.5t-57 54.5t-84 19q-41 0 -72 -12t-53 -39.5t-36 -64.5t-22.5 -93t-11.5 -118.5t-3 -147.5z" />
<glyph unicode="1" horiz-adv-x="1058" d="M56 1266l537 230h252v-1496h-336v1146l-340 -144z" />
<glyph unicode="2" horiz-adv-x="1258" d="M45 0q9 115 40.5 216t76.5 175.5t100 139.5t114.5 114t117.5 92.5t110 81t92 73.5t63 77t23 85q0 43 -17 75t-47 50t-65.5 26.5t-76.5 8.5q-103 0 -191.5 -26t-204.5 -77l-85 263q129 57 259.5 91.5t281.5 34.5q126 0 223 -29.5t158.5 -84t93 -128.5t31.5 -166 q0 -82 -30.5 -157t-81 -133.5t-112 -112.5t-127.5 -103t-124 -95t-105 -98t-66 -103h673v-290h-1124z" />
<glyph unicode="3" horiz-adv-x="1299" d="M67 69l95 267q81 -37 174 -54.5t169 -17.5q83 0 141.5 12.5t92.5 37t49.5 57t15.5 76.5q0 108 -116 146q-58 20 -176 20h-222v266h174q67 0 118.5 9t92 28.5t61.5 54t21 83.5q0 75 -51.5 117.5t-146.5 42.5q-81 0 -176 -27.5t-187 -75.5l-86 263q251 126 498 126 q104 0 189.5 -22.5t144 -61.5t99 -91.5t59 -111.5t18.5 -123q0 -102 -56 -181.5t-163 -124.5v-4q127 -25 196.5 -113.5t69.5 -215.5q0 -103 -38 -188.5t-113.5 -149.5t-197.5 -99.5t-280 -35.5q-117 0 -241.5 22t-227.5 69z" />
<glyph unicode="4" horiz-adv-x="1387" d="M75 342v217l752 937h248v-877h221v-277h-221v-342h-336v342h-664zM458 610q17 2 85 5.5t104 3.5h92v111q0 71 5 154t8 107z" />
<glyph unicode="5" horiz-adv-x="1227" d="M54 69l94 267q150 -72 314 -72q88 0 154 21t106.5 69t40.5 119q0 60 -23.5 101.5t-83.5 65.5q-76 33 -280 33h-198v812h966l-87 -291h-545v-255h56q178 0 294 -51q56 -25 101 -59.5t74.5 -73.5t49.5 -83.5t28.5 -88t8.5 -87.5q0 -87 -23 -163.5t-73 -142t-124 -112.5 t-181.5 -73.5t-240.5 -26.5q-247 0 -428 91z" />
<glyph unicode="6" horiz-adv-x="1320" d="M101 683q0 174 48.5 323.5t137 259t220.5 172t291 62.5q199 0 371 -79l-85 -261q-131 68 -267 68q-67 0 -124 -19t-107 -59.5t-85 -113t-50 -171.5q147 104 338 104q93 0 175 -31.5t143.5 -89.5t97.5 -146t36 -195q0 -96 -26.5 -180t-75 -147.5t-115.5 -109t-150.5 -69 t-177.5 -23.5q-99 0 -187 26t-163 82t-129.5 137.5t-85 199t-30.5 260.5zM462 608q5 -95 28 -166.5t58 -112t74.5 -60t82.5 -19.5q57 0 97 25.5t59.5 71.5t19.5 108q0 80 -24.5 134.5t-68.5 80.5t-105 26q-36 0 -78.5 -11.5t-81 -32t-61.5 -44.5z" />
<glyph unicode="7" horiz-adv-x="1170" d="M22 1485h1138v-113q-133 -141 -239.5 -305t-182 -341.5t-128 -351.5t-92.5 -374h-358q36 167 85.5 323t102 281t112 238t115 197t113.5 155h-580z" />
<glyph unicode="8" horiz-adv-x="1333" d="M101 396q0 122 63.5 217.5t171.5 147.5v5q-44 29 -74 55.5t-60.5 65t-46 88.5t-15.5 111q0 87 37 163t105 132t170 87.5t226 31.5q121 0 220 -33.5t161 -89.5t95 -124.5t33 -141.5q0 -52 -13.5 -98t-33.5 -79.5t-50 -63t-57 -48.5t-59 -38v-4q58 -24 104.5 -56.5 t81.5 -75.5t53.5 -98t18.5 -120q0 -77 -22 -144.5t-67.5 -124t-112.5 -97.5t-161.5 -63.5t-208.5 -22.5q-134 0 -241 30.5t-176 86.5t-105.5 132.5t-36.5 168.5zM462 432q0 -63 30.5 -108t79 -66.5t108.5 -21.5q56 0 99.5 19.5t68 56.5t24.5 86q0 31 -9.5 58t-23.5 46.5 t-39 38.5t-44.5 30t-53 24t-51.5 19.5t-52 16.5q-11 3 -16 5q-49 -29 -85 -84t-36 -120zM500 1094q0 -35 13 -64t32 -48.5t50 -36.5t59 -27.5t66 -21.5q107 76 107 181q0 68 -46 116t-125 48q-70 0 -113 -42t-43 -105z" />
<glyph unicode="9" horiz-adv-x="1307" d="M79 974q0 157 71.5 278t195 184.5t280.5 63.5q101 0 187.5 -24.5t160 -78.5t125 -135.5t80.5 -199.5t29 -264q0 -398 -177.5 -609t-525.5 -211q-217 0 -385 82l82 269q144 -79 292 -79q156 0 241 83t112 264h-2q-125 -88 -304 -88q-76 0 -144.5 17.5t-127 55t-100.5 91 t-66 130.5t-24 171zM430 1000q0 -107 50 -162.5t142 -55.5q34 0 68 8t64 22t55.5 31.5t46.5 37.5q-2 150 -67.5 248.5t-171.5 98.5q-85 0 -136 -61.5t-51 -166.5z" />
<glyph unicode=":" horiz-adv-x="652" d="M146 162q0 31 9.5 59.5t26 51t39 39.5t49.5 25.5t57 8.5q75 0 127.5 -53t52.5 -131.5t-52.5 -131t-127.5 -52.5t-128 52.5t-53 131.5zM146 847q0 31 9.5 59.5t26 51t39 39.5t49.5 26t57 9q75 0 127.5 -53.5t52.5 -131.5t-52.5 -131.5t-127.5 -53.5t-128 53.5t-53 131.5z " />
<glyph unicode=";" horiz-adv-x="652" d="M69 -284q103 183 103 359q0 55 -12 146l304 52q16 -63 16 -142q0 -270 -207 -507zM120 847q0 79 52 132t127 53t128 -53.5t53 -131.5t-53 -131.5t-128 -53.5t-127 53t-52 132z" />
<glyph unicode="&#x3c;" horiz-adv-x="1146" d="M67 458v256l978 380v-279l-689 -227v-5l689 -227v-279z" />
<glyph unicode="=" horiz-adv-x="1281" d="M112 165v278h1057v-278h-1057zM112 669v279h1057v-279h-1057z" />
<glyph unicode="&#x3e;" horiz-adv-x="1146" d="M101 77v279l690 227v5l-690 227v279l978 -380v-256z" />
<glyph unicode="?" horiz-adv-x="1126" d="M58 1307q233 193 490 193q110 0 196.5 -26.5t140 -74t81 -108.5t27.5 -133q0 -54 -18.5 -103t-49.5 -85.5t-70 -72t-80 -62.5t-80 -55.5t-70 -53.5t-49.5 -54.5t-18.5 -58.5q0 -37 15 -67l-293 -88q-58 79 -58 184q0 47 17 89.5t44.5 74.5t62.5 62.5t72 54t72 48.5 t62.5 46.5t44.5 47.5t17 53q0 46 -32 71t-95 25q-134 0 -279 -124zM262 161.5q0 78.5 52 131.5t127 53t128 -53t53 -131.5t-53 -131t-128 -52.5t-127 52.5t-52 131z" />
<glyph unicode="@" horiz-adv-x="1763" d="M67 430q0 156 44 292.5t123 238t185.5 175t234.5 111t268 37.5q169 0 312 -50t245.5 -142.5t159.5 -230.5t57 -307q0 -239 -103.5 -365t-283.5 -126q-94 0 -155.5 46t-83.5 136h-2q-33 -69 -121.5 -124.5t-200.5 -55.5q-46 0 -90 11.5t-87.5 39.5t-76 68.5t-53 104 t-20.5 141.5q0 144 66.5 258.5t184 178.5t265.5 64q96 0 193.5 -24.5t180.5 -72.5l-45 -338q-11 -79 -11 -126q0 -40 7.5 -66t26 -41t48.5 -15q73 0 113.5 74.5t40.5 211.5q0 96 -20 180t-64.5 155.5t-110 122.5t-162 80t-215.5 29q-134 0 -251 -44.5t-204 -126.5 t-137 -205.5t-50 -273.5q0 -114 26.5 -210t74.5 -164.5t114 -116t144.5 -70.5t167.5 -23q189 0 309 58l54 -177q-172 -64 -381 -64q-102 0 -195.5 24t-172.5 68.5t-144 110t-110 147.5t-70 183t-25 213zM683 437q0 -96 32.5 -136.5t92.5 -40.5q81 0 138.5 79.5t76.5 225.5 l18 142q-58 30 -113 30q-104 0 -174.5 -80t-70.5 -220z" />
<glyph unicode="A" horiz-adv-x="1490" d="M4 0l584 1492h284l615 -1492h-369l-142 354h-482l-135 -354h-355zM591 628h281l-70 206q-44 130 -63 211h-4q-15 -68 -71 -213z" />
<glyph unicode="B" horiz-adv-x="1326" d="M169 0v1485h498q93 0 171.5 -21t132 -57.5t91 -85t54.5 -102t17 -110.5q0 -89 -43.5 -170t-124.5 -126v-5q131 -35 201 -132t70 -223q0 -67 -20.5 -131t-64 -122.5t-105 -103t-149.5 -70.5t-192 -26h-536zM514 279h142q123 0 179.5 43t56.5 133q0 74 -54 114.5t-150 40.5 h-174v-331zM514 890h103q86 0 133.5 44t47.5 109q0 70 -48.5 115t-141.5 45h-94v-313z" />
<glyph unicode="C" horiz-adv-x="1470" d="M112 728q0 127 36.5 243.5t107.5 212.5t169 167t228 110t278 39q235 0 404 -70v-315q-189 99 -396 99q-93 0 -170 -25.5t-130 -70.5t-89.5 -106.5t-53 -131.5t-16.5 -147q0 -138 55 -244.5t158.5 -165.5t241.5 -59q108 0 195 28t179 82l95 -271q-232 -125 -512 -125 q-189 0 -338 56t-245 156.5t-146.5 237t-50.5 300.5z" />
<glyph unicode="D" horiz-adv-x="1644" d="M169 0v1485h536q193 0 348.5 -51t261 -145t161.5 -230t56 -304q0 -173 -64 -315.5t-178.5 -238.5t-273.5 -148.5t-347 -52.5h-500zM514 290h164q100 0 182 24t138 65.5t94 99.5t55.5 124t17.5 141q0 216 -127.5 333t-366.5 117h-157v-904z" />
<glyph unicode="E" horiz-adv-x="1184" d="M169 0v1485h893l-88 -291h-460v-300h466v-290h-466v-314h543v-290h-888z" />
<glyph unicode="F" horiz-adv-x="1133" d="M169 0v1485h901l-88 -291h-468v-300h462v-290h-462v-604h-345z" />
<glyph unicode="G" horiz-adv-x="1651" d="M112 712q0 167 61 312t170 250.5t269 165.5t349 60q234 0 449 -70v-317q-216 101 -421 101q-124 0 -221.5 -35t-160 -99.5t-95 -153t-32.5 -196.5q0 -69 13.5 -130.5t39.5 -113t65 -93t89.5 -70t113.5 -44t136 -15.5q131 0 211 31v440h346v-634q-119 -59 -269 -91 t-305 -32q-191 0 -344.5 55.5t-254.5 154t-155 232.5t-54 292z" />
<glyph unicode="H" horiz-adv-x="1664" d="M169 0v1485h345v-584h638v584h344v-1485h-344v608h-638v-608h-345z" />
<glyph unicode="I" horiz-adv-x="682" d="M169 0v1485h345v-1485h-345z" />
<glyph unicode="J" horiz-adv-x="804" d="M-79 -376l72 273q63 -32 149 -32q41 0 69.5 11.5t44 28t23.5 45t9.5 51.5t1.5 59v1425h346v-1460q0 -96 -27.5 -176t-81.5 -141t-142.5 -95t-204.5 -34q-85 0 -141.5 11t-117.5 34z" />
<glyph unicode="K" horiz-adv-x="1445" d="M169 0v1485h345v-599h6l471 599h392l-581 -709l610 -776h-412l-480 632h-6v-632h-345z" />
<glyph unicode="L" horiz-adv-x="1056" d="M169 0v1485h345v-1195h509v-290h-854z" />
<glyph unicode="M" horiz-adv-x="1894" d="M169 0v1485h311l371 -518q68 -94 116 -176h4q51 99 108 187l333 507h314v-1485h-346v757q0 115 3 160h-3q-4 -11 -18 -34t-25.5 -40.5t-32 -48.5t-22.5 -35l-241 -365h-151l-275 378q-70 94 -99 145h-4q2 -49 2 -149v-768h-345z" />
<glyph unicode="N" horiz-adv-x="1736" d="M169 0v1485h345l576 -750q78 -99 133 -181h5q-5 77 -5 244v687h345v-1485h-320l-597 782q-27 34 -74.5 98t-64.5 87h-5q7 -50 7 -212v-755h-345z" />
<glyph unicode="O" horiz-adv-x="1756" d="M112 739q0 167 56.5 309t157 241.5t243 155t310.5 55.5t310.5 -55.5t242.5 -155t156 -241.5t56 -309t-56 -308.5t-156 -241t-242.5 -155.5t-310.5 -56t-310.5 56t-243 155.5t-157 241t-56.5 308.5zM480 739q0 -116 29 -207t82.5 -149.5t126 -88.5t161 -30t161.5 30 t126 88.5t82 149.5t29 207t-29 207t-82 149.5t-126 88.5t-161.5 30t-161 -30t-126 -88.5t-82.5 -149.5t-29 -207z" />
<glyph unicode="P" horiz-adv-x="1294" d="M169 0v1485h414q208 0 341 -62q126 -58 192 -168t66 -268q0 -68 -15.5 -131.5t-49.5 -125t-96 -112.5t-147 -82q-133 -50 -322 -50h-38v-486h-345zM514 763h58q91 0 146 26q107 50 107 198q0 59 -26 109t-76 80q-56 32 -158 32h-51v-445z" />
<glyph unicode="Q" horiz-adv-x="1756" d="M112 739q0 167 56.5 309t157 241.5t243 155t310.5 55.5t310.5 -55.5t242.5 -155t156 -241.5t56 -309q0 -287 -156.5 -486.5t-419.5 -254.5q79 -88 254 -88q35 0 75 8t56 17l79 -262q-99 -49 -248 -49q-114 0 -213.5 29.5t-179 85t-141.5 121.5t-118 151q-240 68 -380 262 t-140 466zM480 739q0 -116 29 -207t82.5 -149.5t126 -88.5t161 -30t161.5 30t126 88.5t82 149.5t29 207t-29 207t-82 149.5t-126 88.5t-161.5 30t-161 -30t-126 -88.5t-82.5 -149.5t-29 -207z" />
<glyph unicode="R" horiz-adv-x="1400" d="M169 0v1485h478q183 0 306 -49q88 -37 146 -98t82.5 -133t24.5 -158q0 -138 -80 -237.5t-204 -138.5v-4q36 -23 85 -84.5t104 -161.5l234 -421h-392l-181 338q-104 195 -159 205h-99v-543h-345zM514 820h108q77 0 135 29q42 25 66 67t24 98t-27.5 101.5t-75.5 69.5 q-52 23 -120 23h-110v-388z" />
<glyph unicode="S" horiz-adv-x="1265" d="M101 117l131 259q166 -112 342 -112q32 0 61.5 4t57 14t48.5 24.5t33 37t12 50.5q0 39 -21.5 72t-58 59t-84 50t-99.5 49.5t-104.5 53.5t-100 65t-84 81.5t-58 106.5t-21.5 135q0 86 34.5 164t97.5 138.5t161.5 96t218.5 35.5q117 0 218 -22.5t174 -58.5v-308 q-212 103 -381 103q-70 0 -113 -28t-43 -92q0 -33 18 -61.5t48 -50t70.5 -44t86 -42t93.5 -45t93.5 -52t86 -64t71 -81t48 -102.5t17.5 -128q0 -135 -75.5 -237t-203 -155.5t-287.5 -53.5q-135 0 -264 35.5t-223 103.5z" />
<glyph unicode="T" horiz-adv-x="1270" d="M22 1194v291h1248l-88 -291h-380v-1194h-344v1194h-436z" />
<glyph unicode="U" horiz-adv-x="1634" d="M157 568v917h346v-897q0 -119 45 -194q78 -130 269 -130q193 0 271 130q45 75 45 194v897h344v-917q0 -196 -71 -323q-150 -267 -589 -267q-438 0 -587 267q-73 129 -73 323z" />
<glyph unicode="V" horiz-adv-x="1526" d="M4 1485h370l284 -741q36 -93 103 -286h5q58 170 104 286l284 741h368l-610 -1496h-297z" />
<glyph unicode="W" horiz-adv-x="2195" d="M4 1485h385l264 -829q16 -50 52 -192h7q17 73 56 192l187 563l-97 266h341l276 -802q56 -156 71 -217h6q25 118 52 212l238 807h350l-505 -1496h-297l-214 581q-50 133 -65 200h-7q-11 -48 -61 -196l-211 -585h-286z" />
<glyph unicode="X" horiz-adv-x="1492" d="M11 0l539 744l-490 741h381l320 -483l352 483h370l-530 -730l498 -755h-381l-329 496l-360 -496h-370z" />
<glyph unicode="Y" horiz-adv-x="1395" d="M4 1485h372l320 -606h5l322 606h370l-526 -904v-581h-345v585z" />
<glyph unicode="Z" horiz-adv-x="1322" d="M22 0l730 1194h-592l-85 291h1225l-712 -1195h698v-290h-1264z" />
<glyph unicode="[" horiz-adv-x="724" d="M124 -531v2277h556v-257h-233v-1764h233v-256h-556z" />
<glyph unicode="\" horiz-adv-x="961" d="M22 1568h343l574 -1652h-342z" />
<glyph unicode="]" horiz-adv-x="724" d="M45 -275h234v1764h-234v257h557v-2277h-557v256z" />
<glyph unicode="^" horiz-adv-x="1071" d="M67 647l335 838h269l333 -838h-279l-187 549h-4l-188 -549h-279z" />
<glyph unicode="_" horiz-adv-x="986" d="M0 -148h987v-166h-987v166z" />
<glyph unicode="`" horiz-adv-x="900" d="M122 1528h360l131 -332h-257z" />
<glyph unicode="a" horiz-adv-x="1155" d="M67 327q0 104 46 174t132 116q112 59 282 66l169 7v11q0 139 -187 139q-68 0 -140.5 -17t-129.5 -47l-106 213q209 103 439 103q241 0 352.5 -102.5t111.5 -301.5v-479q0 -151 18 -209h-278l-48 90q-130 -112 -298 -112q-157 0 -260 98t-103 251zM408 349q0 -55 35 -82.5 t98 -27.5q92 0 155 38v198l-115 -4q-81 -4 -126 -30q-47 -29 -47 -92z" />
<glyph unicode="b" horiz-adv-x="1251" d="M124 58v1537h340v-523q97 20 183 20q112 0 209 -35t170 -100.5t114.5 -165t41.5 -221.5q0 -137 -51.5 -249.5t-142 -187t-213.5 -115t-266 -40.5q-230 0 -385 80zM464 266q47 -12 101 -12q125 0 198 82t73 212q0 118 -69 192.5t-179 74.5q-73 0 -124 -17v-532z" />
<glyph unicode="c" horiz-adv-x="1042" d="M69 527q0 72 16.5 139.5t46 123.5t71 104t92.5 84.5t109 62t122 38.5t130 13q187 0 303 -78v-281q-121 92 -263 92q-129 0 -204 -84t-75 -212q0 -136 72 -210t194 -74q64 0 120.5 18t122.5 55l95 -230q-70 -50 -172.5 -80t-216.5 -30q-106 0 -196.5 26.5t-157.5 75.5 t-114 117t-71 151.5t-24 178.5z" />
<glyph unicode="d" d="M69 525q0 98 28.5 185.5t82 157t127 120t168.5 77.5t203 27q72 0 120 -6v509h339v-1535q-86 -42 -202 -62t-223 -20q-140 0 -258 37t-203.5 106t-133.5 172.5t-48 231.5zM417 529q0 -87 38.5 -150.5t101 -94t141.5 -30.5q59 0 100 12v542q-48 7 -102 7q-129 0 -204 -75.5 t-75 -210.5z" />
<glyph unicode="e" horiz-adv-x="1157" d="M75 520q0 122 32.5 225t95 181t160 122t220.5 44q239 0 373 -155t134 -428v-79h-675q4 -94 76.5 -142.5t186.5 -48.5q147 0 275 72l99 -230q-170 -103 -401 -103q-103 0 -189.5 21t-148.5 59t-108.5 88.5t-74.5 112t-41.5 126.5t-13.5 135zM410 656h340q-1 36 -11 68 t-29.5 58.5t-54 42t-79.5 15.5q-79 0 -122.5 -54t-43.5 -130z" />
<glyph unicode="f" horiz-adv-x="849" d="M34 804v262h171v121q0 186 103 297t296 111q145 0 263 -56l-65 -269q-94 32 -142 32q-57 0 -85.5 -30t-28.5 -85v-121h283l-77 -262h-206v-804h-341v804h-171z" />
<glyph unicode="g" horiz-adv-x="1180" d="M22 -217q0 60 28 111.5t70 84.5t92 51q-33 18 -51.5 53t-18.5 77q0 55 38.5 108t103.5 88q-91 48 -139 138t-48 198q0 58 16 113.5t52 108t88.5 92t131.5 63t174 23.5q142 0 223 -49q12 -8 26 6q51 48 114.5 71.5t169.5 23.5q42 0 77 -4l-62 -235q-55 12 -91 12 q-37 0 -63 -9q77 -101 77 -237q0 -121 -59.5 -212t-164.5 -139.5t-241 -48.5q-74 0 -122 13q-9 -26 -9 -48q0 -28 24 -47.5t65 -30.5t93.5 -18.5t110.5 -15.5t116 -19.5t110.5 -32t93 -50.5t64.5 -79t24 -112q0 -59 -22.5 -112t-71 -99.5t-117.5 -80t-168.5 -53.5 t-217.5 -20q-244 0 -380 89t-136 228zM322 -155q0 -67 71 -108t195 -41q96 0 161.5 25.5t65.5 71.5q0 30 -26 51.5t-66 32t-91.5 18.5t-99.5 13t-94 14t-71 22q-45 -40 -45 -99zM412 680q0 -42 16.5 -78t51.5 -60t83 -24q67 0 109 41.5t42 118.5q0 66 -41 116.5t-114 50.5 q-65 0 -106 -42.5t-41 -122.5z" />
<glyph unicode="h" horiz-adv-x="1272" d="M124 0v1595h340v-636q71 60 159 96.5t183 36.5q359 0 359 -396v-696h-340v595q0 37 -3 64t-12 55t-24.5 45.5t-42 29t-63.5 11.5q-53 0 -111 -21.5t-105 -58.5v-720h-340z" />
<glyph unicode="i" horiz-adv-x="555" d="M77 1388q0 80 58.5 137t143.5 57q86 0 144.5 -55.5t58.5 -138.5q0 -80 -59 -138.5t-144 -58.5t-143.5 57t-58.5 140zM108 0v1066h341v-1066h-341z" />
<glyph unicode="j" horiz-adv-x="591" d="M-157 -488l60 274q60 -27 122 -27q65 0 92 36t27 117v1154h340v-1201q0 -183 -105.5 -291t-299.5 -108q-138 0 -236 46zM112 1388q0 80 59 137t145 57t144 -55.5t58 -138.5q0 -80 -58.5 -138.5t-143.5 -58.5q-86 0 -145 57.5t-59 139.5z" />
<glyph unicode="k" horiz-adv-x="1193" d="M124 0v1595h340v-883h5l309 354h380l-417 -473l441 -593h-387l-326 458h-5v-458h-340z" />
<glyph unicode="l" horiz-adv-x="707" d="M124 273v1322h340v-1236q0 -47 19.5 -65.5t57.5 -18.5q36 0 67 11l65 -261q-103 -43 -234 -43q-156 0 -235.5 73t-79.5 218z" />
<glyph unicode="m" horiz-adv-x="1926" d="M108 0v1066h286l32 -109q179 135 350 135q99 0 173 -39t117 -111q93 75 190.5 112.5t183.5 37.5q51 0 96.5 -8.5t88.5 -27t77.5 -50t61 -74t40.5 -102t14 -132.5v-698h-341v610q0 35 -2.5 60t-11 51t-23.5 42t-41.5 26.5t-63.5 10.5q-49 0 -103.5 -18t-98.5 -52v-23v-707 h-340v606q0 29 -1.5 50.5t-6.5 45.5t-14.5 40t-24.5 30t-38.5 21t-54.5 7q-32 0 -67.5 -8t-71.5 -24t-65 -38v-730h-341z" />
<glyph unicode="n" horiz-adv-x="1256" d="M108 0v1066h290l34 -109q175 135 359 135q357 0 357 -396v-696h-340v595q0 37 -2.5 64t-11.5 55t-24 45.5t-42 29t-64 11.5q-52 0 -110.5 -21.5t-104.5 -58.5v-720h-341z" />
<glyph unicode="o" d="M69 536q0 96 26.5 182t76 154t118 117.5t155.5 76t185 26.5q123 0 227.5 -41.5t178 -114.5t114.5 -176.5t41 -223.5q0 -97 -26 -183t-76 -154t-118 -118t-155.5 -76.5t-185.5 -26.5q-122 0 -226.5 41.5t-178 115t-115 177t-41.5 224.5zM417 535.5q0 -85.5 21.5 -149 t70 -102.5t121.5 -39q55 0 97 22t67.5 62t38 91.5t12.5 115.5q0 85 -21.5 148.5t-71 102t-122.5 38.5t-121.5 -38.5t-70 -102t-21.5 -149z" />
<glyph unicode="p" horiz-adv-x="1229" d="M108 -534v1557q216 69 440 69q152 0 269.5 -40.5t192 -114.5t112.5 -176t38 -227q0 -118 -39 -219.5t-111 -176.5t-179.5 -117.5t-237.5 -42.5q-75 0 -144 15v-527h-341zM449 271q68 -17 116 -17q124 0 186 73t62 204q0 141 -71.5 212.5t-207.5 71.5q-49 0 -85 -9v-535z " />
<glyph unicode="q" horiz-adv-x="1247" d="M69 507q0 136 49.5 247.5t136 185t203.5 113t254 39.5q116 0 233.5 -18t194.5 -51v-1557h-340v566q-93 -54 -235 -54q-74 0 -144 19t-134.5 60.5t-112.5 102t-76.5 150t-28.5 197.5zM417 520q0 -119 64 -192.5t177 -73.5q75 0 142 36v514q-61 11 -110 11 q-132 0 -202.5 -79.5t-70.5 -215.5z" />
<glyph unicode="r" horiz-adv-x="886" d="M108 0v1066h288l36 -109q74 66 140 100.5t148 34.5q101 0 176 -54l-118 -279q-71 45 -146 45q-48 0 -88 -15t-95 -56v-733h-341z" />
<glyph unicode="s" horiz-adv-x="1008" d="M41 90l103 243q69 -45 150.5 -69.5t156.5 -24.5q159 0 159 72q0 20 -11.5 36t-39.5 30t-50 22.5t-67 23.5q-42 14 -65 22t-64 25.5t-64.5 33t-54 41.5t-47 54.5t-28 68t-11.5 84.5q0 154 119 247t316 93q189 0 343 -54v-281q-186 75 -329 75q-118 0 -118 -64 q0 -22 21.5 -39t57 -29t80.5 -28t92 -32t92.5 -44t80.5 -63t57 -90t22 -123q0 -73 -25.5 -131.5t-68.5 -97t-102.5 -64.5t-125 -37.5t-138.5 -11.5q-132 0 -246 31t-195 81z" />
<glyph unicode="t" horiz-adv-x="929" d="M25 804v262h201v252l339 97v-349h325l-77 -262h-248v-423q0 -51 11 -80.5t32.5 -42.5t55.5 -13q83 0 156 45l94 -230q-59 -39 -155 -60.5t-185 -21.5q-161 0 -254.5 83.5t-93.5 228.5v514h-201z" />
<glyph unicode="u" horiz-adv-x="1249" d="M108 437v629h341v-608q0 -71 22 -114q44 -80 151 -80q97 0 162 58v744h340v-870q0 -138 18 -196h-286l-48 101q-137 -123 -314 -123q-44 0 -88 9.5t-93.5 31.5t-93 67t-71.5 108q-40 93 -40 243z" />
<glyph unicode="v" horiz-adv-x="1152" d="M4 1066h340l230 -640h5l229 640h340l-450 -1073h-243z" />
<glyph unicode="w" horiz-adv-x="1774" d="M11 1066h340l206 -636h4l215 636h245l218 -638h4l203 638h332l-422 -1073h-236l-221 635h-5l-227 -635h-250z" />
<glyph unicode="x" horiz-adv-x="1191" d="M11 0l406 536l-397 530h350l227 -303l228 303h349l-398 -530l404 -536h-348l-235 311l-236 -311h-350z" />
<glyph unicode="y" horiz-adv-x="1247" d="M-22 -475l85 261q89 -48 169 -48q42 0 76 13t68 44.5t65.5 86.5t61.5 136l-490 1048h361l284 -677h4l232 677h349l-414 -1066q-39 -101 -80 -180.5t-79.5 -135t-82 -95.5t-81.5 -63.5t-84 -37t-84.5 -18t-87.5 -4.5q-145 0 -272 59z" />
<glyph unicode="z" horiz-adv-x="983" d="M25 0l461 804h-364l-68 262h922l-458 -804h449v-262h-942z" />
<glyph unicode="{" horiz-adv-x="892" d="M135 512v206l27 1.5t26.5 4t27.5 9t23.5 16.5t20.5 26t12 38.5t5 53.5v494q0 387 448 387l59 -295q-96 -7 -140 -44t-44 -123v-383q0 -138 -52.5 -207.5t-137.5 -78.5v-4q85 -9 137.5 -78.5t52.5 -207.5v-383q0 -87 44 -123.5t140 -43.5l-59 -295q-448 0 -448 387v494 q0 23 -3 42.5t-7.5 34t-13 25.5t-16 18.5t-19.5 12.5t-20 8t-21.5 4.5t-20.5 2z" />
<glyph unicode="|" horiz-adv-x="695" d="M180 -531v2288h336v-2288h-336z" />
<glyph unicode="}" horiz-adv-x="892" d="M108 -223q96 7 140.5 43.5t44.5 123.5v383q0 71 14.5 125t41 87.5t59.5 51t74 22.5v4q-85 9 -137 78.5t-52 207.5v383q0 86 -44.5 123t-140.5 44l59 295q448 0 448 -387v-494q0 -30 5 -53.5t12.5 -38.5t20.5 -26t23 -16.5t27.5 -9t26.5 -4l27 -1.5v-206 q-14 -1 -20.5 -1.5t-20.5 -2t-22 -4.5t-20 -8t-19 -12.5t-16 -18.5t-13.5 -25.5t-7.5 -34t-3 -42.5v-494q0 -387 -448 -387z" />
<glyph unicode="~" horiz-adv-x="1281" d="M47 647q177 168 381 168q44 0 86.5 -9t74 -22.5t66.5 -29t65 -29t68 -22.5t77 -9q62 0 108 19.5t106 70.5l155 -221q-177 -169 -380 -169q-45 0 -87 9t-74 22.5t-67 29.5t-64.5 29.5t-68 22.5t-76.5 9q-62 0 -108.5 -19.5t-106.5 -70.5z" />
<glyph unicode="&#xa1;" horiz-adv-x="607" d="M124 908q0 51 24 93.5t65.5 66.5t90.5 24q75 0 127.5 -53t52.5 -131.5t-52.5 -131.5t-127.5 -53t-127.5 53t-52.5 132zM135 -311q0 420 11.5 579.5t53.5 335.5h208q42 -176 53.5 -336.5t11.5 -581.5v-101h-338v104z" />
<glyph unicode="&#xa2;" d="M172 737q0 116 46 219t132 177.5t198 102.5v249h234v-219q79 -3 142.5 -24t102.5 -48v-259q-108 79 -261 79q-118 0 -193 -70t-75 -198q0 -119 70 -190.5t193 -71.5q127 0 241 64l84 -244q-41 -21 -90 -37.5t-108 -27t-118 -11.5v-228h-234v241q-120 31 -203.5 106 t-122 173.5t-38.5 216.5z" />
<glyph unicode="&#xa3;" d="M124 0v207q42 8 75 30t54 48.5t36 66t22 70.5t11 73.5t4.5 63t0.5 50.5v6h-149v277h149v95q0 87 18 160t48.5 125t73 92.5t89 65.5t99 41.5t99.5 22.5t95 6q179 0 338 -72l-76 -270q-91 56 -210 56q-114 0 -176.5 -70t-62.5 -200v-52h419l-83 -277h-336q0 -31 -1 -50.5 t-4 -54.5t-7.5 -59.5t-13 -57.5t-20.5 -57.5t-30.5 -49.5t-42.5 -43l3 -4q53 14 83.5 20.5t90.5 12t138 5.5h318v-277h-1052z" />
<glyph unicode="&#xa5;" d="M34 1485h368l226 -604h4l228 604h368l-334 -699h260v-201h-354v-151h354v-200h-354v-234h-338v234h-354v200h354v151h-354v201h257z" />
<glyph unicode="&#xa7;" horiz-adv-x="1305" d="M157 -234l129 236q165 -101 327 -101q95 0 149.5 28.5t54.5 88.5q0 33 -18 61t-49.5 48.5t-73.5 41t-89.5 37.5t-97 39t-97 45t-89.5 56.5t-73.5 71.5t-49.5 91.5t-18 116.5q0 102 45 184.5t120 137.5q-57 51 -92 123.5t-35 160.5q0 182 124 290.5t327 108.5 q133 0 239.5 -26t173.5 -62l-7 -286q-105 52 -192.5 78t-179.5 26q-36 0 -65 -7.5t-49 -21t-31 -33.5t-11 -44q0 -35 19 -64.5t51.5 -51t76 -42.5t92 -38.5t100 -40t100 -46t92 -57t76 -73t51.5 -94.5t19 -120q0 -102 -53 -188t-137 -133q136 -114 136 -262 q0 -86 -27.5 -155.5t-76 -117t-116 -80t-145.5 -47.5t-168 -15q-143 0 -268.5 41t-193.5 95zM443 712q0 -21 7 -40t17 -35.5t28.5 -34t35 -30t44.5 -28.5t47.5 -26.5t53.5 -26t53.5 -23.5t56.5 -23.5t54 -23.5q77 55 77 133q0 23 -10 45t-25.5 40t-44 38t-53 34t-65 33.5 t-69 32t-75.5 33t-75 33.5q-29 -28 -43 -55.5t-14 -75.5z" />
<glyph unicode="&#xa8;" horiz-adv-x="900" d="M60 1365q0 69 49 118t116.5 49t115.5 -49t48 -118q0 -45 -22 -83.5t-59.5 -60.5t-81.5 -22q-68 0 -117 48.5t-49 117.5zM509 1365q0 69 48 118t116 49t116.5 -49t48.5 -118t-48.5 -117.5t-116.5 -48.5t-116 48.5t-48 117.5z" />
<glyph unicode="&#xa9;" horiz-adv-x="1718" d="M112 737q0 162 54.5 302t151 241t236 158.5t304.5 57.5t304.5 -57.5t236 -158.5t151 -241t54.5 -302t-54.5 -302t-151 -241t-236 -158.5t-304.5 -57.5t-304.5 57.5t-236 158.5t-151 241t-54.5 302zM295 737q0 -131 42 -242.5t116.5 -189.5t179 -121.5t225.5 -43.5 t225.5 43.5t179 121.5t116.5 189.5t42 242.5t-42 242.5t-116.5 189t-179 121t-225.5 43.5t-225.5 -43.5t-179 -121t-116.5 -189t-42 -242.5zM449 728q0 97 32 181.5t89 146.5t140 97.5t180 35.5q49 0 97.5 -8.5t80 -19.5t54.5 -24v-180q-104 62 -226 62q-74 0 -132 -35.5 t-90 -100t-32 -148.5q0 -130 68 -209t180 -79q105 0 196 53l62 -151q-129 -70 -271 -70q-191 0 -309.5 124t-118.5 325z" />
<glyph unicode="&#xaa;" horiz-adv-x="853" d="M63 286v189h730v-189h-730zM67 845q0 115 89.5 179t237.5 70l109 5v8q0 35 -33.5 53t-82.5 18q-106 0 -198 -45l-86 161q135 82 323 82q113 0 185 -30.5t106.5 -94.5t34.5 -165v-331q0 -91 16 -147h-205l-32 59q-85 -74 -202 -74q-114 0 -188 69t-74 183zM324 860 q0 -21 10.5 -36.5t31.5 -24t51 -8.5q24 0 48.5 6.5t37.5 15.5v118l-71 -3q-108 -3 -108 -68z" />
<glyph unicode="&#xab;" horiz-adv-x="1445" d="M67 543l391 473l245 -128l-264 -345l264 -345l-245 -129zM683 543l389 473l246 -128l-264 -345l264 -345l-246 -129z" />
<glyph unicode="&#xac;" horiz-adv-x="1281" d="M112 568v279h1057v-699h-315v420h-742z" />
<glyph unicode="&#xae;" horiz-adv-x="1283" d="M101 952.5q0 155.5 67.5 280.5t190.5 196t279 71q113 0 214 -41.5t173.5 -114t114.5 -174.5t42 -217.5t-42.5 -217.5t-115.5 -174t-173.5 -113.5t-212.5 -41.5q-156 0 -279 71t-190.5 195.5t-67.5 280zM236 952.5q0 -117.5 51 -214.5t143.5 -154t207.5 -57t207 57 t142.5 154t50.5 214.5t-50.5 214.5t-142.5 154t-207 57t-207.5 -57t-143.5 -154t-51 -214.5zM439 662v595h193q49 0 91 -11q38 -10 65.5 -33t41 -53t13.5 -66q0 -66 -42 -106.5t-98 -54.5v-2q26 -11 69 -80.5t105 -188.5h-149q-36 70 -52 99.5t-38.5 68.5t-34.5 52.5 t-20 13.5h-13v-234h-131zM570 998h25q47 0 78.5 20.5t31.5 60.5q0 56 -47 69q-27 8 -61 8h-27v-158z" />
<glyph unicode="&#xaf;" horiz-adv-x="900" d="M99 1273v252h701v-252h-701z" />
<glyph unicode="&#xb0;" horiz-adv-x="796" d="M45 1140q0 150 99 247.5t254 97.5t254.5 -97.5t99.5 -247.5t-101.5 -247.5t-256.5 -97.5t-252 97t-97 248zM264 1137.5q0 -63.5 38 -104t96.5 -40.5t97 40.5t38.5 104t-38.5 104t-97 40.5t-96.5 -40.5t-38 -104z" />
<glyph unicode="&#xb1;" horiz-adv-x="1281" d="M112 0v279h1057v-279h-1057zM112 653v280h370v275h316v-275h371v-280h-371v-275h-316v275h-370z" />
<glyph unicode="&#xb4;" horiz-adv-x="900" d="M286 1196l131 332h361l-235 -332h-257z" />
<glyph unicode="&#xb5;" horiz-adv-x="1373" d="M126 -534v1600h340v-608q0 -93 43.5 -143.5t118.5 -50.5q33 0 63 14t55 41t40.5 73t15.5 104v570h340v-664q0 -67 21.5 -92.5t70.5 -25.5q32 0 64 11l65 -270q-42 -20 -102 -31.5t-103 -11.5q-105 0 -177 52t-93 151h-5q-23 -57 -55 -98.5t-67.5 -64.5t-70.5 -33.5 t-73 -10.5q-103 0 -157 58h-5q11 -126 11 -290v-280h-340z" />
<glyph unicode="&#xb6;" horiz-adv-x="1457" d="M101 959q0 108 40 204.5t111 167.5t175 112.5t224 41.5h660v-1846h-264v1643h-185v-1643h-262v795q-112 12 -204.5 54.5t-157.5 110.5t-101 160.5t-36 199.5z" />
<glyph unicode="&#xb7;" horiz-adv-x="652" d="M146 561q0 31 9.5 59.5t26 51t39 39.5t49.5 26t57 9q75 0 127.5 -53.5t52.5 -131.5q0 -39 -14.5 -73.5t-38.5 -58.5t-57.5 -38.5t-69.5 -14.5q-75 0 -128 53.5t-53 131.5z" />
<glyph unicode="&#xb8;" horiz-adv-x="900" d="M183 -455l43 144q47 -16 103 -16q48 0 75.5 17t27.5 46q0 26 -21.5 41.5t-58.5 21t-98 5.5l62 196h241l-32 -103q96 -9 144.5 -48.5t48.5 -119.5q0 -43 -19.5 -79.5t-60 -65.5t-110.5 -45t-163 -16q-104 0 -182 22z" />
<glyph unicode="&#xba;" horiz-adv-x="909" d="M56 984.5q0 172.5 112 282t287.5 109.5t287 -109.5t111.5 -282t-111.5 -282t-287 -109.5t-287.5 109.5t-112 282zM67 286v189h776v-189h-776zM314 984q0 -53 15.5 -94.5t48 -65.5t77.5 -24t77.5 24t48.5 65.5t16 94.5q0 82 -37 133.5t-104.5 51.5t-104.5 -51.5 t-37 -133.5z" />
<glyph unicode="&#xbb;" horiz-adv-x="1445" d="M129 198l263 345l-263 345l245 128l389 -473l-389 -474zM744 198l262 345l-262 345l245 128l389 -473l-389 -474z" />
<glyph unicode="&#xbf;" horiz-adv-x="1096" d="M58 -88q0 61 24.5 116t63 95.5t85 77t93.5 67.5t85.5 60.5t62.5 62.5t24 67t-16 67l292 88q60 -81 60 -185q0 -53 -22 -100.5t-56.5 -82.5t-76.5 -67t-84 -59t-76.5 -52.5t-56 -54.5t-21.5 -59q0 -47 31.5 -72t94.5 -25q135 0 280 124l148 -216q-232 -194 -488 -194 q-111 0 -197.5 27t-140 74t-81.5 108.5t-28 132.5zM430 908q0 51 24.5 93.5t65.5 66.5t90 24q75 0 128 -53t53 -131.5t-53 -131.5t-127.5 -53t-127.5 53t-53 132z" />
<glyph unicode="&#xc0;" horiz-adv-x="1490" d="M4 0l584 1492h284l615 -1492h-369l-142 354h-482l-135 -354h-355zM404 1899h359l131 -331h-256zM591 628h281l-70 206q-44 130 -63 211h-4q-15 -68 -71 -213z" />
<glyph unicode="&#xc1;" horiz-adv-x="1490" d="M4 0l584 1492h284l615 -1492h-369l-142 354h-482l-135 -354h-355zM568 1568l130 331h361l-234 -331h-257zM591 628h281l-70 206q-44 130 -63 211h-4q-15 -68 -71 -213z" />
<glyph unicode="&#xc2;" horiz-adv-x="1490" d="M4 0l584 1492h284l615 -1492h-369l-142 354h-482l-135 -354h-355zM374 1568l226 331h258l230 -331h-259l-101 144l-98 -144h-256zM591 628h281l-70 206q-44 130 -63 211h-4q-15 -68 -71 -213z" />
<glyph unicode="&#xc3;" horiz-adv-x="1490" d="M4 0l584 1492h284l615 -1492h-369l-142 354h-482l-135 -354h-355zM351 1610v116q0 95 56 145.5t145 50.5q45 0 93.5 -14.5t82 -32t69 -32t57.5 -14.5q28 0 34 14.5t6 57.5v7h217v-115q0 -94 -56.5 -145t-144.5 -51q-45 0 -93.5 14.5t-82.5 32t-69 32t-57 14.5 q-28 0 -34 -14.5t-6 -57.5v-8h-217zM591 628h281l-70 206q-44 130 -63 211h-4q-15 -68 -71 -213z" />
<glyph unicode="&#xc4;" horiz-adv-x="1490" d="M4 0l584 1492h284l615 -1492h-369l-142 354h-482l-135 -354h-355zM342 1737q0 69 48.5 118t116.5 49t116 -49t48 -118t-48 -118t-116 -49t-116.5 49t-48.5 118zM591 628h281l-70 206q-44 130 -63 211h-4q-15 -68 -71 -213zM791 1737q0 69 48 118t116 49t116.5 -49 t48.5 -118t-48.5 -118t-116.5 -49t-116 49t-48 118z" />
<glyph unicode="&#xc5;" horiz-adv-x="1490" d="M4 0l577 1471q-43 18 -74 47t-47.5 68t-16.5 86q0 102 78.5 162t206.5 60t206 -60t78 -162q0 -68 -35.5 -118.5t-97.5 -78.5l608 -1475h-369l-142 354h-482l-135 -354h-355zM591 628h281l-70 206q-44 130 -63 211h-4q-15 -68 -71 -213zM649 1672q0 -22 5.5 -39t16 -28 t25 -17t32.5 -6q36 0 57 23.5t21 66.5t-21 66.5t-57 23.5q-24 0 -41.5 -10t-27.5 -30.5t-10 -49.5z" />
<glyph unicode="&#xc6;" horiz-adv-x="1956" d="M4 0l821 1485h1009l-88 -291h-538l52 -300h492v-290h-443l52 -314h468v-290h-763l-62 354h-447l-194 -354h-359zM712 628h249l-37 286q-13 104 -14 122h-2q-19 -48 -54 -122z" />
<glyph unicode="&#xc7;" horiz-adv-x="1470" d="M112 728q0 127 36.5 243.5t107.5 212.5t169 167t228 110t278 39q235 0 404 -70v-315q-189 99 -396 99q-93 0 -170 -25.5t-130 -70.5t-89.5 -106.5t-53 -131.5t-16.5 -147q0 -138 55 -244.5t158.5 -165.5t241.5 -59q108 0 195 28t179 82l95 -271q-213 -117 -482 -125 l-26 -81q64 -6 106 -24t65 -54t23 -90q0 -43 -19.5 -79.5t-60 -65.5t-110.5 -45t-163 -16q-104 0 -183 22l43 144q48 -16 104 -16q48 0 75.5 17t27.5 46q0 39 -43.5 53.5t-134.5 14.5l59 194q-185 35 -315.5 138.5t-194 253.5t-63.5 338z" />
<glyph unicode="&#xc8;" horiz-adv-x="1184" d="M169 0v1485h893l-88 -291h-460v-300h466v-290h-466v-314h543v-290h-888zM241 1899h361l131 -331h-258z" />
<glyph unicode="&#xc9;" horiz-adv-x="1184" d="M169 0v1485h893l-88 -291h-460v-300h466v-290h-466v-314h543v-290h-888zM439 1568l131 331h361l-235 -331h-257z" />
<glyph unicode="&#xca;" horiz-adv-x="1184" d="M169 0v1485h893l-88 -291h-460v-300h466v-290h-466v-314h543v-290h-888zM241 1568l225 331h259l230 -331h-259l-101 144l-97 -144h-257z" />
<glyph unicode="&#xcb;" horiz-adv-x="1184" d="M169 0v1485h893l-88 -291h-460v-300h466v-290h-466v-314h543v-290h-888zM219 1737q0 69 48 118t116 49t116.5 -49t48.5 -118t-48.5 -118t-116.5 -49t-116 49t-48 118zM667 1737q0 69 48.5 118t116 49t116 -49t48.5 -118t-48.5 -118t-116 -49t-116 49t-48.5 118z" />
<glyph unicode="&#xcc;" horiz-adv-x="682" d="M13 1899h361l131 -331h-257zM169 0v1485h345v-1485h-345z" />
<glyph unicode="&#xcd;" horiz-adv-x="682" d="M169 0v1485h345v-1485h-345zM169 1568l130 331h361l-234 -331h-257z" />
<glyph unicode="&#xce;" horiz-adv-x="682" d="M-15 1568l224 331h260l229 -331h-259l-101 144l-97 -144h-256zM169 0v1485h345v-1485h-345z" />
<glyph unicode="&#xcf;" horiz-adv-x="682" d="M-47 1737q0 69 48 118t115.5 49t116.5 -49t49 -118t-49 -118t-116.5 -49t-115.5 49t-48 118zM169 0v1485h345v-1485h-345zM402 1737q0 69 48 118t115.5 49t116 -49t48.5 -118t-48.5 -118t-116 -49t-115.5 49t-48 118z" />
<glyph unicode="&#xd0;" horiz-adv-x="1644" d="M18 617v277h151v591h536q193 0 348.5 -51t261 -145t161.5 -230t56 -304q0 -173 -64 -315.5t-178.5 -238.5t-273.5 -148.5t-347 -52.5h-500v617h-151zM514 290h164q100 0 182 24t138 65.5t94 99.5t55.5 124t17.5 141q0 216 -127.5 333t-366.5 117h-157v-300h318v-277h-318 v-327z" />
<glyph unicode="&#xd1;" horiz-adv-x="1736" d="M169 0v1485h345l576 -750q78 -99 133 -181h5q-5 77 -5 244v687h345v-1485h-320l-597 782q-27 34 -74.5 98t-64.5 87h-5q7 -50 7 -212v-755h-345zM486 1610v116q0 95 56 145.5t146 50.5q45 0 93.5 -14.5t82 -32t68.5 -32t57 -14.5q28 0 34.5 14.5t6.5 57.5v7h216v-115 q0 -94 -56.5 -145t-144.5 -51q-45 0 -93.5 14.5t-82 32t-69 32t-56.5 14.5q-29 0 -35 -14.5t-6 -57.5v-8h-217z" />
<glyph unicode="&#xd2;" horiz-adv-x="1756" d="M112 739q0 167 56.5 309t157 241.5t243 155t310.5 55.5t310.5 -55.5t242.5 -155t156 -241.5t56 -309t-56 -308.5t-156 -241t-242.5 -155.5t-310.5 -56t-310.5 56t-243 155.5t-157 241t-56.5 308.5zM480 739q0 -116 29 -207t82.5 -149.5t126 -88.5t161 -30t161.5 30 t126 88.5t82 149.5t29 207t-29 207t-82 149.5t-126 88.5t-161.5 30t-161 -30t-126 -88.5t-82.5 -149.5t-29 -207zM520 1899h361l131 -331h-257z" />
<glyph unicode="&#xd3;" horiz-adv-x="1756" d="M112 739q0 167 56.5 309t157 241.5t243 155t310.5 55.5t310.5 -55.5t242.5 -155t156 -241.5t56 -309t-56 -308.5t-156 -241t-242.5 -155.5t-310.5 -56t-310.5 56t-243 155.5t-157 241t-56.5 308.5zM480 739q0 -116 29 -207t82.5 -149.5t126 -88.5t161 -30t161.5 30 t126 88.5t82 149.5t29 207t-29 207t-82 149.5t-126 88.5t-161.5 30t-161 -30t-126 -88.5t-82.5 -149.5t-29 -207zM755 1568l131 331h360l-234 -331h-257z" />
<glyph unicode="&#xd4;" horiz-adv-x="1756" d="M112 739q0 167 56.5 309t157 241.5t243 155t310.5 55.5t310.5 -55.5t242.5 -155t156 -241.5t56 -309t-56 -308.5t-156 -241t-242.5 -155.5t-310.5 -56t-310.5 56t-243 155.5t-157 241t-56.5 308.5zM480 739q0 -116 29 -207t82.5 -149.5t126 -88.5t161 -30t161.5 30 t126 88.5t82 149.5t29 207t-29 207t-82 149.5t-126 88.5t-161.5 30t-161 -30t-126 -88.5t-82.5 -149.5t-29 -207zM522 1568l226 331h258l230 -331h-258l-101 144l-97 -144h-258z" />
<glyph unicode="&#xd5;" horiz-adv-x="1756" d="M112 739q0 167 56.5 309t157 241.5t243 155t310.5 55.5t310.5 -55.5t242.5 -155t156 -241.5t56 -309t-56 -308.5t-156 -241t-242.5 -155.5t-310.5 -56t-310.5 56t-243 155.5t-157 241t-56.5 308.5zM480 739q0 -116 29 -207t82.5 -149.5t126 -88.5t161 -30t161.5 30 t126 88.5t82 149.5t29 207t-29 207t-82 149.5t-126 88.5t-161.5 30t-161 -30t-126 -88.5t-82.5 -149.5t-29 -207zM500 1610v116q0 64 26.5 108.5t71 66t103.5 21.5q45 0 93.5 -14.5t82 -32t68.5 -32t57 -14.5q28 0 34.5 14.5t6.5 57.5v7h217v-115q0 -94 -56 -145t-145 -51 q-45 0 -93.5 14.5t-82.5 32t-69.5 32t-56.5 14.5q-29 0 -35 -14.5t-6 -57.5v-8h-216z" />
<glyph unicode="&#xd6;" horiz-adv-x="1756" d="M112 739q0 167 56.5 309t157 241.5t243 155t310.5 55.5t310.5 -55.5t242.5 -155t156 -241.5t56 -309t-56 -308.5t-156 -241t-242.5 -155.5t-310.5 -56t-310.5 56t-243 155.5t-157 241t-56.5 308.5zM480 739q0 -116 29 -207t82.5 -149.5t126 -88.5t161 -30t161.5 30 t126 88.5t82 149.5t29 207t-29 207t-82 149.5t-126 88.5t-161.5 30t-161 -30t-126 -88.5t-82.5 -149.5t-29 -207zM496 1737q0 69 48 118t116 49t116.5 -49t48.5 -118t-48.5 -118t-116.5 -49t-116 49t-48 118zM944 1737q0 69 48.5 118t116.5 49t116 -49t48 -118t-48 -118 t-116 -49q-45 0 -83 22t-60 61t-22 84z" />
<glyph unicode="&#xd8;" horiz-adv-x="1778" d="M124 739q0 167 56.5 309t156.5 241.5t242.5 155t310.5 55.5q187 0 351 -74l117 156l207 -154l-114 -151q98 -101 151.5 -238.5t53.5 -299.5q0 -167 -56.5 -308.5t-156.5 -241t-242.5 -155.5t-310.5 -56q-203 0 -365 76l-119 -157l-208 153l120 157q-94 101 -144 236 t-50 296zM482 739q0 -146 47 -253l530 699q-80 34 -169 34q-59 0 -112 -14t-98 -40.5t-82 -67.5t-62.5 -93t-39.5 -119.5t-14 -145.5zM710 297q73 -37 180 -37q70 0 132 19t112.5 58.5t87 96t56.5 134.5t20 171q0 158 -55 263z" />
<glyph unicode="&#xd9;" horiz-adv-x="1634" d="M157 568v917h346v-897q0 -119 45 -194q78 -130 269 -130q193 0 271 130q45 75 45 194v897h344v-917q0 -196 -71 -323q-150 -267 -589 -267q-438 0 -587 267q-73 129 -73 323zM473 1899h361l131 -331h-258z" />
<glyph unicode="&#xda;" horiz-adv-x="1634" d="M157 568v917h346v-897q0 -119 45 -194q78 -130 269 -130q193 0 271 130q45 75 45 194v897h344v-917q0 -196 -71 -323q-150 -267 -589 -267q-438 0 -587 267q-73 129 -73 323zM673 1568l131 331h361l-234 -331h-258z" />
<glyph unicode="&#xdb;" horiz-adv-x="1634" d="M157 568v917h346v-897q0 -119 45 -194q78 -130 269 -130q193 0 271 130q45 75 45 194v897h344v-917q0 -196 -71 -323q-150 -267 -589 -267q-438 0 -587 267q-73 129 -73 323zM464 1568l226 331h258l230 -331h-258l-103 144l-97 -144h-256z" />
<glyph unicode="&#xdc;" horiz-adv-x="1634" d="M157 568v917h346v-897q0 -119 45 -194q78 -130 269 -130q193 0 271 130q45 75 45 194v897h344v-917q0 -196 -71 -323q-150 -267 -589 -267q-438 0 -587 267q-73 129 -73 323zM437 1737q0 69 48.5 118t116 49t116 -49t48.5 -118t-48.5 -118t-115.5 -49q-45 0 -83 22 t-60 61t-22 84zM886 1737q0 69 48 118t115.5 49t116 -49t48.5 -118t-48.5 -118t-116 -49t-115.5 49t-48 118z" />
<glyph unicode="&#xdd;" horiz-adv-x="1395" d="M4 1485h372l320 -606h5l322 606h370l-526 -904v-581h-345v585zM536 1568l131 331h360l-234 -331h-257z" />
<glyph unicode="&#xde;" horiz-adv-x="1294" d="M169 0v1485h345v-232h69q208 0 341 -62q126 -58 192 -168t66 -268q0 -69 -15.5 -132t-49.5 -124.5t-96 -112.5t-147 -82q-133 -50 -322 -50h-38v-254h-345zM514 531h58q91 0 146 26q107 50 107 198q0 39 -11 74t-34 65t-57 50q-56 32 -158 32h-51v-445z" />
<glyph unicode="&#xdf;" horiz-adv-x="1452" d="M108 -318v1361q0 95 18.5 175t49.5 136t75 99t91 69.5t101.5 43.5t103.5 23t100 6q88 0 168 -19.5t151.5 -63t123 -107.5t81.5 -158.5t30 -210.5q0 -40 -2 -60q-197 -47 -197 -147q0 -30 21 -57t55 -49.5t75 -46.5t82 -55t75 -68.5t55 -93.5t21 -123q0 -78 -27 -140 t-71 -102t-104 -66.5t-123 -38t-130 -11.5q-122 0 -223.5 29.5t-166.5 69.5l104 243q134 -81 269 -81q35 0 65.5 7t52.5 26.5t22 47.5t-21 53t-55 47t-75 45.5t-81.5 53.5t-74.5 64.5t-55 85.5t-21 111q0 107 52 177.5t144 119.5q0 49 -12.5 92.5t-37.5 79.5t-67 57t-97 21 q-204 0 -204 -237v-1408h-341z" />
<glyph unicode="&#xe0;" horiz-adv-x="1155" d="M67 327q0 104 46 174t132 116q112 59 282 66l169 7v11q0 139 -187 139q-68 0 -140.5 -17t-129.5 -47l-106 213q209 103 439 103q241 0 352.5 -102.5t111.5 -301.5v-479q0 -151 18 -209h-278l-48 90q-130 -112 -298 -112q-157 0 -260 98t-103 251zM254 1528h361l131 -332 h-258zM408 349q0 -55 35 -82.5t98 -27.5q92 0 155 38v198l-115 -4q-81 -4 -126 -30q-47 -29 -47 -92z" />
<glyph unicode="&#xe1;" horiz-adv-x="1155" d="M67 327q0 104 46 174t132 116q112 59 282 66l169 7v11q0 139 -187 139q-68 0 -140.5 -17t-129.5 -47l-106 213q209 103 439 103q241 0 352.5 -102.5t111.5 -301.5v-479q0 -151 18 -209h-278l-48 90q-130 -112 -298 -112q-157 0 -260 98t-103 251zM408 349q0 -55 35 -82.5 t98 -27.5q92 0 155 38v198l-115 -4q-81 -4 -126 -30q-47 -29 -47 -92zM419 1196l131 332h360l-235 -332h-256z" />
<glyph unicode="&#xe2;" horiz-adv-x="1155" d="M67 327q0 104 46 174t132 116q112 59 282 66l169 7v11q0 139 -187 139q-68 0 -140.5 -17t-129.5 -47l-106 213q209 103 439 103q241 0 352.5 -102.5t111.5 -301.5v-479q0 -151 18 -209h-278l-48 90q-130 -112 -298 -112q-157 0 -260 98t-103 251zM226 1196l225 332h259 l229 -332h-259l-101 145l-97 -145h-256zM408 349q0 -55 35 -82.5t98 -27.5q92 0 155 38v198l-115 -4q-81 -4 -126 -30q-47 -29 -47 -92z" />
<glyph unicode="&#xe3;" horiz-adv-x="1155" d="M67 327q0 104 46 174t132 116q112 59 282 66l169 7v11q0 139 -187 139q-68 0 -140.5 -17t-129.5 -47l-106 213q209 103 439 103q241 0 352.5 -102.5t111.5 -301.5v-479q0 -151 18 -209h-278l-48 90q-130 -112 -298 -112q-157 0 -260 98t-103 251zM202 1221v114 q0 95 56 146t146 51q45 0 93.5 -14.5t82 -31.5t68.5 -31.5t57 -14.5q28 0 34.5 13.5t6.5 56.5v8h215v-114q0 -95 -56 -145.5t-144 -50.5q-45 0 -93.5 14.5t-82 31.5t-69 31.5t-56.5 14.5q-29 0 -35 -14t-6 -57v-8h-217zM408 349q0 -55 35 -82.5t98 -27.5q92 0 155 38v198 l-115 -4q-81 -4 -126 -30q-47 -29 -47 -92z" />
<glyph unicode="&#xe4;" horiz-adv-x="1155" d="M67 327q0 104 46 174t132 116q112 59 282 66l169 7v11q0 139 -187 139q-68 0 -140.5 -17t-129.5 -47l-106 213q209 103 439 103q241 0 352.5 -102.5t111.5 -301.5v-479q0 -151 18 -209h-278l-48 90q-130 -112 -298 -112q-157 0 -260 98t-103 251zM194 1365q0 69 48.5 118 t116 49t115.5 -49t48 -118t-48 -117.5t-115.5 -48.5t-116 48.5t-48.5 117.5zM408 349q0 -55 35 -82.5t98 -27.5q92 0 155 38v198l-115 -4q-81 -4 -126 -30q-47 -29 -47 -92zM642 1365q0 69 48.5 118t116 49t116 -49t48.5 -118t-48.5 -117.5t-116.5 -48.5t-116 48.5 t-48 117.5z" />
<glyph unicode="&#xe5;" horiz-adv-x="1155" d="M67 327q0 104 46 174t132 116q112 59 282 66l169 7v11q0 139 -187 139q-68 0 -140.5 -17t-129.5 -47l-106 213q209 103 439 103q241 0 352.5 -102.5t111.5 -301.5v-479q0 -151 18 -209h-278l-48 90q-130 -112 -298 -112q-157 0 -260 98t-103 251zM299 1399q0 68 35.5 119 t100 77.5t148.5 26.5t148.5 -26.5t100 -77.5t35.5 -119t-35.5 -118.5t-100 -77.5t-148.5 -27q-128 0 -206 60.5t-78 162.5zM408 349q0 -55 35 -82.5t98 -27.5q92 0 155 38v198l-115 -4q-81 -4 -126 -30q-47 -29 -47 -92zM505 1399q0 -43 21 -66.5t57 -23.5q24 0 41.5 10.5 t27.5 31t10 48.5q0 22 -5.5 39t-16 28t-25 17t-32.5 6q-36 0 -57 -23.5t-21 -66.5z" />
<glyph unicode="&#xe6;" horiz-adv-x="1797" d="M67 327q0 76 26.5 136.5t70 98t104.5 62.5t125 35t136 10h189v32q0 70 -55.5 104.5t-146.5 34.5q-73 0 -146.5 -17t-130.5 -47l-106 213q209 103 432 103q240 0 336 -146h4q128 146 341 146q221 0 350.5 -152t129.5 -431v-66h-669q3 -71 37.5 -117.5t89.5 -66.5t129 -20 q148 0 275 72l99 -230q-169 -103 -401 -103q-280 0 -426 153q-153 -153 -398 -153q-181 0 -288 94t-107 255zM408 344q0 -53 37 -79t98 -26q63 0 121 22t93 48q-19 52 -27 134h-182q-140 0 -140 -99zM1054 669h332q-6 74 -47 122.5t-122 48.5q-77 0 -118.5 -49t-44.5 -122z " />
<glyph unicode="&#xe7;" horiz-adv-x="1042" d="M69 527q0 72 16.5 139.5t46 123.5t71 104t92.5 84.5t109 62t122 38.5t130 13q187 0 303 -78v-281q-121 92 -263 92q-129 0 -204 -84t-75 -212q0 -136 72 -210t194 -74q64 0 120.5 18t122.5 55l95 -230q-61 -46 -160.5 -77t-177.5 -31l-25 -83q96 -9 144.5 -48.5 t48.5 -119.5q0 -91 -86 -148.5t-267 -57.5q-103 0 -182 22l43 144q47 -16 103 -16q48 0 75.5 17t27.5 46q0 26 -21.5 41.5t-58.5 21t-98 5.5l62 196q-181 50 -280.5 191t-99.5 336z" />
<glyph unicode="&#xe8;" horiz-adv-x="1157" d="M75 520q0 122 32.5 225t95 181t160 122t220.5 44q239 0 373 -155t134 -428v-79h-675q4 -94 76.5 -142.5t186.5 -48.5q147 0 275 72l99 -230q-170 -103 -401 -103q-103 0 -189.5 21t-148.5 59t-108.5 88.5t-74.5 112t-41.5 126.5t-13.5 135zM262 1528h360l130 -332h-256z M410 656h340q-1 36 -11 68t-29.5 58.5t-54 42t-79.5 15.5q-79 0 -122.5 -54t-43.5 -130z" />
<glyph unicode="&#xe9;" horiz-adv-x="1157" d="M75 520q0 122 32.5 225t95 181t160 122t220.5 44q239 0 373 -155t134 -428v-79h-675q4 -94 76.5 -142.5t186.5 -48.5q147 0 275 72l99 -230q-170 -103 -401 -103q-103 0 -189.5 21t-148.5 59t-108.5 88.5t-74.5 112t-41.5 126.5t-13.5 135zM410 656h340q-1 36 -11 68 t-29.5 58.5t-54 42t-79.5 15.5q-79 0 -122.5 -54t-43.5 -130zM426 1196l131 332h360l-234 -332h-257z" />
<glyph unicode="&#xea;" horiz-adv-x="1157" d="M75 520q0 122 32.5 225t95 181t160 122t220.5 44q239 0 373 -155t134 -428v-79h-675q4 -94 76.5 -142.5t186.5 -48.5q147 0 275 72l99 -230q-170 -103 -401 -103q-103 0 -189.5 21t-148.5 59t-108.5 88.5t-74.5 112t-41.5 126.5t-13.5 135zM232 1196l226 332h258 l230 -332h-258l-103 145l-97 -145h-256zM410 656h340q-1 36 -11 68t-29.5 58.5t-54 42t-79.5 15.5q-79 0 -122.5 -54t-43.5 -130z" />
<glyph unicode="&#xeb;" horiz-adv-x="1157" d="M75 520q0 122 32.5 225t95 181t160 122t220.5 44q239 0 373 -155t134 -428v-79h-675q4 -94 76.5 -142.5t186.5 -48.5q147 0 275 72l99 -230q-170 -103 -401 -103q-103 0 -189.5 21t-148.5 59t-108.5 88.5t-74.5 112t-41.5 126.5t-13.5 135zM200 1365q0 69 48.5 118 t116.5 49t116 -49t48 -118t-48 -117.5t-116 -48.5t-116.5 48.5t-48.5 117.5zM410 656h340q-1 36 -11 68t-29.5 58.5t-54 42t-79.5 15.5q-79 0 -122.5 -54t-43.5 -130zM649 1365q0 69 48 118t116 49t116.5 -49t48.5 -118t-48.5 -117.5t-116.5 -48.5t-116 48.5t-48 117.5z" />
<glyph unicode="&#xec;" horiz-adv-x="555" d="M-50 1528h361l130 -332h-256zM108 0v1066h341v-1066h-341z" />
<glyph unicode="&#xed;" horiz-adv-x="555" d="M108 0v1066h341v-1066h-341zM114 1196l131 332h361l-234 -332h-258z" />
<glyph unicode="&#xee;" horiz-adv-x="555" d="M-79 1196l225 332h260l230 -332h-260l-101 145l-97 -145h-257zM108 0v1066h341v-1066h-341z" />
<glyph unicode="&#xef;" horiz-adv-x="555" d="M-110 1365q0 69 48 118t116 49t116.5 -49t48.5 -118t-48.5 -117.5t-116.5 -48.5t-116 48.5t-48 117.5zM108 0v1066h341v-1066h-341zM338 1365q0 69 48.5 118t116 49t116 -49t48.5 -118t-48 -117.5t-116 -48.5t-116.5 48.5t-48.5 117.5z" />
<glyph unicode="&#xf0;" horiz-adv-x="1272" d="M69 514q0 166 56.5 289.5t168.5 193t267 69.5q107 0 197 -40t147 -98h5q-58 217 -237 308l-314 -146l-66 138l176 74q-37 9 -116 15.5t-151 6.5l64 271q319 0 534 -127l270 127l65 -137l-200 -88q254 -249 254 -703q0 -112 -16.5 -206.5t-45.5 -164t-71 -124.5t-90.5 -91 t-106.5 -59.5t-116.5 -33.5t-123.5 -10q-159 0 -284 66t-195.5 188.5t-70.5 281.5zM417 518q0 -132 55.5 -203.5t159.5 -71.5q74 0 122 35t69.5 95t21.5 145q0 132 -58.5 207t-162.5 75q-45 0 -80 -13.5t-58.5 -38t-39 -60t-22.5 -77.5t-7 -93z" />
<glyph unicode="&#xf1;" horiz-adv-x="1256" d="M108 0v1066h290l34 -109q175 135 359 135q357 0 357 -396v-696h-340v595q0 37 -2.5 64t-11.5 55t-24 45.5t-42 29t-64 11.5q-52 0 -110.5 -21.5t-104.5 -58.5v-720h-341zM223 1221v114q0 95 55.5 146t145.5 51q45 0 93.5 -14.5t82 -31.5t68.5 -31.5t57 -14.5q32 0 38 23 q3 11 3 55h216v-114q0 -95 -56 -145.5t-144 -50.5q-45 0 -93.5 14.5t-82.5 31.5t-69.5 31.5t-56.5 14.5q-29 0 -35 -14t-6 -57v-8h-216z" />
<glyph unicode="&#xf2;" d="M69 536q0 96 26.5 182t76 154t118 117.5t155.5 76t185 26.5q123 0 227.5 -41.5t178 -114.5t114.5 -176.5t41 -223.5q0 -97 -26 -183t-76 -154t-118 -118t-155.5 -76.5t-185.5 -26.5q-122 0 -226.5 41.5t-178 115t-115 177t-41.5 224.5zM301 1528h361l131 -332h-257z M417 535.5q0 -85.5 21.5 -149t70 -102.5t121.5 -39q55 0 97 22t67.5 62t38 91.5t12.5 115.5q0 85 -21.5 148.5t-71 102t-122.5 38.5t-121.5 -38.5t-70 -102t-21.5 -149z" />
<glyph unicode="&#xf3;" d="M69 536q0 96 26.5 182t76 154t118 117.5t155.5 76t185 26.5q123 0 227.5 -41.5t178 -114.5t114.5 -176.5t41 -223.5q0 -97 -26 -183t-76 -154t-118 -118t-155.5 -76.5t-185.5 -26.5q-122 0 -226.5 41.5t-178 115t-115 177t-41.5 224.5zM417 535.5q0 -85.5 21.5 -149 t70 -102.5t121.5 -39q55 0 97 22t67.5 62t38 91.5t12.5 115.5q0 85 -21.5 148.5t-71 102t-122.5 38.5t-121.5 -38.5t-70 -102t-21.5 -149zM466 1196l131 332h360l-234 -332h-257z" />
<glyph unicode="&#xf4;" d="M69 536q0 96 26.5 182t76 154t118 117.5t155.5 76t185 26.5q123 0 227.5 -41.5t178 -114.5t114.5 -176.5t41 -223.5q0 -97 -26 -183t-76 -154t-118 -118t-155.5 -76.5t-185.5 -26.5q-122 0 -226.5 41.5t-178 115t-115 177t-41.5 224.5zM273 1196l225 332h259l230 -332 h-259l-102 145l-97 -145h-256zM417 535.5q0 -85.5 21.5 -149t70 -102.5t121.5 -39q55 0 97 22t67.5 62t38 91.5t12.5 115.5q0 85 -21.5 148.5t-71 102t-122.5 38.5t-121.5 -38.5t-70 -102t-21.5 -149z" />
<glyph unicode="&#xf5;" d="M69 536q0 96 26.5 182t76 154t118 117.5t155.5 76t185 26.5q123 0 227.5 -41.5t178 -114.5t114.5 -176.5t41 -223.5q0 -97 -26 -183t-76 -154t-118 -118t-155.5 -76.5t-185.5 -26.5q-122 0 -226.5 41.5t-178 115t-115 177t-41.5 224.5zM250 1221v114q0 95 56 146t145 51 q45 0 93.5 -14.5t82 -31.5t69 -31.5t56.5 -14.5q33 0 38 23q3 11 3 55h217v-114q0 -95 -56.5 -145.5t-145.5 -50.5q-45 0 -93.5 14.5t-82 31.5t-68.5 31.5t-57 14.5q-28 0 -34.5 -14t-6.5 -57v-8h-216zM417 535.5q0 -85.5 21.5 -149t70 -102.5t121.5 -39q55 0 97 22t67.5 62 t38 91.5t12.5 115.5q0 85 -21.5 148.5t-71 102t-122.5 38.5t-121.5 -38.5t-70 -102t-21.5 -149z" />
<glyph unicode="&#xf6;" d="M69 536q0 96 26.5 182t76 154t118 117.5t155.5 76t185 26.5q123 0 227.5 -41.5t178 -114.5t114.5 -176.5t41 -223.5q0 -97 -26 -183t-76 -154t-118 -118t-155.5 -76.5t-185.5 -26.5q-122 0 -226.5 41.5t-178 115t-115 177t-41.5 224.5zM241 1365q0 69 48.5 118t116.5 49 t116 -49t48 -118t-48 -117.5t-116 -48.5t-116.5 48.5t-48.5 117.5zM417 535.5q0 -85.5 21.5 -149t70 -102.5t121.5 -39q55 0 97 22t67.5 62t38 91.5t12.5 115.5q0 85 -21.5 148.5t-71 102t-122.5 38.5t-121.5 -38.5t-70 -102t-21.5 -149zM690 1365q0 69 48 118t115.5 49 t116.5 -49t49 -118t-48.5 -117.5t-116.5 -48.5t-116 48.5t-48 117.5z" />
<glyph unicode="&#xf7;" horiz-adv-x="1281" d="M112 419v279h1057v-279h-1057zM491 167q0 70 46.5 117t113.5 47t113.5 -47t46.5 -117q0 -69 -46.5 -116t-113 -47t-113.5 47t-47 116zM491 948q0 70 46.5 117.5t113.5 47.5t113.5 -47t46.5 -118q0 -69 -46.5 -115.5t-113.5 -46.5q-43 0 -80 21t-58.5 58.5t-21.5 82.5z " />
<glyph unicode="&#xf8;" d="M69 536q0 96 26.5 182t76 154t118 117.5t155.5 76t185 26.5q146 0 271 -60l77 101l131 -97l-75 -99q75 -75 116 -178t41 -223q0 -97 -26 -183t-76 -154t-118 -118t-155.5 -76.5t-185.5 -26.5q-152 0 -274 63l-83 -114l-131 98l84 110q-76 75 -116.5 178t-40.5 223z M408 536q0 -80 18 -134l304 404q-45 26 -100 26t-98 -23t-69.5 -63.5t-40.5 -93.5t-14 -116zM527 266q46 -27 103 -27q73 0 124.5 40.5t75.5 106t24 150.5q0 76 -20 137z" />
<glyph unicode="&#xf9;" horiz-adv-x="1249" d="M108 437v629h341v-608q0 -71 22 -114q44 -80 151 -80q97 0 162 58v744h340v-870q0 -138 18 -196h-286l-48 101q-137 -123 -314 -123q-44 0 -88 9.5t-93.5 31.5t-93 67t-71.5 108q-40 93 -40 243zM295 1528h361l130 -332h-257z" />
<glyph unicode="&#xfa;" horiz-adv-x="1249" d="M108 437v629h341v-608q0 -71 22 -114q44 -80 151 -80q97 0 162 58v744h340v-870q0 -138 18 -196h-286l-48 101q-137 -123 -314 -123q-44 0 -88 9.5t-93.5 31.5t-93 67t-71.5 108q-40 93 -40 243zM460 1196l131 332h359l-234 -332h-256z" />
<glyph unicode="&#xfb;" horiz-adv-x="1249" d="M108 437v629h341v-608q0 -71 22 -114q44 -80 151 -80q97 0 162 58v744h340v-870q0 -138 18 -196h-286l-48 101q-137 -123 -314 -123q-44 0 -88 9.5t-93.5 31.5t-93 67t-71.5 108q-40 93 -40 243zM266 1196l225 332h259l230 -332h-260l-101 145l-97 -145h-256z" />
<glyph unicode="&#xfc;" horiz-adv-x="1249" d="M108 437v629h341v-608q0 -71 22 -114q44 -80 151 -80q97 0 162 58v744h340v-870q0 -138 18 -196h-286l-48 101q-137 -123 -314 -123q-44 0 -88 9.5t-93.5 31.5t-93 67t-71.5 108q-40 93 -40 243zM234 1365q0 69 48 118t116 49t116.5 -49t48.5 -118t-48.5 -117.5 t-116.5 -48.5t-116 48.5t-48 117.5zM683 1365q0 69 48 118t116 49t116.5 -49t48.5 -118t-48.5 -117.5t-116.5 -48.5t-116 48.5t-48 117.5z" />
<glyph unicode="&#xfd;" horiz-adv-x="1247" d="M-22 -475l85 261q89 -48 169 -48q42 0 76 13t68 44.5t65.5 86.5t61.5 136l-490 1048h361l284 -677h4l232 677h349l-414 -1066q-39 -101 -80 -180.5t-79.5 -135t-82 -95.5t-81.5 -63.5t-84 -37t-84.5 -18t-87.5 -4.5q-145 0 -272 59zM482 1196l131 332h361l-235 -332h-257 z" />
<glyph unicode="&#xfe;" horiz-adv-x="1245" d="M124 -534v2129h340v-516q83 13 149 13q136 0 244 -40.5t177 -112.5t105.5 -170t36.5 -215q0 -118 -38 -222t-109 -183t-180.5 -125t-244.5 -46q-70 0 -140 15v-527h-340zM464 271q55 -17 117 -17q123 0 185.5 76t62.5 208q0 135 -71.5 206t-203.5 71q-53 0 -90 -11v-533z " />
<glyph unicode="&#xff;" horiz-adv-x="1247" d="M-22 -475l85 261q89 -48 169 -48q42 0 76 13t68 44.5t65.5 86.5t61.5 136l-490 1048h361l284 -677h4l232 677h349l-414 -1066q-39 -101 -80 -180.5t-79.5 -135t-82 -95.5t-81.5 -63.5t-84 -37t-84.5 -18t-87.5 -4.5q-145 0 -272 59zM256 1365q0 69 48.5 118t116.5 49 t116 -49t48 -118t-48 -117.5t-116 -48.5t-116.5 48.5t-48.5 117.5zM705 1365q0 69 48.5 118t116.5 49t116 -49t48 -118t-48 -117.5t-116 -48.5t-116.5 48.5t-48.5 117.5z" />
<glyph unicode="&#x131;" horiz-adv-x="555" d="M108 0v1066h341v-1066h-341z" />
<glyph unicode="&#x152;" horiz-adv-x="2137" d="M124 728q0 192 69 351t201 264q201 157 500 157q55 0 223.5 -7.5t333.5 -7.5h563l-88 -291h-460v-300h467v-290h-467v-314h544v-290h-609q-113 0 -279.5 -11t-240.5 -11q-152 0 -285 42.5t-233 125.5q-239 203 -239 582zM491 737q0 -253 133 -376q107 -97 279 -97 q127 0 219 26v884q-26 9 -59 16.5t-65.5 13t-63.5 8t-55 2.5q-182 0 -282 -122q-106 -133 -106 -355z" />
<glyph unicode="&#x153;" horiz-adv-x="1937" d="M69 536q0 120 41 223.5t112.5 176.5t172 114.5t215.5 41.5q254 0 394 -178h6q132 178 357 178q109 0 201 -40.5t158.5 -114.5t104 -184t37.5 -244v-79h-677q5 -94 78 -142.5t186 -48.5q148 0 275 72l99 -230q-170 -103 -401 -103q-274 0 -418 175h-6q-137 -175 -382 -175 q-120 0 -222.5 42t-175 115t-114 177t-41.5 224zM417 536q0 -86 21.5 -150t70.5 -103.5t121.5 -39.5t122 39.5t71 103.5t21.5 150q0 63 -12.5 115t-38 92t-67.5 62t-97 22t-96.5 -22t-66.5 -62t-37.5 -92t-12.5 -115zM1187 656h341q-1 36 -11 68t-30 58.5t-54 42t-79 15.5 q-80 0 -123.5 -54t-43.5 -130z" />
<glyph unicode="&#x178;" horiz-adv-x="1395" d="M4 1485h372l320 -606h5l322 606h370l-526 -904v-581h-345v585zM311 1737q0 69 48 118t116 49t116.5 -49t48.5 -118t-48.5 -118t-116.5 -49t-116 49t-48 118zM759 1737q0 69 48.5 118t116.5 49t116 -49t48 -118t-48 -118t-116 -49q-44 0 -82 22t-60.5 61t-22.5 84z" />
<glyph unicode="&#x192;" d="M-122 -304l129 272q84 -49 171 -49q86 0 131 53q41 48 47 134l50 536h-219v261h243l17 201q16 220 121 342q124 149 365 149q181 0 335 -79l-128 -273q-87 51 -171 51q-85 0 -131 -55q-41 -48 -47 -132l-19 -204h287l-77 -261h-234l-47 -534q-20 -222 -122 -342 q-125 -149 -365 -149q-182 0 -336 79z" />
<glyph unicode="&#x2c6;" horiz-adv-x="900" d="M92 1196l226 332h258l230 -332h-258l-101 145l-98 -145h-257z" />
<glyph unicode="&#x2c7;" horiz-adv-x="900" d="M92 1528h259l102 -145l97 145h256l-225 -332h-259z" />
<glyph unicode="&#x2d8;" horiz-adv-x="900" d="M88 1554h230q5 -65 40.5 -103.5t92.5 -38.5t92 38.5t40 103.5h230q-10 -160 -109 -251t-253 -91t-253.5 91t-109.5 251z" />
<glyph unicode="&#x2d9;" horiz-adv-x="900" d="M248 1388q0 80 59 137t144 57q56 0 102.5 -25.5t73 -70t26.5 -98.5q0 -80 -58.5 -138.5t-143.5 -58.5q-86 0 -144.5 57.5t-58.5 139.5z" />
<glyph unicode="&#x2da;" horiz-adv-x="900" d="M167 1399q0 68 35.5 119t100 77.5t148.5 26.5t148.5 -26.5t100 -77.5t35.5 -119t-35.5 -118.5t-100 -77.5t-148.5 -27q-128 0 -206 60.5t-78 162.5zM372 1399q0 -43 21.5 -66.5t57.5 -23.5t57 23.5t21 66.5t-21 66.5t-57 23.5t-57.5 -23.5t-21.5 -66.5z" />
<glyph unicode="&#x2db;" horiz-adv-x="900" d="M205 -286q0 48 18.5 93.5t53 84.5t74.5 72t92 66l253 -30q-102 -47 -159 -107t-57 -121q0 -69 72 -69q33 0 80 13l35 -171q-100 -29 -205 -29q-122 0 -189.5 52t-67.5 146z" />
<glyph unicode="&#x2dc;" horiz-adv-x="900" d="M69 1221v114q0 95 56 146t146 51q45 0 93.5 -14.5t82 -31.5t68.5 -31.5t57 -14.5q28 0 34.5 13.5t6.5 56.5v8h216v-114q0 -64 -27 -109t-72 -66t-102 -21q-45 0 -93.5 14.5t-82 31.5t-69 31.5t-56.5 14.5q-29 0 -35 -14t-6 -57v-8h-217z" />
<glyph unicode="&#x2dd;" horiz-adv-x="900" d="M146 1196l131 332h361l-234 -332h-258zM557 1196l131 332h359l-234 -332h-256z" />
<glyph unicode="&#x3a9;" horiz-adv-x="1716" d="M101 0v290h77q25 0 47 -1.5t37 -3t34 -5.5t26.5 -6t26 -7.5t23.5 -6.5l2 6q-118 101 -189 238t-71 296q0 113 31 217t93.5 192t150 153t208.5 101.5t261 36.5q117 0 221 -25.5t185 -72t145.5 -111t106.5 -142.5t64 -166.5t22 -182.5q0 -159 -70.5 -296t-188.5 -238l2 -6 q5 1 23.5 6.5t26 7.5t26.5 6t34 5.5t37.5 3t46.5 1.5h76v-290h-635v228q136 130 195 255.5t59 298.5q0 200 -102 316t-274 116t-274 -116t-102 -316q0 -88 14.5 -162t47 -140.5t79 -126.5t114.5 -125v-228h-636z" />
<glyph unicode="&#x3c0;" horiz-adv-x="1540" d="M45 804v262h1453l-77 -262h-207v-437q0 -31 8.5 -50t23.5 -26t40 -7q32 0 64 11l65 -270q-104 -43 -226 -43q-104 0 -173.5 33t-105.5 101.5t-36 173.5v514h-281v-804h-341v804h-207z" />
<glyph unicode="&#x400;" horiz-adv-x="1184" d="M169 0v1485h893l-88 -291h-460v-300h466v-290h-466v-314h543v-290h-888zM241 1899h361l131 -331h-258z" />
<glyph unicode="&#x401;" horiz-adv-x="1184" d="M169 0v1485h893l-88 -291h-460v-300h466v-290h-466v-314h543v-290h-888zM219 1737q0 69 48 118t116 49t116.5 -49t48.5 -118t-48.5 -118t-116.5 -49t-116 49t-48 118zM667 1737q0 69 48.5 118t116 49t116 -49t48.5 -118t-48.5 -118t-116 -49t-116 49t-48.5 118z" />
<glyph unicode="&#x402;" horiz-adv-x="1698" d="M22 1208v277h1343l-83 -277h-480v-294q94 8 159 8q108 0 197.5 -14t155 -38.5t117 -60.5t84.5 -77.5t54.5 -91.5t30 -100.5t8.5 -107.5q0 -74 -18.5 -141t-56 -123.5t-91 -97.5t-127.5 -64.5t-161 -23.5q-126 0 -219 33l67 269q54 -18 102 -18q75 0 117.5 45.5 t42.5 125.5q0 46 -16 81.5t-43 57.5t-67.5 35.5t-84.5 19t-98 5.5q-52 0 -153 -10v-626h-344v1208h-436z" />
<glyph unicode="&#x403;" horiz-adv-x="1083" d="M169 0v1485h915l-88 -291h-482v-1194h-345zM484 1568l131 331h361l-235 -331h-257z" />
<glyph unicode="&#x404;" horiz-adv-x="1479" d="M112 728q0 95 16.5 182.5t50 165t82 143t114.5 117.5t145.5 88.5t176.5 56t206 19.5q66 0 142 -8.5t149.5 -24.5t123.5 -37v-310q-190 99 -406 99q-99 0 -177 -25t-130 -71.5t-84 -106t-46 -133.5h694v-273h-698q24 -166 134 -258t303 -92q109 0 201 28t182 82l99 -267 q-231 -125 -518 -125q-154 0 -279 35.5t-214 100.5t-149.5 158.5t-89 207.5t-28.5 248z" />
<glyph unicode="&#x405;" horiz-adv-x="1265" d="M101 117l131 259q166 -112 342 -112q32 0 61.5 4t57 14t48.5 24.5t33 37t12 50.5q0 39 -21.5 72t-58 59t-84 50t-99.5 49.5t-104.5 53.5t-100 65t-84 81.5t-58 106.5t-21.5 135q0 86 34.5 164t97.5 138.5t161.5 96t218.5 35.5q117 0 218 -22.5t174 -58.5v-308 q-212 103 -381 103q-70 0 -113 -28t-43 -92q0 -33 18 -61.5t48 -50t70.5 -44t86 -42t93.5 -45t93.5 -52t86 -64t71 -81t48 -102.5t17.5 -128q0 -135 -75.5 -237t-203 -155.5t-287.5 -53.5q-135 0 -264 35.5t-223 103.5z" />
<glyph unicode="&#x406;" horiz-adv-x="682" d="M169 0v1485h345v-1485h-345z" />
<glyph unicode="&#x407;" horiz-adv-x="682" d="M-47 1737q0 69 48 118t115.5 49t116.5 -49t49 -118t-49 -118t-116.5 -49t-115.5 49t-48 118zM169 0v1485h345v-1485h-345zM402 1737q0 69 48 118t115.5 49t116 -49t48.5 -118t-48.5 -118t-116 -49t-115.5 49t-48 118z" />
<glyph unicode="&#x408;" horiz-adv-x="804" d="M-79 -376l72 273q63 -32 149 -32q41 0 69.5 11.5t44 28t23.5 45t9.5 51.5t1.5 59v1425h346v-1460q0 -96 -27.5 -176t-81.5 -141t-142.5 -95t-204.5 -34q-85 0 -141.5 11t-117.5 34z" />
<glyph unicode="&#x409;" horiz-adv-x="2119" d="M45 -2v316q18 -5 45 -5q88 0 149 80q89 117 150 389t105 707h835v-511h68q289 0 445 -104q188 -122 188 -379q0 -86 -20 -157.5t-66.5 -134t-118 -106t-179 -68.5t-245.5 -25h-417v1208h-212q-75 -800 -295 -1070q-62 -78 -145 -113.5t-197 -35.5q-53 0 -90 9zM1329 279 h79q147 0 212 51.5t65 155.5q0 102 -60 152q-68 56 -226 56h-70v-415z" />
<glyph unicode="&#x40a;" horiz-adv-x="2236" d="M169 0v1485h345v-584h587v584h345v-511h68q290 0 446 -104q187 -122 187 -379q0 -86 -20 -157.5t-66.5 -134t-118 -106t-179.5 -68.5t-245 -25h-417v608h-587v-608h-345zM1446 279h79q146 0 211.5 51.5t65.5 155.5q0 102 -61 152q-67 56 -225 56h-70v-415z" />
<glyph unicode="&#x40b;" horiz-adv-x="1780" d="M22 1208v277h1330l-84 -277h-466v-288q103 4 146 4q250 0 402 -59t225 -203q50 -97 50 -275v-387h-346v370q0 101 -26 152q-36 67 -109.5 91.5t-188.5 24.5q-70 0 -153 -8v-630h-344v1208h-436z" />
<glyph unicode="&#x40c;" horiz-adv-x="1488" d="M169 0v1485h345v-593h124q46 0 82.5 21t60 54.5t46 82t38.5 95t40.5 104t49.5 99.5q91 152 281 152q42 0 92.5 -7.5t83.5 -19.5v-299q-52 20 -103 20q-67 0 -101 -50q-20 -29 -46 -87t-47.5 -107.5t-57 -102t-75.5 -79.5v-5q46 -18 81.5 -51t67.5 -97l313 -615h-399 l-207 471q-38 88 -66 116t-65 28h-193v-615h-345zM630 1568l131 331h361l-234 -331h-258z" />
<glyph unicode="&#x40d;" horiz-adv-x="1724" d="M169 0v1485h345v-687q0 -167 -5 -244h5q55 82 133 181l565 750h344v-1485h-344v755q0 162 7 212h-5q-19 -25 -45.5 -60.5t-50 -67t-43.5 -57.5l-587 -782h-319zM543 1899h360l131 -331h-256z" />
<glyph unicode="&#x40e;" horiz-adv-x="1416" d="M11 1485h381l341 -709h4l297 709h378l-524 -1098q-55 -114 -113.5 -193t-124 -126.5t-136 -68.5t-155.5 -21q-83 0 -142 13v284q53 -11 103 -11q36 0 63.5 7t48 18t42 35.5t38 48t42.5 66.5zM264 1951h282q0 -39 9.5 -71.5t29.5 -58.5t54.5 -40t80.5 -14q91 0 133.5 51 t42.5 133h282q3 -93 -25.5 -172.5t-85.5 -137.5t-146 -90.5t-201 -32.5q-89 0 -164 21t-130 59.5t-92.5 92.5t-55 119.5t-14.5 140.5z" />
<glyph unicode="&#x40f;" horiz-adv-x="1606" d="M169 0v1485h345v-1178h578v1178h346v-1485h-469v-428h-331v428h-469z" />
<glyph unicode="&#x410;" horiz-adv-x="1490" d="M4 0l584 1492h284l615 -1492h-369l-142 354h-482l-135 -354h-355zM591 628h281l-70 206q-44 130 -63 211h-4q-15 -68 -71 -213z" />
<glyph unicode="&#x411;" horiz-adv-x="1326" d="M169 0v1485h1013l-83 -277h-585v-271h92q269 0 421 -83q209 -111 209 -381q0 -83 -20 -152.5t-66 -129.5t-117.5 -102t-179 -65.5t-245.5 -23.5h-439zM514 279h101q148 0 212.5 46t64.5 144q0 101 -69 146q-68 43 -217 43h-92v-379z" />
<glyph unicode="&#x412;" horiz-adv-x="1326" d="M169 0v1485h498q93 0 171.5 -21t132 -57.5t91 -85t54.5 -102t17 -110.5q0 -89 -43.5 -170t-124.5 -126v-5q131 -35 201 -132t70 -223q0 -67 -20.5 -131t-64 -122.5t-105 -103t-149.5 -70.5t-192 -26h-536zM514 279h142q123 0 179.5 43t56.5 133q0 74 -54 114.5t-150 40.5 h-174v-331zM514 890h103q86 0 133.5 44t47.5 109q0 70 -48.5 115t-141.5 45h-94v-313z" />
<glyph unicode="&#x413;" horiz-adv-x="1083" d="M169 0v1485h915l-88 -291h-482v-1194h-345z" />
<glyph unicode="&#x414;" horiz-adv-x="1677" d="M67 293h95q133 151 228 444.5t169 747.5h838v-1192h213v-721h-331v428h-881v-428h-331v721zM534 293h518v915h-229q-28 -185 -68.5 -350t-97 -310.5t-123.5 -250.5v-4z" />
<glyph unicode="&#x415;" horiz-adv-x="1184" d="M169 0v1485h893l-88 -291h-460v-300h466v-290h-466v-314h543v-290h-888z" />
<glyph unicode="&#x416;" horiz-adv-x="2132" d="M45 0l271 570q41 88 76.5 126.5t82.5 55.5v5q-41 27 -72 81.5t-46.5 107t-36 112t-41.5 88.5q-34 50 -96 50q-56 0 -108 -20v297q74 27 166 27q186 0 277 -152q25 -43 47 -100.5t35 -106t31.5 -98.5t38.5 -85t54 -57t80 -22h97v606h331v-606h97q46 0 80 22t54 57t38.5 85 t31.5 98.5t35 106t47 100.5q91 152 277 152q93 0 167 -27v-297q-52 20 -108 20q-62 0 -96 -50q-15 -21 -29 -55.5t-24.5 -69.5t-24.5 -75t-29 -74t-38.5 -65t-51.5 -50v-5q47 -18 83 -56t77 -126l270 -570h-385l-185 460q-38 92 -61 119t-58 27h-167v-606h-331v606h-166 q-36 0 -59.5 -27.5t-60.5 -118.5l-185 -460h-385z" />
<glyph unicode="&#x417;" horiz-adv-x="1225" d="M63 1380q237 120 500 120q110 0 201 -22.5t153.5 -61.5t105 -92t62 -111.5t19.5 -122.5q0 -75 -30.5 -139.5t-85 -111.5t-128.5 -78v-4q134 -25 204.5 -111.5t70.5 -215.5q0 -79 -24 -148t-73.5 -125t-121 -96t-169.5 -61.5t-216 -21.5q-235 0 -423 72v292 q173 -78 392 -78q139 0 207.5 49t68.5 134q0 42 -18 74t-45.5 50t-68 28.5t-79 14t-85.5 3.5q-121 0 -201 -4v275q59 -5 164 -5q70 0 122 8.5t93.5 27t63.5 52.5t22 83q0 50 -24.5 85.5t-77 55t-130.5 19.5q-84 0 -179.5 -25t-184.5 -71z" />
<glyph unicode="&#x418;" horiz-adv-x="1724" d="M169 0v1485h345v-687q0 -167 -5 -244h5q55 82 133 181l565 750h344v-1485h-344v755q0 162 7 212h-5q-19 -25 -45.5 -60.5t-50 -67t-43.5 -57.5l-587 -782h-319z" />
<glyph unicode="&#x419;" horiz-adv-x="1724" d="M169 0v1485h345v-687q0 -167 -5 -244h5q55 82 133 181l565 750h344v-1485h-344v755q0 162 7 212h-5q-19 -25 -45.5 -60.5t-50 -67t-43.5 -57.5l-587 -782h-319zM417 1951h281q0 -82 43 -133t133.5 -51t132.5 51t42 133h282q3 -94 -25.5 -173t-85.5 -137t-145.5 -90.5 t-200 -32.5t-200.5 32.5t-146 90.5t-85.5 137.5t-25.5 172.5z" />
<glyph unicode="&#x41a;" horiz-adv-x="1488" d="M169 0v1485h345v-593h124q46 0 82.5 21t60 54.5t46 82t38.5 95t40.5 104t49.5 99.5q91 152 281 152q42 0 92.5 -7.5t83.5 -19.5v-299q-52 20 -103 20q-67 0 -101 -50q-20 -29 -46 -87t-47.5 -107.5t-57 -102t-75.5 -79.5v-5q46 -18 81.5 -51t67.5 -97l313 -615h-399 l-207 471q-38 88 -66 116t-65 28h-193v-615h-345z" />
<glyph unicode="&#x41b;" horiz-adv-x="1526" d="M45 -2v316q18 -5 45 -5q88 0 149 80q89 117 150 389t105 707h864v-1485h-344v1208h-242q-75 -800 -295 -1070q-62 -78 -145 -113.5t-197 -35.5q-53 0 -90 9z" />
<glyph unicode="&#x41c;" horiz-adv-x="1894" d="M169 0v1485h311l371 -518q68 -94 116 -176h4q51 99 108 187l333 507h314v-1485h-346v757q0 115 3 160h-3q-4 -11 -18 -34t-25.5 -40.5t-32 -48.5t-22.5 -35l-241 -365h-151l-275 378q-70 94 -99 145h-4q2 -49 2 -149v-768h-345z" />
<glyph unicode="&#x41d;" horiz-adv-x="1664" d="M169 0v1485h345v-584h638v584h344v-1485h-344v608h-638v-608h-345z" />
<glyph unicode="&#x41e;" horiz-adv-x="1756" d="M112 739q0 167 56.5 309t157 241.5t243 155t310.5 55.5t310.5 -55.5t242.5 -155t156 -241.5t56 -309t-56 -308.5t-156 -241t-242.5 -155.5t-310.5 -56t-310.5 56t-243 155.5t-157 241t-56.5 308.5zM480 739q0 -116 29 -207t82.5 -149.5t126 -88.5t161 -30t161.5 30 t126 88.5t82 149.5t29 207t-29 207t-82 149.5t-126 88.5t-161.5 30t-161 -30t-126 -88.5t-82.5 -149.5t-29 -207z" />
<glyph unicode="&#x41f;" horiz-adv-x="1597" d="M169 0v1485h1259v-1485h-344v1194h-570v-1194h-345z" />
<glyph unicode="&#x420;" horiz-adv-x="1294" d="M169 0v1485h414q208 0 341 -62q126 -58 192 -168t66 -268q0 -68 -15.5 -131.5t-49.5 -125t-96 -112.5t-147 -82q-133 -50 -322 -50h-38v-486h-345zM514 763h58q91 0 146 26q107 50 107 198q0 59 -26 109t-76 80q-56 32 -158 32h-51v-445z" />
<glyph unicode="&#x421;" horiz-adv-x="1470" d="M112 728q0 127 36.5 243.5t107.5 212.5t169 167t228 110t278 39q235 0 404 -70v-315q-189 99 -396 99q-93 0 -170 -25.5t-130 -70.5t-89.5 -106.5t-53 -131.5t-16.5 -147q0 -138 55 -244.5t158.5 -165.5t241.5 -59q108 0 195 28t179 82l95 -271q-232 -125 -512 -125 q-189 0 -338 56t-245 156.5t-146.5 237t-50.5 300.5z" />
<glyph unicode="&#x422;" horiz-adv-x="1270" d="M22 1194v291h1248l-88 -291h-380v-1194h-344v1194h-436z" />
<glyph unicode="&#x423;" horiz-adv-x="1416" d="M11 1485h381l341 -709h4l297 709h378l-524 -1098q-55 -114 -113.5 -193t-124 -126.5t-136 -68.5t-155.5 -21q-83 0 -142 13v284q53 -11 103 -11q36 0 63.5 7t48 18t42 35.5t38 48t42.5 66.5z" />
<glyph unicode="&#x424;" horiz-adv-x="1835" d="M112 750q0 257 166 407.5t468 181.5v179h344v-179q301 -31 467.5 -181.5t166.5 -407.5q0 -266 -163 -413.5t-471 -174.5v-203h-344v203q-308 27 -471 174.5t-163 413.5zM460 750q0 -135 70 -206.5t216 -88.5v590q-143 -21 -214.5 -93.5t-71.5 -201.5zM1090 455 q97 11 160.5 46.5t94.5 97t31 151.5q0 129 -71.5 201.5t-214.5 93.5v-590z" />
<glyph unicode="&#x425;" horiz-adv-x="1492" d="M11 0l539 744l-490 741h381l320 -483l352 483h370l-530 -730l498 -755h-381l-329 496l-360 -496h-370z" />
<glyph unicode="&#x426;" horiz-adv-x="1696" d="M169 0v1485h345v-1192h556v1192h345v-1192h214v-721h-331v428h-1129z" />
<glyph unicode="&#x427;" horiz-adv-x="1504" d="M157 1097v388h346v-370q0 -102 26 -154q36 -65 112 -89.5t193 -24.5q86 0 157 7v631h344v-1485h-344v565q-103 -4 -151 -4q-250 0 -405.5 59t-227.5 203q-50 97 -50 274z" />
<glyph unicode="&#x428;" horiz-adv-x="2240" d="M169 0v1485h345v-1192h434v1192h346v-1192h434v1192h344v-1485h-1903z" />
<glyph unicode="&#x429;" horiz-adv-x="2354" d="M169 0v1485h345v-1192h434v1192h346v-1192h434v1192h344v-1192h215v-721h-331v428h-1787z" />
<glyph unicode="&#x42a;" horiz-adv-x="1673" d="M0 1485h883v-511h67q290 0 447 -104q187 -122 187 -379q0 -86 -20 -157.5t-67 -134t-118 -106t-179 -68.5t-245 -25h-417v1208h-457zM883 279h78q147 0 212.5 51.5t65.5 155.5q0 102 -61 152q-68 56 -225 56h-70v-415z" />
<glyph unicode="&#x42b;" horiz-adv-x="1875" d="M169 0v1485h345v-511h54q256 0 410 -82q223 -120 223 -401q0 -86 -20 -157.5t-66.5 -134t-118 -106t-179.5 -68.5t-245 -25h-403zM514 279h65q146 0 211.5 51.5t65.5 155.5q0 113 -78 163q-69 45 -208 45h-56v-415zM1363 0v1485h344v-1485h-344z" />
<glyph unicode="&#x42c;" horiz-adv-x="1326" d="M169 0v1485h345v-511h81q252 0 411 -82q230 -121 230 -401q0 -71 -14 -132.5t-44 -117t-80 -99.5t-118.5 -76t-162.5 -49t-209 -17h-439zM514 279h101q147 0 212 51.5t65 155.5q0 103 -65 154q-68 54 -227 54h-86v-415z" />
<glyph unicode="&#x42d;" horiz-adv-x="1438" d="M90 1380q240 120 480 120q142 0 263 -37.5t211.5 -106.5t154 -164.5t96 -213t32.5 -250.5q0 -131 -30 -244.5t-92 -207t-153 -159.5t-218 -102.5t-282 -36.5q-112 0 -221 19.5t-189 49.5v295q178 -82 394 -82q188 0 299 90.5t132 259.5h-681v273h675q-13 75 -44.5 135 t-82.5 105.5t-127.5 70.5t-172.5 25q-173 0 -358 -97z" />
<glyph unicode="&#x42e;" horiz-adv-x="2360" d="M169 0v1485h345v-584h331q21 135 77.5 245.5t144 189.5t208.5 121.5t266 42.5q165 0 298.5 -55.5t223 -155.5t137.5 -240.5t48 -309.5t-48 -309t-137.5 -240.5t-223 -156t-298.5 -55.5q-148 0 -271.5 45.5t-212 128t-144 198.5t-73.5 258h-326v-608h-345zM1201 739 q0 -235 87.5 -355t253 -120t252.5 120t87 355q0 157 -39.5 263.5t-115 159t-185.5 52.5t-185.5 -52.5t-115 -159t-39.5 -263.5z" />
<glyph unicode="&#x42f;" horiz-adv-x="1443" d="M45 0l254 509q40 79 66 111.5t67 57.5v5q-113 46 -173.5 139.5t-60.5 211.5q0 107 40.5 193.5t112 142.5t168.5 85.5t211 29.5h545v-1485h-344v543h-201q-18 0 -30 -5t-26 -21t-27.5 -43.5t-33.5 -75.5l-164 -398h-404zM557 1010q0 -99 64 -144.5t177 -45.5h133v388h-151 q-98 0 -160.5 -52t-62.5 -146z" />
<glyph unicode="&#x430;" horiz-adv-x="1155" d="M67 327q0 104 46 174t132 116q112 59 282 66l169 7v11q0 139 -187 139q-68 0 -140.5 -17t-129.5 -47l-106 213q209 103 439 103q241 0 352.5 -102.5t111.5 -301.5v-479q0 -151 18 -209h-278l-48 90q-130 -112 -298 -112q-157 0 -260 98t-103 251zM408 349q0 -55 35 -82.5 t98 -27.5q92 0 155 38v198l-115 -4q-81 -4 -126 -30q-47 -29 -47 -92z" />
<glyph unicode="&#x431;" d="M79 678q0 129 24.5 259.5t76 246.5t121.5 177q23 19 46.5 35.5t46 30t55 26t57.5 21.5t70 19.5t76.5 17.5t93 18.5t104.5 19t125 22t140 24.5v-295q-47 -9 -131 -25q-276 -53 -361.5 -76t-126.5 -64q-57 -57 -77 -178h5q145 77 299 77q92 0 169 -25.5t131.5 -70.5 t92 -106t55.5 -133t18 -151q0 -124 -36 -227.5t-104.5 -180t-176.5 -119.5t-244 -43q-99 0 -181.5 24t-151.5 77t-116.5 134t-73.5 198.5t-26 266.5zM412 664q0 -136 27.5 -231t78 -141.5t120.5 -46.5q55 0 96 22.5t64 61.5t34 86t11 103q0 40 -5.5 75.5t-19 70t-34.5 59.5 t-55 40t-78 15q-52 0 -115.5 -15.5t-120.5 -42.5q-3 -25 -3 -56z" />
<glyph unicode="&#x432;" horiz-adv-x="1128" d="M117 0v1066h464q99 0 178 -17t130 -44.5t85 -65t48 -77t14 -82.5q0 -89 -48.5 -146t-133.5 -82v-4q90 -18 150 -80t60 -157q0 -46 -14.5 -88.5t-49.5 -84t-87 -71.5t-134.5 -48.5t-185.5 -18.5h-476zM443 234h165q56 0 89 23t33 74q0 101 -124 101h-163v-198zM443 645 h142q118 0 118 94q0 93 -120 93h-140v-187z" />
<glyph unicode="&#x433;" horiz-adv-x="997" d="M117 0v1066h836l-93 -300h-402v-766h-341z" />
<glyph unicode="&#x434;" horiz-adv-x="1380" d="M54 271h77q54 62 93.5 132.5t73.5 171t60.5 209.5t62.5 282h735v-795h149v-656h-309v385h-633v-385h-309v656zM488 271h327v520h-153q-64 -329 -174 -516v-4z" />
<glyph unicode="&#x435;" horiz-adv-x="1157" d="M75 520q0 122 32.5 225t95 181t160 122t220.5 44q239 0 373 -155t134 -428v-79h-675q4 -94 76.5 -142.5t186.5 -48.5q147 0 275 72l99 -230q-170 -103 -401 -103q-103 0 -189.5 21t-148.5 59t-108.5 88.5t-74.5 112t-41.5 126.5t-13.5 135zM410 656h340q-1 36 -11 68 t-29.5 58.5t-54 42t-79.5 15.5q-79 0 -122.5 -54t-43.5 -130z" />
<glyph unicode="&#x436;" horiz-adv-x="1696" d="M28 0l189 410q42 89 116 119v5q-30 20 -50.5 65t-39.5 95.5t-41 75.5q-28 32 -71 32q-39 0 -68 -11v284q48 17 133 17q72 0 119.5 -23t82.5 -67q26 -33 47.5 -82t36 -91t31.5 -81t42.5 -61.5t59.5 -22.5h68v402h331v-402h67q35 0 60 22.5t42 61.5t31.5 81t36 91t47.5 82 q23 29 49 48t65 30.5t88 11.5q85 0 134 -17v-284q-30 11 -69 11q-43 0 -71 -32q-22 -25 -41 -75.5t-39.5 -95.5t-50.5 -65v-5q76 -30 118 -119l189 -410h-365l-116 322q-34 93 -78 93h-97v-415h-331v415h-98q-44 0 -78 -93l-115 -322h-364z" />
<glyph unicode="&#x437;" horiz-adv-x="1030" d="M86 1002q196 90 400 90q211 0 333.5 -89.5t122.5 -230.5q0 -74 -35.5 -131.5t-104.5 -83.5v-5q83 -28 124 -85.5t41 -133.5q0 -44 -13 -87t-39 -83t-67.5 -73.5t-95.5 -58.5t-126.5 -39t-156.5 -14q-204 0 -361 72v249q161 -71 331 -71q197 0 197 105q0 50 -54.5 71.5 t-175.5 21.5q-88 0 -163 -9v232q65 -4 169 -4q109 0 155 26t46 77q0 41 -38.5 66.5t-114.5 25.5q-67 0 -147 -18.5t-139 -45.5z" />
<glyph unicode="&#x438;" horiz-adv-x="1303" d="M117 0v1066h332v-381q0 -132 -12 -238h6q44 85 136 220l275 399h333v-1066h-331v381q0 141 11 238h-7q-46 -90 -135 -221l-274 -398h-334z" />
<glyph unicode="&#x439;" horiz-adv-x="1303" d="M117 0v1066h332v-381q0 -132 -12 -238h6q44 85 136 220l275 399h333v-1066h-331v381q0 141 11 238h-7q-46 -90 -135 -221l-274 -398h-334zM239 1636h277q0 -185 144 -185t144 185h277q4 -94 -22.5 -172t-79 -134t-134 -87t-185.5 -31q-138 0 -235.5 54t-144 149 t-41.5 221z" />
<glyph unicode="&#x43a;" horiz-adv-x="1178" d="M117 0v1066h341v-395h105q22 0 40.5 9t31 25t24.5 38t21 46.5t19.5 53t21 55t25.5 54.5t32 50q71 90 206 90q85 0 134 -17v-286q-30 11 -69 11q-43 0 -71 -32q-20 -25 -40 -74t-41.5 -92.5t-51.5 -63.5v-4q78 -32 120 -119l191 -415h-370l-115 327q-33 90 -76 90h-137 v-417h-341z" />
<glyph unicode="&#x43b;" horiz-adv-x="1232" d="M28 -7v297q15 -4 37 -4q62 0 104 58q60 80 112 265t86 457h748v-1066h-339v766h-159q-55 -463 -215 -654q-106 -127 -294 -127q-44 0 -80 8z" />
<glyph unicode="&#x43c;" horiz-adv-x="1449" d="M117 0v1066h330l118 -187q31 -49 61 -102t61 -112t36 -68h5q5 9 36 68t61 112t61 102l116 187h331v-1066h-329v374q0 72 8 207h-8q-21 -49 -94 -166l-115 -183h-139l-115 183q-69 110 -94 166h-8q8 -135 8 -207v-374h-330z" />
<glyph unicode="&#x43d;" horiz-adv-x="1265" d="M117 0v1066h341v-354h350v354h340v-1066h-340v412h-350v-412h-341z" />
<glyph unicode="&#x43e;" d="M69 536q0 96 26.5 182t76 154t118 117.5t155.5 76t185 26.5q123 0 227.5 -41.5t178 -114.5t114.5 -176.5t41 -223.5q0 -97 -26 -183t-76 -154t-118 -118t-155.5 -76.5t-185.5 -26.5q-122 0 -226.5 41.5t-178 115t-115 177t-41.5 224.5zM417 535.5q0 -85.5 21.5 -149 t70 -102.5t121.5 -39q55 0 97 22t67.5 62t38 91.5t12.5 115.5q0 85 -21.5 148.5t-71 102t-122.5 38.5t-121.5 -38.5t-70 -102t-21.5 -149z" />
<glyph unicode="&#x43f;" horiz-adv-x="1243" d="M117 0v1066h1009v-1066h-340v766h-328v-766h-341z" />
<glyph unicode="&#x440;" horiz-adv-x="1229" d="M108 -534v1557q216 69 440 69q152 0 269.5 -40.5t192 -114.5t112.5 -176t38 -227q0 -118 -39 -219.5t-111 -176.5t-179.5 -117.5t-237.5 -42.5q-75 0 -144 15v-527h-341zM449 271q68 -17 116 -17q124 0 186 73t62 204q0 141 -71.5 212.5t-207.5 71.5q-49 0 -85 -9v-535z " />
<glyph unicode="&#x441;" horiz-adv-x="1042" d="M69 527q0 72 16.5 139.5t46 123.5t71 104t92.5 84.5t109 62t122 38.5t130 13q187 0 303 -78v-281q-121 92 -263 92q-129 0 -204 -84t-75 -212q0 -136 72 -210t194 -74q64 0 120.5 18t122.5 55l95 -230q-70 -50 -172.5 -80t-216.5 -30q-106 0 -196.5 26.5t-157.5 75.5 t-114 117t-71 151.5t-24 178.5z" />
<glyph unicode="&#x442;" horiz-adv-x="1112" d="M52 786v280h1032l-86 -280h-295v-786h-340v786h-311z" />
<glyph unicode="&#x443;" horiz-adv-x="1247" d="M-22 -475l85 261q89 -48 169 -48q42 0 76 13t68 44.5t65.5 86.5t61.5 136l-490 1048h361l284 -677h4l232 677h349l-414 -1066q-39 -101 -80 -180.5t-79.5 -135t-82 -95.5t-81.5 -63.5t-84 -37t-84.5 -18t-87.5 -4.5q-145 0 -272 59z" />
<glyph unicode="&#x444;" horiz-adv-x="1546" d="M73 534q0 60 11 117t33.5 109t55.5 98t77.5 84.5t99 68t121 49.5t142.5 28v464h322v-464q131 -14 234.5 -63t170 -123.5t101 -168t34.5 -199.5q0 -71 -15.5 -136.5t-45 -124t-75.5 -108t-105 -87.5t-135 -63t-164 -35v-514h-322v514q-105 12 -193 45.5t-151.5 85 t-108 118t-66 143.5t-21.5 162zM404 533.5q0 -104.5 56 -184t155 -95.5v559q-99 -16 -155 -95.5t-56 -184zM933 254q66 11 115 52.5t72.5 100.5t23.5 127q0 104 -56 183.5t-155 95.5v-559z" />
<glyph unicode="&#x445;" horiz-adv-x="1191" d="M11 0l406 536l-397 530h350l227 -303l228 303h349l-398 -530l404 -536h-348l-235 311l-236 -311h-350z" />
<glyph unicode="&#x446;" horiz-adv-x="1339" d="M117 0v1066h341v-773h318v773h339v-773h149v-678h-309v385h-838z" />
<glyph unicode="&#x447;" horiz-adv-x="1204" d="M103 694v372h340v-329q0 -42 18 -69.5t57 -41t101 -13.5q75 0 129 11v442h340v-1066h-340v354q-94 -10 -167 -10q-155 0 -261.5 39t-161.5 117.5t-55 193.5z" />
<glyph unicode="&#x448;" horiz-adv-x="1741" d="M117 0v1066h332v-778h256v778h331v-778h258v778h331v-1066h-1508z" />
<glyph unicode="&#x449;" horiz-adv-x="1817" d="M117 0v1066h332v-778h243v778h327v-778h243v778h331v-778h148v-673h-308v385h-1316z" />
<glyph unicode="&#x44a;" horiz-adv-x="1410" d="M22 1066h739v-352q64 4 113 4q105 0 187.5 -19.5t135.5 -52t88 -78.5t50 -96t15 -107q0 -82 -27 -147t-84 -114.5t-154.5 -76.5t-230.5 -27h-433v786h-324zM761 254h86q54 0 89 8.5t51.5 24.5t21.5 32.5t5 41.5q0 22 -5.5 38t-21 32t-49.5 24.5t-84 8.5q-42 0 -93 -4 v-206z" />
<glyph unicode="&#x44b;" horiz-adv-x="1617" d="M117 0v1066h341v-352q63 4 105 4q102 0 182.5 -19t133 -52t87 -79t49.5 -96t15 -107q0 -82 -26.5 -147t-82.5 -114.5t-151.5 -76.5t-226.5 -27h-426zM458 254h78q34 0 60.5 4t43.5 11.5t28 16.5t16.5 22t7.5 25t2 28q0 17 -2.5 30.5t-12 28t-25.5 23.5t-44 15t-67 6 q-35 0 -85 -4v-206zM1160 0v1066h340v-1066h-340z" />
<glyph unicode="&#x44c;" horiz-adv-x="1126" d="M117 0v1066h341v-352q63 4 114 4q78 0 144.5 -10t116.5 -28t89.5 -43.5t66 -55.5t44 -66t25.5 -73t8 -77q0 -82 -27.5 -147t-87 -114.5t-160 -76.5t-239.5 -27h-435zM458 254h88q57 0 95.5 8t57 24t25 33t6.5 42q0 22 -7 39t-25 32.5t-55 23.5t-91 8q-44 0 -94 -4v-206z " />
<glyph unicode="&#x44d;" horiz-adv-x="1056" d="M95 1010q168 82 346 82q112 0 211 -39t173 -110t116.5 -177.5t42.5 -234.5q0 -162 -65 -286.5t-191.5 -195.5t-297.5 -71q-173 0 -299 58v250q49 -26 119.5 -44.5t138.5 -18.5q233 0 267 205h-383v225h376q-22 86 -84.5 136.5t-162.5 50.5q-105 0 -219 -58z" />
<glyph unicode="&#x44e;" horiz-adv-x="1754" d="M117 0v1066h341v-363h198q44 179 177 284t327 105q119 0 217.5 -41.5t165.5 -115t103.5 -176t36.5 -223.5q0 -162 -62.5 -288t-182 -198t-278.5 -72q-204 0 -339.5 116t-171.5 310h-191v-404h-341zM980 536q0 -66 8.5 -116t28.5 -91t56 -62.5t87.5 -21.5t87.5 21.5 t56 62.5t28.5 91t8.5 116q0 53 -4 93.5t-16 79t-32 63t-52 39t-76.5 14.5t-76.5 -14.5t-52 -39t-32 -63t-16 -79t-4 -93.5z" />
<glyph unicode="&#x44f;" horiz-adv-x="1146" d="M34 0l144 316q25 55 52.5 83.5t66.5 43.5v6q-59 26 -100 69t-60.5 96t-19.5 114q0 71 22.5 130.5t70.5 107t131 74t195 26.5h494v-1066h-340v342h-122q-48 0 -80 -90l-84 -252h-370zM449 696q0 -51 33.5 -81t98.5 -30h109v228h-118q-63 0 -93 -32t-30 -85z" />
<glyph unicode="&#x450;" horiz-adv-x="1157" d="M75 520q0 122 32.5 225t95 181t160 122t220.5 44q239 0 373 -155t134 -428v-79h-675q4 -94 76.5 -142.5t186.5 -48.5q147 0 275 72l99 -230q-170 -103 -401 -103q-103 0 -189.5 21t-148.5 59t-108.5 88.5t-74.5 112t-41.5 126.5t-13.5 135zM262 1528h360l130 -332h-256z M410 656h340q-1 36 -11 68t-29.5 58.5t-54 42t-79.5 15.5q-79 0 -122.5 -54t-43.5 -130z" />
<glyph unicode="&#x451;" horiz-adv-x="1157" d="M75 520q0 122 32.5 225t95 181t160 122t220.5 44q239 0 373 -155t134 -428v-79h-675q4 -94 76.5 -142.5t186.5 -48.5q147 0 275 72l99 -230q-170 -103 -401 -103q-103 0 -189.5 21t-148.5 59t-108.5 88.5t-74.5 112t-41.5 126.5t-13.5 135zM200 1365q0 69 48.5 118 t116.5 49t116 -49t48 -118t-48 -117.5t-116 -48.5t-116.5 48.5t-48.5 117.5zM410 656h340q-1 36 -11 68t-29.5 58.5t-54 42t-79.5 15.5q-79 0 -122.5 -54t-43.5 -130zM649 1365q0 69 48 118t116 49t116.5 -49t48.5 -118t-48.5 -117.5t-116.5 -48.5t-116 48.5t-48 117.5z" />
<glyph unicode="&#x452;" horiz-adv-x="1285" d="M9 1203v252h120v140h340v-140h315v-252h-315v-291q46 40 88.5 67.5t100 46.5t118.5 19q133 0 232 -82.5t149.5 -227.5t50.5 -333q0 -277 -102.5 -466t-323.5 -308l-167 241q63 37 108 82.5t71 91.5t41.5 104t20 110.5t4.5 120.5q0 175 -52.5 274.5t-156.5 99.5 q-85 0 -182 -79v-673h-340v1203h-120z" />
<glyph unicode="&#x453;" horiz-adv-x="997" d="M117 0v1066h836l-93 -300h-402v-766h-341zM381 1196l131 332h360l-234 -332h-257z" />
<glyph unicode="&#x454;" horiz-adv-x="1064" d="M73 527q0 102 28 192t79.5 158t121.5 116.5t155 73.5t179 25q105 0 186 -23t128 -55v-264q-118 90 -275 90q-108 0 -175 -50.5t-92 -136.5h370v-225h-376q15 -98 81 -151.5t179 -53.5q126 0 255 72l99 -207q-69 -50 -175.5 -80t-221.5 -30q-127 0 -230 41t-172.5 113.5 t-106.5 173.5t-37 221z" />
<glyph unicode="&#x455;" horiz-adv-x="1008" d="M41 90l103 243q69 -45 150.5 -69.5t156.5 -24.5q159 0 159 72q0 20 -11.5 36t-39.5 30t-50 22.5t-67 23.5q-42 14 -65 22t-64 25.5t-64.5 33t-54 41.5t-47 54.5t-28 68t-11.5 84.5q0 154 119 247t316 93q189 0 343 -54v-281q-186 75 -329 75q-118 0 -118 -64 q0 -22 21.5 -39t57 -29t80.5 -28t92 -32t92.5 -44t80.5 -63t57 -90t22 -123q0 -73 -25.5 -131.5t-68.5 -97t-102.5 -64.5t-125 -37.5t-138.5 -11.5q-132 0 -246 31t-195 81z" />
<glyph unicode="&#x456;" horiz-adv-x="555" d="M77 1388q0 80 58.5 137t143.5 57q86 0 144.5 -55.5t58.5 -138.5q0 -80 -59 -138.5t-144 -58.5t-143.5 57t-58.5 140zM108 0v1066h341v-1066h-341z" />
<glyph unicode="&#x457;" horiz-adv-x="555" d="M-110 1365q0 69 48 118t116 49t116.5 -49t48.5 -118t-48.5 -117.5t-116.5 -48.5t-116 48.5t-48 117.5zM108 0v1066h341v-1066h-341zM338 1365q0 69 48.5 118t116 49t116 -49t48.5 -118t-48 -117.5t-116 -48.5t-116.5 48.5t-48.5 117.5z" />
<glyph unicode="&#x458;" horiz-adv-x="591" d="M-157 -488l60 274q60 -27 122 -27q65 0 92 36t27 117v1154h340v-1201q0 -183 -105.5 -291t-299.5 -108q-138 0 -236 46zM112 1388q0 80 59 137t145 57t144 -55.5t58 -138.5q0 -80 -58.5 -138.5t-143.5 -58.5q-86 0 -145 57.5t-59 139.5z" />
<glyph unicode="&#x459;" horiz-adv-x="1736" d="M28 -7v297q15 -4 37 -4q62 0 104 58q60 80 112 265t86 457h721v-352q64 4 115 4q103 0 185 -19t135 -52t88.5 -79t50 -96t14.5 -107q0 -82 -27 -147t-84 -114.5t-153.5 -76.5t-226.5 -27h-428v766h-140q-55 -463 -215 -654q-106 -127 -294 -127q-44 0 -80 8zM1088 254h90 q35 0 61.5 4t44 11.5t29 17t17.5 22t8.5 24.5t2.5 28q0 22 -6 38.5t-22 32t-49 24t-82 8.5q-44 0 -94 -4v-206z" />
<glyph unicode="&#x45a;" horiz-adv-x="1774" d="M117 0v1066h341v-354h328v354h340v-352q64 4 115 4q74 0 137.5 -10t111.5 -28t86 -43.5t64 -55.5t43 -66t24.5 -73t7.5 -77q0 -82 -27.5 -147t-84.5 -114.5t-153 -76.5t-227 -27h-437v412h-328v-412h-341zM1126 254h91q51 0 84.5 8.5t49.5 24.5t21.5 33t5.5 41 q0 22 -6 38.5t-21.5 32t-48 24t-81.5 8.5q-44 0 -95 -4v-206z" />
<glyph unicode="&#x45b;" horiz-adv-x="1292" d="M9 1203v252h120v140h340v-140h288v-252h-288v-291q45 38 100 67.5t120.5 47.5t130.5 18q356 0 356 -396v-649h-340v548q0 30 -2 53.5t-7 48t-15 42t-25 32t-38.5 21.5t-54.5 7q-35 0 -75 -9t-80 -27.5t-70 -42.5v-673h-340v1203h-120z" />
<glyph unicode="&#x45c;" horiz-adv-x="1178" d="M117 0v1066h341v-395h105q22 0 40.5 9t31 25t24.5 38t21 46.5t19.5 53t21 55t25.5 54.5t32 50q71 90 206 90q85 0 134 -17v-286q-30 11 -69 11q-43 0 -71 -32q-20 -25 -40 -74t-41.5 -92.5t-51.5 -63.5v-4q78 -32 120 -119l191 -415h-370l-115 327q-33 90 -76 90h-137 v-417h-341zM462 1196l131 332h360l-235 -332h-256z" />
<glyph unicode="&#x45d;" horiz-adv-x="1303" d="M117 0v1066h332v-381q0 -132 -12 -238h6q44 85 136 220l275 399h333v-1066h-331v381q0 141 11 238h-7q-46 -90 -135 -221l-274 -398h-334zM322 1528h361l130 -332h-256z" />
<glyph unicode="&#x45e;" horiz-adv-x="1247" d="M-22 -475l85 261q89 -48 169 -48q42 0 76 13t68 44.5t65.5 86.5t61.5 136l-490 1048h361l284 -677h4l232 677h349l-414 -1066q-39 -101 -80 -180.5t-79.5 -135t-82 -95.5t-81.5 -63.5t-84 -37t-84.5 -18t-87.5 -4.5q-145 0 -272 59zM219 1636h277q0 -185 144 -185 t144 185h278q3 -94 -23 -172t-78.5 -134t-134.5 -87t-186 -31q-138 0 -235.5 54t-144 149t-41.5 221z" />
<glyph unicode="&#x45f;" horiz-adv-x="1254" d="M117 0v1066h341v-773h340v773h339v-1066h-353v-385h-313v385h-354z" />
<glyph unicode="&#x462;" horiz-adv-x="1459" d="M22 1142v277h279v176h346v-176h391l-83 -277h-308v-222h92q240 0 390 -66q241 -107 241 -390q0 -81 -20.5 -149t-67 -127t-118 -100t-179 -64.5t-244.5 -23.5h-440v1142h-279zM647 279h101q147 0 212 44t65 137t-66 137q-66 43 -220 43h-92v-361z" />
<glyph unicode="&#x463;" horiz-adv-x="1301" d="M0 823v243h293v310h339v-310h400l-75 -243h-325v-140q64 5 116 5q109 0 194 -17.5t140.5 -47.5t91.5 -73t51.5 -91t15.5 -105q0 -354 -513 -354h-435v823h-293zM632 250h86q44 0 77.5 4.5t54 13t33.5 21t17.5 26.5t4.5 31q0 47 -38.5 74t-138.5 27q-32 0 -96 -6v-191z " />
<glyph unicode="&#x472;" horiz-adv-x="1747" d="M112 739.5q0 170.5 54.5 312.5t153 240.5t241 153t314 54.5t313.5 -54.5t240.5 -153t153 -240.5t54.5 -313t-54.5 -312.5t-153 -240.5t-240.5 -153.5t-313.5 -54.5t-314 54.5t-241 153.5t-153 241t-54.5 312.5zM482 610q15 -117 68 -196t134.5 -116.5t189.5 -37.5 q164 0 266.5 88t125.5 262h-784zM486 899h776q-30 158 -131.5 239t-256.5 81q-154 0 -255 -81t-133 -239z" />
<glyph unicode="&#x473;" horiz-adv-x="1251" d="M73 536q0 124 38.5 227t110 176t175 113t229.5 40q168 0 294 -69.5t193 -195.5t67 -291.5t-67 -291.5t-193 -196t-294 -70t-293.5 70t-192.5 196t-67 292zM410 426q14 -91 67.5 -142.5t148.5 -51.5t148 51t66 143h-430zM410 647h430q-13 90 -66.5 140.5t-147.5 50.5 q-64 0 -110 -24.5t-71.5 -66t-34.5 -100.5z" />
<glyph unicode="&#x474;" horiz-adv-x="1549" d="M4 1485h370l245 -741q50 -146 88 -286h5q136 533 234 761q36 81 76.5 136t89 87t102 45t121.5 13q25 0 58 -3t70 -9.5t65 -14.5v-297q-64 23 -116 23q-24 0 -45 -7t-40.5 -23t-37.5 -41.5t-36 -61.5q-47 -96 -117 -291t-236 -682q-23 -68 -35 -104h-313z" />
<glyph unicode="&#x475;" horiz-adv-x="1173" d="M4 1066h340l219 -640h5q58 286 94 387q53 150 129 214.5t207 64.5q88 0 165 -22v-281q-39 15 -82 15q-51 0 -86.5 -35.5t-68.5 -117.5q-78 -196 -214 -658h-275z" />
<glyph unicode="&#x490;" horiz-adv-x="1229" d="M169 0v1485h685v327l309 78v-682h-649v-1208h-345z" />
<glyph unicode="&#x491;" horiz-adv-x="1030" d="M117 0v1066h556v306l303 79v-685h-518v-766h-341z" />
<glyph unicode="&#x2013;" horiz-adv-x="1013" d="M0 441v242h1014v-242h-1014z" />
<glyph unicode="&#x2014;" horiz-adv-x="1801" d="M0 441v242h1802v-242h-1802z" />
<glyph unicode="&#x2018;" horiz-adv-x="524" d="M75 1277q0 174 80 352l221 -32q-22 -96 -22 -185q0 -58 11 -115.5t27 -104t42 -104.5l-277 -135q-82 144 -82 324z" />
<glyph unicode="&#x2019;" horiz-adv-x="524" d="M90 1494l277 135q84 -147 84 -324q0 -172 -81 -352l-222 31q24 101 24 185q0 85 -20.5 160t-61.5 165z" />
<glyph unicode="&#x201a;" horiz-adv-x="524" d="M90 142l277 135q84 -147 84 -324q0 -171 -81 -351l-222 31q24 100 24 184q0 85 -20.5 160t-61.5 165z" />
<glyph unicode="&#x201c;" horiz-adv-x="997" d="M75 1277q0 174 80 352l221 -32q-22 -96 -22 -185q0 -58 11 -115.5t27 -104t42 -104.5l-277 -135q-82 144 -82 324zM548 1277q0 174 80 352l221 -32q-22 -96 -22 -185q0 -85 20.5 -160t60.5 -164l-278 -135q-82 144 -82 324z" />
<glyph unicode="&#x201d;" horiz-adv-x="997" d="M90 1494l277 135q84 -147 84 -324q0 -172 -81 -352l-222 31q24 101 24 185q0 85 -20.5 160t-61.5 165zM563 1494l277 135q84 -147 84 -324q0 -172 -81 -352l-221 31q23 101 23 185q0 59 -11.5 116.5t-27.5 103.5t-43 105z" />
<glyph unicode="&#x201e;" horiz-adv-x="997" d="M90 142l277 135q84 -147 84 -324q0 -171 -81 -351l-222 31q24 100 24 184q0 85 -20.5 160t-61.5 165zM563 142l277 135q84 -147 84 -324q0 -171 -81 -351l-221 31q23 100 23 184q0 85 -20.5 160t-61.5 165z" />
<glyph unicode="&#x2020;" horiz-adv-x="1208" d="M112 793v342q55 0 185.5 -18.5t160.5 -19.5q2 45 -13 175.5t-15 178.5h350q0 -48 -15 -178.5t-13 -175.5q31 1 98.5 11t136 18.5t110.5 8.5v-342q-44 0 -112.5 8t-134 16.5t-95.5 9.5q-3 -33 -1 -100.5t5 -124t6 -152.5t3 -188v-379h-327v379q0 141 9 323t5 242 q-32 -1 -159.5 -17.5t-183.5 -16.5z" />
<glyph unicode="&#x2021;" horiz-adv-x="1208" d="M112 198v343q56 0 183.5 -16.5t159.5 -17.5q1 15 1 36.5t-0.5 38.5t-1.5 42t-1 45q0 25 2 79t0 79q-32 -1 -159.5 -17.5t-183.5 -16.5v342q55 0 185.5 -18.5t160.5 -19.5q2 45 -13 175.5t-15 178.5h350q0 -48 -15 -178.5t-13 -175.5q31 1 98.5 11t136 18.5t110.5 8.5 v-342q-44 0 -112.5 8t-134 16.5t-95.5 9.5q-2 -25 0 -79t2 -79t-2 -80t0 -82q32 1 159 17.5t183 16.5v-343q-55 0 -185 18.5t-160 19.5q-2 -44 13 -174.5t15 -178.5h-350q0 48 15 178.5t13 174.5q-31 -1 -99 -11t-136.5 -18.5t-110.5 -8.5z" />
<glyph unicode="&#x2022;" horiz-adv-x="781" d="M90 714q0 133 85.5 223t213.5 90q130 0 216.5 -90t86.5 -223q0 -128 -87 -218t-216 -90q-84 0 -153 41.5t-107.5 112t-38.5 154.5z" />
<glyph unicode="&#x2026;" horiz-adv-x="2044" d="M226 162q0 39 14 73t38.5 58.5t57.5 38.5t70 14q75 0 127 -53t52 -131.5t-52 -131t-127 -52.5t-127.5 52.5t-52.5 131.5zM843 162q0 51 24 94t65.5 66.5t90.5 23.5q75 0 127.5 -53t52.5 -131.5t-52.5 -131t-127.5 -52.5t-127.5 52.5t-52.5 131.5zM1460 162q0 51 24 94 t65.5 66.5t90.5 23.5q75 0 127.5 -53t52.5 -131.5t-52.5 -131t-127.5 -52.5t-127.5 52.5t-52.5 131.5z" />
<glyph unicode="&#x2030;" horiz-adv-x="2950" d="M114 1097q0 100 29 177.5t80 126.5t120 74t151 25t150.5 -25t119.5 -74t79.5 -126.5t28.5 -177.5t-28.5 -178t-79.5 -126.5t-119.5 -73.5t-150.5 -25t-151 25t-120 73.5t-80 126.5t-29 178zM376 1097q0 -98 29 -153.5t89 -55.5q116 0 116 209q0 98 -28 154t-88 56 q-41 0 -67.5 -27t-38.5 -73t-12 -110zM441 0l942 1485h268l-941 -1485h-269zM1225 381q0 67 13 124.5t37 101.5t58 78t76.5 55.5t91 32.5t103.5 11q82 0 150.5 -25t119.5 -74t79.5 -126.5t28.5 -177.5t-28.5 -178t-79.5 -126.5t-119.5 -73.5t-151 -25t-150.5 25t-119.5 73.5 t-80 126.5t-28.5 178zM1487 381q0 -209 117 -209q60 0 89 55.5t29 153.5t-29 154t-89 56t-88.5 -56t-28.5 -154zM2079 381q0 100 28.5 177.5t79.5 126.5t119.5 74t151 25t151 -25t119.5 -74t79.5 -126.5t28.5 -177.5t-28.5 -178t-80 -126.5t-119.5 -73.5t-150.5 -25t-151 25 t-119.5 73.5t-79.5 126.5t-28.5 178zM2341 381q0 -209 116 -209q61 0 89.5 55.5t28.5 153.5q0 64 -11.5 109.5t-38.5 73t-68 27.5q-60 0 -88 -56t-28 -154z" />
<glyph unicode="&#x2039;" horiz-adv-x="830" d="M67 543l391 473l245 -128l-264 -345l264 -345l-245 -129z" />
<glyph unicode="&#x203a;" horiz-adv-x="830" d="M129 198l263 345l-263 345l245 128l389 -473l-389 -474z" />
<glyph unicode="&#x2044;" horiz-adv-x="411" d="M-398 0l941 1485h268l-942 -1485h-267z" />
<glyph unicode="&#x20ac;" d="M41 462v200h124q-3 33 -3 68q0 11 5 85h-126v201h161q35 108 93.5 196t138.5 152.5t184.5 100t224.5 35.5q84 0 168.5 -16t144.5 -46v-316q-134 86 -273 86q-63 0 -118.5 -20.5t-102 -64t-77.5 -107.5h507l-65 -201h-493q-5 -38 -5 -78q0 -39 5 -75h480l-66 -200h-369 q28 -61 69 -103.5t96 -65t121 -22.5q135 0 244 78l125 -268q-156 -103 -407 -103t-412.5 129t-220.5 355h-153z" />
<glyph unicode="&#x2122;" horiz-adv-x="2013" d="M22 1262v223h825l-52 -223h-241v-667h-277v667h-255zM888 595v890h236l170 -228q51 -71 101 -158h6q53 92 93 149l164 237h255v-890h-277v327q0 99 4 144h-4q-37 -69 -75 -120l-103 -142h-117l-102 142q-42 61 -74 120h-5q5 -45 5 -144v-327h-277z" />
<glyph unicode="&#x2202;" horiz-adv-x="1245" d="M67 437q0 128 43 235.5t116 179t171.5 111t208.5 39.5q93 0 180 -33l5 2q-29 127 -102.5 195t-183.5 68q-149 0 -293 -86l-90 242q189 110 409 110q196 0 338.5 -87.5t215.5 -246t73 -371.5q0 -185 -44.5 -338t-125.5 -258.5t-195 -163t-250 -57.5q-145 0 -252 53 t-165.5 157t-58.5 249zM415 443q0 -99 43 -149.5t112 -50.5q44 0 83 25.5t73 77t56 142t26 208.5q-64 41 -150 41q-68 0 -123 -36t-87.5 -103.5t-32.5 -154.5z" />
<glyph unicode="&#x2206;" horiz-adv-x="1507" d="M4 0l593 1492h313l593 -1492h-1499zM486 290h541l-202 561q-48 135 -66 215h-4q-20 -88 -65 -215z" />
<glyph unicode="&#x220f;" horiz-adv-x="1625" d="M22 1194v291h1605l-88 -291h-194v-1600h-345v1600h-432v-1600h-345v1600h-201z" />
<glyph unicode="&#x2211;" horiz-adv-x="1425" d="M0 -408l636 967l-600 926h1359l-88 -291h-662l396 -631l-428 -680h739v-291h-1352z" />
<glyph unicode="&#x221a;" horiz-adv-x="1619" d="M95 793l541 194l150 -521q58 -191 79 -337h5q20 136 74 348l350 1386h337l-595 -2138h-338l-281 890l-232 -81z" />
<glyph unicode="&#x221e;" horiz-adv-x="1729" d="M67 619.5q0 84.5 27 159.5t77 132.5t129.5 91t176.5 33.5q64 0 121 -16t104.5 -46.5t85 -64.5t77.5 -80q18 22 36 41t39 38t42.5 35t45.5 31t49.5 26t53.5 19.5t59 12.5t63 4q98 0 177 -33.5t129 -91t76.5 -132.5t26.5 -159.5t-26.5 -159t-77 -132t-129 -90.5t-176.5 -33 q-64 0 -121 16t-105 46t-86 64t-76 79q-40 -45 -78 -79t-86 -64t-104.5 -46t-119.5 -16q-97 0 -176.5 33t-129.5 90.5t-77 132t-27 159zM408 619q0 -51 32 -82.5t78 -31.5q87 0 183 114q-100 116 -183 116q-46 0 -78 -32.5t-32 -83.5zM1030 619q30 -36 57 -60t59.5 -39 t65.5 -15q23 0 43 8t35 23t23.5 36.5t8.5 46.5q0 34 -15 60.5t-40 41t-55 14.5q-48 0 -91 -30t-91 -86z" />
<glyph unicode="&#x222b;" horiz-adv-x="794" d="M-135 -477l66 277q93 -32 142 -32q56 0 85 30t29 85v1304q0 186 102.5 297t295.5 111q146 0 264 -56l-65 -277q-93 32 -142 32q-57 0 -86 -30.5t-29 -85.5v-1304q0 -187 -102.5 -297.5t-295.5 -110.5q-146 0 -264 57z" />
<glyph unicode="&#x2248;" horiz-adv-x="1281" d="M47 324q178 170 381 170q38 0 74.5 -7t66 -17.5t58.5 -23.5t56.5 -26t55 -24t60 -17.5t66.5 -6.5q62 0 108 19.5t106 70.5l155 -221q-176 -168 -380 -168q-39 0 -75.5 6.5t-66 17t-58 23.5t-56.5 26t-55.5 23.5t-60 17.5t-65.5 7q-62 0 -108.5 -20t-106.5 -71zM47 856 q178 169 381 169q38 0 74.5 -6.5t66 -17.5t58.5 -24t56.5 -26t55 -23.5t60 -17.5t66.5 -7q62 0 108 19.5t106 70.5l155 -221q-176 -168 -380 -168q-53 0 -102 12.5t-87.5 30t-76 35.5t-82 30.5t-89.5 12.5q-63 0 -109 -19.5t-106 -69.5z" />
<glyph unicode="&#x2260;" horiz-adv-x="1281" d="M112 165v278h312l107 226h-419v279h555l83 174h342l-82 -174h159v-279h-295l-108 -226h403v-278h-539l-89 -187h-343l90 187h-176z" />
<glyph unicode="&#x2264;" horiz-adv-x="1281" d="M112 0v279h1057v-279h-1057zM155 656v283l978 300v-278l-656 -161v-5l656 -165v-276z" />
<glyph unicode="&#x2265;" horiz-adv-x="1281" d="M112 0v279h1057v-279h-1057zM148 354v276l656 165v5l-656 161v278l978 -300v-283z" />
<glyph unicode="&#x25ca;" horiz-adv-x="1094" d="M101 651l301 651h292l299 -651l-299 -651h-292zM376 651l172 -376h4l166 376l-168 376h-4z" />
<glyph unicode="&#x25fc;" horiz-adv-x="1069" d="M0 0v1070h1070v-1070h-1070z" />
</font>
</defs>
</svg>
