<?xml version="1.0" standalone="no"?>
<!DOCTYPE svg PUBLIC "-//W3C//DTD SVG 1.1//EN" "http://www.w3.org/Graphics/SVG/1.1/DTD/svg11.dtd" >
<svg xmlns="http://www.w3.org/2000/svg">
<metadata></metadata>
<defs>
<font id="bliss_proextralight_italic" horiz-adv-x="787" >
<font-face units-per-em="2048" ascent="1638" descent="-410" />
<missing-glyph horiz-adv-x="427" />
<glyph unicode="&#xfb01;" horiz-adv-x="1135" d="M-189 -434q80 75 140 164.5t107.5 199.5t87 264.5t72 333.5t68.5 433h-146l13 105h148l28 159q19 120 60 194q101 176 303 176q100 0 162 -36l-39 -97q-57 27 -123 27q-196 0 -241 -250l-30 -173h239l-43 -105h-211q-23 -151 -40.5 -260t-41 -234.5t-46.5 -217 t-52.5 -191t-63.5 -175.5t-76 -151t-92.5 -137t-110.5 -115zM701 0l223 1066h117l-224 -1066h-116zM967 1410q0 46 30.5 76t70.5 30q37 0 56.5 -20t19.5 -54q0 -46 -30.5 -76.5t-70.5 -30.5q-25 0 -42 9.5t-25.5 26.5t-8.5 39z" />
<glyph unicode="&#xfb02;" horiz-adv-x="1161" d="M-189 -434q80 75 140 164.5t107.5 199.5t87 264.5t72 333.5t68.5 433h-146l13 105h148l28 159q19 120 60 194q101 176 303 176q100 0 162 -36l-39 -97q-57 27 -123 27q-196 0 -241 -250l-30 -173h239l-43 -105h-211q-23 -151 -40.5 -260t-41 -234.5t-46.5 -217 t-52.5 -191t-63.5 -175.5t-76 -151t-92.5 -137t-110.5 -115zM701 131q0 32 13 97l286 1367h118l-286 -1374q-9 -37 -9 -66q0 -58 60 -58q37 0 88 20v-104q-24 -12 -59 -18t-61 -6q-72 0 -111 35.5t-39 106.5z" />
<glyph horiz-adv-x="2048" />
<glyph horiz-adv-x="2048" />
<glyph unicode="&#xd;" horiz-adv-x="2048" />
<glyph unicode=" "  horiz-adv-x="427" />
<glyph unicode="&#x09;" horiz-adv-x="427" />
<glyph unicode="&#xa0;" horiz-adv-x="427" />
<glyph unicode="!" horiz-adv-x="600" d="M88 69q0 29 12.5 52t34 35.5t48.5 12.5q35 0 58 -26t23 -59q0 -44 -27 -71.5t-68 -27.5q-35 0 -58 25.5t-23 58.5zM196 376q16 188 43 340.5t109 544.5q14 68 22 104l24 120h118l-26 -118q-20 -92 -52 -243.5t-43 -204t-32 -146t-34.5 -142.5t-32.5 -116t-42 -139h-54z " />
<glyph unicode="&#x22;" horiz-adv-x="963" d="M329 1131l108 473l124 -27l-155 -459zM658 1131l108 473l124 -27l-155 -459z" />
<glyph unicode="#" horiz-adv-x="1470" d="M63 417l12 108h317l137 432h-290l11 109h313l131 417h117l-131 -417h313l131 417h117l-130 -417h295l-11 -109h-318l-138 -432h291l-11 -108h-314l-129 -417h-118l131 417h-314l-131 -417h-116l131 417h-296zM509 525h314l136 432h-312z" />
<glyph unicode="$" horiz-adv-x="1155" d="M117 124l43 102q47 -33 117 -56.5t149 -23.5q40 0 77 6t73.5 19t65.5 35.5t52 53.5t35 75.5t12 98.5q0 35 -6.5 66.5t-16 56t-28.5 50.5t-33.5 43t-42 40.5t-43.5 36t-47 35.5q-32 24 -48.5 36.5t-44.5 37t-43 42t-35 45t-29.5 53.5t-17 60t-7.5 71q0 154 103 249.5 t267 105.5l41 200h113l-43 -204q110 -13 200 -59l-23 -108q-116 63 -259 63q-42 0 -81.5 -8t-75 -25.5t-62 -43.5t-42.5 -65t-16 -86t15 -87t41 -71t59 -59.5t69.5 -55.5t73 -55t69.5 -63.5t58.5 -76t40.5 -96.5t15 -121q0 -96 -31 -171t-85.5 -122t-122 -73.5t-146.5 -33.5 l-45 -217h-112l47 217q-148 15 -250 83z" />
<glyph unicode="%" horiz-adv-x="1914" d="M254 1012q0 137 47 247.5t132.5 173.5t194.5 63q119 0 189.5 -74.5t70.5 -215.5q0 -103 -27.5 -193t-76.5 -154.5t-119 -101.5t-151 -37q-119 0 -189.5 75.5t-70.5 216.5zM344 0l1096 1485h119l-1095 -1485h-120zM365 1025q0 -208 157 -208q56 0 104 30t81 81t52 119.5 t19 143.5q0 208 -159 208q-73 0 -132 -51t-90.5 -136.5t-31.5 -186.5zM1004 268q0 138 47 248t133 173t194 63q58 0 105.5 -18t82 -54t53.5 -91.5t19 -126.5q0 -137 -47 -247.5t-132.5 -173.5t-194.5 -63q-119 0 -189.5 74.5t-70.5 215.5zM1115 282q0 -73 19 -119.5 t53.5 -67t85.5 -20.5q73 0 132 51t91 136.5t32 186.5q0 207 -158 207q-74 0 -132.5 -51.5t-90.5 -136.5t-32 -186z" />
<glyph unicode="&#x26;" horiz-adv-x="1705" d="M88 376q0 189 124.5 311.5t346.5 161.5v5q-64 29 -108.5 76t-66 102.5t-21.5 115.5q0 108 57.5 188t153 120t215.5 40q194 0 353 -77l-35 -106q-150 75 -316 75q-39 0 -74.5 -5t-70 -15.5t-62.5 -29t-50 -43.5t-34 -60.5t-12 -78.5q0 -107 74 -179t193 -107l-22 -100 q-151 0 -269 -45t-184 -128t-66 -191q0 -147 90 -233.5t257 -86.5q95 0 183 25t168.5 77.5t147 129.5t117 185.5t78.5 240.5h-191l22 103h543l-43 -103h-214q-34 -163 -98.5 -294t-144.5 -218t-177.5 -145t-196 -83.5t-201.5 -25.5q-134 0 -240 49t-166 140t-60 209z" />
<glyph unicode="'" horiz-adv-x="634" d="M329 1131l108 473l124 -27l-155 -459z" />
<glyph unicode="(" horiz-adv-x="720" d="M183 304q0 169 31.5 349t95.5 366t172.5 371.5t250.5 341.5l78 -72q-242 -272 -374.5 -629.5t-132.5 -714.5q0 -186 21.5 -329t58 -243t98.5 -213l-93 -53q-206 306 -206 826z" />
<glyph unicode=")" horiz-adv-x="720" d="M-90 -451q241 272 374 630t133 715q0 186 -22 329t-58 243t-98 213l92 53q207 -306 207 -827q0 -170 -31.5 -349t-95.5 -365t-172 -371.5t-250 -341.5z" />
<glyph unicode="*" horiz-adv-x="1081" d="M191 1180q57 6 361 23q-19 22 -73.5 82.5t-92.5 105.5t-68 86l84 66q29 -39 64 -93t74 -117t62 -97q12 36 36 109.5t44.5 132t40.5 104.5l97 -43q-13 -30 -28 -62.5t-33.5 -68t-33.5 -63t-36.5 -68t-32.5 -60.5q14 2 153 29.5t205 35.5l11 -106q-49 -6 -111 -9.5t-136 -6 t-114 -4.5q25 -29 75 -85t90 -103t70 -87l-88 -64q-19 27 -39.5 57t-42 63.5t-38.5 61t-40 65t-36 58.5q-11 -33 -34 -106.5t-43 -131t-40 -104.5l-100 40q19 46 46 99.5t65 125.5t52 99q-29 -6 -109 -23t-138.5 -27.5t-108.5 -16.5z" />
<glyph unicode="+" horiz-adv-x="1150" d="M11 520v106h477v507h116v-507h477v-106h-477v-520h-116v520h-477z" />
<glyph unicode="," horiz-adv-x="463" d="M-126 -219q100 105 141.5 212.5t42.5 242.5h133q-5 -166 -65.5 -285t-209.5 -217z" />
<glyph unicode="-" horiz-adv-x="789" d="M67 500l25 113h548l-25 -113h-548z" />
<glyph unicode="." horiz-adv-x="463" d="M18 69q0 29 12 52t34 35.5t48 12.5q36 0 59 -26t23 -59q0 -44 -27 -71.5t-68 -27.5q-36 0 -58.5 25.5t-22.5 58.5z" />
<glyph unicode="/" horiz-adv-x="853" d="M2 -73l735 1641h119l-734 -1641h-120z" />
<glyph unicode="0" horiz-adv-x="1159" d="M77 464q0 130 21 258.5t59.5 242.5t95.5 212t125.5 168.5t153 110.5t175.5 40q118 0 199.5 -52.5t126 -162t44.5 -271.5q0 -130 -21 -258.5t-59.5 -242.5t-95.5 -212t-125.5 -168.5t-153.5 -110.5t-175 -40q-178 0 -274 122t-96 364zM202 441q0 -182 63 -268.5t188 -86.5 q79 0 154.5 48.5t137 137t108 205t72 260t25.5 295.5q0 182 -62 269t-187 87q-66 0 -130 -34.5t-118.5 -96.5t-101 -150t-79.5 -192t-51.5 -226t-18.5 -248z" />
<glyph unicode="1" horiz-adv-x="896" d="M202 1182v106q89 26 217.5 86.5t212.5 121.5h98l-313 -1496h-118l280 1333q-45 -28 -113 -58t-136.5 -53.5t-127.5 -39.5z" />
<glyph unicode="2" horiz-adv-x="1137" d="M32 0q14 96 42 182t58.5 150t79.5 127.5t85.5 103.5t98 89t95 73t96.5 67q64 43 95 65.5t77.5 62.5t68 72t38.5 77.5t17 95.5q0 109 -67.5 166t-185.5 57q-153 0 -346 -90l-32 99q77 40 180 69.5t208 29.5q107 0 190 -37.5t131.5 -111.5t48.5 -175q0 -75 -24 -138 t-65 -112t-95 -93t-116 -86t-126 -86t-126.5 -99t-116 -117.5t-96 -149.5t-65.5 -188h716l-22 -103h-842z" />
<glyph unicode="3" horiz-adv-x="1155" d="M18 65l61 97q58 -35 136 -55.5t161 -20.5q57 0 114 10.5t116 36t103.5 64t73 101t28.5 139.5q0 73 -28.5 125t-83 81t-125 42t-164.5 13h-146l9 108h92q122 0 209 23q61 17 112.5 45.5t93.5 69t66 97t24 122.5q0 76 -37 127.5t-97 74.5t-139 23q-161 0 -329 -83l-32 96 q185 95 374 95q118 0 205 -41t134 -117.5t47 -179.5q0 -143 -88 -242t-239 -153v-4q55 -12 100.5 -34.5t84.5 -59t61 -94t22 -130.5q0 -134 -70 -239.5t-197 -164.5t-289 -59q-207 0 -363 87z" />
<glyph unicode="4" horiz-adv-x="1260" d="M101 516l879 980h95l-205 -984h220l-22 -104h-221l-84 -408h-116l83 408h-613zM236 512h211h308l81 380q53 235 95 396z" />
<glyph unicode="5" horiz-adv-x="1137" d="M18 65l61 97q118 -76 291 -76q65 0 127.5 15t118 46.5t97 76.5t65.5 108.5t24 138.5q0 78 -28.5 135t-82 90.5t-122 49t-154.5 15.5h-189l141 724h699l-30 -105h-567l-104 -513h74q120 0 214.5 -29.5t154 -82t90 -123t30.5 -155.5q0 -148 -72.5 -262t-202 -175.5 t-294.5 -61.5q-111 0 -198.5 25t-142.5 62z" />
<glyph unicode="6" horiz-adv-x="1238" d="M162 500q0 169 38 321.5t110 275t170 212.5t223 138.5t264 48.5q76 0 155 -19l-36 -101q-63 12 -115 12q-97 0 -185.5 -28t-159 -77t-129.5 -115t-101 -144.5t-70 -162t-40 -169.5h4q52 89 158 145.5t219 56.5q178 0 285 -110.5t107 -306.5q0 -65 -16.5 -128.5 t-46.5 -118.5t-73.5 -102t-96 -80t-116 -51.5t-131.5 -18.5q-94 0 -169 30.5t-131.5 92.5t-86.5 163.5t-30 235.5zM293 398q0 -86 31 -155.5t97 -113t158 -43.5q70 0 134.5 29t113 80t77.5 125.5t29 161.5q0 64 -17 118t-50 96.5t-87 66t-123 23.5t-134 -26.5t-116 -75.5 t-82 -123.5t-31 -162.5z" />
<glyph unicode="7" horiz-adv-x="1015" d="M142 0q47 175 109.5 338t131 300.5t152 271t166 244.5t180.5 226h-701l-15 105h892v-59q-127 -143 -242 -302t-219 -338.5t-187 -381t-134 -404.5h-133z" />
<glyph unicode="8" horiz-adv-x="1238" d="M99 354q0 79 28 147t78.5 118.5t112 86.5t135.5 62v4q-89 49 -146 131.5t-57 195.5q0 114 60.5 205t167.5 141.5t240 50.5q121 0 216 -41t150.5 -121t55.5 -186q0 -58 -20.5 -112.5t-54.5 -97t-79.5 -78.5t-94 -61t-100.5 -42v-5q134 -47 205.5 -135.5t71.5 -210.5 q0 -79 -28.5 -148t-78 -119.5t-115 -87.5t-141 -55t-153.5 -18q-133 0 -235 44t-160 130t-58 202zM226 361q0 -60 20 -108t52 -78.5t75.5 -51t87.5 -29t89 -8.5q83 0 154.5 22.5t124 63t83 101t30.5 133.5q0 113 -95.5 191.5t-265.5 116.5q-165 -43 -260 -135.5t-95 -217.5z M376 1104q0 -99 71.5 -182.5t192.5 -115.5q61 15 113.5 35t101.5 49.5t83.5 65.5t55 85t20.5 105q0 62 -24.5 110t-67 77t-96 43t-114.5 14q-49 0 -96 -10t-90.5 -33t-76.5 -55.5t-53 -81t-20 -106.5z" />
<glyph unicode="9" horiz-adv-x="1272" d="M138 22l29 107q37 -17 95 -30t103 -13q250 0 393 154.5t197 449.5h-5q-78 -61 -179.5 -94t-198.5 -33q-80 0 -149 25.5t-122.5 75t-84.5 129.5t-31 181q0 117 37 216t100 165.5t147 103.5t178 37q214 0 334 -146.5t120 -396.5q0 -200 -36 -362.5t-100.5 -275.5 t-155.5 -189.5t-198.5 -112t-232.5 -35.5q-141 0 -240 44zM311 976q0 -141 73.5 -223t208.5 -82q191 0 376 149q11 71 11 137q0 194 -88.5 312.5t-244.5 118.5q-68 0 -129.5 -30t-107 -83.5t-72.5 -131t-27 -167.5z" />
<glyph unicode=":" horiz-adv-x="463" d="M18 69q0 29 12 52t34 35.5t48 12.5q36 0 59 -26t23 -59q0 -44 -27 -71.5t-68 -27.5q-36 0 -58.5 25.5t-22.5 58.5zM189 886q0 43 27 70.5t68 27.5q24 0 43 -12.5t28.5 -32t9.5 -40.5q0 -44 -27 -71.5t-67 -27.5q-36 0 -59 26t-23 60z" />
<glyph unicode=";" horiz-adv-x="463" d="M-126 -219q100 105 141.5 212.5t42.5 242.5h133q-5 -166 -65.5 -285t-209.5 -217zM148 886q0 43 27 70.5t68 27.5q24 0 43 -12.5t28.5 -32t9.5 -40.5q0 -44 -26.5 -71.5t-67.5 -27.5q-36 0 -59 26t-23 60z" />
<glyph unicode="&#x3c;" horiz-adv-x="1382" d="M180 527v118l933 434v-114l-812 -377v-5l812 -376v-115z" />
<glyph unicode="=" horiz-adv-x="1150" d="M30 346v107h1069v-107h-1069zM30 696v106h1069v-106h-1069z" />
<glyph unicode="&#x3e;" horiz-adv-x="1382" d="M271 92v115l810 376v5l-810 377v114l932 -434v-118z" />
<glyph unicode="?" horiz-adv-x="1017" d="M217 69q0 29 12 52t34 35.5t48 12.5q36 0 58.5 -25.5t22.5 -59.5q0 -44 -27 -71.5t-68 -27.5q-36 0 -58 25t-22 59zM262 1365q100 72 189 101.5t185 29.5q59 0 113.5 -16.5t99.5 -48.5t72 -86t27 -122q0 -107 -58 -193q-23 -35 -57.5 -71.5t-69.5 -67t-75.5 -66.5 t-78 -69.5t-74.5 -76t-67 -86.5t-53.5 -100t-36.5 -117h-74q5 98 36.5 182.5t77.5 144t101 112.5t109 98t98 88.5t71.5 96t27.5 110.5q0 90 -57.5 136t-145.5 46q-157 0 -315 -113z" />
<glyph unicode="@" horiz-adv-x="1720" d="M90 428q0 129 29.5 245.5t82 210t126 169t161.5 126t189 78t208 27.5q158 0 295.5 -51.5t236.5 -142.5t156 -222t57 -285q0 -126 -29.5 -226t-81.5 -162.5t-119 -95t-144 -32.5q-87 0 -144.5 51t-67.5 142h-4q-37 -75 -118 -131t-184 -56q-41 0 -78 10.5t-72 36t-60 64 t-40.5 98.5t-15.5 135q0 88 22 167t62 140t94 106t120 68.5t139 23.5q150 0 289 -88l-51 -376q-8 -82 -8 -114q0 -39 6 -68.5t20.5 -53t40 -36t61.5 -12.5q109 0 177.5 111.5t68.5 293.5q0 92 -25.5 179t-78 164t-126.5 135t-177.5 91.5t-225.5 33.5q-91 0 -176.5 -23 t-160 -66.5t-136.5 -109.5t-106 -148t-68.5 -185t-24.5 -218q0 -152 45 -275.5t123.5 -204t184 -123.5t227.5 -43q68 0 143.5 13.5t131.5 38.5l30 -94q-143 -60 -324 -60q-147 0 -273 53t-215.5 148.5t-140.5 235.5t-51 307zM595 421q0 -116 43.5 -179.5t120.5 -63.5 q34 0 66.5 9t69.5 35.5t66 68.5t54 114t37 167l25 198q-69 50 -167 50q-135 0 -225 -113t-90 -286z" />
<glyph unicode="A" horiz-adv-x="1208" d="M-75 0l750 1489h82l259 -1489h-124l-69 410h-563l-204 -410h-131zM314 514h488l-84 522q-4 30 -10 71t-12.5 84t-12.5 82h-5q-12 -25 -28.5 -63t-27.5 -62t-27.5 -59.5t-33.5 -69.5z" />
<glyph unicode="B" horiz-adv-x="1163" d="M32 0l310 1485h277q83 0 150 -20t110.5 -52.5t73 -77t41.5 -91.5t12 -98q0 -136 -69 -232t-196 -144v-4q46 -12 88 -37t75.5 -62t53.5 -88.5t20 -109.5q0 -73 -23.5 -140.5t-73.5 -127.5t-122 -104.5t-177 -70.5t-231 -26h-319zM172 103h220q108 0 196 28t145 76.5 t87.5 113.5t30.5 141q0 116 -76.5 182t-213.5 66h-264zM320 813h221q75 0 135.5 22.5t98 57.5t63 79.5t35.5 87t10 82.5q0 33 -6 62.5t-19 56.5t-34.5 48.5t-50.5 37.5t-69.5 24.5t-88.5 8.5h-178z" />
<glyph unicode="C" horiz-adv-x="1294" d="M101 574q0 109 20.5 212.5t59 194.5t93 170.5t125.5 142.5t153.5 108.5t178.5 69.5t200 24q193 0 360 -84l-27 -107q-64 36 -151 59.5t-176 23.5q-154 0 -287 -62.5t-225 -170t-144.5 -255.5t-52.5 -315q0 -148 51 -260t153 -175.5t243 -63.5q203 0 397 103l27 -101 q-89 -50 -199 -80t-220 -30q-95 0 -180 22t-158.5 69t-126.5 116t-83.5 168.5t-30.5 220.5z" />
<glyph unicode="D" horiz-adv-x="1359" d="M32 0l310 1485h192q243 0 399 -68q157 -68 242 -201.5t85 -334.5q0 -180 -54 -335t-168 -278.5t-279 -190.5q-190 -77 -452 -77h-275zM172 103h161q220 0 381 69q103 44 183.5 117.5t132 166.5t77.5 201t26 226q0 330 -268 444q-128 53 -340 53h-88z" />
<glyph unicode="E" horiz-adv-x="993" d="M32 0l310 1485h640l-43 -105h-502l-117 -567h488l-22 -103h-489l-125 -607h558l-23 -103h-675z" />
<glyph unicode="F" horiz-adv-x="948" d="M32 0l310 1485h640l-43 -105h-502l-117 -567h488l-22 -103h-489l-146 -710h-119z" />
<glyph unicode="G" horiz-adv-x="1421" d="M101 580.5q0 122.5 28 239.5t79.5 218t127 185.5t168 145t206 94t236.5 33.5q202 0 385 -84l-26 -107q-71 36 -166.5 60.5t-183.5 24.5q-152 0 -286.5 -59t-231.5 -162.5t-153 -251t-56 -315.5q0 -107 24 -194t65.5 -146t100 -99.5t126 -58.5t144.5 -18q100 0 188.5 18 t148.5 53l112 537h118l-126 -599q-66 -47 -190.5 -82t-260.5 -35q-89 0 -171 22t-156.5 69.5t-129.5 116.5t-87.5 170.5t-32.5 224z" />
<glyph unicode="H" horiz-adv-x="1398" d="M32 0l310 1485h118l-142 -679h791l142 679h116l-310 -1485h-118l147 703h-791l-147 -703h-116z" />
<glyph unicode="I" horiz-adv-x="490" d="M32 0l310 1485h118l-312 -1485h-116z" />
<glyph unicode="J" horiz-adv-x="585" d="M-316 -376l41 101q60 -24 142 -24q71 0 118 26t78 82q40 71 63 191l311 1485h117l-306 -1463q-37 -178 -86 -267q-44 -80 -119 -121.5t-191 -41.5q-88 0 -168 32z" />
<glyph unicode="K" horiz-adv-x="1141" d="M32 0l310 1485h118l-149 -715h7l680 715h144l-736 -769l518 -716h-146l-483 675h-5l-142 -675h-116z" />
<glyph unicode="L" horiz-adv-x="931" d="M32 0l310 1485h118l-288 -1382h558l-23 -103h-675z" />
<glyph unicode="M" horiz-adv-x="1702" d="M32 0l310 1485h120l241 -703q76 -222 103 -307h5q64 94 167 239l565 771h129l-311 -1485h-118l169 806q52 252 108 464h-4q-139 -197 -205 -286l-486 -655h-81l-226 642q-63 177 -99 299h-4q-9 -39 -20.5 -92.5t-21 -99.5t-21.5 -104t-21 -100l-183 -874h-116z" />
<glyph unicode="N" horiz-adv-x="1483" d="M32 0l310 1485h109l518 -1061q50 -102 101 -222h5q18 111 47 251l213 1032h118l-311 -1485h-88l-534 1092q-67 137 -99 217h-4q-10 -76 -43 -237l-226 -1072h-116z" />
<glyph unicode="O" horiz-adv-x="1571" d="M101 604q0 134 34.5 264t102.5 243t161.5 199.5t219.5 136t269 49.5q131 0 237.5 -39t183.5 -115t119.5 -195t42.5 -273q0 -134 -34.5 -264t-102.5 -244t-161 -201t-219 -137t-269 -50q-131 0 -237.5 39.5t-184 116.5t-120 196.5t-42.5 273.5zM228 602q0 -244 117 -380 t347 -136q103 0 195 32.5t162.5 89.5t127.5 133.5t93.5 165t55.5 183t19 189.5q0 160 -50.5 273t-154 174.5t-254.5 61.5q-105 0 -197.5 -32t-164 -88.5t-128.5 -132t-93.5 -163.5t-55.5 -182t-19 -188z" />
<glyph unicode="P" horiz-adv-x="1073" d="M32 0l310 1485h156q127 0 218 -27q132 -43 204.5 -143.5t72.5 -242.5q0 -177 -108.5 -310t-293.5 -177q-97 -22 -228 -22h-97l-118 -563h-116zM288 667h90q113 0 192 21q144 38 222 142.5t78 248.5q0 64 -19.5 117.5t-64.5 96.5t-113 65q-67 22 -175 22h-61z" />
<glyph unicode="Q" horiz-adv-x="1571" d="M101 604q0 134 34.5 264t102.5 243t161.5 199.5t219.5 136t269 49.5q131 0 237.5 -39t183.5 -115t119.5 -195t42.5 -273q0 -134 -34.5 -264t-102.5 -244t-161 -201t-219 -137t-269 -50q-51 0 -97 9v-5q21 -13 61.5 -48t78 -63t87.5 -58t111 -47.5t126 -17.5q111 0 212 33 l27 -97q-115 -43 -257 -43q-91 0 -182 30t-165.5 79.5t-131.5 101t-104 107.5q-24 29 -64 68t-73 69.5t-69.5 74t-59.5 85.5q-84 152 -84 348zM228 602q0 -244 117 -380t347 -136q103 0 195 32.5t162.5 89.5t127.5 133.5t93.5 165t55.5 183t19 189.5q0 160 -50.5 273 t-154 174.5t-254.5 61.5q-105 0 -197.5 -32t-164 -88.5t-128.5 -132t-93.5 -163.5t-55.5 -182t-19 -188z" />
<glyph unicode="R" horiz-adv-x="1135" d="M32 0l310 1485h237q89 0 162.5 -20.5t123.5 -55t84 -81.5t49.5 -98t15.5 -106q0 -188 -106.5 -298t-307.5 -146v-5q54 -100 105 -211l212 -464h-133l-165 370q-75 167 -139 290h-194l-138 -660h-116zM309 763h146q207 0 321 90t114 260q0 57 -17.5 103.5t-54 84 t-100.5 58.5t-150 21h-131z" />
<glyph unicode="S" horiz-adv-x="1019" d="M18 67l47 100q49 -33 123 -57t158 -24q53 0 100.5 9.5t92 32t77 56t52.5 86t20 117.5q0 58 -16.5 108t-43.5 88t-62.5 72.5t-74.5 65l-78 61t-74.5 66t-62.5 74.5t-43 90.5t-16 111.5q0 112 55 197t151.5 130t218.5 45q161 0 297 -68l-25 -106q-129 68 -274 68 q-57 0 -109.5 -15.5t-96 -45t-69 -79.5t-25.5 -113q0 -44 13 -84t35.5 -71t53 -61.5t64.5 -56t69.5 -55.5t69.5 -58.5t64 -66t52.5 -78t36 -94t13.5 -114.5q0 -87 -26 -158t-70 -119t-104 -81t-127.5 -47.5t-141.5 -14.5q-99 0 -182.5 26t-141.5 63z" />
<glyph unicode="T" horiz-adv-x="1021" d="M148 1380l24 105h991l-43 -105h-419l-289 -1380h-117l288 1380h-435z" />
<glyph unicode="U" horiz-adv-x="1382" d="M131 387q0 73 24 192l189 906h118l-187 -894q-25 -129 -25 -195q0 -154 87.5 -233t243.5 -79q209 0 320 114q91 94 135 298l207 989h118l-213 -1016q-47 -230 -164 -347q-74 -75 -176.5 -109.5t-239.5 -34.5q-206 0 -321.5 107t-115.5 302z" />
<glyph unicode="V" horiz-adv-x="1180" d="M157 1485h129l180 -976q32 -182 50 -313h4q49 112 142 288l518 1001h136l-789 -1492h-80z" />
<glyph unicode="W" horiz-adv-x="1765" d="M157 1485h131l110 -949q23 -190 36 -349h5q75 191 140 327l349 722l-32 249h127l110 -949q19 -161 34 -349h5q55 155 137 327l458 971h135l-724 -1492h-92l-93 730q-29 239 -36 322h-4q-54 -126 -155 -338l-345 -714h-99z" />
<glyph unicode="X" horiz-adv-x="1265" d="M-65 0l613 757l-336 728h132l292 -638l518 638h146l-608 -755l335 -730h-128l-297 642l-521 -642h-146z" />
<glyph unicode="Y" horiz-adv-x="1056" d="M157 1485h129l257 -780h5l509 780h134l-600 -915l-120 -570h-117l117 570z" />
<glyph unicode="Z" horiz-adv-x="1137" d="M-45 0l982 1380h-689l-16 105h912l-979 -1382h768l-23 -103h-955z" />
<glyph unicode="[" horiz-adv-x="675" d="M-22 -522l473 2257h327l-21 -97h-214l-433 -2064h212l-18 -96h-326z" />
<glyph unicode="\" horiz-adv-x="853" d="M144 1568h110l440 -1641h-111z" />
<glyph unicode="]" horiz-adv-x="675" d="M-191 -522l19 96h215l432 2064h-211l18 97h326l-473 -2257h-326z" />
<glyph unicode="^" horiz-adv-x="1382" d="M264 647l368 838h118l370 -838h-116l-310 716h-4l-312 -716h-114z" />
<glyph unicode="_" horiz-adv-x="986" d="M-189 -248l22 100h1014l-22 -100h-1014z" />
<glyph unicode="`" d="M191 1528h151l113 -332h-99z" />
<glyph unicode="a" horiz-adv-x="1010" d="M22 252q0 187 135 289q130 100 393 104l185 2q17 75 17 155q0 182 -206 182q-153 0 -325 -88l-19 106q83 42 176.5 66t175.5 24q43 0 81.5 -6.5t74 -20t64.5 -37t50.5 -54.5t33.5 -74.5t12 -95.5q0 -18 -1 -37t-4 -41t-5 -37.5t-7 -41t-7.5 -36.5t-8.5 -39.5t-8 -35.5 l-16 -76q-43 -202 -43 -316q0 -59 16 -131l-101 -22q-25 99 -25 187q-72 -90 -167 -145t-198 -55q-124 0 -198.5 76.5t-74.5 197.5zM148 268q0 -90 43 -136t127 -46q78 0 156 44.5t137.5 127t78.5 181.5l22 102h-102q-131 0 -220 -17t-145 -58q-97 -69 -97 -198z" />
<glyph unicode="b" horiz-adv-x="1078" d="M34 20l329 1575h117l-108 -516q-12 -59 -50 -198h5q26 42 63 79.5t81 67.5t96.5 47t103.5 17q65 0 120.5 -23t98 -67.5t66.5 -115.5t24 -161q0 -156 -50.5 -293.5t-139.5 -237.5t-217 -158t-276 -58q-72 0 -144 13t-119 29zM169 106q67 -20 151 -20q109 0 206.5 45.5 t170 127t115 202t42.5 262.5q0 37 -6 72t-20.5 69.5t-36.5 60t-57 41.5t-78 16q-57 0 -121 -31.5t-120 -90.5q-118 -126 -163 -346z" />
<glyph unicode="c" horiz-adv-x="968" d="M73 412q0 97 21.5 187.5t60.5 164.5t93.5 136t120 104t141 65t154.5 23q138 0 246 -49l-22 -108q-105 49 -226 49q-63 0 -123 -19.5t-111 -55t-94 -86.5t-73 -111.5t-46.5 -133t-16.5 -148.5q0 -101 31 -177t98 -121.5t164 -45.5q143 0 289 88l28 -93q-65 -46 -154 -74.5 t-172 -28.5q-69 0 -131 18t-113 54t-88 87.5t-57 122t-20 152.5z" />
<glyph unicode="d" horiz-adv-x="1067" d="M73 430q0 88 17 168t48 146t74.5 122t96.5 97.5t112.5 70.5t124.5 43.5t132 14.5q124 0 230 -38l113 541h116l-324 -1550q-57 -28 -146 -47.5t-162 -19.5q-72 0 -136 18t-118.5 55t-94 90.5t-61.5 127t-22 161.5zM198 441q0 -107 34.5 -185.5t108.5 -124t181 -45.5 q48 0 100 10.5t90 27.5l171 822q-102 38 -198 38q-97 0 -185.5 -38t-155.5 -107t-106.5 -172t-39.5 -226z" />
<glyph unicode="e" horiz-adv-x="1015" d="M73 428q0 141 40.5 265t111 211.5t168 137.5t207.5 50q82 0 145.5 -25.5t102.5 -72t58.5 -107.5t19.5 -135q0 -36 -6 -78.5t-16 -81.5t-23 -67l-683 -7q-4 -50 -4 -75q0 -166 79 -261.5t215 -95.5q144 0 290 88l35 -95q-69 -46 -159 -73.5t-174 -27.5q-85 0 -157.5 28.5 t-129 83t-88.5 141.5t-32 197zM217 622l565 6q20 68 20 133q0 33 -5 62t-19 59.5t-37 52t-62 35.5t-91 14q-88 0 -167.5 -50t-132 -132t-71.5 -180z" />
<glyph unicode="f" horiz-adv-x="632" d="M-189 -434q80 75 140 164.5t107.5 199.5t87 264.5t72 333.5t68.5 433h-146l13 105h148l28 159q19 120 60 194q101 176 303 176q100 0 162 -36l-39 -97q-57 27 -123 27q-196 0 -241 -250l-30 -173h239l-43 -105h-211q-23 -151 -40.5 -260t-41 -234.5t-46.5 -217 t-52.5 -191t-63.5 -175.5t-76 -151t-92.5 -137t-110.5 -115z" />
<glyph unicode="g" horiz-adv-x="1098" d="M-20 -453l48 102q125 -77 265 -77q85 0 148 24.5t108.5 76t75.5 124.5t53 178l42 197h-4q-79 -102 -170.5 -147t-175.5 -45q-141 0 -219 91.5t-78 259.5q0 115 24.5 224t77.5 206.5t128 171t182 116.5t233 43q78 0 163 -14t138 -35l-235 -1127q-11 -54 -25 -100 t-35.5 -93t-49 -84t-65.5 -70t-84 -55t-107 -35t-132 -13q-74 0 -155.5 21t-150.5 60zM198 354q0 -57 10 -104t30.5 -84.5t57.5 -58.5t87 -21q39 0 82.5 14t95 51t96 92t85 145t64.5 203l80 370q-78 23 -174 23t-179 -34.5t-143.5 -94.5t-104.5 -139.5t-65.5 -172 t-21.5 -189.5z" />
<glyph unicode="h" horiz-adv-x="1053" d="M22 0l334 1595h117l-112 -541q-18 -96 -54 -205h4q70 108 180.5 175.5t218.5 67.5q103 0 167.5 -62.5t64.5 -189.5q0 -74 -25 -198l-133 -642h-117l133 645q23 109 23 178q0 42 -10.5 73.5t-30 50t-44 27t-55.5 8.5q-76 0 -164 -51t-156 -142q-43 -57 -70.5 -123 t-49.5 -168l-103 -498h-118z" />
<glyph unicode="i" horiz-adv-x="456" d="M22 0l223 1066h118l-223 -1066h-118zM288 1410q0 46 30.5 76t70.5 30q37 0 57 -20t20 -54q0 -46 -30.5 -76.5t-70.5 -30.5q-36 0 -56.5 20.5t-20.5 54.5z" />
<glyph unicode="j" horiz-adv-x="499" d="M-318 -509l34 103q46 -20 99 -20q90 0 137 54.5t76 193.5l260 1244h118l-282 -1337q-15 -72 -46.5 -124.5t-74 -82t-90 -43t-102.5 -13.5q-72 0 -129 25zM331 1410q0 46 30.5 76t70.5 30q19 0 33.5 -5.5t24 -15t14.5 -23t5 -30.5q0 -46 -30.5 -76.5t-70.5 -30.5 q-36 0 -56.5 20.5t-20.5 54.5z" />
<glyph unicode="k" horiz-adv-x="909" d="M22 0l334 1595h117l-198 -948h4l487 419h154l-544 -464l406 -602h-142l-376 568h-4l-120 -568h-118z" />
<glyph unicode="l" horiz-adv-x="529" d="M67 131q0 27 14 97l286 1367h117l-286 -1374q-9 -37 -9 -66q0 -58 61 -58q37 0 88 20v-104q-50 -24 -119 -24q-73 0 -112.5 35.5t-39.5 106.5z" />
<glyph unicode="m" horiz-adv-x="1644" d="M22 0l223 1066h101l-39 -217h4q47 73 105.5 127t127.5 85t139 31q104 0 167 -64q60 -61 60 -182v-12h4q73 115 174.5 186.5t211.5 71.5q104 0 168 -62.5t64 -189.5q0 -68 -25 -198l-133 -642h-117l133 645q22 103 22 178q0 42 -10.5 73.5t-29.5 50t-44 27t-55 8.5 q-148 0 -293 -193q-43 -57 -70.5 -123t-49.5 -168l-103 -498h-117l132 645q23 109 23 178q0 42 -10.5 73.5t-29.5 50t-44 27t-55 8.5q-148 0 -293 -193q-43 -57 -70.5 -123t-49.5 -168l-103 -498h-118z" />
<glyph unicode="n" horiz-adv-x="1053" d="M22 0l223 1066h101l-39 -217h4q70 108 180.5 175.5t218.5 67.5q103 0 167.5 -62.5t64.5 -189.5q0 -74 -25 -198l-133 -642h-117l133 645q23 109 23 178q0 42 -10.5 73.5t-30 50t-44 27t-55.5 8.5q-76 0 -164 -51t-156 -142q-43 -57 -70.5 -123t-49.5 -168l-103 -498h-118 z" />
<glyph unicode="o" horiz-adv-x="1098" d="M73 365q0 129 29.5 244t82 202t122.5 151t152 97t169 33q95 0 168 -31t116.5 -85t65.5 -122.5t22 -148.5q0 -160 -46 -298t-123.5 -231t-178 -145.5t-209.5 -52.5q-95 0 -167.5 31t-116 85.5t-65 122.5t-21.5 148zM198 378q0 -292 251 -292q79 0 148 34.5t119 94 t86.5 137t54 164.5t17.5 176q0 292 -250 292q-79 0 -148 -34.5t-119 -93.5t-86.5 -136.5t-54.5 -165t-18 -176.5z" />
<glyph unicode="p" horiz-adv-x="1085" d="M-88 -534l331 1583q159 43 288 43q93 0 169 -23t128.5 -63t88.5 -95t53 -118.5t17 -134.5q0 -129 -35.5 -240.5t-96.5 -191t-141 -136.5t-170 -84.5t-183 -27.5q-114 0 -219 29l-112 -541h-118zM167 117q68 -31 184 -31q114 0 209.5 43.5t161 119t102 178.5t36.5 222 q0 162 -86.5 248.5t-253.5 86.5q-83 0 -178 -25z" />
<glyph unicode="q" horiz-adv-x="1105" d="M73 329q0 117 26 228t81 208t132.5 170t186.5 115t238 42q65 0 147.5 -14t140.5 -35l-329 -1577h-117l106 509q7 32 22 98t21 99h-5q-85 -102 -177.5 -148t-175.5 -46q-141 0 -219 92t-78 259zM198 349q0 -45 6 -83t20 -72t35 -57.5t53 -37t73 -13.5q39 0 82.5 14 t95.5 51t97.5 92t87 145.5t65.5 202.5l79 370q-95 23 -180 23q-96 0 -179 -34.5t-143.5 -95t-104.5 -141t-65.5 -173.5t-21.5 -191z" />
<glyph unicode="r" horiz-adv-x="660" d="M22 0l223 1066h101l-39 -217h4q53 118 137.5 180.5t175.5 62.5q62 0 104 -22l-50 -115q-33 16 -81 16q-52 0 -104.5 -32t-101 -93.5t-89 -159t-66.5 -220.5l-96 -466h-118z" />
<glyph unicode="s" horiz-adv-x="761" d="M-41 50l45 98q104 -62 230 -62q49 0 92 12t77 35t54 60.5t20 83.5q0 40 -14 75.5t-37.5 61.5t-53.5 53t-61 50t-61 53t-53.5 61t-38 74t-14.5 93q0 129 87 211.5t246 82.5q129 0 221 -35l-18 -104q-105 34 -196 34q-97 0 -157.5 -45t-60.5 -136q0 -38 14.5 -72.5 t38 -59.5t53.5 -51.5t61 -49.5t61 -53t53.5 -62.5t38 -78t14.5 -97.5q0 -93 -49 -162.5t-132 -105.5t-187 -36q-161 0 -273 72z" />
<glyph unicode="t" horiz-adv-x="697" d="M106 961l23 105h168l52 239l126 43l-60 -282h292l-43 -105h-270l-146 -693q-9 -42 -9 -81q0 -101 103 -101q86 0 178 60l34 -94q-50 -36 -111.5 -55t-120.5 -19q-68 0 -115 23.5t-68.5 64.5t-21.5 96q0 34 14 113l144 686h-169z" />
<glyph unicode="u" horiz-adv-x="1069" d="M79 226q0 74 24 198l133 642h118l-133 -645q-23 -109 -23 -178q0 -82 38.5 -119.5t101.5 -37.5q64 0 125 26t108 69t86 98.5t64.5 115t37.5 119.5l115 552h117l-126 -606q-40 -195 -40 -309q0 -67 15 -138l-101 -22q-22 89 -22 180q0 23 1 46h-4q-70 -107 -179.5 -173 t-212.5 -66q-110 0 -176.5 60.5t-66.5 187.5z" />
<glyph unicode="v" horiz-adv-x="933" d="M92 1066h117l109 -613q33 -197 45 -288h4q62 125 147 286l322 615h133l-586 -1073h-93z" />
<glyph unicode="w" horiz-adv-x="1441" d="M92 1066h115l86 -591q24 -172 36 -301h4q34 86 114 256l299 636h103l68 -589q18 -168 29 -303h4q30 72 112 254l283 638h130l-504 -1073h-106l-65 592q-21 188 -30 289h-4q-66 -155 -130 -293l-282 -588h-104z" />
<glyph unicode="x" horiz-adv-x="922" d="M-81 0l448 543l-261 523h124l221 -438l357 438h134l-437 -530l273 -536h-129l-228 453l-374 -453h-128z" />
<glyph unicode="y" horiz-adv-x="931" d="M-286 -505l41 103q53 -24 116 -24q62 0 114.5 19t107 64.5t109 127t112.5 202.5l-233 1079h126l129 -623q24 -112 60 -297h6q56 133 123 275l309 645h135l-552 -1120q-56 -115 -110.5 -198t-106 -137t-108.5 -86.5t-112.5 -45.5t-123.5 -13q-90 0 -142 29z" />
<glyph unicode="z" horiz-adv-x="796" d="M-52 0l633 961h-448l-16 105h665l-636 -963h496l-20 -103h-674z" />
<glyph unicode="{" horiz-adv-x="738" d="M92 557l25 116q106 6 156 71q24 33 36 92l110 525q33 155 93 225q46 58 119 91.5t182 48.5v-111q-75 -12 -125 -36.5t-86 -67.5q-44 -52 -68 -178l-106 -499q-21 -93 -47 -136q-27 -38 -61.5 -58t-80.5 -32v-4q41 -10 70 -43.5t29 -94.5q0 -67 -18 -146l-88 -428 q-11 -60 -11 -99q0 -73 38 -117t130 -65l-45 -107q-132 30 -190.5 96t-58.5 174q0 49 19 140l98 469q7 29 7 58q0 110 -127 116z" />
<glyph unicode="|" horiz-adv-x="508" d="M200 -534v2291h111v-2291h-111z" />
<glyph unicode="}" horiz-adv-x="738" d="M-151 -385q76 11 126 36t85 67q44 53 69 179l105 499q21 93 48 135q18 27 42 45.5t46.5 28t53.5 17.5v4q-42 10 -71 44t-29 98q0 63 18 142l88 429q11 60 11 99q0 73 -38 117t-130 65l45 106q132 -30 191 -96t59 -175q0 -49 -20 -139l-97 -469q-8 -35 -8 -58 q0 -110 127 -116l-24 -116q-107 -6 -157 -71q-22 -31 -35 -92l-111 -525q-33 -155 -92 -225q-47 -58 -120 -91.5t-182 -48.5v111z" />
<glyph unicode="~" horiz-adv-x="1150" d="M45 557q70 73 133 106t133 33q50 0 122.5 -22t133.5 -48.5t127.5 -49t107.5 -22.5q52 0 91 23t98 79l75 -68q-70 -73 -133 -106t-133 -33q-47 0 -120 22t-136 48.5t-130.5 49t-104.5 22.5q-52 0 -90.5 -23.5t-98.5 -79.5z" />
<glyph unicode="&#xa1;" horiz-adv-x="600" d="M4 -408l26 118q18 86 45 213.5t38.5 180.5t30 137.5t29 127t26.5 104.5t31.5 113t35.5 112h54q-16 -185 -42.5 -334.5t-106.5 -531.5q-16 -78 -25 -120l-24 -120h-118zM252 989q0 29 12.5 51.5t34 35t47.5 12.5q36 0 59 -26t23 -60q0 -43 -27 -71t-68 -28 q-24 0 -42.5 12.5t-28.5 32t-10 41.5z" />
<glyph unicode="&#xa2;" horiz-adv-x="1137" d="M196 647q0 125 39 236t105.5 189.5t154 128.5t185.5 63l45 221h113l-45 -219q111 -7 187 -43l-23 -105q-100 47 -211 47q-119 0 -217 -68t-154.5 -187t-56.5 -263q0 -143 71 -227t202 -84q136 0 267 81l30 -93q-64 -42 -149.5 -67t-170.5 -25l-50 -232h-112l52 250 q-37 12 -69.5 30.5t-62 43.5t-53 58.5t-41 72.5t-27 88t-9.5 104z" />
<glyph unicode="&#xa3;" horiz-adv-x="1155" d="M73 0l15 97q214 106 295 613h-174l19 103h170l30 206q20 151 63 238q32 67 79 115t99.5 74t104 38t105.5 12q31 0 65.5 -4.5t71 -14.5t65.5 -24l-45 -97q-74 34 -157 34q-37 0 -73.5 -9t-75 -29t-72.5 -58t-58 -91q-32 -73 -48 -189l-30 -201h409l-41 -103h-381 q-76 -487 -255 -602v-5h201h448l-17 -103h-813z" />
<glyph unicode="&#xa5;" horiz-adv-x="1155" d="M63 288l21 104h363l39 201h-372l21 103h323l-256 789h129l232 -746h5l468 746h136l-503 -789h322l-20 -103h-365l-43 -201h376l-19 -104h-377l-61 -288h-117l59 288h-361z" />
<glyph unicode="&#xa7;" horiz-adv-x="1213" d="M54 -268l63 96q54 -38 132.5 -66t169.5 -28q52 0 100 9t92 30t76 51.5t51 75.5t19 100q0 48 -16.5 90t-44.5 73t-66 60t-80 52.5t-87 50t-87 51t-79.5 58t-66 69.5t-45 85t-16.5 105q0 106 66.5 197.5t174.5 144.5q-101 94 -101 230q0 54 14.5 103t41.5 88.5t65 72 t85 54.5t103 33.5t117 11.5q160 0 297 -68l-26 -106q-126 67 -273 67q-58 0 -110.5 -15t-95.5 -44t-69 -76.5t-26 -107.5q0 -31 8.5 -59t19.5 -49.5t34 -44.5t40 -38t50.5 -35.5t53 -31l58.5 -31.5q35 -19 53 -29t51 -29.5t51 -33t45.5 -36t42.5 -42t33.5 -47t28 -55 t16 -61.5t6.5 -72q0 -75 -29.5 -143t-79 -119t-116.5 -91q83 -87 83 -219q0 -77 -25.5 -142t-70 -109.5t-104 -75.5t-127.5 -45.5t-142 -14.5q-210 0 -358 106zM293 707q0 -52 21 -96.5t54.5 -76t82 -64t94 -57t101 -58.5t93.5 -65q71 50 115.5 121t44.5 159q0 54 -20 101 t-50 79.5t-76 65.5t-87.5 55.5t-96.5 54t-92 56.5q-83 -43 -133.5 -113t-50.5 -162z" />
<glyph unicode="&#xa8;" d="M135 1350q0 39 26 65.5t62 26.5q22 0 38 -9t24 -25t8 -36q0 -40 -26 -66.5t-62 -26.5q-22 0 -38 9.5t-24 25t-8 36.5zM518 1350q0 39 26 65.5t62 26.5q33 0 51 -19.5t18 -50.5q0 -40 -25 -66.5t-62 -26.5q-33 0 -51.5 19.5t-18.5 51.5z" />
<glyph unicode="&#xa9;" horiz-adv-x="1765" d="M124 737q0 157 57.5 297t156 241.5t238 161t297 59.5t297 -59.5t238 -161t155.5 -241.5t57 -297t-57 -297t-155.5 -241.5t-238 -161t-297 -59.5t-297 59.5t-238 161t-156 241.5t-57.5 297zM223 737q0 -142 49.5 -267.5t135.5 -215.5t206.5 -142t258 -52t258 52t206 142 t134.5 215.5t49 267.5t-49 267t-135 214t-206 140.5t-257.5 51.5t-258 -51.5t-206.5 -140.5t-135.5 -214t-49.5 -267zM488 725q0 73 17.5 141t52 126t83.5 101t116.5 67.5t145.5 24.5q116 0 206 -50v-94q-91 53 -206 53q-142 0 -227 -99t-85 -258q0 -171 80.5 -266 t220.5 -95q65 0 114.5 16.5t97.5 44.5l31 -74q-48 -32 -114.5 -53.5t-137.5 -21.5q-93 0 -169 34.5t-124.5 94.5t-75 139t-26.5 169z" />
<glyph unicode="&#xaa;" horiz-adv-x="707" d="M-60 322l19 97h632l-21 -97h-630zM67 793q0 60 20.5 108t55 79t83 52t101 29.5t112.5 8.5h120q11 50 11 95q0 112 -136 112q-103 0 -227 -58l-22 92q122 65 256 65q115 0 173.5 -55.5t58.5 -153.5q0 -58 -28 -185l-13 -49q-28 -123 -28 -210q0 -44 15 -104l-90 -19 q-17 57 -20 112h-2q-111 -119 -239 -119q-60 0 -105.5 25t-70.5 70.5t-25 104.5zM178 804q0 -26 6.5 -46.5t19.5 -35.5t33 -22.5t47 -7.5q77 0 149 67.5t94 166.5l11 50h-78q-282 0 -282 -172z" />
<glyph unicode="&#xab;" horiz-adv-x="1126" d="M56 543l440 467l76 -73l-376 -403l251 -399l-88 -58zM488 543l440 467l76 -73l-376 -403l251 -399l-88 -58z" />
<glyph unicode="&#xac;" horiz-adv-x="1150" d="M0 520v106h1070v-626h-115v520h-955z" />
<glyph unicode="&#xae;" horiz-adv-x="1310" d="M169 950.5q0 113.5 40.5 214.5t110.5 173.5t170 115t215 42.5t215 -42.5t170 -115t110.5 -173.5t40.5 -214.5t-40.5 -214.5t-110.5 -173.5t-170 -114.5t-215 -42t-215 42t-170 114.5t-110.5 173.5t-40.5 214.5zM250 950q0 -99 33.5 -185.5t92.5 -149.5t144.5 -99 t184.5 -36q133 0 237.5 62t161 169t56.5 239.5t-56.5 239.5t-161 169t-237.5 62t-237.5 -62t-161 -169t-56.5 -240zM541 673v580h134q64 0 111 -17q48 -18 72.5 -56t24.5 -86q0 -124 -139 -150v-5q27 -21 60 -72.5t101 -167.5q3 -6 5 -9t4.5 -8t5.5 -9h-86q-40 70 -58.5 101 t-43 70t-40.5 56.5t-30 23.5h-49v-251h-72zM613 984h49q140 0 140 108q0 20 -6 37.5t-17.5 29.5t-26.5 19q-30 13 -92 13h-47v-207z" />
<glyph unicode="&#xaf;" d="M135 1298l22 103h523l-22 -103h-523z" />
<glyph unicode="&#xb0;" horiz-adv-x="909" d="M178 1140q0 147 99 246t245.5 99t245.5 -99t99 -246t-99 -246t-245.5 -99t-245.5 99t-99 246zM288 1140q0 -106 68 -176t166 -70q65 0 119 31.5t85 88t31 126t-31 126.5t-85 88.5t-118.5 31.5t-118.5 -31.5t-85 -88.5t-31 -126z" />
<glyph unicode="&#xb1;" horiz-adv-x="1150" d="M11 0v106h1070v-106h-1070zM11 619v106h477v379h116v-379h477v-106h-477v-378h-116v378h-477z" />
<glyph unicode="&#xb4;" d="M304 1196l173 332h151l-224 -332h-100z" />
<glyph unicode="&#xb5;" horiz-adv-x="1130" d="M-90 -534l335 1600h118l-133 -640q-23 -109 -23 -170q0 -88 43 -128t109 -40t129 28t118.5 81.5t98.5 139.5t65 194l113 535h117l-160 -769q-20 -104 -20 -135q0 -24 7 -38.5t21.5 -20.5t37.5 -6q38 0 71 13v-106q-42 -15 -95 -15q-146 0 -146 151q0 32 4 58h-4 q-71 -102 -170.5 -161t-203.5 -59q-62 0 -113 25.5t-76 82.5h-5q-10 -101 -47 -277l-71 -343h-120z" />
<glyph unicode="&#xb6;" horiz-adv-x="1277" d="M165 899q0 126 45 234t126.5 186t202 122t265.5 44h392l-381 -1846h-119l358 1735h-259l-358 -1735h-119l180 873q-152 6 -242.5 112t-90.5 275z" />
<glyph unicode="&#xb7;" horiz-adv-x="463" d="M106 568q0 43 26.5 71t67.5 28q36 0 59 -26t23 -60q0 -44 -27 -71.5t-68 -27.5q-24 0 -43 12.5t-28.5 32t-9.5 41.5z" />
<glyph unicode="&#xb8;" d="M194 -447l38 82q44 -24 106 -24t103 26.5t41 76.5q0 89 -183 81l95 205h106l-59 -126q71 -5 112.5 -46.5t41.5 -102.5q0 -51 -21 -91t-56.5 -63.5t-80 -35.5t-95.5 -12q-79 0 -148 30z" />
<glyph unicode="&#xba;" horiz-adv-x="770" d="M-25 322l21 97h651l-21 -97h-651zM92 870q0 108 33.5 204t88.5 161t126 103t146 38q55 0 100 -15.5t75.5 -42t51.5 -62.5t30 -76.5t9 -85.5q0 -106 -33 -201t-88 -160t-126.5 -102.5t-145.5 -37.5q-69 0 -121.5 23.5t-83.5 63t-46.5 88t-15.5 102.5zM202 883 q0 -87 37 -139t122 -52q62 0 116 34t89.5 90.5t55.5 127t20 144.5q0 85 -37 137t-121 52q-61 0 -115 -34.5t-90 -90.5t-56.5 -126.5t-20.5 -142.5z" />
<glyph unicode="&#xbb;" horiz-adv-x="1126" d="M50 148l376 404l-250 398l88 60l301 -467l-439 -466zM482 148l376 404l-250 398l88 60l302 -467l-439 -466z" />
<glyph unicode="&#xbf;" horiz-adv-x="1017" d="M15 -148q0 105 60 193q26 39 66 80.5t81.5 77.5t87.5 76t88.5 83.5t79.5 92.5t65 111.5t42 131.5h75q-5 -97 -36.5 -181.5t-78 -144.5t-101 -112.5t-108 -97.5t-98 -88.5t-71.5 -96t-27 -110.5q0 -61 28 -103t72.5 -61t101.5 -19q158 0 316 114l45 -88 q-100 -73 -189 -102t-185 -29q-59 0 -113.5 16.5t-100 48.5t-73 85.5t-27.5 122.5zM572 991q0 43 27 71t68 28q18 0 33.5 -7.5t25.5 -19.5t16 -27.5t6 -31.5q0 -43 -27 -71t-68 -28q-35 0 -58 26t-23 60z" />
<glyph unicode="&#xc0;" horiz-adv-x="1208" d="M-75 0l750 1489h82l259 -1489h-124l-69 410h-563l-204 -410h-131zM314 514h488l-84 522q-4 30 -10 71t-12.5 84t-12.5 82h-5q-12 -25 -28.5 -63t-27.5 -62t-27.5 -59.5t-33.5 -69.5zM514 1899h150l114 -331h-100z" />
<glyph unicode="&#xc1;" horiz-adv-x="1208" d="M-75 0l750 1489h82l259 -1489h-124l-69 410h-563l-204 -410h-131zM314 514h488l-84 522q-4 30 -10 71t-12.5 84t-12.5 82h-5q-12 -25 -28.5 -63t-27.5 -62t-27.5 -59.5t-33.5 -69.5zM675 1568l174 331h151l-224 -331h-101z" />
<glyph unicode="&#xc2;" horiz-adv-x="1208" d="M-75 0l750 1489h82l259 -1489h-124l-69 410h-563l-204 -410h-131zM314 514h488l-84 522q-4 30 -10 71t-12.5 84t-12.5 82h-5q-12 -25 -28.5 -63t-27.5 -62t-27.5 -59.5t-33.5 -69.5zM437 1568l266 331h129l174 -331h-112l-133 246l-204 -246h-120z" />
<glyph unicode="&#xc3;" horiz-adv-x="1208" d="M-75 0l750 1489h82l259 -1489h-124l-69 410h-563l-204 -410h-131zM314 514h488l-84 522q-4 30 -10 71t-12.5 84t-12.5 82h-5q-12 -25 -28.5 -63t-27.5 -62t-27.5 -59.5t-33.5 -69.5zM428 1642q8 100 56.5 150t117.5 50q33 0 66 -11.5t59 -28t50.5 -33t49.5 -28t47 -11.5 q65 0 81 99h99q-4 -51 -19.5 -90t-39 -62.5t-52.5 -35.5t-62 -12t-66 11.5t-59 28t-50.5 33t-50 28t-47.5 11.5q-65 0 -81 -99h-99z" />
<glyph unicode="&#xc4;" horiz-adv-x="1208" d="M-75 0l750 1489h82l259 -1489h-124l-69 410h-563l-204 -410h-131zM314 514h488l-84 522q-4 30 -10 71t-12.5 84t-12.5 82h-5q-12 -25 -28.5 -63t-27.5 -62t-27.5 -59.5t-33.5 -69.5zM462 1664q0 40 26 66.5t62 26.5q33 0 51 -19t18 -51q0 -39 -26 -65.5t-62 -26.5 q-33 0 -51 19t-18 50zM845 1664q0 40 26 66.5t62 26.5q33 0 51 -19t18 -51q0 -39 -26 -65.5t-62 -26.5q-33 0 -51 19t-18 50z" />
<glyph unicode="&#xc5;" horiz-adv-x="1208" d="M-75 0l744 1477q-67 15 -107 65t-40 122q0 105 68 167.5t167 62.5q90 0 146 -53t56 -140q0 -95 -57 -156.5t-143 -71.5l257 -1473h-124l-69 410h-563l-204 -410h-131zM314 514h488l-84 522q-4 30 -10 71t-12.5 84t-12.5 82h-5q-12 -25 -28.5 -63t-27.5 -62t-27.5 -59.5 t-33.5 -69.5zM622 1664q0 -50 29 -81t77 -31q59 0 95.5 41t36.5 108q0 50 -28.5 81.5t-76.5 31.5q-60 0 -96.5 -42t-36.5 -108z" />
<glyph unicode="&#xc6;" horiz-adv-x="1628" d="M-151 0l1018 1485h670l-37 -105h-494l-73 -567h482l-16 -103h-479l-80 -607h553l-17 -103h-666l53 410h-499l-277 -410h-138zM333 514h445l110 810h-5q-141 -215 -214 -322z" />
<glyph unicode="&#xc7;" horiz-adv-x="1294" d="M101 574q0 109 20.5 212.5t59 194.5t93 170.5t125.5 142.5t153.5 108.5t178.5 69.5t200 24q193 0 360 -84l-27 -107q-64 36 -151 59.5t-176 23.5q-154 0 -287 -62.5t-225 -170t-144.5 -255.5t-52.5 -315q0 -148 51 -260t153 -175.5t243 -63.5q203 0 397 103l27 -101 q-58 -33 -125 -57t-141.5 -38t-147.5 -15l-47 -104q71 -5 112 -46.5t41 -102.5q0 -51 -21 -91t-57 -63.5t-80.5 -35.5t-94.5 -12q-79 0 -149 30l39 82q44 -24 106 -24t103 26.5t41 76.5q0 89 -182 81l85 190q-103 14 -188 56t-151.5 112.5t-103.5 178.5t-37 242z" />
<glyph unicode="&#xc8;" horiz-adv-x="993" d="M32 0l310 1485h640l-43 -105h-502l-117 -567h488l-22 -103h-489l-125 -607h558l-23 -103h-675zM482 1899h150l114 -331h-99z" />
<glyph unicode="&#xc9;" horiz-adv-x="993" d="M32 0l310 1485h640l-43 -105h-502l-117 -567h488l-22 -103h-489l-125 -607h558l-23 -103h-675zM593 1568l173 331h151l-225 -331h-99z" />
<glyph unicode="&#xca;" horiz-adv-x="993" d="M32 0l310 1485h640l-43 -105h-502l-117 -567h488l-22 -103h-489l-125 -607h558l-23 -103h-675zM383 1568l266 331h129l175 -331h-113l-133 246l-204 -246h-120z" />
<glyph unicode="&#xcb;" horiz-adv-x="993" d="M32 0l310 1485h640l-43 -105h-502l-117 -567h488l-22 -103h-489l-125 -607h558l-23 -103h-675zM412 1664q0 40 26 66.5t62 26.5q34 0 52 -19t18 -51q0 -39 -26 -65.5t-62 -26.5q-33 0 -51.5 19t-18.5 50zM795 1664q0 40 26 66.5t62 26.5q33 0 51.5 -19t18.5 -51 q0 -39 -26 -65.5t-62 -26.5q-33 0 -51.5 19t-18.5 50z" />
<glyph unicode="&#xcc;" horiz-adv-x="490" d="M32 0l310 1485h118l-312 -1485h-116zM226 1899h150l112 -331h-99z" />
<glyph unicode="&#xcd;" horiz-adv-x="490" d="M32 0l310 1485h118l-312 -1485h-116zM351 1568l174 331h150l-224 -331h-100z" />
<glyph unicode="&#xce;" horiz-adv-x="490" d="M32 0l310 1485h118l-312 -1485h-116zM129 1568l265 331h128l176 -331h-113l-132 246l-205 -246h-119z" />
<glyph unicode="&#xcf;" horiz-adv-x="490" d="M32 0l310 1485h118l-312 -1485h-116zM155 1664q0 40 26 66.5t62 26.5q33 0 52 -19t19 -51q0 -39 -26 -65.5t-62 -26.5q-34 0 -52.5 19t-18.5 50zM538 1664q0 40 26 66.5t62 26.5q33 0 51.5 -19t18.5 -51q0 -39 -26 -65.5t-62 -26.5q-33 0 -51.5 19t-18.5 50z" />
<glyph unicode="&#xd0;" horiz-adv-x="1359" d="M-11 692l22 103h187l144 690h192q243 0 399 -68q327 -142 327 -547q0 -124 -31.5 -242.5t-92 -224t-157.5 -191t-220 -135.5q-190 -77 -452 -77h-275l144 692h-187zM172 103h161q220 0 381 69q103 44 183.5 116.5t132 165t77.5 199.5t26 224q0 336 -268 450 q-128 53 -340 53h-88l-121 -585h387l-23 -103h-387z" />
<glyph unicode="&#xd1;" horiz-adv-x="1483" d="M32 0l310 1485h109l518 -1061q50 -102 101 -222h5q18 111 47 251l213 1032h118l-311 -1485h-88l-534 1092q-67 137 -99 217h-4q-10 -76 -43 -237l-226 -1072h-116zM615 1642q8 100 56.5 150t117.5 50q40 0 81.5 -17.5t69.5 -38.5t61.5 -38.5t60.5 -17.5q64 0 80 99h99 q-4 -51 -19.5 -90t-39 -62.5t-52.5 -35.5t-62 -12t-66 11.5t-59 28t-50.5 33t-50 28t-47.5 11.5q-65 0 -81 -99h-99z" />
<glyph unicode="&#xd2;" horiz-adv-x="1571" d="M101 604q0 134 34.5 264t102.5 243t161.5 199.5t219.5 136t269 49.5q131 0 237.5 -39t183.5 -115t119.5 -195t42.5 -273q0 -134 -34.5 -264t-102.5 -244t-161 -201t-219 -137t-269 -50q-131 0 -237.5 39.5t-184 116.5t-120 196.5t-42.5 273.5zM228 602q0 -244 117 -380 t347 -136q103 0 195 32.5t162.5 89.5t127.5 133.5t93.5 165t55.5 183t19 189.5q0 160 -50.5 273t-154 174.5t-254.5 61.5q-105 0 -197.5 -32t-164 -88.5t-128.5 -132t-93.5 -163.5t-55.5 -182t-19 -188zM730 1899h151l112 -331h-99z" />
<glyph unicode="&#xd3;" horiz-adv-x="1571" d="M101 604q0 134 34.5 264t102.5 243t161.5 199.5t219.5 136t269 49.5q131 0 237.5 -39t183.5 -115t119.5 -195t42.5 -273q0 -134 -34.5 -264t-102.5 -244t-161 -201t-219 -137t-269 -50q-131 0 -237.5 39.5t-184 116.5t-120 196.5t-42.5 273.5zM228 602q0 -244 117 -380 t347 -136q103 0 195 32.5t162.5 89.5t127.5 133.5t93.5 165t55.5 183t19 189.5q0 160 -50.5 273t-154 174.5t-254.5 61.5q-105 0 -197.5 -32t-164 -88.5t-128.5 -132t-93.5 -163.5t-55.5 -182t-19 -188zM840 1568l174 331h151l-226 -331h-99z" />
<glyph unicode="&#xd4;" horiz-adv-x="1571" d="M101 604q0 134 34.5 264t102.5 243t161.5 199.5t219.5 136t269 49.5q131 0 237.5 -39t183.5 -115t119.5 -195t42.5 -273q0 -134 -34.5 -264t-102.5 -244t-161 -201t-219 -137t-269 -50q-131 0 -237.5 39.5t-184 116.5t-120 196.5t-42.5 273.5zM228 602q0 -244 117 -380 t347 -136q103 0 195 32.5t162.5 89.5t127.5 133.5t93.5 165t55.5 183t19 189.5q0 160 -50.5 273t-154 174.5t-254.5 61.5q-105 0 -197.5 -32t-164 -88.5t-128.5 -132t-93.5 -163.5t-55.5 -182t-19 -188zM645 1568l265 331h128l176 -331h-113l-132 246l-206 -246h-118z" />
<glyph unicode="&#xd5;" horiz-adv-x="1571" d="M101 604q0 134 34.5 264t102.5 243t161.5 199.5t219.5 136t269 49.5q131 0 237.5 -39t183.5 -115t119.5 -195t42.5 -273q0 -134 -34.5 -264t-102.5 -244t-161 -201t-219 -137t-269 -50q-131 0 -237.5 39.5t-184 116.5t-120 196.5t-42.5 273.5zM228 602q0 -244 117 -380 t347 -136q103 0 195 32.5t162.5 89.5t127.5 133.5t93.5 165t55.5 183t19 189.5q0 160 -50.5 273t-154 174.5t-254.5 61.5q-105 0 -197.5 -32t-164 -88.5t-128.5 -132t-93.5 -163.5t-55.5 -182t-19 -188zM626 1642q8 100 56.5 150t117.5 50q40 0 81.5 -17.5t69.5 -38.5 t61.5 -38.5t59.5 -17.5q66 0 82 99h99q-4 -51 -19.5 -90t-39.5 -62.5t-53 -35.5t-62 -12t-66 11.5t-59 28t-50.5 33t-50 28t-47.5 11.5q-65 0 -81 -99h-99z" />
<glyph unicode="&#xd6;" horiz-adv-x="1571" d="M101 604q0 134 34.5 264t102.5 243t161.5 199.5t219.5 136t269 49.5q131 0 237.5 -39t183.5 -115t119.5 -195t42.5 -273q0 -134 -34.5 -264t-102.5 -244t-161 -201t-219 -137t-269 -50q-131 0 -237.5 39.5t-184 116.5t-120 196.5t-42.5 273.5zM228 602q0 -244 117 -380 t347 -136q103 0 195 32.5t162.5 89.5t127.5 133.5t93.5 165t55.5 183t19 189.5q0 160 -50.5 273t-154 174.5t-254.5 61.5q-105 0 -197.5 -32t-164 -88.5t-128.5 -132t-93.5 -163.5t-55.5 -182t-19 -188zM660 1664q0 40 26 66.5t62 26.5q33 0 51 -19t18 -51 q0 -39 -25.5 -65.5t-61.5 -26.5q-22 0 -38 9t-24 24.5t-8 35.5zM1043 1664q0 40 26 66.5t62 26.5q33 0 51.5 -19t18.5 -51q0 -39 -26 -65.5t-62 -26.5q-16 0 -29.5 5t-22.5 14.5t-13.5 22t-4.5 27.5z" />
<glyph unicode="&#xd8;" horiz-adv-x="1571" d="M65 56l140 149q-104 157 -104 399q0 134 34.5 264t102.5 243t161.5 199.5t219.5 136t269 49.5q253 0 403 -138l139 147l77 -72l-146 -156q110 -157 110 -403q0 -134 -34.5 -264t-102.5 -244t-161 -201t-219 -137t-269 -50q-259 0 -412 146l-131 -139zM228 602 q0 -188 65 -305l917 976q-119 115 -324 115q-105 0 -197.5 -32t-164 -88.5t-128.5 -132t-93.5 -163.5t-55.5 -182t-19 -188zM354 209q120 -123 338 -123q103 0 195 32.5t162.5 89.5t127.5 133.5t93.5 165t55.5 183t19 189.5q0 187 -70 308z" />
<glyph unicode="&#xd9;" horiz-adv-x="1382" d="M131 387q0 73 24 192l189 906h118l-187 -894q-25 -129 -25 -195q0 -154 87.5 -233t243.5 -79q209 0 320 114q91 94 135 298l207 989h118l-213 -1016q-47 -230 -164 -347q-74 -75 -176.5 -109.5t-239.5 -34.5q-206 0 -321.5 107t-115.5 302zM651 1899h151l112 -331h-99z " />
<glyph unicode="&#xda;" horiz-adv-x="1382" d="M131 387q0 73 24 192l189 906h118l-187 -894q-25 -129 -25 -195q0 -154 87.5 -233t243.5 -79q209 0 320 114q91 94 135 298l207 989h118l-213 -1016q-47 -230 -164 -347q-74 -75 -176.5 -109.5t-239.5 -34.5q-206 0 -321.5 107t-115.5 302zM793 1568l174 331h151 l-226 -331h-99z" />
<glyph unicode="&#xdb;" horiz-adv-x="1382" d="M131 387q0 73 24 192l189 906h118l-187 -894q-25 -129 -25 -195q0 -154 87.5 -233t243.5 -79q209 0 320 114q91 94 135 298l207 989h118l-213 -1016q-47 -230 -164 -347q-74 -75 -176.5 -109.5t-239.5 -34.5q-206 0 -321.5 107t-115.5 302zM576 1568l267 331h128 l175 -331h-112l-133 246l-205 -246h-120z" />
<glyph unicode="&#xdc;" horiz-adv-x="1382" d="M131 387q0 73 24 192l189 906h118l-187 -894q-25 -129 -25 -195q0 -154 87.5 -233t243.5 -79q209 0 320 114q91 94 135 298l207 989h118l-213 -1016q-47 -230 -164 -347q-74 -75 -176.5 -109.5t-239.5 -34.5q-206 0 -321.5 107t-115.5 302zM613 1664q0 40 26 66.5 t62 26.5q33 0 51 -19t18 -51q0 -39 -25.5 -65.5t-61.5 -26.5q-33 0 -51.5 19t-18.5 50zM996 1664q0 40 25.5 66.5t62.5 26.5q33 0 51.5 -19t18.5 -51q0 -39 -26 -65.5t-62 -26.5q-22 0 -38 9t-24 24.5t-8 35.5z" />
<glyph unicode="&#xdd;" horiz-adv-x="1056" d="M157 1485h129l257 -780h5l509 780h134l-600 -915l-120 -570h-117l117 570zM613 1568l173 331h151l-225 -331h-99z" />
<glyph unicode="&#xde;" horiz-adv-x="1073" d="M32 0l310 1485h118l-54 -262h37q128 0 219 -27q132 -42 204.5 -143t72.5 -242q0 -177 -109 -310t-294 -177q-102 -23 -227 -23h-97l-64 -301h-116zM234 406h90q118 0 192 20q144 38 221.5 142.5t77.5 248.5q0 99 -47.5 172.5t-148.5 107.5q-71 23 -176 23h-60z" />
<glyph unicode="&#xdf;" horiz-adv-x="1236" d="M0 -318l316 1512q27 140 92 229q43 59 101.5 98.5t120 56.5t127.5 17q84 0 154 -22.5t121 -66t79.5 -112.5t28.5 -158q0 -54 -11 -129q-193 -4 -292.5 -71t-99.5 -176q0 -45 16.5 -86t43.5 -73.5t59.5 -64.5t65 -67t59 -73t43.5 -89.5t17 -109.5q0 -100 -49 -173 t-131.5 -109.5t-187.5 -36.5q-160 0 -271 72l45 98q103 -62 226 -62q49 0 92.5 12t78.5 36.5t55.5 64.5t20.5 91q0 40 -13.5 77.5t-34.5 66.5t-48.5 60.5t-56 58.5t-56 60t-49 66t-34.5 76.5t-13 91.5q0 151 108 245t296 107q2 11 2 49q0 64 -21 112t-58 75.5t-81 40.5 t-95 13q-269 0 -334 -307l-310 -1500h-122z" />
<glyph unicode="&#xe0;" horiz-adv-x="1010" d="M22 252q0 187 135 289q130 100 393 104l185 2q17 75 17 155q0 182 -206 182q-153 0 -325 -88l-19 106q83 42 176.5 66t175.5 24q43 0 81.5 -6.5t74 -20t64.5 -37t50.5 -54.5t33.5 -74.5t12 -95.5q0 -18 -1 -37t-4 -41t-5 -37.5t-7 -41t-7.5 -36.5t-8.5 -39.5t-8 -35.5 l-16 -76q-43 -202 -43 -316q0 -59 16 -131l-101 -22q-25 99 -25 187q-72 -90 -167 -145t-198 -55q-124 0 -198.5 76.5t-74.5 197.5zM148 268q0 -90 43 -136t127 -46q78 0 156 44.5t137.5 127t78.5 181.5l22 102h-102q-131 0 -220 -17t-145 -58q-97 -69 -97 -198zM383 1528 h151l113 -332h-99z" />
<glyph unicode="&#xe1;" horiz-adv-x="1010" d="M22 252q0 187 135 289q130 100 393 104l185 2q17 75 17 155q0 182 -206 182q-153 0 -325 -88l-19 106q83 42 176.5 66t175.5 24q43 0 81.5 -6.5t74 -20t64.5 -37t50.5 -54.5t33.5 -74.5t12 -95.5q0 -18 -1 -37t-4 -41t-5 -37.5t-7 -41t-7.5 -36.5t-8.5 -39.5t-8 -35.5 l-16 -76q-43 -202 -43 -316q0 -59 16 -131l-101 -22q-25 99 -25 187q-72 -90 -167 -145t-198 -55q-124 0 -198.5 76.5t-74.5 197.5zM148 268q0 -90 43 -136t127 -46q78 0 156 44.5t137.5 127t78.5 181.5l22 102h-102q-131 0 -220 -17t-145 -58q-97 -69 -97 -198zM496 1196 l173 332h151l-225 -332h-99z" />
<glyph unicode="&#xe2;" horiz-adv-x="1010" d="M22 252q0 187 135 289q130 100 393 104l185 2q17 75 17 155q0 182 -206 182q-153 0 -325 -88l-19 106q83 42 176.5 66t175.5 24q43 0 81.5 -6.5t74 -20t64.5 -37t50.5 -54.5t33.5 -74.5t12 -95.5q0 -18 -1 -37t-4 -41t-5 -37.5t-7 -41t-7.5 -36.5t-8.5 -39.5t-8 -35.5 l-16 -76q-43 -202 -43 -316q0 -59 16 -131l-101 -22q-25 99 -25 187q-72 -90 -167 -145t-198 -55q-124 0 -198.5 76.5t-74.5 197.5zM148 268q0 -90 43 -136t127 -46q78 0 156 44.5t137.5 127t78.5 181.5l22 102h-102q-131 0 -220 -17t-145 -58q-97 -69 -97 -198zM286 1196 l266 332h128l176 -332h-112l-134 246l-204 -246h-120z" />
<glyph unicode="&#xe3;" horiz-adv-x="1010" d="M22 252q0 187 135 289q130 100 393 104l185 2q17 75 17 155q0 182 -206 182q-153 0 -325 -88l-19 106q83 42 176.5 66t175.5 24q43 0 81.5 -6.5t74 -20t64.5 -37t50.5 -54.5t33.5 -74.5t12 -95.5q0 -18 -1 -37t-4 -41t-5 -37.5t-7 -41t-7.5 -36.5t-8.5 -39.5t-8 -35.5 l-16 -76q-43 -202 -43 -316q0 -59 16 -131l-101 -22q-25 99 -25 187q-72 -90 -167 -145t-198 -55q-124 0 -198.5 76.5t-74.5 197.5zM148 268q0 -90 43 -136t127 -46q78 0 156 44.5t137.5 127t78.5 181.5l22 102h-102q-131 0 -220 -17t-145 -58q-97 -69 -97 -198zM277 1255 q8 100 56.5 150t117.5 50q40 0 81.5 -17.5t69 -38.5t61 -38.5t60.5 -17.5q65 0 81 99h99q-4 -51 -19.5 -90t-39 -63t-52.5 -36t-62 -12q-40 0 -81 17.5t-69.5 39t-62 39t-59.5 17.5q-66 0 -82 -99h-99z" />
<glyph unicode="&#xe4;" horiz-adv-x="1010" d="M22 252q0 187 135 289q130 100 393 104l185 2q17 75 17 155q0 182 -206 182q-153 0 -325 -88l-19 106q83 42 176.5 66t175.5 24q43 0 81.5 -6.5t74 -20t64.5 -37t50.5 -54.5t33.5 -74.5t12 -95.5q0 -18 -1 -37t-4 -41t-5 -37.5t-7 -41t-7.5 -36.5t-8.5 -39.5t-8 -35.5 l-16 -76q-43 -202 -43 -316q0 -59 16 -131l-101 -22q-25 99 -25 187q-72 -90 -167 -145t-198 -55q-124 0 -198.5 76.5t-74.5 197.5zM148 268q0 -90 43 -136t127 -46q78 0 156 44.5t137.5 127t78.5 181.5l22 102h-102q-131 0 -220 -17t-145 -58q-97 -69 -97 -198zM327 1350 q0 19 7 36.5t19 29.5t28 19t34 7q22 0 37.5 -9t23.5 -25t8 -36q0 -40 -26 -66.5t-62 -26.5q-22 0 -38 9.5t-23.5 25t-7.5 36.5zM710 1350q0 39 25.5 65.5t62.5 26.5q32 0 50.5 -19.5t18.5 -50.5q0 -40 -25.5 -66.5t-61.5 -26.5q-33 0 -51.5 19.5t-18.5 51.5z" />
<glyph unicode="&#xe5;" horiz-adv-x="1010" d="M22 252q0 187 135 289q130 100 393 104l185 2q17 75 17 155q0 182 -206 182q-153 0 -325 -88l-19 106q83 42 176.5 66t175.5 24q43 0 81.5 -6.5t74 -20t64.5 -37t50.5 -54.5t33.5 -74.5t12 -95.5q0 -18 -1 -37t-4 -41t-5 -37.5t-7 -41t-7.5 -36.5t-8.5 -39.5t-8 -35.5 l-16 -76q-43 -202 -43 -316q0 -59 16 -131l-101 -22q-25 99 -25 187q-72 -90 -167 -145t-198 -55q-124 0 -198.5 76.5t-74.5 197.5zM148 268q0 -90 43 -136t127 -46q78 0 156 44.5t137.5 127t78.5 181.5l22 102h-102q-131 0 -220 -17t-145 -58q-97 -69 -97 -198zM394 1374 q0 105 68 167.5t166 62.5q91 0 147.5 -53.5t56.5 -140.5q0 -104 -68 -167t-167 -63q-90 0 -146.5 53.5t-56.5 140.5zM494 1374q0 -51 28.5 -81.5t77.5 -30.5q59 0 96 41t37 107q0 51 -29.5 81.5t-77.5 30.5q-59 0 -95.5 -41t-36.5 -107z" />
<glyph unicode="&#xe6;" horiz-adv-x="1644" d="M22 262q0 112 58.5 193t179 126t294.5 47l174 2q20 98 20 170q0 97 -49.5 140.5t-157.5 43.5q-148 0 -320 -88l-19 106q55 28 115.5 48.5t119.5 31t111 10.5q55 0 103 -10.5t90 -33t71 -62t39 -92.5h5q62 95 160 146.5t212 51.5q82 0 145.5 -25.5t102.5 -72t58.5 -107.5 t19.5 -135q0 -56 -13 -119.5t-32 -98.5l-682 -7q-4 -55 -4 -80q0 -170 79 -265.5t216 -95.5q142 0 288 88l36 -95q-45 -30 -101 -53t-117 -35.5t-117 -12.5q-136 0 -236 73.5t-130 212.5h-4q-68 -135 -185 -210.5t-248 -75.5t-206.5 77.5t-75.5 206.5zM148 268 q0 -85 43.5 -133.5t126.5 -48.5q60 0 120 25.5t112 72.5t91 120t55 160l11 61l-142 -3q-200 -3 -308.5 -68t-108.5 -186zM845 632l565 8q20 51 20 121q0 33 -5 61.5t-19.5 59.5t-38 52.5t-64 35.5t-93.5 14q-85 0 -163 -49.5t-130.5 -129.5t-71.5 -173z" />
<glyph unicode="&#xe7;" horiz-adv-x="968" d="M73 412q0 146 47.5 274t128.5 216.5t189 139t226 50.5q138 0 246 -49l-22 -108q-105 49 -226 49q-94 0 -179.5 -42.5t-148 -116t-99.5 -177t-37 -218.5q0 -101 31 -177t98 -121.5t164 -45.5q143 0 289 88l28 -93q-60 -43 -147.5 -71.5t-169.5 -31.5l-48 -104 q71 -5 112.5 -46.5t41.5 -102.5q0 -51 -20.5 -91t-56.5 -63.5t-80.5 -35.5t-95.5 -12q-79 0 -148 30l38 82q44 -24 106 -24q63 0 103.5 26.5t40.5 76.5q0 89 -183 81l88 192q-139 26 -227.5 138.5t-88.5 286.5z" />
<glyph unicode="&#xe8;" horiz-adv-x="1015" d="M73 428q0 141 40.5 265t111 211.5t168 137.5t207.5 50q82 0 145.5 -25.5t102.5 -72t58.5 -107.5t19.5 -135q0 -36 -6 -78.5t-16 -81.5t-23 -67l-683 -7q-4 -50 -4 -75q0 -166 79 -261.5t215 -95.5q144 0 290 88l35 -95q-69 -46 -159 -73.5t-174 -27.5q-85 0 -157.5 28.5 t-129 83t-88.5 141.5t-32 197zM217 622l565 6q20 68 20 133q0 33 -5 62t-19 59.5t-37 52t-62 35.5t-91 14q-88 0 -167.5 -50t-132 -132t-71.5 -180zM406 1528h151l112 -332h-99z" />
<glyph unicode="&#xe9;" horiz-adv-x="1015" d="M73 428q0 141 40.5 265t111 211.5t168 137.5t207.5 50q82 0 145.5 -25.5t102.5 -72t58.5 -107.5t19.5 -135q0 -36 -6 -78.5t-16 -81.5t-23 -67l-683 -7q-4 -50 -4 -75q0 -166 79 -261.5t215 -95.5q144 0 290 88l35 -95q-69 -46 -159 -73.5t-174 -27.5q-85 0 -157.5 28.5 t-129 83t-88.5 141.5t-32 197zM217 622l565 6q20 68 20 133q0 33 -5 62t-19 59.5t-37 52t-62 35.5t-91 14q-88 0 -167.5 -50t-132 -132t-71.5 -180zM550 1196l173 332h151l-225 -332h-99z" />
<glyph unicode="&#xea;" horiz-adv-x="1015" d="M73 428q0 141 40.5 265t111 211.5t168 137.5t207.5 50q82 0 145.5 -25.5t102.5 -72t58.5 -107.5t19.5 -135q0 -36 -6 -78.5t-16 -81.5t-23 -67l-683 -7q-4 -50 -4 -75q0 -166 79 -261.5t215 -95.5q144 0 290 88l35 -95q-69 -46 -159 -73.5t-174 -27.5q-85 0 -157.5 28.5 t-129 83t-88.5 141.5t-32 197zM217 622l565 6q20 68 20 133q0 33 -5 62t-19 59.5t-37 52t-62 35.5t-91 14q-88 0 -167.5 -50t-132 -132t-71.5 -180zM327 1196l266 332h127l176 -332h-112l-133 246l-204 -246h-120z" />
<glyph unicode="&#xeb;" horiz-adv-x="1015" d="M73 428q0 141 40.5 265t111 211.5t168 137.5t207.5 50q82 0 145.5 -25.5t102.5 -72t58.5 -107.5t19.5 -135q0 -36 -6 -78.5t-16 -81.5t-23 -67l-683 -7q-4 -50 -4 -75q0 -166 79 -261.5t215 -95.5q144 0 290 88l35 -95q-69 -46 -159 -73.5t-174 -27.5q-85 0 -157.5 28.5 t-129 83t-88.5 141.5t-32 197zM217 622l565 6q20 68 20 133q0 33 -5 62t-19 59.5t-37 52t-62 35.5t-91 14q-88 0 -167.5 -50t-132 -132t-71.5 -180zM349 1350q0 19 7 36.5t19 29.5t28 19t34 7q33 0 51.5 -19.5t18.5 -50.5q0 -40 -26 -66.5t-62 -26.5q-33 0 -51.5 19.5 t-18.5 51.5zM733 1350q0 26 11.5 47.5t31.5 33t44 11.5q22 0 38 -9t24 -25t8 -36q0 -40 -26 -66.5t-62 -26.5q-33 0 -51 19.5t-18 51.5z" />
<glyph unicode="&#xec;" horiz-adv-x="456" d="M25 0l223 1066h117l-223 -1066h-117zM135 1528h151l112 -332h-99z" />
<glyph unicode="&#xed;" horiz-adv-x="456" d="M25 0l223 1066h117l-223 -1066h-117zM260 1196l172 332h151l-224 -332h-99z" />
<glyph unicode="&#xee;" horiz-adv-x="456" d="M25 0l223 1066h117l-223 -1066h-117zM41 1196l266 332h127l176 -332h-112l-133 246l-205 -246h-119z" />
<glyph unicode="&#xef;" horiz-adv-x="456" d="M25 0l223 1066h117l-223 -1066h-117zM79 1350q0 39 26 65.5t62 26.5q33 0 51 -19.5t18 -50.5q0 -40 -25.5 -66.5t-62.5 -26.5q-22 0 -37.5 9.5t-23.5 25t-8 36.5zM462 1350q0 19 7 36.5t19 29.5t28 19t34 7q33 0 51 -19.5t18 -50.5q0 -40 -26 -66.5t-62 -26.5 q-22 0 -37.5 9.5t-23.5 25t-8 36.5z" />
<glyph unicode="&#xf0;" horiz-adv-x="1114" d="M73 396q0 124 30 235t83 194t121.5 144t148 92t161.5 31q99 0 170.5 -40.5t111.5 -103.5h4q-31 277 -207 413l-279 -136l-41 84l228 108q-128 64 -311 77l25 101q238 -19 405 -120l248 120l41 -84l-208 -99q212 -194 212 -565q0 -168 -30.5 -311t-84 -244.5t-126 -173 t-156.5 -106t-176 -34.5q-78 0 -141 22.5t-105.5 61.5t-70.5 92.5t-40.5 113.5t-12.5 128zM198 404q0 -318 251 -318q64 0 122 22.5t103.5 62t82.5 94.5t62.5 120t39.5 137t15 147q4 149 -61.5 232t-188.5 83q-77 0 -145 -31.5t-118.5 -87t-87.5 -129t-56 -158.5t-19 -174z " />
<glyph unicode="&#xf1;" horiz-adv-x="1053" d="M22 0l223 1066h101l-39 -217h4q70 108 180.5 175.5t218.5 67.5q103 0 167.5 -62.5t64.5 -189.5q0 -74 -25 -198l-133 -642h-117l133 645q23 109 23 178q0 42 -10.5 73.5t-30 50t-44 27t-55.5 8.5q-76 0 -164 -51t-156 -142q-43 -57 -70.5 -123t-49.5 -168l-103 -498h-118 zM331 1255q8 100 56.5 150t117.5 50q33 0 66 -11.5t59 -28t50.5 -33t50 -28t47.5 -11.5q64 0 80 99h99q-8 -100 -56 -150.5t-117 -50.5q-40 0 -81.5 17.5t-69.5 39t-61.5 39t-59.5 17.5q-66 0 -82 -99h-99z" />
<glyph unicode="&#xf2;" horiz-adv-x="1098" d="M73 365q0 129 29.5 244t82 202t122.5 151t152 97t169 33q95 0 168 -31t116.5 -85t65.5 -122.5t22 -148.5q0 -160 -46 -298t-123.5 -231t-178 -145.5t-209.5 -52.5q-95 0 -167.5 31t-116 85.5t-65 122.5t-21.5 148zM198 378q0 -292 251 -292q79 0 148 34.5t119 94 t86.5 137t54 164.5t17.5 176q0 292 -250 292q-79 0 -148 -34.5t-119 -93.5t-86.5 -136.5t-54.5 -165t-18 -176.5zM458 1528h150l112 -332h-98z" />
<glyph unicode="&#xf3;" horiz-adv-x="1098" d="M73 365q0 129 29.5 244t82 202t122.5 151t152 97t169 33q95 0 168 -31t116.5 -85t65.5 -122.5t22 -148.5q0 -160 -46 -298t-123.5 -231t-178 -145.5t-209.5 -52.5q-95 0 -167.5 31t-116 85.5t-65 122.5t-21.5 148zM198 378q0 -292 251 -292q79 0 148 34.5t119 94 t86.5 137t54 164.5t17.5 176q0 292 -250 292q-79 0 -148 -34.5t-119 -93.5t-86.5 -136.5t-54.5 -165t-18 -176.5zM591 1196l172 332h151l-224 -332h-99z" />
<glyph unicode="&#xf4;" horiz-adv-x="1098" d="M73 365q0 129 29.5 244t82 202t122.5 151t152 97t169 33q95 0 168 -31t116.5 -85t65.5 -122.5t22 -148.5q0 -160 -46 -298t-123.5 -231t-178 -145.5t-209.5 -52.5q-95 0 -167.5 31t-116 85.5t-65 122.5t-21.5 148zM198 378q0 -292 251 -292q79 0 148 34.5t119 94 t86.5 137t54 164.5t17.5 176q0 292 -250 292q-79 0 -148 -34.5t-119 -93.5t-86.5 -136.5t-54.5 -165t-18 -176.5zM394 1196l266 332h129l176 -332h-114l-133 246l-204 -246h-120z" />
<glyph unicode="&#xf5;" horiz-adv-x="1098" d="M73 365q0 129 29.5 244t82 202t122.5 151t152 97t169 33q95 0 168 -31t116.5 -85t65.5 -122.5t22 -148.5q0 -160 -46 -298t-123.5 -231t-178 -145.5t-209.5 -52.5q-95 0 -167.5 31t-116 85.5t-65 122.5t-21.5 148zM198 378q0 -292 251 -292q79 0 148 34.5t119 94 t86.5 137t54 164.5t17.5 176q0 292 -250 292q-79 0 -148 -34.5t-119 -93.5t-86.5 -136.5t-54.5 -165t-18 -176.5zM372 1255q8 100 56.5 150t117.5 50q40 0 81 -17.5t69 -38.5t61.5 -38.5t59.5 -17.5q66 0 82 99h99q-8 -100 -56 -150.5t-117 -50.5q-33 0 -66 11.5t-59 28 t-50.5 33.5t-50 28.5t-47.5 11.5q-65 0 -81 -99h-99z" />
<glyph unicode="&#xf6;" horiz-adv-x="1098" d="M73 365q0 129 29.5 244t82 202t122.5 151t152 97t169 33q95 0 168 -31t116.5 -85t65.5 -122.5t22 -148.5q0 -160 -46 -298t-123.5 -231t-178 -145.5t-209.5 -52.5q-95 0 -167.5 31t-116 85.5t-65 122.5t-21.5 148zM198 378q0 -292 251 -292q79 0 148 34.5t119 94 t86.5 137t54 164.5t17.5 176q0 292 -250 292q-79 0 -148 -34.5t-119 -93.5t-86.5 -136.5t-54.5 -165t-18 -176.5zM421 1350q0 19 7.5 36.5t19.5 29.5t28 19t33 7q22 0 38 -9t24 -25t8 -36q0 -40 -26 -66.5t-62 -26.5q-22 0 -38 9.5t-24 25t-8 36.5zM804 1350q0 39 26 65.5 t62 26.5q33 0 51 -19.5t18 -50.5q0 -40 -25 -66.5t-62 -26.5q-33 0 -51.5 19.5t-18.5 51.5z" />
<glyph unicode="&#xf7;" horiz-adv-x="1150" d="M11 520v106h1070v-106h-1070zM458 191q0 25 11.5 46t31.5 34t45 13q36 0 61 -27.5t25 -65t-25 -65t-61.5 -27.5t-62 27.5t-25.5 64.5zM458 952.5q0 37.5 25.5 65t62 27.5t61.5 -27.5t25 -64.5q0 -25 -11 -46t-31 -34t-44 -13q-37 0 -62.5 27.5t-25.5 65z" />
<glyph unicode="&#xf8;" horiz-adv-x="1098" d="M41 28l90 105q-58 93 -58 232q0 129 29.5 244t82 202t122.5 151t152 97t169 33q148 0 239 -73l77 92l75 -66l-84 -101q65 -98 65 -239q0 -160 -46 -298t-123.5 -231t-178 -145.5t-209.5 -52.5q-155 0 -249 80l-80 -96zM198 378q0 -82 19 -139l576 689q-63 56 -169 56 q-79 0 -148 -34.5t-119 -93.5t-86.5 -136.5t-54.5 -165t-18 -176.5zM271 148q59 -62 178 -62q79 0 148 34.5t119 94t86.5 137t54 164.5t17.5 176t-25 151z" />
<glyph unicode="&#xf9;" horiz-adv-x="1069" d="M79 226q0 74 24 198l133 642h118l-133 -645q-23 -109 -23 -178q0 -82 38.5 -119.5t101.5 -37.5q64 0 125 26t108 69t86 98.5t64.5 115t37.5 119.5l115 552h117l-126 -606q-40 -195 -40 -309q0 -67 15 -138l-101 -22q-28 111 -21 226h-4q-70 -107 -179.5 -173t-212.5 -66 q-110 0 -176.5 60.5t-66.5 187.5zM441 1528h152l112 -332h-99z" />
<glyph unicode="&#xfa;" horiz-adv-x="1069" d="M79 226q0 74 24 198l133 642h118l-133 -645q-23 -109 -23 -178q0 -82 38.5 -119.5t101.5 -37.5q64 0 125 26t108 69t86 98.5t64.5 115t37.5 119.5l115 552h117l-126 -606q-40 -195 -40 -309q0 -67 15 -138l-101 -22q-28 111 -21 226h-4q-70 -107 -179.5 -173t-212.5 -66 q-110 0 -176.5 60.5t-66.5 187.5zM581 1196l174 332h150l-225 -332h-99z" />
<glyph unicode="&#xfb;" horiz-adv-x="1069" d="M79 226q0 74 24 198l133 642h118l-133 -645q-23 -109 -23 -178q0 -82 38.5 -119.5t101.5 -37.5q64 0 125 26t108 69t86 98.5t64.5 115t37.5 119.5l115 552h117l-126 -606q-40 -195 -40 -309q0 -67 15 -138l-101 -22q-28 111 -21 226h-4q-70 -107 -179.5 -173t-212.5 -66 q-110 0 -176.5 60.5t-66.5 187.5zM349 1196l266 332h129l176 -332h-114l-133 246l-204 -246h-120z" />
<glyph unicode="&#xfc;" horiz-adv-x="1069" d="M79 226q0 74 24 198l133 642h118l-133 -645q-23 -109 -23 -178q0 -82 38.5 -119.5t101.5 -37.5q64 0 125 26t108 69t86 98.5t64.5 115t37.5 119.5l115 552h117l-126 -606q-40 -195 -40 -309q0 -67 15 -138l-101 -22q-28 111 -21 226h-4q-70 -107 -179.5 -173t-212.5 -66 q-110 0 -176.5 60.5t-66.5 187.5zM383 1350q0 19 7 36.5t19 29.5t28 19t34 7q33 0 51.5 -19.5t18.5 -50.5q0 -40 -26 -66.5t-62 -26.5q-33 0 -51.5 19.5t-18.5 51.5zM766 1350q0 39 25.5 65.5t62.5 26.5q33 0 51.5 -19.5t18.5 -50.5q0 -40 -26 -66.5t-62 -26.5 q-33 0 -51.5 19.5t-18.5 51.5z" />
<glyph unicode="&#xfd;" horiz-adv-x="931" d="M-286 -505l41 103q53 -24 116 -24q62 0 114.5 19t107 64.5t109 127t112.5 202.5l-233 1079h126l129 -623q24 -112 60 -297h6q56 133 123 275l309 645h135l-552 -1120q-56 -115 -110.5 -198t-106 -137t-108.5 -86.5t-112.5 -45.5t-123.5 -13q-90 0 -142 29zM471 1196 l174 332h150l-225 -332h-99z" />
<glyph unicode="&#xfe;" horiz-adv-x="1085" d="M-88 -534l447 2129h116l-108 -520q73 17 164 17q115 0 204 -35t143 -97t81.5 -141.5t27.5 -173.5q0 -113 -27 -210.5t-73.5 -169t-107.5 -127.5t-132 -90.5t-143 -52t-143 -17.5q-114 0 -219 29l-112 -541h-118zM167 117q68 -31 184 -31q107 0 200.5 39t162 109.5 t107.5 175t39 228.5q0 170 -86.5 258t-253.5 88q-83 0 -178 -25z" />
<glyph unicode="&#xff;" horiz-adv-x="931" d="M-286 -505l41 103q53 -24 116 -24q62 0 114.5 19t107 64.5t109 127t112.5 202.5l-233 1079h126l129 -623q24 -112 60 -297h6q56 133 123 275l309 645h135l-552 -1120q-56 -115 -110.5 -198t-106 -137t-108.5 -86.5t-112.5 -45.5t-123.5 -13q-90 0 -142 29zM279 1350 q0 39 26 65.5t62 26.5q22 0 38 -9t24 -25t8 -36q0 -40 -26 -66.5t-62 -26.5q-33 0 -51.5 19.5t-18.5 51.5zM662 1350q0 39 26 65.5t62 26.5q33 0 51.5 -19.5t18.5 -50.5q0 -40 -25.5 -66.5t-61.5 -26.5q-33 0 -52 19.5t-19 51.5z" />
<glyph unicode="&#x131;" horiz-adv-x="456" d="M25 0l223 1066h117l-223 -1066h-117z" />
<glyph unicode="&#x152;" horiz-adv-x="1853" d="M101 595q0 142 35.5 274.5t108 246.5t174.5 198.5t244 133t308 48.5q59 0 200.5 -5.5t225.5 -5.5h445l-42 -105h-502l-118 -567h490l-23 -103h-489l-126 -607h559l-23 -103h-478q-65 0 -200 -10t-189 -10q-136 0 -246.5 40t-189 116.5t-121.5 193.5t-43 265zM228 610 q0 -79 12.5 -148t38.5 -128t67 -104.5t95 -77.5t125.5 -49t156.5 -17q76 0 189 11l268 1286q-134 7 -213 7q-107 0 -202 -23.5t-168.5 -65t-135 -99.5t-104.5 -126.5t-72.5 -146t-43 -157.5t-13.5 -162z" />
<glyph unicode="&#x153;" horiz-adv-x="1799" d="M73 365q0 129 29.5 244t82 202t122.5 151t152 97t169 33q137 0 222 -66t117 -183h4q66 118 175 183.5t237 65.5q82 0 145.5 -25.5t102.5 -72t58.5 -107.5t19.5 -135q0 -36 -6 -78.5t-16 -81.5t-23 -67l-682 -7q-4 -44 -4 -77q0 -166 79.5 -260.5t215.5 -94.5 q142 0 288 88l36 -95q-68 -46 -159 -73.5t-176 -27.5q-136 0 -237 73t-137 211h-5q-73 -134 -191 -209t-249 -75q-95 0 -167.5 31t-116 85.5t-65 122.5t-21.5 148zM198 378q0 -292 251 -292q79 0 148 34.5t119 94t86.5 137t54 164.5t17.5 176q0 292 -250 292 q-79 0 -148 -34.5t-119 -93.5t-86.5 -136.5t-54.5 -165t-18 -176.5zM1000 622l565 6q21 72 21 133q0 33 -5 62t-19.5 59.5t-38.5 52t-64.5 35.5t-93.5 14q-86 0 -163.5 -49.5t-130 -132.5t-71.5 -180z" />
<glyph unicode="&#x178;" horiz-adv-x="1056" d="M157 1485h129l257 -780h5l509 780h134l-600 -915l-120 -570h-117l117 570zM432 1664q0 40 26 66.5t62 26.5q33 0 52 -19t19 -51q0 -39 -26 -65.5t-62 -26.5q-22 0 -38.5 9t-24.5 24.5t-8 35.5zM815 1664q0 40 26 66.5t62 26.5q33 0 52 -19t19 -51q0 -39 -26 -65.5 t-62 -26.5q-34 0 -52.5 19t-18.5 50z" />
<glyph unicode="&#x192;" horiz-adv-x="1137" d="M-169 -336l43 100q27 -16 73 -27.5t94 -11.5q107 0 173.5 72t105.5 246l155 698h-223l16 104h230l78 351q47 209 145.5 304t258.5 95q118 0 207 -47l-43 -99q-28 16 -73 27t-93 11q-71 0 -122 -29t-91 -100t-67 -189l-72 -324h284l-38 -104h-270l-161 -726 q-46 -209 -144.5 -303.5t-258.5 -94.5q-118 0 -207 47z" />
<glyph unicode="&#x2c6;" d="M108 1196l266 332h129l175 -332h-113l-133 246l-204 -246h-120z" />
<glyph unicode="&#x2c7;" d="M153 1530h113l132 -246l206 246h119l-265 -331h-129z" />
<glyph unicode="&#x2d8;" d="M167 1487h95q0 -160 140 -160q139 0 195 160h97q-26 -118 -106 -187.5t-196 -69.5t-174.5 69.5t-50.5 187.5z" />
<glyph unicode="&#x2d9;" d="M340 1410q0 46 30.5 76t70.5 30q37 0 57 -20t20 -54q0 -46 -30.5 -76.5t-70.5 -30.5q-37 0 -57 20.5t-20 54.5z" />
<glyph unicode="&#x2da;" d="M202 1374q0 105 68 167.5t167 62.5q90 0 146.5 -53.5t56.5 -140.5q0 -104 -68 -167t-166 -63q-91 0 -147.5 53.5t-56.5 140.5zM301 1374q0 -51 29.5 -81.5t77.5 -30.5q39 0 69.5 18.5t47 52.5t16.5 77q0 51 -29 81.5t-78 30.5q-39 0 -69 -18.5t-47 -52.5t-17 -77z" />
<glyph unicode="&#x2db;" d="M178 -327q0 208 306 357l124 -30q-318 -151 -318 -304q0 -79 80 -79q33 0 88 18l13 -90q-74 -22 -131 -22q-85 0 -123.5 42.5t-38.5 107.5z" />
<glyph unicode="&#x2dc;" d="M86 1255q8 100 56.5 150t117.5 50q40 0 81 -17.5t69 -38.5t61.5 -38.5t59.5 -17.5q66 0 82 99h99q-8 -99 -56.5 -150t-117.5 -51q-40 0 -81.5 17.5t-69 39t-61 39t-60.5 17.5q-65 0 -81 -99h-99z" />
<glyph unicode="&#x2dd;" d="M155 1196l174 332h151l-226 -332h-99zM505 1196l173 332h151l-225 -332h-99z" />
<glyph unicode="&#x3a9;" horiz-adv-x="1601" d="M13 0l21 103h162q106 0 187 -8v4q-103 88 -167.5 231t-64.5 306q0 138 34 266.5t101 236t159 187.5t214.5 125t262.5 45q110 0 203 -31t159.5 -84.5t113 -126.5t69 -157t22.5 -175q0 -511 -509 -827v-5q84 13 187 13h146l-19 -103h-516l17 86q84 46 157.5 99t137.5 114 t114.5 130t86.5 144t55 159.5t19 172.5q0 77 -16.5 146.5t-53 131.5t-89 107.5t-129.5 71.5t-169 26q-134 0 -252 -58t-201.5 -158.5t-131.5 -241t-48 -300.5q0 -165 70 -309t203 -235l-19 -86h-516z" />
<glyph unicode="&#x3c0;" horiz-adv-x="1202" d="M97 0l200 961h-171l22 105h1037l-43 -105h-185l-153 -740q-9 -37 -9 -66q0 -58 61 -58q29 0 66 11v-106q-45 -13 -97 -13q-73 0 -112.5 35.5t-39.5 106.5q0 27 15 97l152 733h-425l-201 -961h-117z" />
<glyph unicode="&#x400;" horiz-adv-x="946" d="M41 0l310 1485h640l-43 -105h-501l-118 -567h488l-22 -103h-488l-127 -607h559l-23 -103h-675zM491 1899h151l113 -331h-99z" />
<glyph unicode="&#x401;" horiz-adv-x="979" d="M41 0l310 1485h640l-43 -105h-501l-118 -567h488l-22 -103h-488l-127 -607h559l-23 -103h-675zM421 1664q0 40 26 66.5t62 26.5q33 0 51.5 -19t18.5 -51q0 -39 -26 -65.5t-62 -26.5q-33 0 -51.5 19t-18.5 50zM804 1664q0 40 26 66.5t62 26.5q22 0 38 -9t23.5 -24.5 t7.5 -36.5q0 -39 -25 -65.5t-62 -26.5q-33 0 -51.5 19t-18.5 50z" />
<glyph unicode="&#x402;" horiz-adv-x="1560" d="M157 1380l23 105h1056l-42 -105h-484l-115 -548q97 17 198 17q166 0 283.5 -47t178.5 -139t61 -222t-55.5 -233t-155.5 -161t-228 -58q-105 0 -183 33l41 100q67 -27 137 -27q141 0 230 91.5t89 256.5q0 298 -400 298q-94 0 -219 -21l-151 -720h-117l289 1380h-436z" />
<glyph unicode="&#x403;" horiz-adv-x="911" d="M41 0l310 1485h653l-43 -105h-514l-290 -1380h-116zM624 1568l174 331h150l-225 -331h-99z" />
<glyph unicode="&#x404;" horiz-adv-x="1288" d="M110 581q0 152 38.5 291.5t112 252.5t174 196.5t229.5 129t273 45.5q194 0 361 -84l-28 -107q-41 23 -91.5 41.5t-112.5 30t-122 11.5q-171 0 -313 -72.5t-237 -202t-134 -300.5h765l-23 -103h-763q-7 -62 -7 -119q0 -84 15 -157t49.5 -137.5t85.5 -111t128 -73 t173 -26.5q201 0 396 103l28 -101q-88 -50 -202.5 -80t-224.5 -30q-127 0 -231 38t-180 111.5t-117.5 189t-41.5 264.5z" />
<glyph unicode="&#x405;" horiz-adv-x="1021" d="M28 67l47 100q48 -33 122.5 -57t158.5 -24q53 0 100.5 9.5t92 32t76.5 56t51.5 86t19.5 117.5q0 58 -16 108t-43 88t-62.5 72.5t-74.5 65l-78 61t-74.5 66t-62.5 74.5t-43 90.5t-16 111.5q0 112 55 197t151.5 130t218.5 45q161 0 297 -68l-24 -106q-129 68 -275 68 q-57 0 -109.5 -15.5t-96 -45t-69 -79.5t-25.5 -113q0 -44 13 -84t35.5 -71t53 -61.5t64 -56t69.5 -55.5t70 -58.5t64 -66t52.5 -78t36 -94t13.5 -114.5q0 -87 -26 -158t-70 -119t-104.5 -81t-127.5 -47.5t-141 -14.5q-99 0 -182 25.5t-141 63.5z" />
<glyph unicode="&#x406;" horiz-adv-x="508" d="M41 0l310 1485h118l-312 -1485h-116z" />
<glyph unicode="&#x407;" horiz-adv-x="508" d="M41 0l310 1485h118l-312 -1485h-116zM165 1664q0 40 25.5 66.5t61.5 26.5q33 0 51.5 -19t18.5 -51q0 -39 -26 -65.5t-62 -26.5q-22 0 -37.5 9t-23.5 24.5t-8 35.5zM548 1664q0 40 26 66.5t62 26.5q33 0 51 -19t18 -51q0 -39 -26 -65.5t-62 -26.5q-33 0 -51 19t-18 50z " />
<glyph unicode="&#x408;" horiz-adv-x="602" d="M-307 -376l41 101q60 -24 142 -24q71 0 118.5 26t78.5 82q38 68 62 191l312 1485h116l-307 -1463q-37 -182 -84 -267q-91 -163 -312 -163q-87 0 -167 32z" />
<glyph unicode="&#x409;" horiz-adv-x="1851" d="M-126 -7l31 110q11 -2 32 -2q61 0 113 34t103 106q96 136 207 435.5t262 808.5h572l-132 -629h103q212 0 316 -52q181 -88 181 -301q0 -238 -161 -370.5t-456 -132.5h-279l291 1380h-347q-268 -932 -460 -1208q-68 -98 -143 -141.5t-174 -43.5q-33 0 -59 6zM905 103h157 q108 0 195 24.5t150.5 73t97.5 126t34 180.5q0 145 -116 203q-81 42 -254 42h-128z" />
<glyph unicode="&#x40a;" horiz-adv-x="2036" d="M41 0l310 1485h118l-142 -679h770l142 679h117l-133 -629h127q211 0 314 -52q183 -89 183 -301q0 -238 -161 -370.5t-456 -132.5h-302l147 703h-771l-147 -703h-116zM1068 103h178q109 0 195.5 24.5t150 73t98 126t34.5 180.5q0 145 -116 203q-81 42 -254 42h-151z" />
<glyph unicode="&#x40b;" horiz-adv-x="1558" d="M157 1380l23 105h1030l-43 -105h-457l-113 -537q150 27 263 27q209 0 330 -93t121 -265q0 -29 -4 -61.5t-7 -50t-14 -71.5l-67 -329h-115l65 301q27 129 27 199q0 127 -87 194t-255 67q-126 0 -280 -31l-153 -730h-117l289 1380h-436z" />
<glyph unicode="&#x40c;" horiz-adv-x="1223" d="M41 0l310 1485h118l-145 -692h190q47 0 90 29.5t75 76t66.5 110.5t63 125.5t66 129t73.5 112.5q94 120 228 120q54 0 84 -13l-24 -111q-29 8 -60 8q-75 0 -142 -84q-32 -40 -68 -108t-67 -132t-66 -127t-77 -110.5t-87 -66.5v-4q17 -6 32 -16t28 -27.5t22 -32t21 -43 t18.5 -46.5t20.5 -54q3 -9 4 -13l183 -516h-124l-184 531q-31 91 -61 125t-61 34h-267l-144 -690h-116zM698 1568l174 331h151l-225 -331h-100z" />
<glyph unicode="&#x40d;" horiz-adv-x="1494" d="M41 0l310 1485h118l-213 -1008q-18 -92 -58 -256h4q70 89 286 325l860 939h107l-311 -1485h-117l214 1025q8 41 19 87t25 101t17 69h-4q-17 -23 -37.5 -46.5t-52 -59t-49.5 -55.5t-66.5 -72.5t-67.5 -72.5l-892 -976h-92zM685 1899h151l112 -331h-99z" />
<glyph unicode="&#x40e;" horiz-adv-x="1081" d="M41 2l32 110q29 -11 67 -11q78 0 148.5 72t175.5 251l-264 1061h124l222 -915h4l534 915h133l-669 -1141q-113 -190 -208 -273.5t-198 -83.5q-53 0 -101 15zM437 1851l104 23q21 -180 166 -180q48 0 90 16.5t75.5 47.5t59 66.5t48.5 81.5l90 -47q-69 -131 -156.5 -197.5 t-208.5 -66.5q-78 0 -134 28.5t-90 86t-44 141.5z" />
<glyph unicode="&#x40f;" horiz-adv-x="1359" d="M41 0l310 1485h118l-291 -1382h736l289 1382h117l-310 -1485h-425l-85 -406h-117l86 406h-428z" />
<glyph unicode="&#x410;" horiz-adv-x="1227" d="M-65 0l750 1489h81l259 -1489h-124l-69 410h-564l-203 -410h-130zM322 514h489l-83 522q-5 35 -17 112t-19 125h-4q-87 -192 -118 -254z" />
<glyph unicode="&#x411;" horiz-adv-x="1178" d="M41 0l310 1485h703l-42 -105h-565l-111 -524h144q212 0 315 -52q183 -89 183 -301q0 -238 -161 -370.5t-456 -132.5h-320zM180 103h196q109 0 195.5 24.5t150 73t98 126t34.5 180.5q0 145 -115 203q-81 42 -255 42h-168z" />
<glyph unicode="&#x412;" horiz-adv-x="1161" d="M41 0l310 1485h277q70 0 128 -13.5t100 -38.5t73.5 -57t50 -70.5t27.5 -78t9 -81.5q0 -136 -69.5 -232t-196.5 -144v-4q46 -12 88 -37t75.5 -62t53.5 -88.5t20 -109.5q0 -73 -23.5 -140.5t-73.5 -127.5t-122 -104.5t-176.5 -70.5t-230.5 -26h-320zM180 103h222 q108 0 196 28t144.5 76.5t87 113.5t30.5 141q0 116 -76.5 182t-213.5 66h-263zM329 813h221q74 0 134.5 22.5t98.5 57.5t63.5 79.5t35.5 87t10 82.5q0 50 -14.5 91.5t-45 75.5t-83.5 52.5t-125 18.5h-177z" />
<glyph unicode="&#x413;" horiz-adv-x="911" d="M41 0l310 1485h653l-43 -105h-514l-290 -1380h-116z" />
<glyph unicode="&#x414;" horiz-adv-x="1317" d="M-183 -406l106 509h68q209 211 367 551.5t298 830.5h595l-290 -1382h159l-106 -509h-118l86 406h-962l-85 -406h-118zM144 103h701l268 1277h-369q-129 -459 -281 -778.5t-319 -493.5v-5z" />
<glyph unicode="&#x415;" horiz-adv-x="979" d="M41 0l310 1485h640l-43 -105h-501l-118 -567h488l-22 -103h-488l-127 -607h559l-23 -103h-675z" />
<glyph unicode="&#x416;" horiz-adv-x="1864" d="M-58 0l342 546q117 188 230 213v4q-30 30 -50 86.5t-30 122t-18 131t-20.5 128.5t-30.5 98q-26 51 -83 51q-29 0 -65 -10l24 115q27 11 68 11q109 0 162 -103q19 -39 33 -95t21.5 -110.5t15 -113t16.5 -107.5t23.5 -89t39.5 -62.5t60 -22.5h178l146 692h118l-144 -692 h189q47 0 89 29.5t73 76t64.5 110.5t60.5 125.5t64 129t73 112.5q93 120 227 120q54 0 84 -13l-23 -111q-30 8 -61 8q-75 0 -142 -84q-31 -41 -66 -108.5t-65 -131.5t-63 -127t-74 -110.5t-86 -66.5v-4q18 -6 33.5 -17t29 -28.5t23.5 -34t21.5 -45.5t19 -49.5t19.5 -57.5 l172 -516h-124l-173 531q-29 90 -59.5 124.5t-62.5 34.5h-266l-144 -690h-117l144 690h-223q-49 0 -99.5 -37.5t-109.5 -130.5l-329 -522h-135z" />
<glyph unicode="&#x417;" horiz-adv-x="1133" d="M38 65l22 111q60 -40 150.5 -65t187.5 -25q50 0 95.5 7.5t90 23.5t80.5 44t64 65t43 90t15 116q0 133 -93 204t-265 71q-61 0 -95 -2l23 108q37 -2 97 -2q116 0 199 23t131 67.5t69.5 102t21.5 131.5q0 76 -36 133.5t-103.5 88.5t-158.5 31q-158 0 -316 -79l-32 97 q168 90 353 90q104 0 185.5 -29.5t131.5 -80t76 -114t26 -135.5q0 -67 -17.5 -126.5t-54 -112t-99 -91t-146.5 -57.5v-4q62 -20 107 -53t71 -76t38.5 -91.5t12.5 -104.5q0 -95 -33.5 -176t-97 -140.5t-161 -93t-218.5 -33.5q-219 0 -364 87z" />
<glyph unicode="&#x418;" horiz-adv-x="1494" d="M41 0l310 1485h118l-213 -1008q-18 -92 -58 -256h4q70 89 286 325l860 939h107l-311 -1485h-117l214 1025q8 41 19 87t25 101t17 69h-4q-17 -23 -37.5 -46.5t-52 -59t-49.5 -55.5t-66.5 -72.5t-67.5 -72.5l-892 -976h-92z" />
<glyph unicode="&#x419;" horiz-adv-x="1494" d="M41 0l310 1485h118l-213 -1008q-18 -92 -58 -256h4q70 89 286 325l860 939h107l-311 -1485h-117l214 1025q8 41 19 87t25 101t17 69h-4q-17 -23 -37.5 -46.5t-52 -59t-49.5 -55.5t-66.5 -72.5t-67.5 -72.5l-892 -976h-92zM632 1851l105 23q21 -180 166 -180q39 0 74 11.5 t63 30t53.5 46.5t44.5 58t38 66l90 -47q-69 -131 -156.5 -197.5t-208.5 -66.5q-117 0 -185.5 65t-83.5 191z" />
<glyph unicode="&#x41a;" horiz-adv-x="1223" d="M41 0l310 1485h118l-145 -692h190q47 0 90 29.5t75 76t66.5 110.5t63 125.5t66 129t73.5 112.5q94 120 228 120q54 0 84 -13l-24 -111q-29 8 -60 8q-75 0 -142 -84q-32 -40 -68 -108t-67 -132t-66 -127t-77 -110.5t-87 -66.5v-4q17 -6 32 -16t28 -27.5t22 -32t21 -43 t18.5 -46.5t20.5 -54q3 -9 4 -13l183 -516h-124l-184 531q-31 91 -61 125t-61 34h-267l-144 -690h-116z" />
<glyph unicode="&#x41b;" horiz-adv-x="1249" d="M-126 -7l31 110q11 -2 32 -2q61 0 113 34t103 106q96 136 207 435.5t262 808.5h588l-311 -1485h-117l290 1380h-362q-268 -932 -460 -1208q-68 -98 -143 -141.5t-174 -43.5q-33 0 -59 6z" />
<glyph unicode="&#x41c;" horiz-adv-x="1720" d="M41 0l310 1485h120l241 -703q76 -222 103 -307h5q64 94 167 239l565 771h129l-311 -1485h-117l168 806q48 232 109 464h-5q-139 -197 -205 -286l-486 -655h-82l-225 642q-64 177 -99 299h-4q-15 -64 -44.5 -207t-39.5 -189l-183 -874h-116z" />
<glyph unicode="&#x41d;" horiz-adv-x="1416" d="M41 0l310 1485h118l-142 -679h791l142 679h116l-310 -1485h-118l146 703h-790l-147 -703h-116z" />
<glyph unicode="&#x41e;" horiz-adv-x="1589" d="M110 604q0 134 34.5 264t102.5 243t161 199.5t219.5 136t268.5 49.5q132 0 238.5 -39t184 -115t120 -195t42.5 -273q0 -111 -25 -221t-70.5 -209.5t-115 -184.5t-155 -147.5t-194 -98t-227.5 -35.5q-131 0 -237.5 39.5t-184 116.5t-120 196.5t-42.5 273.5zM236 602 q0 -244 117.5 -380t347.5 -136q103 0 195 32.5t162.5 89.5t127.5 133.5t93.5 165t55.5 183t19 189.5q0 160 -50.5 273t-154 174.5t-255.5 61.5q-104 0 -197 -32t-164 -88.5t-128 -132t-93.5 -163.5t-56 -182t-19.5 -188z" />
<glyph unicode="&#x41f;" horiz-adv-x="1387" d="M41 0l310 1485h997l-312 -1485h-116l288 1380h-761l-290 -1380h-116z" />
<glyph unicode="&#x420;" horiz-adv-x="1049" d="M41 0l310 1485h156q127 0 218 -27q132 -43 204.5 -143.5t72.5 -242.5q0 -177 -108.5 -310t-293.5 -177q-98 -22 -228 -22h-97l-118 -563h-116zM297 667h90q113 0 192 21q144 38 222 142.5t78 248.5q0 99 -48 172.5t-148 106.5q-67 22 -176 22h-60z" />
<glyph unicode="&#x421;" horiz-adv-x="1290" d="M110 574q0 127 27.5 246t78.5 220.5t125.5 186t165.5 144t201.5 92.5t230.5 33q194 0 361 -84l-27 -107q-64 36 -151 59.5t-176 23.5q-154 0 -287 -62.5t-225.5 -170t-145 -255.5t-52.5 -315q0 -63 10 -120.5t29 -107.5t47 -92t65.5 -75.5t82.5 -56.5t99.5 -35t115.5 -12 q201 0 396 103l28 -101q-89 -50 -199 -80t-220 -30q-95 0 -180 22t-158.5 69t-127 116t-84 168.5t-30.5 220.5z" />
<glyph unicode="&#x422;" horiz-adv-x="1021" d="M148 1380l24 105h991l-43 -105h-419l-289 -1380h-117l288 1380h-435z" />
<glyph unicode="&#x423;" horiz-adv-x="1081" d="M32 2l31 110q29 -11 68 -11q78 0 149 72t175 251l-264 1061h125l220 -915h5l534 915h133l-670 -1141q-113 -190 -207.5 -273.5t-197.5 -83.5q-53 0 -101 15z" />
<glyph unicode="&#x424;" horiz-adv-x="1582" d="M110 626q0 97 21 185.5t61.5 166.5t103.5 141t144 109t186.5 71.5t227.5 27.5l40 191h118l-41 -196q246 -20 375 -137.5t129 -319.5q0 -118 -29.5 -222.5t-90.5 -192t-148.5 -150.5t-209.5 -98.5t-269 -36.5l-43 -206h-117l42 210q-162 14 -273.5 70.5t-169 154 t-57.5 232.5zM234 630q0 -167 100 -254.5t298 -102.5l200 948q-178 0 -313.5 -72.5t-210 -206.5t-74.5 -312zM750 271q179 -1 315.5 70t211.5 205.5t75 313.5q0 169 -101.5 257t-302.5 102z" />
<glyph unicode="&#x425;" horiz-adv-x="1283" d="M-56 0l613 757l-336 728h133l291 -638l518 638h146l-608 -755l335 -730h-128l-298 642l-520 -642h-146z" />
<glyph unicode="&#x426;" horiz-adv-x="1380" d="M41 0l310 1485h118l-291 -1382h730l288 1382h117l-288 -1382h157l-105 -509h-118l86 406h-1004z" />
<glyph unicode="&#x427;" horiz-adv-x="1268" d="M221 974q0 61 24 182l69 329h114l-65 -303q-27 -134 -27 -198q0 -126 87 -193.5t255 -67.5q119 0 279 32l154 730h117l-311 -1485h-117l135 642q-149 -27 -264 -27q-209 0 -329.5 93t-120.5 266z" />
<glyph unicode="&#x428;" horiz-adv-x="1780" d="M41 0l310 1485h118l-291 -1382h520l291 1382h118l-292 -1382h520l290 1382h116l-311 -1485h-1389z" />
<glyph unicode="&#x429;" horiz-adv-x="1786" d="M41 0l310 1485h118l-291 -1382h510l290 1382h116l-290 -1382h509l289 1382h117l-289 -1382h158l-105 -509h-118l86 406h-1410z" />
<glyph unicode="&#x42a;" horiz-adv-x="1436" d="M178 1485h579l-133 -629h126q213 0 316 -52q182 -89 182 -301q0 -238 -161 -370.5t-457 -132.5h-301l288 1380h-423zM469 103h178q109 0 195.5 24.5t150 73t97.5 126t34 180.5q0 145 -114 203q-81 42 -255 42h-151z" />
<glyph unicode="&#x42b;" horiz-adv-x="1507" d="M41 0l310 1485h118l-133 -629h113q211 0 314 -52q183 -89 183 -301q0 -238 -161 -370.5t-456 -132.5h-288zM180 103h164q109 0 196 24.5t150.5 73t98 126t34.5 180.5q0 145 -116 203q-81 42 -254 42h-137zM1038 0l312 1485h116l-310 -1485h-118z" />
<glyph unicode="&#x42c;" horiz-adv-x="1166" d="M41 0l310 1485h118l-133 -629h144q212 0 315 -52q183 -89 183 -301q0 -238 -161 -370.5t-456 -132.5h-320zM180 103h196q109 0 195.5 24.5t150 73t98 126t34.5 180.5q0 145 -115 203q-81 42 -255 42h-168z" />
<glyph unicode="&#x42d;" horiz-adv-x="1277" d="M15 65l23 111q60 -40 155.5 -65t202.5 -25q139 0 252.5 45t193 128t128.5 197t64 254h-707l22 103h692q12 164 -42.5 294.5t-169 205.5t-270.5 75q-86 0 -158.5 -17t-150.5 -51l-31 95q159 81 342 81q116 0 214.5 -33t170 -92t122 -140t75 -179t24.5 -207 q0 -144 -32 -274t-97 -238.5t-156 -187.5t-215.5 -123t-270.5 -44q-119 0 -219 25t-162 62z" />
<glyph unicode="&#x42e;" horiz-adv-x="2002" d="M41 0l310 1485h118l-140 -672h293q23 113 66.5 214t109 187t147 148.5t185 98t218.5 35.5q120 0 219.5 -39t172 -113.5t112.5 -189.5t40 -262q0 -116 -23 -229t-66 -214.5t-108.5 -187.5t-147 -149t-185 -98.5t-218.5 -35.5q-121 0 -220.5 38.5t-172 113t-112 189.5 t-39.5 262q0 64 6 129h-299l-150 -710h-116zM725 583q0 -231 110.5 -364t316.5 -133q86 0 163.5 24.5t138.5 68t112.5 104t88 131.5t62 150t38 161.5t12.5 164.5q0 231 -110 364.5t-316 133.5q-86 0 -164 -24.5t-139 -68.5t-112.5 -104t-88 -131t-62.5 -150.5t-38 -162 t-12 -164.5z" />
<glyph unicode="&#x42f;" horiz-adv-x="1146" d="M-77 0l320 509q92 145 178 192v4q-88 47 -139.5 129.5t-51.5 186.5q0 107 40 196t108.5 147t159 89.5t192.5 31.5h377l-312 -1485h-117l137 653h-241q-49 0 -99.5 -37t-109.5 -130l-307 -486h-135zM356 1021q0 -51 15.5 -94.5t42.5 -74t62.5 -52.5t76 -32.5t83.5 -10.5 h200l131 623h-195q-74 1 -138 -14t-115 -45t-87.5 -73.5t-56 -101t-19.5 -125.5z" />
<glyph unicode="&#x430;" horiz-adv-x="1028" d="M32 252q0 187 135 289q130 100 392 104l185 2q17 75 17 155q0 182 -207 182q-152 0 -324 -88l-18 106q83 42 176 66t175 24q43 0 81 -6.5t74 -20t65 -37t50.5 -54.5t33.5 -74.5t12 -95.5q0 -18 -1 -37t-4 -41t-5.5 -37.5t-7.5 -41t-7 -36.5t-8 -39.5t-8 -35.5l-15 -76 q-43 -202 -43 -316q0 -63 15 -131l-101 -22q-25 99 -25 187q-72 -90 -167 -145t-198 -55q-124 0 -198 76.5t-74 197.5zM157 268q0 -90 43 -136t127 -46q77 0 155.5 44.5t138 127t77.5 181.5l22 102h-101q-131 0 -220 -17t-145 -58q-97 -69 -97 -198z" />
<glyph unicode="&#x431;" horiz-adv-x="1092" d="M101 424q0 136 33 301t98.5 323t145.5 243q28 30 58 54t68.5 45.5t73.5 37.5t91 37t102 36.5t126 43t144 50.5l43 -112q-54 -19 -138.5 -48.5t-124 -43.5t-98.5 -36t-89 -35.5t-67 -32.5t-61 -36.5t-44 -38.5q-64 -65 -121.5 -186t-92.5 -254h4q64 114 167.5 176 t212.5 62q110 0 189.5 -51.5t118 -137.5t38.5 -197q0 -99 -23 -193.5t-67.5 -176t-105 -143.5t-141.5 -97.5t-172 -35.5q-172 0 -270 117.5t-98 328.5zM219 389q0 -150 71 -226.5t185 -76.5q88 0 161 45.5t119 122t71 172t25 198.5q0 55 -13 103.5t-39 88t-69.5 62.5 t-99.5 23q-86 0 -163.5 -43.5t-131 -114.5t-85 -163.5t-31.5 -190.5z" />
<glyph unicode="&#x432;" horiz-adv-x="1053" d="M58 52l208 986q137 54 304 54q80 0 144.5 -14.5t107 -39t70.5 -58.5t40 -72t12 -81q-2 -114 -83 -187.5t-205 -93.5v-5q109 -21 161.5 -81.5t52.5 -137.5q0 -68 -27.5 -129t-81 -109.5t-143 -77t-203.5 -28.5q-86 0 -182.5 20t-174.5 54zM194 120q92 -41 221 -41 q81 0 145 18t104.5 50.5t62 75t21.5 93.5q0 83 -68.5 129t-226.5 46h-185zM288 593h146q187 0 286 58t103 166q1 82 -65 128t-197 46q-47 0 -102 -9.5t-94 -24.5z" />
<glyph unicode="&#x433;" horiz-adv-x="864" d="M43 248q0 45 11.5 84.5t28 68.5t47.5 57t55.5 45.5t68 39t69 32t73.5 29.5q57 22 85 34t71 35.5t63.5 44.5t37 53t16.5 69q0 41 -17.5 70.5t-47 45.5t-63.5 23.5t-72 7.5q-121 0 -243 -52l-28 101q36 16 79 28t94 20t98 8q152 0 236 -67t84 -185q0 -53 -17.5 -97.5 t-48 -76t-70.5 -59t-85 -46.5t-92.5 -39t-93 -37t-85.5 -40t-70 -47.5t-47.5 -60t-17.5 -77.5q0 -80 57 -127t159 -47q130 0 239 60l43 -94q-56 -33 -132.5 -53.5t-153.5 -20.5q-151 0 -241 73t-90 197z" />
<glyph unicode="&#x434;" horiz-adv-x="1107" d="M81 378q0 127 41 243t111 201.5t168 136.5t207 51q152 0 280 -77h4q-2 130 -24 230.5t-66 173.5t-115 111.5t-167 38.5q-91 0 -189 -38l-34 99q43 19 105 33t123 14q87 0 159 -24t125 -68.5t92 -105t62.5 -137t35 -160.5t11.5 -178q0 -101 -10.5 -198.5t-33.5 -191.5 t-56 -176.5t-80.5 -152t-105 -119.5t-131.5 -78t-159 -28q-90 0 -159 31.5t-110.5 87t-62.5 126.5t-21 155zM207 383q0 -297 232 -297q81 0 150.5 40t120 109t88.5 162t59.5 197t28.5 217q-61 45 -131.5 67.5t-130.5 22.5q-78 0 -145.5 -28.5t-116.5 -78.5t-84.5 -115.5 t-53 -141t-17.5 -154.5z" />
<glyph unicode="&#x435;" horiz-adv-x="1034" d="M81 428q0 141 41 265t111 211.5t167.5 137.5t207.5 50q83 0 146 -25.5t102.5 -72t59 -107.5t19.5 -135q0 -55 -13 -120t-32 -107l-683 -7q-5 -50 -5 -75q0 -110 36.5 -191t103 -123.5t156.5 -42.5q143 0 288 88l37 -95q-45 -30 -101 -53t-116.5 -35.5t-117.5 -12.5 q-84 0 -157 28.5t-129 83t-88.5 141.5t-32.5 197zM226 622l565 6q20 68 20 133q0 33 -5 62t-19.5 59.5t-37 52t-61.5 35.5t-91 14q-88 0 -167.5 -50t-132 -132t-71.5 -180z" />
<glyph unicode="&#x436;" horiz-adv-x="1544" d="M-67 -4l33 103q23 -9 52 -9q49 0 90 52q23 28 64 98.5t76 130.5t85 115t97 68v5q-14 11 -25 26t-21 36.5t-19 49t-19 64.5l-84 331h119l81 -327q11 -47 28.5 -80t40 -49.5t48.5 -16.5h137l99 473h116l-99 -473h155q44 0 82 27.5t68 75t55 97.5t56 110t59 97q65 86 170 86 q49 0 79 -14l-22 -103q-23 9 -51 9q-52 0 -93 -52q-22 -30 -55 -94t-59.5 -116t-70.5 -103t-94 -70v-5q62 -45 103 -189l95 -349h-120l-90 344q-19 69 -46 108t-53 39h-185l-103 -491h-115l101 491h-171q-40 0 -87 -48.5t-83.5 -109t-87 -143t-84.5 -125.5q-66 -83 -174 -83 q-47 0 -78 14z" />
<glyph unicode="&#x437;" horiz-adv-x="892" d="M0 56l22 101q42 -28 119 -52t152 -24q58 0 108 12.5t92 38t66 71.5t24 108t-34 105t-98.5 65t-155.5 22q-42 0 -83 -3l22 108q41 -2 110 -2q80 0 142.5 18t100 48.5t56.5 68t19 79.5q0 47 -20 81.5t-53.5 53t-69.5 26.5t-76 8q-114 0 -231 -52l-27 99q131 56 268 56 q149 0 242.5 -67.5t93.5 -190.5q0 -57 -21.5 -106t-59 -84t-84.5 -59.5t-102 -38.5v-5q54 -15 92.5 -42t58.5 -60t28.5 -64.5t8.5 -65.5q0 -143 -115 -237t-296 -94q-89 0 -168.5 23.5t-130.5 54.5z" />
<glyph unicode="&#x438;" horiz-adv-x="1087" d="M88 226q0 74 24 198l133 642h118l-133 -645q-23 -109 -23 -178q0 -82 38 -119.5t101 -37.5q65 0 126 26t108 69t86 98.5t64 115t38 119.5l115 552h117l-126 -606q-40 -200 -40 -309q0 -67 15 -138l-101 -22q-28 107 -20 226h-5q-70 -107 -179.5 -173t-212.5 -66 q-110 0 -176.5 60.5t-66.5 187.5z" />
<glyph unicode="&#x439;" horiz-adv-x="1087" d="M88 226q0 74 24 198l133 642h118l-133 -645q-23 -109 -23 -178q0 -82 38 -119.5t101 -37.5q65 0 126 26t108 69t86 98.5t64 115t38 119.5l115 552h117l-126 -606q-40 -200 -40 -309q0 -67 15 -138l-101 -22q-28 107 -20 226h-5q-70 -107 -179.5 -173t-212.5 -66 q-110 0 -176.5 60.5t-66.5 187.5zM378 1487l102 20q10 -87 52 -133.5t117 -46.5q167 0 275 212l88 -45q-69 -131 -156.5 -197.5t-208.5 -66.5q-117 0 -185.5 65t-83.5 192z" />
<glyph unicode="&#x43a;" horiz-adv-x="963" d="M32 0l222 1066h116l-99 -473h150q45 0 80 29t61 78t47 101.5t49 112.5t56 98q61 80 169 80q51 0 82 -13l-23 -105q-24 8 -52 8q-56 0 -92 -49q-21 -27 -42.5 -73.5t-40 -92t-40.5 -91t-54 -81.5t-71 -52v-5q63 -45 110 -189l110 -349h-121l-106 344q-21 70 -49.5 108.5 t-54.5 38.5h-189l-104 -491h-114z" />
<glyph unicode="&#x43b;" horiz-adv-x="1144" d="M-67 -4l26 107q22 -6 48 -6q78 0 128 65q39 52 90 166t93 225.5t96 228t98 173.5q58 74 129.5 105.5t162.5 31.5q126 0 230 -35l-124 -597q-2 -9 -6 -26q-14 -68 -20 -100.5t-11.5 -76.5t-5.5 -81q0 -74 25 -161l-114 -24q-28 85 -28 176q0 81 32 243l117 564 q-46 10 -104 10q-118 0 -191 -94q-34 -45 -72.5 -125t-74.5 -171t-73 -183t-80 -180.5t-83 -144.5q-39 -54 -90 -77.5t-118 -23.5q-43 0 -80 11z" />
<glyph unicode="&#x43c;" horiz-adv-x="1382" d="M-67 -4l22 103q22 -7 49 -7q78 0 129 68q25 33 47.5 79.5t43.5 116t37.5 133t37.5 170.5t35.5 186.5t39.5 220.5h110q27 -57 59 -138.5t61 -166t55 -168.5t44 -152h4q87 123 147 197l337 428h127l-127 -606q-2 -9 -5 -26q-14 -68 -20.5 -100.5t-12 -76.5t-5.5 -81 q0 -74 26 -161l-115 -24q-27 85 -27 176q0 88 30 241t98 448h-4q-74 -102 -140 -181l-304 -378h-74q-117 402 -183 561h-4q-26 -148 -44.5 -241.5t-46 -200t-62 -185.5t-77.5 -141q-74 -105 -208 -105q-43 0 -80 11z" />
<glyph unicode="&#x43d;" horiz-adv-x="1085" d="M32 0l222 1066h118l-93 -442h532l92 442h118l-223 -1066h-118l109 520h-533l-108 -520h-116z" />
<glyph unicode="&#x43e;" horiz-adv-x="1116" d="M81 365q0 129 30 244t83 202t122.5 151t152 97t169.5 33q95 0 168 -31t116.5 -85t65.5 -122.5t22 -148.5q0 -160 -46.5 -298t-123.5 -231t-177.5 -145.5t-209.5 -52.5q-95 0 -168 31t-116.5 85.5t-65.5 122.5t-22 148zM207 378q0 -292 251 -292q78 0 147.5 34.5t119.5 94 t86 137t54 164.5t18 176q0 292 -251 292q-78 0 -147 -34.5t-119.5 -93.5t-86.5 -136.5t-54 -165t-18 -176.5z" />
<glyph unicode="&#x43f;" horiz-adv-x="1071" d="M32 0l222 1066h102l-40 -217h4q69 108 179.5 175.5t218.5 67.5q104 0 168 -62.5t64 -189.5q0 -74 -24 -198l-133 -642h-118l133 645q24 108 24 178q0 83 -38 121t-102 38q-76 0 -164 -51t-156 -142q-43 -57 -70.5 -123t-49.5 -168l-104 -498h-116z" />
<glyph unicode="&#x440;" horiz-adv-x="1103" d="M-79 -534l331 1583q159 43 289 43q92 0 168 -23t128.5 -63t88.5 -95t53 -118.5t17 -134.5q0 -129 -36 -240.5t-96.5 -191t-141 -136.5t-170 -84.5t-182.5 -27.5q-114 0 -219 29l-113 -541h-117zM176 117q68 -31 185 -31q113 0 209 43.5t161.5 119t102 178.5t36.5 222 q0 162 -87 248.5t-254 86.5q-83 0 -178 -25z" />
<glyph unicode="&#x441;" horiz-adv-x="986" d="M81 412q0 145 48 272.5t128 216.5t188.5 140t227.5 51q138 0 247 -49l-24 -108q-104 49 -225 49q-76 0 -146.5 -27.5t-127.5 -78.5t-100 -119t-66.5 -153t-23.5 -176q0 -101 31.5 -177.5t98.5 -121.5t163 -45q143 0 289 88l28 -93q-65 -46 -154 -74.5t-172 -28.5 q-70 0 -131.5 18t-112.5 54t-88 87.5t-57.5 122t-20.5 152.5z" />
<glyph unicode="&#x442;" horiz-adv-x="1662" d="M32 0l222 1066h102l-40 -217h4q47 73 105 127t127 85t140 31q50 0 91 -14.5t72.5 -44.5t48.5 -81t16 -118h4q73 116 174 187t211 71q103 0 167.5 -62.5t64.5 -189.5q0 -68 -25 -198l-133 -642h-117l133 645q22 103 22 178q0 42 -10.5 73.5t-29.5 50t-44 27t-55 8.5 q-148 0 -293 -193q-29 -38 -49.5 -78.5t-37.5 -92t-32 -120.5l-104 -498h-117l133 645q22 103 22 178q0 83 -38 121t-102 38q-147 0 -292 -193q-43 -57 -70.5 -123t-49.5 -168l-104 -498h-116z" />
<glyph unicode="&#x443;" horiz-adv-x="950" d="M-277 -505l41 103q53 -24 116 -24q62 0 114.5 19t107 64.5t109 127t111.5 202.5l-232 1079h127l127 -623q36 -163 62 -297h4q56 133 124 275l309 645h135l-552 -1120q-57 -115 -111 -198t-105.5 -137t-108.5 -86.5t-112.5 -45.5t-123.5 -13q-90 0 -142 29z" />
<glyph unicode="&#x444;" horiz-adv-x="1408" d="M75 351q0 80 15.5 165t44.5 167t73.5 154.5t99.5 127.5t127 87t150 32q75 0 150 -35l35 170q15 71 30 123t39 102.5t53.5 81.5t72 50t97.5 19q60 0 112 -22l-32 -98q-41 14 -76 14q-68 0 -104 -51t-66 -168q-4 -19 -17 -79.5t-25.5 -116t-19.5 -76.5h4q31 43 81 68.5 t106 25.5q118 0 193.5 -103.5t75.5 -278.5q0 -69 -11.5 -141.5t-34 -144t-54 -137.5t-75 -122t-94 -98t-113 -65.5t-130.5 -23.5q-82 0 -154 33q-17 -72 -29 -118.5t-34.5 -119.5t-49 -127.5t-55.5 -88.5q-39 -46 -93 -68.5t-113 -22.5q-54 0 -106 20l35 99q33 -13 71 -13 q74 0 118 47q28 31 52.5 85t38.5 102.5t35.5 129.5t37.5 129h-5q-30 -44 -81.5 -70.5t-107.5 -26.5q-117 0 -192 103.5t-75 279.5zM200 359q-2 -132 40 -207t127 -75q37 0 68 13.5t53 35.5t40 54t29.5 64.5t21.5 71.5l133 628q-62 32 -124 32q-69 0 -131.5 -38.5t-108 -102 t-79 -144t-50.5 -166t-19 -166.5zM656 114q62 -28 124 -28q70 0 132 38t107 101.5t78.5 144t51 166t18.5 167.5q2 131 -40 206t-127 75q-46 0 -82 -19.5t-60.5 -55.5t-40.5 -75t-28 -88z" />
<glyph unicode="&#x445;" horiz-adv-x="941" d="M-73 0l449 543l-262 523h125l221 -438l357 438h133l-436 -530l272 -536h-128l-228 453l-374 -453h-129z" />
<glyph unicode="&#x446;" horiz-adv-x="1135" d="M88 226q0 74 24 198l133 642h118l-133 -645q-23 -109 -23 -178q0 -157 144 -157q53 0 103.5 17.5t92 48t78 71t64 87t47 95.5t30.5 98l117 563h117l-126 -606q-40 -200 -40 -275t39.5 -96t153.5 -8l-90 -442h-117l72 350q-98 6 -136 67t-26 161h-5q-74 -114 -175 -176.5 t-219 -62.5q-110 0 -176.5 60.5t-66.5 187.5z" />
<glyph unicode="&#x447;" horiz-adv-x="1034" d="M146 632q0 39 21 138l63 296h114l-71 -331q-11 -54 -11 -90q0 -61 41.5 -92t133.5 -31q64 0 126 14.5t104 35.5t68.5 43.5t30.5 40.5l85 410h118l-223 -1066h-118l70 331q22 103 41 181h-4q-55 -39 -136.5 -66t-186.5 -27q-66 0 -117.5 16t-83.5 45t-48.5 67.5 t-16.5 84.5z" />
<glyph unicode="&#x448;" horiz-adv-x="1571" d="M88 236q0 64 24 188l133 642h118l-133 -645q-23 -109 -23 -167q0 -168 133 -168q52 0 101.5 26t88.5 69t72 99.5t55 115.5t35 118l114 552h118l-133 -645q-23 -109 -23 -178q0 -86 37.5 -121.5t95.5 -35.5q52 0 101.5 26t88.5 69t72 99.5t55 115.5t35 118l114 552h118 l-127 -606q-40 -200 -40 -309q0 -67 15 -138l-101 -22q-25 93 -20 207h-4q-73 -115 -150.5 -167.5t-174.5 -52.5q-102 0 -160.5 58t-60.5 169h-4q-76 -117 -157 -172t-179 -55q-106 0 -170 63.5t-64 194.5z" />
<glyph unicode="&#x449;" horiz-adv-x="1619" d="M88 236q0 64 24 188l133 642h118l-133 -645q-23 -109 -23 -167q0 -168 133 -168q52 0 101.5 26t88.5 69t72 99.5t55 115.5t35 118l114 552h118l-133 -645q-23 -109 -23 -178q0 -86 37.5 -121.5t95.5 -35.5q52 0 101.5 26t88.5 69t72 99.5t55 115.5t35 118l114 552h118 l-127 -606q-40 -200 -40 -275q0 -52 16.5 -76t59.5 -31t117 3l-90 -442h-116l71 350q-179 12 -164 209h-4q-73 -115 -150.5 -167.5t-174.5 -52.5q-102 0 -160.5 58t-60.5 169h-4q-76 -117 -157 -172t-179 -55q-106 0 -170 63.5t-64 194.5z" />
<glyph unicode="&#x44a;" horiz-adv-x="1251" d="M99 1066h505l-95 -444q7 0 28 3.5t33 5t33 3.5t42.5 3t46.5 1q198 0 300 -77.5t102 -206.5q0 -74 -30 -141t-87 -120t-148.5 -84t-204.5 -31q-90 0 -185 20.5t-166 53.5l191 909h-356zM408 117q93 -36 216 -36q102 0 180.5 32t122.5 93t44 143q0 90 -76 137.5t-226 47.5 q-104 0 -183 -18z" />
<glyph unicode="&#x44b;" horiz-adv-x="1350" d="M58 52l215 1014h116l-94 -444q85 16 165 16q194 0 295 -78.5t101 -205.5q0 -58 -16.5 -112.5t-52.5 -102.5t-88 -83.5t-128 -56.5t-167 -21q-89 0 -182.5 21.5t-163.5 52.5zM194 117q93 -36 216 -36q145 0 234 72.5t89 192.5q0 188 -286 188q-84 0 -174 -18zM946 0 l223 1066h117l-222 -1066h-118z" />
<glyph unicode="&#x44c;" horiz-adv-x="1036" d="M58 52l215 1014h116l-94 -444q6 0 27.5 3.5t33.5 5t32.5 3.5t42.5 3t46 1q198 0 301 -77.5t103 -206.5q0 -74 -30 -141t-87 -120t-148.5 -84t-205.5 -31q-90 0 -185.5 20.5t-166.5 53.5zM194 117q93 -36 216 -36q157 0 252 72t95 196q0 90 -75.5 137.5t-226.5 47.5 q-103 0 -182 -18z" />
<glyph unicode="&#x44d;" horiz-adv-x="957" d="M25 54l22 103q41 -29 114.5 -51t149.5 -22q164 0 273 109.5t136 304.5h-486l22 104h472q1 93 -22.5 166t-66.5 121t-103.5 73t-133.5 25q-116 0 -213 -52l-29 95q25 14 55.5 25.5t63 20t66 12.5t65.5 4q141 0 241 -64t149 -175.5t49 -261.5q0 -99 -22.5 -189.5 t-68 -167.5t-109 -134t-150.5 -89.5t-188 -32.5q-164 0 -286 76z" />
<glyph unicode="&#x44e;" horiz-adv-x="1513" d="M32 0l222 1066h118l-97 -464h232q41 146 124.5 258.5t190.5 172t221 59.5q75 0 136 -20t102.5 -55t70 -83t41.5 -102.5t13 -115.5q0 -159 -47.5 -298.5t-126.5 -235t-182 -150t-212 -54.5q-75 0 -136 20t-102.5 55t-70 83t-41.5 102.5t-13 115.5q0 76 11 144h-234 l-104 -498h-116zM602 363q0 -277 243 -277q64 0 124 26t107 71t85.5 105.5t64.5 129.5t39.5 143t13.5 146q0 277 -243 277q-77 0 -147 -36.5t-121.5 -99t-89.5 -142t-57 -168t-19 -175.5z" />
<glyph unicode="&#x44f;" horiz-adv-x="1064" d="M-45 0l34 103q23 -8 52 -8q49 0 90 51q20 26 51.5 79.5t57 98.5t62 91t72.5 67v4q-77 39 -112.5 103t-35.5 141q0 50 13 96t38 86t62 73.5t83 57t103 36.5t120 13q164 0 342 -62l-217 -1030h-114l92 443h-228q-32 0 -64 -24t-62 -67t-57 -88t-61.5 -101.5t-63.5 -93.5 q-65 -82 -178 -82q-48 0 -79 13zM346 725q0 -33 12 -63.5t35 -57t62.5 -42.5t90.5 -16h224l84 409q-101 34 -201 34q-144 0 -225.5 -75.5t-81.5 -188.5z" />
<glyph unicode="&#x450;" horiz-adv-x="1034" d="M81 428q0 141 41 265t111 211.5t167.5 137.5t207.5 50q83 0 146 -25.5t102.5 -72t59 -107.5t19.5 -135q0 -55 -13 -120t-32 -107l-683 -7q-5 -50 -5 -75q0 -110 36.5 -191t103 -123.5t156.5 -42.5q143 0 288 88l37 -95q-45 -30 -101 -53t-116.5 -35.5t-117.5 -12.5 q-84 0 -157 28.5t-129 83t-88.5 141.5t-32.5 197zM226 622l565 6q20 68 20 133q0 33 -5 62t-19.5 59.5t-37 52t-61.5 35.5t-91 14q-88 0 -167.5 -50t-132 -132t-71.5 -180zM415 1528h150l113 -332h-99z" />
<glyph unicode="&#x451;" horiz-adv-x="1034" d="M81 428q0 141 41 265t111 211.5t167.5 137.5t207.5 50q83 0 146 -25.5t102.5 -72t59 -107.5t19.5 -135q0 -55 -13 -120t-32 -107l-683 -7q-5 -50 -5 -75q0 -110 36.5 -191t103 -123.5t156.5 -42.5q143 0 288 88l37 -95q-45 -30 -101 -53t-116.5 -35.5t-117.5 -12.5 q-84 0 -157 28.5t-129 83t-88.5 141.5t-32.5 197zM226 622l565 6q20 68 20 133q0 33 -5 62t-19.5 59.5t-37 52t-61.5 35.5t-91 14q-88 0 -167.5 -50t-132 -132t-71.5 -180zM359 1350q0 19 7 36.5t19 29.5t28 19t34 7q33 0 51 -19.5t18 -50.5q0 -40 -26 -66.5t-62 -26.5 q-33 0 -51 19.5t-18 51.5zM741 1350q0 26 12.5 47.5t32.5 33t43 11.5q33 0 51.5 -19.5t18.5 -50.5q0 -40 -26 -66.5t-62 -26.5q-33 0 -51.5 19.5t-18.5 51.5z" />
<glyph unicode="&#x452;" horiz-adv-x="1073" d="M32 0l265 1275h-137l23 103h137l45 217h115l-46 -217h314l-23 -103h-313l-51 -256q-19 -99 -54 -206h4q74 113 166 178.5t198 65.5q144 0 217 -99t73 -268q0 -119 -25 -241t-77 -240.5t-125 -219.5t-176.5 -181.5t-223.5 -123.5l-39 97q106 39 195.5 111.5t153 164.5 t108 199.5t66 219t21.5 220.5q0 66 -14 115t-40 78t-59.5 43t-76.5 14q-140 0 -286 -189q-45 -60 -73.5 -126.5t-50.5 -168.5l-97 -462h-114z" />
<glyph unicode="&#x453;" horiz-adv-x="864" d="M43 248q0 45 11.5 84.5t28 68.5t47.5 57t55.5 45.5t68 39t69 32t73.5 29.5q57 22 85 34t71 35.5t63.5 44.5t37 53t16.5 69q0 41 -17.5 70.5t-47 45.5t-63.5 23.5t-72 7.5q-121 0 -243 -52l-28 101q36 16 79 28t94 20t98 8q152 0 236 -67t84 -185q0 -53 -17.5 -97.5 t-48 -76t-70.5 -59t-85 -46.5t-92.5 -39t-93 -37t-85.5 -40t-70 -47.5t-47.5 -60t-17.5 -77.5q0 -80 57 -127t159 -47q130 0 239 60l43 -94q-56 -33 -132.5 -53.5t-153.5 -20.5q-151 0 -241 73t-90 197zM449 1196l173 332h150l-224 -332h-99z" />
<glyph unicode="&#x454;" horiz-adv-x="981" d="M81 419q0 141 46.5 266.5t124.5 214.5t185.5 140.5t226.5 51.5q142 0 250 -49l-22 -108q-104 49 -225 49q-156 0 -280 -109t-161 -273h492l-22 -104h-489q-5 -30 -5 -70q0 -160 75.5 -251t218.5 -91q142 0 288 88l33 -93q-156 -103 -323 -103q-55 0 -106 12t-97.5 35.5 t-84.5 61t-66 85t-43.5 111t-15.5 136.5z" />
<glyph unicode="&#x455;" horiz-adv-x="778" d="M-32 50l45 98q103 -62 230 -62q48 0 91.5 12t77.5 35t54 60.5t20 83.5q0 40 -14 75.5t-37.5 61.5t-53.5 53t-61.5 50t-61.5 53t-53 61t-37.5 74t-14.5 93q0 129 86.5 211.5t246.5 82.5q128 0 221 -35l-17 -104q-105 34 -196 34q-98 0 -158.5 -45t-60.5 -136 q0 -38 14.5 -72.5t38 -59.5t53 -51.5t61 -49.5t61.5 -53t53.5 -62.5t37.5 -78t14 -97.5q0 -93 -48.5 -162.5t-131.5 -105.5t-187 -36q-161 0 -273 72z" />
<glyph unicode="&#x456;" horiz-adv-x="475" d="M32 0l222 1066h118l-224 -1066h-116zM297 1410q0 46 30.5 76t70.5 30q19 0 33.5 -5.5t24 -15t14.5 -23t5 -30.5q0 -46 -30.5 -76.5t-70.5 -30.5q-37 0 -57 20.5t-20 54.5z" />
<glyph unicode="&#x457;" horiz-adv-x="475" d="M32 0l222 1066h118l-224 -1066h-116zM86 1350q0 39 26 65.5t62 26.5q22 0 38 -9t23.5 -25t7.5 -36q0 -27 -12 -48t-32 -33t-44 -12q-22 0 -38 9.5t-23.5 25t-7.5 36.5zM469 1350q0 39 25.5 65.5t62.5 26.5q33 0 51 -19.5t18 -50.5q0 -40 -26 -66.5t-62 -26.5 q-33 0 -51 19.5t-18 51.5z" />
<glyph unicode="&#x458;" horiz-adv-x="518" d="M-309 -509l34 103q46 -20 99 -20q90 0 136.5 54.5t75.5 193.5l261 1244h118l-282 -1337q-15 -72 -46.5 -124.5t-74.5 -82t-90 -43t-102 -13.5q-72 0 -129 25zM340 1410q0 46 30.5 76t70.5 30q37 0 57 -20t20 -54q0 -46 -30.5 -76.5t-70.5 -30.5q-37 0 -57 20.5t-20 54.5z " />
<glyph unicode="&#x459;" horiz-adv-x="1646" d="M-67 -4l26 107q22 -6 48 -6q78 0 128 65q39 52 90 166t93 225.5t96 228t98 173.5q58 74 129.5 105.5t162.5 31.5q51 0 113 -10t106 -25l-92 -435q101 16 170 16q190 0 289 -77.5t99 -206.5q0 -75 -28 -141.5t-82 -119.5t-142.5 -84t-200.5 -31q-82 0 -177 20t-165 54 l194 922q-46 10 -93 10q-118 0 -191 -94q-34 -45 -72.5 -125t-74.5 -171t-73 -183t-80 -180.5t-83 -144.5q-39 -54 -90 -77.5t-118 -23.5q-43 0 -80 11zM827 114q101 -33 214 -33q94 0 167.5 31.5t115 92.5t41.5 141q0 188 -281 188q-83 0 -176 -18z" />
<glyph unicode="&#x45a;" horiz-adv-x="1601" d="M32 0l222 1066h118l-93 -442h489l94 442h118l-94 -444q101 16 171 16q190 0 288.5 -77.5t98.5 -206.5q0 -75 -28 -141.5t-82 -119.5t-142.5 -84t-200.5 -31q-54 0 -115 9t-121 26t-106 39l99 468h-492l-108 -520h-116zM782 114q101 -33 214 -33q144 0 234 72t90 193 q0 188 -282 188q-82 0 -176 -18z" />
<glyph unicode="&#x45b;" horiz-adv-x="1073" d="M32 0l265 1275h-151l23 103h151l45 217h117l-45 -217h277l-22 -103h-277l-54 -256q-19 -99 -54 -206h4q71 110 174.5 177t208.5 67q52 0 97 -15t82 -44.5t58.5 -79t21.5 -114.5q0 -74 -25 -198l-124 -606h-116l123 608q23 109 23 178q0 83 -44 121.5t-115 38.5 q-81 0 -161 -49.5t-151 -144.5q-43 -57 -70.5 -123t-49.5 -167l-95 -462h-116z" />
<glyph unicode="&#x45c;" horiz-adv-x="961" d="M32 0l222 1066h116l-99 -473h150q45 0 80 29t61 78t47 101.5t49 112.5t56 98q61 80 169 80q51 0 82 -13l-23 -105q-24 8 -52 8q-56 0 -92 -49q-21 -27 -42.5 -73.5t-40 -92t-40.5 -91t-54 -81.5t-71 -52v-5q63 -45 110 -189l110 -349h-121l-106 344q-21 70 -49.5 108.5 t-54.5 38.5h-189l-104 -491h-114zM531 1196l174 332h151l-226 -332h-99z" />
<glyph unicode="&#x45d;" horiz-adv-x="1087" d="M88 226q0 74 24 198l133 642h118l-133 -645q-23 -109 -23 -178q0 -82 38 -119.5t101 -37.5q65 0 126 26t108 69t86 98.5t64 115t38 119.5l115 552h117l-126 -606q-40 -200 -40 -309q0 -67 15 -138l-101 -22q-28 107 -20 226h-5q-70 -107 -179.5 -173t-212.5 -66 q-110 0 -176.5 60.5t-66.5 187.5zM451 1528h151l112 -332h-99z" />
<glyph unicode="&#x45e;" horiz-adv-x="950" d="M-277 -505l41 103q53 -24 116 -24q62 0 114.5 19t107 64.5t109 127t111.5 202.5l-232 1079h127l127 -623q36 -163 62 -297h4q56 133 124 275l309 645h135l-552 -1120q-57 -115 -111 -198t-105.5 -137t-108.5 -86.5t-112.5 -45.5t-123.5 -13q-90 0 -142 29zM277 1487 l101 20q10 -87 52.5 -133.5t117.5 -46.5q167 0 275 212l87 -45q-69 -131 -156.5 -197.5t-207.5 -66.5q-117 0 -185.5 65t-83.5 192z" />
<glyph unicode="&#x45f;" horiz-adv-x="1087" d="M88 226q0 74 24 198l133 642h118l-133 -645q-23 -109 -23 -178q0 -82 38 -119.5t101 -37.5q65 0 126 26t108 69t86 98.5t64 115t38 119.5l115 552h117l-126 -606q-40 -200 -40 -309q0 -67 15 -138l-101 -22q-28 107 -20 226h-5q-70 -107 -179.5 -173t-212.5 -66 q-110 0 -176.5 60.5t-66.5 187.5zM254 -473l116 361h90l-75 -361h-131z" />
<glyph unicode="&#x462;" horiz-adv-x="1288" d="M110 1144l23 104h291l49 237h118l-53 -237h356l-43 -104h-333l-60 -288h144q212 0 315 -52q182 -88 182 -301q0 -238 -161 -370.5t-456 -132.5h-320l240 1144h-292zM301 103h197q109 0 195.5 24.5t150 73t98 126t34.5 180.5q0 145 -116 203q-81 42 -254 42h-169z" />
<glyph unicode="&#x463;" horiz-adv-x="1090" d="M36 961l22 105h266l61 290h118l-62 -290h350l-43 -105h-329l-73 -339l24 3t26 3.5t27 3.5t31.5 3t34.5 2t40 1q198 0 301 -77.5t103 -206.5q0 -74 -30 -141t-87 -120t-148.5 -84t-205.5 -31q-90 0 -185.5 20.5t-166.5 53.5l191 909h-265zM245 117q94 -36 217 -36 q156 0 251 72t95 196q0 60 -33 101t-100 62.5t-168 21.5q-103 0 -183 -18z" />
<glyph unicode="&#x472;" horiz-adv-x="1632" d="M101 606q0 100 17.5 196.5t52.5 185t85 165.5t118 140t148 108.5t178 70t205 24.5q195 0 335.5 -71.5t216 -214t75.5 -343.5q0 -141 -34 -272.5t-102 -243.5t-163 -195t-225 -130.5t-280 -47.5q-295 0 -461 162.5t-166 465.5zM228 606q0 -92 17.5 -170t55.5 -143t95 -111 t139.5 -71t184.5 -25q116 0 216.5 33t176 91t134 137t94.5 170.5t52 192.5h-1161q-4 -69 -4 -104zM250 813h1154q2 17 2 54q0 115 -29 208.5t-87 164.5t-154 109.5t-224 38.5q-110 0 -207 -30t-170.5 -83t-131.5 -126t-95.5 -157.5t-57.5 -178.5z" />
<glyph unicode="&#x473;" horiz-adv-x="1116" d="M81 365q0 166 44.5 304.5t120.5 230t177 142t215 50.5q100 0 173.5 -29t116 -82.5t62.5 -122t20 -153.5q0 -166 -44.5 -304t-120.5 -230t-177 -142.5t-215 -50.5q-100 0 -173.5 29t-116 83t-62.5 122t-20 153zM207 378q0 -72 12 -124t40 -91t77 -58t122 -19q81 0 150 32 t118.5 89.5t83.5 131t52 161.5h-648q-7 -71 -7 -122zM234 604h645q4 40 4 88q0 72 -11.5 124t-39.5 91t-77.5 58t-122.5 19q-78 0 -144.5 -28.5t-115.5 -81t-83.5 -120.5t-54.5 -150z" />
<glyph unicode="&#x474;" horiz-adv-x="1272" d="M167 1485h126l133 -942q23 -168 38 -326h5q224 605 408 952q63 119 124 190.5t126 104t143 32.5q62 0 116 -19l-23 -112q-36 15 -86 15q-20 0 -37.5 -3t-37.5 -10.5t-38.5 -20t-39.5 -31.5t-41.5 -45t-44 -61t-47.5 -78q-85 -150 -198.5 -407t-308.5 -731h-95z" />
<glyph unicode="&#x475;" horiz-adv-x="981" d="M133 1066h115l76 -613q19 -135 35 -284h4q145 394 282 674q36 74 73 124.5t74.5 77t73 37t78.5 10.5q61 0 105 -17l-22 -104q-29 13 -74 13q-48 0 -96 -37.5t-102 -142.5q-49 -93 -102 -211t-92 -210t-165 -390h-119z" />
<glyph unicode="&#x490;" horiz-adv-x="957" d="M41 0l310 1485h580l79 372l119 33l-106 -510h-576l-290 -1380h-116z" />
<glyph unicode="&#x491;" horiz-adv-x="815" d="M32 0l222 1066h490l69 327l118 33l-97 -469h-485l-201 -957h-116z" />
<glyph unicode="&#x2013;" horiz-adv-x="1013" d="M0 520v106h1014v-106h-1014z" />
<glyph unicode="&#x2014;" horiz-adv-x="1801" d="M0 520v106h1802v-106h-1802z" />
<glyph unicode="&#x2018;" horiz-adv-x="488" d="M277 1201q0 74 16.5 137t54.5 126.5t101 128.5l51 -37q-96 -153 -96 -322q0 -83 15 -162l-126 -31q-16 78 -16 160z" />
<glyph unicode="&#x2019;" horiz-adv-x="508" d="M228 1077q96 154 96 322q0 83 -15 162l125 32q17 -84 17 -160q0 -111 -39.5 -203.5t-132.5 -188.5z" />
<glyph unicode="&#x201a;" horiz-adv-x="508" d="M-32 -254q97 154 97 321q0 84 -15 163l126 32q15 -79 15 -161q0 -111 -39 -203t-132 -188z" />
<glyph unicode="&#x201c;" horiz-adv-x="834" d="M277 1201q0 74 16.5 137t54.5 126.5t101 128.5l51 -37q-96 -153 -96 -322q0 -83 15 -162l-126 -31q-16 78 -16 160zM624 1201q0 55 9 104t29 97t53 95t80 96l52 -37q-97 -153 -97 -322q0 -83 16 -162l-126 -31q-16 84 -16 160z" />
<glyph unicode="&#x201d;" horiz-adv-x="855" d="M228 1077q96 154 96 322q0 83 -15 162l125 32q17 -84 17 -160q0 -111 -39.5 -203.5t-132.5 -188.5zM574 1077q97 154 97 322q0 83 -15 162l126 32q16 -79 16 -160q0 -74 -16.5 -137t-54.5 -127t-101 -128z" />
<glyph unicode="&#x201e;" horiz-adv-x="855" d="M-32 -254q97 154 97 321q0 84 -15 163l126 32q15 -79 15 -161q0 -111 -39 -203t-132 -188zM316 -254q96 154 96 321q0 79 -16 163l126 32q16 -79 16 -161q0 -111 -39 -203.5t-132 -187.5z" />
<glyph unicode="&#x2020;" horiz-adv-x="1071" d="M187 937l25 120q54 -1 177.5 -13.5t162.5 -13.5q12 54 30 182.5t28 182.5h118q-11 -59 -48 -187.5t-48 -177.5q43 2 172 14t183 13l-26 -120q-53 0 -177 10.5t-165 11.5q-6 -33 -22.5 -128t-45.5 -250.5t-69 -350.5l-67 -329h-114l69 329q40 193 77 351.5t60 249 t31 128.5q-30 -1 -79.5 -4.5t-93.5 -7.5t-94.5 -7t-83.5 -3z" />
<glyph unicode="&#x2021;" horiz-adv-x="1071" d="M41 239l24 120q33 0 82.5 -3.5t91.5 -7.5t90.5 -8t78.5 -4q3 12 19 122t37 209q14 61 29.5 121.5t27.5 103.5t17 67q-30 -1 -79.5 -4.5t-93.5 -7.5t-94.5 -7t-83.5 -3l25 120q54 -1 177.5 -13.5t162.5 -13.5q12 54 30 182.5t28 182.5h118q-11 -59 -48 -187.5t-48 -177.5 q43 2 172 14t183 13l-26 -120q-53 0 -177 10.5t-165 11.5q-4 -20 -19.5 -123.5t-34.5 -195.5q-17 -86 -44.5 -185t-32.5 -119q41 0 170 11.5t182 11.5l-25 -120q-54 1 -177.5 13t-162.5 14q-11 -54 -29.5 -182.5t-28.5 -182.5h-118q8 38 21.5 90t26 95.5t26.5 94t21 85.5 q-43 -2 -171.5 -14t-181.5 -13z" />
<glyph unicode="&#x2022;" horiz-adv-x="641" d="M99 716q0 92 60.5 155.5t149.5 63.5q91 0 151 -63.5t60 -155.5q0 -91 -60 -153.5t-151 -62.5q-89 0 -149.5 63t-60.5 153z" />
<glyph unicode="&#x2026;" horiz-adv-x="2004" d="M140 69q0 29 12 52t34 35.5t48 12.5q36 0 59 -26t23 -59q0 -44 -27 -71.5t-68 -27.5q-24 0 -43 12t-28.5 31.5t-9.5 40.5zM784 69q0 29 12.5 52t34 35.5t48.5 12.5q35 0 57.5 -25.5t22.5 -59.5q0 -44 -27 -71.5t-67 -27.5q-36 0 -58.5 25t-22.5 59zM1428 69q0 29 12.5 52 t34 35.5t47.5 12.5q24 0 43 -12.5t29 -32t10 -40.5q0 -44 -27 -71.5t-68 -27.5q-36 0 -58.5 25.5t-22.5 58.5z" />
<glyph unicode="&#x2030;" horiz-adv-x="2601" d="M254 1012q0 137 47 247.5t132.5 173.5t194.5 63q119 0 189.5 -74.5t70.5 -215.5q0 -103 -27.5 -193t-76.5 -154.5t-119 -101.5t-151 -37q-119 0 -189.5 75.5t-70.5 216.5zM344 0l1096 1485h119l-1095 -1485h-120zM365 1025q0 -208 157 -208q56 0 104 30t81 81t52 119.5 t19 143.5q0 208 -159 208q-73 0 -132 -51t-90.5 -136.5t-31.5 -186.5zM1004 268q0 138 47 248t133 173t194 63q58 0 105.5 -18t82 -54t53.5 -91.5t19 -126.5q0 -137 -47 -247.5t-132.5 -173.5t-194.5 -63q-119 0 -189.5 74.5t-70.5 215.5zM1115 282q0 -73 19 -119.5 t53.5 -67t85.5 -20.5q73 0 132 51t91 136.5t32 186.5q0 207 -158 207q-74 0 -132.5 -51.5t-90.5 -136.5t-32 -186zM1752 268q0 138 47 248t133 173t194 63q58 0 105.5 -18t82 -54t53.5 -91.5t19 -126.5q0 -137 -47 -247.5t-132.5 -173.5t-194.5 -63q-119 0 -189.5 74.5 t-70.5 215.5zM1863 282q0 -73 19 -119.5t53.5 -67t85.5 -20.5q73 0 132 51t90.5 136.5t31.5 186.5q0 108 -40.5 157.5t-116.5 49.5q-74 0 -132.5 -51.5t-90.5 -136.5t-32 -186z" />
<glyph unicode="&#x2039;" horiz-adv-x="693" d="M56 543l440 467l76 -73l-376 -403l251 -399l-88 -58z" />
<glyph unicode="&#x203a;" horiz-adv-x="693" d="M50 148l376 404l-250 398l88 60l301 -467l-439 -466z" />
<glyph unicode="&#x2044;" horiz-adv-x="228" d="M-486 0l1094 1485h120l-1095 -1485h-119z" />
<glyph unicode="&#x20ac;" horiz-adv-x="1155" d="M32 491l18 104h152v15q0 140 30 269h-165l19 103h174q38 115 99 209t140.5 162t180 105.5t212.5 37.5q174 0 290 -84l-24 -107q-124 83 -262 83q-179 0 -310.5 -110.5t-198.5 -295.5h600l-41 -103h-590q-27 -124 -27 -247v-37h567l-40 -104h-520q9 -93 33 -164t56.5 -116 t76 -74t89 -40t99.5 -11q85 0 156.5 23t151.5 78l32 -101q-162 -108 -350 -108q-212 0 -331.5 129t-141.5 384h-175z" />
<glyph unicode="&#x2122;" horiz-adv-x="1831" d="M191 1401v84h598l-26 -84h-234v-806h-95v806h-243zM888 595v890h88l238 -363q66 -97 93 -157h4q27 60 93 157l238 363h88v-890h-94v545q0 133 8 199h-4q-33 -65 -84 -143l-217 -331h-60l-217 331q-51 78 -84 143h-4q8 -66 8 -199v-545h-94z" />
<glyph unicode="&#x2202;" horiz-adv-x="1112" d="M22 381q0 123 43 227t117 175t175.5 110.5t216.5 39.5q179 0 331 -101h5q2 22 2 94q0 103 -21 185t-55 133t-80.5 85t-94 47.5t-98.5 13.5q-143 0 -299 -99l-55 89q180 116 350 116q221 0 350 -151t129 -421q0 -160 -31.5 -306t-89.5 -261.5t-137 -201t-177.5 -131.5 t-206.5 -46q-171 0 -272.5 111.5t-101.5 291.5zM148 394q0 -141 69 -224.5t191 -83.5q115 0 216 78.5t172 219.5t98 321q-150 120 -320 120q-85 0 -162 -30t-136 -84.5t-93.5 -136.5t-34.5 -180z" />
<glyph unicode="&#x2206;" horiz-adv-x="1249" d="M-79 0l777 1492h82l282 -1492h-1141zM101 103h823l-169 901q-28 154 -45 273h-5q-40 -89 -129 -258z" />
<glyph unicode="&#x220f;" horiz-adv-x="1380" d="M30 -406l368 1786h-198l23 105h1254l-41 -105h-197l-369 -1786h-118l370 1786h-606l-370 -1786h-116z" />
<glyph unicode="&#x2211;" horiz-adv-x="1256" d="M-88 -406l755 982l-358 909h1071l-41 -105h-862l325 -817l-664 -864h881l-23 -105h-1084z" />
<glyph unicode="&#x221a;" horiz-adv-x="1443" d="M114 804l350 106l99 -775q17 -134 28 -281h4q75 171 123 270l834 1739h131l-1032 -2138h-148l-144 1027l-211 -62z" />
<glyph unicode="&#x221e;" horiz-adv-x="1729" d="M67 595q0 97 43.5 178.5t126 131.5t189.5 50q54 0 106 -16t92.5 -39.5t85.5 -62.5t76.5 -73t73.5 -84q39 48 71.5 83.5t76.5 74t87 62t97.5 39.5t112.5 16q106 0 188.5 -50t125.5 -131.5t43 -178.5t-43 -179t-125.5 -132t-188.5 -50q-58 0 -112.5 15.5t-97.5 39.5 t-87 61.5t-76.5 73t-71.5 83.5q-41 -49 -73.5 -83.5t-77 -73t-85.5 -62t-92.5 -39t-105.5 -15.5q-107 0 -189.5 50t-126 132t-43.5 179zM191 595q0 -113 65.5 -182t173.5 -69q44 0 86 14t76 35.5t71.5 56.5t65 67t64.5 78q-36 46 -64 78t-65.5 67t-71.5 56t-76 35t-86 14 q-108 0 -173.5 -68.5t-65.5 -181.5zM933 595q32 -38 55.5 -65t55 -58.5t59.5 -52t60 -39t66.5 -27.5t70.5 -9q108 0 173.5 69t65.5 182t-65.5 181.5t-173.5 68.5q-43 0 -85 -14.5t-76 -35t-73 -57t-66.5 -66.5t-66.5 -77z" />
<glyph unicode="&#x222b;" horiz-adv-x="654" d="M-354 -498l38 96q55 -26 125 -26q98 0 156.5 61.5t84.5 188.5l290 1403q22 120 64 194q100 176 299 176q100 0 162 -36l-38 -97q-57 27 -124 27q-99 0 -157 -61.5t-84 -188.5l-290 -1404q-24 -125 -62 -194q-100 -175 -301 -175q-104 0 -163 36z" />
<glyph unicode="&#x2248;" horiz-adv-x="1150" d="M45 389q70 74 133 107t133 33q50 0 122.5 -22t133.5 -48.5t127.5 -49t107.5 -22.5q22 0 42 4.5t36.5 12t36 21.5t35 27.5t39.5 35.5l75 -67q-70 -73 -133 -106t-133 -33q-47 0 -120 22t-136 48.5t-130.5 49t-104.5 22.5q-36 0 -68 -13t-56.5 -32t-64.5 -57zM45 739 q70 73 133 106.5t133 33.5q50 0 122.5 -22t133.5 -49t127.5 -49t107.5 -22q52 0 91 23t98 78l75 -68q-70 -73 -133 -106.5t-133 -33.5q-47 0 -120 22.5t-136 49t-130.5 48.5t-104.5 22q-52 0 -91 -23t-98 -78z" />
<glyph unicode="&#x2260;" horiz-adv-x="1150" d="M30 346v107h421l119 243h-540v106h592l115 232h117l-115 -232h360v-106h-411l-120 -243h531v-107h-583l-120 -245h-117l119 245h-368z" />
<glyph unicode="&#x2264;" horiz-adv-x="1150" d="M11 0v106h1070v-106h-1070zM65 597v117l933 367v-114l-798 -309v-5l798 -309v-114z" />
<glyph unicode="&#x2265;" horiz-adv-x="1148" d="M-4 0v106h1070v-106h-1070zM79 230v114l798 309v5l-798 309v114l933 -367v-117z" />
<glyph unicode="&#x25ca;" horiz-adv-x="1051" d="M135 651l458 651h125l192 -651l-457 -651h-126zM252 645l154 -539h4l388 552l-153 538h-5z" />
<glyph unicode="&#x25fc;" horiz-adv-x="1069" d="M0 0v1070h1070v-1070h-1070z" />
</font>
</defs>
</svg>
