<?xml version="1.0" standalone="no"?>
<!DOCTYPE svg PUBLIC "-//W3C//DTD SVG 1.1//EN" "http://www.w3.org/Graphics/SVG/1.1/DTD/svg11.dtd" >
<svg xmlns="http://www.w3.org/2000/svg">
<metadata></metadata>
<defs>
<font id="bliss_proheavy_italic" horiz-adv-x="900" >
<font-face units-per-em="2048" ascent="1638" descent="-410" />
<missing-glyph horiz-adv-x="359" />
<glyph unicode="&#xfb01;" horiz-adv-x="1412" d="M-226 -288q71 70 125 140t93 129.5t70 141t50 139.5t38.5 163t29.5 173.5t29 205.5h-205l43 262h196l19 108q23 146 105 252q65 81 157.5 125t208.5 44q158 0 290 -79l-113 -261q-79 47 -151 47q-68 0 -106.5 -40t-52.5 -129l-12 -67h270l-92 -262h-220q-3 -15 -7 -45 q-15 -107 -23.5 -161.5t-25.5 -153.5t-31.5 -155t-39 -143.5t-50.5 -144.5t-64 -132t-81.5 -132t-100 -119t-123.5 -116zM784 0l237 1066h340l-237 -1066h-340zM1047 1370q0 95 65 153.5t152 58.5q84 0 136.5 -51t52.5 -125q0 -96 -65 -155.5t-152 -59.5q-83 0 -136 52 t-53 127z" />
<glyph unicode="&#xfb02;" horiz-adv-x="1542" d="M-226 -288q71 70 125 140t93 129.5t70 141t50 139.5t38.5 163t29.5 173.5t29 205.5h-205l43 262h196l19 108q23 146 105 252q65 81 157.5 125t208.5 44q158 0 290 -79l-113 -261q-79 47 -151 47q-68 0 -106.5 -40t-52.5 -129l-12 -67h270l-92 -262h-220q-3 -15 -7 -45 q-15 -107 -23.5 -161.5t-25.5 -153.5t-31.5 -155t-39 -143.5t-50.5 -144.5t-64 -132t-81.5 -132t-100 -119t-123.5 -116zM851 256q0 51 19 140l265 1199h340l-263 -1178q-11 -57 -11 -79q0 -63 72 -63q44 0 81 11v-271q-97 -33 -196 -33q-135 0 -221 71.5t-86 202.5z" />
<glyph horiz-adv-x="2048" />
<glyph horiz-adv-x="2048" />
<glyph unicode="&#xd;" horiz-adv-x="2048" />
<glyph unicode=" "  horiz-adv-x="359" />
<glyph unicode="&#x09;" horiz-adv-x="359" />
<glyph unicode="&#xa0;" horiz-adv-x="359" />
<glyph unicode="!" horiz-adv-x="675" d="M30 142q0 86 57.5 145t140.5 59q71 0 116 -46.5t45 -119.5q0 -84 -58.5 -143t-141.5 -59q-69 0 -114 46.5t-45 117.5zM174 466q-10 198 10.5 350t108.5 556l25 113h346l-24 -115q-88 -415 -131 -562.5t-137 -341.5h-198z" />
<glyph unicode="&#x22;" horiz-adv-x="1058" d="M209 1084l102 541l299 -60l-152 -529zM683 1084l101 541l300 -60l-153 -529z" />
<glyph unicode="#" horiz-adv-x="1634" d="M-22 354l24 256h314l90 289h-262l25 257h319l105 329h329l-105 -329h262l103 329h329l-103 -329h245l-24 -257h-305l-90 -289h262l-25 -256h-319l-114 -354h-328l113 354h-262l-112 -354h-329l112 354h-254zM645 610h260l91 289h-261z" />
<glyph unicode="$" horiz-adv-x="1260" d="M60 140l120 245q68 -39 145.5 -60t147.5 -21q44 0 84 6t79.5 20.5t63 43.5t23.5 69q0 35 -16.5 65t-44 53t-63.5 45.5t-75.5 45t-79 47.5t-75.5 57.5t-63.5 71t-44 92t-16.5 116.5q0 159 112 274.5t294 144.5l45 226h241l-47 -226q149 -14 277 -75l-60 -265 q-48 27 -103 46t-109 28.5t-104 9.5q-82 0 -136.5 -33.5t-54.5 -97.5q0 -29 13 -55t36 -45.5t53.5 -40t65 -37.5t70.5 -39.5t70.5 -45t65 -54t53.5 -67t36.5 -84t13.5 -104.5q0 -177 -129 -303t-344 -155l-50 -240h-240l49 240q-157 19 -303 102z" />
<glyph unicode="%" horiz-adv-x="2070" d="M142 1019q0 97 29 183t84 153t141.5 106t194.5 39q69 0 125 -17t94 -46.5t63.5 -71t37 -89t11.5 -100.5q0 -97 -29.5 -183.5t-84 -153.5t-141.5 -106t-194 -39q-86 0 -151 26t-103.5 71.5t-57.5 102.5t-19 125zM333 0l1122 1485h277l-1122 -1485h-277zM404 1006 q0 -118 94 -118q37 0 66.5 23t46.5 57.5t29 77t16 77.5t4 64q0 120 -95 120q-30 0 -56 -16.5t-43 -43.5t-29.5 -59t-19.5 -67t-10 -63t-3 -52zM1142 301q0 65 13 125.5t37.5 114t63 98.5t87.5 77t112 50t136 18q85 0 150.5 -26t104 -71.5t57.5 -102.5t19 -124 q0 -98 -29.5 -184t-84 -153t-141.5 -106t-194 -39q-86 0 -151 25.5t-103.5 71t-57.5 102.5t-19 124zM1404 290q0 -118 94 -118q37 0 66.5 23t46.5 57.5t28.5 77t16 77.5t4.5 64q0 120 -95 120q-36 0 -65.5 -23.5t-47 -58t-29 -77.5t-15.5 -78t-4 -64z" />
<glyph unicode="&#x26;" horiz-adv-x="1828" d="M36 408q0 183 115.5 300.5t330.5 158.5v5q-171 87 -171 250q0 106 66 192.5t186.5 136t272.5 49.5q277 0 455 -117l-95 -254q-178 103 -349 103q-60 0 -105.5 -17t-69 -46.5t-23.5 -67.5q0 -56 43 -99t153 -76l-50 -225q-92 0 -165 -13.5t-120.5 -36.5t-78.5 -55.5 t-44 -68.5t-13 -78q0 -92 71.5 -148t199.5 -56q63 0 124.5 12.5t126 43t118.5 76.5t99.5 119t71.5 164h-183l60 262h778l-103 -262h-237q-32 -137 -99 -251t-155 -193t-195.5 -133t-220.5 -79.5t-230 -25.5q-168 0 -294.5 50t-198 148t-71.5 232z" />
<glyph unicode="'" horiz-adv-x="585" d="M209 1084l102 541l299 -60l-152 -529z" />
<glyph unicode="(" horiz-adv-x="799" d="M65 288q0 153 22.5 305t74 311.5t128.5 305.5t191 286t256 252l177 -200q-233 -211 -365 -542t-132 -744q0 -202 33.5 -351.5t99.5 -282.5l-249 -159q-236 298 -236 819z" />
<glyph unicode=")" horiz-adv-x="799" d="M-135 -331q233 211 365.5 542t132.5 744q0 202 -33.5 351t-99.5 282l247 160q237 -299 237 -820q0 -152 -22.5 -304t-74 -312t-128 -305.5t-190.5 -285.5t-256 -252z" />
<glyph unicode="*" horiz-adv-x="1126" d="M202 1253q45 8 103 4t102.5 -12t91 -16t69.5 -8q-16 17 -70 59t-109 93t-88 102l190 135q38 -44 69 -111t54 -132.5t35 -87.5q7 22 16.5 91t27 141.5t46.5 124.5l211 -93q-15 -44 -46.5 -93.5t-61 -84.5t-60 -71.5t-41.5 -54.5q21 5 86 32t136 48t131 22l26 -232 q-45 -9 -104.5 -5t-103 11.5t-90.5 15.5t-67 9q12 -14 38 -36t55 -45t59.5 -49.5t60 -59t48.5 -64.5l-189 -138q-38 45 -68.5 113t-54 133t-35.5 87q-6 -21 -15.5 -91t-27 -142t-45.5 -125l-211 94q11 31 29 63t37.5 59t41.5 55t40.5 49.5t35 43.5t25.5 37q-22 -5 -86.5 -33 t-135.5 -49.5t-131 -22.5z" />
<glyph unicode="+" horiz-adv-x="1281" d="M88 419v279h370v413h314v-413h372v-279h-372v-419h-314v419h-370z" />
<glyph unicode="," horiz-adv-x="652" d="M-99 -239q99 122 134.5 231t39.5 251h308q10 -161 -64 -320t-233 -288z" />
<glyph unicode="-" horiz-adv-x="733" d="M-11 421l61 280h592l-61 -280h-592z" />
<glyph unicode="." horiz-adv-x="652" d="M30 142q0 86 57.5 145t140.5 59q71 0 116 -46.5t45 -119.5q0 -84 -58.5 -143t-141.5 -59q-69 0 -114 46.5t-45 117.5z" />
<glyph unicode="/" horiz-adv-x="929" d="M-103 -73l756 1641h372l-757 -1641h-371z" />
<glyph unicode="0" horiz-adv-x="1303" d="M81 518q0 76 8.5 155.5t26 164t46.5 164.5t67.5 155t92 137t117.5 108.5t146.5 72t175.5 25.5q120 0 209.5 -38.5t145 -110.5t82.5 -170t27 -222q0 -76 -8 -155t-25.5 -164t-46.5 -164.5t-67.5 -154.5t-92 -136.5t-117.5 -108t-146.5 -72.5t-175.5 -26q-96 0 -173 25 t-131 71.5t-90.5 113.5t-53.5 149t-17 181zM447 496q0 -43 3 -76.5t11 -63.5t21 -49.5t34 -31t49 -11.5q54 0 102 44t82.5 117t60 166t38 193.5t12.5 197.5q0 43 -3 76.5t-11 63.5t-21 50t-34 31t-50 11q-53 0 -101 -43.5t-82.5 -117t-60 -166.5t-38 -193.5t-12.5 -197.5z " />
<glyph unicode="1" horiz-adv-x="995" d="M169 1010v276q109 25 256.5 88.5t247.5 121.5h303l-331 -1496h-341l250 1126q-67 -31 -180.5 -65.5t-204.5 -50.5z" />
<glyph unicode="2" horiz-adv-x="1236" d="M-11 0q14 117 52 219t89.5 177.5t114.5 141t129 115.5t131 94.5t122 83.5t101 77.5t69.5 82t25.5 90.5q0 26 -6.5 46.5t-19 35t-29 25t-39 16t-47 8t-54.5 2.5q-83 0 -186.5 -26t-191.5 -68l-52 270q268 110 507 110q226 0 353 -102t127 -283q0 -69 -21.5 -134t-59 -118 t-85.5 -102t-103.5 -91.5t-112 -81.5t-111 -76.5t-100 -72.5t-80.5 -73.5t-50 -75.5h637l-65 -290h-1045z" />
<glyph unicode="3" horiz-adv-x="1217" d="M-58 67l125 269q65 -35 153 -53.5t182 -18.5q38 0 73 4.5t70 13.5t63.5 25.5t50.5 38.5t34 54t12 71q0 81 -58 111.5t-204 30.5h-224l45 266h108q155 0 250 26q160 48 160 174q0 72 -52.5 103.5t-141.5 31.5q-155 0 -356 -70l-45 264q237 92 475 92q154 0 263.5 -43.5 t165 -123t55.5 -189.5q0 -142 -78.5 -236.5t-222.5 -137.5v-4q106 -27 165.5 -90.5t59.5 -179.5q0 -86 -29 -164t-86.5 -142.5t-138 -112t-189 -73.5t-233.5 -26q-138 0 -260 25.5t-192 63.5z" />
<glyph unicode="4" horiz-adv-x="1359" d="M63 576l885 920h295l-194 -877h226l-61 -275h-225l-77 -344h-340l77 344h-554zM449 613q148 6 183 6h78l29 120q44 177 72 254z" />
<glyph unicode="5" horiz-adv-x="1227" d="M-25 63l124 270q131 -69 307 -69q44 0 87.5 7t87.5 24.5t77 44.5t54 69.5t21 95.5q0 31 -9 56t-25 42t-37.5 30.5t-47 20t-53 12t-56 6t-56.5 1.5t-53 0h-26h-185l180 812h937l-111 -291h-551l-57 -255h53q97 0 176 -21t131.5 -58t87.5 -87.5t50.5 -106.5t15.5 -118 q0 -122 -48.5 -227t-136.5 -181t-218 -119t-286 -43q-124 0 -242.5 23t-190.5 62z" />
<glyph unicode="6" horiz-adv-x="1317" d="M99 527q0 161 39 308.5t114.5 268t179.5 209.5t241 138t292 49q172 0 329 -64l-107 -258q-105 50 -239 50q-83 0 -156.5 -25.5t-138.5 -77t-118 -135.5t-88 -197h4q62 72 151 112.5t191 40.5q195 0 305 -111.5t110 -298.5q0 -106 -32.5 -197.5t-89 -156.5t-131 -112 t-159.5 -69.5t-174 -22.5q-116 0 -210.5 33t-165 98.5t-109 171.5t-38.5 246zM460 432q0 -87 44 -134.5t128 -47.5q90 0 151.5 66.5t61.5 174.5q0 82 -46 132t-128 50q-50 0 -90.5 -18.5t-66.5 -51t-40 -76.5t-14 -95z" />
<glyph unicode="7" horiz-adv-x="1155" d="M129 1485h1058v-124q-542 -676 -693 -1361h-352q36 181 102.5 358.5t149.5 328.5t169.5 275t180.5 232h-596z" />
<glyph unicode="8" horiz-adv-x="1328" d="M67 365q0 65 17 121t47 99t73 78t93 60t109 43v6q-31 21 -53 38.5t-48 45.5t-42.5 57.5t-28 71.5t-11.5 90q0 86 37.5 162.5t106.5 135.5t176.5 93t238.5 34q84 0 156.5 -13t127 -37.5t97.5 -58t70 -74.5t41 -86.5t14 -95.5q0 -67 -22 -125t-63.5 -103t-90.5 -80 t-112 -66v-4q44 -21 78.5 -46t67.5 -63t50.5 -92t17.5 -122q0 -87 -32 -161.5t-88.5 -128t-133.5 -91.5t-167 -56.5t-189 -18.5q-248 0 -392.5 104.5t-144.5 282.5zM432 392q0 -73 55.5 -114.5t140.5 -41.5q44 0 82.5 10t70 30.5t50 54.5t18.5 79q0 22 -5 40.5t-13 33 t-23 29t-28 24.5t-36.5 23t-40 21t-46.5 22.5t-49 24.5q-176 -97 -176 -236zM588 1079q0 -44 22 -80t58 -62t91 -51q87 40 127 91t40 117t-41.5 106.5t-121.5 40.5q-81 0 -128 -48t-47 -114z" />
<glyph unicode="9" horiz-adv-x="1305" d="M65 54l111 255q116 -59 256 -59q332 0 419 343h-4q-128 -84 -293 -84q-87 0 -163.5 27.5t-135 79.5t-92.5 134t-34 185q0 102 28.5 191.5t81 157.5t124 117t160.5 74t189 25q81 0 154.5 -17.5t142.5 -60t119 -107t80.5 -164t30.5 -225.5q0 -154 -30.5 -293t-95.5 -259.5 t-158.5 -208t-226.5 -137.5t-294 -50q-208 0 -369 76zM494 965q0 -37 9 -68t28 -58t54.5 -42t83.5 -15q43 0 83 8.5t64.5 19t60.5 28.5q15 52 15 129q0 90 -23 149t-63.5 85.5t-98.5 26.5q-43 0 -79.5 -16.5t-60.5 -43t-41 -61t-24.5 -70.5t-7.5 -72z" />
<glyph unicode=":" horiz-adv-x="652" d="M30 142q0 86 57.5 145t140.5 59q71 0 116 -46.5t45 -119.5q0 -84 -58.5 -143t-141.5 -59q-69 0 -114 46.5t-45 117.5zM148 827q0 86 58 145.5t140 59.5q71 0 117 -47.5t46 -119.5q0 -84 -58.5 -143.5t-141.5 -59.5q-69 0 -115 47t-46 118z" />
<glyph unicode=";" horiz-adv-x="652" d="M-99 -239q99 122 134.5 231t39.5 251h308q10 -161 -64 -320t-233 -288zM148 827q0 86 58 145.5t140 59.5q71 0 117 -47.5t46 -119.5q0 -84 -58.5 -143.5t-141.5 -59.5q-69 0 -115 47t-46 118z" />
<glyph unicode="&#x3c;" horiz-adv-x="1281" d="M112 458v256l978 380v-279l-688 -227v-5l688 -227v-279z" />
<glyph unicode="=" horiz-adv-x="1281" d="M112 165v278h1057v-278h-1057zM112 669v279h1057v-279h-1057z" />
<glyph unicode="&#x3e;" horiz-adv-x="1281" d="M146 77v279l690 227v5l-690 227v279l978 -380v-256z" />
<glyph unicode="?" horiz-adv-x="1013" d="M176 142q0 86 57.5 145t140.5 59q71 0 116.5 -46.5t45.5 -119.5q0 -84 -59 -143t-141 -59q-46 0 -82.5 21t-57 58.5t-20.5 84.5zM176 1350q102 75 222 112.5t242 37.5q185 0 296 -94t111 -241q0 -126 -80 -232q-30 -39 -73.5 -79t-86 -70.5t-89.5 -67.5t-86 -72t-73 -81 t-52 -97h-228q0 53 12 101.5t32.5 87t48 75t58 65.5t63 58t63 53t57.5 50t47.5 49.5t32.5 50.5t12 55q0 103 -135 103q-63 0 -136 -27.5t-137 -73.5z" />
<glyph unicode="@" horiz-adv-x="1763" d="M15 430q0 156 44 292.5t123 238t185.5 175t234.5 111t268 37.5q170 0 312.5 -50t245 -142.5t159.5 -230.5t57 -307q0 -239 -103.5 -365t-283.5 -126q-94 0 -155 46t-83 136h-3q-32 -69 -120.5 -124.5t-201.5 -55.5q-45 0 -89.5 11.5t-87.5 39.5t-76 68.5t-53.5 104 t-20.5 141.5q0 144 66.5 258.5t184 178.5t265.5 64q96 0 194 -24.5t180 -72.5l-45 -338q-11 -79 -11 -126q0 -30 4.5 -51.5t13.5 -38t25.5 -24.5t39.5 -8q73 0 113.5 74.5t40.5 211.5q0 96 -20.5 180t-65 155.5t-110.5 122.5t-162 80t-215 29q-135 0 -252 -44.5 t-203.5 -126.5t-136.5 -205.5t-50 -273.5q0 -114 27 -210t74.5 -164.5t113.5 -116t145 -70.5t167 -23q190 0 309 58l54 -177q-171 -64 -380 -64q-153 0 -285 53t-228 148.5t-150.5 236t-54.5 308.5zM630 437q0 -96 33 -136.5t94 -40.5q80 0 138 79.5t76 225.5l18 142 q-57 30 -112 30q-51 0 -95 -20t-78 -57t-54 -95t-20 -128z" />
<glyph unicode="A" horiz-adv-x="1483" d="M-146 0l858 1492h300l297 -1492h-365l-61 354h-449l-193 -354h-387zM591 628h249l-38 286q-12 90 -13 122h-5q-26 -69 -51 -122z" />
<glyph unicode="B" horiz-adv-x="1326" d="M4 0l327 1485h435q116 0 203.5 -25t140.5 -71t78.5 -107t25.5 -136q0 -80 -29 -149t-78 -119t-118 -87v-5q38 -10 73 -31t65 -53t48.5 -80.5t18.5 -105.5q0 -82 -26.5 -157t-80.5 -140.5t-131.5 -114t-186.5 -76.5t-238 -28h-527zM415 279h153q131 0 207 53t76 150 q0 65 -50 96.5t-132 31.5h-183zM548 890h114q89 0 149.5 51.5t60.5 144.5q0 52 -38 84.5t-116 32.5h-101z" />
<glyph unicode="C" horiz-adv-x="1400" d="M101 626q0 135 33.5 256t94 216.5t144.5 171.5t186 126.5t218.5 77t241.5 26.5q70 0 141 -8t134.5 -23t111.5 -36l-65 -291q-158 72 -325 72q-101 0 -189.5 -30.5t-153 -84t-111.5 -123.5t-70 -151t-23 -165q0 -116 42.5 -204t130.5 -140t212 -52q154 0 313 72l63 -278 q-95 -42 -211 -61t-219 -19q-143 0 -260.5 35t-198 95.5t-135.5 143.5t-80 176.5t-25 197.5z" />
<glyph unicode="D" horiz-adv-x="1580" d="M4 0l327 1485h387q268 0 458 -86q150 -69 234 -202t84 -335q0 -139 -38 -262t-107.5 -220t-163 -171t-207.5 -123q-204 -86 -456 -86h-518zM417 290h117q179 0 309 69q131 68 207 200t76 329q0 175 -133 249q-100 57 -273 57h-103z" />
<glyph unicode="E" horiz-adv-x="1163" d="M4 0l327 1485h863l-110 -291h-467l-67 -300h464l-64 -290h-464l-69 -314h527l-63 -290h-877z" />
<glyph unicode="F" horiz-adv-x="1141" d="M4 0l327 1485h863l-108 -291h-469l-67 -300h462l-64 -290h-462l-132 -604h-350z" />
<glyph unicode="G" horiz-adv-x="1621" d="M99 636q0 109 27 214t78.5 202t132.5 178.5t182.5 142t234.5 94t284 33.5q135 0 268 -25.5t237 -75.5l-62 -288q-85 48 -194 75.5t-228 27.5q-121 0 -222.5 -34t-168.5 -89.5t-113.5 -128t-67.5 -148.5t-21 -152q0 -195 106 -296.5t290 -101.5q109 0 183 24l103 447h348 l-146 -666q-213 -91 -516 -91q-152 0 -274.5 33t-207.5 92t-142.5 142t-84 180.5t-26.5 210.5z" />
<glyph unicode="H" horiz-adv-x="1689" d="M4 0l327 1485h349l-128 -584h656l127 584h350l-327 -1485h-348l132 608h-656l-132 -608h-350z" />
<glyph unicode="I" horiz-adv-x="682" d="M4 0l327 1485h349l-326 -1485h-350z" />
<glyph unicode="J" horiz-adv-x="770" d="M-336 -370l97 267q65 -32 147 -32q57 0 95 20.5t64 69.5q29 60 47 146l305 1384h349l-325 -1483q-36 -158 -94 -238q-131 -185 -412 -185q-158 0 -273 51z" />
<glyph unicode="K" horiz-adv-x="1400" d="M4 0l327 1485h349l-137 -627h5l583 627h423l-746 -780l458 -705h-412l-366 597h-4l-130 -597h-350z" />
<glyph unicode="L" horiz-adv-x="1053" d="M4 0l327 1485h349l-263 -1195h505l-68 -290h-850z" />
<glyph unicode="M" horiz-adv-x="1894" d="M4 0l327 1485h318l207 -498q80 -198 92 -237h5q54 85 162 217l417 518h360l-327 -1485h-348l155 703q43 188 49 209h-6q-46 -65 -133 -168l-332 -406h-155l-171 401q-44 97 -67 173h-9q-3 -28 -11.5 -78.5t-17 -89t-22.5 -102t-17 -79.5l-126 -563h-350z" />
<glyph unicode="N" horiz-adv-x="1756" d="M4 0l327 1485h331l432 -765q31 -53 97 -189h5q9 49 38 183l170 771h348l-326 -1485h-304l-453 800q-50 85 -97 184h-4q-7 -48 -34 -169l-180 -815h-350z" />
<glyph unicode="O" horiz-adv-x="1702" d="M101 591q0 152 40 291t116.5 251t181 194.5t239.5 127.5t287 45q144 0 262 -42.5t199.5 -121.5t126 -193.5t44.5 -254.5q0 -153 -40 -292t-116 -251t-180.5 -194.5t-239.5 -127.5t-286 -45q-193 0 -336 74t-220.5 212.5t-77.5 326.5zM466 604q0 -163 78 -251.5t217 -88.5 q51 0 99.5 13.5t90.5 38.5t80 60.5t69 78t55.5 92t41.5 103t26 110.5t9 114q0 164 -77.5 252t-217.5 88q-67 0 -130 -24t-114 -66t-94 -100t-72 -125.5t-45 -143t-16 -151.5z" />
<glyph unicode="P" horiz-adv-x="1296" d="M4 0l327 1485h363q174 0 286 -49q118 -52 184 -149t66 -230q0 -175 -83 -306t-251 -199q-164 -66 -380 -66h-54l-108 -486h-350zM522 763h48q119 0 196 50q56 35 85.5 91.5t29.5 127.5q0 108 -77 148q-57 28 -126 28h-59z" />
<glyph unicode="Q" horiz-adv-x="1702" d="M101 591q0 152 40 291t116.5 251t181 194.5t239.5 127.5t287 45q144 0 262 -42.5t199.5 -121.5t126 -193.5t44.5 -254.5q0 -210 -74.5 -390t-213.5 -305.5t-325 -179.5q-23 -6 -45 -11v-4q26 -7 66 -23t72 -29.5t79.5 -24.5t94.5 -11q91 0 189 30l63 -269 q-141 -47 -307 -47q-101 0 -190.5 20.5t-169 62.5t-148 94.5t-142.5 125.5q-23 23 -66 53.5t-82 56t-86.5 66t-81.5 84.5q-60 75 -94.5 180.5t-34.5 223.5zM466 604q0 -163 78 -251.5t217 -88.5q51 0 99.5 13.5t90.5 38.5t80 60.5t69 78t55.5 92t41.5 103t26 110.5t9 114 q0 164 -77.5 252t-217.5 88q-67 0 -130 -24t-114 -66t-94 -100t-72 -125.5t-45 -143t-16 -151.5z" />
<glyph unicode="R" horiz-adv-x="1342" d="M4 0l327 1485h397q115 0 205.5 -20t150.5 -55.5t99.5 -86t56.5 -109.5t17 -128q0 -92 -30 -169.5t-82.5 -132t-117.5 -91t-141 -55.5v-8q33 -52 85 -166l203 -464h-372l-153 389q-19 47 -28.5 69t-23 47t-25.5 38h-99l-119 -543h-350zM534 820h85q126 0 207.5 61.5 t81.5 170.5q0 74 -49 115t-152 41h-88z" />
<glyph unicode="S" horiz-adv-x="1137" d="M-56 92l140 271q82 -49 157.5 -74t164.5 -25q44 0 82.5 7.5t74 24t56.5 47.5t21 74q0 37 -16.5 69.5t-45 57t-65 48.5t-77.5 47.5t-81.5 49t-77 59t-65 72t-45 92t-16.5 115.5q0 98 35.5 183t103.5 150t174.5 102.5t238.5 37.5q120 0 224.5 -23.5t181.5 -61.5l-62 -293 q-76 45 -166.5 68.5t-168.5 23.5q-99 0 -147.5 -40t-48.5 -95q0 -35 16.5 -66t45 -56t65.5 -49.5t77.5 -49t81.5 -51.5t77.5 -61.5t65 -74t45 -93.5t16.5 -116q0 -115 -44.5 -207.5t-124 -152.5t-187.5 -92t-235 -32q-260 0 -471 114z" />
<glyph unicode="T" horiz-adv-x="1265" d="M117 1194l63 291h1239l-125 -291h-389l-263 -1194h-349l264 1194h-440z" />
<glyph unicode="U" horiz-adv-x="1621" d="M126 453q0 98 29 227l176 805h349l-186 -838q-17 -78 -17 -138q0 -82 30.5 -137.5t85 -81.5t132.5 -26q146 0 236 90q80 79 109 220l200 911h350l-203 -922q-64 -292 -214 -423q-188 -162 -483 -162q-145 0 -259 35.5t-186.5 100t-110.5 150.5t-38 189z" />
<glyph unicode="V" horiz-adv-x="1511" d="M174 1485h367l137 -699q5 -27 19.5 -99t23 -116.5t14.5 -86.5h4q56 129 135 273l405 728h381l-869 -1496h-273z" />
<glyph unicode="W" horiz-adv-x="2101" d="M174 1485h369l79 -674q25 -239 29 -323h5q49 122 133 284l238 458l-40 255h333l90 -679q29 -214 39 -318h4q41 131 115 294l311 703h372l-742 -1496h-295l-81 507q-34 210 -41 270h-4q-43 -111 -123 -257l-285 -520h-288z" />
<glyph unicode="X" horiz-adv-x="1400" d="M-155 0l655 768l-343 717h365l215 -449l381 449h404l-634 -744l360 -741h-367l-228 471l-408 -471h-400z" />
<glyph unicode="Y" horiz-adv-x="1348" d="M167 1485h351l212 -602h5l372 602h385l-634 -922l-123 -563h-350l129 585z" />
<glyph unicode="Z" horiz-adv-x="1272" d="M-95 0l850 1194h-541l-20 291h1145l-839 -1195h624l-65 -290h-1154z" />
<glyph unicode="[" horiz-adv-x="855" d="M-43 -531l498 2277h559l-57 -257h-224l-387 -1764h226l-56 -256h-559z" />
<glyph unicode="\" horiz-adv-x="1175" d="M180 1568h354l446 -1641h-354z" />
<glyph unicode="]" horiz-adv-x="855" d="M-241 -531l56 256h226l385 1764h-226l56 257h559l-497 -2277h-559z" />
<glyph unicode="^" horiz-adv-x="1071" d="M67 647l335 838h269l333 -838h-279l-187 549h-4l-188 -549h-279z" />
<glyph unicode="_" horiz-adv-x="986" d="M-223 -314l36 166h987l-37 -166h-986z" />
<glyph unicode="`" d="M144 1528h363l108 -332h-254z" />
<glyph unicode="a" horiz-adv-x="1141" d="M-34 273q0 171 111 275q156 144 499 144h84q2 11 2 24q0 60 -38 92t-136 32q-132 0 -297 -64l-45 236q204 80 415 80q45 0 86 -3.5t86.5 -13.5t83.5 -26t73.5 -43t60 -62t39 -85t14.5 -111q0 -94 -35 -234l-34 -131q-30 -125 -30 -200q0 -71 21 -142l-294 -63 q-11 31 -23.5 85.5t-15.5 89.5q-58 -80 -143 -127.5t-179 -47.5q-139 0 -222 81.5t-83 213.5zM284 322q0 -42 25 -62.5t67 -20.5q78 0 151.5 57t96.5 151l6 26h-51q-201 0 -265 -71q-30 -34 -30 -80z" />
<glyph unicode="b" horiz-adv-x="1245" d="M-36 36l347 1559h340l-99 -453q-20 -100 -64 -218h6q139 168 329 168q133 0 219.5 -98.5t86.5 -258.5q0 -138 -40.5 -258.5t-114 -211t-172.5 -155.5t-220 -98.5t-253 -33.5q-42 0 -95 3t-135 17.5t-135 37.5zM354 262q23 -8 63 -8q84 0 155 35.5t118.5 94t74 134.5 t26.5 157q0 61 -32.5 100.5t-87.5 39.5q-74 0 -140 -69q-89 -93 -135 -291z" />
<glyph unicode="c" horiz-adv-x="1017" d="M4 451q0 101 26 194t80 174.5t131 142t186 95.5t237 35q57 0 115.5 -8t108.5 -22t90 -32l-64 -269q-131 64 -241 64q-66 0 -125 -23.5t-105.5 -67t-73.5 -111t-27 -150.5q0 -74 26.5 -125t78 -77t125.5 -26q126 0 239 66l92 -236q-39 -26 -102.5 -48t-136.5 -35.5 t-137 -13.5q-109 0 -197 25.5t-148 69t-100.5 104t-59 129t-18.5 145.5z" />
<glyph unicode="d" horiz-adv-x="1236" d="M4 475q0 137 47 252.5t130 195.5t200.5 124.5t254.5 44.5q112 0 204 -26l117 529h341l-341 -1535q-89 -36 -197 -59t-208 -23q-129 0 -233 37.5t-172.5 104t-105.5 157.5t-37 198zM342 486q0 -105 59.5 -168.5t157.5 -63.5q60 0 105 19l118 522q-49 20 -120 20 t-130.5 -24t-101 -67t-65 -104t-23.5 -134z" />
<glyph unicode="e" horiz-adv-x="1133" d="M4 441q0 132 44.5 251t123.5 207.5t196 140.5t254 52q195 0 303.5 -98.5t108.5 -265.5q0 -117 -52 -287l-649 -11v-18q0 -85 61.5 -129t153.5 -44q73 0 140 17t152 55l91 -236q-94 -48 -204.5 -72.5t-212.5 -24.5q-127 0 -225.5 35.5t-160 99t-93 146.5t-31.5 182z M372 656l326 4q14 38 14 68q0 54 -34 83t-87 29q-50 0 -95 -24t-77 -66t-47 -94z" />
<glyph unicode="f" horiz-adv-x="826" d="M-226 -288q71 70 125 140t93 129.5t70 141t50 139.5t38.5 163t29.5 173.5t29 205.5h-205l43 262h196l19 108q23 146 105 252q65 81 157.5 125t208.5 44q158 0 290 -79l-113 -261q-79 47 -151 47q-68 0 -106.5 -40t-52.5 -129l-12 -67h270l-92 -262h-220q-3 -15 -7 -45 q-15 -107 -23.5 -161.5t-25.5 -153.5t-31.5 -155t-39 -143.5t-50.5 -144.5t-64 -132t-81.5 -132t-100 -119t-123.5 -116z" />
<glyph unicode="g" horiz-adv-x="1208" d="M-99 -455l110 281q75 -36 137.5 -51.5t133.5 -15.5q132 0 208.5 62.5t106.5 193.5l27 116h-5q-63 -76 -145 -114.5t-165 -38.5q-46 0 -88 12t-82 41t-69.5 72t-47.5 110.5t-18 151.5t13.5 162t42 150.5t70 135.5t100.5 114.5t130.5 88t162 56.5t193.5 20q236 0 436 -80 l-213 -956q-26 -122 -61 -211.5t-87.5 -163.5t-124 -119.5t-169 -70.5t-224.5 -25q-203 0 -372 79zM342 421q0 -48 10.5 -84.5t36.5 -59.5t66 -23q25 0 49 7t56.5 30.5t60.5 61.5t56.5 106.5t47.5 159.5l38 181q-44 15 -110 15q-70 0 -129.5 -33.5t-98.5 -89t-61 -126 t-22 -145.5z" />
<glyph unicode="h" horiz-adv-x="1262" d="M-43 0l354 1595h340l-122 -536q-26 -118 -58 -197h4q159 230 381 230q131 0 203 -69.5t72 -207.5q0 -71 -34 -222l-132 -593h-341l128 570q24 105 24 140q0 28 -9.5 47.5t-27.5 30t-45 10.5q-42 0 -96.5 -33.5t-103.5 -106.5q-73 -110 -113 -286l-84 -372h-340z" />
<glyph unicode="i" horiz-adv-x="585" d="M-43 0l237 1066h340l-237 -1066h-340zM221 1370q0 95 64.5 153.5t151.5 58.5q84 0 136.5 -51t52.5 -125q0 -96 -64.5 -155.5t-151.5 -59.5q-84 0 -136.5 52t-52.5 127z" />
<glyph unicode="j" horiz-adv-x="598" d="M-439 -488l103 269q60 -22 119 -22q137 0 172 172l252 1135h341l-266 -1201q-90 -399 -469 -399q-150 0 -252 46zM234 1370q0 95 65 153.5t152 58.5q84 0 136.5 -51t52.5 -125q0 -96 -65 -155.5t-151 -59.5q-84 0 -137 52t-53 127z" />
<glyph unicode="k" horiz-adv-x="1170" d="M-43 0l354 1595h340l-198 -883h5l376 354h405l-536 -496l316 -570h-379l-236 460h-6l-101 -460h-340z" />
<glyph unicode="l" horiz-adv-x="718" d="M28 256q0 56 17 140l266 1199h340l-264 -1178q-11 -57 -11 -79q0 -63 73 -63q43 0 80 11v-271q-97 -33 -196 -33q-135 0 -220 71.5t-85 202.5z" />
<glyph unicode="m" horiz-adv-x="1900" d="M-43 0l237 1066h261v-204h5q34 44 76 83t94 73t113 54t122 20q115 0 176.5 -60t65.5 -172h4q34 44 77 83.5t96 74t115.5 54.5t125.5 20q117 0 185 -59.5t70 -167.5v-8q0 -78 -34 -240l-138 -617h-340l142 630q13 58 13 95q0 73 -65 73q-38 0 -89.5 -26t-101.5 -89 q-86 -109 -129 -302l-85 -381h-340l142 630q13 58 13 98q0 70 -65 70q-40 0 -92 -26.5t-102 -91.5q-84 -112 -126 -299l-86 -381h-340z" />
<glyph unicode="n" horiz-adv-x="1262" d="M-43 0l237 1066h261v-204h5q179 230 396 230q131 0 203 -69.5t72 -207.5q0 -71 -34 -222l-132 -593h-341l128 570q24 105 24 140q0 28 -9.5 47.5t-27.5 30t-45 10.5q-42 0 -90.5 -25t-94.5 -85q-82 -110 -128 -316l-84 -372h-340z" />
<glyph unicode="o" horiz-adv-x="1234" d="M4 458q0 130 46.5 246.5t126.5 202t195.5 135.5t246.5 50q115 0 209 -35t157.5 -98t98 -151.5t34.5 -194.5q0 -104 -29.5 -200.5t-84.5 -175t-129.5 -137t-170.5 -90.5t-201 -32q-115 0 -209 35t-157.5 98t-98 152t-34.5 195zM342 460q0 -106 46.5 -160.5t123.5 -54.5 q28 0 57 8.5t55 25.5t50 40.5t43 54.5t33 67t22 79.5t8 89.5q0 106 -46.5 160.5t-123.5 54.5q-50 0 -98.5 -26.5t-86 -73t-60.5 -116t-23 -149.5z" />
<glyph unicode="p" horiz-adv-x="1238" d="M-162 -534l347 1566q191 60 374 60q273 0 418 -125.5t145 -344.5q0 -283 -171 -463.5t-439 -180.5q-119 0 -213 37l-121 -549h-340zM359 279q64 -25 125 -25q89 0 159 47t105.5 123t35.5 164q0 62 -18.5 107t-52 70.5t-73.5 37.5t-88 12q-44 0 -77 -7z" />
<glyph unicode="q" horiz-adv-x="1208" d="M4 365q0 84 13.5 162t42 150.5t70 135.5t100.5 114.5t130.5 88t162 56.5t193.5 20q236 0 436 -80l-344 -1546h-339l96 437q38 170 59 228h-5q-63 -76 -145 -114.5t-165 -38.5q-46 0 -88 12t-82 41t-69.5 72t-47.5 110.5t-18 151.5zM342 421q0 -48 10.5 -84.5t36.5 -59.5 t66 -23q25 0 49 7t56.5 30.5t60.5 61.5t56.5 106.5t47.5 159.5l38 181q-44 15 -110 15q-70 0 -129.5 -33.5t-98.5 -89t-61 -126t-22 -145.5z" />
<glyph unicode="r" horiz-adv-x="886" d="M-43 0l237 1066h261v-204h5q17 33 33 58.5t36.5 53t42.5 47.5t48 37t56.5 25.5t64.5 8.5q97 0 179 -69l-144 -271q-60 39 -116 39q-25 0 -48.5 -8t-49.5 -26t-50 -50t-47.5 -76.5t-45 -110t-38.5 -146.5l-82 -374h-342z" />
<glyph unicode="s" d="M-95 90l106 241q70 -42 147.5 -67t142.5 -25q27 0 49 3.5t40.5 11.5t29 22t10.5 33q0 21 -16 40.5t-42 35t-59.5 35t-68.5 39t-68 48.5t-59.5 62.5t-42.5 82t-16 105.5q0 69 26 128.5t76.5 106.5t131.5 73.5t183 26.5q199 0 359 -67l-54 -266q-66 30 -144 51.5t-142 21.5 q-42 0 -69 -16t-27 -50q0 -28 20.5 -52t53.5 -44.5t72.5 -42.5t79 -50.5t72.5 -63t53.5 -85.5t20.5 -112q0 -110 -58.5 -187.5t-157 -114t-227.5 -36.5q-232 0 -422 112z" />
<glyph unicode="t" horiz-adv-x="896" d="M7 804l58 262h191l58 247l357 86l-74 -333h286l-103 -262h-242l-97 -437q-7 -26 -7 -51q0 -71 75 -71q82 0 183 52l78 -239q-178 -80 -355 -80q-325 0 -325 265q0 66 22 165l88 396h-193z" />
<glyph unicode="u" horiz-adv-x="1245" d="M41 284q0 79 32 232l121 550h340l-136 -600q-13 -57 -13 -92q0 -52 23 -81t67 -29q34 0 66 13.5t66 43.5t63.5 89t47.5 140l116 516h340l-151 -683q-27 -135 -27 -200q0 -71 20 -142l-293 -63q-11 30 -22.5 84t-15.5 91h-5q-157 -175 -349 -175q-59 0 -110 18.5t-92 54.5 t-64.5 96t-23.5 137z" />
<glyph unicode="v" horiz-adv-x="1101" d="M75 1066h327l53 -329q38 -223 52 -322h5q53 128 130 290l173 361h345l-581 -1073h-263z" />
<glyph unicode="w" horiz-adv-x="1659" d="M77 1066h319l45 -365q23 -182 30 -271h4q37 91 113 243l201 393h209l51 -336q29 -184 39 -300h4q32 81 114 260l174 376h346l-584 -1073h-237l-60 372q-29 190 -34 230h-5q-48 -102 -123 -236l-201 -366h-230z" />
<glyph unicode="x" horiz-adv-x="1170" d="M-174 0l525 552l-315 514h345l184 -305l280 305h369l-507 -541l320 -525h-344l-192 316l-295 -316h-370z" />
<glyph unicode="y" horiz-adv-x="1175" d="M-271 -475l123 247q78 -38 155 -38q29 0 56.5 7t60.5 26t65 50t69 82t73 119l-258 1048h325l86 -399q4 -21 9 -46t9.5 -46t9.5 -44t9.5 -44.5t9 -43.5t9 -45t8.5 -44h4q77 174 131 282l218 430h333l-576 -1066q-62 -113 -114 -192.5t-113.5 -147.5t-126 -108.5t-143 -63 t-172.5 -22.5q-75 0 -144.5 16t-115.5 43z" />
<glyph unicode="z" horiz-adv-x="1008" d="M-131 0l574 804h-368l-28 262h944l-579 -804h458l-57 -262h-944z" />
<glyph unicode="{" horiz-adv-x="855" d="M73 512l44 206q22 0 36.5 1.5t33 5.5t34.5 14t29 27q29 37 40 96l99 486q30 152 116 245q144 155 450 155v-295q-148 -12 -207 -81q-35 -44 -50 -115l-66 -345q-23 -130 -73 -198q-54 -70 -176 -104v-4q139 -23 139 -180q0 -49 -10 -97l-71 -316q-13 -54 -13 -110 q0 -70 43 -100t135 -35l-77 -293q-156 9 -255.5 48t-144.5 105t-45 163q0 57 13 128l83 397q9 42 9 82q0 28 -7 49t-16.5 31.5t-27 18t-28 9.5t-30.5 5q-5 0 -7 1z" />
<glyph unicode="|" horiz-adv-x="911" d="M288 -534v2291h336v-2291h-336z" />
<glyph unicode="}" horiz-adv-x="855" d="M-124 -230q149 12 208 82q35 43 49 114l65 345q23 128 75 198q53 70 176 104v4q-140 23 -140 181q0 48 11 96l69 316q15 59 15 110q0 70 -43.5 100t-134.5 35l75 293q233 -13 340 -91t107 -224q0 -57 -13 -128l-84 -397q-9 -43 -9 -83q0 -35 9.5 -58t28.5 -33.5t33 -14 t39 -6.5q5 -1 7 -1l-45 -207q-22 0 -36.5 -1t-33.5 -5.5t-34.5 -14.5t-28.5 -26q-28 -36 -40 -97l-100 -485q-29 -154 -114 -246q-145 -155 -451 -155v295z" />
<glyph unicode="~" horiz-adv-x="1281" d="M47 647q177 168 381 168q44 0 86.5 -9t74 -22.5t66.5 -29t65 -29t68 -22.5t77 -9q62 0 108 19.5t106 70.5l155 -221q-177 -169 -380 -169q-45 0 -87 9t-74 22.5t-67 29.5t-64.5 29.5t-68 22.5t-76.5 9q-62 0 -108.5 -19.5t-106.5 -70.5z" />
<glyph unicode="&#xa1;" horiz-adv-x="675" d="M-79 -415l25 116q88 414 131 561.5t137 341.5h198q10 -196 -10.5 -347.5t-108.5 -557.5l-25 -114h-347zM196 890q0 84 58.5 143t141.5 59q69 0 115 -46.5t46 -117.5q0 -85 -58 -145t-140 -60q-47 0 -84.5 21.5t-58 59.5t-20.5 86z" />
<glyph unicode="&#xa2;" horiz-adv-x="1260" d="M187 669q0 228 129 388t342 203l52 225h240l-49 -217q43 -3 87.5 -12t79 -21t56.5 -25l-56 -249q-117 55 -234 55q-98 0 -170 -43t-107 -113.5t-35 -158.5q0 -67 26.5 -115.5t78 -75t123.5 -26.5q112 0 217 52l65 -237q-49 -24 -105 -40.5t-108 -23.5t-101 -7l-49 -228 h-243l56 248q-143 42 -219 156t-76 265z" />
<glyph unicode="&#xa3;" horiz-adv-x="1260" d="M41 0l28 207q41 7 75.5 27.5t58 45t42.5 61.5t30 65.5t20 70t12 62t8 54.5q2 15 3 22h-161l41 277h156l20 129q28 169 106 277q142 202 444 202q102 0 182.5 -19t161.5 -55l-112 -263q-85 51 -201 51q-135 0 -198 -101q-36 -54 -50 -146l-11 -75h388l-80 -277h-344 q-1 -6 -3 -17q-6 -38 -10 -59.5t-13 -60.5t-20 -66.5t-27 -60.5t-39.5 -59.5t-51.5 -46.5v-4q75 19 140.5 27.5t178.5 8.5h284l-40 -277h-1018z" />
<glyph unicode="&#xa5;" horiz-adv-x="1260" d="M15 234l43 200h340l34 151h-340l46 201h245l-174 699h341l97 -604h4l349 604h367l-471 -699h250l-45 -201h-340l-33 -151h340l-45 -200h-340l-53 -234h-329l53 234h-339z" />
<glyph unicode="&#xa7;" horiz-adv-x="1260" d="M-22 -264l119 262q153 -95 311 -95q224 0 224 160q0 33 -15.5 61.5t-42.5 49.5t-63 42.5t-76.5 39.5t-83.5 41.5t-83.5 47.5t-76.5 58.5t-63 74.5t-43 95.5t-16 120.5q0 110 60 202t150 145q-38 68 -38 169q0 87 28 157.5t76.5 118t115.5 80t142 47t158 14.5 q235 0 391 -86l-58 -279q-152 94 -318 94q-93 0 -144 -36t-51 -101q0 -34 16.5 -63t44.5 -49.5t65.5 -41.5t79.5 -38.5t87 -40.5t87 -47.5t79.5 -60t65.5 -76.5t44.5 -98.5t16.5 -124.5q0 -77 -31 -145.5t-79 -116.5t-111 -85q34 -78 34 -169q0 -92 -33 -166t-87.5 -123 t-128.5 -82t-152.5 -47.5t-163.5 -14.5q-145 0 -242.5 27t-194.5 79zM378 750q0 -41 20 -77t51 -61.5t76.5 -53t89.5 -49t97.5 -52.5t93.5 -61q54 54 54 126q0 40 -19.5 75t-50.5 60.5t-77 53t-90 49.5t-99.5 53t-95.5 59q-50 -57 -50 -122z" />
<glyph unicode="&#xa8;" d="M88 1339q0 82 50.5 136.5t123.5 54.5q63 0 103.5 -38t40.5 -102q0 -82 -50.5 -136.5t-123.5 -54.5q-63 0 -103.5 38t-40.5 102zM536 1339q0 82 50 136.5t124 54.5q63 0 103.5 -38t40.5 -102q0 -82 -50.5 -136.5t-123.5 -54.5q-64 0 -104 38t-40 102z" />
<glyph unicode="&#xa9;" horiz-adv-x="1718" d="M117 737q0 162 54 302t150.5 241t236.5 158.5t304.5 57.5t304.5 -57.5t236.5 -158.5t150.5 -241t54 -302t-54 -302t-150.5 -241t-236.5 -158.5t-304.5 -57.5t-304.5 57.5t-236.5 158.5t-150.5 241t-54 302zM299 737q0 -131 42.5 -242.5t116.5 -189.5t178.5 -121.5 t226 -43.5t225.5 43.5t178.5 121.5t117 189.5t42.5 242.5t-42.5 242.5t-117 189t-178.5 121t-225.5 43.5t-226 -43.5t-178.5 -121t-116.5 -189t-42.5 -242.5zM453 728q0 129 54.5 234t156 166t230.5 61q72 0 133.5 -15.5t98.5 -36.5v-180q-103 62 -225 62 q-113 0 -183.5 -78.5t-70.5 -205.5q0 -130 68 -209t179 -79q105 0 196 53l64 -151q-130 -70 -273 -70q-191 0 -309.5 124t-118.5 325z" />
<glyph unicode="&#xaa;" horiz-adv-x="810" d="M-60 286l42 189h730l-43 -189h-729zM54 804q0 151 113.5 224t318.5 73h50v8q0 69 -112 69q-100 0 -217 -41l-38 181q143 58 306 58q28 0 53.5 -2t54 -7t53.5 -14.5t48.5 -22.5t42.5 -32.5t33.5 -43t22.5 -56t8 -69.5q0 -64 -21 -145l-29 -107q-23 -83 -23 -149 q0 -27 12 -90l-214 -45q-19 54 -22 105h-6q-44 -47 -105 -76t-127 -29q-94 0 -148 57t-54 154zM293 840q0 -23 14 -36t42 -13q29 0 61 15.5t58.5 46.5t36.5 69l2 9h-32q-97 0 -139.5 -25.5t-42.5 -65.5z" />
<glyph unicode="&#xab;" horiz-adv-x="1373" d="M18 557l451 459l195 -173l-297 -316l190 -322l-235 -136zM626 557l451 459l196 -173l-297 -316l189 -322l-234 -136z" />
<glyph unicode="&#xac;" horiz-adv-x="1281" d="M101 568v279h1057v-699h-315v420h-742z" />
<glyph unicode="&#xae;" horiz-adv-x="1283" d="M169 952.5q0 116.5 39.5 218t109 174t170 114t217.5 41.5q114 0 215 -41.5t173.5 -114t115 -174.5t42.5 -217.5t-43 -217.5t-116 -174t-174 -113.5t-213 -41.5q-117 0 -217.5 41.5t-170 114t-109 173.5t-39.5 217.5zM304 952.5q0 -117.5 51 -214.5t143 -154t207 -57 t207.5 57t143.5 154t51 214.5t-51 214.5t-143.5 154t-207.5 57t-207 -57t-143 -154t-51 -214.5zM507 662v595h194q48 0 90 -11q58 -16 88.5 -57t30.5 -95q0 -34 -13 -63t-34 -48t-44.5 -31.5t-48.5 -18.5v-2q18 -8 48.5 -51t58 -92t67.5 -126h-149l-12 24q-33 62 -48 89.5 t-34.5 61.5t-30.5 46.5t-19 12.5h-13v-234h-131zM638 998h24q47 0 78.5 20.5t31.5 60.5q0 56 -47 69q-27 8 -61 8h-26v-158z" />
<glyph unicode="&#xaf;" d="M101 1273l52 252h701l-52 -252h-701z" />
<glyph unicode="&#xb0;" horiz-adv-x="772" d="M114 1140q0 150 100 247.5t254.5 97.5t254.5 -97.5t100 -247.5q0 -99 -46.5 -178t-128.5 -123t-184 -44q-154 0 -252 97t-98 248zM333 1137.5q0 -63.5 38.5 -104t97 -40.5t97 40.5t38.5 104t-38.5 104t-97 40.5t-97 -40.5t-38.5 -104z" />
<glyph unicode="&#xb1;" horiz-adv-x="1281" d="M106 0v279h1057v-279h-1057zM106 653v280h369v275h316v-275h372v-280h-372v-275h-316v275h-369z" />
<glyph unicode="&#xb4;" d="M295 1196l169 332h363l-279 -332h-253z" />
<glyph unicode="&#xb5;" horiz-adv-x="1369" d="M-148 -534l355 1600h341l-131 -578q-13 -64 -13 -96q0 -64 33.5 -96t96.5 -32q26 0 51 7.5t51 25t48 44t40.5 67t30.5 90.5l128 568h340l-153 -688q-4 -17 -4 -34q0 -60 71 -60q44 0 75 11v-275q-88 -38 -182 -38q-41 0 -76.5 8.5t-67.5 26.5t-53.5 50.5t-28.5 76.5 q-4 27 -4 41h-5q-65 -112 -139.5 -159.5t-164.5 -47.5q-111 0 -175 80h-5q-18 -141 -55 -297l-67 -295h-337z" />
<glyph unicode="&#xb6;" horiz-adv-x="1438" d="M99 845q0 111 40 211.5t112.5 177.5t169 134t213 87t240.5 30h564l-402 -1846h-264l357 1643h-185l-356 -1643h-264l174 795q-88 0 -163 31.5t-126.5 86t-80.5 130.5t-29 163z" />
<glyph unicode="&#xb7;" horiz-adv-x="652" d="M103 541q0 86 58 145.5t140 59.5q71 0 117 -47.5t46 -119.5q0 -84 -58.5 -143.5t-141.5 -59.5q-69 0 -115 47t-46 118z" />
<glyph unicode="&#xb8;" d="M165 -447l63 140q45 -20 105 -20q53 0 84.5 18.5t31.5 54.5q0 33 -41 45.5t-122 12.5l99 196h232l-54 -103q172 -15 172 -147q0 -105 -101 -166t-271 -61q-114 0 -198 30z" />
<glyph unicode="&#xba;" horiz-adv-x="864" d="M-54 286l43 189h768l-43 -189h-768zM86 910q0 131 52 236.5t153 167.5t234 62q70 0 130.5 -19.5t108.5 -57t75.5 -99.5t27.5 -141q0 -131 -52 -236.5t-153 -167.5t-234 -62q-70 0 -131 19.5t-108.5 57t-75 99.5t-27.5 141zM329 933q0 -133 112 -133q57 0 100 35.5 t63 88.5t20 112q0 133 -112 133q-58 0 -100.5 -35.5t-62.5 -88.5t-20 -112z" />
<glyph unicode="&#xbb;" horiz-adv-x="1373" d="M-30 243l298 316l-189 322l235 135l303 -487l-450 -460zM579 243l298 316l-189 322l234 135l303 -487l-449 -460z" />
<glyph unicode="&#xbf;" horiz-adv-x="1013" d="M-56 -95q0 125 81 233q30 38 73.5 78t86 70.5t89.5 68t85.5 72t72.5 81t52 96.5h228q0 -53 -12 -101.5t-32.5 -87t-47.5 -75t-58 -65.5t-63.5 -58t-63 -53t-57.5 -49.5t-47.5 -49.5t-32.5 -51t-12 -55q0 -103 135 -103q64 0 136.5 27.5t136.5 73.5l121 -236 q-51 -39 -109 -67.5t-117 -47t-118.5 -27.5t-119.5 -9q-185 0 -296 94t-111 241zM455 890q0 55 27 101.5t73 73.5t101 27q69 0 114 -46.5t45 -117.5q0 -85 -57.5 -145t-140.5 -60q-71 0 -116.5 47t-45.5 120z" />
<glyph unicode="&#xc0;" horiz-adv-x="1483" d="M-146 0l858 1492h300l297 -1492h-365l-61 354h-449l-193 -354h-387zM568 1899h363l107 -331h-254zM591 628h249l-38 286q-12 90 -13 122h-5q-26 -69 -51 -122z" />
<glyph unicode="&#xc1;" horiz-adv-x="1483" d="M-146 0l858 1492h300l297 -1492h-365l-61 354h-449l-193 -354h-387zM591 628h249l-38 286q-12 90 -13 122h-5q-26 -69 -51 -122zM696 1568l169 331h363l-280 -331h-252z" />
<glyph unicode="&#xc2;" horiz-adv-x="1483" d="M-146 0l858 1492h300l297 -1492h-365l-61 354h-449l-193 -354h-387zM516 1568l273 331h241l195 -331h-245l-90 151l-114 -151h-260zM591 628h249l-38 286q-12 90 -13 122h-5q-26 -69 -51 -122z" />
<glyph unicode="&#xc3;" horiz-adv-x="1483" d="M-146 0l858 1492h300l297 -1492h-365l-61 354h-449l-193 -354h-387zM488 1610q6 79 28 140t56 98t75 55.5t88 18.5q31 0 61.5 -7t53 -17.5t45.5 -22t41.5 -22t38.5 -17.5t37 -7q26 0 41 17t22 62h219q-11 -154 -80 -232.5t-167 -78.5q-31 0 -61.5 7t-53 17t-45.5 22 t-41.5 22.5t-38.5 17.5t-37 7q-26 0 -41 -17t-22 -63h-219zM591 628h249l-38 286q-12 90 -13 122h-5q-26 -69 -51 -122z" />
<glyph unicode="&#xc4;" horiz-adv-x="1483" d="M-146 0l858 1492h300l297 -1492h-365l-61 354h-449l-193 -354h-387zM516 1709q0 82 50.5 137.5t123.5 55.5q63 0 103.5 -38t40.5 -102q0 -82 -50.5 -137t-123.5 -55q-64 0 -104 38t-40 101zM591 628h249l-38 286q-12 90 -13 122h-5q-26 -69 -51 -122zM965 1709 q0 83 49.5 138t122.5 55q64 0 104.5 -38t40.5 -102q0 -40 -13.5 -76t-37 -61.5t-55 -40t-67.5 -14.5q-64 0 -104 38t-40 101z" />
<glyph unicode="&#xc5;" horiz-adv-x="1483" d="M-146 0l849 1475q-101 48 -101 154q0 78 41 138.5t114 93.5t165 33q115 0 183.5 -47.5t68.5 -131.5q0 -79 -43 -140.5t-117 -93.5l295 -1481h-365l-61 354h-449l-193 -354h-387zM591 628h249l-38 286q-12 90 -13 122h-5q-26 -69 -51 -122zM808 1644q0 -20 8 -34t22.5 -21 t33.5 -7q42 0 68.5 35.5t26.5 80.5q0 31 -17.5 47.5t-46.5 16.5q-41 0 -68 -36t-27 -82z" />
<glyph unicode="&#xc6;" horiz-adv-x="1997" d="M-146 0l1137 1485h946l-76 -291h-468l-45 -300h466l-41 -290h-466l-45 -314h529l-41 -290h-876l52 354h-406l-270 -354h-396zM733 628h232l65 404h-7q-79 -126 -140 -205z" />
<glyph unicode="&#xc7;" horiz-adv-x="1400" d="M101 626q0 135 33.5 256t94 216.5t144.5 171.5t186 126.5t218.5 77t241.5 26.5q70 0 141 -8t134.5 -23t111.5 -36l-65 -291q-158 72 -325 72q-101 0 -189.5 -30.5t-153 -84t-111.5 -123.5t-70 -151t-23 -165q0 -116 42.5 -204t130.5 -140t212 -52q154 0 313 72l63 -278 q-96 -42 -213 -61t-228 -19l-41 -81q172 -15 172 -147q0 -105 -101 -166t-271 -61q-115 0 -199 30l63 140q46 -20 106 -20q52 0 83 18.5t31 54.5q0 33 -40 45.5t-121 12.5l99 198q-96 24 -174 69.5t-132.5 105t-91.5 132.5t-54 152.5t-17 164.5z" />
<glyph unicode="&#xc8;" horiz-adv-x="1163" d="M4 0l327 1485h863l-110 -291h-467l-67 -300h464l-64 -290h-464l-69 -314h527l-63 -290h-877zM453 1899h362l109 -331h-255z" />
<glyph unicode="&#xc9;" horiz-adv-x="1163" d="M4 0l327 1485h863l-110 -291h-467l-67 -300h464l-64 -290h-464l-69 -314h527l-63 -290h-877zM604 1568l168 331h363l-279 -331h-252z" />
<glyph unicode="&#xca;" horiz-adv-x="1163" d="M4 0l327 1485h863l-110 -291h-467l-67 -300h464l-64 -290h-464l-69 -314h527l-63 -290h-877zM404 1568l271 331h242l196 -331h-246l-89 151l-116 -151h-258z" />
<glyph unicode="&#xcb;" horiz-adv-x="1163" d="M4 0l327 1485h863l-110 -291h-467l-67 -300h464l-64 -290h-464l-69 -314h527l-63 -290h-877zM415 1709q0 82 50 137.5t123 55.5q64 0 104.5 -38t40.5 -102q0 -82 -50.5 -137t-123.5 -55q-64 0 -104 38t-40 101zM862 1709q0 82 50.5 137.5t123.5 55.5q64 0 104 -38 t40 -102q0 -82 -50 -137t-124 -55q-63 0 -103.5 38t-40.5 101z" />
<glyph unicode="&#xcc;" horiz-adv-x="682" d="M4 0l327 1485h349l-326 -1485h-350zM228 1899h363l107 -331h-255z" />
<glyph unicode="&#xcd;" horiz-adv-x="682" d="M4 0l327 1485h349l-326 -1485h-350zM378 1568l170 331h362l-280 -331h-252z" />
<glyph unicode="&#xce;" horiz-adv-x="682" d="M4 0l327 1485h349l-326 -1485h-350zM169 1568l272 331h242l196 -331h-247l-89 151l-115 -151h-259z" />
<glyph unicode="&#xcf;" horiz-adv-x="682" d="M4 0l327 1485h349l-326 -1485h-350zM169 1709q0 83 50 138t123 55q64 0 104 -38t40 -102q0 -82 -50 -137t-122 -55q-64 0 -104.5 38t-40.5 101zM617 1709q0 41 13.5 77t37 61t55.5 40t68 15q63 0 103.5 -38t40.5 -102q0 -82 -50.5 -137t-123.5 -55q-63 0 -103.5 38 t-40.5 101z" />
<glyph unicode="&#xd0;" horiz-adv-x="1580" d="M-18 617l61 277h157l131 591h387q268 0 458 -86q150 -69 234 -202t84 -335q0 -139 -38 -262t-107.5 -220t-163 -171t-207.5 -123q-204 -86 -456 -86h-518l136 617h-158zM417 290h117q179 0 309 69q131 68 207 200t76 329q0 175 -133 249q-100 57 -273 57h-103l-67 -300 h304l-61 -277h-305z" />
<glyph unicode="&#xd1;" horiz-adv-x="1767" d="M4 0l327 1485h331l432 -765q31 -53 97 -189h5q9 49 38 183l170 771h348l-326 -1485h-304l-453 800q-50 85 -97 184h-4q-7 -48 -34 -169l-180 -815h-350zM683 1610q6 79 27.5 140t55.5 98t75 55.5t87 18.5q45 0 89 -14.5t72 -32t60 -32t57 -14.5q26 0 41 17t21 62h219 q-11 -154 -79.5 -232.5t-166.5 -78.5q-45 0 -88.5 14.5t-71.5 32t-60 32t-56 14.5q-27 0 -42.5 -17t-21.5 -63h-218z" />
<glyph unicode="&#xd2;" horiz-adv-x="1702" d="M101 591q0 152 40 291t116.5 251t181 194.5t239.5 127.5t287 45q144 0 262 -42.5t199.5 -121.5t126 -193.5t44.5 -254.5q0 -153 -40 -292t-116 -251t-180.5 -194.5t-239.5 -127.5t-286 -45q-193 0 -336 74t-220.5 212.5t-77.5 326.5zM466 604q0 -163 78 -251.5t217 -88.5 q51 0 99.5 13.5t90.5 38.5t80 60.5t69 78t55.5 92t41.5 103t26 110.5t9 114q0 164 -77.5 252t-217.5 88q-67 0 -130 -24t-114 -66t-94 -100t-72 -125.5t-45 -143t-16 -151.5zM696 1899h363l108 -331h-255z" />
<glyph unicode="&#xd3;" horiz-adv-x="1702" d="M101 591q0 152 40 291t116.5 251t181 194.5t239.5 127.5t287 45q144 0 262 -42.5t199.5 -121.5t126 -193.5t44.5 -254.5q0 -153 -40 -292t-116 -251t-180.5 -194.5t-239.5 -127.5t-286 -45q-193 0 -336 74t-220.5 212.5t-77.5 326.5zM466 604q0 -163 78 -251.5t217 -88.5 q51 0 99.5 13.5t90.5 38.5t80 60.5t69 78t55.5 92t41.5 103t26 110.5t9 114q0 164 -77.5 252t-217.5 88q-67 0 -130 -24t-114 -66t-94 -100t-72 -125.5t-45 -143t-16 -151.5zM877 1568l168 331h363l-279 -331h-252z" />
<glyph unicode="&#xd4;" horiz-adv-x="1702" d="M101 591q0 152 40 291t116.5 251t181 194.5t239.5 127.5t287 45q144 0 262 -42.5t199.5 -121.5t126 -193.5t44.5 -254.5q0 -153 -40 -292t-116 -251t-180.5 -194.5t-239.5 -127.5t-286 -45q-193 0 -336 74t-220.5 212.5t-77.5 326.5zM466 604q0 -163 78 -251.5t217 -88.5 q51 0 99.5 13.5t90.5 38.5t80 60.5t69 78t55.5 92t41.5 103t26 110.5t9 114q0 164 -77.5 252t-217.5 88q-67 0 -130 -24t-114 -66t-94 -100t-72 -125.5t-45 -143t-16 -151.5zM653 1568l273 331h241l196 -331h-245l-91 151l-115 -151h-259z" />
<glyph unicode="&#xd5;" horiz-adv-x="1702" d="M101 591q0 152 40 291t116.5 251t181 194.5t239.5 127.5t287 45q144 0 262 -42.5t199.5 -121.5t126 -193.5t44.5 -254.5q0 -153 -40 -292t-116 -251t-180.5 -194.5t-239.5 -127.5t-286 -45q-193 0 -336 74t-220.5 212.5t-77.5 326.5zM466 604q0 -163 78 -251.5t217 -88.5 q51 0 99.5 13.5t90.5 38.5t80 60.5t69 78t55.5 92t41.5 103t26 110.5t9 114q0 164 -77.5 252t-217.5 88q-67 0 -130 -24t-114 -66t-94 -100t-72 -125.5t-45 -143t-16 -151.5zM642 1610q4 53 15.5 98.5t28.5 79t39 59.5t48.5 42t55 24.5t59.5 8.5t61 -7t53 -17.5t46 -22 t41.5 -22t38.5 -17.5t37 -7q26 0 41 17t22 62h218q-5 -78 -27 -139t-55.5 -98t-74.5 -55.5t-88 -18.5q-31 0 -61.5 7t-53 17t-45.5 22t-41.5 22.5t-38.5 17.5t-37 7q-26 0 -42 -17t-22 -63h-218z" />
<glyph unicode="&#xd6;" horiz-adv-x="1702" d="M101 591q0 152 40 291t116.5 251t181 194.5t239.5 127.5t287 45q144 0 262 -42.5t199.5 -121.5t126 -193.5t44.5 -254.5q0 -153 -40 -292t-116 -251t-180.5 -194.5t-239.5 -127.5t-286 -45q-193 0 -336 74t-220.5 212.5t-77.5 326.5zM466 604q0 -163 78 -251.5t217 -88.5 q51 0 99.5 13.5t90.5 38.5t80 60.5t69 78t55.5 92t41.5 103t26 110.5t9 114q0 164 -77.5 252t-217.5 88q-67 0 -130 -24t-114 -66t-94 -100t-72 -125.5t-45 -143t-16 -151.5zM669 1709q0 82 50.5 137.5t123.5 55.5q63 0 103.5 -38t40.5 -102q0 -82 -50.5 -137t-123.5 -55 q-64 0 -104 38t-40 101zM1118 1709q0 41 13.5 77t36.5 61t55.5 40t67.5 15q42 0 74.5 -17t51.5 -49t19 -74q0 -82 -50.5 -137t-123.5 -55q-64 0 -104 38t-40 101z" />
<glyph unicode="&#xd8;" horiz-adv-x="1702" d="M99 613q0 124 27 238.5t77.5 212.5t126 179t168 138t208 88t242.5 31q167 0 303 -56l116 147l208 -161l-113 -142q137 -164 137 -423q0 -149 -38 -283.5t-112 -244.5t-176 -190.5t-236 -124.5t-287 -44q-161 0 -297 54l-129 -161l-207 161l122 153q-140 163 -140 428z M466 604q0 -66 14 -120l567 707q-67 23 -130 23q-68 0 -132.5 -23.5t-122.5 -73.5t-101.5 -120.5t-69 -172t-25.5 -220.5zM653 282q62 -18 129 -18q68 0 132.5 23.5t122.5 73.5t101 121t68.5 172t25.5 220q0 62 -13 113z" />
<glyph unicode="&#xd9;" horiz-adv-x="1621" d="M126 453q0 98 29 227l176 805h349l-186 -838q-17 -78 -17 -138q0 -82 30.5 -137.5t85 -81.5t132.5 -26q146 0 236 90q80 79 109 220l200 911h350l-203 -922q-64 -292 -214 -423q-188 -162 -483 -162q-145 0 -259 35.5t-186.5 100t-110.5 150.5t-38 189zM678 1899h363 l107 -331h-254z" />
<glyph unicode="&#xda;" horiz-adv-x="1621" d="M126 453q0 98 29 227l176 805h349l-186 -838q-17 -78 -17 -138q0 -82 30.5 -137.5t85 -81.5t132.5 -26q146 0 236 90q80 79 109 220l200 911h350l-203 -922q-64 -292 -214 -423q-188 -162 -483 -162q-145 0 -259 35.5t-186.5 100t-110.5 150.5t-38 189zM856 1568l169 331 h363l-279 -331h-253z" />
<glyph unicode="&#xdb;" horiz-adv-x="1621" d="M126 453q0 98 29 227l176 805h349l-186 -838q-17 -78 -17 -138q0 -82 30.5 -137.5t85 -81.5t132.5 -26q146 0 236 90q80 79 109 220l200 911h350l-203 -922q-64 -292 -214 -423q-188 -162 -483 -162q-145 0 -259 35.5t-186.5 100t-110.5 150.5t-38 189zM638 1568l272 331 h242l196 -331h-247l-89 151l-116 -151h-258z" />
<glyph unicode="&#xdc;" horiz-adv-x="1621" d="M126 453q0 98 29 227l176 805h349l-186 -838q-17 -78 -17 -138q0 -82 30.5 -137.5t85 -81.5t132.5 -26q146 0 236 90q80 79 109 220l200 911h350l-203 -922q-64 -292 -214 -423q-188 -162 -483 -162q-145 0 -259 35.5t-186.5 100t-110.5 150.5t-38 189zM642 1709 q0 83 50 138t123 55q64 0 104 -38t40 -102q0 -82 -50 -137t-123 -55q-63 0 -103.5 38t-40.5 101zM1090 1709q0 41 13.5 77t37 61t55.5 40t68 15q63 0 103.5 -38t40.5 -102q0 -82 -50.5 -137t-123.5 -55q-63 0 -103.5 38t-40.5 101z" />
<glyph unicode="&#xdd;" horiz-adv-x="1348" d="M174 1485h351l212 -602h4l372 602h385l-633 -922l-124 -563h-349l128 585zM694 1568l168 331h363l-279 -331h-252z" />
<glyph unicode="&#xde;" horiz-adv-x="1285" d="M4 0l327 1485h349l-52 -232h14q175 0 286 -50q118 -51 184 -148.5t66 -229.5q0 -175 -83 -306.5t-250 -198.5q-164 -66 -381 -66h-54l-56 -254h-350zM471 531h47q119 0 196 50q56 35 85.5 91.5t29.5 127.5q0 107 -77 148q-57 28 -126 28h-58z" />
<glyph unicode="&#xdf;" horiz-adv-x="1404" d="M-101 -318l313 1415q46 199 149 318q160 180 456 180q80 0 151.5 -16t133.5 -49.5t106.5 -82t70.5 -118t26 -153.5q0 -103 -35 -232q-36 -6 -65.5 -13.5t-64 -21.5t-57 -32t-38 -47t-15.5 -64q0 -30 13.5 -57.5t35 -51t47.5 -48.5t52.5 -54t48 -62t35 -79t13.5 -98 q0 -105 -58.5 -183t-154 -116.5t-213.5 -38.5q-228 0 -406 112l107 241q157 -92 275 -92q48 0 79 20.5t31 60.5q0 27 -13.5 52.5t-35 47.5t-48 45t-52.5 50.5t-47.5 59t-35 75t-13.5 94.5q0 126 74 215t205 116q9 35 9 69q0 76 -42 117t-128 41q-102 0 -172 -72t-100 -209 l-297 -1339h-340z" />
<glyph unicode="&#xe0;" horiz-adv-x="1141" d="M-34 273q0 171 111 275q156 144 499 144h84q2 11 2 24q0 60 -38 92t-136 32q-132 0 -297 -64l-45 236q204 80 415 80q45 0 86 -3.5t86.5 -13.5t83.5 -26t73.5 -43t60 -62t39 -85t14.5 -111q0 -94 -35 -234l-34 -131q-30 -125 -30 -200q0 -71 21 -142l-294 -63 q-11 31 -23.5 85.5t-15.5 89.5q-58 -80 -143 -127.5t-179 -47.5q-139 0 -222 81.5t-83 213.5zM284 322q0 -42 25 -62.5t67 -20.5q78 0 151.5 57t96.5 151l6 26h-51q-201 0 -265 -71q-30 -34 -30 -80zM331 1528h363l108 -332h-254z" />
<glyph unicode="&#xe1;" horiz-adv-x="1141" d="M-34 273q0 171 111 275q156 144 499 144h84q2 11 2 24q0 60 -38 92t-136 32q-132 0 -297 -64l-45 236q204 80 415 80q45 0 86 -3.5t86.5 -13.5t83.5 -26t73.5 -43t60 -62t39 -85t14.5 -111q0 -94 -35 -234l-34 -131q-30 -125 -30 -200q0 -71 21 -142l-294 -63 q-11 31 -23.5 85.5t-15.5 89.5q-58 -80 -143 -127.5t-179 -47.5q-139 0 -222 81.5t-83 213.5zM284 322q0 -42 25 -62.5t67 -20.5q78 0 151.5 57t96.5 151l6 26h-51q-201 0 -265 -71q-30 -34 -30 -80zM482 1196l169 332h363l-279 -332h-253z" />
<glyph unicode="&#xe2;" horiz-adv-x="1141" d="M-34 273q0 171 111 275q156 144 499 144h84q2 11 2 24q0 60 -38 92t-136 32q-132 0 -297 -64l-45 236q204 80 415 80q45 0 86 -3.5t86.5 -13.5t83.5 -26t73.5 -43t60 -62t39 -85t14.5 -111q0 -94 -35 -234l-34 -131q-30 -125 -30 -200q0 -71 21 -142l-294 -63 q-11 31 -23.5 85.5t-15.5 89.5q-58 -80 -143 -127.5t-179 -47.5q-139 0 -222 81.5t-83 213.5zM262 1196l272 332h242l195 -332h-246l-89 152l-116 -152h-258zM284 322q0 -42 25 -62.5t67 -20.5q78 0 151.5 57t96.5 151l6 26h-51q-201 0 -265 -71q-30 -34 -30 -80z" />
<glyph unicode="&#xe3;" horiz-adv-x="1141" d="M-34 273q0 171 111 275q156 144 499 144h84q2 11 2 24q0 60 -38 92t-136 32q-132 0 -297 -64l-45 236q204 80 415 80q45 0 86 -3.5t86.5 -13.5t83.5 -26t73.5 -43t60 -62t39 -85t14.5 -111q0 -94 -35 -234l-34 -131q-30 -125 -30 -200q0 -71 21 -142l-294 -63 q-11 31 -23.5 85.5t-15.5 89.5q-58 -80 -143 -127.5t-179 -47.5q-139 0 -222 81.5t-83 213.5zM243 1221q6 79 27.5 139.5t55.5 97.5t75 55.5t87 18.5q45 0 89 -14.5t72 -31.5t60 -31.5t57 -14.5q26 0 41.5 16.5t21.5 61.5h218q-11 -154 -79 -232t-166 -78q-45 0 -89 14.5 t-72 31.5t-60 31.5t-56 14.5q-26 0 -41.5 -16.5t-21.5 -62.5h-219zM284 322q0 -42 25 -62.5t67 -20.5q78 0 151.5 57t96.5 151l6 26h-51q-201 0 -265 -71q-30 -34 -30 -80z" />
<glyph unicode="&#xe4;" horiz-adv-x="1141" d="M-34 273q0 171 111 275q156 144 499 144h84q2 11 2 24q0 60 -38 92t-136 32q-132 0 -297 -64l-45 236q204 80 415 80q45 0 86 -3.5t86.5 -13.5t83.5 -26t73.5 -43t60 -62t39 -85t14.5 -111q0 -94 -35 -234l-34 -131q-30 -125 -30 -200q0 -71 21 -142l-294 -63 q-11 31 -23.5 85.5t-15.5 89.5q-58 -80 -143 -127.5t-179 -47.5q-139 0 -222 81.5t-83 213.5zM275 1339q0 82 50.5 136.5t123.5 54.5q42 0 74.5 -17t51 -48.5t18.5 -74.5q0 -82 -50.5 -136.5t-123.5 -54.5q-63 0 -103.5 38t-40.5 102zM284 322q0 -42 25 -62.5t67 -20.5 q78 0 151.5 57t96.5 151l6 26h-51q-201 0 -265 -71q-30 -34 -30 -80zM723 1339q0 82 50 136.5t123 54.5q64 0 104.5 -38t40.5 -102q0 -82 -50.5 -136.5t-123.5 -54.5q-64 0 -104 38t-40 102z" />
<glyph unicode="&#xe5;" horiz-adv-x="1141" d="M-34 273q0 171 111 275q156 144 499 144h84q2 11 2 24q0 60 -38 92t-136 32q-132 0 -297 -64l-45 236q204 80 415 80q45 0 86 -3.5t86.5 -13.5t83.5 -26t73.5 -43t60 -62t39 -85t14.5 -111q0 -94 -35 -234l-34 -131q-30 -125 -30 -200q0 -71 21 -142l-294 -63 q-11 31 -23.5 85.5t-15.5 89.5q-58 -80 -143 -127.5t-179 -47.5q-139 0 -222 81.5t-83 213.5zM284 322q0 -42 25 -62.5t67 -20.5q78 0 151.5 57t96.5 151l6 26h-51q-201 0 -265 -71q-30 -34 -30 -80zM381 1354q0 117 90 191.5t230 74.5q114 0 183 -47.5t69 -132.5 q0 -47 -15.5 -88.5t-44.5 -73.5t-68 -55.5t-88.5 -36t-104.5 -12.5q-114 0 -182.5 47.5t-68.5 132.5zM588 1370q0 -31 17 -47t46 -16q28 0 50 17.5t33.5 44t11.5 54.5q0 31 -17 47.5t-46 16.5q-41 0 -68 -36t-27 -81z" />
<glyph unicode="&#xe6;" horiz-adv-x="1763" d="M-34 284q0 385 610 385h84q2 11 2 38q0 62 -38.5 97.5t-135.5 35.5q-132 0 -297 -64l-45 236q204 80 400 80q241 0 340 -146h4q154 146 358 146q196 0 304 -98.5t108 -265.5q0 -134 -50 -273l-651 -12v-22q0 -86 62 -134t153 -48q73 0 140 17t152 55l90 -236 q-188 -97 -396 -97q-297 0 -414 216h-5q-84 -110 -198.5 -163t-245.5 -53q-143 0 -237 84.5t-94 221.5zM284 322q0 -42 25 -62.5t67 -20.5q51 0 100 18.5t91 62.5t57 106l4 17h-47q-46 0 -82 -2t-71 -6.5t-60.5 -13.5t-45 -22t-29 -32.5t-9.5 -44.5zM1000 669l329 4 q10 30 10 55q0 54 -34.5 83t-87.5 29q-77 0 -136 -46t-81 -125z" />
<glyph unicode="&#xe7;" horiz-adv-x="1017" d="M4 451q0 101 26 194t80 174.5t131 142t186 95.5t237 35q57 0 115.5 -8t108.5 -22t90 -32l-64 -269q-131 64 -241 64q-66 0 -125 -23.5t-105.5 -67t-73.5 -111t-27 -150.5q0 -74 26.5 -125t78 -77t125.5 -26q126 0 239 66l92 -236q-58 -38 -162 -66t-200 -31l-41 -81 q171 -15 171 -147q0 -105 -101 -166t-271 -61q-114 0 -198 30l64 140q46 -20 106 -20q52 0 83 18.5t31 54.5q0 23 -21 36t-54 17.5t-87 4.5l99 200q-81 24 -143 69.5t-99.5 105t-56.5 128t-19 144.5z" />
<glyph unicode="&#xe8;" horiz-adv-x="1133" d="M4 441q0 132 44.5 251t123.5 207.5t196 140.5t254 52q195 0 303.5 -98.5t108.5 -265.5q0 -117 -52 -287l-649 -11v-18q0 -85 61.5 -129t153.5 -44q73 0 140 17t152 55l91 -236q-94 -48 -204.5 -72.5t-212.5 -24.5q-127 0 -225.5 35.5t-160 99t-93 146.5t-31.5 182z M346 1528h364l107 -332h-254zM372 656l326 4q14 38 14 68q0 54 -34 83t-87 29q-50 0 -95 -24t-77 -66t-47 -94z" />
<glyph unicode="&#xe9;" horiz-adv-x="1133" d="M4 441q0 132 44.5 251t123.5 207.5t196 140.5t254 52q195 0 303.5 -98.5t108.5 -265.5q0 -117 -52 -287l-649 -11v-18q0 -85 61.5 -129t153.5 -44q73 0 140 17t152 55l91 -236q-94 -48 -204.5 -72.5t-212.5 -24.5q-127 0 -225.5 35.5t-160 99t-93 146.5t-31.5 182z M372 656l326 4q14 38 14 68q0 54 -34 83t-87 29q-50 0 -95 -24t-77 -66t-47 -94zM518 1196l170 332h361l-279 -332h-252z" />
<glyph unicode="&#xea;" horiz-adv-x="1133" d="M4 441q0 132 44.5 251t123.5 207.5t196 140.5t254 52q195 0 303.5 -98.5t108.5 -265.5q0 -117 -52 -287l-649 -11v-18q0 -85 61.5 -129t153.5 -44q73 0 140 17t152 55l91 -236q-94 -48 -204.5 -72.5t-212.5 -24.5q-127 0 -225.5 35.5t-160 99t-93 146.5t-31.5 182z M301 1196l273 332h241l197 -332h-246l-91 152l-114 -152h-260zM372 656l326 4q14 38 14 68q0 54 -34 83t-87 29q-50 0 -95 -24t-77 -66t-47 -94z" />
<glyph unicode="&#xeb;" horiz-adv-x="1133" d="M4 441q0 132 44.5 251t123.5 207.5t196 140.5t254 52q195 0 303.5 -98.5t108.5 -265.5q0 -117 -52 -287l-649 -11v-18q0 -85 61.5 -129t153.5 -44q73 0 140 17t152 55l91 -236q-94 -48 -204.5 -72.5t-212.5 -24.5q-127 0 -225.5 35.5t-160 99t-93 146.5t-31.5 182z M311 1339q0 82 50 136.5t123 54.5q64 0 104 -38t40 -102q0 -54 -23 -98t-62.5 -68.5t-87.5 -24.5q-63 0 -103.5 38t-40.5 102zM372 656l326 4q14 38 14 68q0 54 -34 83t-87 29q-50 0 -95 -24t-77 -66t-47 -94zM759 1339q0 82 50.5 136.5t123.5 54.5q63 0 103.5 -38 t40.5 -102q0 -82 -50.5 -136.5t-123.5 -54.5q-63 0 -103.5 38t-40.5 102z" />
<glyph unicode="&#xec;" horiz-adv-x="585" d="M-43 0l237 1066h340l-237 -1066h-340zM92 1528h363l108 -332h-254z" />
<glyph unicode="&#xed;" horiz-adv-x="585" d="M-43 0l237 1066h340l-237 -1066h-340zM226 1196l168 332h363l-280 -332h-251z" />
<glyph unicode="&#xee;" horiz-adv-x="585" d="M-43 0l237 1066h340l-237 -1066h-340zM34 1196l273 332h241l196 -332h-246l-90 152l-115 -152h-259z" />
<glyph unicode="&#xef;" horiz-adv-x="585" d="M-43 0l237 1066h340l-237 -1066h-340zM28 1339q0 82 49.5 136.5t122.5 54.5q64 0 104 -38t40 -102q0 -82 -49.5 -136.5t-122.5 -54.5q-64 0 -104 38t-40 102zM475 1339q0 82 50.5 136.5t123.5 54.5q64 0 104 -38t40 -102q0 -82 -50.5 -136.5t-123.5 -54.5 q-63 0 -103.5 38t-40.5 102z" />
<glyph unicode="&#xf0;" horiz-adv-x="1234" d="M4 443q0 104 28 199.5t78.5 172t117.5 133t150.5 87.5t173.5 31q94 0 174.5 -36t131.5 -104h7q-2 52 -23.5 105t-73.5 110t-128 98l-277 -138l-62 131l150 73q-136 25 -282 19l61 271q339 0 556 -124l252 124l61 -131l-185 -90q58 -56 99 -123.5t63 -138t32 -136 t10 -133.5q0 -165 -29.5 -303.5t-85 -242t-133.5 -175.5t-177.5 -108.5t-215.5 -35.5q-212 2 -342.5 128t-130.5 337zM342 447q0 -106 49 -154t131 -48q40 0 78 16t70.5 46t57 71t38.5 95.5t14 114.5q0 58 -16 100t-42.5 65t-57 34t-64.5 11q-111 0 -184.5 -96t-73.5 -255z " />
<glyph unicode="&#xf1;" horiz-adv-x="1256" d="M-43 0l237 1066h261v-204h5q179 230 396 230q131 0 203 -69.5t72 -207.5q0 -71 -34 -222l-132 -593h-341l128 570q24 105 24 140q0 28 -9.5 47.5t-27.5 30t-45 10.5q-42 0 -90.5 -25t-94.5 -85q-82 -110 -128 -316l-84 -372h-340zM342 1221q11 154 79.5 232.5t166.5 78.5 q45 0 89 -14.5t72 -31.5t59.5 -31.5t56.5 -14.5q26 0 41.5 16.5t21.5 61.5h218q-11 -154 -79 -232t-166 -78q-31 0 -61.5 6.5t-53 17t-46 22.5t-41.5 22.5t-38 17t-37 6.5q-26 0 -41.5 -16.5t-21.5 -62.5h-219z" />
<glyph unicode="&#xf2;" horiz-adv-x="1234" d="M0 458q0 130 46 246.5t126.5 202t195.5 135.5t247 50q115 0 209 -35t157 -98t97.5 -151.5t34.5 -194.5q0 -130 -46 -247t-126.5 -202.5t-195.5 -135.5t-247 -50q-115 0 -209 35t-157 98t-97.5 152t-34.5 195zM338 460q0 -71 22.5 -120t60 -72t86.5 -23q51 0 99 26.5 t86 73t61 116t23 149.5q0 106 -47 160.5t-123 54.5q-51 0 -99 -26.5t-85.5 -73t-60.5 -116t-23 -149.5zM351 1528h363l109 -332h-255z" />
<glyph unicode="&#xf3;" horiz-adv-x="1234" d="M0 458q0 130 46 246.5t126.5 202t195.5 135.5t247 50q115 0 209 -35t157 -98t97.5 -151.5t34.5 -194.5q0 -130 -46 -247t-126.5 -202.5t-195.5 -135.5t-247 -50q-115 0 -209 35t-157 98t-97.5 152t-34.5 195zM338 460q0 -71 22.5 -120t60 -72t86.5 -23q51 0 99 26.5 t86 73t61 116t23 149.5q0 106 -47 160.5t-123 54.5q-51 0 -99 -26.5t-85.5 -73t-60.5 -116t-23 -149.5zM531 1196l170 332h363l-280 -332h-253z" />
<glyph unicode="&#xf4;" horiz-adv-x="1234" d="M0 458q0 130 46 246.5t126.5 202t195.5 135.5t247 50q115 0 209 -35t157 -98t97.5 -151.5t34.5 -194.5q0 -130 -46 -247t-126.5 -202.5t-195.5 -135.5t-247 -50q-115 0 -209 35t-157 98t-97.5 152t-34.5 195zM318 1196l273 332h241l195 -332h-245l-90 152l-116 -152h-258 zM338 460q0 -71 22.5 -120t60 -72t86.5 -23q51 0 99 26.5t86 73t61 116t23 149.5q0 106 -47 160.5t-123 54.5q-51 0 -99 -26.5t-85.5 -73t-60.5 -116t-23 -149.5z" />
<glyph unicode="&#xf5;" horiz-adv-x="1234" d="M0 458q0 130 46 246.5t126.5 202t195.5 135.5t247 50q115 0 209 -35t157 -98t97.5 -151.5t34.5 -194.5q0 -130 -46 -247t-126.5 -202.5t-195.5 -135.5t-247 -50q-115 0 -209 35t-157 98t-97.5 152t-34.5 195zM293 1221q5 79 27 139.5t55.5 97.5t74.5 55.5t88 18.5 q45 0 88.5 -14.5t72 -31.5t60.5 -31.5t56 -14.5q27 0 42.5 16.5t21.5 61.5h218q-11 -154 -79.5 -232t-166.5 -78q-45 0 -88.5 14.5t-71.5 31.5t-60 31.5t-57 14.5q-26 0 -41 -16.5t-21 -62.5h-219zM338 460q0 -71 22.5 -120t60 -72t86.5 -23q51 0 99 26.5t86 73t61 116 t23 149.5q0 106 -47 160.5t-123 54.5q-51 0 -99 -26.5t-85.5 -73t-60.5 -116t-23 -149.5z" />
<glyph unicode="&#xf6;" horiz-adv-x="1234" d="M0 458q0 130 46 246.5t126.5 202t195.5 135.5t247 50q115 0 209 -35t157 -98t97.5 -151.5t34.5 -194.5q0 -130 -46 -247t-126.5 -202.5t-195.5 -135.5t-247 -50q-115 0 -209 35t-157 98t-97.5 152t-34.5 195zM309 1339q0 82 50 136.5t123 54.5q63 0 103.5 -38t40.5 -102 q0 -82 -50 -136.5t-123 -54.5q-63 0 -103.5 38t-40.5 102zM338 460q0 -71 22.5 -120t60 -72t86.5 -23q51 0 99 26.5t86 73t61 116t23 149.5q0 106 -47 160.5t-123 54.5q-51 0 -99 -26.5t-85.5 -73t-60.5 -116t-23 -149.5zM757 1339q0 82 50 136.5t124 54.5q63 0 103.5 -38 t40.5 -102q0 -82 -50.5 -136.5t-123.5 -54.5q-64 0 -104 38t-40 102z" />
<glyph unicode="&#xf7;" horiz-adv-x="1281" d="M86 419v279h1056v-279h-1056zM464 167q0 70 46.5 117t113.5 47t113.5 -47t46.5 -117q0 -69 -47 -116t-113 -47q-44 0 -80.5 21.5t-58 59t-21.5 82.5zM464 948q0 71 46.5 118t113 47t113.5 -47.5t47 -117.5q0 -68 -47 -115t-113.5 -47t-113 46.5t-46.5 115.5z" />
<glyph unicode="&#xf8;" horiz-adv-x="1234" d="M4 458q0 130 46.5 246.5t126.5 202t195.5 135.5t246.5 50q160 0 273 -65l99 115l120 -104l-97 -112q104 -129 104 -313q0 -104 -29.5 -200.5t-84.5 -175t-129.5 -137t-170.5 -90.5t-201 -32q-145 0 -262 58l-97 -113l-119 105l89 105q-110 123 -110 325zM333 460 q0 -38 7 -71l361 417q-45 26 -91 26q-50 0 -100 -27.5t-89 -75.5t-63.5 -118.5t-24.5 -150.5zM432 256q30 -17 80 -17t100 27.5t89 75t63.5 118t24.5 150.5q0 26 -5 52z" />
<glyph unicode="&#xf9;" horiz-adv-x="1245" d="M41 284q0 79 32 232l121 550h340l-136 -600q-13 -57 -13 -92q0 -52 23 -81t67 -29q34 0 66 13.5t66 43.5t63.5 89t47.5 140l116 516h340l-151 -683q-27 -135 -27 -200q0 -71 20 -142l-293 -63q-11 30 -22.5 84t-15.5 91h-5q-157 -175 -349 -175q-59 0 -110 18.5t-92 54.5 t-64.5 96t-23.5 137zM374 1528h363l108 -332h-254z" />
<glyph unicode="&#xfa;" horiz-adv-x="1245" d="M41 284q0 79 32 232l121 550h340l-136 -600q-13 -57 -13 -92q0 -52 23 -81t67 -29q34 0 66 13.5t66 43.5t63.5 89t47.5 140l116 516h340l-151 -683q-27 -135 -27 -200q0 -71 20 -142l-293 -63q-11 30 -22.5 84t-15.5 91h-5q-157 -175 -349 -175q-59 0 -110 18.5t-92 54.5 t-64.5 96t-23.5 137zM522 1196l170 332h362l-278 -332h-254z" />
<glyph unicode="&#xfb;" horiz-adv-x="1245" d="M41 284q0 79 32 232l121 550h340l-136 -600q-13 -57 -13 -92q0 -52 23 -81t67 -29q34 0 66 13.5t66 43.5t63.5 89t47.5 140l116 516h340l-151 -683q-27 -135 -27 -200q0 -71 20 -142l-293 -63q-11 30 -22.5 84t-15.5 91h-5q-157 -175 -349 -175q-59 0 -110 18.5t-92 54.5 t-64.5 96t-23.5 137zM351 1196l273 332h241l197 -332h-247l-90 152l-115 -152h-259z" />
<glyph unicode="&#xfc;" horiz-adv-x="1245" d="M41 284q0 79 32 232l121 550h340l-136 -600q-13 -57 -13 -92q0 -52 23 -81t67 -29q34 0 66 13.5t66 43.5t63.5 89t47.5 140l116 516h340l-151 -683q-27 -135 -27 -200q0 -71 20 -142l-293 -63q-11 30 -22.5 84t-15.5 91h-5q-157 -175 -349 -175q-59 0 -110 18.5t-92 54.5 t-64.5 96t-23.5 137zM344 1339q0 82 50.5 136.5t123.5 54.5q64 0 104 -38t40 -102q0 -82 -50 -136.5t-124 -54.5q-63 0 -103.5 38t-40.5 102zM793 1339q0 82 50.5 136.5t123.5 54.5q42 0 74.5 -17t51 -48.5t18.5 -74.5q0 -82 -50.5 -136.5t-123.5 -54.5q-63 0 -103.5 38 t-40.5 102z" />
<glyph unicode="&#xfd;" horiz-adv-x="1175" d="M-271 -475l123 247q78 -38 155 -38q29 0 56.5 7t60.5 26t65 50t69 82t73 119l-258 1048h325l86 -399q4 -21 9 -46t9.5 -46t9.5 -44t9.5 -44.5t9 -43.5t9 -45t8.5 -44h4q77 174 131 282l218 430h333l-576 -1066q-62 -113 -114 -192.5t-113.5 -147.5t-126 -108.5t-143 -63 t-172.5 -22.5q-75 0 -144.5 16t-115.5 43zM520 1196l170 332h362l-280 -332h-252z" />
<glyph unicode="&#xfe;" horiz-adv-x="1243" d="M-162 -534l471 2129h340l-113 -503h23q273 0 418 -125.5t145 -344.5q0 -283 -171 -463.5t-439 -180.5q-119 0 -213 37l-121 -549h-340zM359 279q64 -25 125 -25q89 0 159 47t105.5 123t35.5 164q0 62 -18.5 107t-52 70.5t-73.5 37.5t-88 12q-44 0 -77 -7z" />
<glyph unicode="&#xff;" horiz-adv-x="1175" d="M-271 -475l123 247q78 -38 155 -38q29 0 56.5 7t60.5 26t65 50t69 82t73 119l-258 1048h325l86 -399q4 -21 9 -46t9.5 -46t9.5 -44t9.5 -44.5t9 -43.5t9 -45t8.5 -44h4q77 174 131 282l218 430h333l-576 -1066q-62 -113 -114 -192.5t-113.5 -147.5t-126 -108.5t-143 -63 t-172.5 -22.5q-75 0 -144.5 16t-115.5 43zM314 1339q0 82 49.5 136.5t122.5 54.5q64 0 104 -38t40 -102q0 -82 -49.5 -136.5t-122.5 -54.5q-64 0 -104 38t-40 102zM761 1339q0 82 50.5 136.5t123.5 54.5q42 0 74.5 -17t51 -48.5t18.5 -74.5q0 -82 -50.5 -136.5t-123.5 -54.5 q-63 0 -103.5 38t-40.5 102z" />
<glyph unicode="&#x131;" horiz-adv-x="585" d="M-43 0l237 1066h340l-237 -1066h-340z" />
<glyph unicode="&#x152;" horiz-adv-x="2040" d="M99 613q0 149 39 283t116 244.5t185.5 191t253.5 124.5t313 44q54 0 192 -7.5t188 -7.5h684l-110 -291h-466l-68 -300h464l-63 -290h-464l-69 -314h526l-63 -290h-628q-62 0 -187.5 -11t-195.5 -11q-153 0 -275 45.5t-203.5 129t-125 200.5t-43.5 260zM466 604 q0 -165 81.5 -252.5t234.5 -87.5q78 0 162 20l198 903q-84 27 -185 27q-108 0 -200.5 -47.5t-155.5 -129.5t-99 -194t-36 -239z" />
<glyph unicode="&#x153;" horiz-adv-x="1898" d="M4 458q0 104 28.5 200.5t82.5 174.5t126 136.5t164.5 90.5t194.5 32q127 0 219 -50.5t148 -136.5h4q46 56 110 97.5t146 65.5t170 24q185 0 291.5 -99t106.5 -265q0 -117 -51 -287l-650 -11v-18q0 -85 61.5 -129t153.5 -44q74 0 140.5 17t152.5 55l90 -236 q-94 -48 -204.5 -72.5t-212.5 -24.5q-136 0 -232 51.5t-147 135.5h-4q-79 -86 -187 -136.5t-228 -50.5q-143 0 -250.5 60.5t-165 169t-57.5 250.5zM342 460q0 -106 46.5 -160.5t123.5 -54.5q28 0 57 8.5t55 25.5t50 40.5t43 54.5t33 67t22 79.5t8 89.5q0 106 -46.5 160.5 t-123.5 54.5q-50 0 -98.5 -26.5t-86 -73t-60.5 -116t-23 -149.5zM1133 656l327 4q13 38 13 68q0 54 -34 83t-87 29q-75 0 -135.5 -52t-83.5 -132z" />
<glyph unicode="&#x178;" horiz-adv-x="1348" d="M174 1485h351l212 -602h4l372 602h385l-633 -922l-124 -563h-349l128 585zM480 1709q0 41 13.5 77t36.5 61t55.5 40t67.5 15q64 0 104.5 -38t40.5 -102q0 -82 -50.5 -137t-123.5 -55q-64 0 -104 38t-40 101zM928 1709q0 83 50 138t123 55q64 0 104.5 -38t40.5 -102 q0 -82 -50 -137t-124 -55q-63 0 -103.5 38t-40.5 101z" />
<glyph unicode="&#x192;" horiz-adv-x="1260" d="M-243 -295l119 267q73 -53 178 -53q33 0 60.5 7.5t57 26.5t53 59.5t37.5 99.5l121 530h-226l34 261h250l64 273q21 91 60 165t99.5 132t148.5 90t197 32q88 0 174.5 -22.5t148.5 -65.5l-119 -268q-75 55 -178 55q-161 0 -207 -195l-45 -196h286l-90 -261h-255l-140 -606 q-21 -91 -60 -164.5t-99 -132t-148 -90.5t-197 -32q-58 0 -115.5 10t-112 30t-96.5 48z" />
<glyph unicode="&#x2c6;" d="M95 1196l272 332h241l196 -332h-245l-90 152l-115 -152h-259z" />
<glyph unicode="&#x2c7;" d="M140 1528h245l90 -152l116 152h258l-273 -332h-240z" />
<glyph unicode="&#x2d8;" d="M146 1554h224q-5 -65 24 -103.5t86 -38.5q28 0 53.5 10.5t45.5 29t34.5 44.5t22.5 58h236q-34 -166 -146 -254t-268 -88q-155 0 -241.5 91.5t-70.5 250.5z" />
<glyph unicode="&#x2d9;" d="M266 1370q0 95 64.5 153.5t151.5 58.5q84 0 136.5 -51t52.5 -125q0 -96 -64.5 -155.5t-151.5 -59.5q-83 0 -136 52t-53 127z" />
<glyph unicode="&#x2da;" d="M194 1354q0 117 90 191.5t230 74.5q75 0 131.5 -21t88.5 -62t32 -97q0 -118 -90 -192t-229 -74q-115 0 -184 48t-69 132zM402 1370q0 -31 16.5 -47t45.5 -16q28 0 50 17.5t33.5 44t11.5 54.5q0 31 -17 47.5t-46 16.5q-41 0 -67.5 -36t-26.5 -81z" />
<glyph unicode="&#x2db;" d="M172 -304q0 46 15 88t39.5 74.5t62.5 64.5t75.5 56t86.5 51l279 -30q-80 -33 -141 -69.5t-101.5 -81.5t-40.5 -88q0 -58 71 -58q36 0 84 13l15 -174q-100 -26 -202 -26q-119 0 -181 47t-62 133z" />
<glyph unicode="&#x2dc;" d="M56 1221q6 79 27.5 139.5t55.5 97.5t75 55.5t87 18.5q45 0 89 -14.5t72 -31.5t60 -31.5t57 -14.5q26 0 41.5 16.5t21.5 61.5h218q-11 -154 -79 -232t-166 -78q-45 0 -89 14.5t-72 31.5t-60 31.5t-56 14.5q-26 0 -41.5 -16.5t-21.5 -62.5h-219z" />
<glyph unicode="&#x2dd;" d="M135 1196l169 332h363l-280 -332h-252zM559 1196l169 332h362l-279 -332h-252z" />
<glyph unicode="&#x3a9;" horiz-adv-x="1681" d="M-25 0l61 290h112q59 0 145 -30l2 4q-187 214 -187 459q0 158 62 301.5t169 248t260 166t327 61.5q128 0 235.5 -26t187 -75.5t135 -119.5t83.5 -158t28 -190q0 -182 -101.5 -355t-274.5 -310v-4q88 28 159 28h105l-62 -290h-613l48 228q178 143 271.5 314.5t93.5 362.5 q0 142 -80 225.5t-217 83.5q-62 0 -120 -16t-109 -47.5t-93.5 -80t-73 -110.5t-47.5 -142.5t-17 -172.5q0 -110 39 -217t112 -200l-47 -228h-593z" />
<glyph unicode="&#x3c0;" horiz-adv-x="1438" d="M38 804l59 262h1390l-104 -262h-207l-97 -437q-4 -26 -4 -36q0 -47 60 -47q34 0 68 11v-280q-94 -33 -221 -33q-264 0 -264 220q0 65 26 190l92 412h-251l-177 -804h-341l178 804h-207z" />
<glyph unicode="&#x400;" horiz-adv-x="1163" d="M4 0l327 1485h863l-110 -291h-467l-67 -300h464l-64 -290h-464l-69 -314h527l-63 -290h-877zM453 1899h362l109 -331h-255z" />
<glyph unicode="&#x401;" horiz-adv-x="1163" d="M4 0l327 1485h863l-110 -291h-467l-67 -300h464l-64 -290h-464l-69 -314h527l-63 -290h-877zM415 1709q0 82 50 137.5t123 55.5q64 0 104.5 -38t40.5 -102q0 -82 -50.5 -137t-123.5 -55q-64 0 -104 38t-40 101zM862 1709q0 82 50.5 137.5t123.5 55.5q64 0 104 -38 t40 -102q0 -82 -50 -137t-124 -55q-63 0 -103.5 38t-40.5 101z" />
<glyph unicode="&#x402;" horiz-adv-x="1668" d="M112 1208l62 277h1290l-106 -277h-459l-63 -291q73 5 106 5q135 0 245 -34t183 -93.5t112.5 -140.5t39.5 -177q0 -83 -19.5 -156.5t-60 -136t-99 -107t-141 -70t-181.5 -25.5q-144 0 -251 48l100 260q47 -24 117 -24q94 0 143.5 51t49.5 141q0 51 -24 87t-67.5 55 t-92 27.5t-106.5 8.5q-33 0 -120 -10l-138 -626h-348l266 1208h-438z" />
<glyph unicode="&#x403;" horiz-adv-x="1186" d="M4 0l327 1485h892l-126 -291h-480l-261 -1194h-352zM649 1568l168 331h363l-279 -331h-252z" />
<glyph unicode="&#x404;" horiz-adv-x="1430" d="M101 606q0 206 64.5 374t180.5 282t279.5 176t358.5 62q113 0 226 -17.5t187 -49.5l-64 -285q-173 71 -357 71q-94 0 -174.5 -26t-140.5 -72t-103 -106t-67 -132h642l-56 -273h-619v-4q0 -73 24 -135.5t69 -110t115.5 -74t158.5 -26.5q58 0 110 7t106.5 24t116.5 45 l63 -278q-95 -42 -211 -61t-219 -19q-148 0 -266 33.5t-196.5 91t-130.5 138.5t-74.5 171.5t-22.5 193.5z" />
<glyph unicode="&#x405;" horiz-adv-x="1137" d="M-56 92l140 271q82 -49 157.5 -74t164.5 -25q44 0 82.5 7.5t74 24t56.5 47.5t21 74q0 37 -16.5 69.5t-45 57t-65 48.5t-77.5 47.5t-81.5 49t-77 59t-65 72t-45 92t-16.5 115.5q0 98 35.5 183t103.5 150t174.5 102.5t238.5 37.5q120 0 224.5 -23.5t181.5 -61.5l-62 -293 q-76 45 -166.5 68.5t-168.5 23.5q-99 0 -147.5 -40t-48.5 -95q0 -35 16.5 -66t45 -56t65.5 -49.5t77.5 -49t81.5 -51.5t77.5 -61.5t65 -74t45 -93.5t16.5 -116q0 -115 -44.5 -207.5t-124 -152.5t-187.5 -92t-235 -32q-260 0 -471 114z" />
<glyph unicode="&#x406;" horiz-adv-x="684" d="M4 0l327 1485h349l-326 -1485h-350z" />
<glyph unicode="&#x407;" horiz-adv-x="682" d="M4 0l327 1485h349l-326 -1485h-350zM169 1709q0 83 50 138t123 55q64 0 104 -38t40 -102q0 -82 -50 -137t-122 -55q-64 0 -104.5 38t-40.5 101zM617 1709q0 41 13.5 77t37 61t55.5 40t68 15q63 0 103.5 -38t40.5 -102q0 -82 -50.5 -137t-123.5 -55q-63 0 -103.5 38 t-40.5 101z" />
<glyph unicode="&#x408;" horiz-adv-x="772" d="M-336 -370l97 267q65 -32 147 -32q57 0 95 20.5t64 69.5q29 60 47 146l305 1384h349l-325 -1483q-36 -158 -94 -238q-131 -185 -412 -185q-158 0 -273 51z" />
<glyph unicode="&#x409;" horiz-adv-x="2154" d="M-101 7l67 309q30 -7 54 -7q88 0 163 72q42 40 82.5 102t79 145.5t73.5 174t73 208t70 226t71 248.5h873l-112 -511h35q231 0 354 -62q52 -26 92.5 -61t68 -77.5t42 -93.5t14.5 -108q0 -180 -78 -308.5t-229 -196t-363 -67.5h-500l265 1208h-208q-55 -182 -96.5 -310.5 t-88.5 -256t-89.5 -216t-91 -164.5t-101.5 -128q-147 -144 -376 -144q-81 0 -144 18zM1239 282h109q142 0 225 63.5t83 192.5q0 88 -76 129q-57 27 -163 27h-86z" />
<glyph unicode="&#x40a;" horiz-adv-x="2263" d="M4 0l327 1485h349l-128 -584h583l129 584h349l-113 -511h37q230 0 353 -62q70 -35 118 -85t73 -114.5t25 -140.5q0 -272 -174 -422t-494 -150h-501l133 608h-584l-132 -608h-350zM1348 282h107q143 0 226 63.5t83 192.5q0 87 -77 129q-56 27 -162 27h-85z" />
<glyph unicode="&#x40b;" horiz-adv-x="1788" d="M120 1208l60 277h1312l-106 -277h-478l-65 -303q128 19 223 19q131 0 230 -29t159.5 -82t90 -124t29.5 -160q0 -61 -21 -157l-83 -372h-349l79 346q20 85 20 138q0 54 -24.5 88t-77.5 50t-139 16q-83 0 -202 -23l-136 -615h-349l266 1208h-439z" />
<glyph unicode="&#x40c;" horiz-adv-x="1472" d="M4 0l327 1485h349l-130 -593h133q48 0 87 23t64 59t50.5 87.5t45 101t50 106.5t63.5 98q51 64 120.5 98.5t171.5 34.5q104 0 197 -32l-64 -294q-47 20 -90 20q-34 0 -57 -13.5t-46 -40.5q-22 -27 -46.5 -74t-46.5 -92t-49.5 -90t-68 -80.5t-90.5 -51.5v-4 q84 -30 118 -155l168 -593h-395l-89 471q-15 73 -39 108.5t-52 35.5h-197l-134 -615h-350zM759 1568l169 331h363l-279 -331h-253z" />
<glyph unicode="&#x40d;" horiz-adv-x="1729" d="M4 0l329 1485h347l-173 -782q-16 -75 -41 -165h5q78 86 219 234l680 713h356l-327 -1485h-350l176 806q7 32 35 136h-5q-92 -107 -208 -226l-688 -716h-355zM696 1899h363l108 -331h-255z" />
<glyph unicode="&#x40e;" horiz-adv-x="1391" d="M67 7l64 275q54 -18 105 -18q82 0 141.5 43t116.5 134l-322 1044h369l182 -707h5l430 707h381l-753 -1161q-83 -130 -156 -203t-161.5 -108t-206.5 -35q-104 0 -195 29zM441 1890l260 59q11 -91 51 -136.5t104 -45.5q53 0 100.5 27t90 80.5t86.5 137.5l239 -110 q-103 -204 -229.5 -294t-306.5 -90q-78 0 -145.5 23.5t-121 68.5t-87.5 117t-41 163z" />
<glyph unicode="&#x40f;" horiz-adv-x="1621" d="M4 0l327 1485h349l-259 -1178h589l258 1178h349l-329 -1485h-454l-93 -428h-326l94 428h-505z" />
<glyph unicode="&#x410;" horiz-adv-x="1483" d="M-146 0l858 1492h300l297 -1492h-365l-61 354h-449l-193 -354h-387zM591 628h249l-38 286q-12 90 -13 122h-5q-26 -69 -51 -122z" />
<glyph unicode="&#x411;" horiz-adv-x="1346" d="M4 0l327 1485h974l-106 -277h-580l-58 -271h77q232 0 366 -70q44 -23 78.5 -54.5t60 -72t39.5 -92t14 -110.5q0 -117 -46 -216t-130.5 -170.5t-211 -111.5t-281.5 -40h-523zM415 282h131q74 0 131.5 17t90 42.5t53 59t27 61t6.5 54.5q0 70 -48 106q-31 21 -77 28.5 t-114 7.5h-117z" />
<glyph unicode="&#x412;" horiz-adv-x="1326" d="M4 0l327 1485h435q116 0 203.5 -25t140.5 -71t78.5 -107t25.5 -136q0 -80 -29 -149t-78 -119t-118 -87v-5q38 -10 73 -31t65 -53t48.5 -80.5t18.5 -105.5q0 -82 -26.5 -157t-80.5 -140.5t-131.5 -114t-186.5 -76.5t-238 -28h-527zM415 279h153q131 0 207 53t76 150 q0 65 -50 96.5t-132 31.5h-183zM548 890h114q89 0 149.5 51.5t60.5 144.5q0 52 -38 84.5t-116 32.5h-101z" />
<glyph unicode="&#x413;" horiz-adv-x="1064" d="M4 0l327 1485h892l-126 -291h-480l-261 -1194h-352z" />
<glyph unicode="&#x414;" horiz-adv-x="1646" d="M-191 -428l157 721h84q210 220 348.5 500.5t252.5 691.5h871l-262 -1192h221l-161 -721h-346l94 428h-816l-95 -428h-348zM449 293h463l201 915h-225q-87 -293 -187.5 -511t-251.5 -400v-4z" />
<glyph unicode="&#x415;" horiz-adv-x="1163" d="M4 0l327 1485h863l-110 -291h-467l-67 -300h464l-64 -290h-464l-69 -314h527l-63 -290h-877z" />
<glyph unicode="&#x416;" horiz-adv-x="2218" d="M-79 0l339 574q22 38 40 64t46.5 60t62 56.5t71.5 31.5v5q-30 25 -46.5 73.5t-21 95t-15 99.5t-27.5 83q-30 54 -97 54q-46 0 -86 -18l61 290q93 32 180 32q138 0 202 -90q28 -40 44 -99.5t19.5 -116t11 -115t18.5 -102t41 -71t79 -27.5h101l133 606h335l-133 -606h104 q47 0 86.5 23t66.5 59.5t54.5 88.5t49 101.5t52.5 107.5t62 99q53 70 123 106t180 36q102 0 185 -32l-64 -292q-45 20 -87 20q-61 0 -104 -54q-22 -26 -47.5 -71t-48.5 -88t-51.5 -87.5t-67.5 -81.5t-85 -57v-5q84 -28 119 -157l176 -595h-380l-104 471q-8 39 -20.5 66 t-23.5 40t-27 20t-24.5 8t-24.5 1h-153l-133 -606h-335l133 606h-174q-28 0 -48.5 -8t-48.5 -39t-60 -88l-252 -471h-386z" />
<glyph unicode="&#x417;" horiz-adv-x="1283" d="M15 81l64 280q86 -44 189 -70.5t198 -26.5q61 0 111.5 10.5t92 33t64.5 62t23 92.5q0 81 -73 118t-233 37q-107 0 -174 -2l61 273q56 -5 146 -5q345 0 345 192q0 68 -60 103.5t-169 35.5q-83 0 -177.5 -20.5t-170.5 -51.5l-52 259q116 47 227 73t246 26q104 0 194.5 -24 t160 -69t110 -117t40.5 -161t-36 -162.5t-103 -126.5t-162 -85v-5q238 -84 238 -316q0 -208 -162.5 -332t-458.5 -124q-128 0 -257 27.5t-222 75.5z" />
<glyph unicode="&#x418;" horiz-adv-x="1729" d="M4 0l329 1485h347l-173 -782q-16 -75 -41 -165h5q78 86 219 234l680 713h356l-327 -1485h-350l176 806q7 32 35 136h-5q-92 -107 -208 -226l-688 -716h-355z" />
<glyph unicode="&#x419;" horiz-adv-x="1729" d="M4 0l329 1485h347l-173 -782q-16 -75 -41 -165h5q78 86 219 234l680 713h356l-327 -1485h-350l176 806q7 32 35 136h-5q-92 -107 -208 -226l-688 -716h-355zM617 1890l260 59q11 -91 51 -136.5t104 -45.5q53 0 100.5 27t90 80.5t86.5 137.5l239 -110 q-103 -204 -229.5 -294t-306.5 -90q-62 0 -118 14.5t-104 44.5t-84.5 73.5t-59.5 104.5t-29 135z" />
<glyph unicode="&#x41a;" horiz-adv-x="1509" d="M4 0l327 1485h349l-130 -593h133q48 0 87 23t64 59t50.5 87.5t45 101t50 106.5t63.5 98q51 64 120.5 98.5t171.5 34.5q104 0 197 -32l-64 -294q-47 20 -90 20q-34 0 -57 -13.5t-46 -40.5q-22 -27 -46.5 -74t-46.5 -92t-49.5 -90t-68 -80.5t-90.5 -51.5v-4 q84 -30 118 -155l168 -593h-395l-89 471q-15 73 -39 108.5t-52 35.5h-197l-134 -615h-350z" />
<glyph unicode="&#x41b;" horiz-adv-x="1529" d="M-101 7l67 309q30 -7 54 -7q88 0 163 72q42 40 82.5 102t79 145.5t73.5 174t73 208t70 226t71 248.5h893l-326 -1485h-350l266 1208h-229q-55 -182 -96.5 -310.5t-88.5 -256t-89.5 -216t-91 -164.5t-101.5 -128q-147 -144 -376 -144q-81 0 -144 18z" />
<glyph unicode="&#x41c;" horiz-adv-x="1896" d="M4 0l327 1485h318l207 -498q80 -198 92 -237h5q54 85 162 217l417 518h360l-327 -1485h-348l155 703q43 188 49 209h-6q-46 -65 -133 -168l-332 -406h-155l-171 401q-44 97 -67 173h-9q-3 -28 -11.5 -78.5t-17 -89t-22.5 -102t-17 -79.5l-126 -563h-350z" />
<glyph unicode="&#x41d;" horiz-adv-x="1689" d="M4 0l327 1485h349l-128 -584h656l127 584h350l-327 -1485h-348l132 608h-656l-132 -608h-350z" />
<glyph unicode="&#x41e;" horiz-adv-x="1702" d="M101 591q0 152 40 291t116.5 251t181 194.5t239.5 127.5t287 45q144 0 262 -42.5t199.5 -121.5t126 -193.5t44.5 -254.5q0 -153 -40 -292t-116 -251t-180.5 -194.5t-239.5 -127.5t-286 -45q-193 0 -336 74t-220.5 212.5t-77.5 326.5zM466 604q0 -163 78 -251.5t217 -88.5 q51 0 99.5 13.5t90.5 38.5t80 60.5t69 78t55.5 92t41.5 103t26 110.5t9 114q0 164 -77.5 252t-217.5 88q-67 0 -130 -24t-114 -66t-94 -100t-72 -125.5t-45 -143t-16 -151.5z" />
<glyph unicode="&#x41f;" horiz-adv-x="1614" d="M4 0l329 1485h1277l-326 -1485h-349l264 1191h-582l-263 -1191h-350z" />
<glyph unicode="&#x420;" horiz-adv-x="1296" d="M4 0l327 1485h363q174 0 286 -49q118 -52 184 -149t66 -230q0 -175 -83 -306t-251 -199q-164 -66 -380 -66h-54l-108 -486h-350zM522 763h48q119 0 196 50q56 35 85.5 91.5t29.5 127.5q0 108 -77 148q-57 28 -126 28h-59z" />
<glyph unicode="&#x421;" horiz-adv-x="1400" d="M101 626q0 135 33.5 256t94 216.5t144.5 171.5t186 126.5t218.5 77t241.5 26.5q70 0 141 -8t134.5 -23t111.5 -36l-65 -291q-158 72 -325 72q-101 0 -189.5 -30.5t-153 -84t-111.5 -123.5t-70 -151t-23 -165q0 -116 42.5 -204t130.5 -140t212 -52q154 0 313 72l63 -278 q-95 -42 -211 -61t-219 -19q-143 0 -260.5 35t-198 95.5t-135.5 143.5t-80 176.5t-25 197.5z" />
<glyph unicode="&#x422;" horiz-adv-x="1265" d="M117 1194l63 291h1239l-125 -291h-389l-263 -1194h-349l264 1194h-440z" />
<glyph unicode="&#x423;" horiz-adv-x="1391" d="M67 7l64 275q54 -18 105 -18q82 0 141.5 43t116.5 134l-322 1044h369l182 -707h5l430 707h381l-753 -1161q-83 -130 -156 -203t-161.5 -108t-206.5 -35q-104 0 -195 29z" />
<glyph unicode="&#x424;" horiz-adv-x="1774" d="M97 640q0 109 28.5 207.5t88 185t145.5 151.5t208 106.5t269 50.5l41 177h348l-43 -189q243 -34 370 -153t127 -316q0 -110 -29.5 -209.5t-90.5 -186.5t-149 -152t-212.5 -106t-273.5 -49l-43 -198h-350l48 215q-237 35 -359.5 153t-122.5 313zM443 667q0 -177 197 -214 l130 592q-99 -20 -173 -73t-114 -132t-40 -173zM989 451q157 29 249.5 132t92.5 251q0 91 -51 144t-158 69z" />
<glyph unicode="&#x425;" horiz-adv-x="1400" d="M-155 0l655 768l-343 717h365l215 -449l381 449h404l-634 -744l360 -741h-367l-228 471l-408 -471h-400z" />
<glyph unicode="&#x426;" horiz-adv-x="1679" d="M4 0l327 1485h349l-261 -1192h525l264 1192h348l-260 -1192h226l-159 -721h-340l92 428h-1111z" />
<glyph unicode="&#x427;" horiz-adv-x="1509" d="M214 955q0 67 20 158l84 372h349l-79 -348q-20 -88 -20 -137q0 -81 56 -117t184 -36q94 0 213 23l135 615h349l-327 -1485h-349l126 579q-121 -18 -232 -18q-106 0 -190.5 19t-143.5 53t-98.5 83t-58 108.5t-18.5 130.5z" />
<glyph unicode="&#x428;" horiz-adv-x="2135" d="M4 0l327 1485h349l-263 -1192h376l264 1192h349l-264 -1192h376l264 1192h349l-327 -1485h-1800z" />
<glyph unicode="&#x429;" horiz-adv-x="2255" d="M4 0l327 1485h349l-263 -1192h376l264 1192h349l-264 -1192h376l264 1192h349l-261 -1192h228l-161 -721h-340l93 428h-1686z" />
<glyph unicode="&#x42a;" horiz-adv-x="1700" d="M157 1485h892l-112 -511h37q229 0 353 -62q52 -26 92.5 -61t68 -77.5t41.5 -93.5t14 -108q0 -272 -174.5 -422t-494.5 -150h-500l266 1208h-462zM784 282h108q143 0 226 63.5t83 192.5q0 87 -77 129q-57 27 -163 27h-84z" />
<glyph unicode="&#x42b;" horiz-adv-x="1892" d="M4 0l327 1485h347l-110 -511h17q231 0 354 -62q106 -52 161.5 -139t55.5 -201q0 -271 -175 -421.5t-495 -150.5h-482zM415 282h90q143 0 225.5 63.5t82.5 192.5q0 88 -76 129q-57 27 -163 27h-67zM1212 0l327 1485h349l-327 -1485h-349z" />
<glyph unicode="&#x42c;" horiz-adv-x="1353" d="M4 0l327 1485h349l-112 -511h58q231 0 354 -62q105 -52 160.5 -139t55.5 -201q0 -272 -174.5 -422t-494.5 -150h-523zM415 282h131q93 0 161 26t107.5 84.5t39.5 145.5q0 88 -76 129q-57 27 -163 27h-108z" />
<glyph unicode="&#x42d;" horiz-adv-x="1414" d="M34 79l61 284q96 -49 187 -76t209 -27q167 0 283.5 92.5t158.5 257.5h-654l57 273h619q-12 162 -110.5 249t-263.5 87q-168 0 -336 -75l-54 260q113 46 222.5 71t244.5 25q154 0 277 -47t205 -133t125.5 -206.5t43.5 -266.5q0 -198 -57.5 -360t-163 -274t-259 -173.5 t-341.5 -61.5q-121 0 -241.5 26.5t-212.5 74.5z" />
<glyph unicode="&#x42e;" horiz-adv-x="2387" d="M4 0l327 1485h349l-128 -584h322q42 133 116.5 243t175.5 189.5t230 123t274 43.5q136 0 249.5 -41.5t193.5 -117.5t124.5 -188t44.5 -248q0 -156 -38.5 -297.5t-113 -255.5t-176.5 -198.5t-234 -130t-280 -45.5q-182 0 -320.5 71.5t-215.5 206.5t-77 316v36h-341 l-132 -608h-350zM1191 604q0 -163 73.5 -251.5t201.5 -88.5q67 0 129 24t111 66t89 100t66.5 125.5t41 143t14.5 151.5q0 162 -73.5 251t-201.5 89q-67 0 -128.5 -23.5t-110.5 -66t-89 -100.5t-67 -125.5t-41.5 -143t-14.5 -151.5z" />
<glyph unicode="&#x42f;" horiz-adv-x="1434" d="M-79 0l324 509q18 28 34 49.5t39.5 48t52 47.5t59.5 34v4q-57 29 -99 75.5t-64 104.5t-22 121q0 147 78.5 259.5t213.5 172.5t303 60h590l-326 -1485h-349l119 543h-173q-41 0 -76.5 -30t-83.5 -115l-230 -398h-390zM600 984q0 -76 49 -120t146 -44h140l86 388h-170 q-68 0 -124 -24.5t-91.5 -76t-35.5 -123.5z" />
<glyph unicode="&#x430;" horiz-adv-x="1141" d="M-34 273q0 171 111 275q156 144 499 144h84q2 11 2 24q0 60 -38 92t-136 32q-132 0 -297 -64l-45 236q204 80 415 80q45 0 86 -3.5t86.5 -13.5t83.5 -26t73.5 -43t60 -62t39 -85t14.5 -111q0 -94 -35 -234l-34 -131q-30 -125 -30 -200q0 -71 21 -142l-294 -63 q-11 31 -23.5 85.5t-15.5 89.5q-58 -80 -143 -127.5t-179 -47.5q-139 0 -222 81.5t-83 213.5zM284 322q0 -42 25 -62.5t67 -20.5q78 0 151.5 57t96.5 151l6 26h-51q-201 0 -265 -71q-30 -34 -30 -80z" />
<glyph unicode="&#x431;" horiz-adv-x="1243" d="M34 520q0 240 81 476.5t192 344.5q40 39 75 65.5t90 49.5t94.5 36t133 30.5t158.5 27.5t216 31q42 6 63 10l52 -291q-53 -8 -147 -22q-91 -13 -132 -19t-104.5 -17t-91.5 -18t-68 -18t-61 -22t-43.5 -26t-41.5 -34q-86 -90 -135 -279h5q70 93 170.5 141t198.5 48 q92 0 165.5 -35t119 -94t70 -134t24.5 -158q0 -81 -20.5 -160t-58 -149t-92 -130t-120 -103.5t-145 -68t-164.5 -24.5q-105 0 -192 32t-153 96.5t-102.5 170t-36.5 243.5zM370 426q0 -86 42 -133.5t122 -47.5q55 0 102 28t78 74t48.5 106t17.5 126q0 88 -38 143.5t-118 55.5 q-58 0 -107 -31.5t-80.5 -82t-49 -113t-17.5 -125.5z" />
<glyph unicode="&#x432;" horiz-adv-x="1146" d="M-38 58l214 974q191 60 419 60q96 0 173 -15t128 -41.5t85 -63.5t49 -78t15 -88q0 -68 -29 -120.5t-83 -87t-131 -52.5v-5q90 -29 131 -83.5t41 -124.5q0 -167 -144.5 -261t-437.5 -94q-112 0 -235.5 21t-194.5 59zM329 226q38 -14 103 -14q53 0 93 10.5t62.5 28.5 t33.5 40.5t11 48.5q0 45 -33 68.5t-108 23.5h-115zM421 645h86q56 0 97 10.5t62.5 29t31 39t9.5 44.5q0 90 -133 90q-51 0 -108 -11z" />
<glyph unicode="&#x433;" horiz-adv-x="988" d="M-34 293q0 55 16.5 102t44.5 80.5t65.5 61.5t79.5 46.5t87 35.5t87 29t79.5 26t65.5 27t44.5 31t16.5 40q0 60 -115 60t-259 -48l-72 241q188 67 382 67q100 0 178 -23t127 -65t74 -97.5t25 -122.5q0 -50 -14.5 -94t-34 -75t-56.5 -60.5t-65.5 -47t-77.5 -37t-76 -28.5 t-77 -25q-50 -15 -74 -23.5t-54.5 -22.5t-43 -28.5t-12.5 -33.5q0 -70 112 -70q157 0 306 79l98 -237q-205 -103 -438 -103q-124 0 -217.5 34.5t-147.5 106.5t-54 174z" />
<glyph unicode="&#x434;" horiz-adv-x="1202" d="M4 441q0 127 42.5 237.5t115.5 188.5t175.5 122.5t219.5 44.5q134 0 232 -43h4q-10 163 -88 239.5t-225 76.5q-89 0 -228 -34l-58 277q27 9 60.5 16.5t72 14t82.5 10.5t85 4q154 0 274 -50t196.5 -141.5t116 -218t39.5 -282.5q0 -148 -25 -283.5t-78 -253t-128.5 -203.5 t-183.5 -135.5t-236 -49.5q-98 0 -181.5 29.5t-147 86.5t-100 146t-36.5 201zM340 432q0 -91 38 -139t113 -48q76 0 137.5 63.5t99.5 171t54 250.5q-85 48 -180 48q-63 0 -114 -32t-82.5 -83t-48.5 -111t-17 -120z" />
<glyph unicode="&#x435;" horiz-adv-x="1133" d="M4 441q0 132 44.5 251t123.5 207.5t196 140.5t254 52q195 0 303.5 -98.5t108.5 -265.5q0 -117 -52 -287l-649 -11v-18q0 -85 61.5 -129t153.5 -44q73 0 140 17t152 55l91 -236q-94 -48 -204.5 -72.5t-212.5 -24.5q-127 0 -225.5 35.5t-160 99t-93 146.5t-31.5 182z M372 656l326 4q14 38 14 68q0 54 -34 83t-87 29q-50 0 -95 -24t-77 -66t-47 -94z" />
<glyph unicode="&#x436;" horiz-adv-x="1795" d="M-108 13l74 277q30 -13 62 -13q38 0 64 30q14 16 35 47t40 58t44.5 56.5t60 52.5t74.5 36v4q-66 45 -86 114l-116 391h347l68 -305q22 -92 69 -92h86l84 397h328l-83 -397h64q33 0 61.5 17t48.5 43.5t41.5 63.5t39 73t43 76t52.5 68q75 82 211 82q88 0 167 -24l-68 -277 q-27 13 -54 13q-35 0 -61 -28q-15 -19 -43.5 -58.5t-50 -68.5t-57.5 -60.5t-74 -47.5v-5q63 -40 90 -121l135 -415h-345l-85 327q-25 92 -68 92h-94l-88 -419h-329l85 419h-81q-37 0 -68 -24.5t-56.5 -66t-50 -86t-59.5 -95.5t-74 -84q-84 -74 -232 -74q-87 0 -151 24z" />
<glyph unicode="&#x437;" horiz-adv-x="1015" d="M-58 60l60 237q148 -69 312 -69q29 0 56 2.5t55.5 10.5t49.5 20t34 32.5t13 46.5q0 49 -52.5 73t-165.5 24q-76 0 -153 -5l51 228q65 -4 163 -4q74 0 121.5 12t68.5 34t21 55q0 41 -42.5 62t-114.5 21q-124 0 -259 -49l-68 228q77 33 181 53t209 20q89 0 163.5 -17.5 t131 -52t88 -91t31.5 -129.5q0 -58 -26 -110t-68.5 -88t-96.5 -58v-5q144 -70 144 -214q0 -111 -66 -190.5t-181.5 -119t-268.5 -39.5q-112 0 -215.5 23.5t-175.5 58.5z" />
<glyph unicode="&#x438;" horiz-adv-x="1245" d="M41 284q0 79 32 232l121 550h340l-136 -600q-13 -57 -13 -92q0 -52 23 -81t67 -29q34 0 66 13.5t66 43.5t63.5 89t47.5 140l116 516h340l-151 -683q-27 -135 -27 -200q0 -71 20 -142l-293 -63q-11 30 -22.5 84t-15.5 91h-5q-157 -175 -349 -175q-59 0 -110 18.5t-92 54.5 t-64.5 96t-23.5 137z" />
<glyph unicode="&#x439;" horiz-adv-x="1245" d="M41 284q0 79 32 232l121 550h340l-136 -600q-13 -57 -13 -92q0 -52 23 -81t67 -29q34 0 66 13.5t66 43.5t63.5 89t47.5 140l116 516h340l-151 -683q-27 -135 -27 -200q0 -71 20 -142l-293 -63q-11 30 -22.5 84t-15.5 91h-5q-157 -175 -349 -175q-59 0 -110 18.5t-92 54.5 t-64.5 96t-23.5 137zM295 1575l253 59q11 -94 47 -138.5t99 -44.5q79 0 141.5 58.5t129.5 186.5l229 -110q-108 -203 -223.5 -288.5t-290.5 -85.5q-79 0 -145 22t-117.5 65.5t-83.5 114t-39 161.5z" />
<glyph unicode="&#x43a;" horiz-adv-x="1186" d="M-50 0l237 1066h340l-88 -395h77q39 0 70 22t53.5 61t42 80.5t47 92.5t57.5 85q35 40 90.5 60t121.5 20q77 0 171 -26l-68 -277q-26 13 -58 13q-34 0 -61 -30q-16 -18 -43 -57t-48 -67.5t-56.5 -59.5t-73.5 -47v-5q66 -38 90 -121l127 -415h-346l-64 327q-6 29 -14 48 t-21.5 30.5t-32.5 11.5h-117l-93 -417h-340z" />
<glyph unicode="&#x43b;" horiz-adv-x="1296" d="M-135 13l70 277q27 -8 56 -8q36 0 61.5 14.5t46.5 52.5q23 41 53.5 120.5t56 150t73.5 158.5t107 155q51 56 114 91t139.5 51.5t172.5 16.5q176 0 348 -43l-144 -634q-26 -123 -26 -185q0 -78 37 -185l-325 -67q-52 106 -52 227q0 87 25 201l92 405h-15q-85 0 -142 -83 q-37 -55 -77 -149t-68.5 -176.5t-70.5 -170t-83 -135.5q-52 -59 -121 -83.5t-159 -24.5q-95 0 -169 24z" />
<glyph unicode="&#x43c;" horiz-adv-x="1558" d="M-135 7l68 279q26 -9 60 -9q49 0 78 22t53 68q20 39 41.5 106t37 126.5t36.5 160t30.5 151t29.5 155.5h262q103 -217 200 -492h7q44 68 131 165l283 327h321l-145 -651q-25 -123 -25 -203q0 -79 21 -167l-327 -67q-34 99 -34 205q0 59 10.5 127t22 114.5t31.5 118.5h-8 q-33 -43 -118 -145l-172 -196h-137q-67 194 -131 348h-5q-20 -97 -35 -157t-37.5 -127.5t-52 -114.5t-68.5 -82q-95 -84 -265 -84q-88 0 -163 22z" />
<glyph unicode="&#x43d;" horiz-adv-x="1268" d="M-50 0l237 1066h340l-78 -354h344l79 354h340l-236 -1066h-340l89 412h-344l-91 -412h-340z" />
<glyph unicode="&#x43e;" horiz-adv-x="1234" d="M4 458q0 130 46.5 246.5t126.5 202t195.5 135.5t246.5 50q115 0 209 -35t157.5 -98t98 -151.5t34.5 -194.5q0 -104 -29.5 -200.5t-84.5 -175t-129.5 -137t-170.5 -90.5t-201 -32q-115 0 -209 35t-157.5 98t-98 152t-34.5 195zM342 460q0 -106 46.5 -160.5t123.5 -54.5 q28 0 57 8.5t55 25.5t50 40.5t43 54.5t33 67t22 79.5t8 89.5q0 106 -46.5 160.5t-123.5 54.5q-50 0 -98.5 -26.5t-86 -73t-60.5 -116t-23 -149.5z" />
<glyph unicode="&#x43f;" horiz-adv-x="1262" d="M-43 0l237 1066h261v-204h5q179 230 396 230q131 0 203 -69.5t72 -207.5q0 -71 -34 -222l-132 -593h-341l128 570q24 105 24 140q0 28 -9.5 47.5t-27.5 30t-45 10.5q-42 0 -90.5 -25t-94.5 -85q-82 -110 -128 -316l-84 -372h-340z" />
<glyph unicode="&#x440;" horiz-adv-x="1238" d="M-162 -534l347 1566q191 60 374 60q273 0 418 -125.5t145 -344.5q0 -283 -171 -463.5t-439 -180.5q-119 0 -213 37l-121 -549h-340zM359 279q64 -25 125 -25q89 0 159 47t105.5 123t35.5 164q0 62 -18.5 107t-52 70.5t-73.5 37.5t-88 12q-44 0 -77 -7z" />
<glyph unicode="&#x441;" horiz-adv-x="1017" d="M4 451q0 101 26 194t80 174.5t131 142t186 95.5t237 35q57 0 115.5 -8t108.5 -22t90 -32l-64 -269q-131 64 -241 64q-66 0 -125 -23.5t-105.5 -67t-73.5 -111t-27 -150.5q0 -74 26.5 -125t78 -77t125.5 -26q126 0 239 66l92 -236q-39 -26 -102.5 -48t-136.5 -35.5 t-137 -13.5q-109 0 -197 25.5t-148 69t-100.5 104t-59 129t-18.5 145.5z" />
<glyph unicode="&#x442;" horiz-adv-x="1894" d="M-50 0l237 1066h262v-204h4q34 44 76.5 83t94 73t112.5 54t122 20q115 0 176.5 -59.5t64.5 -172.5h5q35 44 78 83.5t95.5 74t115.5 54.5t125 20q118 0 186 -59.5t69 -167.5q2 -77 -34 -248l-137 -617h-340l142 630q13 58 13 95q0 73 -65 73q-39 0 -90.5 -26t-101.5 -89 q-85 -109 -128 -302l-86 -381h-340l142 630q13 58 13 98q0 70 -65 70q-40 0 -91.5 -26.5t-101.5 -91.5q-85 -112 -127 -299l-86 -381h-340z" />
<glyph unicode="&#x443;" horiz-adv-x="1175" d="M-271 -475l123 247q78 -38 155 -38q29 0 56.5 7t60.5 26t65 50t69 82t73 119l-258 1048h325l86 -399q4 -21 9 -46t9.5 -46t9.5 -44t9.5 -44.5t9 -43.5t9 -45t8.5 -44h4q77 174 131 282l218 430h333l-576 -1066q-62 -113 -114 -192.5t-113.5 -147.5t-126 -108.5t-143 -63 t-172.5 -22.5q-75 0 -144.5 16t-115.5 43z" />
<glyph unicode="&#x444;" horiz-adv-x="1709" d="M4 365q0 118 28 228.5t80.5 200t123.5 157t161.5 104.5t190.5 37q82 0 164 -22l26 119q41 193 154.5 299.5t288.5 106.5q115 0 207 -39l-95 -270q-41 16 -80 16q-63 0 -99.5 -35.5t-59.5 -118.5q-6 -23 -16 -75t-16 -75l4 -2q94 96 234 96q138 0 215.5 -102t77.5 -285 q0 -148 -44 -281.5t-120 -231.5t-185 -156t-234 -58q-83 0 -165 22q-14 -54 -18.5 -71.5t-17.5 -64t-20 -65t-20.5 -55.5t-25 -56.5t-27.5 -46t-34.5 -46t-39.5 -36.5q-115 -93 -279 -93q-121 0 -203 38l94 270q39 -15 82 -15q36 0 71 18.5t57 60.5q5 9 9.5 19.5t8 19.5 t8.5 25t8 26t9 31.5t8.5 33t9.5 39t11 41.5l-5 2q-93 -97 -234 -97q-137 0 -215 102t-78 285zM342 392q0 -69 26.5 -104.5t78.5 -35.5q59 0 104.5 55t61.5 132l81 372q-36 12 -81 12q-64 0 -117 -38.5t-86 -101t-50.5 -138t-17.5 -153.5zM903 260q36 -12 81 -12 q65 0 117.5 38t85.5 100t50.5 137.5t17.5 154.5q0 139 -103 139q-60 0 -106 -55t-62 -132z" />
<glyph unicode="&#x445;" horiz-adv-x="1170" d="M-174 0l525 552l-315 514h345l184 -305l280 305h369l-507 -541l320 -525h-344l-192 316l-295 -316h-370z" />
<glyph unicode="&#x446;" horiz-adv-x="1384" d="M41 284q0 79 32 232l121 550h340l-136 -600q-13 -57 -13 -92q0 -52 23 -81t67 -29q34 0 66 13.5t66 43.5t63.5 89t47.5 140l116 516h340l-102 -458q-40 -187 -40 -254q0 -32 4.5 -51.5t15.5 -33t33 -18.5t52.5 -5t79.5 6l-136 -637h-297l76 383q-60 20 -99 59t-60 110h-5 q-166 -189 -365 -189q-59 0 -110 18.5t-92 54.5t-64.5 96t-23.5 137z" />
<glyph unicode="&#x447;" horiz-adv-x="1232" d="M101 619q0 86 28 201l56 246h340l-63 -271q-13 -61 -13 -90q0 -47 24.5 -69.5t80.5 -22.5q40 0 76.5 9t61.5 22.5t41 29.5t19 31l84 361h340l-239 -1066h-337l51 236q15 75 43 172h-4q-128 -64 -284 -64q-148 0 -226.5 73.5t-78.5 201.5z" />
<glyph unicode="&#x448;" horiz-adv-x="1804" d="M41 275q0 88 32 241l121 550h340l-136 -600q-13 -63 -13 -101q0 -30 7.5 -52t25 -35.5t42.5 -13.5q72 0 131.5 83t88.5 207l113 512h340l-135 -600q-14 -63 -14 -101q0 -30 8 -52t25 -35.5t42 -13.5q72 0 131 81t87 205l116 516h339l-150 -683q-28 -135 -28 -200 q0 -71 21 -142l-293 -63q-11 29 -23 90t-16 99h-4q-156 -189 -345 -189q-40 0 -76.5 10t-71 31.5t-59 61.5t-31.5 95h-5q-71 -93 -162.5 -145.5t-193.5 -52.5q-78 0 -135 33t-88 100.5t-31 163.5z" />
<glyph unicode="&#x449;" horiz-adv-x="1943" d="M41 275q0 88 32 241l121 550h340l-136 -600q-13 -63 -13 -101q0 -30 7.5 -52t25 -35.5t42.5 -13.5q72 0 131.5 83t88.5 207l113 512h340l-135 -600q-14 -63 -14 -101q0 -30 8 -52t25 -35.5t42 -13.5q72 0 131 81t87 205l116 516h339l-101 -458q-40 -187 -40 -254 q0 -32 4.5 -51.5t15.5 -33t33 -18.5t52.5 -5t78.5 6l-135 -637h-297l76 383q-60 20 -99 59t-60 110h-5q-44 -50 -94 -89.5t-122 -69.5t-145 -30q-40 0 -76.5 10t-71 31.5t-59 61.5t-31.5 95h-5q-71 -93 -162.5 -145.5t-193.5 -52.5q-78 0 -135 33t-88 100.5t-31 163.5z" />
<glyph unicode="&#x44a;" horiz-adv-x="1445" d="M73 1066h752l-79 -359q71 11 135 11q189 0 297 -86t108 -226q0 -102 -45.5 -183.5t-125.5 -134.5t-187 -81.5t-232 -28.5q-115 0 -237.5 21t-194.5 59l157 728h-320zM638 245q38 -13 101 -13q89 0 148 35.5t59 102.5q0 99 -162 99q-53 0 -96 -9z" />
<glyph unicode="&#x44b;" horiz-adv-x="1653" d="M-22 58l220 1008h340l-78 -359q64 11 119 11q183 0 291 -86.5t108 -225.5q0 -136 -75 -233.5t-208 -146t-312 -48.5q-103 0 -218 21t-187 59zM351 245q38 -13 96 -13q84 0 137.5 35.5t53.5 102.5q0 47 -32.5 73t-114.5 26q-50 0 -89 -9zM1021 0l236 1066h340l-236 -1066 h-340z" />
<glyph unicode="&#x44c;" horiz-adv-x="1159" d="M-22 58l220 1008h340l-78 -359q71 11 135 11q189 0 297 -86t108 -226q0 -102 -45.5 -183.5t-125.5 -134.5t-187 -81.5t-232 -28.5q-115 0 -237.5 21t-194.5 59zM351 245q38 -13 102 -13q89 0 148 35.5t59 102.5q0 99 -162 99q-53 0 -96 -9z" />
<glyph unicode="&#x44d;" horiz-adv-x="1081" d="M-11 60l61 237q62 -37 137.5 -55.5t145.5 -18.5q227 0 295 205h-400l51 225h366q-31 187 -235 187q-66 0 -120 -16t-114 -44l-68 224q72 40 166.5 64t180.5 24q125 0 223 -37.5t160 -106t94.5 -161.5t32.5 -206q0 -182 -73 -318t-210.5 -210.5t-322.5 -74.5 q-107 0 -202.5 23t-167.5 59z" />
<glyph unicode="&#x44e;" horiz-adv-x="1761" d="M-50 0l237 1066h340l-80 -363h181q32 86 85 157.5t122.5 123t156.5 80t184 28.5q214 0 343.5 -124t129.5 -338q0 -135 -44 -255t-121.5 -207.5t-189 -138.5t-240.5 -51q-191 0 -314.5 100t-148.5 278q-6 39 -6 48h-207l-88 -404h-340zM920 443q0 -198 155 -198 q99 0 167.5 105t68.5 276q0 199 -155 199q-65 0 -118.5 -46t-85.5 -134t-32 -202z" />
<glyph unicode="&#x44f;" horiz-adv-x="1139" d="M-114 13l73 280q30 -14 61 -14q35 0 61 30q13 14 40 53t53.5 66.5t61.5 44.5v4q-137 63 -137 235q0 171 138.5 275.5t388.5 104.5q101 0 223.5 -18t238.5 -53l-228 -1021h-338l80 351h-75q-35 0 -59.5 -17.5t-41.5 -49t-33.5 -66.5t-46.5 -78.5t-69 -76.5 q-84 -74 -241 -74q-86 0 -150 24zM426 694q0 -33 11.5 -56.5t39.5 -38t71 -14.5h103l59 258q-52 13 -106 13q-82 0 -130 -46t-48 -116z" />
<glyph unicode="&#x450;" horiz-adv-x="1133" d="M4 441q0 132 44.5 251t123.5 207.5t196 140.5t254 52q195 0 303.5 -98.5t108.5 -265.5q0 -117 -52 -287l-649 -11v-18q0 -85 61.5 -129t153.5 -44q73 0 140 17t152 55l91 -236q-94 -48 -204.5 -72.5t-212.5 -24.5q-127 0 -225.5 35.5t-160 99t-93 146.5t-31.5 182z M367 1528h363l108 -332h-255zM372 656l326 4q14 38 14 68q0 54 -34 83t-87 29q-50 0 -95 -24t-77 -66t-47 -94z" />
<glyph unicode="&#x451;" horiz-adv-x="1133" d="M4 441q0 132 44.5 251t123.5 207.5t196 140.5t254 52q195 0 303.5 -98.5t108.5 -265.5q0 -117 -52 -287l-649 -11v-18q0 -85 61.5 -129t153.5 -44q73 0 140 17t152 55l91 -236q-94 -48 -204.5 -72.5t-212.5 -24.5q-127 0 -225.5 35.5t-160 99t-93 146.5t-31.5 182z M311 1339q0 82 50 136.5t123 54.5q64 0 104 -38t40 -102q0 -54 -23 -98t-62.5 -68.5t-87.5 -24.5q-63 0 -103.5 38t-40.5 102zM372 656l326 4q14 38 14 68q0 54 -34 83t-87 29q-50 0 -95 -24t-77 -66t-47 -94zM759 1339q0 82 50.5 136.5t123.5 54.5q63 0 103.5 -38 t40.5 -102q0 -82 -50.5 -136.5t-123.5 -54.5q-63 0 -103.5 38t-40.5 102z" />
<glyph unicode="&#x452;" horiz-adv-x="1292" d="M-50 0l267 1203h-116l61 252h111l31 140h341l-32 -140h299l-61 -252h-297l-40 -191q-18 -93 -61 -197h5q32 46 68.5 84.5t83 72.5t103 53.5t116.5 19.5q80 0 142 -37t99 -100.5t55.5 -142.5t18.5 -170q0 -100 -17.5 -199.5t-52 -197t-89.5 -186t-125 -163.5t-163 -133 t-201 -90l-111 264q120 39 214 140.5t144 238t50 281.5q0 202 -120 202q-47 0 -90.5 -26.5t-91.5 -89.5q-85 -111 -130 -318l-71 -318h-340z" />
<glyph unicode="&#x453;" horiz-adv-x="988" d="M-34 293q0 55 16.5 102t44.5 80.5t65.5 61.5t79.5 46.5t87 35.5t87 29t79.5 26t65.5 27t44.5 31t16.5 40q0 60 -115 60t-259 -48l-72 241q188 67 382 67q100 0 178 -23t127 -65t74 -97.5t25 -122.5q0 -50 -14.5 -94t-34 -75t-56.5 -60.5t-65.5 -47t-77.5 -37t-76 -28.5 t-77 -25q-50 -15 -74 -23.5t-54.5 -22.5t-43 -28.5t-12.5 -33.5q0 -70 112 -70q157 0 306 79l98 -237q-205 -103 -438 -103q-124 0 -217.5 34.5t-147.5 106.5t-54 174zM415 1196l168 332h363l-279 -332h-252z" />
<glyph unicode="&#x454;" horiz-adv-x="1051" d="M4 460q0 100 24 192t74.5 172.5t124 140t180.5 93.5t235 34q172 0 308 -62l-62 -252q-104 62 -228 62q-108 0 -184.5 -48.5t-112.5 -138.5h417l-47 -225h-397v-4q1 -93 57.5 -147t160.5 -54q119 0 230 65l93 -219q-62 -40 -158 -65.5t-197 -25.5q-130 0 -231 37.5 t-162.5 104t-93 152.5t-31.5 188z" />
<glyph unicode="&#x455;" d="M-95 90l106 241q70 -42 147.5 -67t142.5 -25q27 0 49 3.5t40.5 11.5t29 22t10.5 33q0 21 -16 40.5t-42 35t-59.5 35t-68.5 39t-68 48.5t-59.5 62.5t-42.5 82t-16 105.5q0 69 26 128.5t76.5 106.5t131.5 73.5t183 26.5q199 0 359 -67l-54 -266q-66 30 -144 51.5t-142 21.5 q-42 0 -69 -16t-27 -50q0 -28 20.5 -52t53.5 -44.5t72.5 -42.5t79 -50.5t72.5 -63t53.5 -85.5t20.5 -112q0 -110 -58.5 -187.5t-157 -114t-227.5 -36.5q-232 0 -422 112z" />
<glyph unicode="&#x456;" horiz-adv-x="578" d="M-50 0l237 1066h340l-237 -1066h-340zM214 1370q0 95 64.5 153.5t151.5 58.5q84 0 136.5 -51t52.5 -125q0 -96 -64 -155.5t-151 -59.5q-84 0 -137 52t-53 127z" />
<glyph unicode="&#x457;" horiz-adv-x="578" d="M-50 0l237 1066h340l-237 -1066h-340zM20 1339q0 82 50 136.5t124 54.5q63 0 103.5 -38t40.5 -102q0 -82 -50 -136.5t-123 -54.5q-64 0 -104.5 38t-40.5 102zM469 1339q0 82 50 136.5t123 54.5q64 0 104 -38t40 -102q0 -82 -50 -136.5t-123 -54.5q-64 0 -104 38t-40 102z " />
<glyph unicode="&#x458;" horiz-adv-x="598" d="M-439 -488l103 269q60 -22 119 -22q137 0 172 172l252 1135h341l-266 -1201q-90 -399 -469 -399q-150 0 -252 46zM234 1370q0 95 65 153.5t152 58.5q84 0 136.5 -51t52.5 -125q0 -96 -65 -155.5t-151 -59.5q-84 0 -137 52t-53 127z" />
<glyph unicode="&#x459;" horiz-adv-x="1752" d="M-135 13l70 277q27 -8 56 -8q36 0 61.5 14.5t46.5 52.5q23 41 53.5 120.5t56 150t73.5 158.5t107 155q51 56 114 91t139.5 51.5t172.5 16.5q170 0 341 -43l-77 -339q61 6 108 6q188 0 297 -85.5t109 -224.5q0 -137 -72.5 -234t-204 -145.5t-310.5 -48.5q-102 0 -216 21 t-186 59l166 753h-15q-85 0 -142 -83q-37 -55 -77 -149t-68.5 -176.5t-70.5 -170t-83 -135.5q-52 -59 -121 -83.5t-159 -24.5q-95 0 -169 24zM971 245q38 -13 95 -13q83 0 137 39t54 103q0 45 -33 70t-111 25q-53 0 -92 -9z" />
<glyph unicode="&#x45a;" horiz-adv-x="1793" d="M-50 0l237 1066h340l-78 -354h331l78 354h341l-79 -359q81 9 108 9q187 0 296.5 -85.5t109.5 -224.5q0 -136 -74 -233.5t-206 -146t-311 -48.5q-103 0 -218 21t-187 59l76 354h-333l-91 -412h-340zM1012 245q38 -13 95 -13q83 0 137 39t54 103q0 45 -33 70t-111 25 q-53 0 -92 -9z" />
<glyph unicode="&#x45b;" horiz-adv-x="1254" d="M-50 0l267 1203h-116l61 252h111l31 140h341l-32 -140h277l-61 -252h-275l-40 -191q-18 -93 -61 -197h5q159 230 380 230q133 0 208.5 -66.5t75.5 -198.5q0 -61 -41 -234l-124 -546h-340l118 525q22 100 22 139q0 43 -21 65.5t-61 22.5q-39 0 -87 -26.5t-94 -87.5 q-89 -116 -135 -329l-69 -309h-340z" />
<glyph unicode="&#x45c;" horiz-adv-x="1186" d="M-50 0l237 1066h340l-88 -395h77q39 0 70 22t53.5 61t42 80.5t47 92.5t57.5 85q35 40 90.5 60t121.5 20q77 0 171 -26l-68 -277q-26 13 -58 13q-34 0 -61 -30q-16 -18 -43 -57t-48 -67.5t-56.5 -59.5t-73.5 -47v-5q66 -38 90 -121l127 -415h-346l-64 327q-6 29 -14 48 t-21.5 30.5t-32.5 11.5h-117l-93 -417h-340zM565 1196l170 332h362l-280 -332h-252z" />
<glyph unicode="&#x45d;" horiz-adv-x="1245" d="M41 284q0 79 32 232l121 550h340l-136 -600q-13 -57 -13 -92q0 -52 23 -81t67 -29q34 0 66 13.5t66 43.5t63.5 89t47.5 140l116 516h340l-151 -683q-27 -135 -27 -200q0 -71 20 -142l-293 -63q-11 30 -22.5 84t-15.5 91h-5q-157 -175 -349 -175q-59 0 -110 18.5t-92 54.5 t-64.5 96t-23.5 137zM374 1528h363l108 -332h-254z" />
<glyph unicode="&#x45e;" horiz-adv-x="1175" d="M-271 -475l123 247q78 -38 155 -38q29 0 56.5 7t60.5 26t65 50t69 82t73 119l-258 1048h325l86 -399q4 -21 9 -46t9.5 -46t9.5 -44t9.5 -44.5t9 -43.5t9 -45t8.5 -44h4q77 174 131 282l218 430h333l-576 -1066q-62 -113 -114 -192.5t-113.5 -147.5t-126 -108.5t-143 -63 t-172.5 -22.5q-75 0 -144.5 16t-115.5 43zM268 1575l252 59q12 -94 48 -138.5t99 -44.5q78 0 141 58.5t129 186.5l230 -110q-108 -203 -223 -288.5t-291 -85.5q-78 0 -144.5 22t-117.5 65.5t-83 114t-40 161.5z" />
<glyph unicode="&#x45f;" horiz-adv-x="1245" d="M41 284q0 79 32 232l121 550h340l-136 -600q-13 -57 -13 -92q0 -52 23 -81t67 -29q34 0 66 13.5t66 43.5t63.5 89t47.5 140l116 516h340l-151 -683q-27 -135 -27 -200q0 -71 20 -142l-293 -63q-11 30 -22.5 84t-15.5 91h-5q-157 -175 -349 -175q-59 0 -110 18.5t-92 54.5 t-64.5 96t-23.5 137zM223 -473l126 372h255l-75 -372h-306z" />
<glyph unicode="&#x462;" horiz-adv-x="1486" d="M101 1142l61 277h287l39 176h350l-38 -176h382l-105 -277h-338l-49 -222h101q216 0 340 -64q102 -52 150 -137t48 -190q0 -117 -46 -214.5t-130.5 -167.5t-210.5 -108.5t-282 -38.5h-522l249 1142h-286zM548 282h130q75 0 133.5 16.5t90.5 40.5t52 56t26.5 57t6.5 48 q0 86 -65 115q-59 25 -174 25h-120z" />
<glyph unicode="&#x463;" horiz-adv-x="1292" d="M-13 823l56 243h288l71 310h339l-70 -310h370l-102 -243h-322l-32 -150q84 15 150 15q193 0 295.5 -82.5t102.5 -218.5q0 -97 -45.5 -175.5t-125.5 -129t-187 -77.5t-232 -27q-115 0 -234.5 20.5t-198.5 59.5l169 765h-292zM482 234q44 -15 103 -15q89 0 148.5 34.5 t59.5 97.5q0 96 -153 96q-37 0 -113 -13z" />
<glyph unicode="&#x472;" horiz-adv-x="1720" d="M101 572q0 157 39 298t115 255.5t181.5 199t245 130t298.5 45.5q299 0 467 -158.5t168 -436.5q0 -156 -39 -297t-114.5 -256t-181 -198.5t-245 -129.5t-298.5 -46q-300 0 -468 158.5t-168 435.5zM462 563q0 -147 76.5 -225t224.5 -78q110 0 202 45.5t153.5 123 t95.5 181.5h-750q-2 -19 -2 -47zM512 899h741v13q0 148 -76 227.5t-224 79.5q-157 0 -270 -86.5t-171 -233.5z" />
<glyph unicode="&#x473;" horiz-adv-x="1238" d="M7 458q0 112 29.5 211.5t84.5 176.5t130 132.5t169.5 84.5t201.5 29q233 0 366 -127.5t132 -351.5q-1 -141 -47 -259.5t-127 -201t-194.5 -128.5t-246.5 -46q-234 0 -367 128t-131 352zM340 412q0 -88 46.5 -134t127.5 -46q78 0 144 50t99 144h-417v-14zM370 647h416v11 q0 89 -46.5 134.5t-126.5 45.5q-78 0 -144 -50t-99 -141z" />
<glyph unicode="&#x474;" horiz-adv-x="1591" d="M202 1485h361l120 -699q35 -202 45 -335h5q171 487 303 731q48 88 96.5 147.5t105 98t121 55.5t146.5 17q102 0 212 -32l-64 -296q-38 15 -90 15q-39 0 -73 -15t-63.5 -46t-53.5 -66.5t-53 -88.5q-95 -170 -200.5 -405t-247.5 -577h-378z" />
<glyph unicode="&#x475;" horiz-adv-x="1161" d="M73 1066h333l52 -329q29 -199 40 -325h5q98 370 193 512q113 168 318 168q109 0 194 -30l-68 -273q-31 15 -70 15q-30 0 -57.5 -16t-53 -46.5t-51.5 -77.5q-119 -205 -293 -671h-306z" />
<glyph unicode="&#x490;" horiz-adv-x="1240" d="M4 0l327 1485h665l68 312l335 93l-144 -682h-636l-265 -1208h-350z" />
<glyph unicode="&#x491;" horiz-adv-x="999" d="M-50 0l237 1066h523l74 297l315 88l-151 -681h-488l-170 -770h-340z" />
<glyph unicode="&#x2013;" horiz-adv-x="1013" d="M0 441v242h1014v-242h-1014z" />
<glyph unicode="&#x2014;" horiz-adv-x="1801" d="M0 441v242h1802v-242h-1802z" />
<glyph unicode="&#x2018;" horiz-adv-x="473" d="M178 1180q0 226 140 440l213 -64q-56 -145 -56 -277q0 -94 39 -236l-293 -93q-43 114 -43 230z" />
<glyph unicode="&#x2019;" horiz-adv-x="473" d="M167 1014q56 146 56 277q0 94 -38 237l292 92q43 -113 43 -230q0 -225 -139 -440z" />
<glyph unicode="&#x201a;" horiz-adv-x="473" d="M-110 -338q56 146 56 278q0 94 -38 236l292 92q43 -113 43 -230q0 -225 -140 -440z" />
<glyph unicode="&#x201c;" horiz-adv-x="993" d="M178 1180q0 226 140 440l213 -64q-56 -145 -56 -277q0 -94 39 -236l-293 -93q-43 114 -43 230zM698 1180q0 226 140 440l214 -64q-56 -145 -56 -277q0 -94 38 -236l-293 -93q-43 114 -43 230z" />
<glyph unicode="&#x201d;" horiz-adv-x="993" d="M167 1014q56 146 56 277q0 94 -38 237l292 92q43 -113 43 -230q0 -225 -139 -440zM688 1014q56 146 56 277q0 94 -39 237l293 92q43 -113 43 -230q0 -225 -140 -440z" />
<glyph unicode="&#x201e;" horiz-adv-x="993" d="M-110 -338q56 146 56 278q0 94 -38 236l292 92q43 -113 43 -230q0 -225 -140 -440zM410 -338q56 146 56 278q0 94 -38 236l292 92q43 -113 43 -230q0 -225 -139 -440z" />
<glyph unicode="&#x2020;" horiz-adv-x="1144" d="M73 798l71 342q52 -3 177 -22t161 -21q11 44 25 174.5t24 179.5h348q-9 -40 -33.5 -111t-46.5 -138.5t-29 -104.5q21 1 159.5 18.5t194.5 15.5l-72 -342q-53 2 -176 19.5t-160 18.5q-16 -64 -42.5 -224.5t-49.5 -269.5l-95 -450h-324l59 279q40 194 98.5 412.5 t65.5 252.5q-31 0 -165 -16t-190 -13z" />
<glyph unicode="&#x2021;" horiz-adv-x="1141" d="M-52 202l72 344q51 -3 174 -20t162 -19q6 23 15 75.5t16 81.5q5 22 11.5 47t11.5 43t10 38.5t8 34.5q-31 0 -165 -16t-190 -13l71 342q52 -3 177 -22t161 -21q12 46 25 177t22 177h345q-9 -47 -53.5 -178t-52.5 -176q20 1 159 18.5t195 15.5l-73 -342q-51 2 -174.5 19 t-160.5 19q-6 -25 -26 -144q-8 -46 -26.5 -109.5t-19.5 -66.5q31 0 165 15.5t191 13.5l-72 -342q-51 2 -176 21t-162 21q-9 -38 -17 -100t-15.5 -144.5t-9.5 -108.5h-346q7 42 28.5 111t43.5 138t29 104q-20 -1 -158 -18.5t-195 -15.5z" />
<glyph unicode="&#x2022;" horiz-adv-x="804" d="M90 714q0 133 85.5 223t213.5 90q130 0 216.5 -90t86.5 -223q0 -128 -87 -218t-216 -90q-84 0 -153 41.5t-107.5 112t-38.5 154.5z" />
<glyph unicode="&#x2026;" horiz-adv-x="2015" d="M30 142q0 86 57.5 145t140.5 59q71 0 116 -46.5t45 -119.5q0 -84 -58.5 -143t-141.5 -59q-69 0 -114 46.5t-45 117.5zM707 142q0 86 58 145t140 59q47 0 84 -21t58 -59t21 -86q0 -83 -59 -142.5t-142 -59.5q-46 0 -82.5 21t-57 58.5t-20.5 84.5zM1393 142q0 86 57.5 145 t140.5 59q70 0 115.5 -46.5t45.5 -119.5q0 -84 -58.5 -143t-141.5 -59q-69 0 -114 46.5t-45 117.5z" />
<glyph unicode="&#x2030;" horiz-adv-x="2943" d="M142 1019q0 97 29 183t84 153t141.5 106t194.5 39q69 0 125 -17t94 -46.5t63.5 -71t37 -89t11.5 -100.5q0 -97 -29.5 -183.5t-84 -153.5t-141.5 -106t-194 -39q-86 0 -151 26t-103.5 71.5t-57.5 102.5t-19 125zM333 0l1122 1485h277l-1122 -1485h-277zM404 1006 q0 -118 94 -118q37 0 66.5 23t46.5 57.5t29 77t16 77.5t4 64q0 120 -95 120q-30 0 -56 -16.5t-43 -43.5t-29.5 -59t-19.5 -67t-10 -63t-3 -52zM1142 301q0 65 13 125.5t37.5 114t63 98.5t87.5 77t112 50t136 18q85 0 150.5 -26t104 -71.5t57.5 -102.5t19 -124 q0 -98 -29.5 -184t-84 -153t-141.5 -106t-194 -39q-86 0 -151 25.5t-103.5 71t-57.5 102.5t-19 124zM1404 290q0 -118 94 -118q37 0 66.5 23t46.5 57.5t28.5 77t16 77.5t4.5 64q0 120 -95 120q-36 0 -65.5 -23.5t-47 -58t-29 -77.5t-15.5 -78t-4 -64zM2016 301 q0 98 29.5 184.5t84 153.5t141.5 106t194 39q86 0 151 -26t103.5 -71.5t57.5 -102.5t19 -124q0 -98 -29 -184t-84 -153t-141.5 -106t-194.5 -39q-38 0 -73 5.5t-64 15.5t-53.5 24.5t-44.5 32.5t-35.5 39.5t-27 45t-19 50t-11 54t-3.5 56.5zM2278 290q0 -118 95 -118 q36 0 65.5 23t47 57.5t29 77t15.5 77.5t4 64q0 120 -94 120q-37 0 -66.5 -23.5t-46.5 -58t-28.5 -77.5t-16 -78t-4.5 -64z" />
<glyph unicode="&#x2039;" horiz-adv-x="765" d="M18 557l451 459l195 -173l-297 -316l190 -322l-235 -136z" />
<glyph unicode="&#x203a;" horiz-adv-x="765" d="M-30 243l298 316l-189 322l235 135l303 -487l-450 -460z" />
<glyph unicode="&#x2044;" horiz-adv-x="449" d="M-471 0l1122 1485h277l-1122 -1485h-277z" />
<glyph unicode="&#x20ac;" horiz-adv-x="1260" d="M69 462l21 200h124v5q0 69 12 148h-125l23 201h155q59 154 166 264.5t240 165t280 54.5q193 0 331 -70l-57 -290q-121 68 -252 68q-105 0 -187.5 -50t-135.5 -142h443l-60 -201h-454q-14 -83 -14 -135v-18h453l-58 -200h-377q48 -191 239 -191q56 0 110 11.5t124 46.5 l59 -271q-65 -38 -159 -59t-184 -21q-234 0 -376.5 124.5t-181.5 359.5h-159z" />
<glyph unicode="&#x2122;" horiz-adv-x="2013" d="M124 1262v223h824l-52 -223h-240v-667h-278v667h-254zM989 595v890h236l170 -228q51 -71 101 -158h7q52 92 92 149l164 237h255v-890h-277v327q0 99 4 144h-4q-37 -69 -75 -120l-103 -142h-117l-101 142q-47 68 -75 120h-4q4 -45 4 -144v-327h-277z" />
<glyph unicode="&#x2202;" horiz-adv-x="1270" d="M73 419q2 79 19 150t46.5 129t69 107t87.5 85.5t102.5 61.5t113 37.5t119.5 12.5q113 0 210 -49l5 2q0 16 -5 47q-32 232 -266 232q-68 0 -143 -23.5t-143 -62.5l-105 232q210 120 441 120q90 0 172 -23.5t153 -73.5t122.5 -121.5t81 -174.5t29.5 -226q0 -270 -80 -473.5 t-232 -316.5t-356 -113q-215 0 -331.5 119.5t-109.5 321.5zM410 460q-5 -62 8 -109.5t48 -76.5t88 -29q61 0 110 33.5t82.5 94t55 138.5t32.5 174q-77 50 -165 50q-61 0 -110.5 -24.5t-80 -65t-47.5 -88t-21 -97.5z" />
<glyph unicode="&#x2206;" horiz-adv-x="1483" d="M-110 0l817 1492h299l288 -1492h-1404zM410 290h484l-86 584q-17 118 -19 162h-5q-19 -50 -74 -162z" />
<glyph unicode="&#x220f;" horiz-adv-x="1625" d="M-2 -406l358 1614h-199l62 277h1591l-114 -277h-211l-359 -1614h-348l357 1614h-430l-359 -1614h-348z" />
<glyph unicode="&#x2211;" horiz-adv-x="1425" d="M-142 -408l761 976l-376 917h1359l-142 -277h-701l268 -688l-513 -651h689l-61 -277h-1284z" />
<glyph unicode="&#x221a;" horiz-adv-x="1619" d="M43 817l597 170l31 -467q14 -214 14 -391h5q40 119 148 348l654 1386h369l-1061 -2138h-361l-88 883l-243 -65z" />
<glyph unicode="&#x221e;" horiz-adv-x="1729" d="M67 619.5q0 84.5 27 159.5t77 132.5t129.5 91t176.5 33.5q64 0 121 -16t104.5 -46.5t85 -64.5t77.5 -80q18 22 36 41t39 38t42.5 35t45.5 31t49.5 26t53.5 19.5t59 12.5t63 4q98 0 177 -33.5t129 -91t76.5 -132.5t26.5 -159.5t-26.5 -159t-77 -132t-129 -90.5t-176.5 -33 q-64 0 -121 16t-105 46t-86 64t-76 79q-40 -45 -78 -79t-86 -64t-104.5 -46t-119.5 -16q-97 0 -176.5 33t-129.5 90.5t-77 132t-27 159zM408 619q0 -51 32 -82.5t78 -31.5q87 0 183 114q-100 116 -183 116q-46 0 -78 -32.5t-32 -83.5zM1030 619q30 -36 57 -60t59.5 -39 t65.5 -15q23 0 43 8t35 23t23.5 36.5t8.5 46.5q0 34 -15 60.5t-40 41t-55 14.5q-48 0 -91 -30t-91 -86z" />
<glyph unicode="&#x222b;" horiz-adv-x="794" d="M-361 -458l113 262q79 -47 151 -47q67 0 104 39t56 129l248 1235q30 157 108 259q133 176 365 176q158 0 291 -79l-114 -261q-78 47 -150 47q-46 0 -76.5 -17.5t-50.5 -54t-33 -97.5l-247 -1234q-30 -156 -109 -260q-132 -175 -364 -175q-161 0 -292 78z" />
<glyph unicode="&#x2248;" horiz-adv-x="1281" d="M47 324q178 170 381 170q38 0 74.5 -7t66 -17.5t58.5 -23.5t56.5 -26t55 -24t60 -17.5t66.5 -6.5q62 0 108 19.5t106 70.5l155 -221q-176 -168 -380 -168q-39 0 -75.5 6.5t-66 17t-58 23.5t-56.5 26t-55.5 23.5t-60 17.5t-65.5 7q-62 0 -108.5 -20t-106.5 -71zM47 856 q178 169 381 169q38 0 74.5 -6.5t66 -17.5t58.5 -24t56.5 -26t55 -23.5t60 -17.5t66.5 -7q62 0 108 19.5t106 70.5l155 -221q-176 -168 -380 -168q-53 0 -102 12.5t-87.5 30t-76 35.5t-82 30.5t-89.5 12.5q-63 0 -109 -19.5t-106 -69.5z" />
<glyph unicode="&#x2260;" horiz-adv-x="1281" d="M112 165v278h312l107 226h-419v279h555l83 174h342l-82 -174h159v-279h-295l-108 -226h403v-278h-539l-89 -187h-343l90 187h-176z" />
<glyph unicode="&#x2264;" horiz-adv-x="1281" d="M112 0v279h1057v-279h-1057zM155 656v283l978 300v-278l-656 -161v-5l656 -165v-276z" />
<glyph unicode="&#x2265;" horiz-adv-x="1281" d="M112 0v279h1057v-279h-1057zM148 354v276l656 165v5l-656 161v278l978 -300v-283z" />
<glyph unicode="&#x25ca;" horiz-adv-x="1053" d="M65 651l421 651h290l177 -651l-422 -651h-288zM329 628l90 -368h5l266 413l-90 370h-5z" />
<glyph unicode="&#x25fc;" horiz-adv-x="1069" d="M0 0v1070h1070v-1070h-1070z" />
</font>
</defs>
</svg>
