<?xml version="1.0" standalone="no"?>
<!DOCTYPE svg PUBLIC "-//W3C//DTD SVG 1.1//EN" "http://www.w3.org/Graphics/SVG/1.1/DTD/svg11.dtd" >
<svg xmlns="http://www.w3.org/2000/svg">
<metadata></metadata>
<defs>
<font id="din_round_promedium" horiz-adv-x="1101" >
<font-face units-per-em="2048" ascent="1565" descent="-483" />
<missing-glyph horiz-adv-x="495" />
<glyph horiz-adv-x="0" />
<glyph horiz-adv-x="0" />
<glyph horiz-adv-x="682" />
<glyph unicode="&#xd;" horiz-adv-x="495" />
<glyph unicode=" "  horiz-adv-x="495" />
<glyph unicode="&#x09;" horiz-adv-x="495" />
<glyph unicode="&#xa0;" horiz-adv-x="495" />
<glyph unicode="!" horiz-adv-x="686" d="M245 128q0 56 39.5 95.5t95.5 39.5t95 -39.5t39 -95.5t-39 -95t-95 -39t-95.5 39t-39.5 95zM268 583v746q0 42 3 61t14 40q4 8 9.5 14.5t12.5 12t15 10t17 7.5t19.5 5t21.5 2q32 0 57 -14t38 -37q11 -21 13.5 -39t2.5 -62v-746q0 -44 -2.5 -62.5t-13.5 -39.5 q-13 -23 -38 -37t-57.5 -14t-57.5 14t-37 37q-11 21 -14 40t-3 62z" />
<glyph unicode="&#x22;" horiz-adv-x="883" d="M139 1124v218q0 63 18 96q12 22 35.5 34.5t53 12.5t53 -12.5t35.5 -34.5q10 -18 13 -37.5t3 -58.5v-218q0 -39 -3 -58.5t-13 -37.5q-12 -22 -35.5 -34t-53 -12t-53 12t-35.5 34q-18 33 -18 96zM533 1124v218q0 63 17 96q13 22 36.5 34.5t52.5 12.5q20 0 37.5 -6 t30.5 -16.5t21 -24.5q10 -18 13 -37.5t3 -58.5v-218q0 -39 -3 -58.5t-13 -37.5q-12 -22 -35.5 -34t-53 -12t-53 12t-36.5 34q-17 33 -17 96z" />
<glyph unicode="#" horiz-adv-x="1445" d="M107 522q0 55 45 81q14 9 31.5 11.5t52.5 2.5h115l54 271h-99q-60 0 -86 14q-43 25 -43 80.5t43 81.5q10 6 21.5 9t26 4t38.5 1h137l61 297q7 37 14.5 56t23.5 35q25 24 65 24q44 0 74 -29q23 -22 26 -55.5t-7 -70.5l-52 -257h280l60 297q7 37 14.5 56t23.5 35 q24 24 65 24q44 0 74 -29q23 -22 26 -55.5t-7 -70.5l-52 -257h77q36 0 53.5 -3t32.5 -11q43 -26 43 -81.5t-43 -80.5q-26 -14 -86 -14h-115l-54 -271h99q36 0 54 -2.5t32 -11.5q44 -25 44 -81t-44 -81q-26 -14 -86 -14h-137l-64 -321q-7 -37 -14.5 -56t-23.5 -35 q-23 -23 -66 -23q-44 0 -72 27q-24 23 -27 56.5t6 69.5l57 282h-280l-64 -321q-4 -25 -8.5 -39.5t-11.5 -27.5t-18 -24q-23 -23 -66 -23q-44 0 -73 27q-24 23 -26.5 56.5t7.5 69.5l55 282h-77q-59 0 -84 14q-45 26 -45 81zM557 617h278l55 271h-280z" />
<glyph unicode="$" horiz-adv-x="1222" d="M86 217q0 43 31 74q26 26 65 26q43 0 95 -36q63 -43 123 -65.5t130 -27.5v461l-28 4q-176 26 -279 120q-108 99 -108 281q0 170 102 283.5t284 140.5v69q0 60 14 86q25 44 81 44t81 -44q4 -7 7 -15t4.5 -18.5t2 -22t0.5 -30.5v-65q68 -6 127.5 -25.5t134.5 -58.5 q90 -48 90 -112q0 -39 -25 -69q-26 -31 -69 -31q-37 0 -89 31q-100 60 -197 70v-446l60 -10q100 -15 162.5 -40t110.5 -69q120 -111 120 -302q0 -177 -115.5 -289t-309.5 -137v-110q0 -18 -0.5 -30t-2 -22.5t-4.5 -18t-7 -15.5q-25 -43 -81 -43t-81 43q-14 26 -14 86v107 q-93 6 -166.5 30t-144.5 66q-40 23 -62 42t-32 40t-10 48zM332 1062q0 -93 54 -138q51 -46 144 -62v423q-96 -17 -147 -76t-51 -147zM663 190q111 14 171.5 72t60.5 152q0 103 -59 153q-53 48 -173 64v-441z" />
<glyph unicode="%" horiz-adv-x="1738" d="M119 993v210q0 131 82.5 206.5t208.5 75.5t208 -75.5t82 -206.5v-210q0 -131 -82 -205.5t-208 -74.5q-82 0 -147 32t-104.5 96.5t-39.5 151.5zM277 999q0 -147 133 -147q132 0 132 147v199q0 146 -132 146q-133 0 -133 -146v-199zM461 61q-2 25 19 67l643 1285 q20 42 42 56q19 12 37 12t36 -9q40 -20 42 -60q1 -23 -21 -68l-643 -1284q-20 -42 -41 -56q-19 -12 -38 -12q-17 0 -35 9q-40 19 -41 60zM1038 268v210q0 87 39.5 152t105 98t146.5 33q35 0 67.5 -6.5t61.5 -18.5t54 -30t45 -41.5t34 -52t21.5 -62.5t7.5 -72v-210 q0 -131 -82 -205.5t-209 -74.5q-126 0 -208.5 74.5t-82.5 205.5zM1197 274q0 -147 132 -147t132 147v199q0 146 -132 146t-132 -146v-199z" />
<glyph unicode="&#x26;" horiz-adv-x="1476" d="M141 426q0 60 17.5 113.5t43 94t67 81t78 67.5t86.5 60q-32 38 -52.5 65t-47 69t-39.5 88t-13 94q0 143 98.5 235t260.5 92q156 0 253 -93t97 -236q0 -152 -158 -260l-107 -75l310 -371q64 89 76 233q4 44 19 70q26 46 81 46q28 0 50.5 -13t34.5 -34q15 -25 15 -73 q0 -35 -12.5 -101t-29.5 -113q-38 -99 -98 -169l84 -101q29 -34 39.5 -54t10.5 -43q0 -47 -40 -81q-30 -25 -69 -25q-29 0 -51 15.5t-52 51.5l-70 83q-26 -22 -46 -37.5t-60.5 -39.5t-80 -39t-98 -26.5t-121.5 -11.5q-226 0 -351 117.5t-125 320.5zM352 430q0 -110 75 -181 t190 -71q52 0 96 10t91 36t95 70l-350 415q-39 -28 -61.5 -45t-52 -45.5t-45 -53.5t-27 -60t-11.5 -75zM495 1156q0 -29 13.5 -60.5t36.5 -63t64 -79.5l71 48q50 35 78.5 70.5t28.5 82.5q0 63 -41 105t-106 42q-67 0 -106 -40.5t-39 -104.5z" />
<glyph unicode="'" horiz-adv-x="489" d="M139 1124v218q0 63 18 96q12 22 35.5 34.5t53 12.5t53 -12.5t35.5 -34.5q10 -18 13 -37.5t3 -58.5v-218q0 -39 -3 -58.5t-13 -37.5q-12 -22 -35.5 -34t-53 -12t-53 12t-35.5 34q-18 33 -18 96z" />
<glyph unicode="(" horiz-adv-x="656" d="M181 243v988q0 76 8.5 128.5t32.5 101.5q38 76 116 156q31 31 54.5 44t48.5 13q48 0 76 -32q29 -29 29 -67q0 -30 -13.5 -53.5t-44.5 -51.5q-15 -14 -34 -39t-30 -48q-32 -62 -32 -165v-962q0 -103 32 -165q11 -23 30 -48t34 -39q21 -19 33.5 -34.5t18.5 -32.5t6 -37 q0 -39 -29 -69q-28 -31 -76 -31q-25 0 -48 13t-55 45q-79 81 -116 154q-24 49 -32.5 102t-8.5 129z" />
<glyph unicode=")" horiz-adv-x="656" d="M111 -100q0 30 13.5 53t44.5 51q14 14 33 39t30 48q33 62 33 165v962q0 103 -33 165q-11 23 -30 48t-33 39q-31 27 -44.5 51t-13.5 54q0 39 28 67q29 32 76 32q26 0 49 -13t54 -44q79 -80 116 -156q17 -33 26.5 -70t12.5 -73.5t3 -86.5v-988q0 -76 -8.5 -129t-33.5 -102 q-36 -73 -116 -154q-31 -32 -54 -45t-49 -13q-47 0 -76 31q-28 29 -28 69z" />
<glyph unicode="*" horiz-adv-x="985" d="M148 957q13 22 55 46l144 87l-144 87q-42 24 -55 45q-18 35 4 73t62 36q26 -1 67 -25l137 -83v161q0 49 11 68q20 36 64 36q45 0 65 -36q11 -19 11 -68v-161l137 83q41 24 67 25q40 2 62 -36q21 -37 2 -73q-13 -22 -53 -45l-145 -87l145 -87q40 -23 53 -46q19 -35 -2 -71 q-22 -38 -62 -37q-28 2 -67 25l-137 82v-160q0 -48 -11 -68q-20 -35 -65 -35q-44 0 -64 35q-11 20 -11 68v160l-137 -82q-39 -23 -67 -25q-40 -1 -62 37q-21 37 -4 71z" />
<glyph unicode="+" d="M97 573.5q0 55.5 43 80.5q26 16 86 16h231v229q0 60 14 86q25 43 80.5 43t80.5 -43q9 -15 11.5 -32.5t2.5 -53.5v-229h230q60 0 86 -16q43 -25 43 -80.5t-43 -80.5q-26 -14 -86 -14h-230v-230q0 -35 -2.5 -53t-11.5 -32q-25 -44 -80.5 -44t-80.5 44q-14 25 -14 85v230 h-231q-60 0 -86 14q-43 25 -43 80.5z" />
<glyph unicode="," horiz-adv-x="535" d="M73 -181q-5 34 14 94l91 273q20 62 45 85q28 24 64 24q35 0 68 -21t39 -61q5 -33 -14 -94l-91 -274q-20 -62 -46 -84q-26 -24 -63 -24q-36 0 -68.5 21.5t-38.5 60.5z" />
<glyph unicode="-" horiz-adv-x="882" d="M131 573.5q0 55.5 44 80.5q25 16 86 16h361q61 0 86 -16q43 -25 43 -80.5t-43 -80.5q-26 -14 -86 -14h-361q-61 0 -86 14q-44 25 -44 80.5z" />
<glyph unicode="." horiz-adv-x="576" d="M137 144q0 62 45 106t107 44t106 -44t44 -106t-44 -106t-106 -44t-107 44t-45 106z" />
<glyph unicode="/" horiz-adv-x="786" d="M28 -65.5q2 20.5 5 33t10 35.5l511 1530q17 51 38 76t64 25q35 0 63.5 -19t35.5 -44q3 -10 4 -20t0.5 -18.5t-3.5 -21t-5.5 -20t-7.5 -21.5l-511 -1530q-16 -50 -37 -76t-65 -26q-34 0 -62 19.5t-36 44.5q-6 12 -4 32.5z" />
<glyph unicode="0" d="M126 410v654q0 96 33.5 176t91.5 133t135 82.5t164 29.5q89 0 166.5 -29.5t135.5 -82.5t91.5 -133t33.5 -176v-654q0 -96 -33.5 -176.5t-91.5 -133.5t-135.5 -82.5t-166.5 -29.5q-87 0 -164 29.5t-135 82.5t-91.5 133.5t-33.5 176.5zM337 418q0 -70 25.5 -124.5t74 -85 t113.5 -30.5q100 0 158 66.5t58 173.5v636q0 107 -58 174t-158 67q-97 0 -155 -67t-58 -174v-636z" />
<glyph unicode="1" d="M186 1080q4 17 15 32.5t38 41.5l270 270q57 57 115 57q50 0 80 -31q19 -20 25 -46t6 -65v-1204q0 -37 -3 -56t-12 -38q-25 -49 -90 -49t-90 49q-9 20 -12.5 39t-3.5 55v1025l-145 -145q-28 -27 -42.5 -38t-31.5 -15q-51 -14 -92 28q-40 40 -27 90z" />
<glyph unicode="2" d="M121 104q0 16 3.5 30t11.5 29t17.5 28t26.5 34l493 617q51 66 75.5 121.5t24.5 124.5q0 92 -56.5 149.5t-156.5 57.5q-82 0 -136.5 -39.5t-84.5 -129.5q-16 -49 -41 -73q-21 -21 -65 -21q-50 0 -74 34q-26 32 -26 74q0 56 31.5 123.5t86.5 117.5q118 104 305 104 q196 0 312.5 -104t116.5 -289q0 -56 -9.5 -102t-31.5 -89.5t-45.5 -78t-63.5 -84.5l-437 -548h468q35 0 53 -3t32 -11q44 -23 44 -81t-44 -81q-25 -14 -85 -14h-596q-48 0 -74.5 5.5t-47.5 25.5q-27 29 -27 73z" />
<glyph unicode="3" d="M104 317q0 49 33 82q33 32 79 32q40 0 63 -29q9 -12 23.5 -51t26.5 -63q55 -110 208 -110q106 0 173.5 64.5t67.5 178.5q0 113 -61 175.5t-177 65.5q-43 1 -66 15q-43 22 -43 76q0 56 43 78q25 15 66 15q105 3 163 62t58 164q0 104 -61.5 163.5t-159.5 59.5 q-56 0 -96 -15.5t-67 -48t-45 -85.5q-16 -49 -42 -72q-25 -21 -58 -21q-42 0 -74 30q-34 30 -34 81q0 47 22 94t56 85q124 142 338 142q124 0 221 -47t154.5 -140t57.5 -217q0 -228 -191 -319q97 -40 152 -126.5t55 -218.5q0 -103 -36 -186t-98.5 -135.5t-144 -80 t-174.5 -27.5q-110 0 -200.5 35.5t-150.5 102.5q-35 40 -58 90.5t-23 100.5z" />
<glyph unicode="4" d="M47 332q0 30 29 88l485 972q28 55 53 74q21 15 50 15q38 0 69 -27.5t31 -65.5q0 -28 -28 -84l-438 -879h332v215q0 38 3 56.5t12 37.5q25 50 90 50t90 -50q10 -19 13 -38t3 -56v-215h70q37 0 55.5 -2.5t35.5 -11.5q45 -25 45 -84.5t-45 -85.5q-29 -15 -91 -15h-70v-91 q0 -36 -3 -55t-13 -39q-25 -49 -90 -49t-90 49q-9 19 -12 38t-3 56v91h-437q-40 0 -64.5 6t-43.5 22q-38 26 -38 78z" />
<glyph unicode="5" d="M137 312q0 50 30 81q27 30 74 30q42 0 66 -22q14 -14 24 -32.5t24 -59.5q42 -131 198 -131q102 0 159 56q42 42 55.5 105t13.5 153q0 55 -6 99t-21 84.5t-39 67.5t-62 43t-88 16q-68 0 -112.5 -19.5t-83.5 -68.5q-18 -22 -43 -37q-22 -15 -59 -15q-46 0 -74 28 q-29 26 -29 91v571v23.5t2.5 22.5t8.5 26.5t16 21.5q13 13 30.5 19t28 7t33.5 1h553q36 0 54 -3t32 -12q44 -25 44 -80.5t-44 -80.5q-26 -14 -86 -14h-481v-386q85 86 244 86q170 0 265 -95q27 -27 48 -58t34.5 -64t23 -65.5t14 -69.5t6.5 -69t2 -70q0 -133 -25.5 -224 t-99.5 -166q-115 -114 -314 -114q-100 0 -174 24t-135 78q-47 43 -77 102t-30 120z" />
<glyph unicode="6" d="M117 428q0 81 26.5 164.5t76.5 185.5l307 614q28 55 54 74q21 15 50 15q38 0 68.5 -27.5t30.5 -65.5q0 -28 -27 -84l-232 -465q56 24 130 24q80 0 150.5 -31t123 -85.5t83 -135t30.5 -175.5q0 -133 -55.5 -235.5t-154 -157.5t-225.5 -55t-225.5 52.5t-154.5 153 t-56 234.5zM328 432q0 -117 61.5 -185.5t161.5 -68.5q101 0 163.5 69t62.5 185q0 111 -61 183t-165 72q-66 0 -116 -30t-78.5 -88t-28.5 -137z" />
<glyph unicode="7" d="M128 1189v154q0 17 0.5 26t3.5 23.5t9.5 26.5t17 23t23 17.5t27 9t23.5 3.5t26 1h613q47 0 72.5 -6t46.5 -25q31 -27 31 -75q0 -27 -24 -92l-444 -1184q-21 -60 -44 -80q-22 -19 -56 -19q-36 0 -67.5 22.5t-36.5 56.5q-3 30 19 90l420 1122h-449v-94q0 -38 -3 -57 t-12 -38q-5 -11 -13.5 -20t-20 -15.5t-26 -10.5t-31.5 -4q-65 0 -90 50q-6 13 -9 25t-4.5 28t-1.5 42z" />
<glyph unicode="8" d="M97 416q0 63 16.5 118.5t46.5 97.5t64.5 73.5t75.5 56.5q-79 47 -128.5 127t-49.5 189q0 120 57 213.5t154 143.5t217.5 50t218 -50t155 -143.5t57.5 -213.5q0 -109 -49.5 -189t-128.5 -127q41 -25 75.5 -56.5t64 -73.5t46 -97.5t16.5 -118.5q0 -98 -35.5 -179 t-97 -135.5t-144.5 -84t-177.5 -29.5t-177.5 29.5t-144 84t-96.5 135.5t-35.5 179zM308 422q0 -68 32.5 -124t88.5 -88t122 -32q102 0 172 70.5t70 173.5t-70 173t-171.5 70t-172.5 -70t-71 -173zM332 1072q0 -96 62 -159.5t157 -63.5t157.5 62.5t62.5 160.5q0 63 -28 114 t-78.5 80t-113.5 29q-95 0 -157 -63.5t-62 -159.5z" />
<glyph unicode="9" d="M115 1036q0 134 55.5 236t154 157.5t224.5 55.5q128 0 226.5 -53t154.5 -153.5t56 -234.5q0 -55 -14 -115.5t-35.5 -113.5t-54.5 -120l-307 -614q-28 -55 -54 -74q-21 -15 -49 -15q-39 0 -69 27t-30 66q0 30 26 84l233 464q-56 -23 -130 -23q-80 0 -150.5 30.5t-123 85 t-83 135t-30.5 175.5zM326 1040q0 -111 61 -182.5t164 -71.5q101 0 162.5 68t61.5 186q0 117 -61.5 186t-162.5 69q-100 0 -162.5 -69t-62.5 -186z" />
<glyph unicode=":" horiz-adv-x="628" d="M190 144q0 62 44.5 106t107 44t106.5 -44t44 -106t-44.5 -106t-106.5 -44t-106.5 44t-44.5 106zM190 719q0 62 44.5 105.5t107 43.5t106.5 -43.5t44 -105.5q0 -30 -12 -58t-32 -48.5t-48 -32.5t-59 -12q-62 0 -106.5 44.5t-44.5 106.5z" />
<glyph unicode=";" horiz-adv-x="628" d="M153 -181q-6 34 14 94l91 273q20 62 45 85q27 24 63 24q35 0 68 -21t40 -61q5 -33 -14 -94l-91 -274q-20 -61 -47 -84q-26 -24 -62 -24t-68.5 21.5t-38.5 60.5zM219 718q0 41 20.5 75t55.5 54t76 20q62 0 106 -43.5t44 -105.5q0 -41 -20 -75.5t-55 -55t-75 -20.5 q-62 0 -107 44.5t-45 106.5z" />
<glyph unicode="&#x3c;" d="M157 574q0 26 8 46t26.5 36t33 25t42.5 23l484 242q56 28 84 28q19 0 37 -9t30 -23t19.5 -32t7.5 -36q0 -27 -16 -50q-19 -25 -74 -53l-393 -197l393 -196q55 -28 74 -54q16 -22 16 -50q0 -38 -27.5 -68.5t-66.5 -30.5q-28 0 -84 27l-484 241q-23 12 -34.5 18.5t-28.5 19 t-25.5 24t-15 29.5t-6.5 40z" />
<glyph unicode="=" d="M97 370q0 54 43 79q26 16 86 16h650q60 0 86 -16q43 -25 43 -79q0 -56 -43 -81q-28 -15 -86 -15h-650q-58 0 -86 15q-43 25 -43 81zM97 777.5q0 55.5 43 80.5q15 9 32.5 12t53.5 3h650q24 0 38 -1t25.5 -4t22.5 -10q43 -25 43 -80.5t-43 -80.5q-26 -14 -86 -14h-650 q-60 0 -86 14q-43 25 -43 80.5z" />
<glyph unicode="&#x3e;" d="M174 274q0 29 15 50q19 26 74 54l392 196l-392 197q-55 28 -74 53q-15 21 -15 50q0 38 27 69t66 31q28 0 83 -28l485 -242q29 -15 43 -23.5t33 -24.5t27 -36t8 -46.5t-8 -46.5t-27 -36t-33 -24.5t-43 -23.5l-485 -241q-55 -27 -83 -27q-39 0 -66 30t-27 69z" />
<glyph unicode="?" horiz-adv-x="1055" d="M152 1131q0 59 29 125.5t82 117.5q117 111 297 111q114 0 208 -47.5t149.5 -137t55.5 -204.5q0 -52 -13.5 -98t-32.5 -79t-52 -80l-142 -195q-25 -34 -35 -62.5t-16 -70.5t-31 -70q-28 -31 -79 -31q-50 0 -80 33q-26 30 -26 80q0 58 14 99t55 97l162 217q15 21 25.5 37 t19.5 36t14 41.5t5 45.5q0 86 -56.5 143t-143.5 57q-91 0 -148 -57q-39 -39 -61 -122q-11 -45 -28 -64q-27 -30 -77 -30q-44 0 -71 30q-24 28 -24 78zM436 128q0 56 39.5 95.5t95.5 39.5t95 -39.5t39 -95.5t-39 -95t-95 -39t-95.5 39t-39.5 95z" />
<glyph unicode="@" horiz-adv-x="1523" d="M132 338v657q0 238 123 361q63 65 149.5 93.5t204.5 28.5h306q234 0 354 -122q122 -123 122 -361v-860q0 -37 -3 -56t-12 -38q-25 -49 -90 -49q-48 0 -75 27q-26 26 -28 80q-56 -62 -117.5 -86.5t-143.5 -24.5q-76 0 -139 23.5t-105 65.5q-68 67 -92 165.5t-24 241.5 t24 242t92 167q42 42 105 65.5t138 23.5q84 0 148 -26.5t117 -89.5l1 121q0 78 -16 128.5t-60 94.5q-42 42 -94.5 60t-122.5 18h-264q-46 0 -83 -7t-71 -24.5t-63 -46.5q-44 -44 -60 -94.5t-16 -128.5v-640q0 -75 13.5 -111t51.5 -77q23 -26 31 -43t8 -38q0 -45 -35 -77 q-33 -27 -70 -27q-29 0 -50 15t-52 48q-55 61 -78.5 125.5t-23.5 175.5zM767 483.5q0 -57.5 4.5 -101.5t18.5 -86.5t37 -69.5t60.5 -43.5t88 -16.5t88.5 16.5t61 44t37 69t19.5 86.5t5.5 102t-5.5 102t-19.5 87.5t-37 70t-61 44.5t-88.5 17t-88 -17t-60.5 -44.5t-37 -70 t-18.5 -87.5t-4.5 -102.5z" />
<glyph unicode="A" horiz-adv-x="1287" d="M48 94q2 20 6 36.5t14 42.5l450 1201q19 52 45 76q33 31 81.5 31t81.5 -31q26 -24 45 -76l450 -1201q13 -33 18 -55q2 -11 2.5 -22.5t-2.5 -24.5q-5 -25 -25 -46q-32 -33 -82 -33q-34 0 -60 21q-15 12 -25 29.5t-24 55.5l-74 198h-610l-73 -198q-14 -38 -24 -55.5 t-25 -29.5q-26 -21 -60 -21q-51 0 -82 33q-17 16 -23 33q-5 14 -5 29q1 3 1 7zM408 486h472l-236 644z" />
<glyph unicode="B" horiz-adv-x="1370" d="M191 136v1200q0 23 1 36t8.5 33t22.5 35t35.5 22.5t33.5 9t36 1.5h437q101 0 184 -28.5t140.5 -80t88.5 -127t31 -167.5q0 -113 -59 -196.5t-140 -115.5q45 -18 83.5 -47.5t70.5 -70.5t50 -99t18 -125q0 -132 -57.5 -227t-157 -142t-230.5 -47h-459q-23 0 -36 1 t-33.5 8.5t-35.5 22.5t-22.5 35.5t-8.5 33.5t-1 35zM415 199h352q113 0 177 63t64 164q0 66 -27.5 116t-82.5 79t-131 29h-352v-451zM415 849h330q109 0 175 56t66 157q0 67 -30.5 115.5t-84.5 73t-126 24.5h-330v-426z" />
<glyph unicode="C" horiz-adv-x="1295" d="M139 736.5q0 77.5 1 124t4 104t9 93.5t16.5 78t26.5 73t38.5 63.5t53.5 62.5q149 150 379 150q68 0 125 -10t103.5 -30t84.5 -47.5t72 -64.5q57 -61 85.5 -126t28.5 -111q0 -54 -31 -84q-33 -30 -77 -30q-40 0 -66 21q-28 21 -55 84q-41 98 -107.5 149t-166.5 51 q-127 0 -213 -92q-56 -61 -71.5 -150t-15.5 -309t15.5 -309t71.5 -149q86 -92 213 -92q100 0 166.5 50.5t107.5 149.5q27 63 55 84q26 21 66 21q44 0 77 -30q31 -31 31 -84q0 -46 -28.5 -111t-85.5 -127q-71 -75 -161.5 -113t-223.5 -38q-230 0 -379 149q-31 31 -53.5 63 t-38.5 63t-26.5 73.5t-16.5 78.5t-9 93.5t-4 104t-1 124z" />
<glyph unicode="D" horiz-adv-x="1376" d="M191 136v1200q0 23 1 36t8.5 33t22.5 35t35.5 22.5t33.5 9t36 1.5h381q273 0 420 -187q26 -33 44 -67.5t30 -77t19 -81t10.5 -96t4.5 -105t1 -123.5q0 -89 -1.5 -146t-7.5 -121.5t-18 -109t-32.5 -90t-51.5 -84.5q-73 -95 -176 -140t-242 -45h-381q-23 0 -36 1t-33.5 8.5 t-35.5 22.5t-22.5 35.5t-8.5 33.5t-1 35zM415 199h269q167 0 253 100q51 57 64.5 152t13.5 285q0 97 -2 151.5t-9 115.5t-23.5 100.5t-43.5 70.5q-86 101 -253 101h-269v-1076z" />
<glyph unicode="E" horiz-adv-x="1243" d="M191 136v1200q0 23 1 36t8.5 33t22.5 35t35.5 22.5t33.5 9t36 1.5h678q37 0 55.5 -3t35.5 -12q46 -25 46 -84t-46 -85q-17 -9 -35.5 -11.5t-55.5 -2.5h-591v-433h486q62 0 91 -15q45 -25 45 -84.5t-45 -84.5q-9 -5 -17.5 -8t-19.5 -4.5t-23 -2t-31 -0.5h-486v-444h591 q62 0 91 -15q46 -26 46 -85t-46 -85q-17 -9 -35.5 -11.5t-55.5 -2.5h-678q-23 0 -36 1t-33.5 8.5t-35.5 22.5t-22.5 35.5t-8.5 33.5t-1 35z" />
<glyph unicode="F" horiz-adv-x="1207" d="M191 143v1193q0 23 1 36t8.5 33t22.5 35t35.5 22.5t33.5 9t36 1.5h678q37 0 55.5 -3t35.5 -12q46 -25 46 -84t-46 -85q-17 -9 -35.5 -11.5t-55.5 -2.5h-591v-453h486q37 0 55.5 -2.5t35.5 -11.5q45 -25 45 -84.5t-45 -85.5q-29 -15 -91 -15h-486v-480q0 -42 -3 -60.5 t-14 -40.5q-12 -23 -37 -36.5t-58 -13.5t-58 13.5t-37 36.5q-11 22 -14 40.5t-3 60.5z" />
<glyph unicode="G" horiz-adv-x="1325" d="M139 736.5q0 77.5 1 124t4 104t9 93.5t16.5 78t26.5 73t38.5 63.5t53.5 62.5q149 150 379 150q68 0 125 -10t103.5 -30t84.5 -47.5t72 -64.5q57 -61 85.5 -126t28.5 -111q0 -54 -31 -84q-33 -30 -77 -30q-40 0 -66 21q-28 21 -55 84q-41 98 -107.5 149t-166.5 51 q-127 0 -213 -92q-56 -61 -71.5 -150t-15.5 -309q0 -223 16 -312t70 -146q86 -92 221 -92q129 0 218 89q50 51 67 117t17 188h-187q-62 0 -91 15q-46 25 -46 84.5t46 85.5q17 8 35.5 11t55.5 3h264q23 0 36.5 -1t33.5 -9t35 -23t23 -35t9 -33t1 -36v-22q0 -188 -28.5 -292.5 t-112.5 -188.5q-51 -51 -108 -84.5t-123.5 -50t-144.5 -16.5q-233 0 -382 149q-31 31 -53.5 63t-38.5 63t-26.5 73.5t-16.5 78.5t-9 93.5t-4 104t-1 124z" />
<glyph unicode="H" horiz-adv-x="1427" d="M191 143v1186q0 42 3 61t14 40q12 23 37 37t58 14t58 -14t37 -37q11 -21 14 -40t3 -61v-486h597v486q0 29 1 44.5t4.5 28.5t11.5 28q13 23 37.5 37t57.5 14t58 -14t37 -37q11 -21 14 -40t3 -61v-1186q0 -42 -3 -60.5t-14 -40.5q-12 -23 -37 -36.5t-58 -13.5t-57.5 13.5 t-37.5 36.5q-11 22 -14 40.5t-3 60.5v501h-597v-501q0 -42 -3 -60.5t-14 -40.5q-12 -23 -37 -36.5t-58 -13.5t-58 13.5t-37 36.5q-11 22 -14 40.5t-3 60.5z" />
<glyph unicode="I" horiz-adv-x="606" d="M191 143v1186q0 42 3 61t14 40q12 23 37 37t58 14t58 -14t37 -37q11 -21 14 -40t3 -61v-1186q0 -42 -3 -60.5t-14 -40.5q-12 -23 -37 -36.5t-58 -13.5t-58 13.5t-37 36.5q-11 22 -14 40.5t-3 60.5z" />
<glyph unicode="J" horiz-adv-x="1046" d="M52 164q0 41 30 71q28 27 62 27q35 0 85 -31q72 -45 159 -45q127 0 196.5 76t69.5 222v845q0 42 3.5 61t14.5 40q12 23 37 37t57.5 14t57.5 -14t38 -37q7 -14 10.5 -27.5t4.5 -28t1 -45.5v-863q0 -112 -38.5 -203t-105 -150.5t-155.5 -92t-191 -32.5q-167 0 -284 84 q-52 39 -52 92z" />
<glyph unicode="K" horiz-adv-x="1338" d="M191 143v1186q0 42 3 61t14 40q12 23 37 37t58 14t58 -14t37 -37q11 -21 14 -40t3 -61v-592l558 677q20 24 33.5 37t31 21.5t37.5 8.5q39 0 69 -26q40 -33 40 -80q0 -23 -10.5 -42.5t-39.5 -53.5l-313 -379l403 -709q21 -35 28 -53t7 -43q0 -55 -54 -88q-25 -15 -60 -15 q-38 0 -61 22t-50 69l-368 648l-251 -302v-286q0 -42 -3 -60.5t-14 -40.5q-12 -23 -37 -36.5t-58 -13.5t-58 13.5t-37 36.5q-11 22 -14 40.5t-3 60.5z" />
<glyph unicode="L" horiz-adv-x="1183" d="M191 136v1193q0 42 3 61t14 40q12 23 37 37t58 14t58 -14t37 -37q11 -21 14 -40t3 -61v-1130h581q62 0 91 -15q45 -25 45 -85t-45 -85q-17 -9 -35.5 -11.5t-55.5 -2.5h-668q-23 0 -36 1t-33.5 8.5t-35.5 22.5t-22.5 35.5t-8.5 33.5t-1 35z" />
<glyph unicode="M" horiz-adv-x="1681" d="M191 143v1200q0 71 33 105q33 33 82 33q39 0 64 -14q13 -8 28.5 -27t25.5 -41l418 -852l415 852q11 22 26.5 41t28.5 27q25 14 64 14q49 0 81 -33q34 -34 34 -105v-1200q0 -42 -3 -60.5t-14 -40.5q-13 -23 -38 -36.5t-57.5 -13.5t-57.5 13.5t-37 36.5q-11 22 -14 40.5 t-3 60.5v842l-312 -652q-13 -27 -27.5 -44.5t-36 -28t-49.5 -10.5q-41 0 -67.5 20.5t-47.5 62.5l-312 652v-842q0 -42 -3 -60.5t-14 -40.5q-12 -23 -37 -36.5t-58 -13.5t-58 13.5t-37 36.5q-11 22 -14 40.5t-3 60.5z" />
<glyph unicode="N" horiz-adv-x="1491" d="M191 143v1195q0 76 32 108q35 35 85 35q38 0 66.5 -23t63.5 -75l640 -945v891q0 44 2.5 62t13.5 39q12 23 37.5 37t58 14t57.5 -14t38 -37q11 -21 13.5 -39t2.5 -62v-1196q0 -73 -32 -106q-36 -35 -85 -35q-38 0 -66.5 22.5t-64.5 75.5l-638 944v-891q0 -42 -3 -60.5 t-14 -40.5q-12 -23 -37 -36.5t-58 -13.5t-58 13.5t-37 36.5q-11 22 -14 40.5t-3 60.5z" />
<glyph unicode="O" horiz-adv-x="1338" d="M139 736.5q0 77.5 1 124t4 104t9 93.5t16.5 78t26.5 73t38.5 63.5t53.5 62.5q149 150 382 150q230 0 379 -150q36 -35 61 -70.5t41.5 -80t26 -85t14 -103.5t6.5 -116.5t1.5 -143.5t-2 -143t-6 -116.5t-14 -103.5t-26 -84.5t-41.5 -80t-61 -71.5q-149 -149 -379 -149 q-233 0 -382 149q-31 31 -53.5 63t-38.5 63t-26.5 73.5t-16.5 78.5t-9 93.5t-4 104t-1 124zM363 736q0 -223 16 -311.5t70 -145.5q87 -93 221 -93q131 0 219 93q54 57 70.5 146t16.5 311q0 153 -7 234.5t-25 133t-55 91.5q-87 92 -219 92q-135 0 -221 -92 q-54 -57 -70 -146.5t-16 -312.5z" />
<glyph unicode="P" horiz-adv-x="1299" d="M191 143v1193q0 23 1 36t8.5 33t22.5 35t35.5 22.5t33.5 9t36 1.5h421q106 0 195 -34t149.5 -93.5t94 -141.5t33.5 -177.5t-33.5 -178t-94 -141.5t-149.5 -92.5t-195 -33.5h-334v-438q0 -42 -3 -60.5t-14 -40.5q-12 -23 -37 -36.5t-58 -13.5t-58 13.5t-37 36.5 q-11 22 -14 40.5t-3 60.5zM415 780h322q79 0 137.5 29t91 84.5t32.5 132.5q0 78 -32.5 134.5t-91 85.5t-137.5 29h-322v-495z" />
<glyph unicode="Q" horiz-adv-x="1338" d="M139 736.5q0 77.5 1 124t4 104t9 93.5t16.5 78t26.5 73t38.5 63.5t53.5 62.5q149 150 382 150q230 0 379 -150q36 -35 61 -70.5t41.5 -80t26 -85t14 -103.5t6 -116.5t1.5 -143.5q0 -94 -1 -147t-6 -117.5t-15 -106t-28 -85t-45 -80.5l74 -75q24 -24 33 -36.5t13 -28.5 q3 -11 3 -22q0 -32 -27 -58q-28 -28 -60 -28q-10 0 -21 3q-16 4 -29 13t-37 33l-75 77q-131 -90 -308 -90q-233 0 -382 149q-31 31 -53.5 63t-38.5 63t-26.5 73.5t-16.5 78.5t-9 93.5t-4 104t-1 124zM363 736q0 -223 16 -311.5t70 -145.5q87 -93 221 -93q87 0 150 48 l-99 101q-25 24 -34 36.5t-13 28.5q-3 11 -3 22q0 32 27 59q28 28 61 28q10 0 20 -3q11 -3 20 -8t19 -13.5t26 -24.5l88 -88q27 53 35.5 131.5t8.5 232.5q0 153 -7 234.5t-25 133t-55 91.5q-87 92 -219 92q-135 0 -221 -92q-54 -57 -70 -146.5t-16 -312.5z" />
<glyph unicode="R" horiz-adv-x="1357" d="M191 143v1193q0 23 1 36t8.5 33t22.5 35t35.5 22.5t33.5 9t36 1.5h435q102 0 188 -32.5t144.5 -89t91 -136t32.5 -173.5q0 -151 -80.5 -252.5t-210.5 -138.5l264 -460q20 -35 26 -53q8 -22 8 -43q0 -55 -54 -88q-25 -15 -60 -15q-38 0 -61.5 22t-49.5 69l-307 537h-279 v-477q0 -42 -3 -60.5t-14 -40.5q-12 -23 -37 -36.5t-58 -13.5t-58 13.5t-37 36.5q-11 22 -14 40.5t-3 60.5zM415 811h330q113 0 182 61t69 168q0 108 -69 171.5t-182 63.5h-330v-464z" />
<glyph unicode="S" horiz-adv-x="1222" d="M86 217q0 43 31 74q26 26 65 26q43 0 95 -36q74 -52 146 -73.5t168 -21.5q146 0 225 59.5t79 168.5q0 103 -59 153q-54 48 -159 62l-175 24q-176 26 -279 120q-108 99 -108 281q0 195 132.5 313t359.5 118q70 0 125.5 -9t107 -27t113.5 -51q90 -48 90 -112q0 -39 -25 -69 q-26 -31 -69 -31q-37 0 -89 31q-66 40 -125 56.5t-136 16.5q-127 0 -197 -62.5t-70 -165.5q0 -93 54 -138q29 -26 66 -41.5t95 -24.5l176 -27q100 -15 162.5 -40t110.5 -69q120 -111 120 -302q0 -133 -67.5 -231.5t-187 -149.5t-274.5 -51q-129 0 -220.5 24t-176.5 75 q-40 23 -62 42t-32 40t-10 48z" />
<glyph unicode="T" horiz-adv-x="1153" d="M52 1373.5q0 59.5 45 84.5q12 6 24 9.5t27 4.5t40 1h778q64 0 91 -15q46 -25 46 -84.5t-46 -84.5q-27 -14 -91 -14h-277v-1132q0 -43 -2.5 -61.5t-13.5 -39.5q-13 -23 -38.5 -36.5t-58 -13.5t-57.5 13.5t-37 36.5q-11 21 -13.5 39.5t-2.5 61.5v1132h-278q-37 0 -55.5 2.5 t-35.5 11.5q-45 25 -45 84.5z" />
<glyph unicode="U" horiz-adv-x="1391" d="M169 497v832q0 44 2.5 62t13.5 39q12 23 37.5 37t58 14t57.5 -14t38 -37q11 -21 13.5 -39t2.5 -62v-822q0 -148 82.5 -234.5t221 -86.5t221.5 86.5t83 234.5v822q0 22 0.5 35t2.5 25t5 21t9 20q8 15 22 26.5t32.5 18t40.5 6.5q33 0 58 -14t37 -37q8 -14 11 -27.5t4 -28 t1 -45.5v-832q0 -149 -69 -266t-189 -180t-269 -63t-269 63t-189 180t-69 266z" />
<glyph unicode="V" horiz-adv-x="1149" d="M39 1399q7 39 39.5 60.5t67.5 21.5q38 0 64 -24q25 -22 46 -84l319 -983l320 983q20 62 45 84q27 24 63 24q35 0 68.5 -21.5t39.5 -60.5q1 -6 1 -14q0 -30 -16 -80l-399 -1200q-21 -63 -46 -85q-29 -28 -76 -28q-46 0 -76 28q-25 22 -46 85l-399 1200q-16 48 -16 79 q0 8 1 15z" />
<glyph unicode="W" horiz-adv-x="1788" d="M61 1370q-1 6 -1 12q0 13 3 27q7 31 37.5 51.5t66.5 20.5q45 0 71 -29q13 -14 20 -31.5t17 -56.5l236 -948l269 963q14 50 38 74q28 27 77 27t77 -27q23 -23 37 -74l270 -963l235 948q9 38 16.5 56t20.5 32q27 29 72 29q36 0 66 -20.5t37 -51.5q2 -9 2 -22q0 -29 -11 -75 l-298 -1195q-8 -33 -20 -57t-31 -41q-35 -27 -80 -27t-80 27q-32 28 -52 98l-261 932l-262 -932q-9 -34 -21 -58t-31 -40q-35 -27 -79 -27q-45 0 -80 27q-34 29 -51 98l-298 1195q-10 40 -12 58z" />
<glyph unicode="X" horiz-adv-x="1151" d="M87 138q7 18 27 53l324 565l-302 526q-20 35 -27 53t-8 39v4q0 54 56 88q24 15 59 15q26 0 47.5 -13.5t34 -30t29.5 -47.5l249 -446l249 446q27 46 50 68.5t61 22.5q35 0 60 -15q54 -33 54 -88v-4q0 -21 -7 -39.5t-27 -52.5l-302 -524l324 -567q21 -35 28 -53t8 -39v-2 q0 -57 -55 -90q-25 -15 -61 -15q-37 0 -60 22t-50 69l-272 483l-272 -483q-26 -47 -49.5 -69t-61.5 -22q-35 0 -60 15q-54 33 -54 88q0 22 8 43z" />
<glyph unicode="Y" horiz-adv-x="1081" d="M45 1386q1 25 16 47t42 36q24 12 54 12q27 0 50 -15q16 -11 25.5 -25.5t29.5 -52.5l279 -560l279 560q19 38 29 52.5t26 25.5q22 15 50 15q29 0 54 -12q13 -7 24 -16.5t18 -20t11 -22.5t4 -24v-6q0 -18 -5 -34q-6 -18 -23 -52l-356 -707v-444q0 -43 -2.5 -61.5 t-13.5 -39.5q-12 -23 -37 -36.5t-57.5 -13.5t-58 13.5t-38.5 36.5q-10 21 -13 39.5t-3 61.5v444l-355 707q-18 34 -23.5 52.5t-5.5 39.5z" />
<glyph unicode="Z" horiz-adv-x="1152" d="M90 115q0 38 38 99l652 1061h-524q-38 0 -56.5 2.5t-34.5 11.5q-46 25 -46 84.5t46 84.5q11 6 23.5 9.5t27 4.5t40.5 1h649q43 0 70.5 -6.5t47.5 -27.5q33 -33 33 -81q0 -40 -37 -100l-653 -1059h554q62 0 91 -15q46 -26 46 -85t-46 -85q-17 -9 -35.5 -11.5t-55.5 -2.5 h-679q-42 0 -69.5 6.5t-48.5 26.5q-33 34 -33 82z" />
<glyph unicode="[" horiz-adv-x="716" d="M178 -24v1521q0 22 1 34.5t8 31.5t21 33t33 21t31.5 8t34.5 1h201q61 0 86 -15q43 -25 43 -80q0 -56 -43 -81q-28 -15 -86 -15h-119v-1398h119q36 0 53.5 -2.5t32.5 -11.5q43 -25 43 -80.5t-43 -80.5q-28 -16 -86 -16h-201q-22 0 -34.5 1t-31.5 8.5t-33 21.5 q-11 11 -17.5 23t-9 26.5t-3 23.5t-0.5 26z" />
<glyph unicode="\" horiz-adv-x="788" d="M33 1574q8 25 36 43.5t62 18.5q44 0 65 -25t37 -76l511 -1530q4 -12 6 -18.5t5 -17t4 -17.5t1.5 -15.5t-0.5 -16.5t-4 -16q-7 -25 -35.5 -44.5t-62.5 -19.5q-44 0 -65 26t-37 76l-512 1530q-21 67 -11 102z" />
<glyph unicode="]" horiz-adv-x="716" d="M80 -57.5q0 55.5 43 80.5q15 9 32.5 11.5t53.5 2.5h119v1398h-119q-58 0 -86 15q-43 25 -43 81q0 55 43 80q25 15 86 15h201q16 0 25.5 -0.5t24 -3t26.5 -9t23 -17.5q14 -14 21 -33t8 -31.5t1 -34.5v-1521q0 -22 -1 -34.5t-8 -31.5t-21 -33t-33 -21.5t-31.5 -8.5 t-34.5 -1h-201q-58 0 -86 16q-43 25 -43 80.5z" />
<glyph unicode="^" horiz-adv-x="1094" d="M148 802q0 28 28 84l242 485q10 18 15.5 28t15 25t18.5 23.5t21 17t27.5 12.5t32.5 4q26 0 46 -8t36 -26.5t24.5 -33t23.5 -42.5l241 -485q27 -56 27 -84q0 -39 -30 -66.5t-69 -27.5q-26 0 -49 16q-27 20 -55 74l-196 393l-196 -393q-28 -55 -53 -74q-23 -16 -50 -16 q-24 0 -47 12.5t-38 34.5t-15 47z" />
<glyph unicode="_" horiz-adv-x="1181" d="M35 -292q0 49 38 69q22 12 72 12h891q52 0 74 -12q37 -20 37 -69q0 -47 -37 -68q-24 -13 -74 -13h-891q-49 0 -72 13q-38 21 -38 68z" />
<glyph unicode="`" horiz-adv-x="1112" d="M314 1523q-3 50 45 80q25 16 51 16q25 0 49 -17q19 -15 45 -57l96 -154q13 -21 19 -32t9.5 -21.5t3.5 -22.5q3 -50 -44 -80q-26 -16 -52 -16q-25 0 -48 17q-20 15 -46 57l-96 154q-18 30 -24.5 44.5t-7.5 31.5z" />
<glyph unicode="a" horiz-adv-x="1095" d="M86 308q0 136 94.5 220t267.5 84h279v66q0 104 -52 154t-167 50q-61 0 -107.5 -17t-93.5 -53q-38 -28 -77 -28q-37 0 -60 28q-26 28 -26 65q0 63 99 121q111 64 267 64q212 0 320.5 -91.5t108.5 -270.5v-565q0 -39 -3 -58t-13 -37q-11 -22 -35.5 -35t-54.5 -13 q-47 0 -75 30q-23 26 -25 75q-62 -61 -123.5 -84.5t-158.5 -23.5q-98 0 -166 23t-115 72q-40 41 -62 99t-22 125zM292 311q0 -147 197 -147q65 0 110 12t82 47q46 44 46 157v83h-248q-93 0 -140 -39t-47 -113z" />
<glyph unicode="b" horiz-adv-x="1142" d="M168 136v1201q0 38 3 56.5t12 37.5q25 50 90 50t90 -50q9 -19 12.5 -38t3.5 -56v-394q55 66 120.5 92.5t153.5 26.5q78 0 144.5 -25.5t110.5 -68.5q36 -38 60.5 -87.5t36 -110t15.5 -116.5t4 -129t-4 -129.5t-15.5 -117.5t-36 -110.5t-60.5 -86.5q-44 -44 -111 -68.5 t-146 -24.5q-87 0 -152 26.5t-121 92.5q-3 -51 -19 -74q-29 -41 -86 -41q-27 0 -51 12t-36 32q-11 19 -14.5 38.5t-3.5 61.5zM378 524q0 -62 4 -108t17.5 -93.5t37 -77t63.5 -48.5t96 -19q55 0 95 19t63.5 48.5t37 77t17.5 93.5t4 108t-4 108t-17.5 93.5t-37 77.5t-63.5 49 t-95 19q-47 0 -82.5 -12.5t-59 -37t-39 -54t-23.5 -71.5t-11 -81.5t-3 -90.5z" />
<glyph unicode="c" horiz-adv-x="1001" d="M114 524.5q0 114.5 25.5 206.5t69 152.5t104 101.5t126.5 59t140 18q69 0 122.5 -16t107.5 -51q49 -32 75.5 -61t26.5 -65.5t-30 -68.5q-28 -27 -65 -27q-21 0 -38.5 8.5t-45.5 31.5q-20 16 -38 27t-36.5 18t-37.5 10t-41 3q-123 0 -191 -90q-34 -45 -48.5 -104.5 t-14.5 -152.5q0 -46 3.5 -83t11 -68t19.5 -56.5t29 -47.5q68 -91 191 -91q43 0 78.5 13.5t74.5 44.5q14 12 24 19t20.5 12t20 7.5t19.5 2.5q37 0 65 -28q30 -32 30 -69q0 -25 -15.5 -49t-35.5 -40.5t-51 -36.5q-103 -66 -230 -66q-74 0 -140 17.5t-126.5 58.5t-104 101.5 t-69 152.5t-25.5 206.5z" />
<glyph unicode="d" horiz-adv-x="1142" d="M119 525q0 47 1.5 85.5t6 82t12.5 80t20.5 72t31.5 66.5t43 57q44 43 110.5 68.5t144.5 25.5q89 0 154.5 -26.5t121.5 -92.5v394q0 38 3 56.5t12 37.5q24 50 89.5 50t90.5 -50q9 -19 12.5 -38t3.5 -56v-1201q0 -41 -4 -61t-16 -39q-12 -20 -35.5 -32t-50.5 -12 q-58 0 -86 41q-16 22 -18 74q-56 -66 -122 -92.5t-153 -26.5q-78 0 -145.5 24.5t-111.5 68.5q-36 37 -60 86.5t-35.5 110.5t-15.5 117t-4 130zM330 524q0 -62 4.5 -108t18 -93.5t36.5 -77t63 -48.5t95 -19q56 0 96.5 19t63.5 48.5t36.5 77t18 93.5t4.5 108t-4.5 108 t-18 93.5t-36.5 77.5t-63.5 49t-96.5 19q-46 0 -81.5 -12.5t-59 -37t-39 -54t-23.5 -71.5t-11 -81.5t-3 -90.5z" />
<glyph unicode="e" horiz-adv-x="1111" d="M114 524q0 255 120 396.5t325 141.5q134 0 234 -62t153 -169t56 -246v-8q0 -59 -28 -87q-13 -13 -31.5 -19t-29.5 -6.5t-33 -0.5h-558q0 -137 70.5 -216.5t199.5 -79.5q119 0 201 65q47 39 86 39q32 0 59.5 -27.5t27.5 -62.5q0 -59 -105 -127q-103 -67 -274 -67 q-81 0 -150 17t-129.5 57t-102.5 101t-66.5 152.5t-24.5 208.5zM322 610h472q-3 52 -8.5 81t-19.5 61q-28 62 -81.5 98t-125.5 36q-38 0 -71 -10t-59 -27.5t-46 -42t-34 -54.5q-14 -33 -19.5 -62.5t-7.5 -79.5z" />
<glyph unicode="f" horiz-adv-x="691" d="M55 968q0 48 37 68q22 12 74 12h48v145q0 59 17 110.5t51 92t89.5 64t127.5 23.5h20q60 0 89 -16q42 -23 42 -74.5t-42 -73.5q-24 -14 -77 -15q-106 -3 -106 -121v-135h115q51 0 73 -12q37 -20 37 -68t-37 -68q-22 -12 -73 -12h-115v-753q0 -26 -1 -41.5t-4.5 -27.5 t-9.5 -25q-11 -22 -34.5 -35.5t-56.5 -13.5q-65 0 -90 49q-9 19 -12 38t-3 56v753h-48q-52 0 -74 12q-37 20 -37 68z" />
<glyph unicode="g" horiz-adv-x="1136" d="M119 544.5q0 152.5 23.5 254.5t93.5 172q29 28 68 48.5t86 31.5t99 11q85 0 149.5 -27t121.5 -92q2 50 18 73q28 41 86 41q26 0 50 -12t36 -33q11 -19 15 -38.5t4 -61.5v-906q0 -128 -54 -227.5t-157 -156.5t-240 -57q-80 0 -138 12.5t-110 41.5q-45 25 -76 57t-31 67 q0 40 27 66t58 26q20 0 40 -8.5t55 -31.5q42 -27 80.5 -39.5t88.5 -12.5q65 0 113.5 22t77 59.5t42.5 84t14 101.5v134q-29 -33 -60 -56.5t-65.5 -37t-69.5 -19.5t-77 -6q-78 0 -142.5 24.5t-108.5 68.5q-70 70 -93.5 172t-23.5 254.5zM330 544q0 -56 4 -98.5t17.5 -88 t36 -75t62.5 -48.5t95 -19t95 19t62.5 48.5t35.5 75.5t17 88t4 98.5t-4 98.5t-17 87.5t-35.5 75t-62.5 48.5t-95 19t-95 -19t-62.5 -48.5t-36 -75t-17.5 -88t-4 -98.5z" />
<glyph unicode="h" horiz-adv-x="1175" d="M168 135v1202q0 38 3 56.5t12 37.5q25 50 90 50t90 -50q9 -19 12.5 -38t3.5 -56v-394q106 119 274 119q161 0 259 -96q58 -57 82.5 -129.5t24.5 -165.5v-536q0 -36 -3.5 -55t-12.5 -39q-25 -49 -90 -49t-90 49q-9 19 -12 38t-3 56v504q0 117 -58.5 174.5t-154.5 57.5 t-156 -58t-60 -174v-504q0 -36 -3.5 -55t-12.5 -39q-25 -49 -90 -49t-90 49q-9 19 -12 38t-3 56z" />
<glyph unicode="i" horiz-adv-x="545" d="M145 1391q0 53 37.5 90t90.5 37q34 0 63.5 -17t46.5 -46t17 -64t-17 -64.5t-46.5 -46t-63.5 -16.5q-53 0 -90.5 37t-37.5 90zM168 135v778q0 38 3 56.5t12 37.5q25 50 89.5 50t90.5 -50q9 -20 12.5 -38.5t3.5 -55.5v-778q0 -36 -3.5 -55t-12.5 -39q-25 -49 -90 -49 t-90 49q-9 19 -12 38t-3 56z" />
<glyph unicode="j" horiz-adv-x="545" d="M-58 -338q0 52 43 74q22 13 76 15q107 2 107 121v1041q0 38 3 56.5t12 37.5q25 50 89.5 50t90.5 -50q9 -20 12.5 -38.5t3.5 -55.5v-1050q0 -60 -17 -111.5t-51 -92t-89.5 -64t-127.5 -23.5h-20q-60 0 -89 16q-43 22 -43 74zM145 1391q0 53 37.5 90t90.5 37q34 0 63.5 -17 t46.5 -46t17 -64t-17 -64.5t-46.5 -46t-63.5 -16.5q-53 0 -90.5 37t-37.5 90z" />
<glyph unicode="k" horiz-adv-x="1074" d="M168 135v1202q0 38 3 56.5t12 37.5q25 50 90 50t90 -50q9 -19 12.5 -38t3.5 -56v-772l379 431q30 34 50.5 47.5t44.5 13.5q37 0 65 -25q33 -29 33 -68q0 -23 -10 -43.5t-38 -51.5l-216 -247l280 -442q20 -33 28 -51.5t8 -37.5q0 -52 -50 -82q-27 -17 -57 -17 q-33 0 -54.5 18.5t-48.5 61.5l-254 405l-160 -186v-156q0 -36 -3.5 -55t-12.5 -39q-25 -49 -90 -49t-90 49q-9 19 -12 38t-3 56z" />
<glyph unicode="l" horiz-adv-x="633" d="M163 291v1048q0 38 3 56.5t12 37.5q25 50 90 50t90 -50q9 -19 12.5 -38t3.5 -56v-1039q0 -118 106 -121q54 -2 77 -14q42 -22 42 -75q0 -52 -42 -74q-30 -16 -89 -16h-22q-71 0 -127 23.5t-89.5 64.5t-50 92t-16.5 111z" />
<glyph unicode="m" horiz-adv-x="1813" d="M168 135v777q0 22 0.5 36.5t3 26t5.5 19.5t9 18q13 21 36.5 33t50.5 12q57 0 86 -41q16 -25 19 -70q52 56 124.5 86t150.5 30q197 0 298 -154q127 154 330 154q79 0 148.5 -25.5t115.5 -70.5q111 -109 111 -295v-536q0 -37 -3 -56t-12 -38q-24 -49 -89.5 -49t-90.5 49 q-9 19 -12 38t-3 56v504q0 117 -58 174.5t-153 57.5q-59 0 -107 -23t-79 -74.5t-31 -124.5v-514q0 -36 -3.5 -55t-12.5 -39q-25 -49 -90 -49t-90 49q-9 19 -12 38t-3 56v504q0 117 -58 174.5t-153 57.5q-46 0 -84.5 -14t-68.5 -41t-47 -72.5t-17 -104.5v-504q0 -36 -3.5 -55 t-12.5 -39q-25 -49 -90 -49t-90 49q-9 19 -12 38t-3 56z" />
<glyph unicode="n" horiz-adv-x="1174" d="M168 135v777q0 22 0.5 36.5t3 26t5.5 19.5t9 18q13 21 36.5 33t50.5 12q57 0 86 -41q16 -25 19 -70q53 57 124.5 86.5t150.5 29.5q160 0 259 -96q58 -57 82 -129t24 -166v-536q0 -36 -3.5 -55t-12.5 -39q-25 -49 -90 -49t-90 49q-9 19 -12 38t-3 56v504q0 117 -58 174.5 t-153 57.5q-46 0 -84.5 -14t-68.5 -41t-47 -72.5t-17 -104.5v-504q0 -36 -3.5 -55t-12.5 -39q-25 -49 -90 -49t-90 49q-9 19 -12 38t-3 56z" />
<glyph unicode="o" horiz-adv-x="1109" d="M119 524.5q0 145.5 26 242t97 170.5q121 125 313.5 125t313.5 -125q71 -74 97 -171t26 -241.5t-26 -241.5t-97 -171q-121 -124 -313.5 -124t-313.5 124q-71 74 -97 170.5t-26 242zM330 524q0 -66 4.5 -112.5t21 -95t46.5 -78.5q59 -60 154 -60q93 0 152 60q43 43 58 114 t15 172q0 66 -5 113t-21.5 95.5t-46.5 78.5q-58 60 -152 60q-96 0 -154 -60q-43 -44 -57.5 -114.5t-14.5 -172.5z" />
<glyph unicode="p" horiz-adv-x="1142" d="M168 -288v1201q0 43 3.5 63t14.5 38q12 21 36 32.5t51 11.5q57 0 86 -41q16 -24 19 -75q38 45 81 72t89 38t103 11q78 0 145.5 -25.5t111.5 -68.5q36 -38 60.5 -87.5t36 -110t15.5 -117.5t4 -130q0 -72 -4 -128.5t-15.5 -117t-36 -110t-60.5 -86.5q-44 -44 -110.5 -69 t-144.5 -25q-88 0 -153.5 26.5t-120.5 91.5v-394q0 -37 -3.5 -55.5t-12.5 -38.5q-25 -49 -90 -49t-90 49q-9 19 -12 37.5t-3 56.5zM378 525q0 -62 4 -108t17.5 -93.5t37 -77.5t63.5 -49t96 -19q55 0 95 19t63.5 49t37 77.5t17.5 93.5t4 108t-4 108t-17.5 93.5t-37 77.5 t-63.5 49t-95 19q-47 0 -82.5 -12.5t-59 -37t-39 -54t-23.5 -71.5t-11 -81.5t-3 -90.5z" />
<glyph unicode="q" horiz-adv-x="1142" d="M119 524q0 74 4 130t15.5 117t35.5 110.5t60 87.5q44 43 111.5 68.5t145.5 25.5q87 0 153 -27.5t122 -93.5q2 54 18 75q28 41 86 41q27 0 50.5 -11.5t35.5 -32.5q12 -19 16 -39t4 -62v-1201q0 -37 -3.5 -55.5t-12.5 -38.5q-25 -49 -90.5 -49t-89.5 49q-9 19 -12 37.5 t-3 56.5v394q-55 -65 -121 -91t-155 -26q-78 0 -144.5 24.5t-110.5 68.5q-36 37 -60 86.5t-35.5 110.5t-15.5 116.5t-4 128.5zM330 525q0 -51 3 -90.5t11 -81t23.5 -71.5t39 -54.5t59 -36.5t81.5 -12q56 0 96.5 19t63.5 48.5t36.5 77t18 93.5t4.5 108t-4.5 108t-18 93.5 t-36.5 77.5t-63.5 49t-96.5 19q-46 0 -81.5 -12.5t-59 -37t-39 -54t-23.5 -71.5t-11 -81.5t-3 -90.5z" />
<glyph unicode="r" horiz-adv-x="910" d="M168 135v777q0 22 0.5 36.5t3 26t5.5 19.5t9 18q13 21 36.5 33t50.5 12q57 0 86 -41q16 -24 19 -77q29 37 70 64.5t91.5 43t104.5 15.5q111 0 184 -50q64 -42 64 -95q0 -44 -31 -76q-30 -29 -73 -29q-33 0 -82 27q-58 32 -113 32q-93 0 -153.5 -64t-60.5 -171v-501 q0 -36 -3.5 -55t-12.5 -39q-25 -49 -90 -49t-90 49q-9 19 -12 38t-3 56z" />
<glyph unicode="s" horiz-adv-x="1032" d="M83 171q0 46 34 72q24 22 58 22q30 0 79 -31q56 -36 115.5 -52.5t137.5 -16.5q105 0 167.5 37.5t62.5 109.5q0 112 -141 124l-169 15q-310 28 -310 288q0 76 31 137.5t85 101.5t126 62t154 22q157 0 282 -59q48 -22 69 -45q19 -23 19 -57q0 -15 -7.5 -33t-18.5 -30 q-26 -26 -62 -26q-22 0 -68 21q-114 56 -218 56q-61 0 -104 -18t-64 -49t-21 -72q0 -57 36 -85t110 -34l165 -16q311 -29 311 -296q0 -106 -57 -182t-154.5 -112.5t-224.5 -36.5q-120 0 -207 23t-159 72q-57 40 -57 88z" />
<glyph unicode="t" horiz-adv-x="726" d="M52 968q0 48 37 68q22 12 74 12h48v165q0 38 3 56.5t12 37.5q25 49 90 49t90 -49q6 -13 9.5 -24.5t5 -28t1.5 -41.5v-165h113q52 0 74 -12q37 -20 37 -68t-37 -68q-22 -12 -74 -12h-113v-588q0 -118 106 -121q54 -2 77 -14q42 -22 42 -75q0 -52 -42 -74q-29 -16 -89 -16 h-21q-72 0 -127.5 23.5t-89 64.5t-50.5 92t-17 111v597h-48q-52 0 -74 12q-37 20 -37 68z" />
<glyph unicode="u" horiz-adv-x="1174" d="M158 379v534q0 38 3 56.5t12 37.5q25 50 89.5 50t89.5 -50q10 -20 13.5 -38.5t3.5 -55.5v-503q0 -60 16 -105t44.5 -72.5t66 -41t83.5 -13.5q95 0 156 58.5t61 173.5v503q0 37 3.5 55.5t12.5 38.5q25 50 90 50t90 -50q9 -19 12 -37.5t3 -56.5v-777q0 -42 -3.5 -61.5 t-14.5 -38.5q-13 -20 -36.5 -32t-50.5 -12q-58 0 -86 41q-16 24 -18 69q-54 -56 -125.5 -85t-151.5 -29q-160 0 -258 95q-58 56 -81.5 128.5t-23.5 167.5z" />
<glyph unicode="v" horiz-adv-x="928" d="M55 994q7 25 35.5 44t63.5 19q43 0 64 -25.5t38 -76.5l209 -629l209 629q8 25 15 40.5t18.5 31t28.5 23t40 7.5q34 0 62 -19t36 -44q4 -9 4 -23v-9q-2 -20 -5 -33t-10 -36l-268 -783q-22 -65 -52 -92q-32 -26 -78.5 -26t-78.5 26q-31 28 -52 92l-267 783l-9 27 q-4 10 -6 24q-2 12 -2 23q0 13 5 27z" />
<glyph unicode="w" horiz-adv-x="1516" d="M60 948q-1 5 -1 11q0 12 3 27q6 30 35.5 50.5t64.5 20.5q38 0 66 -28q20 -19 37 -80l180 -636l190 620q23 76 52 98q29 26 72 26q41 0 70 -26q29 -22 52 -98l190 -620l180 636q17 61 37 80q28 28 66 28q35 0 64.5 -20.5t35.5 -50.5q3 -13 3 -26q-1 -6 -1 -12 q-2 -18 -12 -53l-230 -773q-24 -81 -54 -103q-32 -27 -78 -27t-78 27q-30 22 -54 103l-191 619l-193 -619q-24 -81 -54 -103q-32 -27 -78 -27t-78 27q-30 22 -54 103l-229 773q-11 37 -13 53z" />
<glyph unicode="x" horiz-adv-x="930" d="M79 91q0 19 8 37.5t28 51.5l223 346l-218 343q-20 32 -28 50.5t-8 37.5q0 52 49 82q29 18 58 18q33 0 54.5 -18t48.5 -61l173 -283l170 283q28 43 48.5 61t53.5 18q30 0 59 -18q49 -30 49 -82q0 -19 -7.5 -37.5t-28.5 -50.5l-217 -342l222 -347q21 -33 28.5 -51.5 t7.5 -37.5q0 -52 -49 -82q-27 -17 -59 -17q-33 0 -53.5 18t-48.5 62l-175 289l-178 -289q-18 -29 -31 -44.5t-31 -25.5t-41 -10q-31 0 -58 17q-49 30 -49 82z" />
<glyph unicode="y" horiz-adv-x="928" d="M55 994q7 25 35.5 44t63.5 19q43 0 64 -25.5t38 -76.5l207 -642l211 642q8 25 15 40.5t18.5 31t28.5 23t40 7.5q34 0 62 -19t36 -44q4 -12 4 -28q0 -30 -15 -73l-382 -1103q-29 -84 -77 -130q-79 -78 -205 -78q-69 0 -98 25q-29 26 -29 72q0 51 31 74q26 20 71 20 q49 0 81.5 24.5t53.5 86.5l51 154l-293 855q-6 18 -9 27.5t-6 23.5q-2 13 -2 23q0 13 5 27z" />
<glyph unicode="z" horiz-adv-x="957" d="M77 92q0 27 8.5 48t33.5 55l481 663h-369q-60 0 -86 15q-43 25 -43 80.5t43 80.5q15 9 32.5 11.5t53.5 2.5h514q61 0 91 -17q43 -24 43 -74q0 -26 -9.5 -47.5t-33.5 -54.5l-482 -665h397q36 0 54 -3t32 -11q44 -25 44 -81t-44 -81q-25 -14 -86 -14h-542q-61 0 -91 17 q-41 22 -41 75z" />
<glyph unicode="{" horiz-adv-x="839" d="M87 736q0 42 26 68q9 9 24 15.5t26 8.5t35 5q41 6 71 36q36 36 36 124v345q0 75 17 125.5t58 91.5q68 70 201 70h43q60 0 88 -14q21 -9 33.5 -31.5t12.5 -50.5q0 -27 -12 -48.5t-32 -31.5q-27 -15 -72 -15q-38 -1 -58.5 -6.5t-35.5 -19.5q-12 -12 -19 -29t-10 -42t-3 -61 v-333q0 -48 -11 -84t-33 -59.5t-42.5 -37t-49.5 -26.5q29 -13 49.5 -26.5t42.5 -36.5t33 -59.5t11 -84.5v-331q0 -55 7.5 -85t24.5 -47q15 -15 36 -21t58 -7q47 0 72 -14q20 -10 32 -31.5t12 -49.5t-12.5 -50t-33.5 -31q-28 -15 -88 -15h-43q-133 0 -201 70q-41 41 -58 91.5 t-17 125.5v346q0 88 -36 124q-30 29 -71 35q-22 3 -34.5 6t-27 9t-23.5 16q-26 26 -26 66z" />
<glyph unicode="|" horiz-adv-x="698" d="M244 -17v1508q0 38 3 56.5t13 37.5q24 49 89.5 49t89.5 -49q7 -14 10 -25t5 -27.5t2 -41.5v-1508q0 -61 -17 -95q-24 -50 -89.5 -50t-89.5 50q-10 19 -13 38t-3 57z" />
<glyph unicode="}" horiz-adv-x="839" d="M83 -57q0 19 5.5 35t15 28t22.5 18q26 14 72 14q38 1 58.5 7t35.5 21q18 17 25 47t7 85v331q0 48 11.5 84.5t33 59.5t42 36.5t50.5 26.5q-30 13 -50.5 26.5t-42 37t-33 59.5t-11.5 84v333q0 54 -7 84.5t-25 47.5q-14 14 -35 19.5t-59 6.5q-44 0 -72 15q-20 10 -31.5 31.5 t-11.5 48.5q0 28 12.5 50.5t32.5 31.5q29 14 87 14h44q133 0 202 -70q40 -41 56.5 -91t16.5 -126v-345q0 -88 37 -124q29 -29 71 -36q24 -3 35 -5t26 -8.5t24 -15.5q25 -25 25 -68q0 -41 -25 -66q-13 -14 -32.5 -20t-52.5 -11q-42 -6 -71 -35q-37 -36 -37 -124v-346 q0 -75 -16.5 -125.5t-56.5 -91.5q-69 -70 -202 -70h-44q-58 0 -87 15q-20 9 -32.5 31t-12.5 50z" />
<glyph unicode="~" horiz-adv-x="1185" d="M99 543q0 26 12.5 48.5t43.5 49.5q59 55 113.5 75.5t124.5 20.5q95 0 230 -65q101 -51 166 -51q38 0 68.5 13t67.5 46q36 28 70 28q41 0 68 -32q24 -30 24 -63q0 -26 -12.5 -48.5t-42.5 -49.5q-59 -54 -114 -75t-125 -21q-96 0 -230 66q-99 49 -165 49q-39 0 -69 -12 t-68 -44q-37 -31 -69 -31q-40 0 -68 34q-25 28 -25 62z" />
<glyph unicode="&#xa1;" horiz-adv-x="686" d="M176 920q0 56 39 95t95 39t95 -39t39 -95t-39 -95t-95 -39t-95 39t-39 95zM199 -281v748q0 43 2.5 61.5t13.5 39.5q13 23 37.5 36.5t57.5 13.5t58 -13.5t37 -36.5q11 -22 14 -40.5t3 -60.5v-748q0 -42 -3 -60.5t-14 -40.5q-12 -23 -37 -36.5t-58 -13.5t-57.5 13.5 t-37.5 36.5q-11 21 -13.5 39.5t-2.5 61.5z" />
<glyph unicode="&#xa2;" horiz-adv-x="1001" d="M114 758q0 99 19.5 181t53 140.5t80.5 102t100.5 68t115.5 36.5v65q0 59 15 86q25 44 80 44t81 -44q15 -25 15 -86v-65q68 -14 135 -59q50 -32 76 -60.5t26 -64.5q0 -38 -30 -70q-28 -27 -65 -27q-21 0 -38.5 9t-45.5 31q-49 39 -94 51v-678q43 11 94 52q28 22 46 31 t38 9q36 0 65 -28q30 -32 30 -69q0 -36 -27 -65.5t-75 -60.5q-71 -46 -135 -59v-107q0 -60 -15 -86q-26 -43 -81 -43t-80 43q-15 28 -15 86v107q-78 14 -142.5 51t-116.5 99t-81 159t-29 221zM325 757.5q0 -92.5 14.5 -151.5t48.5 -104q49 -65 122 -83v676q-75 -19 -122 -81 q-34 -44 -48.5 -104t-14.5 -152.5z" />
<glyph unicode="&#xa3;" horiz-adv-x="1199" d="M93 727.5q0 48.5 37 68.5q23 13 75 13h47v198q0 75 17.5 141t49.5 118t76.5 93.5t99 69t117 42t130.5 14.5q171 0 285 -80q35 -25 51 -50t16 -57q0 -44 -27 -73q-25 -26 -59 -26q-20 0 -36 6.5t-45 23.5q-48 32 -89 45t-95 13q-126 0 -196.5 -76.5t-70.5 -219.5v-182h190 q51 0 73 -13q38 -20 38 -68.5t-38 -68.5q-20 -13 -73 -13h-190v-447h498q62 0 91 -15q45 -25 45 -85t-45 -85q-17 -9 -35.5 -11.5t-55.5 -2.5h-585q-23 0 -36 1t-33 8.5t-35 22.5t-22.5 35.5t-9 33.5t-1.5 35v510h-47q-54 0 -75 13q-37 20 -37 68.5z" />
<glyph unicode="&#xa5;" horiz-adv-x="1105" d="M70 1386q0 25 15 47t42 36q25 12 53 12t50 -15q16 -11 26.5 -26.5t29.5 -51.5l267 -541l268 541q14 26 20.5 37.5t15 22t19.5 18.5q22 15 51 15q28 0 53 -12q27 -14 41.5 -36t15.5 -47q1 -21 -5 -39.5t-23 -52.5l-219 -439h98q51 0 73 -12q37 -20 37 -68.5t-37 -68.5 q-22 -12 -73 -12h-179l-44 -89v-94h223q51 0 73 -12q37 -20 37 -68.5t-37 -68.5q-22 -13 -73 -13h-223v-206q0 -43 -3 -61.5t-14 -39.5q-12 -23 -37 -36.5t-57.5 -13.5t-57.5 13.5t-37 36.5q-12 22 -15 40.5t-3 60.5v206h-223q-52 0 -74 13q-37 20 -37 68.5t37 68.5 q22 12 74 12h223v94l-44 89h-179q-52 0 -74 12q-37 20 -37 68.5t37 68.5q22 12 74 12h98l-219 439q-17 33 -22.5 52t-4.5 40z" />
<glyph unicode="&#xa7;" horiz-adv-x="1127" d="M153 528q0 60 17.5 114t47.5 95t64.5 70.5t72.5 48.5q-83 41 -129 107.5t-46 172.5q0 72 26 135.5t74 111t121.5 75t163.5 27.5q223 0 328 -142q53 -72 53 -148q0 -36 -16 -65q-10 -20 -33 -31.5t-51 -11.5q-46 0 -74 31q-19 22 -26 57q-11 68 -56.5 99t-124.5 31 q-57 0 -97.5 -18.5t-62.5 -54.5t-22 -88q0 -66 40 -107.5t124 -67.5l131 -40q149 -45 223.5 -138t74.5 -242q0 -48 -12 -93t-31.5 -80.5t-46 -66.5t-54 -52.5t-56.5 -36.5q83 -36 132.5 -107.5t49.5 -182.5q0 -69 -20.5 -128t-57.5 -102t-87 -74t-108.5 -46t-121.5 -15 q-204 0 -314 123q-73 82 -73 172q0 39 17 66q25 43 83 43q44 0 70 -27q22 -21 29 -62q23 -131 188 -131q89 0 138.5 45t49.5 128q0 62 -39.5 109t-121.5 73l-131 40q-155 47 -230.5 141t-75.5 243zM359 539q0 -103 57 -163t148 -60q92 0 148 60q57 59 57 163q0 55 -13.5 93 t-43.5 70q-56 60 -148 60q-91 0 -148 -60t-57 -163z" />
<glyph unicode="&#xa8;" horiz-adv-x="1112" d="M213 1359q0 48 34 82t82 34t82.5 -34t34.5 -82q0 -31 -15.5 -58t-43 -43.5t-58.5 -16.5q-47 0 -81.5 35.5t-34.5 82.5zM669 1359q0 48 34.5 82t82.5 34q31 0 58 -15.5t42.5 -42t15.5 -58.5q0 -47 -34.5 -82.5t-82 -35.5t-82 35.5t-34.5 82.5z" />
<glyph unicode="&#xa9;" horiz-adv-x="1782" d="M142 736q0 153 59.5 291.5t160 238.5t239 159.5t291 59.5t291.5 -59.5t239 -159.5t159 -238.5t59 -291.5q0 -102 -26.5 -199t-75 -179t-117.5 -151t-151 -117t-179 -75t-199 -27q-88 0 -172 19.5t-158 56.5t-139 88t-116 116t-88 138.5t-57 158t-20 171.5zM286 736 q0 -127 47.5 -241t128.5 -196t193 -130t236.5 -48t236.5 48t193 130t128.5 196t47.5 241t-47.5 241t-128.5 196t-193 130t-236 48q-100 0 -192.5 -30.5t-167 -87t-130 -132t-86 -169.5t-30.5 -196zM563 736.5q0 177.5 93.5 280t250.5 102.5q126 0 201 -71q20 -19 28.5 -33 t8.5 -31q0 -26 -18 -44q-19 -19 -44 -19q-23 0 -61 28q-29 24 -55 34t-60 10q-103 0 -153.5 -69.5t-50.5 -187.5q0 -76 20.5 -132.5t67 -90t116.5 -33.5q34 0 60 9.5t55 33.5q38 28 61 28q25 0 44 -19q18 -18 18 -43q0 -17 -8.5 -31.5t-28.5 -33.5q-75 -70 -201 -70 q-157 0 -250.5 102.5t-93.5 280z" />
<glyph unicode="&#xaa;" horiz-adv-x="933" d="M107 886q0 103 75 168.5t212 65.5h223v62q0 57 -20 92.5t-59.5 51t-102.5 15.5q-36 0 -64.5 -7t-50.5 -19.5t-46 -33.5q-30 -26 -62 -26q-27 0 -44 20q-20 22 -20 50q0 51 87 105q80 49 200 49q171 0 257.5 -72.5t86.5 -212.5v-449q0 -51 -12 -72q-21 -38 -69 -38t-68 38 q-12 22 -13 44q-52 -46 -101 -64.5t-122 -18.5q-151 0 -225 82q-62 68 -62 170zM264 886q0 -119 155 -119q38 0 63 3t51 13.5t47 30.5q37 37 37 126v67h-201q-75 0 -113.5 -31.5t-38.5 -89.5z" />
<glyph unicode="&#xab;" horiz-adv-x="1259" d="M76 543l335 335q28 28 42 38.5t31 14.5q50 13 92 -28q40 -40 27 -90q-5 -17 -15.5 -32.5t-37.5 -42.5l-195 -195l195 -196q18 -18 28.5 -30t16 -22t8.5 -22q13 -50 -27 -90q-41 -41 -92 -27q-17 4 -31.5 14.5t-41.5 37.5zM598 543l335 335q28 28 42 38.5t31 14.5 q51 13 92 -28q40 -40 27 -90q-4 -17 -15 -32.5t-37 -42.5l-196 -195l196 -196q26 -26 37 -41.5t15 -32.5q13 -50 -27 -90q-41 -41 -92 -27q-12 3 -22 8.5t-21 15t-30 28.5z" />
<glyph unicode="&#xac;" d="M92 589q0 56 43 81q15 8 32.5 11t53.5 3h650q22 0 34.5 -1t32 -8t33.5 -21.5t20.5 -33.5t7.5 -30.5t1 -35.5v-228q0 -60 -14 -86q-25 -43 -81 -43t-81 43q-9 15 -11.5 32.5t-2.5 53.5v167h-589q-58 0 -86 15q-43 25 -43 81z" />
<glyph unicode="&#xae;" horiz-adv-x="1782" d="M142 736q0 153 59.5 291.5t160 238.5t239 159.5t291 59.5t291.5 -59.5t239 -159.5t159 -238.5t59 -291.5q0 -102 -26.5 -199t-75 -179t-117.5 -151t-151 -117t-179 -75t-199 -27q-88 0 -172 19.5t-158 56.5t-139 88t-116 116t-88 138.5t-57 158t-20 171.5zM286 736 q0 -127 47.5 -241t128 -196t193 -130t237.5 -48q124 0 236 48t193 130t128.5 196t47.5 241t-47.5 241t-128.5 196t-193 130t-236 48q-125 0 -237.5 -48t-193 -130t-128 -196t-47.5 -241zM650 451v574q0 47 20.5 67t66.5 20h196q106 0 174.5 -66.5t68.5 -163.5 q0 -78 -40 -128.5t-105 -73.5l116 -199q21 -36 23 -60q0 -16 -9 -31.5t-27 -24.5q-16 -10 -36 -10q-22 0 -36 13t-33 45l-143 247h-95v-209q0 -45 -10 -64q-20 -32 -60 -32q-41 0 -60 32q-11 19 -11 64zM791 772h124q54 0 87 29t33 81q0 51 -33.5 80.5t-86.5 29.5h-124v-220 z" />
<glyph unicode="&#xaf;" horiz-adv-x="1112" d="M233 1365q0 50 40 70q25 14 76 14h414q50 0 75 -14q39 -20 39 -70q0 -52 -39 -72q-23 -13 -75 -13h-414q-53 0 -76 13q-40 20 -40 72z" />
<glyph unicode="&#xb0;" horiz-adv-x="972" d="M126 1136q0 99 48 182t131 131.5t181.5 48.5t182 -48.5t131.5 -131.5t48 -181.5t-48 -181.5t-131.5 -131t-181.5 -48q-74 0 -140.5 28.5t-115 76.5t-77 115t-28.5 140zM300 1136.5q0 -81.5 54 -136.5t133 -55t133.5 55t54.5 136.5t-54.5 136.5t-133.5 55t-133 -55 t-54 -136.5z" />
<glyph unicode="&#xb1;" d="M97 95q0 56 43 81q15 8 32.5 11t53.5 3h650q24 0 38 -1t25.5 -4t22.5 -9q43 -25 43 -81t-43 -81q-26 -14 -86 -14h-650q-60 0 -86 14q-43 25 -43 81zM97 749q0 56 43 81q26 15 86 15h231v230q0 60 14 85q25 44 80.5 44t80.5 -44q9 -14 11.5 -32t2.5 -53v-230h230 q60 0 86 -15q43 -25 43 -81q0 -54 -43 -79q-28 -16 -86 -16h-230v-229q0 -36 -2.5 -53.5t-11.5 -32.5q-25 -43 -80.5 -43t-80.5 43q-14 26 -14 86v229h-231q-58 0 -86 16q-43 25 -43 79z" />
<glyph unicode="&#xb4;" horiz-adv-x="1112" d="M481 1315q0 17 6.5 31.5t25.5 44.5l96 154q26 42 45 57q24 17 49 17t50 -16q49 -31 46 -80q-1 -17 -7.5 -31.5t-24.5 -44.5l-96 -154q-25 -41 -47 -57q-23 -17 -48 -17t-51 16q-47 30 -44 80z" />
<glyph unicode="&#xb5;" horiz-adv-x="1184" d="M168 -289v1202q0 38 3 56.5t12 37.5q25 50 89.5 50t90.5 -50q9 -20 12.5 -38.5t3.5 -55.5v-503q0 -48 10.5 -87t29.5 -65.5t45.5 -45t58 -26.5t67.5 -8q45 0 83.5 14t69 41.5t47.5 72.5t17 104v503q0 38 3 56.5t12 37.5q25 50 90 50t90 -50q9 -20 12.5 -38.5t3.5 -55.5 v-777q0 -41 -4 -61t-15 -39q-13 -20 -36.5 -32t-50.5 -12q-58 0 -86 41q-16 22 -18 69q-53 -56 -125.5 -85t-151.5 -29q-97 0 -152 52v-329q0 -37 -3.5 -55.5t-12.5 -38.5q-25 -49 -90 -49t-90 49q-9 19 -12 37.5t-3 56.5z" />
<glyph unicode="&#xb6;" horiz-adv-x="1317" d="M79 1062q0 185 126.5 298t338.5 113h452q22 0 34.5 -1t31.5 -8.5t33 -21.5q11 -11 17.5 -23t9 -26.5t3 -23.5t0.5 -26v-1632q0 -38 -3 -56.5t-12 -37.5q-25 -49 -90 -49t-90 49q-9 20 -12.5 38.5t-3.5 55.5v1564h-223v-1564q0 -38 -3 -56.5t-12 -37.5q-25 -49 -90 -49 q-33 0 -56.5 13.5t-34.5 35.5q-9 19 -12 37.5t-3 56.5v943q-111 0 -204 56.5t-145 150t-52 201.5z" />
<glyph unicode="&#xb7;" horiz-adv-x="657" d="M178 574q0 62 44.5 105.5t106.5 43.5t106.5 -43.5t44.5 -105.5t-44 -105.5t-106.5 -43.5t-107 43.5t-44.5 105.5z" />
<glyph unicode="&#xb8;" horiz-adv-x="1112" d="M318 -415q1 17 8 32.5t25 44.5l96 154q27 44 46 57q22 16 49 16t51 -15q48 -30 44 -80q0 -17 -7 -32t-25 -45l-96 -153q-26 -43 -45 -58q-25 -16 -49 -16q-27 0 -51 16q-49 29 -46 79z" />
<glyph unicode="&#xba;" horiz-adv-x="946" d="M128 1053.5q0 116.5 22.5 195t79.5 136.5q94 94 243.5 94t243.5 -94q58 -58 80 -136.5t22 -195t-22 -194.5t-80 -136q-94 -94 -243.5 -94t-243.5 94q-57 58 -79.5 136t-22.5 194.5zM290 1053q0 -83 10.5 -138.5t44.5 -90.5q52 -51 128.5 -51t128.5 51q35 35 45.5 90.5 t10.5 138.5q0 84 -10.5 140t-45.5 91q-52 51 -128.5 51t-128.5 -51q-34 -35 -44.5 -91t-10.5 -140z" />
<glyph unicode="&#xbb;" horiz-adv-x="1259" d="M134 273q5 17 16 32.5t37 41.5l196 196l-196 195q-26 27 -37 42.5t-16 32.5q-13 50 28 90q41 41 92 28q16 -4 31 -15t42 -38l335 -335l-335 -335q-27 -27 -41.5 -37.5t-31.5 -14.5q-52 -14 -92 27q-41 40 -28 90zM656 273q5 17 16 32.5t37 41.5l196 196l-196 195 q-26 27 -37 42.5t-16 32.5q-12 50 28 90q41 41 92 28q17 -4 31.5 -15t41.5 -38l335 -335l-335 -335q-18 -18 -29.5 -28t-21.5 -15.5t-22 -8.5q-52 -14 -92 27q-40 40 -28 90z" />
<glyph unicode="&#xbf;" horiz-adv-x="1055" d="M84 -47q0 75 23.5 131t73.5 125l141 195q25 34 36 63.5t17 69.5q6 44 29 70q29 32 80 32q49 0 80 -34q27 -30 27 -80q0 -57 -14.5 -97.5t-56.5 -97.5l-161 -217q-31 -41 -47 -78t-16 -82q0 -86 55.5 -143t143.5 -57q91 0 148 57q16 16 27.5 35t18.5 38.5t14 47.5 q11 44 29 64q28 31 77 31q43 0 71 -31q25 -29 25 -78q0 -58 -29.5 -124.5t-82.5 -117.5q-118 -111 -296 -111q-115 0 -208.5 47t-149 136.5t-55.5 205.5zM350 920q0 56 39.5 95t95.5 39t95 -39t39 -95t-39 -95t-95 -39t-95.5 39t-39.5 95z" />
<glyph unicode="&#xc0;" horiz-adv-x="1287" d="M47.5 94.5q1.5 19.5 6 36t14.5 42.5l450 1201q19 52 45 76q33 31 81.5 31t81.5 -31q26 -24 45 -76l450 -1201q13 -34 18 -55.5t0 -46.5t-25 -46q-32 -33 -82 -33q-34 0 -60 21q-15 12 -25 29.5t-24 55.5l-74 198h-610l-73 -198q-14 -38 -24 -55.5t-25 -29.5 q-26 -21 -60 -21q-51 0 -82 33q-16 16 -22.5 33t-5 36.5zM403 1897q-3 50 44 80q25 15 52 15q26 0 48 -16q20 -15 46 -57l96 -155q18 -29 24.5 -44.5t7.5 -31.5q3 -50 -44 -80q-25 -15 -51 -15q-27 0 -49 16q-19 14 -46 57l-96 154q-18 29 -24.5 44.5t-7.5 32.5zM408 486 h472l-236 644z" />
<glyph unicode="&#xc1;" horiz-adv-x="1287" d="M47.5 94.5q1.5 19.5 6 36t14.5 42.5l450 1201q19 52 45 76q33 31 81.5 31t81.5 -31q26 -24 45 -76l450 -1201q13 -34 18 -55.5t0 -46.5t-25 -46q-32 -33 -82 -33q-34 0 -60 21q-15 12 -25 29.5t-24 55.5l-74 198h-610l-73 -198q-14 -38 -24 -55.5t-25 -29.5 q-26 -21 -60 -21q-51 0 -82 33q-16 16 -22.5 33t-5 36.5zM408 486h472l-236 644zM568 1688q0 16 7 31.5t25 44.5l96 155q25 42 45 57q22 16 49 16t51 -15q48 -30 45 -80q-1 -12 -4.5 -22.5t-9.5 -22.5t-19 -32l-95 -154q-27 -43 -46 -57q-22 -16 -49 -16t-51 15 q-48 30 -44 80z" />
<glyph unicode="&#xc2;" horiz-adv-x="1287" d="M47.5 94.5q1.5 19.5 6 36t14.5 42.5l450 1201q19 52 45 76q33 31 81.5 31t81.5 -31q26 -24 45 -76l450 -1201q13 -34 18 -55.5t0 -46.5t-25 -46q-32 -33 -82 -33q-34 0 -60 21q-15 12 -25 29.5t-24 55.5l-74 198h-610l-73 -198q-14 -38 -24 -55.5t-25 -29.5 q-26 -21 -60 -21q-51 0 -82 33q-16 16 -22.5 33t-5 36.5zM337 1694q7 26 45 63l171 172q12 12 19 18t19.5 15t25.5 13t27 4q20 0 38 -9t27.5 -17t25.5 -24l172 -172q38 -37 44 -63q13 -45 -22 -80q-36 -34 -79 -22q-27 7 -64 44l-142 143l-141 -143q-37 -37 -65 -44 q-42 -12 -78 22q-35 35 -23 80zM408 486h472l-236 644z" />
<glyph unicode="&#xc3;" horiz-adv-x="1287" d="M47.5 94.5q1.5 19.5 6 36t14.5 42.5l450 1201q19 52 45 76q33 31 81.5 31t81.5 -31q26 -24 45 -76l450 -1201q13 -34 18 -55.5t0 -46.5t-25 -46q-32 -33 -82 -33q-34 0 -60 21q-15 12 -25 29.5t-24 55.5l-74 198h-610l-73 -198q-14 -38 -24 -55.5t-25 -29.5 q-26 -21 -60 -21q-51 0 -82 33q-16 16 -22.5 33t-5 36.5zM289 1728q0 40 47 80q46 37 86 50.5t87 13.5q44 0 77 -10.5t78 -36.5q17 -10 28.5 -16t25.5 -11.5t28 -8t29 -2.5q26 0 45 6.5t46 28.5q34 27 61 27q34 0 56 -24q17 -20 17 -53q0 -40 -48 -80q-31 -26 -61.5 -40.5 t-55 -19t-55.5 -4.5q-44 0 -77.5 10.5t-78.5 36.5q-24 13 -38 20t-33 12.5t-39 5.5q-17 0 -29.5 -2.5t-28 -10.5t-33.5 -22q-34 -28 -61 -28q-35 0 -56 25q-17 20 -17 53zM408 486h472l-236 644z" />
<glyph unicode="&#xc4;" horiz-adv-x="1287" d="M47.5 94.5q1.5 19.5 6 36t14.5 42.5l450 1201q19 52 45 76q33 31 81.5 31t81.5 -31q26 -24 45 -76l450 -1201q13 -34 18 -55.5t0 -46.5t-25 -46q-32 -33 -82 -33q-34 0 -60 21q-15 12 -25 29.5t-24 55.5l-74 198h-610l-73 -198q-14 -38 -24 -55.5t-25 -29.5 q-26 -21 -60 -21q-51 0 -82 33q-16 16 -22.5 33t-5 36.5zM301 1735q0 48 34 82t82 34q24 0 45.5 -9t37 -24.5t25 -37t9.5 -45.5q0 -48 -34.5 -82.5t-82.5 -34.5q-31 0 -58 16t-42.5 43t-15.5 58zM408 486h472l-236 644zM753 1735.5q0 47.5 35.5 81.5t83 34t82 -34t34.5 -82 t-34.5 -82.5t-82 -34.5t-83 35t-35.5 82.5z" />
<glyph unicode="&#xc5;" horiz-adv-x="1287" d="M47.5 94.5q1.5 19.5 6 36t14.5 42.5l450 1201q19 52 45 76q33 31 81.5 31t81.5 -31q26 -24 45 -76l450 -1201q13 -34 18 -55.5t0 -46.5t-25 -46q-32 -33 -82 -33q-34 0 -60 21q-15 12 -25 29.5t-24 55.5l-74 198h-610l-73 -198q-14 -38 -24 -55.5t-25 -29.5 q-26 -21 -60 -21q-51 0 -82 33q-16 16 -22.5 33t-5 36.5zM386 1809q0 107 76 182.5t182.5 75.5t182.5 -75.5t76 -182.5t-76 -183t-182.5 -76t-182.5 76t-76 183zM408 486h472l-236 644zM513 1808.5q0 -54.5 38.5 -92.5t93 -38t93 38t38.5 92.5t-38.5 93t-93 38.5t-93 -38.5 t-38.5 -93z" />
<glyph unicode="&#xc6;" horiz-adv-x="1914" d="M47 87q0 20 5.5 39t23.5 53l578 1160q38 75 74 103q40 31 90 31h860q37 0 55.5 -3t35.5 -12q45 -25 45 -84.5t-45 -84.5q-17 -9 -35.5 -11.5t-55.5 -2.5h-592v-433h486q62 0 91 -15q46 -25 46 -84.5t-46 -84.5q-27 -15 -91 -15h-486v-444h592q61 0 91 -15q45 -25 45 -85 t-45 -85q-17 -9 -35.5 -11.5t-55.5 -2.5h-679q-23 0 -36 1t-33 8.5t-35 22.5t-22.5 35.5t-8.5 33.5t-1 35v200h-474l-125 -251q-20 -38 -29.5 -52.5t-25.5 -25.5q-23 -15 -50 -15q-30 0 -54 12q-18 9 -31 22.5t-19.5 28.5t-7.5 32zM484 525h379v761z" />
<glyph unicode="&#xc7;" horiz-adv-x="1295" d="M139 736.5q0 77.5 1 124t4 104t9 93.5t16.5 78t26.5 73t38.5 63.5t53.5 62.5q149 150 379 150q68 0 125 -10t103.5 -30t84.5 -47.5t72 -64.5q57 -61 85.5 -126t28.5 -111q0 -54 -31 -84q-33 -30 -77 -30q-40 0 -66 21q-28 21 -55 84q-41 98 -107.5 149t-166.5 51 q-127 0 -213 -92q-56 -61 -71.5 -150t-15.5 -309t15.5 -309t71.5 -149q86 -92 213 -92q100 0 166.5 50.5t107.5 149.5q27 63 55 84q26 21 66 21q44 0 77 -30q31 -31 31 -84q0 -46 -28.5 -111t-85.5 -127q-71 -75 -161.5 -113t-223.5 -38q-230 0 -379 149q-31 31 -53.5 63 t-38.5 63t-26.5 73.5t-16.5 78.5t-9 93.5t-4 104t-1 124zM459 -415q0 17 7 32.5t25 44.5l97 154q26 44 45 57q22 16 48.5 16t50.5 -15q48 -30 45 -80q-1 -17 -7.5 -32t-25.5 -45l-96 -153q-25 -43 -45 -58q-24 -16 -49 -16q-26 0 -50 16q-49 29 -45 79z" />
<glyph unicode="&#xc8;" horiz-adv-x="1243" d="M191 136v1200q0 23 1 36t8.5 33t22.5 35t35.5 22.5t33.5 9t36 1.5h678q37 0 55.5 -3t35.5 -12q46 -25 46 -84t-46 -85q-17 -9 -35.5 -11.5t-55.5 -2.5h-591v-433h486q62 0 91 -15q45 -25 45 -84.5t-45 -84.5q-9 -5 -17.5 -8t-19.5 -4.5t-23 -2t-31 -0.5h-486v-444h591 q62 0 91 -15q46 -26 46 -85t-46 -85q-17 -9 -35.5 -11.5t-55.5 -2.5h-678q-23 0 -36 1t-33.5 8.5t-35.5 22.5t-22.5 35.5t-8.5 33.5t-1 35zM408 1897q-3 49 45 80q25 15 51 15t48 -16q20 -15 46 -57l96 -155q18 -29 24.5 -44.5t7.5 -31.5q3 -50 -44 -80q-24 -15 -50.5 -15 t-48.5 16q-21 15 -47 57l-96 154q-12 20 -18.5 32t-9.5 22.5t-4 22.5z" />
<glyph unicode="&#xc9;" horiz-adv-x="1243" d="M191 136v1200q0 23 1 36t8.5 33t22.5 35t35.5 22.5t33.5 9t36 1.5h678q37 0 55.5 -3t35.5 -12q46 -25 46 -84t-46 -85q-17 -9 -35.5 -11.5t-55.5 -2.5h-591v-433h486q62 0 91 -15q45 -25 45 -84.5t-45 -84.5q-9 -5 -17.5 -8t-19.5 -4.5t-23 -2t-31 -0.5h-486v-444h591 q62 0 91 -15q46 -26 46 -85t-46 -85q-17 -9 -35.5 -11.5t-55.5 -2.5h-678q-23 0 -36 1t-33.5 8.5t-35.5 22.5t-22.5 35.5t-8.5 33.5t-1 35zM573 1688q0 16 7 31.5t25 44.5l96 155q25 42 45 57q22 16 49 16t51 -15q48 -30 45 -80q-1 -17 -7.5 -32.5t-25.5 -44.5l-95 -154 q-27 -43 -46 -57q-22 -16 -48 -16q-28 0 -52 15q-48 30 -44 80z" />
<glyph unicode="&#xca;" horiz-adv-x="1243" d="M191 136v1200q0 23 1 36t8.5 33t22.5 35t35.5 22.5t33.5 9t36 1.5h678q37 0 55.5 -3t35.5 -12q46 -25 46 -84t-46 -85q-17 -9 -35.5 -11.5t-55.5 -2.5h-591v-433h486q62 0 91 -15q45 -25 45 -84.5t-45 -84.5q-9 -5 -17.5 -8t-19.5 -4.5t-23 -2t-31 -0.5h-486v-444h591 q62 0 91 -15q46 -26 46 -85t-46 -85q-17 -9 -35.5 -11.5t-55.5 -2.5h-678q-23 0 -36 1t-33.5 8.5t-35.5 22.5t-22.5 35.5t-8.5 33.5t-1 35zM342 1694q7 26 45 63l172 172q11 12 18 18t19.5 15t25.5 13t27 4q20 0 38 -9t28 -17t25 -24l172 -172q38 -37 44 -63q13 -45 -22 -80 q-36 -34 -79 -22q-27 7 -64 44l-142 143l-141 -143q-37 -37 -65 -44q-42 -12 -78 22q-35 35 -23 80z" />
<glyph unicode="&#xcb;" horiz-adv-x="1243" d="M191 136v1200q0 23 1 36t8.5 33t22.5 35t35.5 22.5t33.5 9t36 1.5h678q37 0 55.5 -3t35.5 -12q46 -25 46 -84t-46 -85q-17 -9 -35.5 -11.5t-55.5 -2.5h-591v-433h486q62 0 91 -15q45 -25 45 -84.5t-45 -84.5q-9 -5 -17.5 -8t-19.5 -4.5t-23 -2t-31 -0.5h-486v-444h591 q62 0 91 -15q46 -26 46 -85t-46 -85q-17 -9 -35.5 -11.5t-55.5 -2.5h-678q-23 0 -36 1t-33.5 8.5t-35.5 22.5t-22.5 35.5t-8.5 33.5t-1 35zM306 1735q0 48 34 82t82 34t83 -34t35 -82q0 -31 -16 -58t-43.5 -43t-58.5 -16t-58 16t-42.5 43t-15.5 58zM760 1735q0 48 34.5 82 t82 34t82 -34t34.5 -82t-34.5 -82.5t-82 -34.5t-82 34.5t-34.5 82.5z" />
<glyph unicode="&#xcc;" horiz-adv-x="606" d="M63 1897q-4 50 44 80q24 15 52 15q26 0 48 -16q20 -15 45 -57l96 -155q19 -29 25.5 -44.5t7.5 -31.5q3 -50 -45 -80q-24 -15 -50 -15q-28 0 -50 16q-18 14 -45 57l-96 154q-9 15 -14.5 24.5t-10 19t-6 17t-1.5 16.5zM191 143v1186q0 42 3 61t14 40q12 23 37 37t58 14 t58 -14t37 -37q11 -21 14 -40t3 -61v-1186q0 -42 -3 -60.5t-14 -40.5q-12 -23 -37 -36.5t-58 -13.5t-58 13.5t-37 36.5q-11 22 -14 40.5t-3 60.5z" />
<glyph unicode="&#xcd;" horiz-adv-x="606" d="M191 143v1186q0 42 3 61t14 40q12 23 37 37t58 14t58 -14t37 -37q11 -21 14 -40t3 -61v-1186q0 -42 -3 -60.5t-14 -40.5q-12 -23 -37 -36.5t-58 -13.5t-58 13.5t-37 36.5q-11 22 -14 40.5t-3 60.5zM227 1688q1 16 7.5 31.5t25.5 44.5l96 155q25 42 45 57q22 16 48 16 q28 0 52 -15q48 -30 44 -80q0 -17 -7 -32.5t-25 -44.5l-96 -154q-27 -43 -45 -57q-22 -16 -50 -16q-26 0 -50 15q-48 30 -45 80z" />
<glyph unicode="&#xce;" horiz-adv-x="606" d="M-3 1694q7 26 44 63l172 172q12 12 19 18t19 15t25 13t28 4q19 0 37.5 -9t28 -17t25.5 -24l172 -172q37 -37 44 -63q13 -45 -22 -80q-36 -34 -79 -22q-27 7 -65 44l-141 143l-141 -143q-38 -37 -65 -44q-43 -12 -79 22q-35 35 -22 80zM191 143v1186q0 42 3 61t14 40 q12 23 37 37t58 14t58 -14t37 -37q11 -21 14 -40t3 -61v-1186q0 -42 -3 -60.5t-14 -40.5q-12 -23 -37 -36.5t-58 -13.5t-58 13.5t-37 36.5q-11 22 -14 40.5t-3 60.5z" />
<glyph unicode="&#xcf;" horiz-adv-x="606" d="M-16 1746q0 48 33.5 81.5t81.5 33.5t83 -33.5t35 -81.5q0 -47 -35 -82.5t-83 -35.5q-31 0 -57.5 16t-42 43.5t-15.5 58.5zM191 143v1186q0 42 3 61t14 40q12 23 37 37t58 14t58 -14t37 -37q11 -21 14 -40t3 -61v-1186q0 -42 -3 -60.5t-14 -40.5q-12 -23 -37 -36.5 t-58 -13.5t-58 13.5t-37 36.5q-11 22 -14 40.5t-3 60.5zM393 1746q0 48 35 81.5t83 33.5t82 -33.5t34 -81.5t-34 -83t-82 -35t-83 35.5t-35 82.5z" />
<glyph unicode="&#xd0;" horiz-adv-x="1418" d="M49 742q0 53 41 76q23 13 81 13h61v505q0 23 1 36t9 33t23 35q11 12 24 19t28.5 9.5t25.5 3.5t27 1h380q273 0 421 -187q30 -39 50.5 -84.5t32 -89.5t17.5 -109t7.5 -120t1.5 -147q0 -89 -2 -146t-8 -121.5t-18 -109t-32.5 -90t-50.5 -84.5q-74 -95 -176.5 -140 t-242.5 -45h-380q-23 0 -36.5 1t-33.5 8.5t-35 22.5t-23 35.5t-9 33.5t-1 35v517h-61q-58 0 -81 14q-41 22 -41 75zM457 199h268q168 0 254 100q50 57 63.5 152t13.5 285q0 97 -1.5 151.5t-9 115.5t-23.5 100.5t-43 70.5q-87 101 -254 101h-268v-444h185q59 0 82 -13 q41 -23 41 -76t-41 -75q-23 -14 -82 -14h-185v-454z" />
<glyph unicode="&#xd1;" horiz-adv-x="1491" d="M191 143v1195q0 76 32 108q35 35 85 35q38 0 66.5 -23t63.5 -75l640 -945v891q0 44 2.5 62t13.5 39q12 23 37.5 37t58 14t57.5 -14t38 -37q11 -21 13.5 -39t2.5 -62v-1196q0 -73 -32 -106q-36 -35 -85 -35q-38 0 -66.5 22.5t-64.5 75.5l-638 944v-891q0 -42 -3 -60.5 t-14 -40.5q-12 -23 -37 -36.5t-58 -13.5t-58 13.5t-37 36.5q-11 22 -14 40.5t-3 60.5zM390 1728q0 40 47 80q24 19 46.5 32t44 20t40.5 9.5t42 2.5q30 0 55 -5t47.5 -14.5t53.5 -27.5q35 -21 58 -29.5t52 -8.5q26 0 45 6.5t46 28.5q34 27 61 27q34 0 56 -24q18 -21 18 -53 q0 -39 -49 -80q-31 -26 -61.5 -40.5t-55 -19t-55.5 -4.5q-30 0 -55 5t-47.5 14.5t-52.5 27.5q-35 20 -58.5 29t-52.5 9q-17 0 -29.5 -2.5t-28 -10.5t-33.5 -22q-34 -28 -60 -28q-36 0 -57 25q-17 20 -17 53z" />
<glyph unicode="&#xd2;" horiz-adv-x="1338" d="M139 736.5q0 77.5 1 124t4 104t9 93.5t16.5 78t26.5 73t38.5 63.5t53.5 62.5q149 150 382 150q230 0 379 -150q36 -35 61 -70.5t41.5 -80t26 -85t14 -103.5t6 -116.5t1.5 -143.5t-1.5 -143t-6 -116.5t-14 -103.5t-26 -84.5t-41.5 -80t-61 -71.5q-149 -149 -379 -149 q-233 0 -382 149q-31 31 -53.5 63t-38.5 63t-26.5 73.5t-16.5 78.5t-9 93.5t-4 104t-1 124zM363 736q0 -223 16 -311.5t70 -145.5q87 -93 221 -93q131 0 219 93q54 57 70.5 146t16.5 311q0 153 -7 234.5t-25 133t-55 91.5q-87 92 -219 92q-135 0 -221 -92 q-54 -57 -70 -146.5t-16 -312.5zM427 1897q-3 50 45 80q24 15 50.5 15t48.5 -16q20 -15 45 -57l97 -155q18 -28 24.5 -43.5t6.5 -32.5q4 -50 -44 -80q-24 -15 -50.5 -15t-48.5 16q-19 14 -45 57l-96 154q-19 29 -25.5 44.5t-7.5 32.5z" />
<glyph unicode="&#xd3;" horiz-adv-x="1338" d="M139 736.5q0 77.5 1 124t4 104t9 93.5t16.5 78t26.5 73t38.5 63.5t53.5 62.5q149 150 382 150q230 0 379 -150q36 -35 61 -70.5t41.5 -80t26 -85t14 -103.5t6 -116.5t1.5 -143.5t-1.5 -143t-6 -116.5t-14 -103.5t-26 -84.5t-41.5 -80t-61 -71.5q-149 -149 -379 -149 q-233 0 -382 149q-31 31 -53.5 63t-38.5 63t-26.5 73.5t-16.5 78.5t-9 93.5t-4 104t-1 124zM363 736q0 -223 16 -311.5t70 -145.5q87 -93 221 -93q131 0 219 93q54 57 70.5 146t16.5 311q0 153 -7 234.5t-25 133t-55 91.5q-87 92 -219 92q-135 0 -221 -92 q-54 -57 -70 -146.5t-16 -312.5zM592 1688q1 17 7 32.5t24 43.5l97 155q26 42 46 57q22 16 48 16t51 -15q47 -30 44 -80q-1 -17 -7.5 -32.5t-24.5 -44.5l-96 -154q-27 -43 -46 -57q-22 -16 -48 -16t-51 15q-47 30 -44 80z" />
<glyph unicode="&#xd4;" horiz-adv-x="1338" d="M139 736.5q0 77.5 1 124t4 104t9 93.5t16.5 78t26.5 73t38.5 63.5t53.5 62.5q149 150 382 150q230 0 379 -150q36 -35 61 -70.5t41.5 -80t26 -85t14 -103.5t6 -116.5t1.5 -143.5t-1.5 -143t-6 -116.5t-14 -103.5t-26 -84.5t-41.5 -80t-61 -71.5q-149 -149 -379 -149 q-233 0 -382 149q-31 31 -53.5 63t-38.5 63t-26.5 73.5t-16.5 78.5t-9 93.5t-4 104t-1 124zM361 1694q6 26 44 63l172 172l14.5 14.5t15.5 13t18.5 11.5t20 7.5t23.5 3.5q14 0 27 -4t25.5 -13t19.5 -15t19 -18l171 -172q38 -37 45 -63q12 -44 -24 -80q-36 -34 -78 -22 q-26 7 -64 44l-141 143l-143 -143q-37 -37 -63 -44q-43 -12 -79 22q-36 36 -23 80zM363 736q0 -223 16 -311.5t70 -145.5q87 -93 221 -93q131 0 219 93q54 57 70.5 146t16.5 311q0 153 -7 234.5t-25 133t-55 91.5q-87 92 -219 92q-135 0 -221 -92q-54 -57 -70 -146.5 t-16 -312.5z" />
<glyph unicode="&#xd5;" horiz-adv-x="1338" d="M139 736.5q0 77.5 1 124t4 104t9 93.5t16.5 78t26.5 73t38.5 63.5t53.5 62.5q149 150 382 150q230 0 379 -150q36 -35 61 -70.5t41.5 -80t26 -85t14 -103.5t6 -116.5t1.5 -143.5t-1.5 -143t-6 -116.5t-14 -103.5t-26 -84.5t-41.5 -80t-61 -71.5q-149 -149 -379 -149 q-233 0 -382 149q-31 31 -53.5 63t-38.5 63t-26.5 73.5t-16.5 78.5t-9 93.5t-4 104t-1 124zM312 1728q0 40 48 80q45 37 85 50.5t87 13.5q44 0 77.5 -10.5t78.5 -36.5q35 -20 58.5 -29t52.5 -9q26 0 45 6.5t46 28.5q34 27 60 27q35 0 56 -24q18 -21 18 -53q0 -40 -47 -80 q-46 -38 -86 -51t-87 -13q-44 0 -77.5 10.5t-78.5 36.5q-23 13 -37.5 20t-34 12.5t-39.5 5.5q-26 0 -45 -7t-46 -28q-34 -28 -60 -28q-34 0 -56 25q-18 21 -18 53zM363 736q0 -223 16 -311.5t70 -145.5q87 -93 221 -93q131 0 219 93q54 57 70.5 146t16.5 311q0 153 -7 234.5 t-25 133t-55 91.5q-87 92 -219 92q-135 0 -221 -92q-54 -57 -70 -146.5t-16 -312.5z" />
<glyph unicode="&#xd6;" horiz-adv-x="1338" d="M139 736.5q0 77.5 1 124t4 104t9 93.5t16.5 78t26.5 73t38.5 63.5t53.5 62.5q149 150 382 150q230 0 379 -150q36 -35 61 -70.5t41.5 -80t26 -85t14 -103.5t6 -116.5t1.5 -143.5t-1.5 -143t-6 -116.5t-14 -103.5t-26 -84.5t-41.5 -80t-61 -71.5q-149 -149 -379 -149 q-233 0 -382 149q-31 31 -53.5 63t-38.5 63t-26.5 73.5t-16.5 78.5t-9 93.5t-4 104t-1 124zM325 1735q0 48 34 82t81 34q48 0 83.5 -34t35.5 -82q0 -31 -16.5 -58t-43.5 -43t-59 -16q-47 0 -81 34.5t-34 82.5zM363 736q0 -223 16 -311.5t70 -145.5q87 -93 221 -93 q131 0 219 93q54 57 70.5 146t16.5 311q0 153 -7 234.5t-25 133t-55 91.5q-87 92 -219 92q-135 0 -221 -92q-54 -57 -70 -146.5t-16 -312.5zM778 1735.5q0 47.5 35 81.5t83 34q47 0 81 -34t34 -82t-34 -82.5t-81 -34.5q-48 0 -83 35t-35 82.5z" />
<glyph unicode="&#xd8;" horiz-adv-x="1338" d="M139 736q0 78 1 124.5t4 104t9 93.5t16.5 78t26.5 73t38.5 63.5t53.5 62.5q149 150 382 150q125 0 235 -52l31 62q24 48 49 64q37 25 83 2q46 -22 46 -70q0 -24 -24 -74l-41 -82q36 -35 61 -70.5t41.5 -80t26 -85t14 -103.5t6 -116.5t1.5 -143.5t-1.5 -143t-6 -116.5 t-14 -103.5t-26 -84.5t-41.5 -80t-61 -71.5q-149 -149 -379 -149q-135 0 -239 52l-30 -62q-24 -49 -49 -65q-37 -24 -82 -2q-47 23 -47 72q0 23 24 73l42 81q-36 36 -61 71.5t-41.5 80t-26 84.5t-14 103.5t-6 116.5t-1.5 143zM363 736q0 -163 9.5 -240t44.5 -131l416 875 q-71 47 -163 47q-135 0 -221 -92q-54 -57 -70 -146.5t-16 -312.5zM504 233q72 -47 166 -47q131 0 219 93q54 57 70.5 146t16.5 311q0 109 -3.5 170t-16 112t-36.5 89z" />
<glyph unicode="&#xd9;" horiz-adv-x="1391" d="M169 497v832q0 44 2.5 62t13.5 39q12 23 37.5 37t58 14t57.5 -14t38 -37q11 -21 13.5 -39t2.5 -62v-822q0 -148 82.5 -234.5t221 -86.5t221.5 86.5t83 234.5v822q0 22 0.5 35t2.5 25t5 21t9 20q8 15 22 26.5t32.5 18t40.5 6.5q33 0 58 -14t37 -37q8 -14 11 -27.5t4 -28 t1 -45.5v-832q0 -149 -69 -266t-189 -180t-269 -63t-269 63t-189 180t-69 266zM456 1897q-4 50 44 80q24 15 50.5 15t48.5 -16q20 -15 45 -57l96 -155q19 -29 25.5 -44.5t7.5 -31.5q3 -50 -45 -80q-24 -15 -50.5 -15t-48.5 16q-19 14 -45 57l-97 154q-18 29 -24.5 44.5 t-6.5 32.5z" />
<glyph unicode="&#xda;" horiz-adv-x="1391" d="M169 497v832q0 44 2.5 62t13.5 39q12 23 37.5 37t58 14t57.5 -14t38 -37q11 -21 13.5 -39t2.5 -62v-822q0 -148 82.5 -234.5t221 -86.5t221.5 86.5t83 234.5v822q0 22 0.5 35t2.5 25t5 21t9 20q8 15 22 26.5t32.5 18t40.5 6.5q33 0 58 -14t37 -37q8 -14 11 -27.5t4 -28 t1 -45.5v-832q0 -149 -69 -266t-189 -180t-269 -63t-269 63t-189 180t-69 266zM619 1688q1 16 7.5 31.5t24.5 44.5l96 155q26 42 46 57q22 16 49 16t51 -15q48 -30 44 -80q0 -12 -3.5 -22.5t-10 -22.5t-18.5 -32l-96 -154q-27 -43 -45 -57q-22 -16 -49 -16t-51 15 q-48 30 -45 80z" />
<glyph unicode="&#xdb;" horiz-adv-x="1391" d="M169 497v832q0 44 2.5 62t13.5 39q12 23 37.5 37t58 14t57.5 -14t38 -37q11 -21 13.5 -39t2.5 -62v-822q0 -148 82.5 -234.5t221 -86.5t221.5 86.5t83 234.5v822q0 22 0.5 35t2.5 25t5 21t9 20q8 15 22 26.5t32.5 18t40.5 6.5q33 0 58 -14t37 -37q8 -14 11 -27.5t4 -28 t1 -45.5v-832q0 -149 -69 -266t-189 -180t-269 -63t-269 63t-189 180t-69 266zM389 1694q7 26 44 63l172 172q16 16 25.5 24t28 17t37.5 9t37.5 -9t28 -17t25.5 -24l171 -172q38 -37 45 -63q13 -45 -22 -80q-36 -34 -79 -22q-27 7 -65 44l-141 143l-142 -143 q-37 -37 -64 -44q-42 -12 -78 22q-36 36 -23 80z" />
<glyph unicode="&#xdc;" horiz-adv-x="1391" d="M169 497v832q0 44 2.5 62t13.5 39q12 23 37.5 37t58 14t57.5 -14t38 -37q11 -21 13.5 -39t2.5 -62v-822q0 -148 82.5 -234.5t221 -86.5t221.5 86.5t83 234.5v822q0 22 0.5 35t2.5 25t5 21t9 20q8 15 22 26.5t32.5 18t40.5 6.5q33 0 58 -14t37 -37q8 -14 11 -27.5t4 -28 t1 -45.5v-832q0 -149 -69 -266t-189 -180t-269 -63t-269 63t-189 180t-69 266zM352 1735q0 48 34.5 82t82.5 34t83 -34t35 -82q0 -31 -16 -58t-43.5 -43t-59 -16t-58 16t-42.5 43t-16 58zM806 1735q0 24 9.5 45.5t25 37t37.5 24.5t45 9q48 0 82 -34t34 -82t-34 -82.5 t-82 -34.5t-82.5 34.5t-34.5 82.5z" />
<glyph unicode="&#xdd;" horiz-adv-x="1081" d="M45 1386q1 25 16 47t42 36q24 12 54 12q27 0 50 -15q16 -11 25.5 -25.5t29.5 -52.5l279 -560l279 560q19 38 29 52.5t26 25.5q22 15 50 15q29 0 54 -12q13 -7 24 -16.5t18 -20t11 -22.5t4 -24q1 -21 -5 -39.5t-23 -52.5l-356 -707v-444q0 -43 -2.5 -61.5t-13.5 -39.5 q-12 -23 -37 -36.5t-57.5 -13.5t-58 13.5t-38.5 36.5q-10 21 -13 39.5t-3 61.5v444l-355 707q-18 34 -23.5 52.5t-5.5 39.5zM464 1688q0 17 6.5 32.5t24.5 43.5l97 155q25 42 45 57q22 16 48.5 16t50.5 -15q48 -30 45 -80q-1 -12 -4.5 -22.5t-9.5 -22.5t-19 -32l-96 -154 q-26 -43 -45 -57q-22 -16 -48.5 -16t-50.5 15q-48 30 -44 80z" />
<glyph unicode="&#xde;" horiz-adv-x="1317" d="M191 143v1186q0 42 3 61t14 40q12 23 37 37t58 14t58 -14t37 -37q11 -21 14 -40t3 -61v-139h334q61 0 117 -11.5t103 -32.5t87 -51.5t70.5 -68.5t51.5 -82.5t32 -95.5t11 -106q0 -95 -33.5 -177t-94 -141t-149 -92.5t-195.5 -33.5h-334v-155q0 -42 -3 -60.5t-14 -40.5 q-12 -23 -37 -36.5t-58 -13.5t-58 13.5t-37 36.5q-11 22 -14 40.5t-3 60.5zM415 497h322q80 0 138.5 28.5t91 84.5t32.5 133q0 117 -71 182.5t-191 65.5h-322v-494z" />
<glyph unicode="&#xdf;" horiz-adv-x="1166" d="M168 135v945q0 134 56 227t153.5 137t230.5 44q92 0 168.5 -21.5t134.5 -64.5t90.5 -111.5t32.5 -158.5q0 -158 -128 -239q68 -36 98 -88.5t30 -149.5v-354q0 -139 -83 -219q-85 -82 -218 -82h-20q-61 0 -90 16q-42 22 -42 74q0 53 42 75q23 12 77 14q60 1 89 35 q34 36 34 108v347q0 68 -35 104q-31 30 -96 32q-53 1 -74 13q-37 20 -37 69q0 47 37 67q21 12 74 14q38 1 67.5 18.5t46.5 52.5t17 82q0 77 -51 127q-54 53 -170 53q-119 0 -171 -60.5t-52 -172.5v-933q0 -36 -3.5 -55t-12.5 -39q-25 -49 -90 -49t-90 49q-9 19 -12 38t-3 56 z" />
<glyph unicode="&#xe0;" horiz-adv-x="1095" d="M86 308q0 136 94.5 220t267.5 84h279v66q0 104 -52 154t-167 50q-61 0 -107.5 -17t-93.5 -53q-38 -28 -77 -28q-37 0 -60 28q-26 28 -26 65q0 63 99 121q111 64 267 64q212 0 320.5 -91.5t108.5 -270.5v-565q0 -39 -3 -58t-13 -37q-11 -22 -35.5 -35t-54.5 -13 q-47 0 -75 30q-23 26 -25 75q-62 -61 -123.5 -84.5t-158.5 -23.5q-98 0 -166 23t-115 72q-40 41 -62 99t-22 125zM289 1523q-3 50 44 80q26 16 51 16t48 -17q20 -15 46 -57l96 -154q18 -30 24.5 -44.5t7.5 -31.5q3 -50 -44 -80q-26 -16 -51 -16t-48 17q-20 15 -46 57 l-97 154q-18 29 -24 44t-7 32zM292 311q0 -147 197 -147q65 0 110 12t82 47q46 44 46 157v83h-248q-93 0 -140 -39t-47 -113z" />
<glyph unicode="&#xe1;" horiz-adv-x="1095" d="M86 308q0 136 94.5 220t267.5 84h279v66q0 104 -52 154t-167 50q-61 0 -107.5 -17t-93.5 -53q-38 -28 -77 -28q-37 0 -60 28q-26 28 -26 65q0 63 99 121q111 64 267 64q212 0 320.5 -91.5t108.5 -270.5v-565q0 -39 -3 -58t-13 -37q-11 -22 -35.5 -35t-54.5 -13 q-47 0 -75 30q-23 26 -25 75q-62 -61 -123.5 -84.5t-158.5 -23.5q-98 0 -166 23t-115 72q-40 41 -62 99t-22 125zM292 311q0 -147 197 -147q65 0 110 12t82 47q46 44 46 157v83h-248q-93 0 -140 -39t-47 -113zM456 1315q0 17 6.5 32t24.5 44l97 154q25 42 45 57q24 17 49 17 q24 0 50 -16q48 -30 45 -80q-1 -17 -7.5 -31.5t-25.5 -44.5l-96 -154q-25 -42 -45 -57q-23 -17 -49 -17q-24 0 -50 16q-48 30 -44 80z" />
<glyph unicode="&#xe2;" horiz-adv-x="1095" d="M86 308q0 136 94.5 220t267.5 84h279v66q0 104 -52 154t-167 50q-61 0 -107.5 -17t-93.5 -53q-38 -28 -77 -28q-37 0 -60 28q-26 28 -26 65q0 63 99 121q111 64 267 64q212 0 320.5 -91.5t108.5 -270.5v-565q0 -39 -3 -58t-13 -37q-11 -22 -35.5 -35t-54.5 -13 q-47 0 -75 30q-23 26 -25 75q-62 -61 -123.5 -84.5t-158.5 -23.5q-98 0 -166 23t-115 72q-40 41 -62 99t-22 125zM223 1317q4 15 13 27.5t32 35.5l171 171q16 16 25.5 24.5t28 17t37.5 8.5t37.5 -8.5t28 -17t25.5 -24.5l172 -171q22 -23 31 -35.5t13 -27.5q13 -45 -22 -80 q-37 -35 -79 -23q-26 7 -63 44l-143 144l-141 -144q-38 -37 -64 -44q-42 -12 -79 23q-35 36 -23 80zM292 311q0 -147 197 -147q65 0 110 12t82 47q46 44 46 157v83h-248q-93 0 -140 -39t-47 -113z" />
<glyph unicode="&#xe3;" horiz-adv-x="1095" d="M86 308q0 136 94.5 220t267.5 84h279v66q0 104 -52 154t-167 50q-61 0 -107.5 -17t-93.5 -53q-38 -28 -77 -28q-37 0 -60 28q-26 28 -26 65q0 63 99 121q111 64 267 64q212 0 320.5 -91.5t108.5 -270.5v-565q0 -39 -3 -58t-13 -37q-11 -22 -35.5 -35t-54.5 -13 q-47 0 -75 30q-23 26 -25 75q-62 -61 -123.5 -84.5t-158.5 -23.5q-98 0 -166 23t-115 72q-40 41 -62 99t-22 125zM175 1358q0 39 47 79q32 26 62 40.5t55 19.5t56 5q44 0 77.5 -10.5t77.5 -36.5q36 -20 59 -29t52 -9q17 0 29.5 2.5t27.5 10.5t33 22q33 27 62 27q35 0 56 -24 q18 -21 18 -53q0 -39 -49 -80q-46 -37 -86 -51t-86 -14q-44 0 -77 10.5t-78 36.5q-35 20 -59 29t-52 9q-13 0 -22.5 -1t-20.5 -5t-22.5 -11t-25.5 -18q-33 -26 -61 -26q-36 0 -56 23q-17 20 -17 54zM292 311q0 -147 197 -147q65 0 110 12t82 47q46 44 46 157v83h-248 q-93 0 -140 -39t-47 -113z" />
<glyph unicode="&#xe4;" horiz-adv-x="1095" d="M86 308q0 136 94.5 220t267.5 84h279v66q0 104 -52 154t-167 50q-61 0 -107.5 -17t-93.5 -53q-38 -28 -77 -28q-37 0 -60 28q-26 28 -26 65q0 63 99 121q111 64 267 64q212 0 320.5 -91.5t108.5 -270.5v-565q0 -39 -3 -58t-13 -37q-11 -22 -35.5 -35t-54.5 -13 q-47 0 -75 30q-23 26 -25 75q-62 -61 -123.5 -84.5t-158.5 -23.5q-98 0 -166 23t-115 72q-40 41 -62 99t-22 125zM187 1359q0 48 34 82t82 34t83 -34t35 -82q0 -47 -35 -82.5t-83 -35.5q-31 0 -58 16.5t-42.5 43.5t-15.5 58zM292 311q0 -147 197 -147q65 0 110 12t82 47 q46 44 46 157v83h-248q-93 0 -140 -39t-47 -113zM642 1359q0 48 35.5 82t83.5 34q47 0 81 -34t34 -82t-34 -83t-81 -35q-48 0 -83.5 35.5t-35.5 82.5z" />
<glyph unicode="&#xe5;" horiz-adv-x="1095" d="M86 308q0 136 94.5 220t267.5 84h279v66q0 104 -52 154t-167 50q-61 0 -107.5 -17t-93.5 -53q-38 -28 -77 -28q-37 0 -60 28q-26 28 -26 65q0 63 99 121q111 64 267 64q212 0 320.5 -91.5t108.5 -270.5v-565q0 -39 -3 -58t-13 -37q-11 -22 -35.5 -35t-54.5 -13 q-47 0 -75 30q-23 26 -25 75q-62 -61 -123.5 -84.5t-158.5 -23.5q-98 0 -166 23t-115 72q-40 41 -62 99t-22 125zM272 1450.5q0 106.5 75.5 182.5t182.5 76q70 0 129.5 -34.5t94.5 -94.5t35 -130q0 -106 -76 -182t-183 -76t-182.5 76t-75.5 182.5zM292 311q0 -147 197 -147 q65 0 110 12t82 47q46 44 46 157v83h-248q-93 0 -140 -39t-47 -113zM399 1450.5q0 -54.5 38.5 -93t92.5 -38.5q22 0 42 6.5t36 19t28 28.5t19 36t7 41q0 55 -38.5 93.5t-93 38.5t-93 -38.5t-38.5 -93z" />
<glyph unicode="&#xe6;" horiz-adv-x="1725" d="M86 308q0 136 94.5 220t267.5 84h279v66q0 104 -52 154t-167 50q-61 0 -107.5 -17t-93.5 -53q-38 -28 -77 -28q-37 0 -60 28q-26 28 -26 65q0 63 99 121q113 65 267 65q249 0 351 -139q113 139 311 139q134 -1 234 -63t153 -169t56 -246q2 -65 -28 -95q-13 -13 -31 -19 t-29 -6.5t-33 -0.5h-558q0 -90 30.5 -156.5t91.5 -103t147 -36.5q120 0 202 65q47 39 86 39q21 0 41 -12.5t33 -33.5t13 -44q0 -59 -106 -127q-103 -67 -274 -67q-253 0 -374 161q-75 -92 -160 -126t-215 -34q-98 0 -166 23t-115 72q-40 41 -62 99t-22 125zM292 311 q0 -147 197 -147q65 0 110 12t82 47q46 44 46 157v83h-248q-93 0 -140 -39t-47 -113zM936 610h472q-3 51 -9 80.5t-20 61.5q-18 40 -47.5 70t-70.5 47t-89 17q-74 0 -128 -36t-81 -98q-15 -32 -20 -61.5t-7 -80.5z" />
<glyph unicode="&#xe7;" horiz-adv-x="1001" d="M114 524.5q0 114.5 25.5 206.5t69 152.5t104 101.5t126.5 59t140 18q69 0 122.5 -16t107.5 -51q49 -32 75.5 -61t26.5 -65.5t-30 -68.5q-28 -27 -65 -27q-21 0 -38.5 8.5t-45.5 31.5q-20 16 -38 27t-36.5 18t-37.5 10t-41 3q-123 0 -191 -90q-34 -45 -48.5 -104.5 t-14.5 -152.5q0 -46 3.5 -83t11 -68t19.5 -56.5t29 -47.5q68 -91 191 -91q43 0 78.5 13.5t74.5 44.5q14 12 24 19t20.5 12t20 7.5t19.5 2.5q37 0 65 -28q30 -32 30 -69q0 -25 -15.5 -49t-35.5 -40.5t-51 -36.5q-103 -66 -230 -66q-74 0 -140 17.5t-126.5 58.5t-104 101.5 t-69 152.5t-25.5 206.5zM342 -415q1 17 8 32.5t26 44.5l96 154q26 44 45 57q22 16 48.5 16t50.5 -15q48 -30 45 -80q-1 -17 -7.5 -32.5t-24.5 -44.5l-97 -153q-25 -43 -45 -58q-24 -16 -49 -16q-26 0 -50 16q-49 29 -46 79z" />
<glyph unicode="&#xe8;" horiz-adv-x="1111" d="M114 524q0 255 120 396.5t325 141.5q134 0 234 -62t153 -169t56 -246q2 -65 -28 -95q-13 -13 -31.5 -19t-29.5 -6.5t-33 -0.5h-558q0 -137 70.5 -216.5t199.5 -79.5q119 0 201 65q47 39 86 39q32 0 59.5 -27.5t27.5 -62.5q0 -59 -105 -127q-103 -67 -274 -67 q-81 0 -150 17t-129.5 57t-102.5 101t-66.5 152.5t-24.5 208.5zM318 1523q-3 50 45 80q25 16 51 16q25 0 49 -17q19 -15 45 -57l96 -154q19 -30 25.5 -44.5t6.5 -31.5q4 -50 -44 -80q-26 -16 -51 -16q-26 0 -49 17q-20 15 -46 57l-96 154q-18 30 -24.5 44.5t-7.5 31.5z M322 610h472q-3 52 -8.5 81t-19.5 61q-28 62 -81.5 98t-125.5 36q-38 0 -71 -10t-59 -27.5t-46 -42t-34 -54.5q-14 -33 -19.5 -62.5t-7.5 -79.5z" />
<glyph unicode="&#xe9;" horiz-adv-x="1111" d="M114 524q0 255 120 396.5t325 141.5q134 0 234 -62t153 -169t56 -246q2 -65 -28 -95q-13 -13 -31.5 -19t-29.5 -6.5t-33 -0.5h-558q0 -137 70.5 -216.5t199.5 -79.5q119 0 201 65q47 39 86 39q32 0 59.5 -27.5t27.5 -62.5q0 -59 -105 -127q-103 -67 -274 -67 q-81 0 -150 17t-129.5 57t-102.5 101t-66.5 152.5t-24.5 208.5zM322 610h472q-3 52 -8.5 81t-19.5 61q-28 62 -81.5 98t-125.5 36q-38 0 -71 -10t-59 -27.5t-46 -42t-34 -54.5q-14 -33 -19.5 -62.5t-7.5 -79.5zM485 1315q1 17 7.5 31.5t24.5 44.5l96 154q26 42 46 57 q23 17 48 17q26 0 52 -16q47 -30 44 -80q-1 -17 -7.5 -31.5t-24.5 -44.5l-96 -154q-26 -42 -46 -57q-23 -17 -49 -17q-25 0 -51 16q-47 30 -44 80z" />
<glyph unicode="&#xea;" horiz-adv-x="1111" d="M114 524q0 255 120 396.5t325 141.5q134 0 234 -62t153 -169t56 -246q2 -65 -28 -95q-13 -13 -31.5 -19t-29.5 -6.5t-33 -0.5h-558q0 -137 70.5 -216.5t199.5 -79.5q119 0 201 65q47 39 86 39q32 0 59.5 -27.5t27.5 -62.5q0 -59 -105 -127q-103 -67 -274 -67 q-81 0 -150 17t-129.5 57t-102.5 101t-66.5 152.5t-24.5 208.5zM254 1317q3 15 12 27.5t32 35.5l172 171q11 12 18.5 18.5t19.5 15t25 12.5t28 4q11 0 22.5 -3.5t20 -7.5t18.5 -11.5t15 -12.5t14 -15l172 -171q16 -16 24.5 -26t13 -18.5t7.5 -18.5q12 -45 -23 -80 q-36 -35 -78 -23q-28 7 -65 44l-141 144l-142 -144q-37 -37 -64 -44q-42 -12 -79 23q-35 35 -22 80zM322 610h472q-3 52 -8.5 81t-19.5 61q-28 62 -81.5 98t-125.5 36q-38 0 -71 -10t-59 -27.5t-46 -42t-34 -54.5q-14 -33 -19.5 -62.5t-7.5 -79.5z" />
<glyph unicode="&#xeb;" horiz-adv-x="1111" d="M114 524q0 255 120 396.5t325 141.5q134 0 234 -62t153 -169t56 -246q2 -65 -28 -95q-13 -13 -31.5 -19t-29.5 -6.5t-33 -0.5h-558q0 -137 70.5 -216.5t199.5 -79.5q119 0 201 65q47 39 86 39q32 0 59.5 -27.5t27.5 -62.5q0 -59 -105 -127q-103 -67 -274 -67 q-81 0 -150 17t-129.5 57t-102.5 101t-66.5 152.5t-24.5 208.5zM217 1359q0 48 34 82t82 34t82.5 -34t34.5 -82q0 -31 -15.5 -58t-42.5 -43.5t-58.5 -16.5t-58.5 16.5t-42.5 43.5t-15.5 58zM322 610h472q-3 52 -8.5 81t-19.5 61q-28 62 -81.5 98t-125.5 36q-38 0 -71 -10 t-59 -27.5t-46 -42t-34 -54.5q-14 -33 -19.5 -62.5t-7.5 -79.5zM673 1359q0 48 34.5 82t82.5 34q31 0 58 -15.5t42.5 -42t15.5 -58.5q0 -47 -34.5 -82.5t-82 -35.5t-82 35.5t-34.5 82.5z" />
<glyph unicode="&#xec;" horiz-adv-x="545" d="M32 1523q-3 50 45 80q26 16 50 16q25 0 49 -17q20 -15 45 -57l96 -154q19 -30 25.5 -44.5t6.5 -31.5q4 -50 -44 -80q-26 -16 -50 -16q-26 0 -49 17q-20 15 -45 57l-97 154q-13 20 -19 32t-9 22t-4 22zM168 135v778q0 38 3 56.5t12 37.5q25 50 89.5 50t90.5 -50 q9 -20 12.5 -38.5t3.5 -55.5v-778q0 -36 -3.5 -55t-12.5 -39q-25 -49 -90 -49t-90 49q-9 19 -12 38t-3 56z" />
<glyph unicode="&#xed;" horiz-adv-x="545" d="M168 135v778q0 38 3 56.5t12 37.5q25 50 89.5 50t90.5 -50q9 -20 12.5 -38.5t3.5 -55.5v-778q0 -36 -3.5 -55t-12.5 -39q-25 -49 -90 -49t-90 49q-9 19 -12 38t-3 56zM199 1315q1 17 7 32t24 44l97 154q26 42 46 57q23 17 48 17t51 -16q47 -30 44 -80q-1 -17 -7.5 -31.5 t-24.5 -44.5l-96 -154q-26 -42 -46 -57q-23 -17 -48 -17t-51 16q-47 30 -44 80z" />
<glyph unicode="&#xee;" horiz-adv-x="545" d="M-33 1317q3 15 12.5 27.5t31.5 35.5l172 171q16 16 25.5 24.5t27.5 17t37.5 8.5t38 -8.5t28 -17t25.5 -24.5l171 -171q23 -23 32 -35.5t13 -27.5q13 -45 -22 -80q-37 -35 -79 -23q-26 7 -64 44l-142 144l-142 -144q-37 -37 -63 -44q-42 -12 -79 23q-36 36 -23 80z M168 135v778q0 38 3 56.5t12 37.5q25 50 89.5 50t90.5 -50q9 -20 12.5 -38.5t3.5 -55.5v-778q0 -36 -3.5 -55t-12.5 -39q-25 -49 -90 -49t-90 49q-9 19 -12 38t-3 56z" />
<glyph unicode="&#xef;" horiz-adv-x="545" d="M-46 1359q0 48 34 82t82 34q18 0 36 -6t32.5 -16.5t25.5 -25t17 -32t6 -36.5q0 -47 -35 -82.5t-82.5 -35.5t-81.5 35.5t-34 82.5zM168 135v778q0 38 3 56.5t12 37.5q25 50 89.5 50t90.5 -50q9 -20 12.5 -38.5t3.5 -55.5v-778q0 -36 -3.5 -55t-12.5 -39q-25 -49 -90 -49 t-90 49q-9 19 -12 38t-3 56zM359 1359q0 48 35 82t83 34t82 -34t34 -82q0 -47 -34.5 -82.5t-82 -35.5t-82.5 35.5t-35 82.5z" />
<glyph unicode="&#xf0;" horiz-adv-x="1109" d="M126 515q0 142 26 238t96 167q82 85 216 106q34 6 69 6q42 0 87 -10l-72 144h-166q-54 0 -75 12q-37 20 -37 68q0 50 37 70q21 12 75 12h86q-21 43 -21 70q0 38 31 66t69 28q27 0 50 -16q15 -11 26 -26t27 -47l38 -75h112q52 0 73 -12q37 -20 37 -70q0 -48 -37 -68 q-21 -12 -73 -12h-29l87 -171q77 -151 102 -244.5t25 -235.5t-25 -235t-97 -170q-116 -122 -309 -122q-190 0 -306 122q-72 77 -97 170t-25 235zM337 515q0 -102 13 -170.5t55 -111.5q60 -59 149 -59q91 0 151 59q42 44 55.5 112.5t13.5 169.5q0 100 -13.5 168t-55.5 111 q-61 60 -151 60q-88 0 -149 -60q-42 -43 -55 -110.5t-13 -168.5z" />
<glyph unicode="&#xf1;" horiz-adv-x="1174" d="M168 135v777q0 22 0.5 36.5t3 26t5.5 19.5t9 18q13 21 36.5 33t50.5 12q57 0 86 -41q16 -25 19 -70q53 57 124.5 86.5t150.5 29.5q160 0 259 -96q58 -57 82 -129t24 -166v-536q0 -36 -3.5 -55t-12.5 -39q-25 -49 -90 -49t-90 49q-9 19 -12 38t-3 56v504q0 117 -58 174.5 t-153 57.5q-46 0 -84.5 -14t-68.5 -41t-47 -72.5t-17 -104.5v-504q0 -36 -3.5 -55t-12.5 -39q-25 -49 -90 -49t-90 49q-9 19 -12 38t-3 56zM240 1358q0 39 48 79q24 20 46.5 33t43.5 20t40.5 9.5t42.5 2.5q44 0 76.5 -10.5t77.5 -36.5q36 -20 59.5 -29t51.5 -9q26 0 45.5 7 t45.5 28q33 27 61 27q36 0 56 -24q17 -20 17 -53q0 -40 -47 -80q-46 -37 -86 -51t-87 -14q-44 0 -77.5 10.5t-77.5 36.5q-36 21 -59 29.5t-51 8.5q-26 0 -45.5 -7t-45.5 -28q-33 -26 -62 -26q-35 0 -55 23q-18 20 -18 54z" />
<glyph unicode="&#xf2;" horiz-adv-x="1109" d="M119 524.5q0 145.5 26 242t97 170.5q121 125 313.5 125t313.5 -125q71 -74 97 -171t26 -241.5t-26 -241.5t-97 -171q-121 -124 -313.5 -124t-313.5 124q-71 74 -97 170.5t-26 242zM314 1523q-3 50 45 80q25 16 51 16q25 0 49 -17q19 -15 45 -57l96 -154q13 -21 19 -32 t9.5 -21.5t3.5 -22.5q3 -50 -44 -80q-26 -16 -52 -16q-25 0 -48 17q-20 15 -46 57l-96 154q-18 30 -24.5 44.5t-7.5 31.5zM330 524q0 -66 4.5 -112.5t21 -95t46.5 -78.5q59 -60 154 -60q93 0 152 60q43 43 58 114t15 172q0 66 -5 113t-21.5 95.5t-46.5 78.5q-58 60 -152 60 q-96 0 -154 -60q-43 -44 -57.5 -114.5t-14.5 -172.5z" />
<glyph unicode="&#xf3;" horiz-adv-x="1109" d="M119 524.5q0 145.5 26 242t97 170.5q121 125 313.5 125t313.5 -125q71 -74 97 -171t26 -241.5t-26 -241.5t-97 -171q-121 -124 -313.5 -124t-313.5 124q-71 74 -97 170.5t-26 242zM330 524q0 -66 4.5 -112.5t21 -95t46.5 -78.5q59 -60 154 -60q93 0 152 60q43 43 58 114 t15 172q0 66 -5 113t-21.5 95.5t-46.5 78.5q-58 60 -152 60q-96 0 -154 -60q-43 -44 -57.5 -114.5t-14.5 -172.5zM481 1315q0 17 6.5 31.5t25.5 44.5l96 154q26 42 45 57q24 17 49 17t50 -16q49 -31 46 -80q-1 -17 -7.5 -31.5t-24.5 -44.5l-96 -154q-25 -41 -47 -57 q-23 -17 -48 -17t-51 16q-47 30 -44 80z" />
<glyph unicode="&#xf4;" horiz-adv-x="1109" d="M119 524.5q0 145.5 26 242t97 170.5q121 125 313.5 125t313.5 -125q71 -74 97 -171t26 -241.5t-26 -241.5t-97 -171q-121 -124 -313.5 -124t-313.5 124q-71 74 -97 170.5t-26 242zM249 1317q4 15 13 27.5t32 35.5l172 171q11 12 18 18.5t19.5 15t25.5 12.5t28 4 q19 0 37 -8.5t28 -17t25 -24.5l172 -171q23 -23 32 -35.5t13 -27.5q12 -45 -23 -80q-36 -35 -78 -23q-28 7 -65 44l-141 144l-142 -144q-37 -37 -65 -44q-41 -12 -78 23q-35 35 -23 80zM330 524q0 -66 4.5 -112.5t21 -95t46.5 -78.5q59 -60 154 -60q93 0 152 60 q43 43 58 114t15 172q0 66 -5 113t-21.5 95.5t-46.5 78.5q-58 60 -152 60q-96 0 -154 -60q-43 -44 -57.5 -114.5t-14.5 -172.5z" />
<glyph unicode="&#xf5;" horiz-adv-x="1109" d="M119 524.5q0 145.5 26 242t97 170.5q121 125 313.5 125t313.5 -125q71 -74 97 -171t26 -241.5t-26 -241.5t-97 -171q-121 -124 -313.5 -124t-313.5 124q-71 74 -97 170.5t-26 242zM201 1358q0 39 47 79q24 20 46.5 33t44 20t40.5 9.5t42 2.5q44 0 77 -10.5t78 -36.5 q17 -10 28.5 -15.5t26 -11.5t28 -8.5t28.5 -2.5q26 0 45 7t46 28q33 27 60 27q36 0 57 -24q17 -20 17 -53q0 -40 -47 -80q-47 -37 -86.5 -51t-86.5 -14q-30 0 -55 5t-48 14.5t-53 27.5q-36 21 -58.5 29.5t-51.5 8.5q-26 0 -45 -7t-46 -28q-33 -26 -61 -26q-35 0 -56 23 q-17 20 -17 54zM330 524q0 -66 4.5 -112.5t21 -95t46.5 -78.5q59 -60 154 -60q93 0 152 60q43 43 58 114t15 172q0 66 -5 113t-21.5 95.5t-46.5 78.5q-58 60 -152 60q-96 0 -154 -60q-43 -44 -57.5 -114.5t-14.5 -172.5z" />
<glyph unicode="&#xf6;" horiz-adv-x="1109" d="M119 524.5q0 145.5 26 242t97 170.5q121 125 313.5 125t313.5 -125q71 -74 97 -171t26 -241.5t-26 -241.5t-97 -171q-121 -124 -313.5 -124t-313.5 124q-71 74 -97 170.5t-26 242zM213 1359q0 48 34 82t82 34t82.5 -34t34.5 -82q0 -31 -15.5 -58t-43 -43.5t-58.5 -16.5 q-47 0 -81.5 35.5t-34.5 82.5zM330 524q0 -66 4.5 -112.5t21 -95t46.5 -78.5q59 -60 154 -60q93 0 152 60q43 43 58 114t15 172q0 66 -5 113t-21.5 95.5t-46.5 78.5q-58 60 -152 60q-96 0 -154 -60q-43 -44 -57.5 -114.5t-14.5 -172.5zM669 1359q0 48 34.5 82t82.5 34 q31 0 58 -15.5t42.5 -42t15.5 -58.5q0 -47 -34.5 -82.5t-82 -35.5t-82 35.5t-34.5 82.5z" />
<glyph unicode="&#xf7;" d="M97 574.5q0 55.5 43 80.5q26 16 86 16h650q60 0 86 -16q43 -25 43 -80.5t-43 -80.5q-26 -14 -86 -14h-650q-60 0 -86 14q-43 25 -43 80.5zM400 175q0 62 44.5 105.5t107 43.5t106.5 -43.5t44 -105.5t-44 -106.5t-106.5 -44.5t-107 44.5t-44.5 106.5zM400 976 q0 61 44.5 104.5t107 43.5t106.5 -43t44 -105q0 -63 -44.5 -107.5t-106.5 -44.5t-106.5 45t-44.5 107z" />
<glyph unicode="&#xf8;" horiz-adv-x="1109" d="M119 525q0 143 26.5 241t96.5 171q121 125 312 125q114 0 206 -47l41 70q15 26 26.5 38t25.5 18q34 13 66 -6q40 -22 38 -64q-2 -26 -25 -64l-51 -85q63 -71 87 -166t24 -231q0 -144 -26.5 -242t-96.5 -171q-121 -124 -315 -124q-113 0 -205 46l-42 -71q-8 -14 -14 -23 t-12 -15.5t-12.5 -11t-13.5 -7.5q-35 -13 -67 6q-40 23 -36 65q1 24 24 63l52 86q-62 71 -85.5 162.5t-23.5 236.5zM330 524q0 -47 2 -77.5t10.5 -70t25.5 -66.5l310 527q-52 34 -122 34q-97 0 -156 -59q-43 -45 -56.5 -114t-13.5 -174zM432 213q55 -35 122 -35q93 0 155 61 q30 31 46.5 80t21 95t4.5 112q0 71 -7.5 123t-31.5 91z" />
<glyph unicode="&#xf9;" horiz-adv-x="1174" d="M158 379v534q0 38 3 56.5t12 37.5q25 50 89.5 50t89.5 -50q10 -20 13.5 -38.5t3.5 -55.5v-503q0 -60 16 -105t44.5 -72.5t66 -41t83.5 -13.5q95 0 156 58.5t61 173.5v503q0 37 3.5 55.5t12.5 38.5q25 50 90 50t90 -50q9 -19 12 -37.5t3 -56.5v-777q0 -42 -3.5 -61.5 t-14.5 -38.5q-13 -20 -36.5 -32t-50.5 -12q-58 0 -86 41q-16 24 -18 69q-54 -56 -125.5 -85t-151.5 -29q-160 0 -258 95q-58 56 -81.5 128.5t-23.5 167.5zM338 1523q-3 50 45 80q26 16 50 16q25 0 49 -17q20 -15 45 -57l96 -154q19 -30 25.5 -44.5t6.5 -31.5q4 -50 -44 -80 q-26 -16 -50 -16q-26 0 -49 17q-20 15 -45 57l-96 154q-19 30 -25.5 44.5t-7.5 31.5z" />
<glyph unicode="&#xfa;" horiz-adv-x="1174" d="M158 379v534q0 38 3 56.5t12 37.5q25 50 89.5 50t89.5 -50q10 -20 13.5 -38.5t3.5 -55.5v-503q0 -60 16 -105t44.5 -72.5t66 -41t83.5 -13.5q95 0 156 58.5t61 173.5v503q0 37 3.5 55.5t12.5 38.5q25 50 90 50t90 -50q9 -19 12 -37.5t3 -56.5v-777q0 -42 -3.5 -61.5 t-14.5 -38.5q-13 -20 -36.5 -32t-50.5 -12q-58 0 -86 41q-16 24 -18 69q-54 -56 -125.5 -85t-151.5 -29q-160 0 -258 95q-58 56 -81.5 128.5t-23.5 167.5zM505 1315q1 17 7 32t24 44l97 154q26 42 46 57q23 17 48 17t51 -16q47 -30 44 -80q-1 -17 -7.5 -31.5t-24.5 -44.5 l-96 -154q-26 -42 -46 -57q-23 -17 -48 -17t-51 16q-47 30 -44 80z" />
<glyph unicode="&#xfb;" horiz-adv-x="1174" d="M158 379v534q0 38 3 56.5t12 37.5q25 50 89.5 50t89.5 -50q10 -20 13.5 -38.5t3.5 -55.5v-503q0 -60 16 -105t44.5 -72.5t66 -41t83.5 -13.5q95 0 156 58.5t61 173.5v503q0 37 3.5 55.5t12.5 38.5q25 50 90 50t90 -50q9 -19 12 -37.5t3 -56.5v-777q0 -42 -3.5 -61.5 t-14.5 -38.5q-13 -20 -36.5 -32t-50.5 -12q-58 0 -86 41q-16 24 -18 69q-54 -56 -125.5 -85t-151.5 -29q-160 0 -258 95q-58 56 -81.5 128.5t-23.5 167.5zM273 1317q2 10 7 18.5t13.5 18.5t23.5 26l172 171q16 16 25.5 24.5t28 17t37.5 8.5t37.5 -8.5t28.5 -17t26 -24.5 l171 -171q23 -23 32 -35.5t13 -27.5q12 -44 -23 -80q-37 -35 -79 -23q-26 7 -64 44l-142 144l-142 -144q-37 -37 -63 -44q-42 -12 -79 23q-36 36 -23 80z" />
<glyph unicode="&#xfc;" horiz-adv-x="1174" d="M158 379v534q0 38 3 56.5t12 37.5q25 50 89.5 50t89.5 -50q10 -20 13.5 -38.5t3.5 -55.5v-503q0 -60 16 -105t44.5 -72.5t66 -41t83.5 -13.5q95 0 156 58.5t61 173.5v503q0 37 3.5 55.5t12.5 38.5q25 50 90 50t90 -50q9 -19 12 -37.5t3 -56.5v-777q0 -42 -3.5 -61.5 t-14.5 -38.5q-13 -20 -36.5 -32t-50.5 -12q-58 0 -86 41q-16 24 -18 69q-54 -56 -125.5 -85t-151.5 -29q-160 0 -258 95q-58 56 -81.5 128.5t-23.5 167.5zM236 1359q0 48 34.5 82t82.5 34t83 -34t35 -82q0 -47 -35.5 -82.5t-83 -35.5t-82 35.5t-34.5 82.5zM692 1359 q0 48 35 82t83 34t81.5 -34t33.5 -82t-34 -83t-81 -35q-48 0 -83 35.5t-35 82.5z" />
<glyph unicode="&#xfd;" horiz-adv-x="928" d="M50.5 970.5q0.5 11.5 4.5 23.5q7 25 35.5 44t63.5 19q43 0 64 -25.5t38 -76.5l207 -642l211 642q8 25 15 40.5t18.5 31t28.5 23t40 7.5q34 0 62 -19t36 -44q11 -37 -11 -101l-382 -1103q-29 -84 -77 -130q-79 -78 -205 -78q-69 0 -98 25q-29 26 -29 72q0 51 31 74 q26 20 71 20q49 0 81.5 24.5t53.5 86.5l51 154l-293 855q-6 18 -9 27.5t-5.5 24t-2 26zM387 1315q1 17 7.5 31.5t24.5 44.5l96 154q26 42 46 57q23 17 48 17t51 -16q47 -30 44 -80q-1 -17 -7 -32t-24 -44l-97 -154q-26 -42 -46 -57q-23 -17 -48 -17t-51 16q-47 30 -44 80z " />
<glyph unicode="&#xfe;" horiz-adv-x="1143" d="M168 -288v1625q0 38 3 56.5t12 37.5q25 50 90 50t90 -50q9 -19 12.5 -38t3.5 -56v-394q55 66 120.5 92.5t153.5 26.5q78 0 144.5 -25.5t110.5 -68.5q36 -38 60.5 -87.5t36 -110t15.5 -116.5t4 -129t-4 -129.5t-15.5 -117.5t-36 -110.5t-60.5 -86.5q-44 -44 -111 -68.5 t-146 -24.5q-87 0 -151.5 26.5t-120.5 91.5v-394q0 -37 -3.5 -55.5t-12.5 -38.5q-25 -49 -90 -49t-90 49q-9 19 -12 37.5t-3 56.5zM379 524q0 -62 4 -108t17.5 -93.5t36.5 -77t63 -48.5t96 -19q55 0 95 19t63.5 48.5t37 77t17.5 93.5t4 108t-4 108t-17.5 93.5t-37 77.5 t-63.5 49t-95 19q-40 0 -72 -10t-54.5 -26.5t-39 -42t-26.5 -53.5t-15.5 -65t-7.5 -71.5t-2 -78.5z" />
<glyph unicode="&#xff;" horiz-adv-x="928" d="M50.5 970.5q0.5 11.5 4.5 23.5q7 25 35.5 44t63.5 19q43 0 64 -25.5t38 -76.5l207 -642l211 642q8 25 15 40.5t18.5 31t28.5 23t40 7.5q34 0 62 -19t36 -44q11 -37 -11 -101l-382 -1103q-29 -84 -77 -130q-79 -78 -205 -78q-69 0 -98 25q-29 26 -29 72q0 51 31 74 q26 20 71 20q49 0 81.5 24.5t53.5 86.5l51 154l-293 855q-6 18 -9 27.5t-5.5 24t-2 26zM119 1359q0 48 34 82t81 34q48 0 83 -34t35 -82q0 -47 -35 -82.5t-83 -35.5q-47 0 -81 35t-34 83zM574 1359q0 48 35 82t83 34t82 -34t34 -82q0 -31 -15.5 -58t-42.5 -43.5t-58 -16.5 q-48 0 -83 35.5t-35 82.5z" />
<glyph unicode="&#x131;" horiz-adv-x="545" d="M168 135v778q0 38 3 56.5t12 37.5q25 50 89.5 50t90.5 -50q9 -20 12.5 -38.5t3.5 -55.5v-778q0 -36 -3.5 -55t-12.5 -39q-25 -49 -90 -49t-90 49q-9 19 -12 38t-3 56z" />
<glyph unicode="&#x152;" horiz-adv-x="2027" d="M139 736.5q0 77.5 1 124t4 104t9 93.5t16.5 78t26.5 73t38.5 63.5t53.5 62.5q149 150 382 150q174 0 299 -102q5 30 32 57q15 15 35 22.5t33 9t36 1.5h685q37 0 55.5 -3t35.5 -12q45 -25 45 -84.5t-45 -84.5q-17 -9 -35.5 -11.5t-55.5 -2.5h-592v-433h486q62 0 91 -15 q45 -25 45 -84.5t-45 -84.5q-17 -9 -35.5 -12t-55.5 -3h-486v-444h592q62 0 91 -15q45 -25 45 -85t-45 -85q-17 -9 -35.5 -11.5t-55.5 -2.5h-685q-23 0 -36 1t-33 8.5t-35 22.5q-27 28 -32 58q-125 -102 -299 -102q-233 0 -382 149q-31 31 -53.5 63t-38.5 63t-26.5 73.5 t-16.5 78.5t-9 93.5t-4 104t-1 124zM363 736q0 -223 16 -311.5t70 -145.5q87 -93 221 -93q131 0 219 93q54 57 70.5 146t16.5 311q0 153 -7 234.5t-25 133t-55 91.5q-87 92 -219 92q-135 0 -221 -92q-54 -57 -70 -146.5t-16 -312.5z" />
<glyph unicode="&#x153;" horiz-adv-x="1779" d="M119 524.5q0 144.5 26 241.5t98 171q122 126 314 126q112 0 198.5 -45t139.5 -124q113 169 332 169q134 -1 234.5 -63t154 -169t56.5 -246v-9q0 -57 -30 -86q-12 -13 -30 -19t-29 -6.5t-34 -0.5h-557q0 -90 30.5 -156.5t91.5 -103t146 -36.5q121 0 202 65q48 39 86 39 q33 0 60 -27.5t27 -62.5q0 -59 -106 -127q-102 -67 -275 -67q-246 0 -362 166q-52 -78 -138.5 -122t-196.5 -44q-193 0 -314 124q-72 74 -98 171t-26 241.5zM331 524q0 -102 14.5 -172.5t57.5 -113.5q59 -60 154 -60q93 0 152 60q43 43 58 114t15 172q0 66 -5 113 t-21.5 95.5t-46.5 78.5q-58 60 -152 60q-96 0 -154 -60q-23 -23 -37.5 -54.5t-22 -70.5t-10 -76t-2.5 -86zM992 610h471q-2 34 -4.5 56t-8.5 43t-16 43q-27 61 -81 97t-126 36q-49 0 -90.5 -17t-70.5 -46t-47 -70q-8 -17 -12.5 -32t-7.5 -32t-4.5 -35t-2.5 -43z" />
<glyph unicode="&#x178;" horiz-adv-x="1081" d="M45 1386q1 25 16 47t42 36q24 12 54 12q27 0 50 -15q16 -11 25.5 -25.5t29.5 -52.5l279 -560l279 560q19 38 29 52.5t26 25.5q22 15 50 15q29 0 54 -12q13 -7 24 -16.5t18 -20t11 -22.5t4 -24q1 -21 -5 -39.5t-23 -52.5l-356 -707v-444q0 -43 -2.5 -61.5t-13.5 -39.5 q-12 -23 -37 -36.5t-57.5 -13.5t-58 13.5t-38.5 36.5q-10 21 -13 39.5t-3 61.5v444l-355 707q-18 34 -23.5 52.5t-5.5 39.5zM197 1735q0 32 15.5 58.5t42 42t57.5 15.5q48 0 83 -34t35 -82q0 -31 -16 -58t-43.5 -43t-58.5 -16q-47 0 -81 34.5t-34 82.5zM649 1735.5 q0 47.5 35.5 81.5t83.5 34q47 0 81 -34t34 -82t-34 -82.5t-81 -34.5q-48 0 -83.5 35t-35.5 82.5z" />
<glyph unicode="&#x192;" horiz-adv-x="904" d="M70 728q0 48 36 68q24 13 74 13h126l77 384q20 97 64.5 162t108 96.5t145.5 31.5h19q63 0 90 -15q42 -22 42 -75t-41 -76q-21 -13 -61 -14h-19q-122 -3 -147 -131l-73 -363h122q49 0 73 -13q37 -20 37 -68t-37 -68q-22 -13 -73 -13h-154l-192 -962q-7 -37 -15 -56.5 t-26 -36.5q-24 -23 -63 -23q-41 0 -72 29q-23 23 -26.5 57t6.5 69l183 923h-94q-52 0 -74 13q-36 19 -36 68z" />
<glyph unicode="&#x2c6;" horiz-adv-x="1112" d="M249 1317q4 15 13 27.5t32 35.5l172 171q11 12 18 18.5t19.5 15t25.5 12.5t28 4q19 0 37 -8.5t28 -17t25 -24.5l172 -171q23 -23 32 -35.5t13 -27.5q12 -45 -23 -80q-36 -35 -78 -23q-28 7 -65 44l-141 144l-142 -144q-37 -37 -65 -44q-41 -12 -78 23q-35 35 -23 80z" />
<glyph unicode="&#x2c7;" horiz-adv-x="1112" d="M248 1492q-10 43 24 78t78 24q29 -9 64 -45l143 -142l142 142q36 36 64 45q43 11 78 -24q34 -35 24 -78q-9 -28 -45 -64l-173 -173q-14 -14 -24 -22.5t-28.5 -17t-38 -8.5t-38 8.5t-28.5 17t-24 22.5l-173 173q-36 36 -45 64z" />
<glyph unicode="&#x2d8;" horiz-adv-x="1112" d="M249 1412q-1 32 22 58q25 28 61 27q26 -2 56 -27q85 -75 168.5 -75t168.5 75q31 25 56 27q36 1 61 -27q23 -26 22 -58q-2 -38 -47 -78q-29 -26 -57.5 -45t-60.5 -33t-67.5 -20.5t-74.5 -6.5q-79 0 -141 26t-120 79q-45 40 -47 78z" />
<glyph unicode="&#x2d9;" horiz-adv-x="1112" d="M439 1368.5q0 47.5 35 82t83 34.5q18 0 36 -6t32.5 -17t25.5 -25t17 -32t6 -36q0 -48 -35 -83t-82.5 -35t-82.5 35t-35 82.5z" />
<glyph unicode="&#x2da;" horiz-adv-x="1112" d="M298 1450.5q0 106.5 76 182.5t182.5 76t182.5 -76t76 -182.5t-76 -182.5t-182.5 -76t-182.5 76t-76 182.5zM425 1450.5q0 -54.5 38.5 -93t93.5 -38.5q26 0 50.5 10.5t42 28t28 42t10.5 50.5q0 55 -38.5 93.5t-93 38.5t-93 -38.5t-38.5 -93z" />
<glyph unicode="&#x2db;" horiz-adv-x="1034" d="M318 -415q1 17 8 32.5t25 44.5l96 154q27 44 46 57q22 16 49 16t51 -15q48 -30 44 -80q0 -17 -7 -32t-25 -45l-96 -153q-26 -43 -45 -58q-25 -16 -49 -16q-27 0 -51 16q-49 29 -46 79z" />
<glyph unicode="&#x2dc;" horiz-adv-x="1112" d="M201 1358q0 39 47 79q24 20 46.5 33t44 20t40.5 9.5t42 2.5q44 0 77 -10.5t78 -36.5q17 -10 28.5 -15.5t26 -11.5t28 -8.5t28.5 -2.5q26 0 45 7t46 28q33 27 60 27q36 0 57 -24q17 -20 17 -53q0 -40 -47 -80q-47 -37 -86.5 -51t-86.5 -14q-30 0 -55 5t-48 14.5t-53 27.5 q-36 21 -58.5 29.5t-51.5 8.5q-26 0 -45 -7t-46 -28q-33 -26 -61 -26q-35 0 -56 23q-17 20 -17 54z" />
<glyph unicode="&#x2dd;" horiz-adv-x="1112" d="M290 1321q0 12 3.5 22.5t9.5 22t18 31.5l97 154q26 42 46 57q23 17 48 17t51 -16q47 -30 44 -80q-1 -16 -7.5 -31t-24.5 -45l-96 -154q-26 -42 -46 -57q-23 -17 -48 -17t-51 16q-47 30 -44 80zM674 1321q0 17 6.5 32t24.5 44l97 154q25 42 45 57q24 17 49 17t50 -16 q48 -30 45 -80q-1 -16 -7.5 -31t-25.5 -45l-95 -154q-26 -42 -46 -57q-23 -17 -48 -17t-51 16q-48 30 -44 80z" />
<glyph unicode="&#x3a9;" horiz-adv-x="1391" d="M104 99q0 60 45 85q30 15 92 15h77q-68 62 -98 126q-32 70 -42.5 164t-10.5 247q0 69 0.5 110t2.5 93.5t6 85t11 73t18 68t26 58.5t35.5 58t47.5 53q150 150 382 150t382 -150q30 -30 52.5 -62.5t38.5 -63t26.5 -73.5t16.5 -78t9 -93.5t3.5 -104t0.5 -124.5 q0 -101 -3.5 -167t-15.5 -131t-34 -113q-30 -64 -98 -126h77q62 0 91 -15q46 -25 46 -85t-46 -85q-17 -9 -35 -11.5t-56 -2.5h-265q-58 0 -84 22q-28 25 -28 73q0 30 13.5 50t40.5 38q30 19 51 36.5t40.5 42t35.5 54.5q28 53 37.5 150.5t9.5 269.5q0 223 -16.5 312.5 t-70.5 146.5q-85 92 -219 92t-219 -92q-55 -57 -71 -146.5t-16 -312.5q0 -172 9.5 -269.5t36.5 -150.5q24 -44 53.5 -74t74.5 -59q27 -18 40.5 -38t13.5 -50q0 -49 -27 -73q-26 -22 -84 -22h-266q-64 0 -92 14q-45 25 -45 85z" />
<glyph unicode="&#x3c0;" horiz-adv-x="1194" d="M168 135v784q0 17 0.5 26t3 24t9 27t17.5 23q14 14 33.5 21t31 7.5t34.5 0.5h602q23 0 34.5 -0.5t31 -7.5t33.5 -21q11 -11 17.5 -23t9 -27t3 -24t0.5 -26v-784q0 -36 -3.5 -55t-12.5 -39q-25 -49 -90 -49t-90 49q-6 13 -9 25t-4.5 27.5t-1.5 41.5v723h-438v-723 q0 -36 -3.5 -55t-12.5 -39q-25 -49 -90 -49t-90 49q-9 19 -12 38t-3 56z" />
<glyph unicode="&#x400;" horiz-adv-x="1243" d="M191 136v1200q0 23 1 36t8.5 33t22.5 35t35.5 22.5t33.5 9t36 1.5h678q37 0 55.5 -3t35.5 -12q46 -25 46 -84t-46 -85q-17 -9 -35.5 -11.5t-55.5 -2.5h-591v-433h486q62 0 91 -15q45 -25 45 -84.5t-45 -84.5q-9 -5 -17.5 -8t-19.5 -4.5t-23 -2t-31 -0.5h-486v-444h591 q62 0 91 -15q46 -26 46 -85t-46 -85q-17 -9 -35.5 -11.5t-55.5 -2.5h-678q-23 0 -36 1t-33.5 8.5t-35.5 22.5t-22.5 35.5t-8.5 33.5t-1 35zM408 1897q-3 49 45 80q25 15 51 15t48 -16q20 -15 46 -57l96 -155q18 -29 24.5 -44.5t7.5 -31.5q3 -50 -44 -80q-24 -15 -50.5 -15 t-48.5 16q-21 15 -47 57l-96 154q-12 20 -18.5 32t-9.5 22.5t-4 22.5z" />
<glyph unicode="&#x401;" horiz-adv-x="1243" d="M191 136v1200q0 23 1 36t8.5 33t22.5 35t35.5 22.5t33.5 9t36 1.5h678q37 0 55.5 -3t35.5 -12q46 -25 46 -84t-46 -85q-17 -9 -35.5 -11.5t-55.5 -2.5h-591v-433h486q62 0 91 -15q45 -25 45 -84.5t-45 -84.5q-9 -5 -17.5 -8t-19.5 -4.5t-23 -2t-31 -0.5h-486v-444h591 q62 0 91 -15q46 -26 46 -85t-46 -85q-17 -9 -35.5 -11.5t-55.5 -2.5h-678q-23 0 -36 1t-33.5 8.5t-35.5 22.5t-22.5 35.5t-8.5 33.5t-1 35zM306 1735q0 48 34 82t82 34t83 -34t35 -82q0 -31 -16 -58t-43.5 -43t-58.5 -16t-58 16t-42.5 43t-15.5 58zM760 1735q0 48 34.5 82 t82 34t82 -34t34.5 -82t-34.5 -82.5t-82 -34.5t-82 34.5t-34.5 82.5z" />
<glyph unicode="&#x402;" horiz-adv-x="1528" d="M52 1373.5q0 59.5 45 84.5q12 6 24 9.5t27 4.5t40 1h777q64 0 91 -15q46 -25 46 -84.5t-46 -84.5q-27 -14 -91 -14h-341v-361h299q212 0 339 -120t128 -334q0 -212 -123 -337.5t-326 -126.5h-13q-39 0 -65 14q-50 26 -50 88q0 57 39 82q16 12 55 13h7q120 4 186.5 72 t66.5 193q-1 128 -70 195t-192 67h-281v-577q0 -43 -2.5 -61.5t-13.5 -39.5q-12 -23 -37 -36.5t-58 -13.5t-57.5 13.5t-37.5 36.5q-11 22 -14 40.5t-3 60.5v1132h-213q-37 0 -55.5 2.5t-35.5 11.5q-45 25 -45 84.5z" />
<glyph unicode="&#x403;" horiz-adv-x="1158" d="M191 143v1193q0 23 1 36t8.5 33t22.5 35t35.5 22.5t33.5 9t36 1.5h644q25 0 39.5 -1t27 -4.5t24.5 -9.5q45 -25 45 -84.5t-45 -84.5q-17 -9 -35.5 -11.5t-55.5 -2.5h-557v-1132q0 -42 -3 -60.5t-14 -40.5q-12 -23 -37 -36.5t-58 -13.5t-58 13.5t-37 36.5q-11 22 -14 40.5 t-3 60.5zM511 1688q1 11 4 22t9.5 22.5t18.5 31.5l96 155q26 42 46 57q22 16 48.5 16t50.5 -15q47 -30 44 -80q-1 -17 -7.5 -32.5t-24.5 -44.5l-96 -154q-27 -43 -46 -57q-22 -16 -48 -16t-50 15q-48 30 -45 80z" />
<glyph unicode="&#x404;" horiz-adv-x="1295" d="M139 736.5q0 77.5 1 124t4 104t9 93.5t16.5 78t26.5 73t38.5 63.5t53.5 62.5q149 150 379 150q68 0 125 -10t103.5 -30t84.5 -47.5t72 -64.5q57 -61 85.5 -126t28.5 -111q0 -54 -31 -84q-33 -30 -77 -30q-40 0 -66 21q-28 21 -55 84q-41 98 -107.5 149t-166.5 51 q-127 0 -213 -92q-34 -37 -52 -81t-25.5 -105.5t-9.5 -166.5h369q62 0 91 -15q46 -25 46 -84.5t-46 -84.5q-17 -9 -35.5 -12t-55.5 -3h-369q2 -160 19.5 -235.5t67.5 -129.5q86 -92 213 -92q100 0 166.5 50.5t107.5 149.5q27 63 55 84q26 21 66 21q44 0 77 -30 q31 -31 31 -84q0 -46 -28.5 -111t-85.5 -127q-71 -75 -161.5 -113t-223.5 -38q-230 0 -379 149q-31 31 -53.5 63t-38.5 63t-26.5 73.5t-16.5 78.5t-9 93.5t-4 104t-1 124z" />
<glyph unicode="&#x405;" horiz-adv-x="1222" d="M86 217q0 43 31 74q26 26 65 26q43 0 95 -36q74 -52 146 -73.5t168 -21.5q146 0 225 59.5t79 168.5q0 103 -59 153q-54 48 -159 62l-175 24q-176 26 -279 120q-108 99 -108 281q0 195 132.5 313t359.5 118q70 0 125.5 -9t107 -27t113.5 -51q90 -48 90 -112q0 -39 -25 -69 q-26 -31 -69 -31q-37 0 -89 31q-66 40 -125 56.5t-136 16.5q-127 0 -197 -62.5t-70 -165.5q0 -93 54 -138q29 -26 66 -41.5t95 -24.5l176 -27q100 -15 162.5 -40t110.5 -69q120 -111 120 -302q0 -133 -67.5 -231.5t-187 -149.5t-274.5 -51q-129 0 -220.5 24t-176.5 75 q-40 23 -62 42t-32 40t-10 48z" />
<glyph unicode="&#x406;" horiz-adv-x="606" d="M191 143v1186q0 42 3 61t14 40q12 23 37 37t58 14t58 -14t37 -37q11 -21 14 -40t3 -61v-1186q0 -42 -3 -60.5t-14 -40.5q-12 -23 -37 -36.5t-58 -13.5t-58 13.5t-37 36.5q-11 22 -14 40.5t-3 60.5z" />
<glyph unicode="&#x407;" horiz-adv-x="606" d="M-16 1746q0 48 33.5 81.5t81.5 33.5t83 -33.5t35 -81.5q0 -47 -35 -82.5t-83 -35.5q-31 0 -57.5 16t-42 43.5t-15.5 58.5zM191 143v1186q0 42 3 61t14 40q12 23 37 37t58 14t58 -14t37 -37q11 -21 14 -40t3 -61v-1186q0 -42 -3 -60.5t-14 -40.5q-12 -23 -37 -36.5 t-58 -13.5t-58 13.5t-37 36.5q-11 22 -14 40.5t-3 60.5zM393 1746q0 48 35 81.5t83 33.5t82 -33.5t34 -81.5t-34 -83t-82 -35t-83 35.5t-35 82.5z" />
<glyph unicode="&#x408;" horiz-adv-x="1046" d="M52 164q0 41 30 71q28 27 62 27q35 0 85 -31q72 -45 159 -45q127 0 196.5 76t69.5 222v845q0 42 3.5 61t14.5 40q12 23 37 37t57.5 14t57.5 -14t38 -37q7 -14 10.5 -27.5t4.5 -28t1 -45.5v-863q0 -112 -38.5 -203t-105 -150.5t-155.5 -92t-191 -32.5q-167 0 -284 84 q-52 39 -52 92z" />
<glyph unicode="&#x409;" horiz-adv-x="2185" d="M52 100q0 28 12.5 50.5t33.5 34.5q23 14 58 15q141 3 204 158.5t63 493.5v484q0 23 1 36t9 33t23 35t35 22.5t33 9t36 1.5h600q23 0 36 -1.5t33.5 -9t35.5 -22.5q11 -11 18 -24t10 -28.5t3.5 -25t0.5 -26.5v-444h338q85 0 159.5 -21.5t131.5 -61.5t97.5 -95t62 -123 t21.5 -144.5t-21.5 -145t-62 -123.5t-97.5 -95t-131.5 -61.5t-159.5 -21.5h-425q-23 0 -36 1t-33 8.5t-35 22.5t-22.5 35.5t-8.5 33.5t-1 35v1139h-435v-467q0 -154 -12 -274.5t-38 -210t-62 -151.5t-87 -100t-111 -55t-136 -17q-69 0 -95 14q-21 12 -33.5 34.5t-12.5 51.5z M1297 199h326q120 0 190.5 65t70.5 182q0 77 -32.5 133t-91 85t-137.5 29h-326v-494z" />
<glyph unicode="&#x40a;" horiz-adv-x="2125" d="M191 143v1186q0 42 3 61t14 40q12 23 37 37t58 14t58 -14t37 -37q11 -21 14 -40t3 -61v-437h597v437q0 29 1 44.5t4.5 28.5t11.5 28q13 23 37.5 37t57.5 14t58 -14t37 -37q11 -21 14 -40t3 -61v-437h339q106 0 194.5 -33.5t148.5 -93t93.5 -141.5t33.5 -177.5t-33.5 -178 t-93.5 -141.5t-148.5 -93t-194.5 -34h-426q-23 0 -36 1t-33.5 8.5t-35.5 22.5t-22.5 35.5t-8.5 33.5t-1 35v557h-597v-550q0 -42 -3 -60.5t-14 -40.5q-12 -23 -37 -36.5t-58 -13.5t-58 13.5t-37 36.5q-11 22 -14 40.5t-3 60.5zM1236 199h325q120 0 190.5 65t70.5 182 q0 77 -32.5 133t-91 85t-137.5 29h-325v-494z" />
<glyph unicode="&#x40b;" horiz-adv-x="1542" d="M52 1373.5q0 59.5 45 84.5q12 6 24 9.5t27 4.5t40 1h778q64 0 91 -15q46 -25 46 -84.5t-46 -84.5q-27 -14 -91 -14h-344v-361h298q209 0 337.5 -121t128.5 -319v-331q0 -43 -3 -61.5t-13 -39.5q-13 -23 -38 -36.5t-57.5 -13.5t-58 13.5t-37.5 36.5q-11 21 -13.5 39.5 t-2.5 61.5v331q0 113 -70 177.5t-191 64.5h-280v-573q0 -43 -2.5 -61.5t-13.5 -39.5q-12 -23 -37 -36.5t-58 -13.5t-57.5 13.5t-37.5 36.5q-11 22 -14 40.5t-3 60.5v1132h-211q-37 0 -55.5 2.5t-35.5 11.5q-45 25 -45 84.5z" />
<glyph unicode="&#x40c;" horiz-adv-x="1275" d="M191 143v1186q0 42 3 61t14 40q12 23 37 37t58 14t58 -14t37 -37q11 -21 14 -40t3 -61v-466h77l454 551q21 24 34.5 37t30.5 21.5t37 8.5q40 0 70 -26q40 -34 40 -80q0 -23 -10.5 -42.5t-38.5 -53.5l-432 -508l475 -576q29 -34 39.5 -54t10.5 -43q0 -47 -40 -81 q-30 -25 -70 -25q-29 0 -50.5 15t-51.5 52l-492 596h-83v-512q0 -42 -3 -60.5t-14 -40.5q-12 -23 -37 -36.5t-58 -13.5t-58 13.5t-37 36.5q-11 22 -14 40.5t-3 60.5zM576 1688q0 16 7 31.5t25 44.5l96 155q26 42 45 57q22 16 50 16q26 0 50 -15q48 -30 45 -80 q-1 -12 -4 -22.5t-9.5 -22.5t-18.5 -32l-96 -154q-27 -43 -46 -57q-22 -16 -48 -16q-28 0 -52 15q-48 30 -44 80z" />
<glyph unicode="&#x40d;" horiz-adv-x="1469" d="M191 133v1196q0 42 3 61t14 40q12 23 37 37t58 14t58 -14t37 -37q11 -21 14 -40t3 -61v-916l619 970q33 51 63 74.5t69 23.5q48 0 81 -34q32 -31 32 -108v-1196q0 -29 -1.5 -44.5t-5 -28.5t-11.5 -28q-12 -23 -37 -36.5t-57.5 -13.5t-57.5 13.5t-37 36.5 q-11 22 -14.5 40.5t-3.5 60.5v917l-618 -970q-22 -34 -40.5 -54.5t-41 -32t-48.5 -11.5q-48 0 -83 34q-32 33 -32 107zM494 1897q-3 49 45 80q25 15 51 15t48 -16q20 -15 46 -57l96 -155q18 -29 24.5 -44.5t7.5 -31.5q3 -50 -44 -80q-25 -15 -51 -15t-48 16q-21 15 -47 57 l-96 154q-18 29 -24.5 44.5t-7.5 32.5z" />
<glyph unicode="&#x40e;" horiz-adv-x="1073" d="M41 1356q-5 22 0 47.5t26 45.5q30 33 80 33q36 0 62 -22q15 -11 25 -28.5t24 -55.5l285 -746l274 746q14 38 24 55.5t25 28.5q26 22 61 22q50 0 81 -33q20 -20 25.5 -45.5t0.5 -47.5t-18 -55l-382 -1017q-53 -141 -134.5 -212.5t-200.5 -71.5h-34q-63 0 -91 14 q-21 11 -33.5 34t-12.5 51q0 60 46 85q27 15 89 15q52 0 82.5 21.5t58.5 75.5l25 48l-370 957q-13 33 -18 55zM243 1790q-1 31 22 57q25 28 61 27q27 -2 56 -27q85 -74 168.5 -74t168.5 74q29 25 56 27q35 1 60 -27q24 -27 22 -57q-1 -39 -46 -78q-58 -53 -120.5 -79.5 t-140 -26.5t-140 26.5t-120.5 79.5q-45 39 -47 78z" />
<glyph unicode="&#x40f;" horiz-adv-x="1425" d="M191 136v1193q0 42 3 61t14 40q12 23 37 37t58 14t58 -14t37 -37q11 -21 14 -40t3 -61v-1130h595v1130q0 42 3 61t14 40q13 23 37.5 37t57.5 14t58 -14t37 -37q11 -21 14 -40t3 -61v-1193q0 -17 -0.5 -26.5t-3 -24.5t-10 -28t-18.5 -25q-15 -15 -35.5 -22.5t-33.5 -8.5 t-36 -1h-273v-188q0 -30 -1 -45t-4 -28.5t-11 -28.5q-12 -23 -37 -36.5t-58 -13.5t-58.5 13.5t-37.5 36.5q-11 21 -13.5 39.5t-2.5 62.5v188h-273q-23 0 -36 1t-33.5 8.5t-35.5 22.5t-22.5 35.5t-8.5 33.5t-1 35z" />
<glyph unicode="&#x410;" horiz-adv-x="1287" d="M47.5 94.5q1.5 19.5 6 36t14.5 42.5l450 1201q19 52 45 76q33 31 81.5 31t81.5 -31q26 -24 45 -76l450 -1201q13 -34 18 -55.5t0 -46.5t-25 -46q-32 -33 -82 -33q-34 0 -60 21q-15 12 -25 29.5t-24 55.5l-74 198h-610l-73 -198q-14 -38 -24 -55.5t-25 -29.5 q-26 -21 -60 -21q-51 0 -82 33q-16 16 -22.5 33t-5 36.5zM408 486h472l-236 644z" />
<glyph unicode="&#x411;" horiz-adv-x="1303" d="M191 136v1200q0 23 1 36t8.5 33t22.5 35t35.5 22.5t33.5 9t36 1.5h681q65 0 92 -15q45 -25 45 -84.5t-45 -84.5q-27 -14 -92 -14h-594v-383h337q85 0 159.5 -21.5t131.5 -61.5t98 -95t62 -123t21 -145q0 -95 -33.5 -177.5t-94 -141.5t-149.5 -93t-195 -34h-424 q-23 0 -36 1t-33.5 8.5t-35.5 22.5t-22.5 35.5t-8.5 33.5t-1 35zM415 199h325q120 0 190.5 65t70.5 182q0 116 -70.5 181.5t-190.5 65.5h-325v-494z" />
<glyph unicode="&#x412;" horiz-adv-x="1370" d="M191 136v1200q0 23 1 36t8.5 33t22.5 35t35.5 22.5t33.5 9t36 1.5h437q101 0 184 -28.5t140.5 -80t88.5 -127t31 -167.5q0 -113 -59 -196.5t-140 -115.5q45 -18 83.5 -47.5t70.5 -70.5t50 -99t18 -125q0 -132 -57.5 -227t-157 -142t-230.5 -47h-459q-23 0 -36 1 t-33.5 8.5t-35.5 22.5t-22.5 35.5t-8.5 33.5t-1 35zM415 199h352q113 0 177 63t64 164q0 66 -27.5 116t-82.5 79t-131 29h-352v-451zM415 849h330q109 0 175 56t66 157q0 67 -30.5 115.5t-84.5 73t-126 24.5h-330v-426z" />
<glyph unicode="&#x413;" horiz-adv-x="1158" d="M191 143v1193q0 23 1 36t8.5 33t22.5 35t35.5 22.5t33.5 9t36 1.5h644q25 0 39.5 -1t27 -4.5t24.5 -9.5q45 -25 45 -84.5t-45 -84.5q-17 -9 -35.5 -11.5t-55.5 -2.5h-557v-1132q0 -42 -3 -60.5t-14 -40.5q-12 -23 -37 -36.5t-58 -13.5t-58 13.5t-37 36.5q-11 22 -14 40.5 t-3 60.5z" />
<glyph unicode="&#x414;" horiz-adv-x="1446" d="M39 62q0 23 1 36t9 33.5t23 35.5t35 22.5t33 8.5t36 1h3q170 333 170 878v266q0 21 1 33.5t8.5 33t22.5 34.5q10 11 21 17t25 8.5t22 3t26 0.5h595q22 0 35 -1.5t33.5 -9t35.5 -22.5t22.5 -35t8.5 -33t1 -36v-1137h36h18t16.5 -1t18.5 -3t17.5 -5.5t18 -9.5t15.5 -13 q12 -12 19 -25t9.5 -28.5t3.5 -25t1 -26.5v-250q0 -44 -3 -62.5t-14 -39.5q-6 -11 -15.5 -20.5t-21.5 -16t-27 -10t-31 -3.5q-33 0 -58 13.5t-37 36.5q-11 21 -14 39.5t-3 62.5v188h-892v-188q0 -44 -3 -62.5t-14 -39.5q-12 -23 -37 -36.5t-57.5 -13.5t-58 13.5t-37.5 36.5 q-11 21 -14 39.5t-3 62.5v250zM411 199h572v1076h-417v-317q0 -448 -155 -759z" />
<glyph unicode="&#x415;" horiz-adv-x="1243" d="M191 136v1200q0 23 1 36t8.5 33t22.5 35t35.5 22.5t33.5 9t36 1.5h678q37 0 55.5 -3t35.5 -12q46 -25 46 -84t-46 -85q-17 -9 -35.5 -11.5t-55.5 -2.5h-591v-433h486q62 0 91 -15q45 -25 45 -84.5t-45 -84.5q-9 -5 -17.5 -8t-19.5 -4.5t-23 -2t-31 -0.5h-486v-444h591 q62 0 91 -15q46 -26 46 -85t-46 -85q-17 -9 -35.5 -11.5t-55.5 -2.5h-678q-23 0 -36 1t-33.5 8.5t-35.5 22.5t-22.5 35.5t-8.5 33.5t-1 35z" />
<glyph unicode="&#x416;" horiz-adv-x="1925" d="M75 98q0 23 10.5 43t38.5 54l476 576l-432 508q-29 34 -39.5 53.5t-10.5 42.5q0 46 41 80q30 26 68 26q29 0 51 -15.5t52 -51.5l454 -551h67v466q0 31 1 45.5t4.5 28t11.5 27.5q12 23 37 37t58 14q13 0 25 -2.5t22.5 -7t20 -10.5t16.5 -14t11 -17q5 -9 8 -17t5 -15 t2.5 -18t1 -21.5t0.5 -29.5v-466h66l455 551q30 36 51.5 51.5t50.5 15.5q40 0 70 -26q40 -34 40 -80q0 -23 -10.5 -42.5t-39.5 -53.5l-432 -508l476 -576q28 -34 38.5 -54t10.5 -43q0 -47 -40 -81q-30 -25 -70 -25q-29 0 -50 15t-52 52l-492 596h-72v-512q0 -43 -3 -61.5 t-14 -39.5q-12 -23 -37.5 -36.5t-58 -13.5t-57.5 13.5t-37 36.5q-11 21 -14 39.5t-3 61.5v512h-72l-492 -596q-30 -36 -52 -51.5t-51 -15.5q-39 0 -69 25q-40 34 -40 81z" />
<glyph unicode="&#x417;" horiz-adv-x="1283" d="M122 373q0 50 31 80q30 30 74 30t75 -24q25 -20 58 -94q35 -85 105.5 -133.5t177.5 -48.5q126 0 202 65.5t76 174.5q0 116 -66.5 176.5t-193.5 60.5h-78q-59 0 -86 14q-43 24 -43 78q0 56 43 80q27 14 86 14h81q111 0 173.5 59.5t62.5 167.5q0 102 -69 160.5t-186 58.5 q-107 0 -179.5 -52t-107.5 -149q-18 -49 -49 -75q-29 -24 -75 -24q-38 0 -73 30q-32 30 -32 79q0 34 12.5 72.5t36.5 77.5t56 74q147 160 406 160q141 0 250 -48.5t170.5 -139.5t61.5 -211q0 -75 -23.5 -137.5t-68.5 -109.5t-110 -78q109 -44 167.5 -131.5t58.5 -213.5 q0 -128 -66 -226t-181 -150t-260 -52q-141 0 -240.5 40.5t-172.5 118.5q-104 113 -104 226z" />
<glyph unicode="&#x418;" horiz-adv-x="1469" d="M191 133v1196q0 42 3 61t14 40q12 23 37 37t58 14t58 -14t37 -37q11 -21 14 -40t3 -61v-916l619 970q33 51 63 74.5t69 23.5q48 0 81 -34q32 -31 32 -108v-1196q0 -29 -1.5 -44.5t-5 -28.5t-11.5 -28q-12 -23 -37 -36.5t-57.5 -13.5t-57.5 13.5t-37 36.5 q-11 22 -14.5 40.5t-3.5 60.5v917l-618 -970q-22 -34 -40.5 -54.5t-41 -32t-48.5 -11.5q-48 0 -83 34q-32 33 -32 107z" />
<glyph unicode="&#x419;" horiz-adv-x="1469" d="M191 133v1196q0 42 3 61t14 40q12 23 37 37t58 14t58 -14t37 -37q11 -21 14 -40t3 -61v-916l619 970q33 51 63 74.5t69 23.5q48 0 81 -34q32 -31 32 -108v-1196q0 -29 -1.5 -44.5t-5 -28.5t-11.5 -28q-12 -23 -37 -36.5t-57.5 -13.5t-57.5 13.5t-37 36.5 q-11 22 -14.5 40.5t-3.5 60.5v917l-618 -970q-22 -34 -40.5 -54.5t-41 -32t-48.5 -11.5q-48 0 -83 34q-32 33 -32 107zM428 1790q-1 31 21 57q25 28 62 27q27 -2 56 -27q85 -74 168.5 -74t168.5 74q29 25 56 27q36 1 61 -27q23 -26 21 -57q-1 -39 -46 -78 q-58 -53 -120.5 -79.5t-140.5 -26.5q-52 0 -98 12.5t-85 35.5t-77 58q-45 39 -47 78z" />
<glyph unicode="&#x41a;" horiz-adv-x="1275" d="M191 143v1186q0 42 3 61t14 40q12 23 37 37t58 14t58 -14t37 -37q11 -21 14 -40t3 -61v-466h77l454 551q21 24 34.5 37t30.5 21.5t37 8.5q40 0 70 -26q40 -34 40 -80q0 -23 -10.5 -42.5t-38.5 -53.5l-432 -508l475 -576q29 -34 39.5 -54t10.5 -43q0 -47 -40 -81 q-30 -25 -70 -25q-29 0 -50.5 15t-51.5 52l-492 596h-83v-512q0 -42 -3 -60.5t-14 -40.5q-12 -23 -37 -36.5t-58 -13.5t-58 13.5t-37 36.5q-11 22 -14 40.5t-3 60.5z" />
<glyph unicode="&#x41b;" horiz-adv-x="1487" d="M52 100q0 28 12.5 50.5t33.5 34.5q23 14 59 15q141 3 203.5 158.5t62.5 493.5v484q0 23 1 36t9 33t23 35t35 22.5t33 9t36 1.5h600q23 0 36 -1.5t33.5 -9t35.5 -22.5q11 -11 18 -24t10 -28.5t3.5 -25t0.5 -26.5v-1193q0 -43 -2.5 -61.5t-13.5 -39.5q-13 -23 -38 -36.5 t-57.5 -13.5t-58 13.5t-37.5 36.5q-11 21 -13.5 39.5t-2.5 61.5v1132h-435v-467q0 -154 -12 -274.5t-38 -210t-62 -151.5t-87 -100t-111 -55t-136 -17q-69 0 -95 14q-21 12 -33.5 34.5t-12.5 51.5z" />
<glyph unicode="&#x41c;" horiz-adv-x="1681" d="M191 143v1200q0 71 33 105q33 33 82 33q39 0 64 -14q13 -8 28.5 -27t25.5 -41l418 -852l415 852q11 22 26.5 41t28.5 27q25 14 64 14q49 0 81 -33q34 -34 34 -105v-1200q0 -42 -3 -60.5t-14 -40.5q-13 -23 -38 -36.5t-57.5 -13.5t-57.5 13.5t-37 36.5q-11 22 -14 40.5 t-3 60.5v842l-312 -652q-13 -27 -27.5 -44.5t-36 -28t-49.5 -10.5q-41 0 -67.5 20.5t-47.5 62.5l-312 652v-842q0 -42 -3 -60.5t-14 -40.5q-12 -23 -37 -36.5t-58 -13.5t-58 13.5t-37 36.5q-11 22 -14 40.5t-3 60.5z" />
<glyph unicode="&#x41d;" horiz-adv-x="1427" d="M191 143v1186q0 42 3 61t14 40q12 23 37 37t58 14t58 -14t37 -37q11 -21 14 -40t3 -61v-486h597v486q0 29 1 44.5t4.5 28.5t11.5 28q13 23 37.5 37t57.5 14t58 -14t37 -37q11 -21 14 -40t3 -61v-1186q0 -42 -3 -60.5t-14 -40.5q-12 -23 -37 -36.5t-58 -13.5t-57.5 13.5 t-37.5 36.5q-11 22 -14 40.5t-3 60.5v501h-597v-501q0 -42 -3 -60.5t-14 -40.5q-12 -23 -37 -36.5t-58 -13.5t-58 13.5t-37 36.5q-11 22 -14 40.5t-3 60.5z" />
<glyph unicode="&#x41e;" horiz-adv-x="1338" d="M139 736.5q0 77.5 1 124t4 104t9 93.5t16.5 78t26.5 73t38.5 63.5t53.5 62.5q149 150 382 150q230 0 379 -150q36 -35 61 -70.5t41.5 -80t26 -85t14 -103.5t6 -116.5t1.5 -143.5t-1.5 -143t-6 -116.5t-14 -103.5t-26 -84.5t-41.5 -80t-61 -71.5q-149 -149 -379 -149 q-233 0 -382 149q-31 31 -53.5 63t-38.5 63t-26.5 73.5t-16.5 78.5t-9 93.5t-4 104t-1 124zM363 736q0 -223 16 -311.5t70 -145.5q87 -93 221 -93q131 0 219 93q54 57 70.5 146t16.5 311q0 153 -7 234.5t-25 133t-55 91.5q-87 92 -219 92q-135 0 -221 -92 q-54 -57 -70 -146.5t-16 -312.5z" />
<glyph unicode="&#x41f;" horiz-adv-x="1427" d="M191 143v1193q0 23 1 36t8.5 33t22.5 35t35.5 22.5t33.5 9t36 1.5h772q23 0 36 -1.5t33 -9t35 -22.5q11 -11 18.5 -24t10 -28.5t3 -25t0.5 -26.5v-1193q0 -42 -3 -60.5t-14 -40.5q-12 -23 -37 -36.5t-58 -13.5t-57.5 13.5t-37.5 36.5q-11 22 -14 40.5t-3 60.5v1132h-597 v-1132q0 -42 -3 -60.5t-14 -40.5q-12 -23 -37 -36.5t-58 -13.5t-58 13.5t-37 36.5q-11 22 -14 40.5t-3 60.5z" />
<glyph unicode="&#x420;" horiz-adv-x="1299" d="M191 143v1193q0 23 1 36t8.5 33t22.5 35t35.5 22.5t33.5 9t36 1.5h421q106 0 195 -34t149.5 -93.5t94 -141.5t33.5 -177.5t-33.5 -178t-94 -141.5t-149.5 -92.5t-195 -33.5h-334v-438q0 -42 -3 -60.5t-14 -40.5q-12 -23 -37 -36.5t-58 -13.5t-58 13.5t-37 36.5 q-11 22 -14 40.5t-3 60.5zM415 780h322q79 0 137.5 29t91 84.5t32.5 132.5q0 78 -32.5 134.5t-91 85.5t-137.5 29h-322v-495z" />
<glyph unicode="&#x421;" horiz-adv-x="1299" d="M139 736.5q0 77.5 1 124t4 104t9 93.5t16.5 78t26.5 73t38.5 63.5t53.5 62.5q149 150 379 150q68 0 125 -10t103.5 -30t84.5 -47.5t72 -64.5q57 -61 85.5 -126t28.5 -111q0 -54 -31 -84q-33 -30 -77 -30q-40 0 -66 21q-28 21 -55 84q-41 98 -107.5 149t-166.5 51 q-127 0 -213 -92q-56 -61 -71.5 -150t-15.5 -309t15.5 -309t71.5 -149q86 -92 213 -92q100 0 166.5 50.5t107.5 149.5q27 63 55 84q26 21 66 21q44 0 77 -30q31 -31 31 -84q0 -46 -28.5 -111t-85.5 -127q-71 -75 -161.5 -113t-223.5 -38q-230 0 -379 149q-31 31 -53.5 63 t-38.5 63t-26.5 73.5t-16.5 78.5t-9 93.5t-4 104t-1 124z" />
<glyph unicode="&#x422;" horiz-adv-x="1153" d="M52 1373.5q0 59.5 45 84.5q12 6 24 9.5t27 4.5t40 1h778q64 0 91 -15q46 -25 46 -84.5t-46 -84.5q-27 -14 -91 -14h-277v-1132q0 -43 -2.5 -61.5t-13.5 -39.5q-13 -23 -38.5 -36.5t-58 -13.5t-57.5 13.5t-37 36.5q-11 21 -13.5 39.5t-2.5 61.5v1132h-278q-37 0 -55.5 2.5 t-35.5 11.5q-45 25 -45 84.5z" />
<glyph unicode="&#x423;" horiz-adv-x="1073" d="M41 1356q-5 22 0 47.5t26 45.5q30 33 80 33q36 0 62 -22q15 -11 25 -28.5t24 -55.5l285 -746l274 746q14 38 24 55.5t25 28.5q26 22 61 22q50 0 81 -33q20 -20 25.5 -45.5t0.5 -47.5t-18 -55l-382 -1017q-53 -141 -134.5 -212.5t-200.5 -71.5h-34q-63 0 -91 14 q-21 11 -33.5 34t-12.5 51q0 60 46 85q27 15 89 15q52 0 82.5 21.5t58.5 75.5l25 48l-370 957q-13 33 -18 55z" />
<glyph unicode="&#x424;" horiz-adv-x="1664" d="M101 783q0 144 35.5 253t110 187t193.5 120t281 47q0 43 2.5 61.5t13.5 39.5q13 23 38 36.5t57 13.5q22 0 41 -6t33 -17.5t22 -26.5q6 -11 9 -20.5t5 -22t2 -24.5v-34q321 -11 470 -163.5t149 -443.5q0 -144 -35 -253t-109.5 -187t-193 -120t-281.5 -47v-42 q0 -43 -2.5 -61.5t-13.5 -39.5q-12 -23 -37.5 -36.5t-58 -13.5t-57.5 13.5t-38 36.5q-11 21 -13.5 39.5t-2.5 61.5v42q-321 10 -470.5 163t-149.5 444zM325 783q0 -82 12.5 -144.5t41 -114t74 -85t112.5 -52.5t156 -21v834q-111 -3 -188 -31.5t-122.5 -82.5t-65.5 -128 t-20 -175zM944 366q111 3 188 31t122.5 82t65.5 128t20 176q0 101 -20 175t-65.5 128t-122.5 82.5t-188 31.5v-834z" />
<glyph unicode="&#x425;" horiz-adv-x="1151" d="M79 99q1 21 8 39t27 53l324 565l-302 526q-20 35 -27 53t-8 39q-2 57 56 92q24 15 59 15q26 0 47.5 -13.5t34 -30t29.5 -47.5l249 -446l249 446q27 46 50 68.5t61 22.5q35 0 60 -15q56 -34 54 -92q0 -21 -7 -39.5t-27 -52.5l-302 -524l324 -567q21 -35 28 -53t8 -39 q1 -58 -55 -92q-25 -15 -61 -15q-37 0 -60 22t-50 69l-272 483l-272 -483q-26 -47 -49.5 -69t-61.5 -22q-35 0 -60 15q-56 34 -54 92z" />
<glyph unicode="&#x426;" horiz-adv-x="1477" d="M191 136v1193q0 42 3 61t14 40q12 23 37 37t58 14t58 -14t37 -37q11 -21 14 -40t3 -61v-1130h595v1130q0 42 3 61t14 40q13 23 37.5 37t57.5 14t58 -14t37 -37q11 -21 14 -40t3 -61v-1130h40q22 0 35 -1t33.5 -8.5t35.5 -22.5q11 -12 18 -25t10 -28.5t3.5 -25t0.5 -26.5 v-250q0 -42 -3 -61.5t-14 -40.5q-8 -15 -22 -26.5t-32.5 -17.5t-40.5 -6q-33 0 -58 13.5t-37 36.5q-11 21 -13.5 39.5t-2.5 62.5v188h-859q-23 0 -36 1t-33.5 8.5t-35.5 22.5t-22.5 35.5t-8.5 33.5t-1 35z" />
<glyph unicode="&#x427;" horiz-adv-x="1337" d="M143 892v437q0 42 3.5 61t14.5 40q12 23 37 37t57.5 14t57.5 -14t37 -37q8 -15 11.5 -28t5 -28.5t1.5 -44.5v-384q0 -216 227 -216q122 0 327 41v559q0 42 3 61t14 40q13 23 38 37t57.5 14t57.5 -14t37 -37q11 -21 14 -40t3 -61v-1186q0 -29 -1 -44.5t-4.5 -28.5 t-11.5 -28q-12 -23 -37 -36.5t-57.5 -13.5t-57.5 13.5t-38 36.5q-11 22 -14 40.5t-3 60.5v434q-262 -49 -394 -49q-60 0 -115 12.5t-104.5 41t-86 70t-58 103t-21.5 137.5z" />
<glyph unicode="&#x428;" horiz-adv-x="2051" d="M191 136v1193q0 42 3 61t14 40q12 23 37 37t58 14t58 -14t37 -37q11 -21 14 -40t3 -61v-1130h499v1130q0 42 3 61t14 40q13 23 37.5 37t57.5 14q22 0 41 -6.5t32.5 -18t21.5 -26.5q6 -11 9 -20t4.5 -21.5t2 -24.5t0.5 -35v-1130h500v1130q0 44 3 62t13 39q13 23 38.5 37 t58 14t57.5 -14t37 -37q6 -11 9 -20t5 -21.5t2 -24.5v-35v-1193q0 -22 -1 -35t-8.5 -33.5t-22.5 -35.5t-35 -22.5t-33 -8.5t-36 -1h-1396q-23 0 -36 1t-33.5 8.5t-35.5 22.5t-22.5 35.5t-8.5 33.5t-1 35z" />
<glyph unicode="&#x429;" horiz-adv-x="2101" d="M191 136v1193q0 42 3 61t14 40q12 23 37 37t58 14t58 -14t37 -37q11 -21 14 -40t3 -61v-1130h499v1130q0 42 3 61t14 40q13 23 37.5 37t57.5 14q22 0 41 -6.5t32.5 -18t21.5 -26.5q6 -11 9 -20t4.5 -21.5t2 -24.5t0.5 -35v-1130h500v1130q0 44 3 62t13 39q13 23 38.5 37 t58 14t57.5 -14t37 -37q6 -11 9 -20t5 -21.5t2 -24.5v-35v-1130h38q17 0 26.5 -0.5t25 -3.5t28 -10t24.5 -18q15 -15 22.5 -35.5t8.5 -33.5t1 -36v-250q0 -44 -2.5 -62.5t-13.5 -39.5q-8 -15 -21.5 -26.5t-32.5 -17.5t-41 -6t-41 6t-33 17.5t-22 26.5q-11 21 -13.5 39.5 t-2.5 62.5v188h-1483q-23 0 -36 1t-33.5 8.5t-35.5 22.5t-22.5 35.5t-8.5 33.5t-1 35z" />
<glyph unicode="&#x42a;" horiz-adv-x="1529" d="M52 1373.5q0 59.5 45 84.5q12 6 24 9.5t27 4.5t40 1h316q23 0 36 -1.5t33 -9t35 -22.5t22.5 -35t8.5 -33t1 -36v-444h339q85 0 159 -21.5t131 -61.5t98 -95t62 -123t21 -144.5t-21 -145t-62 -123.5t-98 -95t-131 -61.5t-159 -21.5h-426q-22 0 -35.5 1t-34 8.5t-35.5 22.5 t-22 35.5t-8 32.5t-1 36v1139h-229q-37 0 -55.5 2.5t-35.5 11.5q-45 25 -45 84.5zM640 199h326q119 0 189.5 65t70.5 182q0 116 -70.5 181.5t-189.5 65.5h-326v-494z" />
<glyph unicode="&#x42b;" horiz-adv-x="1815" d="M191 136v1193q0 42 3 61t14 40q12 23 37 37t58 14t58 -14t37 -37q11 -21 14 -40t3 -61v-437h337q85 0 159.5 -21.5t131.5 -61.5t98 -95t62 -123t21 -145q0 -95 -33.5 -177.5t-94 -141.5t-149.5 -93t-195 -34h-424q-23 0 -36 1t-33.5 8.5t-35.5 22.5t-22.5 35.5t-8.5 33.5 t-1 35zM415 199h325q120 0 190.5 65t70.5 182q0 116 -70.5 181.5t-190.5 65.5h-325v-494zM1402 143v1186q0 44 2.5 62t13.5 39q12 23 37 37t58 14t58 -14t37 -37q11 -21 14 -40t3 -61v-1186q0 -42 -3 -60.5t-14 -40.5q-12 -23 -37 -36.5t-58 -13.5t-58 13.5t-37 36.5 q-8 15 -11 28.5t-4 28t-1 44.5z" />
<glyph unicode="&#x42c;" horiz-adv-x="1303" d="M191 136v1193q0 42 3 61t14 40q12 23 37 37t58 14t58 -14t37 -37q11 -21 14 -40t3 -61v-437h337q85 0 159.5 -21.5t131.5 -61.5t98 -95t62 -123t21 -145q0 -95 -33.5 -177.5t-94 -141.5t-149.5 -93t-195 -34h-424q-23 0 -36 1t-33.5 8.5t-35.5 22.5t-22.5 35.5t-8.5 33.5 t-1 35zM415 199h325q120 0 190.5 65t70.5 182q0 116 -70.5 181.5t-190.5 65.5h-325v-494z" />
<glyph unicode="&#x42d;" horiz-adv-x="1295" d="M130 377q0 53 31 84q33 30 77 30q39 0 66 -21q28 -21 55 -84q41 -99 107.5 -149.5t166.5 -50.5q127 0 212 92q27 28 43 58t26 74t14 97.5t5 135.5h-369q-38 0 -56.5 3t-34.5 12q-46 25 -46 84.5t46 84.5q29 15 91 15h369q-3 154 -20.5 226.5t-67.5 126.5q-85 92 -212 92 q-100 0 -166.5 -51t-107.5 -149q-27 -63 -55 -84q-27 -21 -66 -21q-44 0 -77 30q-31 30 -31 84q0 46 28 111t85 126q71 76 162 114t224 38q229 0 379 -150q30 -30 53 -62.5t39 -63.5t26.5 -73t16.5 -78t9 -93.5t3.5 -104t0.5 -124t-0.5 -124t-3.5 -104t-9 -93.5t-16.5 -78.5 t-26.5 -73.5t-39 -63t-53 -63q-150 -149 -379 -149q-90 0 -162 18.5t-124.5 50.5t-99.5 82q-57 62 -85 127t-28 111z" />
<glyph unicode="&#x42e;" horiz-adv-x="1879" d="M191 143v1186q0 42 3 61t14 40q12 23 37 37t58 14t58 -14t37 -37q11 -21 14 -40t3 -61v-485h268q1 78 4.5 131.5t12.5 107.5t25 94.5t42 80.5t63 77q150 150 382 150q231 0 381 -150q30 -30 52.5 -62.5t38.5 -63.5t27 -73t17 -78t9 -93.5t3.5 -104t0.5 -124t-0.5 -124 t-3.5 -104t-9 -93.5t-17 -78.5t-27 -73.5t-38.5 -63t-52.5 -63q-150 -149 -381 -149q-232 0 -382 149q-38 38 -64 79t-42.5 82.5t-25 97.5t-12 111t-3.5 136h-268v-500q0 -42 -3 -60.5t-14 -40.5q-12 -23 -37 -36.5t-58 -13.5t-58 13.5t-37 36.5q-11 22 -14 40.5t-3 60.5z M906 736q0 -223 16 -311.5t71 -145.5q86 -93 219 -93q131 0 219 93q54 57 70.5 146t16.5 311t-16.5 311.5t-70.5 147.5q-87 92 -219 92q-134 0 -219 -92q-55 -57 -71 -146.5t-16 -312.5z" />
<glyph unicode="&#x42f;" horiz-adv-x="1349" d="M120 99q1 21 8 39t28 53l245 431q-127 48 -200 155t-73 250q0 96 33.5 178t94 141t149 93t194.5 34h423q23 0 36 -1.5t33 -9t35 -22.5t22.5 -35t8.5 -33t1 -36v-1193q0 -29 -1 -44.5t-4.5 -28.5t-11.5 -28q-12 -23 -37 -36.5t-57.5 -13.5t-57.5 13.5t-38 36.5 q-10 21 -13 39.5t-3 61.5v438h-305l-285 -498q-26 -47 -49.5 -69t-61.5 -22q-34 0 -59 15q-56 34 -55 92zM351 1028q0 -114 70 -181t191 -67h323v495h-323q-121 0 -191 -66t-70 -181z" />
<glyph unicode="&#x430;" horiz-adv-x="1095" d="M86 308q0 136 94.5 220t267.5 84h279v66q0 104 -52 154t-167 50q-61 0 -107.5 -17t-93.5 -53q-38 -28 -77 -28q-37 0 -60 28q-26 28 -26 65q0 63 99 121q111 64 267 64q212 0 320.5 -91.5t108.5 -270.5v-565q0 -39 -3 -58t-13 -37q-11 -22 -35.5 -35t-54.5 -13 q-47 0 -75 30q-23 26 -25 75q-62 -61 -123.5 -84.5t-158.5 -23.5q-98 0 -166 23t-115 72q-40 41 -62 99t-22 125zM292 311q0 -147 197 -147q65 0 110 12t82 47q46 44 46 157v83h-248q-93 0 -140 -39t-47 -113z" />
<glyph unicode="&#x431;" horiz-adv-x="1118" d="M133 593q0 103 1 166t3.5 136.5t7 116.5t13.5 93t21 80.5t30.5 64t42 59t54.5 50.5q80 66 215 96t281 30q62 0 88 -14q44 -25 44 -83q0 -57 -44 -82q-26 -14 -88 -14q-132 0 -234 -20.5t-163 -76.5q-52 -49 -71 -122t-19 -179q40 62 118.5 100t176.5 38q165 0 258 -87 q137 -127 137 -424q0 -152 -31.5 -249.5t-96.5 -165.5q-56 -57 -133.5 -87.5t-169.5 -30.5q-136 0 -232.5 60t-141.5 167q-67 118 -67 378zM344 516q0 -106 18 -171t55 -106q58 -62 155 -62q99 0 156 64q36 40 51 102.5t15 172.5q0 52 -4 93t-12 74.5t-20 58.5t-29 45 q-59 66 -157 66q-100 0 -158 -65q-70 -81 -70 -272z" />
<glyph unicode="&#x432;" horiz-adv-x="1130" d="M168 129v790q0 17 0.5 26t3 24t9 27t17.5 23q14 14 33.5 21t31 7.5t34.5 0.5h378q144 0 231 -76t87 -204q0 -155 -149 -227q165 -73 165 -245q0 -136 -86 -216t-233 -80h-393h-20t-19.5 2t-21 5t-19 9t-19.5 14q-14 14 -21 33t-8 31.5t-1 34.5zM379 162h260q74 0 117 40 t43 108t-42.5 107t-117.5 39h-260v-294zM379 618h248q76 0 115.5 34.5t39.5 99.5t-40.5 100.5t-114.5 35.5h-248v-270z" />
<glyph unicode="&#x433;" horiz-adv-x="892" d="M168 135v784q0 17 0.5 26t3 24t9 27t17.5 23q14 14 33.5 21t31 7.5t34.5 0.5h432q36 0 54 -2.5t32 -11.5q43 -25 43 -80.5t-43 -80.5q-26 -15 -86 -15h-350v-723q0 -36 -3.5 -55t-12.5 -39q-25 -49 -90 -49t-90 49q-9 19 -12 38t-3 56z" />
<glyph unicode="&#x434;" horiz-adv-x="1208" d="M43 61q0 22 1 34.5t8.5 32t21.5 33.5q13 13 30.5 19.5t30 8t32.5 1.5q51 97 80.5 201t38.5 274q2 45 2 254q0 24 0.5 35.5t7.5 31t21 33.5t33.5 21t31.5 7.5t35 0.5h447q23 0 34.5 -0.5t30.5 -7.5t33.5 -21t21.5 -33.5t8 -32t1 -34.5v-729h27q23 0 34.5 -1t31 -7.5 t33.5 -20.5t21 -33.5t8 -32t1 -34.5v-202q0 -37 -3 -56t-13 -38q-25 -51 -89.5 -51t-90.5 51q-9 19 -12 37.5t-3 56.5v141h-683v-141q0 -26 -1.5 -42t-4.5 -27.5t-10 -24.5q-11 -23 -34.5 -37t-56.5 -14q-64 0 -89 51q-5 9 -8 17.5t-4.5 19.5t-2.5 24t-1 33v202zM386 190 h396v668h-293v-130q-1 -195 -28 -317t-75 -221z" />
<glyph unicode="&#x435;" horiz-adv-x="1111" d="M114 524q0 255 120 396.5t325 141.5q134 0 234 -62t153 -169t56 -246q2 -65 -28 -95q-13 -13 -31.5 -19t-29.5 -6.5t-33 -0.5h-558q0 -137 70.5 -216.5t199.5 -79.5q119 0 201 65q47 39 86 39q32 0 59.5 -27.5t27.5 -62.5q0 -59 -105 -127q-103 -67 -274 -67 q-81 0 -150 17t-129.5 57t-102.5 101t-66.5 152.5t-24.5 208.5zM322 610h472q-3 52 -8.5 81t-19.5 61q-28 62 -81.5 98t-125.5 36q-38 0 -71 -10t-59 -27.5t-46 -42t-34 -54.5q-14 -33 -19.5 -62.5t-7.5 -79.5z" />
<glyph unicode="&#x436;" horiz-adv-x="1526" d="M73 85q0 22 10.5 42.5t37.5 52.5l321 367l-290 322q-15 15 -24.5 27.5t-15 24t-8 21.5t-2.5 22q0 39 33 68q29 25 66 25q24 0 44.5 -13.5t51.5 -47.5l316 -364h45v281q0 37 3 55.5t13 38.5q25 50 89.5 50t89.5 -50q10 -19 13 -37.5t3 -56.5v-281h44l317 364 q31 34 51.5 47.5t44.5 13.5q36 0 65 -25q33 -29 33 -68q0 -23 -10.5 -44t-37.5 -51l-292 -322l322 -367q14 -16 23 -28.5t15 -24t8 -21.5t2 -21q0 -40 -33 -69q-27 -24 -66 -24q-24 0 -44.5 13t-51.5 48l-346 394h-44v-312q0 -37 -3 -56t-13 -38q-24 -49 -89.5 -49t-89.5 49 q-10 20 -13 39t-3 55v312h-45l-346 -394q-31 -35 -51.5 -48t-44.5 -13q-39 0 -66 24q-32 29 -32 69z" />
<glyph unicode="&#x437;" horiz-adv-x="1011" d="M97 170q0 35 27 62q26 28 60 28q35 0 80 -30q51 -34 96.5 -48t107.5 -14q101 0 158 38t57 109q0 69 -48.5 105.5t-133.5 36.5h-62q-52 0 -73 12q-37 19 -37 67q0 49 37 69q21 12 73 12h60q77 0 122 35.5t45 99.5q0 68 -50 102.5t-146 34.5q-57 0 -96.5 -12t-86.5 -41 q-46 -27 -78 -27t-54 24q-26 25 -26 63q0 53 63 93q60 38 127.5 55.5t162.5 17.5q177 0 284.5 -76.5t107.5 -207.5q0 -77 -41.5 -138.5t-113.5 -91.5q78 -29 125 -94t47 -151q0 -142 -114 -228.5t-297 -86.5q-105 0 -175.5 19t-137.5 63q-70 46 -70 100z" />
<glyph unicode="&#x438;" horiz-adv-x="1193" d="M168 128v785q0 38 3 56.5t12 37.5q25 50 89.5 50t90.5 -50q9 -20 12.5 -38.5t3.5 -55.5v-567l408 610q35 55 64.5 78.5t66.5 23.5q47 0 76 -29q33 -34 33 -108v-786q0 -36 -3.5 -55t-12.5 -39q-25 -49 -90 -49t-90 49q-9 19 -12 38t-3 56v568l-408 -611 q-35 -54 -64.5 -77t-66.5 -23q-47 0 -75 28q-34 33 -34 108z" />
<glyph unicode="&#x439;" horiz-adv-x="1193" d="M168 128v785q0 38 3 56.5t12 37.5q25 50 89.5 50t90.5 -50q9 -20 12.5 -38.5t3.5 -55.5v-567l408 610q35 55 64.5 78.5t66.5 23.5q47 0 76 -29q33 -34 33 -108v-786q0 -36 -3.5 -55t-12.5 -39q-25 -49 -90 -49t-90 49q-9 19 -12 38t-3 56v568l-408 -611 q-35 -54 -64.5 -77t-66.5 -23q-47 0 -75 28q-34 33 -34 108zM291 1412q-2 32 21 58q26 28 62 27q25 -2 55 -27q85 -75 168.5 -75t169.5 75q30 25 55 27q35 1 61 -27q24 -27 22 -58q-2 -38 -47 -78q-28 -26 -57 -45t-60.5 -33t-67 -20.5t-75.5 -6.5q-78 0 -140.5 26 t-120.5 79q-45 40 -46 78z" />
<glyph unicode="&#x43a;" horiz-adv-x="1041" d="M168 135v778q0 38 3 56.5t12 37.5q25 50 89.5 50t90.5 -50q9 -20 12.5 -38.5t3.5 -55.5v-281h49l316 364q31 34 52 47.5t45 13.5q37 0 65 -25q33 -29 33 -68q0 -23 -10 -44t-38 -51l-292 -322l321 -367q28 -32 38.5 -52.5t10.5 -42.5q0 -40 -33 -69q-27 -24 -65 -24 q-25 0 -45.5 13t-50.5 48l-347 394h-49v-312q0 -36 -3.5 -55t-12.5 -39q-25 -49 -90 -49t-90 49q-9 19 -12 38t-3 56z" />
<glyph unicode="&#x43b;" horiz-adv-x="1165" d="M35 92q0 55 42 79q13 8 43 12q23 3 41.5 12t37.5 27t33 49.5t25.5 76t17.5 110t6 147.5v314q0 24 0.5 35.5t7.5 31t21 33.5t33.5 21t31.5 7.5t35 0.5h459q23 0 34.5 -0.5t31 -7.5t33.5 -21q10 -11 17 -23t9.5 -27t3 -24t0.5 -26v-784q0 -37 -3 -56t-12 -38 q-25 -49 -90 -49t-90 49q-6 14 -9.5 25.5t-5 27.5t-1.5 41v723h-303v-297q0 -130 -15 -227t-42.5 -160.5t-69.5 -102.5t-91.5 -55t-113.5 -16q-47 0 -74 14q-20 11 -31.5 31.5t-11.5 46.5z" />
<glyph unicode="&#x43c;" horiz-adv-x="1381" d="M168 135v786q0 73 34 107q31 29 74 29q41 0 72.5 -27t63.5 -85l279 -504l280 504q32 59 63 85.5t72 26.5q43 0 74 -29q34 -34 34 -107v-786q0 -37 -3 -56t-12 -38q-25 -49 -90 -49t-90 49q-6 14 -9.5 25.5t-5 27.5t-1.5 41v516l-195 -364q-27 -49 -53 -71.5t-64 -22.5 t-64.5 22.5t-52.5 71.5l-195 364v-516q0 -36 -3.5 -55t-12.5 -39q-25 -49 -90 -49t-90 49q-9 19 -12 38t-3 56z" />
<glyph unicode="&#x43d;" horiz-adv-x="1176" d="M168 135v778q0 38 3 56.5t12 37.5q25 50 89.5 50t90.5 -50q9 -20 12.5 -38.5t3.5 -55.5v-282h420v282q0 38 3 56.5t12 37.5q25 50 90 50t90 -50q9 -19 12 -37.5t3 -56.5v-778q0 -37 -3 -56t-12 -38q-25 -49 -90 -49t-90 49q-9 19 -12 38t-3 56v311h-420v-311 q0 -36 -3.5 -55t-12.5 -39q-25 -49 -90 -49t-90 49q-9 19 -12 38t-3 56z" />
<glyph unicode="&#x43e;" horiz-adv-x="1109" d="M119 524.5q0 145.5 26 242t97 170.5q121 125 313.5 125t313.5 -125q71 -74 97 -171t26 -241.5t-26 -241.5t-97 -171q-121 -124 -313.5 -124t-313.5 124q-71 74 -97 170.5t-26 242zM330 524q0 -66 4.5 -112.5t21 -95t46.5 -78.5q59 -60 154 -60q93 0 152 60q43 43 58 114 t15 172q0 66 -5 113t-21.5 95.5t-46.5 78.5q-58 60 -152 60q-96 0 -154 -60q-43 -44 -57.5 -114.5t-14.5 -172.5z" />
<glyph unicode="&#x43f;" horiz-adv-x="1175" d="M168 135v784q0 17 0.5 26t3 24t9 27t17.5 23q14 14 33.5 21t31 7.5t34.5 0.5h582q23 0 34.5 -0.5t31.5 -7.5t34 -21t21 -33.5t7.5 -31t0.5 -35.5v-784q0 -37 -3 -56t-12 -38q-25 -49 -90 -49t-90 49q-9 19 -12 38t-3 56v723h-419v-723q0 -36 -3.5 -55t-12.5 -39 q-25 -49 -90 -49t-90 49q-9 19 -12 38t-3 56z" />
<glyph unicode="&#x440;" horiz-adv-x="1142" d="M168 -288v1201q0 43 3.5 63t14.5 38q12 21 36 32.5t51 11.5q57 0 86 -41q16 -24 19 -75q38 45 81 72t89 38t103 11q78 0 145.5 -25.5t111.5 -68.5q36 -38 60.5 -87.5t36 -110t15.5 -117.5t4 -130q0 -72 -4 -128.5t-15.5 -117t-36 -110t-60.5 -86.5q-44 -44 -110.5 -69 t-144.5 -25q-88 0 -153.5 26.5t-120.5 91.5v-394q0 -37 -3.5 -55.5t-12.5 -38.5q-25 -49 -90 -49t-90 49q-9 19 -12 37.5t-3 56.5zM378 525q0 -62 4 -108t17.5 -93.5t37 -77.5t63.5 -49t96 -19q55 0 95 19t63.5 49t37 77.5t17.5 93.5t4 108t-4 108t-17.5 93.5t-37 77.5 t-63.5 49t-95 19q-47 0 -82.5 -12.5t-59 -37t-39 -54t-23.5 -71.5t-11 -81.5t-3 -90.5z" />
<glyph unicode="&#x441;" horiz-adv-x="1001" d="M114 524.5q0 114.5 25.5 206.5t69 152.5t104 101.5t126.5 59t140 18q69 0 122.5 -16t107.5 -51q49 -32 75.5 -61t26.5 -65.5t-30 -68.5q-28 -27 -65 -27q-21 0 -38.5 8.5t-45.5 31.5q-20 16 -38 27t-36.5 18t-37.5 10t-41 3q-123 0 -191 -90q-34 -45 -48.5 -104.5 t-14.5 -152.5q0 -46 3.5 -83t11 -68t19.5 -56.5t29 -47.5q68 -91 191 -91q43 0 78.5 13.5t74.5 44.5q14 12 24 19t20.5 12t20 7.5t19.5 2.5q37 0 65 -28q30 -32 30 -69q0 -25 -15.5 -49t-35.5 -40.5t-51 -36.5q-103 -66 -230 -66q-74 0 -140 17.5t-126.5 58.5t-104 101.5 t-69 152.5t-25.5 206.5z" />
<glyph unicode="&#x442;" horiz-adv-x="940" d="M35 953.5q0 55.5 44 80.5q10 6 21.5 9t25.5 4t39 1h612q36 0 53.5 -2.5t32.5 -11.5q43 -25 43 -80.5t-43 -80.5q-26 -15 -86 -15h-201v-723q0 -37 -3 -56t-12 -38q-25 -49 -90 -49t-90 49q-7 14 -10 25.5t-4.5 27.5t-1.5 41v723h-200q-61 0 -86 15q-44 25 -44 80.5z" />
<glyph unicode="&#x443;" horiz-adv-x="928" d="M50.5 970.5q0.5 11.5 4.5 23.5q7 25 35.5 44t63.5 19q43 0 64 -25.5t38 -76.5l207 -642l211 642q8 25 15 40.5t18.5 31t28.5 23t40 7.5q34 0 62 -19t36 -44q11 -37 -11 -101l-382 -1103q-29 -84 -77 -130q-79 -78 -205 -78q-69 0 -98 25q-29 26 -29 72q0 51 31 74 q26 20 71 20q49 0 81.5 24.5t53.5 86.5l51 154l-293 855q-6 18 -9 27.5t-5.5 24t-2 26z" />
<glyph unicode="&#x444;" horiz-adv-x="1463" d="M107 523q0 103 24 187.5t68 146.5t108 105t144 67t176 29v279q0 26 1.5 42t4.5 27.5t9 24.5q25 50 90 50t90 -50q6 -13 9.5 -24.5t4.5 -27.5t1 -42v-279q121 -7 215.5 -42.5t163 -100.5t104.5 -163.5t36 -227t-36 -227.5t-104.5 -163.5t-163 -100t-215.5 -42.5v-280 q0 -38 -3 -56.5t-12 -37.5q-25 -49 -90 -49t-90 49q-9 19 -12 37.5t-3 56.5v280q-121 7 -215.5 42.5t-163 99.5t-105 163t-36.5 227zM318 523q0 -112 35.5 -189.5t105 -118.5t170.5 -44v707q-152 -6 -231.5 -96.5t-79.5 -258.5zM835 171q153 5 232 95t79 258t-79 258 t-232 96v-707z" />
<glyph unicode="&#x445;" horiz-adv-x="930" d="M79 91q0 19 8 37.5t28 51.5l223 346l-218 343q-20 32 -28 50.5t-8 37.5q0 52 49 82q29 18 58 18q33 0 54.5 -18t48.5 -61l173 -283l170 283q28 43 48.5 61t53.5 18q30 0 59 -18q49 -30 49 -82q0 -19 -7.5 -37.5t-28.5 -50.5l-217 -342l222 -347q21 -33 28.5 -51.5 t7.5 -37.5q0 -52 -49 -82q-27 -17 -59 -17q-33 0 -53.5 18t-48.5 62l-175 289l-178 -289q-18 -29 -31 -44.5t-31 -25.5t-41 -10q-31 0 -58 17q-49 30 -49 82z" />
<glyph unicode="&#x446;" horiz-adv-x="1224" d="M168 129v784q0 38 3 56.5t12 37.5q25 50 89.5 50t90.5 -50q9 -20 12.5 -38.5t3.5 -55.5v-723h417v723q0 37 3.5 55.5t12.5 38.5q25 50 90 50t90 -50q9 -19 12 -37.5t3 -56.5v-723h28q24 0 35 -1t30.5 -7.5t33.5 -20.5t21.5 -33.5t8.5 -32t1 -34.5v-202q0 -38 -3 -56.5 t-13 -37.5q-25 -51 -90 -51q-32 0 -55.5 14t-34.5 37q-10 19 -13 37.5t-3 56.5v141h-656h-20t-19.5 2t-21 5t-19 9t-19.5 14q-14 14 -21 33t-8 31.5t-1 34.5z" />
<glyph unicode="&#x447;" horiz-adv-x="1115" d="M129 645v268q0 38 3 56.5t12 37.5q26 50 90 50q33 0 56.5 -14t34.5 -36q9 -19 12 -37.5t3 -56.5v-214q0 -157 162 -157q94 0 235 27v344q0 38 3 56.5t12 37.5q12 22 35.5 36t55.5 14q65 0 90 -50q5 -10 8 -18.5t4.5 -19.5t2 -23.5t0.5 -32.5v-778q0 -37 -3 -56t-12 -38 q-25 -49 -90 -49q-32 0 -55.5 13.5t-35.5 35.5q-9 19 -12 38t-3 56v253q-176 -34 -307 -34q-88 0 -155 32t-106.5 98.5t-39.5 160.5z" />
<glyph unicode="&#x448;" horiz-adv-x="1676" d="M168 129v784q0 38 3 56.5t12 37.5q25 50 89.5 50t90.5 -50q9 -20 12.5 -38.5t3.5 -55.5v-723h354v723q0 38 3 56.5t12 37.5q26 50 90 50q22 0 40.5 -6.5t31 -17.5t19.5 -26q6 -13 9.5 -25t4.5 -27.5t1 -41.5v-723h355v723q0 37 3.5 55.5t12.5 38.5q25 50 90 50t90 -50 q9 -19 12 -37.5t3 -56.5v-784q0 -22 -1 -34.5t-8 -31.5t-21 -33t-33 -21t-31.5 -8t-34.5 -1h-1084h-20t-19.5 2t-21 5t-19 9t-19.5 14q-14 14 -21 33t-8 31.5t-1 34.5z" />
<glyph unicode="&#x449;" horiz-adv-x="1729" d="M168 129v784q0 38 3 56.5t12 37.5q25 50 89.5 50t90.5 -50q9 -20 12.5 -38.5t3.5 -55.5v-723h354v723q0 38 3 56.5t12 37.5q26 50 90 50q22 0 40.5 -6.5t31 -17.5t19.5 -26q6 -13 9.5 -25t4.5 -27.5t1 -41.5v-723h355v723q0 37 3.5 55.5t12.5 38.5q25 50 90 50t90 -50 q9 -19 12 -37.5t3 -56.5v-723h30q24 0 35 -1t30.5 -7.5t33.5 -20.5t21.5 -33.5t8.5 -32t1 -34.5v-202q0 -37 -3.5 -56t-13.5 -38q-25 -51 -89.5 -51t-89.5 51q-10 19 -13 37.5t-3 56.5v141h-1161h-20t-19.5 2t-21 5t-19 9t-19.5 14q-14 14 -21 33t-8 31.5t-1 34.5z" />
<glyph unicode="&#x44a;" horiz-adv-x="1203" d="M35 953.5q0 55.5 44 80.5q10 6 21.5 9t25.5 4t39 1h216q23 0 34.5 -0.5t31 -7.5t33.5 -21t21 -33.5t8 -32t1 -34.5v-267h281q153 0 247 -90t94 -235q0 -146 -94.5 -236.5t-246.5 -90.5h-363q-22 0 -34.5 1t-31.5 8t-33 21q-11 11 -17.5 23t-9 26.5t-3 24t-0.5 25.5v729 h-134q-61 0 -86 15q-44 25 -44 80.5zM510 171h242q82 0 125.5 40.5t43.5 115.5q0 74 -43.5 115t-125.5 41h-242v-312z" />
<glyph unicode="&#x44b;" horiz-adv-x="1520" d="M168 129v784q0 38 3 56.5t12 37.5q25 50 89.5 50t90.5 -50q9 -20 12.5 -38.5t3.5 -55.5v-261h281q152 0 246.5 -90t94.5 -235q0 -146 -94.5 -236.5t-246.5 -90.5h-363h-20t-19.5 2t-21 5t-19 9t-19.5 14q-14 14 -21 33t-8 31.5t-1 34.5zM379 171h242q82 0 125.5 40.5 t43.5 115.5q0 74 -43.5 115t-125.5 41h-242v-312zM1141 135v778q0 25 1.5 41.5t5 28t9.5 24.5q26 50 90.5 50t89.5 -50q6 -13 9.5 -25t4.5 -27.5t1 -41.5v-778q0 -37 -3 -56t-12 -38q-25 -49 -90 -49t-90 49q-9 20 -12.5 39t-3.5 55z" />
<glyph unicode="&#x44c;" horiz-adv-x="1072" d="M168 129v784q0 38 3 56.5t12 37.5q25 50 89.5 50t90.5 -50q9 -20 12.5 -38.5t3.5 -55.5v-261h281q152 0 246.5 -90t94.5 -235q0 -146 -94.5 -236.5t-246.5 -90.5h-363h-20t-19.5 2t-21 5t-19 9t-19.5 14q-14 14 -21 33t-8 31.5t-1 34.5zM379 171h242q82 0 125.5 40.5 t43.5 115.5q0 74 -43.5 115t-125.5 41h-242v-312z" />
<glyph unicode="&#x44d;" horiz-adv-x="1002" d="M91 180q0 37 30 69q27 28 65 28q20 0 38 -9t46 -32q26 -21 50 -33.5t49 -18.5t54 -6q123 0 191 91q26 35 40 74.5t20 96.5h-241q-58 0 -86 16q-43 25 -43 79q0 56 43 81q26 15 86 15h239q-12 88 -58 150q-68 90 -191 90q-44 0 -79 -13.5t-74 -44.5q-14 -11 -24.5 -18.5 t-20.5 -12.5t-19 -7t-20 -2q-38 0 -65 27q-30 32 -30 68.5t26.5 65.5t75.5 61q54 35 107.5 51t122.5 16q74 0 140.5 -18t127 -59t104 -101.5t69.5 -153t26 -206.5t-26 -206t-69.5 -152.5t-104 -101.5t-127 -58.5t-140.5 -17.5q-127 0 -230 66q-48 31 -75 60.5t-27 65.5z" />
<glyph unicode="&#x44e;" horiz-adv-x="1555" d="M168 135v778q0 38 3 56.5t12 37.5q25 50 89.5 50t90.5 -50q9 -20 12.5 -38.5t3.5 -55.5v-285h188q4 66 16 118.5t38 101t66 89.5q120 125 312.5 125t313.5 -125q49 -51 77 -116t37 -133t9 -164q0 -144 -26 -241t-97 -171q-121 -124 -313.5 -124t-312.5 124 q-62 64 -89.5 143.5t-32.5 189.5h-186v-310q0 -36 -3.5 -55t-12.5 -39q-25 -49 -90 -49t-90 49q-9 19 -12 38t-3 56zM775 524q0 -65 4.5 -112.5t21.5 -95.5t46 -78q59 -60 153 -60t153 60q43 43 57.5 113.5t14.5 172.5q0 66 -4.5 113t-21 95.5t-46.5 78.5q-58 60 -153 60 t-153 -60q-43 -44 -57.5 -114.5t-14.5 -172.5z" />
<glyph unicode="&#x44f;" horiz-adv-x="1134" d="M111 91q0 10 2 19t6 19.5t10.5 22.5t16.5 28l164 258q-86 38 -135 114t-49 175q0 143 95 232t247 89h364q24 0 35.5 -0.5t31 -7.5t33.5 -21q11 -11 17.5 -23t9 -27.5t3 -23.5t0.5 -26v-784q0 -37 -3.5 -56t-12.5 -38q-24 -49 -89.5 -49t-89.5 49q-7 14 -10 25.5t-5 27.5 t-2 41v258h-228l-202 -321q-27 -44 -48 -62t-54 -18q-30 0 -57 17q-50 30 -50 82zM335 720q0 -73 45 -116t121 -43h248v318h-244q-80 0 -125 -42.5t-45 -116.5z" />
<glyph unicode="&#x450;" horiz-adv-x="1111" d="M114 524q0 255 120 396.5t325 141.5q134 0 234 -62t153 -169t56 -246q2 -65 -28 -95q-13 -13 -31.5 -19t-29.5 -6.5t-33 -0.5h-558q0 -137 70.5 -216.5t199.5 -79.5q119 0 201 65q47 39 86 39q32 0 59.5 -27.5t27.5 -62.5q0 -59 -105 -127q-103 -67 -274 -67 q-81 0 -150 17t-129.5 57t-102.5 101t-66.5 152.5t-24.5 208.5zM320 1523q-3 50 45 80q25 16 51 16q25 0 49 -17q20 -15 45 -57l96 -154q19 -30 25.5 -44.5t6.5 -31.5q4 -50 -44 -80q-26 -16 -51 -16q-26 0 -49 17q-20 15 -46 57l-96 154q-12 21 -18 32t-9.5 22t-4.5 22z M322 610h472q-3 52 -8.5 81t-19.5 61q-28 62 -81.5 98t-125.5 36q-38 0 -71 -10t-59 -27.5t-46 -42t-34 -54.5q-14 -33 -19.5 -62.5t-7.5 -79.5z" />
<glyph unicode="&#x451;" horiz-adv-x="1111" d="M114 524q0 255 120 396.5t325 141.5q134 0 234 -62t153 -169t56 -246q2 -65 -28 -95q-13 -13 -31.5 -19t-29.5 -6.5t-33 -0.5h-558q0 -137 70.5 -216.5t199.5 -79.5q119 0 201 65q47 39 86 39q32 0 59.5 -27.5t27.5 -62.5q0 -59 -105 -127q-103 -67 -274 -67 q-81 0 -150 17t-129.5 57t-102.5 101t-66.5 152.5t-24.5 208.5zM219 1359q0 48 34.5 82t82 34t82.5 -34t35 -82q0 -47 -35 -82.5t-82.5 -35.5t-82 35.5t-34.5 82.5zM322 610h472q-3 52 -8.5 81t-19.5 61q-28 62 -81.5 98t-125.5 36q-38 0 -71 -10t-59 -27.5t-46 -42 t-34 -54.5q-14 -33 -19.5 -62.5t-7.5 -79.5zM675 1359q0 48 34.5 82t82.5 34t82 -34t34 -82q0 -47 -34.5 -82.5t-82 -35.5t-82 35.5t-34.5 82.5z" />
<glyph unicode="&#x452;" horiz-adv-x="1175" d="M34 1236q0 48 38 68q23 13 72 13h25v20q0 26 1 42t4.5 27.5t9.5 24.5q25 50 90 50t90 -50q9 -19 12.5 -38t3.5 -56v-20h339q49 0 73 -13q37 -20 37 -68t-37 -68q-22 -13 -73 -13h-339v-242q53 56 124 85.5t149 29.5q163 0 259 -95q107 -103 107 -296v-774 q0 -60 -17 -111.5t-50.5 -92t-89.5 -64t-128 -23.5h-20q-61 0 -90 16q-41 21 -41 74t41 74q23 13 77 15q107 2 107 121v733q0 117 -58.5 174.5t-154.5 57.5q-45 0 -83 -13t-68 -40t-47 -72t-17 -104v-473q0 -36 -3.5 -55t-12.5 -39q-25 -49 -90 -49t-90 49q-9 19 -12 38 t-3 56v1020h-25q-50 0 -72 13q-38 20 -38 68z" />
<glyph unicode="&#x453;" horiz-adv-x="892" d="M168 135v784q0 17 0.5 26t3 24t9 27t17.5 23q14 14 33.5 21t31 7.5t34.5 0.5h432q36 0 54 -2.5t32 -11.5q43 -25 43 -80.5t-43 -80.5q-26 -15 -86 -15h-350v-723q0 -36 -3.5 -55t-12.5 -39q-25 -49 -90 -49t-90 49q-9 19 -12 38t-3 56zM379 1315q0 17 6.5 31.5t25.5 44.5 l96 154q26 42 45 57q24 17 49 17t50 -16q48 -30 45 -80q-1 -17 -7.5 -31.5t-24.5 -44.5l-96 -154q-26 -42 -46 -57q-23 -17 -48 -17t-51 16q-47 30 -44 80z" />
<glyph unicode="&#x454;" horiz-adv-x="1002" d="M114 524.5q0 114.5 26 206.5t69.5 152.5t103.5 101.5t126.5 59t140.5 18q69 0 122.5 -16t107.5 -51q49 -32 75.5 -61t26.5 -65.5t-30 -68.5q-28 -27 -65 -27q-21 0 -38.5 8.5t-45.5 31.5q-39 31 -74 44.5t-79 13.5q-123 0 -191 -90q-45 -60 -57 -150h238q60 0 85 -15 q44 -25 44 -81q0 -54 -44 -79q-27 -16 -85 -16h-240q6 -58 19.5 -97.5t39.5 -73.5q68 -91 191 -91q43 0 78.5 13.5t74.5 44.5q28 23 46 32t38 9q37 0 65 -28q30 -32 30 -69q0 -36 -27 -65.5t-75 -60.5q-103 -66 -230 -66q-74 0 -140.5 17.5t-126.5 58.5t-103.5 101.5 t-69.5 152.5t-26 206.5z" />
<glyph unicode="&#x455;" horiz-adv-x="1032" d="M83 171q0 46 34 72q24 22 58 22q30 0 79 -31q56 -36 115.5 -52.5t137.5 -16.5q105 0 167.5 37.5t62.5 109.5q0 112 -141 124l-169 15q-310 28 -310 288q0 76 31 137.5t85 101.5t126 62t154 22q157 0 282 -59q48 -22 69 -45q19 -23 19 -57q0 -15 -7.5 -33t-18.5 -30 q-26 -26 -62 -26q-22 0 -68 21q-114 56 -218 56q-61 0 -104 -18t-64 -49t-21 -72q0 -57 36 -85t110 -34l165 -16q311 -29 311 -296q0 -106 -57 -182t-154.5 -112.5t-224.5 -36.5q-120 0 -207 23t-159 72q-57 40 -57 88z" />
<glyph unicode="&#x456;" horiz-adv-x="545" d="M145 1391q0 53 37.5 90t90.5 37q34 0 63.5 -17t46.5 -46t17 -64t-17 -64.5t-46.5 -46t-63.5 -16.5q-53 0 -90.5 37t-37.5 90zM168 135v778q0 38 3 56.5t12 37.5q25 50 89.5 50t90.5 -50q9 -20 12.5 -38.5t3.5 -55.5v-778q0 -36 -3.5 -55t-12.5 -39q-25 -49 -90 -49 t-90 49q-9 19 -12 38t-3 56z" />
<glyph unicode="&#x457;" horiz-adv-x="545" d="M-46 1359q0 48 34 82t82 34q18 0 36 -6t32.5 -16.5t25.5 -25t17 -32t6 -36.5q0 -47 -35 -82.5t-82.5 -35.5t-81.5 35.5t-34 82.5zM168 135v778q0 38 3 56.5t12 37.5q25 50 89.5 50t90.5 -50q9 -20 12.5 -38.5t3.5 -55.5v-778q0 -36 -3.5 -55t-12.5 -39q-25 -49 -90 -49 t-90 49q-9 19 -12 38t-3 56zM359 1359q0 48 35 82t83 34t82 -34t34 -82q0 -47 -34.5 -82.5t-82 -35.5t-82.5 35.5t-35 82.5z" />
<glyph unicode="&#x458;" horiz-adv-x="545" d="M-58 -338q0 52 43 74q22 13 76 15q107 2 107 121v1041q0 38 3 56.5t12 37.5q25 50 89.5 50t90.5 -50q9 -20 12.5 -38.5t3.5 -55.5v-1050q0 -60 -17 -111.5t-51 -92t-89.5 -64t-127.5 -23.5h-20q-60 0 -89 16q-43 22 -43 74zM145 1391q0 53 37.5 90t90.5 37q34 0 63.5 -17 t46.5 -46t17 -64t-17 -64.5t-46.5 -46t-63.5 -16.5q-53 0 -90.5 37t-37.5 90z" />
<glyph unicode="&#x459;" horiz-adv-x="1743" d="M35 91q0 54 42 77q19 10 63 12q25 1 45 8t41.5 23t37 47t28 76t19 114t6.5 157v314q0 22 1 34.5t8 32t21 33.5t33.5 21t31 7.5t34.5 0.5h473q24 0 35.5 -0.5t31 -7.5t33.5 -21t21 -33.5t7.5 -31t0.5 -35.5v-267h282q153 0 247.5 -90t94.5 -235q0 -146 -95 -236.5 t-247 -90.5h-363q-22 0 -34.5 1t-31.5 8t-33 21t-21.5 33t-8.5 31.5t-1 34.5v729h-315v-297q0 -120 -12.5 -210.5t-34.5 -149.5t-56.5 -99t-73 -60t-88.5 -31q-55 -11 -120 -11q-36 0 -60 13q-42 22 -42 78zM1048 171h244q82 0 125 40.5t43 115.5q0 74 -43 115t-125 41h-244 v-312z" />
<glyph unicode="&#x45a;" horiz-adv-x="1698" d="M168 135v778q0 38 3 56.5t12 37.5q25 50 89.5 50t90.5 -50q9 -20 12.5 -38.5t3.5 -55.5v-261h414v261q0 37 3.5 55.5t12.5 38.5q25 50 90 50t90 -50q9 -19 12 -37.5t3 -56.5v-261h282q152 0 246.5 -90t94.5 -235q0 -146 -94.5 -236.5t-246.5 -90.5h-364q-16 0 -25.5 0.5 t-24 3t-26.5 9.5t-23 17q-14 14 -21 33t-8 31.5t-1 34.5v354h-414v-348q0 -36 -3.5 -55t-12.5 -39q-25 -49 -90 -49t-90 49q-9 19 -12 38t-3 56zM1004 171h243q55 0 93 18.5t57 53.5t19 84q0 74 -43.5 115t-125.5 41h-243v-312z" />
<glyph unicode="&#x45b;" horiz-adv-x="1175" d="M34 1236q0 48 38 68q23 13 72 13h25v20q0 26 1 42t4.5 27.5t9.5 24.5q25 50 90 50t90 -50q9 -19 12.5 -38t3.5 -56v-20h339q49 0 73 -13q37 -20 37 -68t-37 -68q-22 -13 -73 -13h-339v-242q53 56 124 85.5t149 29.5q163 0 259 -95q107 -103 107 -296v-502q0 -36 -3.5 -55 t-12.5 -39q-25 -49 -90 -49t-90 49q-9 19 -12 38t-3 56v470q0 117 -58.5 174.5t-154.5 57.5q-45 0 -83 -13t-68 -40t-47 -72t-17 -104v-473q0 -36 -3.5 -55t-12.5 -39q-25 -49 -90 -49t-90 49q-9 19 -12 38t-3 56v1020h-25q-50 0 -72 13q-38 20 -38 68z" />
<glyph unicode="&#x45c;" horiz-adv-x="1041" d="M168 135v778q0 38 3 56.5t12 37.5q25 50 89.5 50t90.5 -50q9 -20 12.5 -38.5t3.5 -55.5v-281h49l316 364q31 34 52 47.5t45 13.5q37 0 65 -25q33 -29 33 -68q0 -23 -10 -44t-38 -51l-292 -322l321 -367q28 -32 38.5 -52.5t10.5 -42.5q0 -40 -33 -69q-27 -24 -65 -24 q-25 0 -45.5 13t-50.5 48l-347 394h-49v-312q0 -36 -3.5 -55t-12.5 -39q-25 -49 -90 -49t-90 49q-9 19 -12 38t-3 56zM476 1315q0 17 6.5 31.5t25.5 44.5l96 154q26 42 45 57q24 17 49 17t50 -16q48 -30 45 -80q-1 -17 -7.5 -32t-23.5 -44l-97 -154q-26 -42 -46 -57 q-23 -17 -48 -17t-51 16q-48 30 -44 80z" />
<glyph unicode="&#x45d;" horiz-adv-x="1193" d="M168 128v785q0 38 3 56.5t12 37.5q25 50 89.5 50t90.5 -50q9 -20 12.5 -38.5t3.5 -55.5v-567l408 610q35 55 64.5 78.5t66.5 23.5q47 0 76 -29q33 -34 33 -108v-786q0 -36 -3.5 -55t-12.5 -39q-25 -49 -90 -49t-90 49q-9 19 -12 38t-3 56v568l-408 -611 q-35 -54 -64.5 -77t-66.5 -23q-47 0 -75 28q-34 33 -34 108zM356 1523q-4 50 44 80q26 16 50 16q27 0 50 -17q20 -15 45 -57l96 -154q19 -30 25.5 -44.5t7.5 -31.5q3 -50 -45 -80q-26 -16 -51 -16t-49 17q-20 15 -45 57l-96 154q-19 30 -25.5 44.5t-6.5 31.5z" />
<glyph unicode="&#x45e;" horiz-adv-x="928" d="M50.5 970.5q0.5 11.5 4.5 23.5q7 25 35.5 44t63.5 19q43 0 64 -25.5t38 -76.5l207 -642l211 642q8 25 15 40.5t18.5 31t28.5 23t40 7.5q34 0 62 -19t36 -44q11 -37 -11 -101l-382 -1103q-29 -84 -77 -130q-79 -78 -205 -78q-69 0 -98 25q-29 26 -29 72q0 51 31 74 q26 20 71 20q49 0 81.5 24.5t53.5 86.5l51 154l-293 855q-6 18 -9 27.5t-5.5 24t-2 26zM156 1412q-2 32 21 58q26 28 61 27q26 -2 56 -27q85 -75 168.5 -75t168.5 75q31 25 56 27q35 1 60 -27q24 -27 23 -58q-2 -38 -47 -78q-38 -35 -77 -57.5t-85 -35t-98 -12.5 q-79 0 -141 26t-120 79q-45 40 -46 78z" />
<glyph unicode="&#x45f;" horiz-adv-x="1174" d="M168 129v784q0 38 3 56.5t12 37.5q25 50 89.5 50t90.5 -50q9 -20 12.5 -38.5t3.5 -55.5v-723h417v723q0 37 3.5 55.5t12.5 38.5q25 50 90 50t90 -50q9 -19 12 -37.5t3 -56.5v-784q0 -23 -0.5 -34.5t-7.5 -31t-21 -33.5q-11 -10 -23.5 -17t-27 -9.5t-24 -3t-25.5 -0.5 h-184v-141q0 -38 -3 -56.5t-12 -37.5q-26 -51 -90.5 -51t-89.5 51q-9 19 -12.5 38t-3.5 56v141h-186h-20t-19.5 2t-21 5t-19 9t-19.5 14q-14 14 -21 33t-8 31.5t-1 34.5z" />
<glyph unicode="&#x462;" horiz-adv-x="1343" d="M49 1206q0 53 41 76q23 13 81 13h60v34q0 42 3 61t14 40q13 23 38 37t57.5 14t57.5 -14t37 -37q11 -21 14.5 -40t3.5 -61v-34h242q59 0 82 -13q40 -23 40 -76t-40 -76q-23 -13 -82 -13h-242v-225h337q106 0 194.5 -33.5t149 -93t94.5 -141.5t34 -177.5t-34 -178 t-94.5 -141.5t-149 -93t-194.5 -34h-424q-23 0 -36.5 1t-33.5 8.5t-35 22.5t-23 35.5t-9 33.5t-1 35v981h-60q-58 0 -81 13q-41 23 -41 76zM456 199h325q120 0 190 65t70 182q0 116 -70.5 181.5t-189.5 65.5h-325v-494z" />
<glyph unicode="&#x463;" horiz-adv-x="1203" d="M35 963.5q0 55.5 44 80.5q25 15 86 15h135v278q0 26 1.5 42t4.5 27.5t9 24.5q25 50 90 50t90 -50q6 -13 9.5 -24.5t5 -27.5t1.5 -42v-278h172q60 0 86 -15q43 -25 43 -80.5t-43 -80.5q-26 -14 -86 -14h-172v-217h281q152 0 246 -90t94 -235q0 -146 -94 -236.5t-246 -90.5 h-363q-22 0 -34.5 1t-31.5 8t-33 21q-11 11 -17.5 23t-9 26.5t-3 24t-0.5 25.5v740h-135q-61 0 -86 14q-44 25 -44 80.5zM512 171h240q82 0 125.5 40.5t43.5 115.5q0 74 -43.5 115t-125.5 41h-240v-312z" />
<glyph unicode="&#x472;" horiz-adv-x="1338" d="M139 736.5q0 77.5 1 124t4 104t9 93.5t16.5 78t26.5 73t38.5 63.5t53.5 62.5q149 150 382 150q230 0 379 -150q36 -35 61 -70.5t41.5 -80t26 -85t14 -103.5t6 -116.5t1.5 -143.5t-1.5 -143t-6 -116.5t-14 -103.5t-26 -84.5t-41.5 -80t-61 -71.5q-149 -149 -379 -149 q-233 0 -382 149q-31 31 -53.5 63t-38.5 63t-26.5 73.5t-16.5 78.5t-9 93.5t-4 104t-1 124zM363 643q2 -164 19.5 -238.5t66.5 -125.5q87 -93 221 -93q131 0 219 93q48 52 65.5 126.5t20.5 237.5h-612zM363 841h612q-1 54 -3.5 94.5t-7 75t-11 60.5t-16 48.5t-21 40 t-27.5 35.5q-87 92 -219 92q-135 0 -221 -92q-47 -51 -65 -124t-21 -230z" />
<glyph unicode="&#x473;" horiz-adv-x="1109" d="M119 524.5q0 145.5 26 242t97 170.5q121 125 313.5 125t313.5 -125q71 -74 97 -171t26 -241.5t-26 -241.5t-97 -171q-121 -124 -313.5 -124t-313.5 124q-71 74 -97 170.5t-26 242zM331 463q7 -161 71 -225q59 -60 154 -60q93 0 152 60q65 65 72 225h-449zM332 610h446 q-9 139 -70 201q-58 60 -152 60q-96 0 -154 -60q-59 -59 -70 -201z" />
<glyph unicode="&#x474;" horiz-adv-x="1149" d="M39 1399q7 39 39.5 60.5t67.5 21.5q38 0 64 -24q25 -22 46 -84l319 -983l320 983q20 62 45 84q27 24 63 24q35 0 68.5 -21.5t39.5 -60.5q5 -31 -15 -94l-399 -1200q-21 -63 -46 -85q-29 -28 -76 -28q-46 0 -76 28q-25 22 -46 85l-399 1200q-20 60 -15 94z" />
<glyph unicode="&#x475;" horiz-adv-x="928" d="M50.5 970.5q0.5 11.5 4.5 23.5q7 25 35.5 44t63.5 19q43 0 64 -25.5t38 -76.5l209 -629l209 629q8 25 15 40.5t18.5 31t28.5 23t40 7.5q34 0 62 -19t36 -44q6 -12 4 -32.5t-5 -33t-10 -35.5l-268 -783q-22 -65 -52 -92q-32 -26 -78.5 -26t-78.5 26q-31 28 -52 92 l-267 783q-6 18 -9 27.5t-5.5 24t-2 26z" />
<glyph unicode="&#x490;" horiz-adv-x="1150" d="M191 143v1193q0 23 1 36t8.5 33t22.5 35t35.5 22.5t33.5 9t36 1.5h548v183q0 43 3 62t14 40q12 24 37 37.5t57.5 13.5t57.5 -13.5t38 -37.5q7 -14 11 -27.5t5 -29t1 -45.5v-245q0 -23 -1 -36t-8.5 -33.5t-22.5 -35.5t-36 -22.5t-33 -8t-36 -0.5h-548v-1132 q0 -42 -3 -60.5t-14 -40.5q-12 -23 -37 -36.5t-58 -13.5t-58 13.5t-37 36.5q-11 22 -14 40.5t-3 60.5z" />
<glyph unicode="&#x491;" horiz-adv-x="889" d="M168 135v784q0 17 0.5 26t3 24t9 27t17.5 23q14 14 33.5 21t31 7.5t34.5 0.5h347v154q0 26 1.5 41.5t4.5 27.5t10 25q24 49 89.5 49t89.5 -49q10 -20 13 -38.5t3 -55.5v-214q0 -22 -1 -34.5t-8 -31.5t-21 -33t-33 -21.5t-31.5 -8.5t-34.5 -1h-347v-723q0 -36 -3.5 -55 t-12.5 -39q-25 -49 -90 -49t-90 49q-9 19 -12 38t-3 56z" />
<glyph unicode="&#x492;" horiz-adv-x="1198" d="M49 742q0 53 41 76q23 13 81 13h60v505q0 23 1 36t9 33t23 35t35 22.5t33.5 9t36.5 1.5h642q65 0 92 -15q45 -25 45 -84.5t-45 -84.5q-27 -14 -92 -14h-555v-444h242q59 0 82 -13q40 -23 40 -76t-40 -75q-23 -14 -82 -14h-242v-510q0 -42 -3.5 -60.5t-14.5 -40.5 q-12 -23 -37 -36.5t-57.5 -13.5t-57.5 13.5t-38 36.5q-11 22 -14 40.5t-3 60.5v510h-60q-58 0 -81 14q-41 22 -41 75z" />
<glyph unicode="&#x493;" horiz-adv-x="941" d="M61 537q0 49 37 69q22 12 74 12h45v301q0 22 1 34.5t8 32t21 33.5q11 11 23 17.5t27 9t23.5 2.5h25.5h432q36 0 53.5 -2.5t32.5 -11.5q43 -25 43 -80.5t-43 -80.5q-26 -15 -86 -15h-350v-240h161q51 0 73 -12q37 -20 37 -69q0 -47 -37 -67q-22 -12 -73 -12h-161v-323 q0 -37 -3 -56t-12 -38q-11 -22 -34.5 -35.5t-56.5 -13.5q-65 0 -90 49q-9 19 -12 38t-3 56v323h-45q-52 0 -74 12q-37 20 -37 67z" />
<glyph unicode="&#x496;" horiz-adv-x="2020" d="M75 98q0 23 10.5 43t38.5 54l476 576l-432 508q-29 34 -39.5 53.5t-10.5 42.5q0 46 41 80q30 26 68 26q29 0 51 -15.5t52 -51.5l454 -551h67v466q0 31 1 45.5t4.5 28t11.5 27.5q12 23 37 37t58 14q13 0 25 -2.5t22.5 -7t20 -10.5t16.5 -14t11 -17q5 -9 8 -17t5 -15 t2.5 -18t1 -21.5t0.5 -29.5v-466h66l455 551q30 36 51.5 51.5t50.5 15.5q40 0 70 -26q40 -34 40 -80q0 -23 -10.5 -42.5t-39.5 -53.5l-432 -508l473 -572h17q23 0 36 -1t33.5 -8.5t35.5 -22.5t22.5 -36t8 -33t0.5 -36v-250q0 -44 -2.5 -62.5t-13.5 -39.5q-8 -15 -21.5 -26.5 t-32.5 -17.5t-41 -6q-32 0 -57 13.5t-38 36.5q-7 15 -11 28.5t-5 29t-1 44.5v188q-26 1 -46 16.5t-50 51.5l-486 587h-72v-512q0 -43 -3 -61.5t-14 -39.5q-12 -23 -37.5 -36.5t-58 -13.5t-57.5 13.5t-37 36.5q-11 21 -14 39.5t-3 61.5v512h-72l-492 -596q-30 -36 -52 -51.5 t-51 -15.5q-39 0 -69 25q-40 34 -40 81z" />
<glyph unicode="&#x497;" horiz-adv-x="1599" d="M73 85q0 22 10.5 42.5t37.5 52.5l321 367l-290 322q-15 15 -24.5 27.5t-15 24t-8 21.5t-2.5 22q0 39 33 68q29 25 66 25q24 0 44.5 -13.5t51.5 -47.5l316 -364h45v281q0 37 3 55.5t13 38.5q25 50 89.5 50t89.5 -50q10 -19 13 -37.5t3 -56.5v-281h45l317 364 q31 34 51.5 47.5t44.5 13.5q36 0 65 -25q33 -29 33 -68q0 -23 -10.5 -44t-37.5 -51l-292 -322l312 -357h14q23 0 34.5 -1t31 -7.5t33.5 -20.5t21 -33.5t8 -32t1 -34.5v-202q0 -37 -3.5 -56t-12.5 -38q-25 -51 -89.5 -51t-90.5 51q-9 19 -12 37.5t-3 56.5v141q-29 7 -73 58 l-342 389h-45v-312q0 -37 -3 -56t-13 -38q-24 -49 -89.5 -49t-89.5 49q-10 20 -13 39t-3 55v312h-45l-346 -394q-31 -35 -51.5 -48t-44.5 -13q-39 0 -66 24q-32 29 -32 69z" />
<glyph unicode="&#x49a;" horiz-adv-x="1370" d="M191 143v1186q0 42 3 61t14 40q12 23 37 37t58 14t58 -14t37 -37q11 -21 14 -40t3 -61v-466h77l454 551q21 24 34.5 37t30.5 21.5t37 8.5q40 0 70 -26q40 -34 40 -80q0 -23 -10.5 -42.5t-38.5 -53.5l-432 -508l472 -572h18q22 0 35 -1t33.5 -8.5t35.5 -22.5 q11 -12 18 -25t10 -28.5t3.5 -25t0.5 -26.5v-250q0 -44 -2.5 -62.5t-13.5 -39.5q-8 -15 -22 -26.5t-32.5 -17.5t-40.5 -6q-33 0 -58.5 13.5t-37.5 36.5q-11 21 -13.5 39.5t-2.5 62.5v188q-27 1 -47 16.5t-49 51.5l-486 587h-83v-512q0 -42 -3 -60.5t-14 -40.5 q-12 -23 -37 -36.5t-58 -13.5t-58 13.5t-37 36.5q-11 22 -14 40.5t-3 60.5z" />
<glyph unicode="&#x49b;" horiz-adv-x="1113" d="M168 135v778q0 38 3 56.5t12 37.5q25 50 89.5 50t90.5 -50q9 -20 12.5 -38.5t3.5 -55.5v-281h49l316 364q31 34 52 47.5t45 13.5q37 0 65 -25q33 -29 33 -68q0 -23 -10 -44t-38 -51l-292 -322l312 -357h13q24 0 35.5 -1t31 -7.5t33.5 -20.5t21 -34t7.5 -31.5t0.5 -34.5 v-202q0 -38 -3 -56.5t-12 -37.5q-25 -51 -89.5 -51t-90.5 51q-9 19 -12 37.5t-3 56.5v141q-28 7 -72 58l-343 389h-49v-312q0 -36 -3.5 -55t-12.5 -39q-25 -49 -90 -49t-90 49q-9 19 -12 38t-3 56z" />
<glyph unicode="&#x49c;" horiz-adv-x="1453" d="M191 143v1186q0 42 3 61t14 40q12 23 37 37t58 14t58 -14t37 -37q11 -21 14 -40t3 -61v-466h136v179q0 57 15 81q22 41 75 41q52 0 75 -41q14 -24 14 -81v-179h99l295 527q27 46 50 68.5t61 22.5q35 0 60 -15q56 -34 54 -92q0 -21 -7 -39.5t-27 -52.5l-298 -520l326 -571 q14 -24 21 -38.5t10.5 -27t4.5 -26.5q1 -58 -55 -92q-25 -15 -60 -15q-38 0 -61 22t-50 69l-324 572h-99v-188q0 -57 -14 -81q-23 -41 -75 -41q-53 0 -75 41q-15 24 -15 81v188h-136v-512q0 -42 -3 -60.5t-14 -40.5q-12 -23 -37 -36.5t-58 -13.5t-58 13.5t-37 36.5 q-11 22 -14 40.5t-3 60.5z" />
<glyph unicode="&#x49d;" horiz-adv-x="1219" d="M168 135v778q0 38 3 56.5t12 37.5q25 50 89.5 50t90.5 -50q9 -20 12.5 -38.5t3.5 -55.5v-281h99v144q0 50 12 74q20 38 69.5 38t69.5 -38q12 -24 12 -74v-144h64l212 346q27 43 48.5 61t54.5 18q29 0 58 -18q49 -30 49 -82q0 -19 -8 -37.5t-28 -50.5l-214 -334l228 -355 q20 -32 27.5 -51t7.5 -38q0 -52 -49 -82q-27 -17 -58 -17q-33 0 -53.5 18t-48.5 62l-230 375h-60v-150q0 -51 -12 -74q-20 -37 -69.5 -37t-69.5 37q-12 23 -12 74v150h-99v-312q0 -36 -3.5 -55t-12.5 -39q-25 -49 -90 -49t-90 49q-9 19 -12 38t-3 56z" />
<glyph unicode="&#x4a2;" horiz-adv-x="1452" d="M191 143v1186q0 42 3 61t14 40q12 23 37 37t58 14t58 -14t37 -37q11 -21 14 -40t3 -61v-486h597v486q0 29 1 44.5t4.5 28.5t11.5 28q13 23 37.5 37t57.5 14t58 -14t37 -37q11 -21 14 -40t3 -61v-1130h12q23 0 36 -1t33 -8.5t35 -22.5q12 -12 19 -25t9.5 -28.5t3.5 -25 t1 -26.5v-250q0 -44 -3 -62.5t-13 -39.5q-9 -15 -22.5 -26.5t-32.5 -17.5t-40 -6q-33 0 -58.5 13.5t-37.5 36.5q-11 21 -13.5 39.5t-2.5 62.5v188h-13q-23 0 -36 1t-33.5 8.5t-35.5 22.5t-22.5 35.5t-8.5 33.5t-1 35v508h-597v-501q0 -42 -3 -60.5t-14 -40.5 q-12 -23 -37 -36.5t-58 -13.5t-58 13.5t-37 36.5q-11 22 -14 40.5t-3 60.5z" />
<glyph unicode="&#x4a3;" horiz-adv-x="1200" d="M168 135v778q0 38 3 56.5t12 37.5q25 50 89.5 50t90.5 -50q9 -20 12.5 -38.5t3.5 -55.5v-282h420v282q0 38 3 56.5t12 37.5q25 50 90 50t90 -50q9 -19 12 -37.5t3 -56.5v-723h3q23 0 35 -1t31.5 -7.5t33.5 -20.5t21 -34t7.5 -31.5t0.5 -34.5v-202q0 -38 -3 -56.5 t-12 -37.5q-25 -51 -89.5 -51t-90.5 51q-9 19 -12 37.5t-3 56.5v141h-3q-16 0 -25.5 0.5t-24 3t-27 9.5t-23.5 17q-14 14 -21 33.5t-7.5 31t-0.5 34.5v317h-420v-311q0 -36 -3.5 -55t-12.5 -39q-25 -49 -90 -49t-90 49q-9 19 -12 38t-3 56z" />
<glyph unicode="&#x4ae;" horiz-adv-x="1081" d="M45 1386q1 25 16 47t42 36q24 12 54 12q27 0 50 -15q16 -11 25.5 -25.5t29.5 -52.5l279 -560l279 560q19 38 29 52.5t26 25.5q22 15 50 15q29 0 54 -12q13 -7 24 -16.5t18 -20t11 -22.5t4 -24q1 -21 -5 -39.5t-23 -52.5l-356 -707v-444q0 -43 -2.5 -61.5t-13.5 -39.5 q-12 -23 -37 -36.5t-57.5 -13.5t-58 13.5t-38.5 36.5q-10 21 -13 39.5t-3 61.5v444l-355 707q-18 34 -23.5 52.5t-5.5 39.5z" />
<glyph unicode="&#x4af;" horiz-adv-x="1000" d="M50 980q5 33 36 55.5t69 22.5q29 0 54 -20q24 -21 46 -80l246 -662l245 662q22 61 46 80q23 20 55 20q38 0 68.5 -22.5t34.5 -55.5q4 -32 -17 -91l-327 -873v-304q0 -38 -3 -56.5t-12 -37.5q-25 -49 -90 -49t-90 49q-9 20 -12.5 38.5t-3.5 55.5v304l-326 873 q-22 61 -19 91z" />
<glyph unicode="&#x4b0;" horiz-adv-x="1081" d="M45 1386q1 25 16 47t42 36q24 12 54 12q27 0 50 -15q16 -11 25.5 -25.5t29.5 -52.5l279 -560l279 560q19 38 29 52.5t26 25.5q22 15 50 15q29 0 54 -12q13 -7 24 -16.5t18 -20t11 -22.5t4 -24q1 -21 -5 -39.5t-23 -52.5l-356 -706h118q57 0 81 -14q41 -23 41 -75 q0 -53 -41 -76q-22 -13 -81 -13h-118v-267q0 -43 -2.5 -61.5t-13.5 -39.5q-12 -23 -37 -36.5t-57.5 -13.5t-58 13.5t-38.5 36.5q-10 21 -13 39.5t-3 61.5v267h-120q-58 0 -81 13q-40 23 -40 76q0 52 40 75q25 14 81 14h119l-354 706q-18 34 -23.5 52.5t-5.5 39.5z" />
<glyph unicode="&#x4b1;" horiz-adv-x="1000" d="M50 980q5 33 36 55.5t69 22.5q29 0 54 -20q24 -21 46 -80l246 -662l245 662q22 61 46 80q23 20 55 20q38 0 68.5 -22.5t34.5 -55.5q4 -32 -17 -91l-327 -864h101q51 0 74 -13q37 -20 37 -68.5t-37 -68.5q-21 -12 -74 -12h-101v-151q0 -38 -3 -56.5t-12 -37.5 q-25 -49 -90 -49t-90 49q-9 20 -12.5 38.5t-3.5 55.5v151h-101q-54 0 -75 12q-37 20 -37 68.5t37 68.5q22 13 75 13h100l-325 864q-22 61 -19 91z" />
<glyph unicode="&#x4b2;" horiz-adv-x="1250" d="M77 99q0 21 7.5 39t27.5 53l324 565l-302 526q-20 35 -27 53t-8 39q-2 57 56 92q24 15 59 15q20 0 36 -6.5t29.5 -20.5t23 -27.5t22.5 -36.5l249 -446l249 446q27 46 50 68.5t61 22.5q35 0 60 -15q56 -34 54 -92q0 -15 -3.5 -27t-10 -27t-20.5 -38l-302 -524l320 -559h13 q17 0 27 -0.5t25.5 -3.5t28.5 -10t24 -18q15 -15 22.5 -36t8.5 -33t1 -36v-250q0 -44 -3 -62.5t-13 -39.5q-9 -15 -22.5 -26.5t-32.5 -17.5t-40 -6q-33 0 -58 13.5t-37 36.5q-6 11 -9.5 20.5t-5 21.5t-2.5 25t-1 35v188h-6q-26 0 -47 13.5t-33 30t-30 47.5l-268 475 l-272 -483q-26 -47 -49.5 -69t-61.5 -22q-35 0 -60 15q-56 34 -54 92z" />
<glyph unicode="&#x4b3;" horiz-adv-x="1003" d="M79 91q0 19 8 37.5t28 51.5l223 346l-218 343q-20 32 -28 50.5t-8 37.5q0 52 49 82q29 18 58 18q33 0 54.5 -18t48.5 -61l173 -283l170 283q28 43 48.5 61t53.5 18q30 0 59 -18q49 -30 49 -82q0 -19 -7.5 -37.5t-28.5 -50.5l-217 -342l215 -337h6q23 0 34.5 -1t31 -7.5 t33.5 -20.5q11 -11 17.5 -23.5t9 -27t3 -24t0.5 -25.5v-202q0 -38 -3 -56.5t-12 -37.5q-7 -15 -19.5 -26t-31 -18t-40.5 -7q-64 0 -90 51q-9 19 -12 37.5t-3 56.5v141q-30 1 -50 19.5t-46 60.5l-170 281l-178 -289q-18 -29 -31 -44.5t-31 -25.5t-41 -10q-31 0 -58 17 q-49 30 -49 82z" />
<glyph unicode="&#x4b6;" horiz-adv-x="1362" d="M143 892v437q0 42 3.5 61t14.5 40q12 23 37 37t57.5 14t57.5 -14t37 -37q8 -15 11.5 -28t5 -28.5t1.5 -44.5v-384q0 -216 227 -216q122 0 327 41v559q0 42 3 61t14 40q13 23 38 37t57.5 14t57.5 -14t37 -37q11 -21 14 -40t3 -61v-1130h12q23 0 36 -1t33 -8.5t35 -22.5 q12 -12 19 -25t10 -28.5t3.5 -25t0.5 -26.5v-250q0 -44 -3 -62.5t-13 -39.5q-6 -11 -15.5 -20.5t-22 -16t-27.5 -10t-31 -3.5q-33 0 -58 13.5t-37 36.5q-11 21 -13.5 39.5t-2.5 62.5v188h-13q-17 0 -26.5 0.5t-25 3.5t-28.5 10t-25 18q-15 15 -22.5 35.5t-8.5 33.5t-1 35 v441q-262 -49 -394 -49q-60 0 -115 12.5t-104.5 41t-86 70t-58 103t-21.5 137.5z" />
<glyph unicode="&#x4b7;" horiz-adv-x="1140" d="M129 645v268q0 38 3 56.5t12 37.5q26 50 90 50q33 0 56.5 -14t34.5 -36q9 -19 12 -37.5t3 -56.5v-214q0 -157 162 -157q94 0 235 27v344q0 38 3 56.5t12 37.5q12 22 35.5 36t55.5 14q65 0 90 -50q5 -10 8 -18.5t4.5 -19.5t2 -23.5t0.5 -32.5v-723h3q24 0 35.5 -1 t30.5 -7.5t33 -20.5t21.5 -33.5t8.5 -32t1 -34.5v-202q0 -38 -3 -56.5t-12 -37.5q-26 -51 -90.5 -51t-89.5 51q-10 19 -13 38t-3 56v141h-3q-22 0 -34.5 1t-31.5 8t-33 21t-21.5 33t-8.5 31.5t-1 34.5v259q-176 -34 -307 -34q-88 0 -155 32t-106.5 98.5t-39.5 160.5z" />
<glyph unicode="&#x4b8;" horiz-adv-x="1385" d="M143 892v437q0 42 3.5 61t14.5 40q12 23 37 37t57.5 14t57.5 -14t37 -37q8 -15 11.5 -28t5 -28.5t1.5 -44.5v-384q0 -46 10 -81t28 -58t44 -37.5t55.5 -21t66.5 -7.5h8v179q0 55 15 81q23 40 76 40q51 0 73 -40q16 -26 16 -81v-183q80 9 211 34l1 559q0 44 2.5 62 t13.5 39q6 12 15.5 21t21.5 15.5t26.5 10.5t31.5 4q32 0 57 -14t38 -37q11 -21 14 -40t3 -61v-1186q0 -42 -3 -60.5t-14 -40.5q-13 -23 -38 -36.5t-57.5 -13.5t-57.5 13.5t-37 36.5q-11 21 -13.5 39.5t-2.5 61.5v434q-128 -24 -212 -35v-201q0 -54 -16 -80q-22 -41 -73 -41 q-53 0 -76 41q-15 26 -15 80v188q-11 -1 -52 -1q-85 0 -153.5 21t-121 63.5t-81.5 113.5t-29 166z" />
<glyph unicode="&#x4b9;" horiz-adv-x="1185" d="M129 645v268q0 38 3 56.5t12 37.5q26 50 90 50q33 0 56.5 -14t34.5 -36q9 -19 12 -37.5t3 -56.5v-216q0 -67 32 -99.5t92 -37.5q18 -2 28 -2v131q0 48 13 75q20 37 69 37t69 -37q12 -25 12 -75v-141q60 4 153 21v344q0 38 3 56.5t12 37.5q25 50 90 50t90 -50 q9 -20 12.5 -38.5t3.5 -55.5v-778q0 -36 -3.5 -55t-12.5 -39q-25 -49 -90 -49t-90 49q-9 19 -12 38t-3 56v253q-113 -20 -153 -24v-154q0 -51 -12 -74q-20 -37 -69 -37t-69 37q-13 25 -13 74v144h-52q-93 0 -162.5 32t-109 98.5t-39.5 160.5z" />
<glyph unicode="&#x4ba;" horiz-adv-x="1332" d="M191 143v1186q0 42 3 61t14 40q12 23 37 37t58 14t58 -14t37 -37q11 -21 14 -40t3 -61v-433q249 47 399 47q49 0 95 -9t89 -27t78.5 -47.5t62 -68.5t41.5 -93t15 -117v-438q0 -42 -3 -60.5t-14 -40.5q-13 -23 -38 -36.5t-57.5 -13.5t-57.5 13.5t-37 36.5 q-11 21 -13.5 39.5t-2.5 61.5v384q0 215 -227 215q-65 0 -162 -13t-168 -28v-558q0 -42 -3 -60.5t-14 -40.5q-12 -23 -37 -36.5t-58 -13.5t-58 13.5t-37 36.5q-11 22 -14 40.5t-3 60.5z" />
<glyph unicode="&#x4bb;" horiz-adv-x="1114" d="M168 135v778q0 38 3 56.5t12 37.5q25 50 89.5 50t90.5 -50q9 -20 12.5 -38.5t3.5 -55.5v-251q190 34 306 34q136 0 219 -75.5t83 -217.5v-268q0 -37 -3 -56t-12 -38q-12 -22 -35.5 -35.5t-55.5 -13.5q-65 0 -90 49q-6 13 -9.5 25t-4.5 27.5t-1 41.5v215q0 156 -163 156 q-96 0 -234 -26v-345q0 -36 -3.5 -55t-12.5 -39q-25 -49 -90 -49t-90 49q-9 19 -12 38t-3 56z" />
<glyph unicode="&#x4c0;" horiz-adv-x="606" d="M191 143v1186q0 42 3 61t14 40q12 23 37 37t58 14t58 -14t37 -37q11 -21 14 -40t3 -61v-1186q0 -42 -3 -60.5t-14 -40.5q-12 -23 -37 -36.5t-58 -13.5t-58 13.5t-37 36.5q-11 22 -14 40.5t-3 60.5z" />
<glyph unicode="&#x4cf;" horiz-adv-x="545" d="M168 135v1202q0 38 3 56.5t12 37.5q25 50 90 50t90 -50q9 -19 12.5 -38t3.5 -56v-1202q0 -36 -3.5 -55t-12.5 -39q-25 -49 -90 -49t-90 49q-9 19 -12 38t-3 56z" />
<glyph unicode="&#x4d8;" horiz-adv-x="1328" d="M139 624v22q0 23 1 36t9 33t23 35q11 12 24 19t28 10t25 3.5t27 0.5h690q-2 129 -8.5 200t-25 121.5t-54.5 90.5q-86 92 -212 92q-101 0 -166.5 -51t-107.5 -149q-27 -63 -55 -84q-26 -21 -66 -21q-45 0 -78 30q-29 29 -29 84q0 46 27.5 111t84.5 126q71 76 161.5 114 t224.5 38q230 0 379 -150q31 -30 53.5 -62.5t38.5 -63.5t26.5 -73t16.5 -78t9 -93.5t4 -104t1 -124t-1 -124t-4 -104t-9 -93.5t-16.5 -78.5t-26.5 -73.5t-38.5 -63t-53.5 -63q-149 -149 -381 -149q-118 0 -209.5 36.5t-167.5 112.5q-84 84 -114 191.5t-30 295.5zM354 585 q0 -121 17.5 -190t67.5 -120q89 -89 221 -89q133 0 219 92q31 32 48 72t25.5 100t11.5 157h-610v-22z" />
<glyph unicode="&#x4d9;" horiz-adv-x="1111" d="M110 465q-2 63 28 94q13 12 30.5 18.5t29.5 7.5t33 1h558q0 67 -17.5 121.5t-51 93t-84.5 59.5t-116 21q-120 0 -202 -66q-47 -38 -86 -38q-32 0 -59.5 27t-27.5 63q0 58 106 127q104 68 274 68q81 0 150 -17.5t129.5 -57.5t102.5 -101t66.5 -153t24.5 -209 q0 -255 -120 -395.5t-325 -140.5q-134 0 -234 61.5t-153 169t-56 246.5zM317 438q3 -50 9 -79.5t20 -62.5q28 -61 81.5 -96.5t125.5 -35.5q74 0 128 35.5t82 96.5q14 32 19 62t7 80h-472z" />
<glyph unicode="&#x4e2;" horiz-adv-x="1469" d="M191 133v1196q0 42 3 61t14 40q12 23 37 37t58 14t58 -14t37 -37q11 -21 14 -40t3 -61v-916l619 970q33 51 63 74.5t69 23.5q48 0 81 -34q32 -31 32 -108v-1196q0 -29 -1.5 -44.5t-5 -28.5t-11.5 -28q-12 -23 -37 -36.5t-57.5 -13.5t-57.5 13.5t-37 36.5 q-11 22 -14.5 40.5t-3.5 60.5v917l-618 -970q-22 -34 -40.5 -54.5t-41 -32t-48.5 -11.5q-48 0 -83 34q-32 33 -32 107zM414 1741q0 51 39 72q24 13 76 13h413q55 0 77 -13q39 -21 39 -72q0 -50 -39 -70q-24 -15 -77 -15h-413q-50 0 -76 15q-39 20 -39 70z" />
<glyph unicode="&#x4e3;" horiz-adv-x="1193" d="M168 128v785q0 38 3 56.5t12 37.5q25 50 89.5 50t90.5 -50q9 -20 12.5 -38.5t3.5 -55.5v-567l408 610q35 55 64.5 78.5t66.5 23.5q47 0 76 -29q33 -34 33 -108v-786q0 -36 -3.5 -55t-12.5 -39q-25 -49 -90 -49t-90 49q-9 19 -12 38t-3 56v568l-408 -611 q-35 -54 -64.5 -77t-66.5 -23q-47 0 -75 28q-34 33 -34 108zM275 1365q0 50 39 70q26 14 77 14h413q50 0 76 -14q38 -20 38 -70q0 -52 -38 -72q-24 -13 -76 -13h-413q-53 0 -77 13q-39 20 -39 72z" />
<glyph unicode="&#x4e8;" horiz-adv-x="1338" d="M139 736.5q0 77.5 1 124t4 104t9 93.5t16.5 78t26.5 73t38.5 63.5t53.5 62.5q149 150 382 150q230 0 379 -150q36 -35 61 -70.5t41.5 -80t26 -85t14 -103.5t6 -116.5t1.5 -143.5t-1.5 -143t-6 -116.5t-14 -103.5t-26 -84.5t-41.5 -80t-61 -71.5q-149 -149 -379 -149 q-233 0 -382 149q-31 31 -53.5 63t-38.5 63t-26.5 73.5t-16.5 78.5t-9 93.5t-4 104t-1 124zM363 643q2 -164 19.5 -238.5t66.5 -125.5q87 -93 221 -93q131 0 219 93q48 52 65.5 126.5t20.5 237.5h-612zM363 841h612q-1 54 -3.5 94.5t-7 75t-11 60.5t-16 48.5t-21 40 t-27.5 35.5q-87 92 -219 92q-135 0 -221 -92q-47 -51 -65 -124t-21 -230z" />
<glyph unicode="&#x4e9;" horiz-adv-x="1109" d="M119 524.5q0 145.5 26 242t97 170.5q121 125 313.5 125t313.5 -125q71 -74 97 -171t26 -241.5t-26 -241.5t-97 -171q-121 -124 -313.5 -124t-313.5 124q-71 74 -97 170.5t-26 242zM331 463q7 -161 71 -225q59 -60 154 -60q93 0 152 60q65 65 72 225h-449zM332 610h446 q-9 139 -70 201q-58 60 -152 60q-96 0 -154 -60q-59 -59 -70 -201z" />
<glyph unicode="&#x4ee;" horiz-adv-x="1073" d="M41 1356q-5 22 0 47.5t26 45.5q30 33 80 33q36 0 62 -22q15 -11 25 -28.5t24 -55.5l285 -746l274 746q14 38 24 55.5t25 28.5q26 22 61 22q50 0 81 -33q20 -20 25.5 -45.5t0.5 -47.5t-18 -55l-382 -1017q-53 -141 -134.5 -212.5t-200.5 -71.5h-34q-63 0 -91 14 q-21 11 -33.5 34t-12.5 51q0 60 46 85q27 15 89 15q52 0 82.5 21.5t58.5 75.5l25 48l-370 957q-13 33 -18 55zM229 1741q0 51 40 72q23 13 76 13h414q53 0 75 -13q40 -21 40 -72q0 -50 -40 -70q-24 -15 -75 -15h-414q-51 0 -76 15q-40 20 -40 70z" />
<glyph unicode="&#x4ef;" horiz-adv-x="928" d="M50.5 970.5q0.5 11.5 4.5 23.5q7 25 35.5 44t63.5 19q43 0 64 -25.5t38 -76.5l207 -642l211 642q8 25 15 40.5t18.5 31t28.5 23t40 7.5q34 0 62 -19t36 -44q11 -37 -11 -101l-382 -1103q-29 -84 -77 -130q-79 -78 -205 -78q-69 0 -98 25q-29 26 -29 72q0 51 31 74 q26 20 71 20q49 0 81.5 24.5t53.5 86.5l51 154l-293 855q-6 18 -9 27.5t-5.5 24t-2 26zM140 1365q0 50 40 70q25 14 77 14h413q50 0 75 -14q39 -20 39 -70q0 -52 -39 -72q-23 -13 -75 -13h-413q-54 0 -77 13q-40 20 -40 72z" />
<glyph unicode="&#x2013;" d="M97 573.5q0 55.5 43 80.5q26 16 86 16h650q60 0 86 -16q43 -25 43 -80.5t-43 -80.5q-26 -14 -86 -14h-650q-60 0 -86 14q-43 25 -43 80.5z" />
<glyph unicode="&#x2014;" horiz-adv-x="2007" d="M97 573.5q0 55.5 43 80.5q26 16 86 16h1556q60 0 85 -16q44 -25 44 -80.5t-44 -80.5q-25 -14 -85 -14h-1556q-60 0 -86 14q-43 25 -43 80.5z" />
<glyph unicode="&#x2018;" horiz-adv-x="546" d="M122 1065q-3 21 0 39t14 54l74 219q12 37 20.5 53.5t21.5 29.5q26 25 66 25q35 0 68 -21t39 -59q4 -22 1 -40.5t-15 -54.5l-74 -218q-11 -37 -19.5 -54t-22.5 -30q-26 -24 -67 -24q-34 0 -66.5 21.5t-39.5 59.5z" />
<glyph unicode="&#x2019;" horiz-adv-x="546" d="M122 1065q-3 21 0 39t14 54l74 219q12 37 20.5 53.5t21.5 29.5q26 25 66 25q35 0 68 -21t39 -59q4 -22 1 -40.5t-15 -54.5l-74 -218q-11 -37 -19.5 -54t-22.5 -30q-26 -24 -67 -24q-34 0 -66.5 21.5t-39.5 59.5z" />
<glyph unicode="&#x201a;" horiz-adv-x="546" d="M122 -142q3 18 14 54l74 218q12 37 20.5 54t21.5 30q27 25 66 25q22 0 44 -8.5t40.5 -27.5t22.5 -44q4 -22 1 -40.5t-15 -54.5l-74 -219q-8 -25 -13.5 -39t-12 -24.5t-16.5 -19.5q-26 -25 -67 -25q-34 0 -66.5 21.5t-39.5 59.5q-3 22 0 40z" />
<glyph unicode="&#x201c;" horiz-adv-x="953" d="M122 1065q-3 21 0 39t14 54l74 219q12 37 20.5 53.5t21.5 29.5q26 25 66 25q35 0 68 -21t39 -59q4 -22 1 -40.5t-15 -54.5l-74 -218q-11 -37 -19.5 -54t-22.5 -30q-26 -24 -67 -24q-34 0 -66.5 21.5t-39.5 59.5zM528 1065q-3 22 0 39t15 54l73 219q8 25 13.5 39 t12.5 24.5t17 19.5q25 25 66 25q22 0 43.5 -8.5t40 -27t22.5 -44.5q4 -22 1 -40.5t-15 -54.5l-74 -218q-11 -37 -19.5 -54t-22.5 -30q-26 -24 -66 -24q-34 0 -67 21.5t-40 59.5z" />
<glyph unicode="&#x201d;" horiz-adv-x="953" d="M122 1065q-3 21 0 39t14 54l74 219q12 37 20.5 53.5t21.5 29.5q26 25 66 25q35 0 68 -21t39 -59q4 -22 1 -40.5t-15 -54.5l-74 -218q-11 -37 -19.5 -54t-22.5 -30q-26 -24 -67 -24q-34 0 -66.5 21.5t-39.5 59.5zM528 1065q-3 22 0 39t15 54l73 219q8 25 13.5 39 t12.5 24.5t17 19.5q25 25 66 25q22 0 43.5 -8.5t40 -27t22.5 -44.5q4 -22 1 -40.5t-15 -54.5l-74 -218q-11 -37 -19.5 -54t-22.5 -30q-26 -24 -66 -24q-34 0 -67 21.5t-40 59.5z" />
<glyph unicode="&#x201e;" horiz-adv-x="953" d="M122 -116.5q3 18.5 14 54.5l74 219q12 36 20.5 53t21.5 30q26 25 66 25q22 0 44 -8.5t40.5 -28t22.5 -44.5q4 -22 1 -40t-15 -54l-74 -218q-8 -26 -13.5 -40t-12 -24.5t-16.5 -19.5q-26 -24 -67 -24q-34 0 -66.5 21t-39.5 58q-3 22 0 40.5zM528 -116.5q3 17.5 15 54.5 l73 219q5 15 8.5 25t7.5 19t8 15.5t8.5 12.5t10.5 11q25 25 66 25q22 0 43.5 -8.5t40 -27.5t22.5 -45q4 -22 1 -40t-15 -54l-74 -218q-11 -37 -19.5 -54t-22.5 -30q-26 -24 -66 -24q-35 0 -67.5 21t-39.5 58q-3 23 0 40.5z" />
<glyph unicode="&#x2020;" horiz-adv-x="1222" d="M126 979.5q0 55.5 44 80.5q10 7 21.5 10t25.5 4t39 1h250v262q0 26 1.5 42t4.5 27.5t9 24.5q25 50 90 50t90 -50q9 -19 12.5 -38t3.5 -56v-262h250q35 0 53 -3t32 -12q44 -25 44 -80.5t-44 -80.5q-25 -14 -85 -14h-250v-750q0 -36 -3.5 -55t-12.5 -39q-25 -49 -90 -49 t-90 49q-9 19 -12 38t-3 56v750h-250q-61 0 -86 14q-44 25 -44 80.5z" />
<glyph unicode="&#x2021;" horiz-adv-x="1222" d="M126 70q0 54 44 79q27 16 86 16h250v720h-250q-61 0 -86 14q-44 25 -44 80.5t44 80.5q10 7 21.5 10t25.5 4t39 1h250v262q0 26 1.5 42t4.5 27.5t9 24.5q25 50 90 50t90 -50q9 -19 12.5 -38t3.5 -56v-262h250q35 0 53 -3t32 -12q44 -25 44 -80.5t-44 -80.5 q-25 -14 -85 -14h-250v-720h250q58 0 85 -16q44 -25 44 -79q0 -56 -44 -81q-25 -15 -85 -15h-250v-262q0 -37 -3.5 -55.5t-12.5 -38.5q-25 -49 -90 -49t-90 49q-9 19 -12 37.5t-3 56.5v262h-250q-61 0 -86 15q-44 25 -44 81z" />
<glyph unicode="&#x2022;" d="M214 573.5q0 91.5 45.5 169.5t123 123t169 45t169 -45t123 -123t45.5 -169.5t-45.5 -169t-123 -123t-169 -45.5t-169 45.5t-123 123t-45.5 169z" />
<glyph unicode="&#x2026;" horiz-adv-x="1650" d="M136 142.5q0 62.5 44.5 107t107.5 44.5t106.5 -44.5t43.5 -107t-43.5 -106.5t-106.5 -44t-107.5 44t-44.5 106.5zM675 142.5q0 62.5 43.5 107t106.5 44.5t107.5 -44.5t44.5 -107t-44.5 -106.5t-107.5 -44t-106.5 44t-43.5 106.5zM1212 142.5q0 62.5 44.5 107t107 44.5 t106.5 -44.5t44 -107t-44 -106.5t-106.5 -44t-107 44t-44.5 106.5z" />
<glyph unicode="&#x2030;" horiz-adv-x="2470" d="M119 993v210q0 131 82.5 206.5t208.5 75.5t208 -75.5t82 -206.5v-210q0 -131 -82 -205.5t-208 -74.5q-82 0 -147 32t-104.5 96.5t-39.5 151.5zM277 999q0 -147 133 -147q132 0 132 147v199q0 146 -132 146q-133 0 -133 -146v-199zM461 61q-2 25 19 67l643 1285 q20 42 42 56q19 12 37 12t36 -9q40 -20 42 -60q1 -23 -21 -68l-643 -1284q-20 -42 -41 -56q-19 -12 -38 -12q-17 0 -35 9q-40 19 -41 60zM1038 268v210q0 87 39.5 152t105 98t146.5 33q35 0 67.5 -6.5t61.5 -18.5t54 -30t45 -41.5t34 -52t21.5 -62.5t7.5 -72v-210 q0 -131 -82 -205.5t-209 -74.5q-126 0 -208.5 74.5t-82.5 205.5zM1197 274q0 -147 132 -147t132 147v199q0 146 -132 146t-132 -146v-199zM1771 268v210q0 87 39 152t104.5 98t146.5 33q126 0 208.5 -76t82.5 -207v-210q0 -88 -39 -152t-104 -96t-148 -32 q-125 0 -207.5 74.5t-82.5 205.5zM1929 274q0 -147 132.5 -147t132.5 147v199q0 146 -132.5 146t-132.5 -146v-199z" />
<glyph unicode="&#x2039;" horiz-adv-x="737" d="M76 543l335 335q28 28 42 38.5t31 14.5q50 13 92 -28q40 -40 27 -90q-5 -17 -15.5 -32.5t-37.5 -42.5l-195 -195l195 -196q18 -18 28.5 -30t16 -22t8.5 -22q13 -50 -27 -90q-41 -41 -92 -27q-17 4 -31.5 14.5t-41.5 37.5z" />
<glyph unicode="&#x203a;" horiz-adv-x="737" d="M134 273q5 17 16 32.5t37 41.5l196 196l-196 195q-26 27 -37 42.5t-16 32.5q-13 50 28 90q41 41 92 28q16 -4 31 -15t42 -38l335 -335l-335 -335q-27 -27 -41.5 -37.5t-31.5 -14.5q-52 -14 -92 27q-41 40 -28 90z" />
<glyph unicode="&#x2044;" horiz-adv-x="365" d="M-226 61q-2 25 19 67l643 1285q21 42 42 56q19 12 37 12t36 -9q40 -20 42 -60q1 -23 -20 -68l-644 -1284q-20 -42 -41 -56q-19 -12 -36 -12q-19 0 -37 9q-40 19 -41 60z" />
<glyph unicode="&#x20ac;" horiz-adv-x="1426" d="M119 585q0 47 38 67q21 13 72 13h41v151h-41q-51 0 -72 12q-38 20 -38 69q0 47 38 68q23 13 72 13h46q8 122 39.5 203.5t103.5 153.5q150 150 380 150q133 0 223.5 -38t161.5 -114q57 -61 85 -126t28 -111q0 -54 -30 -84q-34 -30 -77 -30q-40 0 -67 21q-28 21 -54 84 q-42 98 -108.5 149t-166.5 51q-127 0 -212 -92q-25 -27 -41 -57t-25.5 -68.5t-14.5 -91.5h283q50 0 73 -13q38 -21 38 -68q0 -49 -38 -69q-21 -12 -73 -12h-290v-151h290q52 0 73 -13q38 -20 38 -67q0 -49 -38 -69q-21 -12 -73 -12h-283q7 -84 25 -135t56 -91 q85 -92 212 -92q100 0 166.5 50.5t108.5 149.5q26 63 54 84q27 21 67 21q43 0 77 -30q30 -31 30 -84q0 -29 -10.5 -65t-37 -83.5t-65.5 -89.5q-71 -75 -161.5 -113t-223.5 -38q-230 0 -380 149q-50 50 -80 105t-44.5 116t-19.5 146h-45q-51 0 -72 12q-38 20 -38 69z" />
<glyph unicode="&#x2122;" horiz-adv-x="1825" d="M76 1402q0 41 31 59q17 12 65 12h455q47 0 64 -12q32 -19 32 -59q0 -41 -32 -61q-17 -11 -64 -11h-147v-638q0 -52 -12 -74q-21 -37 -69 -37q-47 0 -68 37q-13 24 -13 74v638h-146q-48 0 -65 11q-31 19 -31 61zM860 692v660q0 35 4.5 57.5t21.5 39.5q27 28 69 28 q31 0 55 -16q28 -20 52 -66l219 -424l219 424q24 47 50 66q24 16 55 16q43 0 71 -28q16 -17 20.5 -39t4.5 -58v-660q0 -52 -12 -74q-21 -37 -68 -37q-48 0 -69 37q-12 22 -12 74v474l-160 -317q-14 -28 -40 -45t-59 -17q-23 0 -42.5 8t-34 22t-23.5 32l-160 317v-474 q0 -50 -13 -74q-20 -37 -68 -37t-68 37q-12 22 -12 74z" />
<glyph unicode="&#x2202;" horiz-adv-x="1136" d="M126 515q0 147 25.5 243.5t93.5 166.5q114 117 290 117q69 0 123 -18.5t100 -69.5v98q0 47 -13.5 90t-41.5 80.5t-77.5 60t-114.5 22.5q-96 0 -175 -55q-52 -37 -89 -37q-31 0 -58 26.5t-27 65.5q0 35 31.5 67.5t75.5 57.5q101 55 249 55q145 0 248 -60.5t153 -165 t50 -243.5v-501q0 -55 -3.5 -99.5t-11 -88.5t-21 -81t-34.5 -71.5t-50 -64.5q-116 -122 -301.5 -122t-302.5 122q-68 71 -93.5 167t-25.5 238zM337 515q0 -102 12.5 -169t53.5 -110q55 -58 144 -58q88 0 145 58q40 43 53.5 111.5t13.5 167.5q0 64 -4 108t-19.5 91.5 t-43.5 77.5q-59 60 -145 60q-87 0 -144 -60q-41 -43 -53.5 -109.5t-12.5 -167.5z" />
<glyph unicode="&#x2206;" horiz-adv-x="1275" d="M46 106q0 28 25 93l441 1175q19 52 45 76q33 31 81.5 31t81.5 -31q26 -24 45 -76l441 -1175q24 -65 24 -93q0 -48 -31 -76q-21 -18 -46 -24t-73 -6h-883q-48 0 -73 6t-46 24q-32 28 -32 76zM293 199h688l-343 931z" />
<glyph unicode="&#x220f;" horiz-adv-x="1428" d="M191 -281v1716q0 23 1 36t8.5 33.5t22.5 35.5t36 22.5t33 8.5t36 1h773q24 0 36 -1t32.5 -8.5t35.5 -22.5t22.5 -35.5t8.5 -33.5t1 -36v-1716q0 -29 -1 -44.5t-4.5 -28.5t-11.5 -28q-12 -23 -37 -36.5t-58 -13.5t-57.5 13.5t-37.5 36.5q-11 21 -13.5 39.5t-2.5 61.5v1655 h-599v-1655q0 -42 -3 -60.5t-14 -40.5q-12 -23 -37 -36.5t-58 -13.5t-58 13.5t-37 36.5q-11 22 -14 40.5t-3 60.5z" />
<glyph unicode="&#x2211;" horiz-adv-x="1128" d="M96 -320q0 29 28 88l403 805l-403 806q-28 58 -28 88q0 52 37 78q20 16 44 21.5t65 5.5h698q37 0 55.5 -3t35.5 -12q46 -25 46 -84.5t-46 -84.5q-11 -6 -23.5 -9t-27 -4t-40.5 -1h-564l353 -710q23 -48 23 -91q0 -42 -23 -90l-353 -710h564q62 0 91 -15q46 -26 46 -85.5 t-46 -84.5q-11 -6 -23.5 -9t-27 -4t-40.5 -1h-698q-40 0 -64.5 5.5t-44.5 21.5q-37 27 -37 79z" />
<glyph unicode="&#x221a;" horiz-adv-x="1198" d="M39 976q5 27 23.5 46t40.5 27t43 8q37 0 64 -24q25 -22 46 -85l178 -549l318 966q20 61 47 84q26 24 63 24h149q65 0 92 -15q45 -25 45 -84.5t-45 -84.5q-27 -14 -92 -14h-65l-385 -1169q-38 -114 -136 -114q-41 0 -66.5 23t-43.5 74l-261 792q-20 60 -15 95z" />
<glyph unicode="&#x221e;" horiz-adv-x="1715" d="M126 573.5q0 102.5 42 184t125 130t195 48.5q103 0 192.5 -51.5t177.5 -155.5q60 70 115.5 114t119.5 68.5t136 24.5q84 0 153 -28t114.5 -77t70 -115t24.5 -142q0 -103 -42 -183.5t-125 -128.5t-195 -48q-105 0 -193.5 50.5t-177.5 154.5q-43 -51 -85.5 -89t-88.5 -64.5 t-94.5 -40t-101.5 -13.5q-112 0 -195 48.5t-125 129.5t-42 183.5zM329 575q0 -49 21.5 -86t57.5 -57t82 -20q21 0 41 5t39.5 17t36 24t37 33.5t35.5 38.5t39 45q-36 43 -58 66t-52 49t-58.5 37t-59.5 11q-69 0 -115 -45t-46 -118zM998 575q36 -43 57.5 -66t51.5 -49 t58.5 -37t59.5 -11q46 0 82.5 20t58 57t21.5 86q0 73 -46 118t-116 45q-31 0 -59.5 -11t-58.5 -37.5t-51 -49t-58 -65.5z" />
<glyph unicode="&#x222b;" horiz-adv-x="892" d="M116 -339q0 52 43 74q22 13 75 15q107 2 107 121v1322q0 59 17 110.5t51 92t89.5 64t127.5 23.5h20q60 0 89 -16q43 -23 43 -74.5t-43 -73.5q-24 -14 -76 -15q-107 -3 -107 -121v-1321q0 -60 -17 -111.5t-50.5 -92t-89 -64t-127.5 -23.5h-21q-59 0 -88 16q-43 22 -43 74z " />
<glyph unicode="&#x2248;" horiz-adv-x="1181" d="M97 332q0 26 12.5 48.5t43.5 49.5q59 55 113.5 75.5t124.5 20.5q95 0 230 -65q99 -50 166 -50q25 0 46 5t43 18t47 35q37 29 70 29q40 0 67 -33q25 -30 25 -63q0 -26 -12.5 -48.5t-42.5 -49.5q-59 -55 -114 -75.5t-125 -20.5q-96 0 -230 66q-101 50 -165 50 q-38 0 -68.5 -12.5t-68.5 -44.5q-37 -31 -69 -31q-40 0 -68 34q-25 28 -25 62zM97 749q0 49 56 99q40 38 79 59t76 29t83 8q93 0 230 -66q99 -50 166 -50q38 0 68.5 13t67.5 46q36 28 70 28q40 0 67 -33q25 -30 25 -62q0 -26 -12.5 -48.5t-42.5 -49.5q-59 -54 -114 -75 t-125 -21q-96 0 -230 66q-99 49 -165 49q-39 0 -69 -12t-68 -44q-37 -31 -69 -31q-40 0 -68 34q-25 28 -25 61z" />
<glyph unicode="&#x2260;" horiz-adv-x="1178" d="M97 369q0 54 43 79q26 16 86 16h208l133 218h-341q-60 0 -86 14q-43 25 -43 80.5t43 80.5q10 7 22 10t26 4t38 1h455l113 190q23 40 45 53q36 19 73 -2q38 -23 36 -64q-1 -24 -25 -65l-66 -112h95q36 0 54 -3t32 -12q44 -25 44 -80.5t-44 -80.5q-25 -14 -86 -14h-209 l-132 -218h341q61 0 86 -16q44 -25 44 -79q0 -56 -44 -81q-27 -15 -86 -15h-453l-112 -184q-24 -40 -46 -54q-35 -18 -72 2q-38 23 -37 63q2 26 26 67l63 106h-95q-58 0 -86 15q-43 25 -43 81z" />
<glyph unicode="&#x2264;" d="M158 352q0 13 3 25.5t9 23.5t14.5 20.5t18.5 16.5t22 11t24 4q28 0 84 -27l508 -254q33 -17 48 -28t25 -25q15 -23 15 -49q0 -39 -27.5 -70t-65.5 -31q-28 0 -84 27l-507 254q-32 17 -48 28.5t-25 25.5q-14 18 -14 48zM158 787q0 26 8 46t26.5 35.5t33 24.5t42.5 23 l484 242q56 28 84 28q39 0 66.5 -31t27.5 -69q0 -27 -16 -50q-11 -15 -26 -26t-47 -27l-394 -197l394 -195q53 -27 73 -55q16 -22 16 -49q0 -38 -27.5 -68.5t-66.5 -30.5q-28 0 -84 27l-484 241q-28 15 -42.5 23.5t-33 24.5t-26.5 36t-8 47z" />
<glyph unicode="&#x2265;" d="M173 487q0 28 15 49q20 27 74 55l392 195l-392 197q-55 28 -74 53q-15 21 -15 50q0 38 27 69t66 31q28 0 83 -28l485 -242q29 -14 43 -23t33 -24.5t27 -35.5t8 -46q0 -27 -8 -47t-27 -36t-33 -24.5t-43 -23.5l-485 -241q-55 -27 -83 -27q-39 0 -66 30.5t-27 68.5zM174 70 q0 27 14 49q9 14 24.5 24.5t49.5 28.5l508 254q56 27 83 27q38 0 65 -31t27 -70q0 -30 -14 -48q-6 -10 -15 -18t-22.5 -16t-36.5 -20l-508 -254q-55 -27 -83 -27q-25 0 -46.5 15t-33.5 38t-12 48z" />
<glyph unicode="&#x25ca;" horiz-adv-x="1042" d="M97 736q0 41 24 91l271 544q14 28 23 42.5t24.5 33t35.5 26.5t46 8q15 0 28.5 -3.5t23.5 -8.5t20.5 -14t17 -16.5t14.5 -21t12.5 -22t12.5 -24.5l271 -544q24 -50 24 -91q0 -40 -24 -90l-271 -544q-14 -28 -22.5 -42.5t-24.5 -33t-36 -26.5t-46 -8q-21 0 -38.5 6.5 t-29.5 15t-24.5 25.5t-19 29t-17.5 34l-271 544q-24 50 -24 90zM295 736l226 -453l226 453l-226 455z" />
<glyph unicode="&#x25fc;" horiz-adv-x="1054" d="M0 0v1054h1054v-1054h-1054z" />
<glyph unicode="&#xfb01;" horiz-adv-x="1217" d="M55 968q0 48 37 68q22 12 74 12h48v145q0 59 17 110.5t51 92t89.5 64t127.5 23.5h20q60 0 89 -16q42 -23 42 -74.5t-42 -73.5q-24 -14 -77 -15q-106 -3 -106 -121v-135h115q51 0 73 -12q37 -20 37 -68t-37 -68q-22 -12 -73 -12h-115v-753q0 -26 -1 -41.5t-4.5 -27.5 t-9.5 -25q-11 -22 -34.5 -35.5t-56.5 -13.5q-65 0 -90 49q-9 19 -12 38t-3 56v753h-48q-52 0 -74 12q-37 20 -37 68zM817 1391q0 35 17 64t46.5 46t63.5 17q53 0 90.5 -37t37.5 -90t-37.5 -90t-90.5 -37t-90 37t-37 90zM838 135v778q0 37 3.5 55.5t12.5 38.5q26 50 90.5 50 t89.5 -50q9 -19 12 -37.5t3 -56.5v-778q0 -37 -3 -56t-12 -38q-25 -49 -90 -49t-90 49q-9 20 -12.5 39t-3.5 55z" />
<glyph unicode="&#xfb02;" horiz-adv-x="1310" d="M55 968q0 48 37 68q22 12 74 12h48v145q0 59 17 110.5t51 92t89.5 64t127.5 23.5h20q60 0 89 -16q42 -23 42 -74.5t-42 -73.5q-24 -14 -77 -15q-106 -3 -106 -121v-135h115q51 0 73 -12q37 -20 37 -68t-37 -68q-22 -12 -73 -12h-115v-753q0 -26 -1 -41.5t-4.5 -27.5 t-9.5 -25q-11 -22 -34.5 -35.5t-56.5 -13.5q-65 0 -90 49q-9 19 -12 38t-3 56v753h-48q-52 0 -74 12q-37 20 -37 68zM837 291v1048q0 37 3.5 56t12.5 38q25 50 90 50t90 -50q9 -19 12 -37.5t3 -56.5v-1039q0 -118 107 -121q55 -2 77 -14q43 -22 43 -75q0 -52 -43 -74 q-29 -16 -89 -16h-21q-72 0 -127.5 23.5t-89.5 64.5t-51 92t-17 111z" />
</font>
</defs>
</svg>
