<?xml version="1.0" standalone="no"?>
<!DOCTYPE svg PUBLIC "-//W3C//DTD SVG 1.1//EN" "http://www.w3.org/Graphics/SVG/1.1/DTD/svg11.dtd" >
<svg xmlns="http://www.w3.org/2000/svg">
<metadata></metadata>
<defs>
<font id="din_round_problack" horiz-adv-x="1092" >
<font-face units-per-em="2048" ascent="1565" descent="-483" />
<missing-glyph horiz-adv-x="435" />
<glyph horiz-adv-x="0" />
<glyph horiz-adv-x="0" />
<glyph horiz-adv-x="682" />
<glyph unicode="&#xd;" horiz-adv-x="435" />
<glyph unicode=" "  horiz-adv-x="435" />
<glyph unicode="&#x09;" horiz-adv-x="435" />
<glyph unicode="&#xa0;" horiz-adv-x="435" />
<glyph unicode="!" horiz-adv-x="719" d="M212 180.5q0 76.5 55.5 132t132 55.5t131.5 -55.5t55 -132t-55 -131.5t-131.5 -55t-132 55t-55.5 131.5zM225 690v486q0 64 3.5 91t18.5 56q19 37 60 60.5t91 23.5q34 0 64.5 -11t52.5 -29.5t34 -43.5q15 -29 18.5 -56t3.5 -91v-486q0 -45 -1 -65.5t-5.5 -41t-15.5 -41.5 q-19 -37 -59.5 -60.5t-91 -23.5t-91.5 23.5t-60 60.5q-15 30 -18.5 57t-3.5 91z" />
<glyph unicode="&#x22;" horiz-adv-x="970" d="M94 997v196q0 41 1.5 63.5t6 41t12.5 35.5q18 36 55.5 57t86 21t86.5 -21t55 -57q13 -25 16.5 -52t3.5 -88v-196q0 -60 -3.5 -86.5t-16.5 -52.5q-17 -35 -55.5 -56.5t-86.5 -21.5t-85.5 21.5t-55.5 56.5q-6 14 -10 26t-6.5 28.5t-3 35.5t-0.5 49zM555 997v196 q0 61 3.5 88t15.5 52q18 36 55.5 57t85.5 21t86.5 -21t55.5 -57q13 -25 16 -52t3 -88v-196q0 -41 -1 -63t-5 -40t-13 -36q-17 -35 -55.5 -56.5t-86.5 -21.5t-85.5 21.5t-55.5 56.5q-9 18 -13 36t-5 40t-1 63z" />
<glyph unicode="#" horiz-adv-x="1523" d="M77 478q0 43 19.5 77.5t51.5 50.5q23 11 47.5 14t78.5 3h59l40 201h-25q-53 0 -78 3.5t-48 14.5q-32 16 -51 50t-19 77.5t19 77.5t51 50q23 11 47.5 14.5t78.5 3.5h84l27 136q8 39 12.5 58t16.5 41t30 40q37 34 94 34q67 0 114 -44q19 -19 29 -41t10 -50.5t-2.5 -46.5 t-8.5 -51l-16 -76h204l28 136q8 41 12 58.5t15.5 40t30.5 40.5q37 34 94 34q66 0 114 -44q19 -19 29 -41t10 -50t-2 -47t-9 -51l-16 -76h3q28 0 44.5 -1t31.5 -2.5t26.5 -5t23.5 -9.5q31 -16 50.5 -50t19.5 -77q0 -29 -9 -54.5t-25 -44t-36 -29.5q-24 -11 -49 -14.5 t-77 -3.5h-61l-40 -201h26q54 0 78.5 -3t47.5 -14q32 -16 51.5 -50.5t19.5 -77.5t-19.5 -77t-51.5 -51q-16 -7 -32.5 -11t-37 -5.5t-56.5 -1.5h-84l-33 -167q-11 -57 -22 -85t-38 -54q-36 -34 -94 -34q-66 0 -113 44q-19 19 -29 41t-10 50t2.5 45.5t8.5 51.5l21 108h-203 l-34 -167q-8 -41 -12.5 -58.5t-16 -40t-29.5 -40.5q-37 -34 -94 -34q-67 0 -114 44q-19 19 -29 41t-10 50t2 46t8 51l23 108h-2q-53 0 -78 3.5t-48 14.5q-32 17 -51.5 51t-19.5 77zM640 623h204l40 201h-203z" />
<glyph unicode="$" horiz-adv-x="1244" d="M93 236q0 29 12.5 59.5t34.5 52.5q38 37 95 37q25 0 49.5 -8t84.5 -33q118 -51 230 -51q67 0 112 15t67 43.5t22 68.5q0 51 -28 83q-30 29 -92 37l-170 24q-185 26 -281 124q-97 100 -97 282q0 157 93 270.5t257 152.5v18q0 50 3 72.5t14 44.5q15 30 46 47.5t70.5 17.5 t70.5 -17.5t46 -47.5q11 -22 14 -44.5t3 -72.5v-6q103 -10 196 -47q43 -17 75 -42t50.5 -57.5t18.5 -69.5q0 -57 -42 -106q-39 -47 -100 -47q-40 0 -122 33q-91 40 -191 40q-83 0 -126 -37t-43 -81q0 -47 27 -75q33 -33 96 -41l170 -23q184 -26 275 -117q105 -102 105 -307 q0 -86 -29.5 -158.5t-82 -125.5t-123 -88.5t-154.5 -52.5v-54q0 -34 -1 -52.5t-5 -34t-11 -30.5q-15 -29 -46 -46.5t-71 -17.5q-19 0 -37.5 4.5t-33.5 13t-26.5 20.5t-18.5 26q-11 22 -14 44.5t-3 72.5v43q-123 10 -206 44q-92 36 -137.5 82t-45.5 118z" />
<glyph unicode="%" horiz-adv-x="1684" d="M88 951v188q0 67 24.5 120.5t66 86t94 49t112.5 16.5t112.5 -16.5t94.5 -49t66.5 -86t24.5 -120.5v-188q0 -68 -24.5 -121t-66.5 -85.5t-94.5 -49t-112.5 -16.5t-112.5 16.5t-94 49t-66 85.5t-24.5 121zM317 959q0 -76 68 -76q69 0 69 76v172q0 76 -69 76q-68 0 -68 -76 v-172zM432 100q0 20 6 38.5t24 54.5l559 1115q11 19 17 30.5t12.5 21t12.5 15.5t14 12q27 20 60 20q25 0 53 -13q63 -32 63 -94q0 -20 -6 -38.5t-25 -54.5l-560 -1115q-19 -38 -29.5 -53t-25.5 -27q-28 -20 -60 -20q-25 0 -54 14q-61 31 -61 94zM1002 261v187 q0 68 24.5 121.5t66.5 86t94.5 49.5t112.5 17t112.5 -17t94 -49.5t65.5 -86t24 -121.5v-187q0 -68 -24 -121t-65.5 -85.5t-94 -49.5t-112.5 -17t-112.5 17t-94.5 49.5t-66.5 85.5t-24.5 121zM1231 270q0 -77 69 -77q68 0 68 77v171q0 76 -68 76q-69 0 -69 -76v-171z" />
<glyph unicode="&#x26;" horiz-adv-x="1391" d="M96 415q0 204 223 360q-26 28 -43 50t-40.5 60.5t-36 84t-12.5 94.5q0 158 107 252.5t304 94.5q183 0 287 -94.5t104 -248.5q0 -38 -8 -70t-21 -58t-36.5 -52t-49.5 -48.5t-64 -50.5l-57 -42l165 -190q46 56 60 141q9 50 23 78q18 31 50 51.5t76 20.5q45 0 79.5 -21 t52.5 -54q16 -34 16 -90q0 -41 -14 -101.5t-38 -112.5q-35 -73 -95 -143l18 -23q45 -54 61 -84.5t16 -68.5q0 -66 -60 -117q-48 -41 -104 -41q-47 0 -80 23.5t-80 81.5l-1 1q-33 -25 -61 -41.5t-69 -33.5t-93 -26t-114 -9q-229 0 -347 112.5t-118 314.5zM407 429 q0 -65 48.5 -107.5t114.5 -42.5q49 0 79 13t59 38l-218 250q-48 -34 -65.5 -67.5t-17.5 -83.5zM509 1062q0 -27 18.5 -55t56.5 -65l47 33q55 40 55 89q0 34 -23 55t-65 21q-43 0 -66 -21.5t-23 -56.5z" />
<glyph unicode="'" horiz-adv-x="510" d="M94 997v196q0 41 1.5 63.5t6 41t12.5 35.5q18 36 55.5 57t86 21t86.5 -21t55 -57q13 -25 16.5 -52t3.5 -88v-196q0 -60 -3.5 -86.5t-16.5 -52.5q-17 -35 -55.5 -56.5t-86.5 -21.5t-85.5 21.5t-55.5 56.5q-6 14 -10 26t-6.5 28.5t-3 35.5t-0.5 49z" />
<glyph unicode="(" horiz-adv-x="703" d="M141 322v756q0 95 9 156t32 109q41 84 139 181q37 38 60.5 54.5t53.5 25.5q32 12 80 1t80 -43t41 -76.5t-3 -75.5q-7 -20 -15 -34.5t-22 -32t-40 -43.5q-37 -37 -59 -76q-33 -57 -33 -159v-730q0 -102 33 -159q22 -39 59 -76t52 -59t25 -52q12 -31 3 -75t-41 -76 t-80 -43.5t-80 1.5q-30 9 -53.5 25t-60.5 54q-98 98 -139 182q-23 48 -32 109t-9 156z" />
<glyph unicode=")" horiz-adv-x="703" d="M67.5 -86q-9.5 44 3.5 75q9 30 24.5 51.5t53.5 59.5q34 34 57 76q34 57 34 159v730q0 102 -34 159q-23 41 -57 76q-38 38 -53.5 59.5t-24.5 50.5q-13 32 -3.5 76t41.5 76t80 43t81 -1q30 -9 52.5 -25t60.5 -55q97 -97 138 -181q16 -33 25.5 -72.5t13 -84.5t3.5 -108v-756 q0 -95 -9 -156t-33 -109q-41 -84 -138 -182q-38 -38 -60.5 -54t-52.5 -25q-33 -13 -81 -1.5t-80 43.5t-41.5 76z" />
<glyph unicode="*" horiz-adv-x="943" d="M113 901q11 17 26.5 29.5t49.5 33.5l56 32l-56 34q-34 21 -49.5 33.5t-26.5 28.5q-34 51 3 112q18 29 44 43.5t54 12.5q34 -4 89 -38l57 -34v68q0 65 13 96q9 17 23.5 29.5t34 19t41.5 6.5q71 0 98 -55q14 -31 14 -96v-68l56 34q56 34 90 38q28 2 54 -12.5t44 -43.5 q37 -61 2 -112q-10 -16 -26 -28.5t-49 -33.5l-56 -34l56 -32q33 -21 49 -33.5t26 -29.5q35 -51 -2 -112q-18 -29 -44 -43.5t-54 -11.5q-34 4 -90 38l-56 33v-67q0 -65 -14 -96q-13 -27 -38.5 -41.5t-59 -14.5t-60 15t-39.5 41q-13 31 -13 96v67l-57 -33q-55 -34 -89 -38 q-19 -2 -36.5 4t-33.5 19t-28 32q-37 61 -3 112z" />
<glyph unicode="+" d="M88 581q0 28 9.5 54t25.5 44.5t36 28.5q24 12 49 15.5t77 3.5h116v116q0 28 0.5 44.5t2.5 31.5t5.5 26.5t9.5 23.5q16 31 50 50.5t77 19.5t77.5 -19.5t50.5 -50.5q11 -24 14.5 -49t3.5 -77v-116h116q53 0 78 -3.5t48 -15.5q32 -16 51.5 -50t19.5 -77t-19.5 -77.5 t-51.5 -50.5q-16 -8 -32.5 -11.5t-36.5 -4.5t-57 -1h-116v-116q0 -36 -1.5 -57t-5 -37t-11.5 -32q-6 -12 -15.5 -23t-21.5 -20t-26.5 -15t-30.5 -9.5t-34 -3.5q-43 0 -77 19.5t-50 51.5q-11 23 -14.5 47.5t-3.5 78.5v116h-116q-54 0 -78.5 3t-47.5 14q-15 8 -28 21t-22.5 29 t-15 36t-5.5 42z" />
<glyph unicode="," horiz-adv-x="586" d="M49 -155q-4 30 1.5 58t23.5 82l85 256q20 58 31 81.5t32 44.5q40 40 102 40q32 0 66.5 -12.5t64.5 -43.5t36 -74q3 -29 -2 -57t-23 -82l-86 -256q-14 -41 -21 -59.5t-17 -35.5t-24 -31q-41 -40 -103 -40q-31 0 -65.5 12.5t-65 43.5t-35.5 73z" />
<glyph unicode="-" horiz-adv-x="837" d="M88 580q0 28 9.5 54t25.5 44.5t36 29.5q24 11 49 14.5t77 3.5h267q53 0 78.5 -3.5t48.5 -14.5q31 -17 50.5 -51t19.5 -77t-19.5 -77.5t-50.5 -50.5q-23 -11 -48 -14t-79 -3h-267q-54 0 -78.5 3t-47.5 14q-8 5 -16.5 11t-15.5 13.5t-13 16.5t-10.5 19t-8 20.5t-5.5 22.5 t-2 25z" />
<glyph unicode="." horiz-adv-x="577" d="M83 200.5q0 85.5 60 146t146 60.5t146 -60.5t60 -146t-60 -146t-146 -60.5t-146 60.5t-60 146z" />
<glyph unicode="/" horiz-adv-x="846" d="M39.5 -25.5q-0.5 15.5 0.5 28t5.5 31t8 29t9.5 30.5l435 1306q10 30 16 45t19.5 39.5t27.5 37t38 22t53 9.5q35 0 67 -13.5t53.5 -36.5t31.5 -51q5 -16 5.5 -33.5t-4 -39t-8.5 -35.5t-13 -39l-435 -1306q-10 -30 -15.5 -45.5t-19 -39.5t-28 -36.5t-38 -22.5t-52.5 -10 q-53 0 -95.5 29.5t-56.5 72.5q-4 13 -4.5 28.5z" />
<glyph unicode="0" d="M96 424v551q0 71 17 133t48 109t73 84.5t92.5 61t106 36t113.5 12.5q50 0 98 -9t93 -27t84 -44.5t71.5 -62.5t55.5 -79.5t35.5 -98t12.5 -115.5v-551q0 -84 -24.5 -155.5t-67 -122.5t-99.5 -87t-122.5 -53.5t-136 -17.5t-136 17.5t-123 53.5t-100 87t-67 122.5 t-24.5 155.5zM419 422q0 -70 36 -106.5t91.5 -36.5t91.5 36.5t36 106.5v553q0 48 -18 81.5t-46 48.5t-64 15q-55 0 -91 -37.5t-36 -107.5v-553z" />
<glyph unicode="1" d="M94.5 857.5q-11.5 39.5 0.5 73.5q8 25 23.5 45t55.5 60l290 290q81 81 172 81q71 0 116 -45q20 -20 31 -49t13 -51t2 -58v-994q0 -60 -3.5 -86.5t-15.5 -52.5q-18 -35 -56 -57t-86 -22t-86 22t-56 57q-12 26 -15.5 52.5t-3.5 86.5v701l-89 -88q-21 -21 -33.5 -32.5 t-25 -21.5t-23 -15.5t-23.5 -9.5q-34 -12 -73.5 -0.5t-71 43t-43 71z" />
<glyph unicode="2" d="M97 163q0 50 20.5 88t61.5 84l396 455q55 63 78.5 107t23.5 101q0 53 -34 87.5t-94 34.5q-54 0 -83 -23t-58 -78q-27 -53 -63 -77q-32 -24 -87 -24q-72 0 -114 49q-38 45 -38 114q0 65 34 128.5t90 105.5q65 50 137.5 73t173.5 23q138 0 240 -45t159.5 -137t57.5 -221 q0 -51 -10 -97t-25 -82t-45 -79.5t-57 -75.5t-74 -85l-269 -298h299q37 0 57 -1t36.5 -5t32.5 -11q31 -17 51 -51t20 -77t-20 -78t-51 -51q-23 -11 -47.5 -14t-78.5 -3h-517q-35 0 -57.5 2t-51.5 12.5t-49 31.5q-45 45 -45 117z" />
<glyph unicode="3" d="M111 303q0 71 41 115q45 48 118 48q35 0 57.5 -7t41.5 -24q9 -8 16 -15.5t15 -21t12.5 -21t16.5 -30.5q19 -35 46.5 -51.5t81.5 -16.5q59 0 97 38.5t38 110.5q0 44 -18 76.5t-50.5 50.5t-75.5 21q-52 3 -84 19q-68 35 -68 120q0 87 68 121q32 16 84 19q60 4 99 37.5 t39 94.5q0 64 -36 98.5t-93 34.5q-43 0 -68 -15.5t-44 -49.5q-20 -37 -31.5 -54t-28.5 -31q-13 -12 -26 -18.5t-30 -9.5t-40 -3q-67 0 -111 43.5t-44 113.5q0 66 35 127q28 50 74 88q119 100 316 100q94 0 175.5 -26.5t143 -77t96.5 -127.5t35 -173q0 -58 -13.5 -105.5 t-38.5 -81t-48.5 -55t-55.5 -41.5q33 -23 58.5 -48t50.5 -62.5t39 -89.5t14 -115q0 -102 -35 -182.5t-96.5 -132t-144 -79t-180.5 -27.5q-115 0 -193 22t-145 76q-50 40 -80 96t-30 121z" />
<glyph unicode="4" d="M19 367q0 47 45 136l386 773q24 47 39 67.5t36 37.5q35 26 79 26q60 0 107.5 -41t47.5 -100q0 -28 -7 -51.5t-32 -73.5l-318 -634h157v2q0 56 3 81.5t15 50.5q16 33 53 53.5t81 20.5q30 0 57.5 -9.5t47.5 -26t31 -38.5q11 -25 14.5 -50.5t3.5 -81.5v-2h2q56 0 81 -3.5 t50 -14.5q22 -11 39 -31t26.5 -47t9.5 -57q0 -45 -21 -82t-54 -53q-25 -12 -50 -15t-81 -3h-2v-2q0 -56 -3.5 -81.5t-14.5 -50.5q-16 -33 -53.5 -54t-82.5 -21q-29 0 -56.5 10t-47 27t-30.5 38q-12 25 -15 50.5t-3 81.5v2h-307q-44 0 -73.5 3t-57 13t-48.5 29 q-54 47 -54 121z" />
<glyph unicode="5" d="M115 303q0 74 45 119q44 44 114 44q24 0 41.5 -3.5t31 -10t25.5 -17.5q13 -11 23 -24t17.5 -25.5t21.5 -38.5q19 -34 43.5 -51t68.5 -17q62 0 97 36q41 41 41 163q0 111 -34 155t-102 44q-39 0 -65.5 -10.5t-51.5 -33.5q-38 -34 -59 -45q-36 -18 -88 -18q-24 0 -43 4 t-37 13.5t-34 25.5q-46 47 -46 136v473q0 26 1.5 44.5t12 46.5t29.5 47q18 18 43 27.5t42.5 11t47.5 1.5h488q30 0 45 -0.5t30.5 -2.5t26 -5t24.5 -10q32 -16 51.5 -50.5t19.5 -77t-19.5 -77t-51.5 -50.5q-26 -12 -48.5 -15t-77.5 -3h-371v-216q25 20 77.5 37.5t111.5 17.5 q87 0 156.5 -27t113.5 -71q42 -42 69 -87t40 -94t17.5 -92t4.5 -99q0 -131 -27 -212t-104 -158q-120 -120 -330 -120q-103 0 -179.5 23t-141.5 75q-50 40 -80 96t-30 121z" />
<glyph unicode="6" d="M75 439q0 76 28 164t94 219l226 454q24 47 39 67.5t36 37.5q35 26 79 26q60 0 107.5 -41t47.5 -100q0 -28 -7 -51.5t-32 -73.5l-145 -289q35 9 85 9q52 0 104.5 -17t101 -52t86 -84t60 -119t22.5 -150q0 -108 -37.5 -195t-102 -142t-148 -84.5t-179 -29.5t-179 29.5 t-148 84.5t-101.5 142t-37 195zM397 438.5q0 -75.5 41 -117.5t102.5 -42t102.5 42t41 117.5t-41 117.5t-102.5 42t-102.5 -42t-41 -117.5z" />
<glyph unicode="7" d="M67 1097v123q0 27 1.5 45t12 47t29.5 48q26 26 57 33t77 7h577q66 0 102.5 -9t67.5 -36q49 -44 49 -120q0 -44 -31 -124l-364 -972q-18 -48 -31 -72t-32 -42q-36 -33 -90 -33q-57 0 -105 36t-53 89q-2 27 4 54t24 75l323 863h-295v-12q0 -40 -1.5 -63t-6 -41t-12.5 -36 q-12 -23 -32.5 -40.5t-49 -28t-60.5 -10.5q-48 0 -86 22t-56 57q-12 26 -15.5 53t-3.5 87z" />
<glyph unicode="8" d="M77 419q0 49 12 94t27 74t41 59t39.5 42t37.5 32q-14 12 -23.5 20.5t-26 25.5t-28 32.5t-25 38.5t-21.5 46t-14 52.5t-6 60.5q0 97 37.5 176.5t101 131t145.5 79.5t172.5 28t172.5 -28t145 -79.5t100.5 -131t37.5 -176.5q0 -43 -10.5 -83t-25 -67t-36.5 -54.5t-36.5 -41 t-34.5 -30.5q24 -20 37.5 -32t40 -42t41 -59t27 -74t12.5 -94q0 -106 -37 -189.5t-102 -135.5t-149.5 -79t-182.5 -27q-78 0 -147.5 17t-128.5 51.5t-102 84.5t-67 121t-24 157zM399 426.5q0 -60.5 43.5 -104t104 -43.5t104 43.5t43.5 104t-43.5 104t-104 43.5t-104 -43.5 t-43.5 -104zM413 987q0 -56 38.5 -95t94.5 -39t95.5 39t39.5 95t-39.5 94.5t-95.5 38.5t-94.5 -38.5t-38.5 -94.5z" />
<glyph unicode="9" d="M86 961q0 108 37.5 195t101.5 142t148 84t179 29t179 -29t148.5 -84t102 -142t37.5 -195q0 -76 -28.5 -164t-93.5 -219l-228 -454q-24 -48 -38.5 -68.5t-35.5 -37.5q-35 -26 -79 -26q-60 0 -107.5 41.5t-47.5 99.5q0 29 7 52.5t32 72.5l144 290q-34 -9 -84 -9 q-37 0 -74.5 8.5t-74.5 26.5t-70 43.5t-61.5 61t-49 77.5t-32.5 94.5t-12 110.5zM409 961q0 -76 40.5 -117t102.5 -41t103 41.5t41 116.5t-41 117t-103 42t-102.5 -41.5t-40.5 -117.5z" />
<glyph unicode=":" horiz-adv-x="623" d="M128 200.5q0 85.5 60 146t146 60.5t146 -60.5t60 -146t-60 -146t-146 -60.5t-146 60.5t-60 146zM128 692q0 86 60 146.5t146 60.5q56 0 103.5 -28t75 -75.5t27.5 -103.5q0 -86 -60 -146t-146 -60t-146 60t-60 146z" />
<glyph unicode=";" horiz-adv-x="623" d="M79 -155q-4 30 1 58t24 82l85 256q20 58 31 81.5t32 44.5q40 40 102 40q32 0 66 -12.5t64.5 -43.5t35.5 -74q4 -29 -1 -57t-24 -82l-85 -256q-19 -57 -31 -81t-32 -45q-41 -40 -102 -40q-32 0 -66 12.5t-64.5 43.5t-35.5 73zM158 692q0 86 60.5 146.5t146.5 60.5 q56 0 103.5 -28t75 -75.5t27.5 -103.5q0 -86 -60.5 -146t-145.5 -60q-56 0 -103.5 27.5t-75.5 75t-28 103.5z" />
<glyph unicode="&#x3c;" d="M96 580q0 24 5 44t16 36.5t21.5 28.5t28.5 23.5t29.5 18t31.5 16.5l473 237q50 25 73 32t52 7q58 0 100 -47.5t42 -107.5q0 -43 -27 -79q-17 -21 -37.5 -36t-68.5 -39l-269 -134l269 -135q48 -23 68.5 -38t37.5 -36q27 -37 27 -79q0 -60 -42 -108t-100 -48q-20 0 -35 3 t-35.5 11t-54.5 26l-473 237q-24 12 -38 20t-34.5 23.5t-31.5 31t-19.5 39.5t-8.5 53z" />
<glyph unicode="=" d="M88 332q0 43 20 77.5t51 50.5q24 11 49 14.5t77 3.5h523q53 0 78 -3.5t48 -14.5q32 -16 51.5 -50.5t19.5 -77.5t-19.5 -77t-51.5 -51q-23 -11 -47.5 -14t-78.5 -3h-523q-54 0 -78.5 3t-47.5 14q-31 17 -51 51t-20 77zM88 825.5q0 28.5 9.5 54t25.5 44.5t36 29 q24 12 49 15.5t77 3.5h523q53 0 78 -3.5t48 -15.5q32 -16 51.5 -50t19.5 -77t-19.5 -77.5t-51.5 -50.5q-23 -11 -47.5 -14t-78.5 -3h-523q-54 0 -78.5 3t-47.5 14q-20 11 -36 29.5t-25.5 44t-9.5 54z" />
<glyph unicode="&#x3e;" d="M126 292q0 42 27 79q17 21 37 36t67 38l270 135l-270 134q-47 24 -67 38.5t-37 36.5q-27 36 -27 79q0 39 18.5 74.5t51.5 58t72 22.5q20 0 35 -3t35 -11t55 -25l473 -237q24 -12 37.5 -20t34 -23.5t31.5 -31t19 -40t8 -52.5q0 -24 -5 -44.5t-15.5 -36.5t-21 -28 t-28 -23.5t-29.5 -18t-31 -16.5l-473 -237q-50 -25 -73.5 -32.5t-51.5 -7.5q-59 0 -100.5 48t-41.5 108z" />
<glyph unicode="?" horiz-adv-x="1056" d="M127 1062q0 50 29.5 116t90.5 121q122 109 312 112q72 1 137.5 -15t120.5 -49.5t95.5 -80.5t63 -112t22.5 -141q0 -81 -25 -138.5t-74 -116.5l-97 -115q-44 -49 -64 -99q-23 -54 -53 -84q-44 -44 -119 -44q-72 0 -119 47q-38 38 -38 104q0 77 77 168l137 160 q54 63 54 118q0 23 -7.5 42.5t-22 34t-36 22.5t-48.5 8q-63 0 -97 -38q-23 -26 -39 -66q-17 -44 -45 -72q-37 -38 -108 -38q-66 0 -108 42q-39 40 -39 114zM379 180.5q0 76.5 55.5 132t132 55.5t131.5 -55.5t55 -132t-55 -131.5t-131.5 -55t-132 55t-55.5 131.5z" />
<glyph unicode="@" horiz-adv-x="1540" d="M96 336v547q0 141 27.5 236t98.5 166.5t168 98.5t241 27h279q140 0 238.5 -27t170.5 -99q71 -71 98.5 -165.5t27.5 -236.5v-684q0 -39 -1.5 -59.5t-5 -38t-11.5 -34.5q-17 -33 -53.5 -54t-81.5 -21q-48 0 -86.5 23.5t-55.5 65.5q-50 -48 -100.5 -70.5t-123.5 -22.5 q-146 0 -236 87q-19 18 -33.5 39t-24.5 41t-16.5 47t-10.5 50t-6 58.5t-2.5 62.5t-0.5 71q0 63 1 99t6 80.5t15 73.5t28 60t44 57q90 86 234 86q131 0 215 -80v51q0 124 -64 187q-62 62 -186 62h-236q-60 0 -105.5 -13t-81.5 -49q-38 -38 -50.5 -82t-12.5 -105v-515 q0 -48 9 -77.5t33 -59.5q28 -35 36.5 -56.5t8.5 -52.5q0 -66 -57 -114q-45 -39 -103 -39q-45 0 -76 22t-74 74q-45 56 -64.5 118.5t-19.5 164.5zM902 444q0 -43 5 -74.5t14 -53.5t24 -35.5t33 -19.5t42 -6q62 0 90.5 42.5t28.5 147t-28.5 146.5t-90.5 42q-40 0 -65.5 -17 t-39 -59t-13.5 -113z" />
<glyph unicode="A" horiz-adv-x="1272" d="M38 147q3 30 9.5 53t21.5 63l374 993q18 47 33.5 71t38.5 42q47 38 121.5 38t121.5 -38q22 -18 37.5 -42t33.5 -71l374 -993q15 -40 21.5 -63t9.5 -53q1 -6 1 -13q0 -23 -9 -42q-11 -25 -35 -49q-51 -51 -123 -51q-59 0 -97 36q-22 19 -35 43.5t-34 80.5l-20 56h-491 l-21 -56q-21 -56 -34 -80.5t-35 -43.5q-38 -36 -97 -36q-72 0 -123 51q-24 24 -35 49q-9 20 -9 42q0 7 1 13zM494 495h284l-142 390z" />
<glyph unicode="B" horiz-adv-x="1283" d="M139 211v977q0 35 2 56.5t13.5 53t33.5 54t54 34t53 13t56 1.5h371q107 0 192 -29.5t140.5 -83t84.5 -127.5t29 -165q0 -46 -12 -87.5t-29 -70.5t-40 -55t-39 -39t-33 -25q25 -16 40.5 -27t43.5 -39t45 -57.5t30.5 -77.5t13.5 -104q0 -131 -58 -225.5t-155.5 -141 t-223.5 -46.5h-400q-26 0 -41.5 1t-39.5 5t-44.5 14.5t-37.5 27.5q-22 22 -33.5 54t-13.5 53.5t-2 55.5zM486 306h232q65 0 95.5 37.5t30.5 89.5q0 50 -30.5 86t-95.5 36h-232v-249zM486 863h214q65 0 94.5 33.5t29.5 80.5q0 23 -6.5 42.5t-20 36.5t-38.5 27t-59 10h-214 v-230z" />
<glyph unicode="C" horiz-adv-x="1188" d="M94 700q0 63 0.5 99t3.5 89t8.5 87t16 77.5t25.5 75.5t38 66.5t53 64.5q51 50 107.5 83.5t126 51t152.5 17.5q129 0 209 -23.5t144 -81.5q50 -45 81.5 -96.5t41.5 -90t10 -73.5q0 -83 -48 -131t-119 -48q-53 0 -92 27q-18 12 -34.5 30.5t-28.5 36.5t-29 48q-12 21 -24 37 t-25 27t-28 18t-31 10.5t-35 3.5q-76 0 -124 -61q-31 -41 -41.5 -108.5t-10.5 -236t10.5 -235.5t41.5 -108q48 -61 124 -61q32 0 56.5 9.5t46 31t40.5 56.5q26 44 46 70t46 44q39 27 92 27q71 0 119 -48t48 -131q0 -56 -30.5 -126t-102.5 -134q-64 -58 -144 -82t-209 -24 q-123 0 -216 38t-170 115q-23 23 -42 49t-33.5 51t-25.5 56t-18 57t-12 63t-8 64t-4 70t-1.5 71.5t-0.5 77.5z" />
<glyph unicode="D" horiz-adv-x="1279" d="M139 211v977q0 35 2 56.5t13.5 53t33.5 54t54 34t53 13t56 1.5h309q309 0 455 -236q20 -34 33 -71t20.5 -69t11 -91t4 -100.5t0.5 -133t-0.5 -132.5t-4 -100t-11 -91t-20.5 -69t-33 -71q-146 -236 -455 -236h-309q-26 0 -41.5 1t-39.5 5t-44.5 14.5t-37.5 27.5 q-22 22 -33.5 54t-13.5 53.5t-2 55.5zM486 306h151q113 0 166 79q22 31 29 87.5t7 227.5q0 118 -3.5 179t-10.5 87.5t-22 48.5q-53 78 -166 78h-151v-787z" />
<glyph unicode="E" horiz-adv-x="1191" d="M139 211v977q0 35 2 56.5t13.5 53t33.5 54t54 34t53 13t56 1.5h546q38 0 58.5 -1.5t38 -5t34.5 -12.5q33 -16 54 -53t21 -82q0 -22 -5.5 -43.5t-15.5 -38.5t-24 -30.5t-30 -21.5q-25 -12 -50 -15.5t-81 -3.5h-411v-234h322q39 0 59.5 -1t38 -5t34.5 -12q33 -16 54 -53.5 t21 -82t-21 -81.5t-54 -53q-26 -12 -51.5 -15.5t-80.5 -3.5h-322v-246h411q56 0 81 -3t50 -15q33 -16 54 -53t21 -81.5t-21 -82t-54 -53.5q-25 -12 -50 -15t-81 -3h-546q-26 0 -41.5 1t-39.5 5t-44.5 14.5t-37.5 27.5q-22 22 -33.5 54t-13.5 53.5t-2 55.5z" />
<glyph unicode="F" horiz-adv-x="1167" d="M139 224v964q0 35 2 56.5t13.5 53t33.5 54t54 34t53 13t56 1.5h546q38 0 58.5 -1.5t38 -5t34.5 -12.5q33 -16 54 -53t21 -82q0 -22 -5.5 -43.5t-15.5 -38.5t-24 -30.5t-30 -21.5q-25 -12 -50 -15.5t-81 -3.5h-411v-245h322q55 0 80.5 -4t51.5 -16q33 -16 54 -52.5 t21 -81.5t-21 -81.5t-54 -52.5q-26 -12 -51.5 -16t-80.5 -4h-322v-316q0 -64 -3.5 -91t-18.5 -56q-20 -38 -60 -61.5t-91 -23.5t-92 23.5t-60 61.5q-15 29 -18.5 56t-3.5 91z" />
<glyph unicode="G" horiz-adv-x="1230" d="M94 700q0 63 0.5 99t3.5 89t8.5 87t16 77.5t25.5 75.5t38 66.5t53 64.5q51 50 107.5 83.5t126 51t152.5 17.5q129 0 209 -23.5t144 -81.5q50 -45 81.5 -96.5t41.5 -90t10 -73.5q0 -83 -48 -131t-119 -48q-53 0 -92 27q-18 12 -34.5 30.5t-28.5 36.5t-29 48q-12 21 -24 37 t-25 27t-28 18t-31 10.5t-35 3.5q-76 0 -124 -61q-31 -41 -41.5 -108.5t-10.5 -235.5q0 -123 6.5 -194t16 -98.5t28.5 -51.5q20 -26 57 -43.5t80 -17.5q84 0 133 55q44 50 44 114h-3q-55 0 -81.5 3.5t-51.5 15.5q-33 16 -53.5 52.5t-20.5 81.5t20.5 82t53.5 53 q25 12 51.5 15.5t81.5 3.5h118q26 0 41.5 -1t39.5 -5t44.5 -14.5t37.5 -27.5t27.5 -37.5t15 -44.5t5.5 -40t1 -41v-9q0 -134 -29 -234t-98 -170q-84 -86 -172 -122.5t-209 -36.5q-124 0 -217 37t-169 113q-30 30 -53 64.5t-38 67t-25.5 76t-16 77.5t-8.5 88t-3.5 90t-0.5 99 z" />
<glyph unicode="H" horiz-adv-x="1336" d="M139 224v952q0 64 3.5 91t18.5 56q19 37 60 60.5t92 23.5q34 0 64 -11t52 -29.5t35 -43.5q15 -29 18.5 -56t3.5 -91v-315h366v315q0 47 0.5 66t5 40t15.5 41q19 37 60 60.5t91.5 23.5t91.5 -23.5t60 -60.5q15 -29 18 -55t3 -92v-952q0 -66 -3 -92t-18 -55 q-19 -38 -60 -61.5t-91.5 -23.5t-91.5 23.5t-60 61.5q-15 29 -18 55t-3 92v331h-366v-331q0 -64 -3.5 -91t-18.5 -56q-20 -38 -60 -61.5t-91 -23.5t-92 23.5t-60 61.5q-15 29 -18.5 56t-3.5 91z" />
<glyph unicode="I" horiz-adv-x="624" d="M139 224v952q0 64 3.5 91t18.5 56q19 37 60 60.5t92 23.5q34 0 64 -11t52 -29.5t35 -43.5q15 -29 18.5 -56t3.5 -91v-952q0 -64 -3.5 -91t-18.5 -56q-20 -38 -60 -61.5t-91 -23.5t-92 23.5t-60 61.5q-15 29 -18.5 56t-3.5 91z" />
<glyph unicode="J" horiz-adv-x="1039" d="M47 199q0 30 13.5 60.5t35.5 49.5q38 33 91 33q12 0 22 -1t22 -4.5t18 -5.5t22.5 -8t23.5 -8q49 -18 101 -18q83 0 132.5 47t49.5 144v688q0 64 3.5 91t18.5 56q19 38 59.5 61t91 23t91.5 -23.5t60 -60.5q15 -29 18.5 -56t3.5 -91v-696q0 -97 -29.5 -178.5t-80.5 -138.5 t-119 -97t-143.5 -59t-155.5 -19q-171 0 -274 76q-41 31 -58 62.5t-17 72.5z" />
<glyph unicode="K" horiz-adv-x="1254" d="M139 224v952q0 64 3.5 91t18.5 56q19 37 60 60.5t92 23.5q34 0 64 -11t52 -29.5t35 -43.5q15 -29 18.5 -56t3.5 -91v-268l328 395q48 58 80.5 81t79.5 23q56 0 104 -40q61 -51 61 -116q0 -27 -8 -49.5t-23.5 -45.5t-45.5 -60l-219 -264l306 -536q21 -36 31.5 -59 t15 -42.5t4.5 -40.5q0 -89 -84 -138q-44 -24 -87 -24q-25 0 -47.5 8.5t-38.5 20t-32.5 31.5t-26.5 36t-25 42l-254 445l-119 -142v-209q0 -64 -3.5 -91t-18.5 -56q-20 -38 -60 -61.5t-91 -23.5t-92 23.5t-60 61.5q-15 29 -18.5 56t-3.5 91z" />
<glyph unicode="L" horiz-adv-x="1128" d="M139 211v965q0 64 3.5 91t18.5 56q19 37 60 60.5t92 23.5q34 0 64 -11t52 -29.5t35 -43.5q15 -29 18.5 -56t3.5 -91v-870h389q29 0 46 -0.5t33 -2.5t28 -5.5t25 -9.5q33 -16 53.5 -53t20.5 -81.5t-20.5 -82t-53.5 -53.5q-25 -11 -50.5 -14.5t-80.5 -3.5h-525 q-26 0 -41.5 1t-39.5 5t-44.5 14.5t-37.5 27.5q-22 22 -33.5 54t-13.5 53.5t-2 55.5z" />
<glyph unicode="M" horiz-adv-x="1587" d="M139 224v973q0 60 10.5 97.5t40.5 67.5q46 46 115 46q63 0 102 -27q41 -27 85 -98l302 -516l303 516q43 71 85 98q39 27 101 27q70 0 116 -46q29 -29 39.5 -67t10.5 -98v-973q0 -66 -3.5 -92t-17.5 -55q-20 -38 -60.5 -61.5t-91.5 -23.5q-34 0 -64.5 11t-52.5 30t-35 44 q-15 29 -18 55t-3 92v446l-160 -276q-30 -52 -62.5 -74.5t-86.5 -22.5t-86 22.5t-62 74.5l-160 276v-446q0 -64 -3.5 -91t-18.5 -56q-20 -38 -60 -61.5t-91 -23.5t-92 23.5t-60 61.5q-15 29 -18.5 56t-3.5 91z" />
<glyph unicode="N" horiz-adv-x="1375" d="M139 224v971q0 57 9.5 94.5t36.5 65.5q53 52 130 52q56 0 99.5 -36t103.5 -127l373 -548v480q0 47 1 66t5.5 40t14.5 41q19 37 60 60.5t92 23.5q25 0 49 -6t43.5 -17.5t34.5 -27t24 -33.5q15 -29 18 -55t3 -92v-972q0 -37 -2.5 -62.5t-13 -51.5t-29.5 -45 q-52 -53 -129 -53q-57 0 -100 36.5t-104 127.5l-372 548v-480q0 -64 -3.5 -91t-18.5 -56q-20 -38 -60 -61.5t-91 -23.5t-92 23.5t-60 61.5q-15 29 -18.5 56t-3.5 91z" />
<glyph unicode="O" horiz-adv-x="1257" d="M94 700q0 63 0.5 99t3.5 89t8.5 87t16 77.5t25.5 75.5t38 66.5t53 64.5q77 76 171 114t219 38t219.5 -38t171.5 -114q29 -30 52 -64.5t38 -66.5t25.5 -76t16 -77t8.5 -87t3.5 -89t0.5 -99t-0.5 -99t-3.5 -89t-8.5 -87.5t-16 -77.5t-25.5 -75.5t-38 -66t-52 -64.5 q-77 -77 -171.5 -115t-219.5 -38t-219 38t-171 115q-23 23 -42 49t-33.5 51t-25.5 56t-18 57t-12 63t-8 64t-4 70t-1.5 71.5t-0.5 77.5zM441 699.5q0 -122.5 6.5 -193.5t16 -97.5t28.5 -50.5q21 -27 56.5 -45t80.5 -18q30 0 57.5 9t47 22.5t33.5 31.5q18 24 27.5 50.5 t16.5 97.5t7 193.5t-7 194t-16.5 99t-27.5 51.5q-21 26 -57 43.5t-81 17.5t-81 -17t-56 -44q-19 -24 -28.5 -51.5t-16 -99t-6.5 -194z" />
<glyph unicode="P" horiz-adv-x="1232" d="M139 224v964q0 35 2 56.5t13.5 53t33.5 54t54 34t53 13t56 1.5h345q113 0 205.5 -38t151 -101.5t90 -143.5t31.5 -167.5t-31.5 -167.5t-90 -143.5t-151 -101.5t-205.5 -38h-210v-275q0 -64 -3.5 -91t-18.5 -56q-20 -38 -60 -61.5t-91 -23.5t-92 23.5t-60 61.5 q-15 29 -18.5 56t-3.5 91zM486 806h195q67 0 107.5 42.5t40.5 101t-40.5 101t-107.5 42.5h-195v-287z" />
<glyph unicode="Q" horiz-adv-x="1257" d="M94 700q0 65 0.5 99t3 88.5t8 87t16 77t26 76t38.5 66t53 65.5q77 76 171 114t219 38t219.5 -38t171.5 -114q26 -27 47 -55t36 -61t25.5 -61t17 -69.5t10.5 -69.5t5.5 -77.5t2 -78.5t0.5 -87q0 -72 -1 -113t-5 -99.5t-12.5 -98t-24 -84.5t-38.5 -82l10 -9 q32 -32 44.5 -48.5t19.5 -36.5q10 -30 1.5 -62.5t-35.5 -58.5q-40 -40 -84 -40q-17 0 -35 6q-21 7 -38.5 20t-48.5 44l-15 14q-113 -64 -273 -64q-125 0 -218.5 38t-170.5 115q-30 30 -53.5 65t-38.5 66.5t-25.5 75.5t-16 77t-8.5 87t-3.5 89t-0.5 99zM441 699.5 q0 -122.5 6.5 -193.5t16 -97.5t28.5 -50.5q21 -27 56.5 -45t80.5 -18q20 0 30 2l-22 22q-32 32 -44.5 48.5t-19.5 36.5q-10 30 -1.5 62.5t35.5 58.5q27 27 59 35.5t61 -1.5q14 -5 24.5 -11.5t23.5 -17t32 -30.5l3 -3q8 76 8 203q0 122 -7 193.5t-16.5 99t-27.5 51.5 q-21 26 -57 43.5t-81 17.5t-81 -17t-56 -44q-19 -24 -28.5 -51.5t-16 -99t-6.5 -194z" />
<glyph unicode="R" horiz-adv-x="1281" d="M139 224v964q0 35 2 56.5t13.5 53t33.5 54t54 34t53 13t56 1.5h345q113 0 205.5 -38t151 -101.5t90 -143.5t31.5 -168q0 -113 -58.5 -210t-165.5 -153l166 -290q30 -53 40 -81.5t10 -60.5q0 -89 -84 -138q-44 -24 -86 -24q-32 0 -58 11t-47 33.5t-34 41.5t-31 52 l-223 391h-117v-297q0 -64 -3.5 -91t-18.5 -56q-20 -38 -60 -61.5t-91 -23.5t-92 23.5t-60 61.5q-15 29 -18.5 56t-3.5 91zM486 808h195q45 0 79.5 20.5t51.5 52t17 68.5q0 59 -40.5 101.5t-107.5 42.5h-195v-285z" />
<glyph unicode="S" horiz-adv-x="1168" d="M42 236q0 29 12.5 59.5t34.5 52.5q38 37 94 37q26 0 51 -8.5t84 -32.5q118 -51 229 -51q100 0 150.5 33t50.5 94q0 52 -27 83q-29 29 -93 37l-169 24q-186 26 -281 124q-96 99 -96 282q0 95 35 176t100 140t161.5 92t213.5 33q167 0 302 -53q66 -26 104.5 -70t38.5 -99 q0 -57 -41 -106q-39 -47 -100 -47q-40 0 -122 33q-91 40 -191 40q-83 0 -126 -37t-43 -81q0 -47 28 -75q32 -33 96 -41l169 -23q184 -26 275 -117q105 -102 105 -307q0 -104 -43 -188.5t-117.5 -138.5t-172 -83.5t-209.5 -29.5q-202 0 -320 48q-92 36 -137.5 82t-45.5 118z " />
<glyph unicode="T" horiz-adv-x="1141" d="M47 1246q0 45 21 82t54 53q25 12 50 15.5t81 3.5h636q39 0 59 -1.5t37.5 -5t34.5 -12.5q33 -16 54 -53t21 -82t-21 -81.5t-54 -52.5q-24 -12 -49.5 -15.5t-81.5 -3.5h-145v-869q0 -66 -3 -92t-18 -55q-19 -38 -60 -61.5t-92 -23.5q-34 0 -64 11t-52.5 30t-34.5 44 q-15 29 -18.5 55t-3.5 92v869h-145q-56 0 -81 3.5t-50 15.5q-33 16 -54 52.5t-21 81.5z" />
<glyph unicode="U" horiz-adv-x="1296" d="M116 492v684q0 47 1 66t5.5 40t14.5 41q19 37 60 60.5t92 23.5t91.5 -23.5t60.5 -60.5q14 -29 17.5 -55t3.5 -92v-677q0 -96 49.5 -150t135.5 -54q87 0 137.5 54t50.5 150v677q0 64 3.5 91t18.5 56q19 37 60 60.5t92 23.5t91 -23t60 -61q15 -29 18.5 -56t3.5 -91v-684 q0 -113 -43 -208t-115.5 -159.5t-170 -100.5t-206.5 -36t-205.5 36t-169 100.5t-114.5 159.5t-42 208z" />
<glyph unicode="V" horiz-adv-x="1155" d="M39 1278q6 43 36 74t64.5 43t65.5 12q63 0 103 -40q20 -20 31.5 -43.5t31.5 -82.5l207 -639l207 639q19 57 31 81t33 45q40 40 101 40q32 0 66 -12t64.5 -43t35.5 -74q2 -13 2 -26q0 -16 -3 -32q-5 -28 -23 -80l-328 -983q-17 -51 -32.5 -78t-36.5 -45q-45 -42 -117 -42 t-117 42q-21 18 -36 44.5t-32 78.5l-329 983q-18 54 -23 82q-3 17 -3 34q0 11 1 22z" />
<glyph unicode="W" horiz-adv-x="1733" d="M49 1236q-1 9 -1 19q0 17 3 38q10 48 57.5 81t106.5 33q69 0 110 -47q19 -22 28.5 -46.5t23.5 -83.5l141 -570l187 611q19 63 53 98q39 38 109 38q71 0 109 -38q19 -18 30.5 -39.5t22.5 -58.5l187 -611l140 570q11 41 17 61.5t14 37t21 31.5q41 47 111 47q59 0 106.5 -33 t57.5 -81q3 -21 3 -38q0 -9 -1 -19q-3 -24 -17 -84l-242 -974q-25 -106 -81 -148q-50 -38 -115.5 -38t-114.5 38q-14 10 -25 24t-18.5 26.5t-15.5 31.5t-12 32t-10 34l-167 542l-167 -542q-11 -36 -18.5 -57t-24 -48t-38.5 -43q-50 -38 -115 -38q-64 0 -114 38 q-56 42 -81 148l-242 974q-15 61 -18 84z" />
<glyph unicode="X" horiz-adv-x="1131" d="M55 154q0 31 11 60t42 83l245 423l-223 384q-30 53 -40.5 81.5t-10.5 60.5q0 88 84 137q44 24 87 24q25 0 47.5 -8t38.5 -19.5t32.5 -32t26.5 -36t25 -41.5l146 -260l146 260q15 25 25 41.5t26.5 36.5t32.5 31.5t39 19.5t48 8q43 0 87 -24q84 -49 84 -137 q0 -31 -10.5 -59.5t-41.5 -82.5l-222 -384l245 -423q31 -54 41.5 -83t10.5 -60q0 -89 -84 -138q-44 -24 -87 -24q-31 0 -57 11t-47 33.5t-34 41.5t-32 52l-170 301l-170 -301q-14 -26 -24 -42t-26.5 -36t-32.5 -31.5t-38.5 -20t-47.5 -8.5q-44 0 -88 24q-84 49 -84 138z" />
<glyph unicode="Y" horiz-adv-x="1094" d="M37 1255q0 39 24 75t68 58q38 19 80 19q45 0 82 -26q16 -11 27.5 -26t21.5 -33t30 -57l177 -361l179 361l22.5 45t17 30t18.5 23.5t20 17.5q37 26 82 26q42 0 81 -19q43 -22 67 -58t24 -75q0 -29 -9 -54t-36 -80l-292 -583v-314q0 -64 -3.5 -91t-18.5 -56 q-19 -38 -60 -61.5t-91.5 -23.5t-91 23.5t-60.5 61.5q-14 29 -18 56t-4 91v314l-291 583q-28 55 -37 80t-9 54z" />
<glyph unicode="Z" horiz-adv-x="1128" d="M69 187q0 59 57 145l496 761h-322q-56 0 -81.5 3.5t-50.5 15.5q-33 16 -54 52.5t-21 81.5t21 82t54 53q25 12 50.5 15.5t81.5 3.5h504q33 0 53 -1.5t48 -6t50 -16t41 -29.5q54 -56 54 -134q0 -58 -57 -145l-497 -762h349q56 0 81 -3t50 -15q33 -16 54 -53t21 -81.5 t-21 -82t-54 -53.5q-25 -12 -50 -15t-81 -3h-529q-22 0 -35.5 0.5t-34 2t-34.5 4.5t-31 9t-31.5 15t-26.5 22q-54 55 -54 134z" />
<glyph unicode="[" horiz-adv-x="816" d="M141 51v1298q0 28 2 48t13.5 52t32.5 53q16 16 33.5 25.5t39.5 13t36 4.5t40 1h212q53 0 78.5 -3.5t48.5 -15.5q15 -8 28 -20.5t22.5 -29t14.5 -36.5t5 -41q0 -43 -19.5 -77.5t-50.5 -50.5q-23 -11 -48 -14t-79 -3h-86v-1109h86q36 0 57 -1.5t37.5 -5.5t32.5 -11 q31 -16 50.5 -50.5t19.5 -77.5t-19.5 -77.5t-50.5 -50.5q-23 -11 -48.5 -14.5t-78.5 -3.5h-212q-33 0 -53 1.5t-48 12t-48 30.5q-21 22 -32.5 53.5t-13.5 51.5t-2 48z" />
<glyph unicode="\" horiz-adv-x="846" d="M38.5 1417.5q0.5 17.5 5.5 33.5q14 43 56.5 72t95.5 29q29 0 52.5 -9.5t38 -22t28 -37t19 -39.5t15.5 -45l435 -1306q9 -25 13 -39t8.5 -35.5t4 -39t-5.5 -33.5q-14 -43 -56.5 -72.5t-95.5 -29.5q-29 0 -53 10t-38 22.5t-27.5 36.5t-19.5 39.5t-16 45.5l-435 1306 q-8 25 -12 39t-8.5 35.5t-4 39z" />
<glyph unicode="]" horiz-adv-x="816" d="M71 0q0 43 19.5 77.5t50.5 50.5q23 11 48.5 14.5t78.5 3.5h86v1109h-86q-54 0 -79 3t-48 14q-21 11 -36.5 29.5t-24.5 44t-9 54.5q0 43 19.5 77t50.5 50q23 12 48.5 15.5t78.5 3.5h212q34 0 53 -1.5t47.5 -11.5t48.5 -31q13 -13 22.5 -30.5t14.5 -32t7.5 -33.5t3 -30 t0.5 -27v-1298q0 -28 -2 -48t-13.5 -51.5t-32.5 -53.5q-20 -20 -48 -30.5t-48 -12t-53 -1.5h-212q-36 0 -57 1.5t-37.5 5.5t-32.5 11q-31 16 -50.5 50.5t-19.5 77.5z" />
<glyph unicode="^" d="M104 679q0 29 7 52.5t31 72.5l237 473q10 19 16.5 31t18.5 29.5t23.5 28t28 21t36.5 15.5t44 5t44.5 -5t36.5 -15.5t28 -21t23.5 -28t18 -29.5t16.5 -31l237 -473q13 -27 20.5 -43.5t12 -30.5t6 -25t1.5 -26q0 -59 -48 -100.5t-108 -41.5q-42 0 -78 27q-22 17 -36.5 36.5 t-37.5 67.5l-136 270l-134 -270q-24 -47 -38.5 -67t-36.5 -37q-36 -27 -79 -27q-60 0 -107 41.5t-47 100.5z" />
<glyph unicode="_" horiz-adv-x="1257" d="M13 -277q0 37 16.5 65.5t45.5 42.5q20 9 40.5 12t64.5 3h897q45 0 66 -3t41 -12q28 -14 44 -42.5t16 -66t-16 -65.5t-44 -42q-14 -7 -27 -10t-31.5 -4.5t-48.5 -1.5h-897q-43 0 -63.5 3t-41.5 13q-19 9 -33 25t-21.5 37t-7.5 46z" />
<glyph unicode="`" horiz-adv-x="983" d="M249 1492q-3 33 13.5 63.5t51.5 52.5q38 23 74 23q34 0 68 -22q11 -8 24 -23t19.5 -25.5t22.5 -35.5l74 -118q27 -42 36 -62.5t11 -44.5q2 -22 -4.5 -43t-22 -40t-38.5 -33q-38 -23 -75 -23q-33 0 -67 22q-11 7 -24 22.5t-20 25.5t-22 35l-74 118q-27 43 -36 63t-11 45z " />
<glyph unicode="a" horiz-adv-x="1056" d="M49 332q0 62 21.5 116t64.5 97.5t115 68.5t165 25h208v27q0 71 -36 101.5t-113 30.5q-27 0 -65 -8.5t-67 -20.5q-64 -26 -98 -26q-56 0 -90 43q-36 43 -36 97q0 47 29.5 80t68.5 50q126 56 264 56q229 0 347.5 -95.5t118.5 -287.5v-476q0 -60 -3.5 -86.5t-16.5 -52.5 q-17 -35 -55.5 -57t-86.5 -22q-59 0 -94 26t-57 68q-58 -53 -107.5 -74.5t-129.5 -21.5q-79 0 -144.5 25t-110.5 69q-45 45 -68.5 109.5t-23.5 138.5zM358 338q0 -25 12.5 -44t39 -30.5t64.5 -11.5q28 0 46.5 3t35.5 11t33 23q13 12 20.5 27t10.5 34t3 47v27h-154 q-54 0 -82.5 -22.5t-28.5 -63.5z" />
<glyph unicode="b" horiz-adv-x="1118" d="M122 210v979q0 26 0.5 41.5t1.5 30.5t3 25.5t5.5 21t8.5 21.5q18 35 56 56.5t86 21.5t86 -21.5t55 -56.5q13 -26 16.5 -53t3.5 -87v-208q89 88 237 88q51 0 97 -10.5t86 -32t70 -53.5q28 -29 47.5 -69t30 -77t15.5 -94t6 -96t1 -108t-1 -108t-6 -96t-15.5 -94t-30 -77 t-47.5 -70q-45 -46 -111.5 -71t-143.5 -25q-81 0 -137 24t-107 74q-22 -42 -57 -68t-95 -26q-48 0 -86 22t-56 57q-12 26 -15.5 52.5t-3.5 86.5zM444 528.5q0 -51.5 2.5 -85.5t10.5 -67.5t22 -53t39 -31.5t60 -12t59.5 12t39 31.5t22.5 53t10 67.5t2 86q0 43 -1.5 72.5 t-6 60t-14 50t-24 36t-36.5 24t-51 7.5q-35 0 -60 -12t-39 -31.5t-22 -53t-10.5 -68t-2.5 -86z" />
<glyph unicode="c" horiz-adv-x="936" d="M75 529q0 96 17 175t45 134t68 97.5t81.5 67t90 40t89.5 21t84 5.5q107 0 183 -33q61 -26 108.5 -72.5t47.5 -102.5q0 -58 -45 -106q-17 -19 -44.5 -31.5t-54.5 -12.5q-26 0 -47.5 8.5t-52.5 29.5q-47 30 -95 30q-58 0 -100 -42q-53 -55 -53 -208t53 -208q42 -42 100 -42 q48 0 95 30q31 20 52.5 28.5t47.5 8.5q27 0 54.5 -12.5t44.5 -31.5q45 -48 45 -105q0 -56 -47.5 -102.5t-108.5 -72.5q-76 -34 -183 -34q-43 0 -84 5.5t-89.5 21.5t-90 40.5t-81.5 67t-68 97t-45 134t-17 175.5z" />
<glyph unicode="d" horiz-adv-x="1118" d="M84 529q0 68 1.5 108t6.5 96.5t15.5 93.5t30 77t47.5 69q30 32 70 53.5t86.5 32t97.5 10.5q147 0 235 -88v208q0 60 3.5 87t16.5 53q18 35 55.5 56.5t85.5 21.5q16 0 31.5 -2.5t29.5 -7.5t26 -12t22.5 -15.5t19 -19t13.5 -21.5q9 -18 13 -36t5 -40t1 -64v-979 q0 -60 -3 -86.5t-16 -52.5q-17 -35 -55.5 -57t-86.5 -22q-59 0 -93.5 26t-57.5 68q-50 -50 -106.5 -74t-136.5 -24q-78 0 -144.5 25t-111.5 71q-28 30 -47.5 70t-30 77t-15.5 93.5t-6.5 96.5t-1.5 108zM408 529q0 -43 1 -72.5t6 -60t14 -50t23.5 -36t36.5 -24t51 -7.5 q26 0 45.5 6t33.5 16.5t24 28t16 36.5t9.5 46.5t4.5 54t1 62.5q0 51 -2.5 85.5t-10 68t-22 53t-39 31.5t-60 12t-60 -12t-39 -31.5t-22 -53t-9.5 -68t-2 -85.5z" />
<glyph unicode="e" horiz-adv-x="1093" d="M75 529q0 102 22.5 188.5t64 151t100 110t131 68t155.5 22.5q87 0 161.5 -23.5t130 -66t95.5 -100.5t62 -127t25 -144v-15q0 -86 -43 -129q-13 -14 -29 -22.5t-35.5 -12t-32.5 -4.5t-35 -1h-455q0 -69 50.5 -118t139.5 -49q88 0 159 47q61 42 112 42q47 0 87.5 -40 t40.5 -94q0 -76 -100 -145q-114 -79 -303 -79q-54 0 -102 6t-100 22t-94.5 41.5t-82 67.5t-66 97t-42.5 133.5t-16 173.5zM392 639h314q0 47 -18 83q-40 82 -140 82t-139 -82q-17 -39 -17 -83z" />
<glyph unicode="f" horiz-adv-x="729" d="M17 892.5q0 37.5 16.5 66t45.5 41.5q20 10 41.5 13.5t64.5 3.5h1v92q0 45 11.5 88.5t37 84.5t62.5 72t92 49.5t121 18.5h6q84 0 130 -22q66 -33 66 -115q0 -83 -64 -115q-34 -17 -75 -18q-65 -3 -65 -67v-68h37q30 0 48.5 -1.5t31.5 -5t27 -10.5q29 -13 44.5 -41.5 t15.5 -65.5q0 -25 -7 -46.5t-20.5 -37.5t-32.5 -25q-20 -9 -41 -12t-66 -3h-37v-559q0 -60 -3.5 -86.5t-15.5 -52.5q-12 -23 -32.5 -40.5t-49 -28t-60.5 -10.5q-48 0 -86 22t-56 57q-12 26 -15.5 52.5t-3.5 86.5v559h-1q-44 0 -65 3t-41 12q-29 14 -45.5 42.5t-16.5 66z" />
<glyph unicode="g" horiz-adv-x="1102" d="M84 568.5q0 44.5 0.5 69.5t1.5 61t4 58t7.5 50.5t11.5 48.5t17.5 42t24.5 41t31 36q94 94 251 94q78 0 131 -23t104 -74q22 41 57 67.5t95 26.5q48 0 85.5 -22t55.5 -57q13 -26 16.5 -53t3.5 -86v-771q0 -92 -34 -171.5t-95.5 -137t-151.5 -90t-197 -32.5 q-91 0 -157 15.5t-124 47.5q-102 56 -102 143q0 57 39.5 96t86.5 39q29 0 50.5 -5.5t59.5 -24.5q80 -40 132 -40q46 0 80 14t53 38t28.5 52.5t9.5 61.5v73q-89 -89 -228 -89q-155 0 -249 94q-17 18 -31 37t-24.5 41t-17.5 41.5t-11.5 48.5t-7.5 50.5t-4 58t-1.5 61.5 t-0.5 69.5zM407 568.5q0 -38.5 1.5 -64t8.5 -56t20 -48.5t37.5 -30t58.5 -12q25 0 44 6.5t32.5 16t22.5 26.5t14 33t8 39.5t4 42.5t1 46t-1 46t-4 43t-8 40t-14 32.5t-22.5 26.5t-32.5 16.5t-44 6.5q-34 0 -58.5 -12.5t-37.5 -30t-20 -48t-8.5 -56t-1.5 -64z" />
<glyph unicode="h" horiz-adv-x="1137" d="M122 210v979q0 26 0.5 41.5t1.5 30.5t3 25.5t5.5 21t8.5 21.5q18 35 56 56.5t86 21.5t86 -21.5t55 -56.5q13 -26 16.5 -53t3.5 -87v-211q49 43 113 67t126 24q146 0 237 -90q62 -62 84 -134t22 -168v-467q0 -60 -3.5 -86.5t-15.5 -52.5q-18 -35 -56 -57t-86 -22 q-32 0 -60.5 10.5t-49 28t-31.5 40.5q-13 26 -16.5 53t-3.5 86v423q0 43 -14 73.5t-35.5 45t-41.5 21t-39 6.5q-15 0 -30.5 -3.5t-33.5 -13.5t-32.5 -25.5t-24 -42.5t-9.5 -61v-423q0 -59 -3.5 -86t-16.5 -53q-17 -35 -55 -57t-86 -22t-86 22t-56 57q-12 26 -15.5 52.5 t-3.5 86.5z" />
<glyph unicode="i" horiz-adv-x="565" d="M105 1302q0 73 52.5 125.5t126 52.5t126 -52.5t52.5 -126t-52.5 -126.5t-126.5 -53q-48 0 -89 24.5t-65 66t-24 89.5zM122 210v596q0 42 1 64t5 40t13 36q18 35 56 56.5t86 21.5t86 -21.5t55 -56.5q13 -26 16.5 -53t3.5 -87v-596q0 -59 -3.5 -86t-16.5 -53 q-17 -35 -55 -57t-86 -22t-86 22t-56 57q-12 26 -15.5 52.5t-3.5 86.5z" />
<glyph unicode="j" horiz-adv-x="565" d="M-83 -218q0 42 17.5 71.5t48.5 44.5q29 15 79 18q60 2 60 67v823q0 42 1 64t5 40t13 36q18 35 56 56.5t86 21.5t86 -21.5t55 -56.5q13 -26 16.5 -53t3.5 -87v-847q0 -38 -8 -74.5t-24.5 -72t-43.5 -65.5t-62 -52.5t-83 -35.5t-103 -13h-6q-84 0 -129 22q-68 33 -68 114z M105 1302q0 73 52.5 125.5t126 52.5t126 -52.5t52.5 -126t-52.5 -126.5t-126.5 -53q-48 0 -89 24.5t-65 66t-24 89.5z" />
<glyph unicode="k" horiz-adv-x="1043" d="M122 210v979q0 26 0.5 41.5t1.5 30.5t3 25.5t5.5 21t8.5 21.5q18 35 56 56.5t86 21.5t86 -21.5t55 -56.5q13 -26 16.5 -53t3.5 -87v-501l249 285q44 51 74.5 71.5t68.5 20.5q56 0 99 -38q52 -46 52 -107q0 -22 -8 -43.5t-23.5 -43.5t-42.5 -53l-169 -193l196 -312 q15 -25 25 -43t16 -34.5t9 -31t3 -30.5q0 -71 -74 -118q-43 -26 -84 -26q-49 0 -81.5 27.5t-72.5 92.5l-161 258l-76 -88v-72q0 -59 -3.5 -86t-16.5 -53q-17 -35 -55 -57t-86 -22t-86 22t-56 57q-12 26 -15.5 52.5t-3.5 86.5z" />
<glyph unicode="l" horiz-adv-x="651" d="M112 313v876q0 61 3.5 87.5t16.5 52.5q17 35 55.5 56.5t86.5 21.5t85.5 -21.5t55.5 -56.5q8 -18 12.5 -36t6 -40.5t1.5 -63.5v-853q0 -63 59 -66q49 -3 80 -18q30 -15 47.5 -45t17.5 -72q0 -40 -18 -69t-49 -44q-46 -22 -129 -22h-6q-66 0 -121 18.5t-92 49.5t-63 72 t-37.5 84.5t-11.5 88.5z" />
<glyph unicode="m" horiz-adv-x="1720" d="M122 210v638q0 60 3.5 86.5t15.5 52.5q18 35 56 57t86 22q60 0 95 -26.5t57 -67.5q47 47 113.5 72t134.5 25q158 0 257 -112q69 61 138 86.5t160 25.5q76 0 144 -24t110 -66q64 -64 90 -137.5t26 -164.5v-467q0 -60 -3.5 -86.5t-15.5 -52.5q-18 -35 -56 -57t-86 -22 t-86 22t-55 57q-13 26 -17 53t-4 86v423q0 43 -13.5 73.5t-35 45t-41.5 21t-39 6.5q-15 0 -30.5 -3.5t-34 -13.5t-32.5 -25.5t-23.5 -42.5t-9.5 -61v-423q0 -60 -3.5 -86.5t-15.5 -52.5q-18 -35 -56 -57t-86 -22q-32 0 -60.5 10.5t-49 28t-31.5 40.5q-13 26 -16.5 53 t-3.5 86v423q0 43 -14 73.5t-35.5 45t-41.5 21t-39 6.5q-15 0 -30.5 -3.5t-33.5 -13.5t-32.5 -25.5t-24 -42.5t-9.5 -61v-423q0 -59 -3.5 -86t-16.5 -53q-17 -35 -55 -57t-86 -22t-86 22t-56 57q-12 26 -15.5 52.5t-3.5 86.5z" />
<glyph unicode="n" horiz-adv-x="1137" d="M122 210v638q0 60 3.5 86.5t15.5 52.5q18 35 56 57t86 22q60 0 95 -26.5t57 -67.5q47 47 114 72t134 25q146 0 237 -90q62 -62 84 -134t22 -168v-467q0 -60 -3.5 -86.5t-15.5 -52.5q-18 -35 -56 -57t-86 -22q-32 0 -60.5 10.5t-49 28t-31.5 40.5q-13 26 -16.5 53t-3.5 86 v423q0 43 -14 73.5t-35.5 45t-41.5 21t-39 6.5q-15 0 -30.5 -3.5t-33.5 -13.5t-32.5 -25.5t-24 -42.5t-9.5 -61v-423q0 -59 -3.5 -86t-16.5 -53q-17 -35 -55 -57t-86 -22t-86 22t-56 57q-12 26 -15.5 52.5t-3.5 86.5z" />
<glyph unicode="o" horiz-adv-x="1080" d="M84 529q0 156 25.5 245t91.5 160q127 135 339 135q214 0 341 -135q34 -36 55.5 -74t35 -87t19 -107t5.5 -137q0 -80 -5.5 -138t-19 -106.5t-35 -86.5t-55.5 -74q-127 -136 -341 -136q-212 0 -339 136q-66 72 -91.5 160t-25.5 245zM407 529q0 -59 3 -96t13.5 -70.5 t30.5 -53.5q30 -30 86.5 -30t86.5 30q29 29 38 80t9 140q0 59 -3 96t-13.5 70.5t-30.5 53.5q-30 30 -86.5 30t-86.5 -30q-29 -29 -38 -80t-9 -140z" />
<glyph unicode="p" horiz-adv-x="1118" d="M122 -132v980q0 60 3.5 86.5t15.5 52.5q18 35 56 57t86 22q60 0 95 -26.5t57 -67.5q51 50 107 73.5t137 23.5q51 0 97.5 -10.5t87 -32t70.5 -53.5q28 -29 47.5 -69t30 -77t15.5 -94t6 -96t1 -108t-1 -108t-6 -96t-15.5 -94t-30 -77t-47.5 -70q-45 -46 -110.5 -71 t-142.5 -25q-148 0 -237 89v-209q0 -59 -3.5 -86.5t-16.5 -53.5q-17 -35 -55 -56.5t-86 -21.5t-86 21.5t-56 56.5q-12 26 -15.5 53t-3.5 87zM444 528.5q0 -51.5 2.5 -85.5t10.5 -67.5t22 -53t39 -31.5t60 -12t59.5 12t39 31.5t22.5 53t10 67.5t2 86q0 43 -1.5 72.5t-6 60 t-14 50t-24 36t-36.5 24t-51 7.5q-35 0 -60 -12t-39 -31.5t-22 -53t-10.5 -68t-2.5 -86z" />
<glyph unicode="q" horiz-adv-x="1118" d="M84 529q0 68 1.5 108t6.5 96.5t15.5 93.5t30 77t47.5 69q45 47 111.5 71.5t144.5 24.5q80 0 136.5 -23.5t106.5 -73.5q15 26 31 44.5t47.5 34t72.5 15.5q48 0 86.5 -22t55.5 -57q13 -26 16 -52.5t3 -86.5v-980q0 -60 -3 -87t-16 -53q-17 -35 -55.5 -56.5t-86.5 -21.5 t-85.5 21.5t-55.5 56.5q-13 26 -16.5 53.5t-3.5 86.5v209q-88 -89 -235 -89q-78 0 -143.5 25t-110.5 71q-28 30 -47.5 70t-30 77t-15.5 93.5t-6.5 96.5t-1.5 108zM407 529q0 -43 1.5 -72.5t6.5 -60t14 -50t23.5 -36t36.5 -24t51 -7.5q26 0 45.5 6t33.5 16.5t24 28t16 36.5 t9.5 46.5t4.5 54t1 62.5q0 51 -2.5 85.5t-10 68t-22 53t-39 31.5t-60 12t-60 -12t-39 -31.5t-22 -53t-10 -68t-2.5 -85.5z" />
<glyph unicode="r" horiz-adv-x="938" d="M122 210v638q0 60 3.5 86.5t15.5 52.5q18 35 56 57t86 22q60 0 95 -26.5t57 -67.5q40 39 102 68t128 29q109 0 179 -49q72 -51 72 -125q0 -71 -49 -120q-43 -43 -108 -43q-44 0 -99 24q-49 23 -82 23q-16 0 -32 -3.5t-35 -13.5t-33 -25.5t-24 -42.5t-10 -61v-423 q0 -59 -3.5 -86t-16.5 -53q-17 -35 -55 -57t-86 -22t-86 22t-56 57q-12 26 -15.5 52.5t-3.5 86.5z" />
<glyph unicode="s" horiz-adv-x="990" d="M41 197q0 32 14.5 62t36.5 47q42 31 85 31q38 0 97 -31q35 -18 66 -29t66 -16.5t78 -5.5q58 0 96.5 19.5t38.5 55.5q0 61 -77 67l-163 16q-306 29 -306 307q0 49 12 93t34.5 79t53 64t67 50t78.5 35t86 21t89 7q145 0 262 -43q66 -24 100 -58q36 -37 36 -93 q0 -28 -12.5 -56.5t-30.5 -45.5q-39 -36 -87 -36q-29 0 -88 24q-37 16 -61.5 25t-59.5 16.5t-66 7.5q-45 0 -74 -18t-29 -48t18 -43t51 -17l163 -16q160 -16 239.5 -102.5t79.5 -219.5q0 -73 -24 -133t-66 -101t-100.5 -69.5t-125.5 -41.5t-142 -13q-124 0 -209 21.5 t-155 69.5q-71 49 -71 118z" />
<glyph unicode="t" horiz-adv-x="753" d="M17 892.5q0 37.5 16.5 66t45.5 41.5q20 10 41.5 13.5t64.5 3.5h1v92q0 60 3.5 86.5t15.5 52.5q18 35 56 57t86 22t86 -22t56 -57q12 -26 15.5 -52.5t3.5 -86.5v-92h37q30 0 48.5 -1.5t31.5 -5t27 -10.5q29 -13 44.5 -41.5t15.5 -65.5q0 -25 -7 -46.5t-20.5 -37.5 t-32.5 -25q-20 -9 -41 -12t-66 -3h-37v-433q0 -63 60 -66q48 -3 80 -18q64 -32 64 -117q0 -81 -66 -113q-46 -22 -130 -22h-6q-48 0 -90 9.5t-74.5 27t-59 41t-45 51t-31 58.5t-18.5 62.5t-6 63.5v456h-1q-44 0 -65 3t-41 12q-29 14 -45.5 42.5t-16.5 66z" />
<glyph unicode="u" horiz-adv-x="1137" d="M112 381v467q0 60 3.5 86.5t16.5 52.5q17 35 55.5 57t86.5 22t85.5 -22t55.5 -57q12 -26 16 -53t4 -86v-424q0 -43 13.5 -73.5t35.5 -45t41.5 -20.5t39 -6t39 6t41.5 20.5t35.5 45t13.5 73.5v424q0 60 3.5 86.5t15.5 52.5q18 35 56 57t86 22t86 -22t55 -57q13 -26 17 -53 t4 -86v-638q0 -59 -4 -86t-17 -53q-17 -35 -55 -57t-86 -22q-59 0 -94 26t-57 68q-48 -47 -115 -72.5t-133 -25.5q-148 0 -238 91q-63 62 -84.5 134t-21.5 168z" />
<glyph unicode="v" horiz-adv-x="929" d="M37 965q14 43 56.5 72t95.5 29q19 0 35 -3.5t28.5 -11t22.5 -14.5t19 -21t15 -22.5t13 -26.5t10 -27t10 -28l123 -378l123 378q7 21 11 32t12 30t15.5 29.5t19.5 24.5t25 20.5t31 12t39 5.5q35 0 67 -13.5t54 -36.5t31 -51q5 -16 5 -34q0 -2 1 -4q-1 -17 -5 -35 q-4 -22 -8 -36t-12 -39l-223 -660q-17 -51 -32.5 -78t-36.5 -45q-46 -42 -117.5 -42t-116.5 42q-21 18 -36 44.5t-33 78.5l-223 660q-8 23 -12.5 38.5t-8.5 36.5q-4 19 -4 35q0 20 6 38z" />
<glyph unicode="w" horiz-adv-x="1491" d="M34 900q-1 9 -2 19q0 15 3 33q8 47 52.5 80.5t98.5 33.5q65 0 102 -42q18 -20 28.5 -43t24.5 -76l110 -396l135 409q15 46 28.5 70.5t31.5 41.5q38 36 100 36t101 -36q18 -17 30.5 -41t28.5 -71l135 -409l110 396q14 53 24 76t29 43q37 42 103 42q54 0 98.5 -33.5 t52.5 -80.5q2 -18 2 -32q0 -11 -1 -20q-3 -21 -19 -77l-196 -670q-15 -51 -29.5 -77.5t-34.5 -42.5q-48 -41 -114 -41t-114 41q-19 16 -33.5 42.5t-31.5 77.5l-141 427l-140 -427q-17 -51 -32 -77.5t-34 -42.5q-48 -41 -114 -41t-113 41q-39 33 -65 120l-196 670 q-14 55 -18 77z" />
<glyph unicode="x" horiz-adv-x="928" d="M54 136q0 32 11.5 62t42.5 77l171 260l-162 247q-30 46 -41.5 76t-11.5 62q0 72 73 118q45 27 84 27q49 0 81.5 -27t73.5 -93l89 -142l89 142q41 66 73 93t81 27q40 0 84 -27q74 -47 74 -118q0 -22 -4.5 -41t-16 -42t-32.5 -55l-162 -247l172 -260q30 -46 41.5 -76.5 t11.5 -62.5q0 -72 -73 -118q-43 -26 -84 -26q-50 0 -83.5 28t-71.5 92l-99 162l-98 -162q-39 -64 -72.5 -92t-83.5 -28q-41 0 -83 26q-74 47 -74 118z" />
<glyph unicode="y" horiz-adv-x="929" d="M37 965q14 43 56.5 72t95.5 29q29 0 52.5 -10t38.5 -22.5t27.5 -36t19 -40.5t15.5 -45l123 -407l123 407q8 28 14.5 45t19.5 40t28 36.5t38.5 23t52.5 9.5q35 0 67 -13.5t54 -36.5t31 -51q5 -16 5 -34q1 -2 1 -4q0 -16 -5 -35q-4 -22 -8 -36t-12 -39l-326 -947 q-29 -83 -82 -140q-86 -88 -230 -88q-108 0 -148 39q-43 43 -43 107q0 76 47 114q22 18 42 23.5t57 5.5q65 0 92 81l22 67l-249 738q-8 23 -12.5 38.5t-8.5 36.5q-4 19 -4 35q0 20 6 38z" />
<glyph unicode="z" horiz-adv-x="943" d="M41 133q0 41 13.5 71.5t52.5 82.5l359 480h-205q-54 0 -78.5 3t-47.5 14q-31 16 -50.5 50.5t-19.5 77.5t19.5 77.5t50.5 50.5q24 11 49 14.5t77 3.5h445q34 0 55.5 -2t39 -6.5t34.5 -13.5q34 -17 50.5 -47.5t16.5 -64.5q0 -40 -13 -70.5t-52 -82.5l-361 -480h230 q37 0 56.5 -1t36.5 -5t32 -11q32 -17 51.5 -51t19.5 -77t-19.5 -78t-51.5 -51q-22 -11 -47 -14t-78 -3h-468q-50 0 -77 4.5t-53 17.5q-33 17 -50 47.5t-17 63.5z" />
<glyph unicode="{" horiz-adv-x="1017" d="M71 700q0 65 39 104q8 8 17.5 14t17.5 10t22.5 7.5t21.5 5t26.5 5t26.5 5.5q37 7 60 30q34 34 34 117v234q0 136 95 231q83 83 233 83h88q52 0 77 -3.5t48 -15.5q32 -16 51.5 -50t19.5 -77q0 -29 -9 -54.5t-25 -44t-37 -29.5q-34 -16 -90 -17q-70 -2 -97 -28 q-17 -18 -24 -47t-7 -79v-204q0 -46 -12 -81.5t-27 -54.5t-38.5 -33.5t-36 -19t-29.5 -8.5q17 -5 29.5 -9t36 -18.5t38.5 -34t27 -55t12 -80.5v-204q0 -51 7 -80t24 -46q26 -26 97 -27q54 -1 90 -18q32 -17 51.5 -51t19.5 -77q0 -29 -9 -54.5t-25 -44t-37 -29.5 q-23 -11 -48 -14.5t-77 -3.5h-88q-150 0 -233 83q-95 95 -95 230v234q0 85 -34 118q-22 23 -60 30q-6 1 -20 3.5t-20 4t-17.5 4t-18 4.5t-15.5 5t-15 7t-13 8.5t-13 10.5q-39 40 -39 104z" />
<glyph unicode="|" horiz-adv-x="715" d="M197 66v1269q0 42 1 63.5t5 40t13 36.5q18 35 56 56.5t86 21.5t86 -21.5t55 -56.5q9 -18 13 -36t5.5 -40.5t1.5 -63.5v-1269q0 -59 -3.5 -86.5t-16.5 -53.5q-17 -35 -55 -57t-86 -22t-86 22t-56 57q-12 26 -15.5 52.5t-3.5 87.5z" />
<glyph unicode="}" horiz-adv-x="1017" d="M71 0q0 43 19.5 77.5t50.5 50.5q37 17 91 18q72 1 97 27q18 17 25 46t7 80v204q0 45 12 80.5t27 55t38.5 34t36 18.5t29.5 9q-17 4 -29.5 8.5t-36 19t-38.5 33.5t-27 54.5t-12 81.5v204q0 50 -7 79t-25 47q-26 26 -97 28q-57 1 -91 17q-21 11 -36.5 29.5t-24.5 44 t-9 54.5q0 43 19.5 77t50.5 50q23 12 48.5 15.5t78.5 3.5h87q151 0 233 -83q96 -95 96 -231v-234q0 -84 32 -117q24 -23 62 -30q6 -2 25.5 -5.5t26.5 -5t22 -5t22.5 -7.5t17.5 -10t17 -14q39 -39 39 -104q0 -64 -39 -104q-6 -6 -12.5 -10.5t-12.5 -8.5t-15.5 -7t-15.5 -5 t-17.5 -4.5t-18 -4t-20 -4t-19.5 -3.5q-40 -7 -62 -30q-32 -32 -32 -118v-234q0 -135 -96 -230q-82 -83 -233 -83h-87q-36 0 -57 1.5t-37.5 5.5t-32.5 11q-31 16 -50.5 50.5t-19.5 77.5z" />
<glyph unicode="~" horiz-adv-x="1270" d="M73 557q0 73 81 141q65 54 126 76t144 22q127 0 242 -66q85 -49 165 -49q65 0 128 47q45 33 91 33q63 0 110 -55q37 -45 37 -98q0 -75 -81 -142q-65 -55 -126 -76.5t-144 -21.5q-123 0 -242 67q-85 49 -165 49q-65 0 -128 -47q-45 -34 -91 -34q-63 0 -110 55 q-37 44 -37 99z" />
<glyph unicode="&#xa1;" horiz-adv-x="719" d="M133 877.5q0 76.5 55.5 132t132.5 55.5q50 0 93 -25.5t68 -69t25 -93.5q0 -76 -55 -131t-131.5 -55t-132 55t-55.5 131.5zM147 -117v486q0 66 3 92.5t18 54.5q19 38 60 61.5t91.5 23.5t91 -23.5t59.5 -61.5q15 -29 18.5 -56t3.5 -91v-486q0 -64 -3.5 -91t-18.5 -56 q-19 -38 -59.5 -61.5t-90.5 -23.5q-34 0 -64.5 11t-52.5 30t-35 44q-15 29 -18 55t-3 92z" />
<glyph unicode="&#xa2;" horiz-adv-x="936" d="M75 720q0 86 13 158t37 125t54.5 94.5t69.5 69.5t77 46t81 29q0 40 3.5 61t13.5 41q15 29 46 46t70 17q20 0 38.5 -4.5t33 -12.5t26 -20t19.5 -26q16 -33 17 -98q31 -8 59 -19q61 -26 108.5 -72.5t47.5 -102.5q0 -58 -45 -106q-17 -19 -44.5 -31.5t-54.5 -12.5 q-26 0 -47.5 8.5t-52.5 29.5q-47 30 -95 30q-58 0 -100 -42q-53 -55 -53 -208q0 -154 53 -209q42 -42 100 -42q48 0 95 30q31 21 52.5 29.5t47.5 8.5q27 0 54.5 -12.5t44.5 -31.5q45 -48 45 -106q0 -56 -47.5 -102.5t-108.5 -72.5q-26 -12 -59 -20v-19q0 -34 -1 -52.5 t-5 -34t-11 -30.5q-15 -29 -46 -46.5t-70.5 -17.5t-70.5 17.5t-46 46.5q-11 22 -14 44.5t-3 72.5v23q-52 13 -97 36t-89.5 65t-75.5 98t-50.5 139.5t-19.5 185.5z" />
<glyph unicode="&#xa3;" horiz-adv-x="1248" d="M86 670q0 37 16.5 66t45.5 43q20 9 40.5 12t64.5 3h6v126q0 81 20.5 151.5t57.5 123.5t86.5 94.5t108.5 68t123 40t131 13.5q92 0 159 -17t125 -53q103 -64 103 -162q0 -69 -45 -114q-37 -38 -81 -38q-29 0 -50.5 6.5t-59.5 27.5q-44 24 -77 34t-72 10q-84 0 -133 -48.5 t-49 -144.5v-118h78q18 0 31 -0.5t23.5 -1.5t19 -3t16 -4.5t15.5 -5.5q19 -10 33 -25.5t21.5 -37t7.5 -46.5q0 -37 -16.5 -65.5t-45.5 -41.5q-14 -7 -26.5 -10.5t-31 -5t-47.5 -1.5h-78v-240h366q56 0 81 -3t50 -15q33 -16 54 -53t21 -81.5t-21 -82t-54 -53.5 q-25 -12 -50 -15t-81 -3h-502q-35 0 -55.5 1.5t-52.5 13t-54 33.5t-33.5 54t-13.5 53.5t-2 55.5v335h-6q-43 0 -63.5 3.5t-41.5 13.5q-29 13 -45.5 41.5t-16.5 65.5z" />
<glyph unicode="&#xa5;" horiz-adv-x="1157" d="M84 374.5q0 37.5 16.5 66t45.5 42.5q20 9 40.5 12t65.5 3h154v79l-29 56h-125q-44 0 -64.5 3t-41.5 13q-29 14 -45.5 42t-16.5 65.5t16.5 66t45.5 42.5q21 10 41.5 13t64.5 3h1l-120 240q-27 55 -36 80t-9 54q0 39 24 75t68 58q38 19 80 19q45 0 82 -26q22 -17 36 -38.5 t42 -77.5l159 -321l158 321q28 56 42.5 77.5t36.5 38.5q37 26 82 26q42 0 80 -19q43 -22 67 -58t24 -75q0 -29 -8.5 -54t-36.5 -80l-121 -240h3q30 0 48.5 -1.5t31.5 -4.5t27 -10q29 -14 44.5 -42.5t15.5 -66t-15.5 -65.5t-44.5 -42q-21 -10 -42 -13t-65 -3h-126l-28 -56 v-79h154q45 0 66 -3t41 -12q19 -9 32.5 -25t20.5 -37.5t7 -46.5q0 -37 -15.5 -65t-44.5 -42q-21 -10 -42 -13t-65 -3h-154v-17q0 -68 -3.5 -98.5t-17.5 -58.5q-20 -38 -60.5 -61.5t-91.5 -23.5q-34 0 -64.5 11t-52.5 30t-35 44q-14 28 -17.5 58.5t-3.5 98.5v17h-154 q-44 0 -64.5 3t-41.5 13q-29 14 -45.5 42t-16.5 65.5z" />
<glyph unicode="&#xa7;" horiz-adv-x="1013" d="M88 522q0 52 17 100.5t43.5 84t52 60t51.5 40.5q-130 79 -130 253q0 52 13 101t43 95t74 80t111.5 54.5t150.5 20.5q202 0 308 -107q74 -76 74 -173q0 -43 -19 -83q-16 -33 -51.5 -53t-79.5 -20q-66 0 -108 42q-25 25 -36 67q-15 60 -88 60q-45 0 -69.5 -19.5 t-24.5 -50.5q0 -34 23 -56.5t88 -46.5l106 -40q80 -29 131 -58t91 -70.5t57.5 -99.5t17.5 -138q0 -51 -16.5 -99.5t-43 -84.5t-51 -60t-48.5 -41q30 -18 52 -37.5t43.5 -50t32.5 -74t11 -99.5q0 -77 -24 -140.5t-63.5 -105.5t-92.5 -71.5t-110 -42.5t-116 -13 q-156 0 -259 70q-61 41 -92 98.5t-31 119.5q0 43 18 83q17 34 52.5 54.5t79.5 20.5q66 0 105 -39q26 -26 38 -71q16 -62 89 -62q49 0 74.5 22t25.5 60q0 35 -23.5 62t-92.5 53l-107 39q-79 30 -130 58.5t-91 70.5t-58 99.5t-18 137.5zM396 543q0 -64 35 -99q30 -30 80 -30 q51 0 80 30q36 35 36 99q0 66 -36 101q-28 29 -80 29q-51 0 -80 -29q-35 -35 -35 -101z" />
<glyph unicode="&#xa8;" horiz-adv-x="983" d="M106 1337q0 65 45.5 111t110.5 46t111.5 -46t46.5 -111t-46.5 -111t-111.5 -46q-42 0 -78.5 21t-57 57.5t-20.5 78.5zM565 1337q0 65 46.5 111t111.5 46q42 0 78 -21t57 -57t21 -79q0 -65 -45.5 -111t-110.5 -46t-111.5 46t-46.5 111z" />
<glyph unicode="&#xa9;" horiz-adv-x="1615" d="M96 700q0 145 56.5 276.5t152 227t227 151.5t276.5 56t277 -56t227 -151.5t151.5 -227t56.5 -276.5t-56.5 -277t-151.5 -227t-227 -151.5t-277 -56.5t-276.5 56.5t-227 151.5t-152 227t-56.5 277zM297 700q0 -113 39 -210.5t107 -165.5t162.5 -106.5t202.5 -38.5 t202.5 38.5t162.5 106.5t107 165.5t39 210.5q0 90 -25 171.5t-71 144.5t-109 109.5t-141 71t-165 24.5q-108 0 -202.5 -38.5t-162.5 -106.5t-107 -165.5t-39 -210.5zM472 700q0 77 20 140.5t53.5 107t79.5 73t96 43t105 13.5q131 0 201 -70q36 -35 36 -72q0 -39 -26 -65 q-25 -25 -65 -25q-31 0 -69 26q-41 26 -77 26q-70 0 -112 -50.5t-42 -146.5t42 -146.5t112 -50.5q36 0 77 26q40 27 69 27q39 0 65 -26t26 -65q0 -36 -36 -71q-71 -71 -201 -71q-55 0 -105 13.5t-96 43t-79.5 72.5t-53.5 107t-20 141z" />
<glyph unicode="&#xaa;" horiz-adv-x="895" d="M88 821q0 49 17 91.5t51 76.5t90.5 53.5t130.5 19.5h175v39q0 57 -32.5 83t-99.5 26q-57 0 -116 -28q-49 -23 -77 -23q-41 0 -63 26q-26 31 -26 72q0 46 45 81t110.5 51t138.5 16q175 0 264.5 -74t89.5 -223v-392q0 -42 -2.5 -61.5t-11.5 -38.5q-13 -27 -40 -42t-63 -15 q-39 0 -67.5 18.5t-40.5 54.5q-46 -43 -89.5 -60t-113.5 -17q-128 0 -199 73.5t-71 192.5zM315 827q0 -79 105 -79q72 0 102 31q18 17 24 37.5t6 55.5v34h-143q-47 0 -70.5 -21.5t-23.5 -57.5z" />
<glyph unicode="&#xab;" horiz-adv-x="1344" d="M59 550l292 293q39 39 59.5 54t45.5 24q34 11 74 0t71 -42.5t42.5 -70.5t-0.5 -74q-8 -25 -24 -45.5t-55 -59.5l-78 -79l78 -78q39 -38 55 -59t24 -46q12 -35 0.5 -74.5t-42.5 -71t-71 -42.5t-74 1q-25 8 -45 23t-60 55zM666 550l292 293q39 38 59.5 53.5t46.5 24.5 q34 11 73 0t70.5 -42.5t43 -70.5t0.5 -74q-9 -25 -24.5 -45.5t-54.5 -59.5l-79 -79l79 -78q27 -26 41 -42t23 -31t15 -32q12 -35 0 -74.5t-43.5 -71t-70.5 -42.5t-73 1q-26 8 -46.5 23.5t-59.5 54.5z" />
<glyph unicode="&#xac;" d="M77 613q0 43 19.5 77.5t51.5 50.5q23 11 48 14.5t78 3.5h538q32 0 52 -1.5t49.5 -12.5t50.5 -32t31.5 -50.5t12 -48.5t1.5 -51v-196q0 -36 -1.5 -57t-5.5 -37t-11 -32q-17 -32 -51 -51.5t-77 -19.5q-29 0 -54.5 9t-44 25t-29.5 37q-7 16 -11 32.5t-5 36.5t-1 57v101h-444 q-53 0 -78 3t-48 15q-32 16 -51.5 50t-19.5 77z" />
<glyph unicode="&#xae;" horiz-adv-x="1615" d="M96 700q0 145 56.5 276.5t152 227t227 151.5t276.5 56t277 -56t227 -151.5t151.5 -227t56.5 -276.5t-56.5 -277t-151.5 -227t-227 -151.5t-277 -56.5t-276.5 56.5t-227 151.5t-152 227t-56.5 277zM297 700q0 -113 39 -210.5t107 -165.5t162.5 -106.5t202.5 -38.5 t202.5 38.5t162.5 106.5t107 165.5t39 210.5q0 90 -25 171.5t-71 144.5t-109 109.5t-141 71t-165 24.5q-108 0 -202.5 -38.5t-162.5 -106.5t-107 -165.5t-39 -210.5zM537 457v491q0 20 0.5 32t7.5 30.5t20.5 32t32 20t30.5 7.5t32 1h205q79 0 138 -35t87 -88.5t28 -116.5 q0 -47 -17.5 -87t-43 -64t-57.5 -41l83 -143q29 -51 32 -78q3 -52 -51 -83q-25 -14 -52 -14q-14 0 -26 4t-20.5 10t-18 17.5t-16 21.5t-16.5 27l-117 205h-61v-149q0 -38 -2 -54t-10 -33q-23 -49 -88 -49q-30 0 -53.5 13t-34.5 36q-8 17 -10 33t-2 54zM737 756h102 q35 0 57 20t22 55t-22 55t-57 20h-102v-150z" />
<glyph unicode="&#xaf;" horiz-adv-x="983" d="M163 1360q0 25 7 46.5t21 37.5t33 25q20 9 41 12t65 3h323q30 0 48 -1t31.5 -4.5t26.5 -9.5q29 -14 45 -42.5t16 -66t-16 -66t-45 -41.5q-14 -7 -26.5 -10t-31 -5t-48.5 -2h-323q-43 0 -64.5 3.5t-41.5 13.5q-19 9 -33 24.5t-21 36.5t-7 46z" />
<glyph unicode="&#xb0;" horiz-adv-x="955" d="M92 1050.5q0 104.5 52 193t141 140t193 51.5t193 -51.5t140.5 -140t51.5 -193t-51.5 -193.5t-140.5 -141t-193 -52t-193 52t-141 141t-52 193.5zM350 1050q0 -55 37.5 -93.5t90.5 -38.5t90.5 38.5t37.5 93.5t-37.5 93.5t-90.5 38.5q-35 0 -64.5 -17.5t-46.5 -48 t-17 -66.5z" />
<glyph unicode="&#xb1;" d="M88 145q0 43 20 77t51 51q23 11 47.5 14t78.5 3h523q37 0 57 -1t36.5 -5t32.5 -11q32 -17 51.5 -51t19.5 -77t-19.5 -77.5t-51.5 -51.5q-23 -11 -47.5 -14t-78.5 -3h-523q-54 0 -78.5 3t-47.5 14q-31 17 -51 51.5t-20 77.5zM88 882q0 43 20 77.5t51 50.5q16 8 32.5 11.5 t36.5 4.5t57 1h116v116q0 54 3.5 78.5t14.5 47.5q16 32 50 51.5t77 19.5t77.5 -19.5t50.5 -51.5q6 -12 9.5 -23t5.5 -26t2.5 -32.5t0.5 -44.5v-116h116q37 0 57 -1t36.5 -4.5t32.5 -11.5t29 -21t22.5 -29t14.5 -36t5 -42q0 -43 -19.5 -77.5t-51.5 -50.5q-23 -11 -47.5 -14.5 t-78.5 -3.5h-116v-116q0 -36 -1.5 -56.5t-5 -37t-11.5 -32.5q-6 -12 -15.5 -23t-21.5 -19.5t-26.5 -15t-30.5 -10t-33.5 -3.5t-34 3.5t-30.5 10t-26 15t-21.5 19.5t-15.5 23q-11 23 -14.5 47.5t-3.5 78.5v116h-116q-54 0 -78.5 3.5t-47.5 14.5q-31 16 -51 50.5t-20 77.5z " />
<glyph unicode="&#xb4;" horiz-adv-x="983" d="M439 1300q1 17 6 31.5t13.5 30.5t27.5 45l74 118q1 3 7.5 13t8.5 13t7.5 11.5t8 12t7.5 10t8.5 10t8.5 7.5t9 7q34 22 68 22q37 0 75 -23q35 -22 51 -52.5t13 -63.5q-2 -25 -11 -45t-36 -63l-74 -118q-1 -3 -7.5 -12.5t-8.5 -13t-7.5 -11.5t-8 -11.5t-7.5 -10t-8.5 -10 t-8.5 -7.5t-9 -7q-34 -22 -68 -22q-37 0 -75 23q-34 22 -50.5 52.5t-13.5 63.5z" />
<glyph unicode="&#xb5;" horiz-adv-x="1148" d="M122 -132v980q0 60 3.5 86.5t15.5 52.5q18 35 56 57t86 22q24 0 46.5 -6t40.5 -16.5t32 -25t22 -31.5q9 -18 13.5 -36t5.5 -40.5t1 -62.5v-424q0 -34 9.5 -61t23.5 -42.5t32.5 -25t34 -13t30.5 -3.5q19 0 39 6t41.5 20.5t35.5 45t14 73.5v424q0 59 3.5 86t16.5 53 q18 35 55.5 57t85.5 22t86 -22t56 -57q9 -18 13 -36t5 -40t1 -63v-638q0 -60 -3.5 -86.5t-15.5 -52.5q-18 -35 -56 -57t-86 -22q-60 0 -94.5 26t-57.5 68q-47 -47 -114 -72.5t-133 -25.5q-15 0 -22 1v-121q0 -59 -3.5 -86.5t-16.5 -53.5q-17 -35 -55 -56.5t-86 -21.5 t-86 21.5t-56 56.5q-12 26 -15.5 53t-3.5 87z" />
<glyph unicode="&#xb6;" horiz-adv-x="1389" d="M59 989q0 104 35.5 184t100 129t149.5 73.5t189 24.5h519q33 0 52 -1.5t48.5 -12.5t50.5 -31q16 -16 26 -35t13.5 -41.5t4.5 -37t1 -38.5v-1335q0 -60 -3.5 -87t-15.5 -53q-18 -35 -55.5 -56.5t-85.5 -21.5t-86.5 21.5t-55.5 56.5q-13 26 -16.5 53t-3.5 87v1225h-177 v-1225q0 -60 -3.5 -87t-15.5 -53q-18 -35 -56 -56.5t-86 -21.5t-86 21.5t-56 56.5q-6 14 -10 26t-6 29t-3 36t-1 49v718q-65 0 -131 30.5t-118.5 83t-85 129t-32.5 160.5z" />
<glyph unicode="&#xb7;" horiz-adv-x="666" d="M127 580q0 86 60 146t146 60t146.5 -60t60.5 -146t-60.5 -146.5t-146.5 -60.5t-146 60.5t-60 146.5z" />
<glyph unicode="&#xb8;" horiz-adv-x="1080" d="M269 -407q2 25 11 45.5t36 62.5l74 119q2 2 8 12t8 13t7.5 11.5t8.5 12t7.5 10t8.5 10t8.5 7.5t8.5 7q32 21 68 21q38 0 75 -22q35 -22 51 -52.5t13 -63.5q-1 -17 -5.5 -31.5t-13.5 -31.5t-28 -46l-74 -118q-1 -2 -7.5 -12t-8.5 -13t-7.5 -11.5t-8 -12t-7.5 -10t-8.5 -10 t-8 -7.5t-9.5 -7q-32 -21 -68 -21q-38 0 -75 22q-34 22 -50.5 52.5t-13.5 63.5z" />
<glyph unicode="&#xba;" horiz-adv-x="910" d="M99 980q0 127 23.5 200t78.5 128q98 97 254.5 97t253.5 -97q55 -55 78.5 -128t23.5 -200t-23.5 -200t-79.5 -128q-96 -97 -252.5 -97t-253.5 97q-56 55 -79.5 128t-23.5 200zM333 980q0 -74 7 -117t32 -67q31 -32 83 -32t84 32q24 24 31.5 67.5t7.5 116.5q0 48 -2.5 78 t-11.5 59.5t-25 46.5q-33 32 -84 32t-83 -32q-17 -17 -26 -47t-11 -59t-2 -78z" />
<glyph unicode="&#xbb;" horiz-adv-x="1344" d="M94.5 292.5q-11.5 39.5 0.5 74.5q4 13 10 23.5t15.5 23.5t21.5 25.5t32 32.5l78 78l-78 79q-39 39 -55 59.5t-24 45.5q-12 35 -0.5 74t43 70.5t71 42.5t73.5 0q26 -9 46 -24t59 -54l293 -293l-293 -292q-40 -40 -60 -55t-45 -23q-34 -12 -73.5 -1t-71 42.5t-43 71z M702.5 292.5q-11.5 39.5 0.5 74.5q8 25 24 46t54 59l79 78l-79 79q-38 39 -54 59.5t-24 45.5q-12 35 -0.5 74t42.5 70.5t71 42.5t74 0q17 -6 31.5 -15t30.5 -22.5t43 -40.5l291 -293l-291 -292q-40 -40 -60 -55t-45 -23q-34 -12 -74 -1t-71 42.5t-42.5 71z" />
<glyph unicode="&#xbf;" horiz-adv-x="1056" d="M59 45q0 81 25 138t75 117l97 115q44 49 64 99q23 54 52 84q45 44 120 44q72 0 119 -47q38 -38 38 -104q0 -77 -77 -168l-137 -160q-54 -63 -54 -118q0 -47 30.5 -77.5t83.5 -30.5q62 0 96 38q22 25 39 67q17 44 45 72q37 38 109 38q66 0 108 -43q39 -39 39 -113 q0 -50 -29.5 -116t-90.5 -121q-123 -110 -312 -113q-90 -1 -170 25t-140 75.5t-95 126.5t-35 172zM304 876.5q0 76.5 55.5 132t132.5 55.5q50 0 93 -25.5t68.5 -69t25.5 -93t-25.5 -92.5t-68.5 -68.5t-93 -25.5q-77 0 -132.5 55t-55.5 131.5z" />
<glyph unicode="&#xc0;" horiz-adv-x="1272" d="M38 147q3 30 9.5 53t21.5 63l374 993q18 47 33.5 71t38.5 42q47 38 121.5 38t121.5 -38q22 -18 37.5 -42t33.5 -71l374 -993q15 -40 21.5 -63t9.5 -53t-8 -55t-35 -49q-51 -51 -123 -51q-59 0 -97 36q-22 19 -35 43.5t-34 80.5l-20 56h-491l-21 -56q-21 -56 -34 -80.5 t-35 -43.5q-38 -36 -97 -36q-72 0 -123 51q-24 24 -35 49t-8 55zM344 1833q-3 33 13.5 63.5t51.5 52.5q37 22 75 22q35 0 67 -21q11 -8 24 -23t19.5 -25.5t22.5 -35.5l74 -118q27 -42 36 -63t11 -45q3 -33 -13.5 -64t-51.5 -52q-37 -23 -74 -23q-36 0 -68 22q-11 7 -24 22.5 t-19.5 25.5t-22.5 35l-73 118q-27 43 -36.5 63.5t-11.5 45.5zM494 495h284l-142 390z" />
<glyph unicode="&#xc1;" horiz-adv-x="1272" d="M38 147q3 30 9.5 53t21.5 63l374 993q18 47 33.5 71t38.5 42q47 38 121.5 38t121.5 -38q22 -18 37.5 -42t33.5 -71l374 -993q15 -40 21.5 -63t9.5 -53t-8 -55t-35 -49q-51 -51 -123 -51q-59 0 -97 36q-22 19 -35 43.5t-34 80.5l-20 56h-491l-21 -56q-21 -56 -34 -80.5 t-35 -43.5q-38 -36 -97 -36q-72 0 -123 51q-24 24 -35 49t-8 55zM494 495h284l-142 390zM534 1640q2 24 11 45t36 63l74 118q16 25 22.5 35.5t19.5 25.5t24 23q32 21 67 21q38 0 75 -22q35 -22 51.5 -52.5t13.5 -63.5q-2 -25 -11 -46t-36 -63l-74 -118q-16 -25 -22.5 -35 t-19.5 -25.5t-24 -22.5q-32 -22 -68 -22q-37 0 -74 23q-35 21 -51.5 52t-13.5 64z" />
<glyph unicode="&#xc2;" horiz-adv-x="1272" d="M38 147q3 30 9.5 53t21.5 63l374 993q18 47 33.5 71t38.5 42q47 38 121.5 38t121.5 -38q22 -18 37.5 -42t33.5 -71l374 -993q15 -40 21.5 -63t9.5 -53t-8 -55t-35 -49q-51 -51 -123 -51q-59 0 -97 36q-22 19 -35 43.5t-34 80.5l-20 56h-491l-21 -56q-21 -56 -34 -80.5 t-35 -43.5q-38 -36 -97 -36q-72 0 -123 51q-24 24 -35 49t-8 55zM294 1590q-9 32 2 62q5 14 12 25.5t18.5 24.5t33.5 36l136 137q23 23 38 35.5t44 26t58.5 13.5t58 -13.5t43 -26t38.5 -35.5l136 -137q14 -14 22.5 -23t15.5 -17.5t11.5 -15.5t8 -14t6.5 -16q11 -30 2 -62 t-35 -59q-55 -54 -120 -32q-15 5 -26 11.5t-25 18t-36 33.5l-100 101l-100 -101q-32 -31 -49 -43.5t-38 -19.5q-65 -22 -120 32q-26 27 -35 59zM494 495h284l-142 390z" />
<glyph unicode="&#xc3;" horiz-adv-x="1272" d="M38 147q3 30 9.5 53t21.5 63l374 993q18 47 33.5 71t38.5 42q47 38 121.5 38t121.5 -38q22 -18 37.5 -42t33.5 -71l374 -993q15 -40 21.5 -63t9.5 -53t-8 -55t-35 -49q-51 -51 -123 -51q-59 0 -97 36q-22 19 -35 43.5t-34 80.5l-20 56h-491l-21 -56q-21 -56 -34 -80.5 t-35 -43.5q-38 -36 -97 -36q-72 0 -123 51q-24 24 -35 49t-8 55zM245 1673q0 56 64 110q29 23 58 36t60.5 18.5t71.5 5.5q46 0 80 -8t81 -34q31 -17 53 -24t51 -7q42 0 86 29q39 27 71 27q51 0 83 -39q23 -30 23 -76q0 -57 -63 -110q-42 -33 -86 -46.5t-105 -13.5 q-46 0 -80 8t-81 34q-30 17 -52.5 23.5t-51.5 6.5q-44 0 -86 -28q-39 -27 -71 -27q-50 0 -82 39q-24 31 -24 76zM494 495h284l-142 390z" />
<glyph unicode="&#xc4;" horiz-adv-x="1272" d="M38 147q3 30 9.5 53t21.5 63l374 993q18 47 33.5 71t38.5 42q47 38 121.5 38t121.5 -38q22 -18 37.5 -42t33.5 -71l374 -993q15 -40 21.5 -63t9.5 -53t-8 -55t-35 -49q-51 -51 -123 -51q-59 0 -97 36q-22 19 -35 43.5t-34 80.5l-20 56h-491l-21 -56q-21 -56 -34 -80.5 t-35 -43.5q-38 -36 -97 -36q-72 0 -123 51q-24 24 -35 49t-8 55zM249 1678q0 26 8 50t22.5 43t34 34t43.5 23t49 8q65 0 111.5 -46.5t46.5 -111.5t-46.5 -111t-111.5 -46t-111 46t-46 111zM494 495h284l-142 390zM708 1678q0 65 46.5 111.5t111.5 46.5t111 -46.5t46 -111.5 t-46 -111t-111 -46q-43 0 -79 21t-57.5 57.5t-21.5 78.5z" />
<glyph unicode="&#xc5;" horiz-adv-x="1272" d="M38 147q3 30 9.5 53t21.5 63l374 993q18 47 33.5 71t38.5 42q47 38 121.5 38t121.5 -38q22 -18 37.5 -42t33.5 -71l374 -993q15 -40 21.5 -63t9.5 -53t-8 -55t-35 -49q-51 -51 -123 -51q-59 0 -97 36q-22 19 -35 43.5t-34 80.5l-20 56h-491l-21 -56q-21 -56 -34 -80.5 t-35 -43.5q-38 -36 -97 -36q-72 0 -123 51q-24 24 -35 49t-8 55zM365 1756q0 112 79.5 191.5t192 79.5t191.5 -79.5t79 -192t-79 -192t-191.5 -79.5t-192 80t-79.5 192zM494 495h284l-142 390zM534 1756q0 -42 30.5 -72.5t71.5 -30.5q28 0 51.5 14t37 37.5t13.5 51.5 q0 42 -30 72t-71.5 30t-72 -30t-30.5 -72z" />
<glyph unicode="&#xc6;" horiz-adv-x="1918" d="M37 146q0 28 9 52.5t37 79.5l455 912q59 118 115 163q59 47 141 47h830q29 0 46 -0.5t33 -2.5t28 -5.5t25 -10.5q33 -16 54 -53t21 -82q0 -30 -10 -57t-27 -47t-38 -30q-17 -8 -34.5 -12t-38 -5.5t-59.5 -1.5h-411v-234h322q56 0 82 -3t51 -15q32 -16 53 -53.5t21 -82 t-21 -81.5t-53 -53q-18 -8 -35 -12t-38.5 -5.5t-59.5 -1.5h-322v-246h411q56 0 81.5 -3t50.5 -15q33 -16 54 -53t21 -81.5t-21 -82t-54 -53.5q-25 -12 -50.5 -15t-81.5 -3h-546q-35 0 -56 1.5t-53 13t-54 33.5t-33.5 54t-13 53t-1.5 56v82h-419l-78 -159 q-28 -56 -42.5 -77.5t-36.5 -38.5q-37 -26 -82 -26q-42 0 -80 20q-43 21 -67.5 57.5t-24.5 76.5zM591 580h276v552z" />
<glyph unicode="&#xc7;" horiz-adv-x="1188" d="M94 700q0 63 0.5 99t3.5 89t8.5 87t16 77.5t25.5 75.5t38 66.5t53 64.5q51 50 107.5 83.5t126 51t152.5 17.5q129 0 209 -23.5t144 -81.5q50 -45 81.5 -96.5t41.5 -90t10 -73.5q0 -83 -48 -131t-119 -48q-53 0 -92 27q-18 12 -34.5 30.5t-28.5 36.5t-29 48q-12 21 -24 37 t-25 27t-28 18t-31 10.5t-35 3.5q-76 0 -124 -61q-31 -41 -41.5 -108.5t-10.5 -236t10.5 -235.5t41.5 -108q48 -61 124 -61q32 0 56.5 9.5t46 31t40.5 56.5q26 44 46 70t46 44q39 27 92 27q71 0 119 -48t48 -131q0 -56 -30.5 -126t-102.5 -134q-64 -58 -144 -82t-209 -24 q-123 0 -216 38t-170 115q-23 23 -42 49t-33.5 51t-25.5 56t-18 57t-12 63t-8 64t-4 70t-1.5 71.5t-0.5 77.5zM386 -407q2 24 11.5 44.5t36.5 63.5l73 119q16 24 22.5 34.5t19.5 25.5t24 23q33 21 68 21q37 0 74 -22q23 -15 38.5 -34t22 -39.5t4.5 -42.5q-1 -17 -5.5 -31.5 t-13.5 -31.5t-28 -46l-73 -118l-23 -34.5t-20 -26t-24 -22.5q-32 -21 -67 -21q-38 0 -75 22q-17 11 -30 24.5t-21.5 28.5t-12 31t-1.5 32z" />
<glyph unicode="&#xc8;" horiz-adv-x="1191" d="M139 211v977q0 35 2 56.5t13.5 53t33.5 54t54 34t53 13t56 1.5h546q38 0 58.5 -1.5t38 -5t34.5 -12.5q33 -16 54 -53t21 -82q0 -22 -5.5 -43.5t-15.5 -38.5t-24 -30.5t-30 -21.5q-25 -12 -50 -15.5t-81 -3.5h-411v-234h322q39 0 59.5 -1t38 -5t34.5 -12q33 -16 54 -53.5 t21 -82t-21 -81.5t-54 -53q-26 -12 -51.5 -15.5t-80.5 -3.5h-322v-246h411q56 0 81 -3t50 -15q33 -16 54 -53t21 -81.5t-21 -82t-54 -53.5q-25 -12 -50 -15t-81 -3h-546q-26 0 -41.5 1t-39.5 5t-44.5 14.5t-37.5 27.5q-22 22 -33.5 54t-13.5 53.5t-2 55.5zM327 1833 q-3 33 14 63.5t52 52.5q36 22 74 22q35 0 68 -21q11 -8 23.5 -23t19.5 -25.5t23 -35.5l73 -118q27 -43 36.5 -63.5t11.5 -44.5q3 -33 -14 -64t-51 -52q-37 -23 -75 -23q-35 0 -67 22q-12 7 -24.5 22.5t-19.5 25.5t-23 35l-74 118q-26 42 -35.5 63t-11.5 46z" />
<glyph unicode="&#xc9;" horiz-adv-x="1191" d="M139 211v977q0 35 2 56.5t13.5 53t33.5 54t54 34t53 13t56 1.5h546q38 0 58.5 -1.5t38 -5t34.5 -12.5q33 -16 54 -53t21 -82q0 -22 -5.5 -43.5t-15.5 -38.5t-24 -30.5t-30 -21.5q-25 -12 -50 -15.5t-81 -3.5h-411v-234h322q39 0 59.5 -1t38 -5t34.5 -12q33 -16 54 -53.5 t21 -82t-21 -81.5t-54 -53q-26 -12 -51.5 -15.5t-80.5 -3.5h-322v-246h411q56 0 81 -3t50 -15q33 -16 54 -53t21 -81.5t-21 -82t-54 -53.5q-25 -12 -50 -15t-81 -3h-546q-26 0 -41.5 1t-39.5 5t-44.5 14.5t-37.5 27.5q-22 22 -33.5 54t-13.5 53.5t-2 55.5zM517 1640 q3 24 12 45t35 63l74 118q3 4 8 11.5t7 11.5t6.5 10.5t7.5 10.5t7 9.5t7 9t7 8t8 7.5l8 6q32 21 68 21q38 0 75 -22q23 -15 38 -34t21.5 -40t4.5 -42q-2 -25 -11 -46t-36 -63l-74 -118q-2 -3 -7 -11t-7.5 -11.5t-7 -10.5t-7 -10.5t-6.5 -9.5t-7.5 -9.5l-7.5 -7.5l-7.5 -7.5 t-7.5 -5.5q-33 -22 -68 -22q-38 0 -75 23q-35 21 -51.5 51.5t-13.5 64.5z" />
<glyph unicode="&#xca;" horiz-adv-x="1191" d="M139 211v977q0 35 2 56.5t13.5 53t33.5 54t54 34t53 13t56 1.5h546q38 0 58.5 -1.5t38 -5t34.5 -12.5q33 -16 54 -53t21 -82q0 -22 -5.5 -43.5t-15.5 -38.5t-24 -30.5t-30 -21.5q-25 -12 -50 -15.5t-81 -3.5h-411v-234h322q39 0 59.5 -1t38 -5t34.5 -12q33 -16 54 -53.5 t21 -82t-21 -81.5t-54 -53q-26 -12 -51.5 -15.5t-80.5 -3.5h-322v-246h411q56 0 81 -3t50 -15q33 -16 54 -53t21 -81.5t-21 -82t-54 -53.5q-25 -12 -50 -15t-81 -3h-546q-26 0 -41.5 1t-39.5 5t-44.5 14.5t-37.5 27.5q-22 22 -33.5 54t-13.5 53.5t-2 55.5zM278 1590 q-9 32 1 62q8 21 20 37.5t44 48.5l137 137q17 17 27.5 26.5t29.5 22.5t39 19.5t43 6.5q30 0 58.5 -13.5t44 -26t37.5 -35.5l137 -137q31 -32 43.5 -48.5t19.5 -37.5q11 -30 2.5 -62.5t-35.5 -58.5q-54 -54 -120 -32q-14 5 -25.5 11.5t-25 18t-35.5 33.5l-101 101l-100 -101 q-31 -31 -48 -43.5t-38 -19.5q-66 -22 -120 32q-26 27 -35 59z" />
<glyph unicode="&#xcb;" horiz-adv-x="1191" d="M139 211v977q0 35 2 56.5t13.5 53t33.5 54t54 34t53 13t56 1.5h546q38 0 58.5 -1.5t38 -5t34.5 -12.5q33 -16 54 -53t21 -82q0 -22 -5.5 -43.5t-15.5 -38.5t-24 -30.5t-30 -21.5q-25 -12 -50 -15.5t-81 -3.5h-411v-234h322q39 0 59.5 -1t38 -5t34.5 -12q33 -16 54 -53.5 t21 -82t-21 -81.5t-54 -53q-26 -12 -51.5 -15.5t-80.5 -3.5h-322v-246h411q56 0 81 -3t50 -15q33 -16 54 -53t21 -81.5t-21 -82t-54 -53.5q-25 -12 -50 -15t-81 -3h-546q-26 0 -41.5 1t-39.5 5t-44.5 14.5t-37.5 27.5q-22 22 -33.5 54t-13.5 53.5t-2 55.5zM232 1678 q0 65 46.5 111.5t111 46.5t110.5 -46.5t46 -111.5t-46 -111t-110.5 -46t-111 46t-46.5 111zM692 1678q0 43 21.5 79t57.5 57.5t79 21.5q64 0 110.5 -46.5t46.5 -111.5t-46.5 -111t-111 -46t-111 46t-46.5 111z" />
<glyph unicode="&#xcc;" horiz-adv-x="624" d="M21 1833q-3 33 13.5 63.5t50.5 52.5q37 22 75 22q36 0 68 -21q5 -3 9.5 -7t8 -8t8.5 -10t7.5 -9.5t8 -12t8 -11.5t8.5 -13t8 -13l74 -118q26 -42 35.5 -63t11.5 -45q3 -34 -13.5 -64.5t-51.5 -51.5q-36 -23 -74 -23q-36 0 -69 22q-8 5 -16 13.5t-18 22.5t-14.5 21 t-17.5 26l-73 118q-26 42 -35.5 63t-11.5 46zM139 224v952q0 64 3.5 91t18.5 56q19 37 60 60.5t92 23.5q34 0 64 -11t52 -29.5t35 -43.5q15 -29 18.5 -56t3.5 -91v-952q0 -64 -3.5 -91t-18.5 -56q-20 -38 -60 -61.5t-91 -23.5t-92 23.5t-60 61.5q-15 29 -18.5 56t-3.5 91z " />
<glyph unicode="&#xcd;" horiz-adv-x="624" d="M139 224v952q0 64 3.5 91t18.5 56q19 37 60 60.5t92 23.5q34 0 64 -11t52 -29.5t35 -43.5q15 -29 18.5 -56t3.5 -91v-952q0 -64 -3.5 -91t-18.5 -56q-20 -38 -60 -61.5t-91 -23.5t-92 23.5t-60 61.5q-15 29 -18.5 56t-3.5 91zM210 1640q2 24 11.5 45t35.5 63l74 118 q16 25 23 35.5t19.5 25.5t23.5 23q33 21 68 21q38 0 75 -22q34 -22 51 -52.5t14 -63.5q-2 -25 -11.5 -46t-35.5 -63l-74 -118q-16 -25 -23 -35t-19.5 -25.5t-23.5 -22.5q-33 -22 -68 -22q-38 0 -74 23q-35 21 -52 52t-14 64z" />
<glyph unicode="&#xce;" horiz-adv-x="624" d="M-29.5 1590q-8.5 32 1.5 62q7 21 19.5 37t44.5 49l137 137q13 13 21.5 21t23.5 19.5t28 18t30.5 11.5t36.5 5q30 0 58.5 -13.5t43 -26t37.5 -35.5l136 -137q33 -33 45.5 -49t19.5 -37q10 -30 1.5 -62t-35.5 -59q-54 -54 -120 -32q-21 7 -38 19.5t-48 43.5l-100 101 l-101 -101q-31 -31 -48 -43.5t-38 -19.5q-66 -22 -120 32q-27 27 -35.5 59zM139 224v952q0 64 3.5 91t18.5 56q19 37 60 60.5t92 23.5q34 0 64 -11t52 -29.5t35 -43.5q15 -29 18.5 -56t3.5 -91v-952q0 -64 -3.5 -91t-18.5 -56q-20 -38 -60 -61.5t-91 -23.5t-92 23.5 t-60 61.5q-15 29 -18.5 56t-3.5 91z" />
<glyph unicode="&#xcf;" horiz-adv-x="624" d="M-60 1678q0 65 46 111.5t111 46.5t111 -46.5t46 -111.5t-46 -111t-111 -46t-111 46t-46 111zM139 224v952q0 64 3.5 91t18.5 56q19 37 60 60.5t92 23.5q34 0 64 -11t52 -29.5t35 -43.5q15 -29 18.5 -56t3.5 -91v-952q0 -64 -3.5 -91t-18.5 -56q-20 -38 -60 -61.5 t-91 -23.5t-92 23.5t-60 61.5q-15 29 -18.5 56t-3.5 91zM371 1678q0 32 12.5 61t33.5 50t50 34t61 13q65 0 111 -46.5t46 -111.5t-46 -111t-111 -46t-111 46t-46 111z" />
<glyph unicode="&#xd0;" horiz-adv-x="1340" d="M17 706q0 16 3 30.5t8.5 27.5t13.5 24t18 19.5t22 14.5q22 11 44.5 14t72.5 3h2v349q0 36 1.5 56.5t12.5 52.5t33.5 54.5t54.5 34t52.5 13t56.5 1.5h310q308 0 454 -236q17 -28 29 -55t19.5 -64t11.5 -62.5t6 -81.5t2 -88.5v-112.5v-112.5t-2 -88.5t-6 -81.5t-11.5 -63 t-19.5 -64t-29 -54.5q-146 -236 -454 -236h-310q-36 0 -56.5 1.5t-52.5 13t-54.5 33.5t-33.5 54t-12.5 53t-1.5 56v361h-2q-50 0 -72.5 3t-44.5 14q-20 10 -34.5 27t-22.5 40t-8 50zM546 306h152q112 0 165 79q15 22 22.5 47.5t11 87.5t3.5 180q0 169 -7.5 226t-29.5 89 q-53 78 -165 78h-152v-254h30q50 0 72.5 -3t44.5 -14q14 -7 26 -19t20 -26.5t12.5 -32.5t4.5 -38q0 -27 -7.5 -50t-22 -40t-33.5 -27q-22 -11 -44.5 -14t-72.5 -3h-30v-266z" />
<glyph unicode="&#xd1;" horiz-adv-x="1375" d="M139 224v971q0 57 9.5 94.5t36.5 65.5q53 52 130 52q56 0 99.5 -36t103.5 -127l373 -548v480q0 47 1 66t5.5 40t14.5 41q19 37 60 60.5t92 23.5q25 0 49 -6t43.5 -17.5t34.5 -27t24 -33.5q15 -29 18 -55t3 -92v-972q0 -37 -2.5 -62.5t-13 -51.5t-29.5 -45 q-52 -53 -129 -53q-57 0 -100 36.5t-104 127.5l-372 548v-480q0 -64 -3.5 -91t-18.5 -56q-20 -38 -60 -61.5t-91 -23.5t-92 23.5t-60 61.5q-15 29 -18.5 56t-3.5 91zM297 1673q0 56 64 110q42 33 85.5 46.5t104.5 13.5q46 0 80 -8t81 -34q31 -17 53 -24t51 -7q42 0 85 29 q40 27 72 27q51 0 83 -39q23 -30 23 -76q0 -57 -63 -110q-42 -33 -86 -46.5t-105 -13.5q-47 0 -80.5 8t-81.5 34q-30 17 -51.5 23.5t-50.5 6.5q-44 0 -86 -28q-39 -27 -72 -27q-50 0 -82 39q-24 31 -24 76z" />
<glyph unicode="&#xd2;" horiz-adv-x="1257" d="M94 700q0 63 0.5 99t3.5 89t8.5 87t16 77.5t25.5 75.5t38 66.5t53 64.5q77 76 171 114t219 38t219.5 -38t171.5 -114q29 -30 52 -64.5t38 -66.5t25.5 -76t16 -77t8.5 -87t3.5 -89t0.5 -99t-0.5 -99t-3.5 -89t-8.5 -87.5t-16 -77.5t-25.5 -75.5t-38 -66t-52 -64.5 q-77 -77 -171.5 -115t-219.5 -38t-219 38t-171 115q-23 23 -42 49t-33.5 51t-25.5 56t-18 57t-12 63t-8 64t-4 70t-1.5 71.5t-0.5 77.5zM337 1833q-2 21 4.5 42t22 40t38.5 34q37 22 75 22q35 0 67 -21q12 -8 24.5 -23t19.5 -25.5t23 -35.5l73 -118q27 -42 36 -63t12 -45 q1 -22 -5.5 -43t-22 -40t-38.5 -33q-37 -23 -75 -23q-34 0 -67 22q-11 7 -24 22.5t-19.5 25.5t-22.5 35l-74 118q-27 42 -36 63t-11 46zM441 699.5q0 -122.5 6.5 -193.5t16 -97.5t28.5 -50.5q21 -27 56.5 -45t80.5 -18q30 0 57.5 9t47 22.5t33.5 31.5q18 24 27.5 50.5 t16.5 97.5t7 193.5t-7 194t-16.5 99t-27.5 51.5q-21 26 -57 43.5t-81 17.5t-81 -17t-56 -44q-19 -24 -28.5 -51.5t-16 -99t-6.5 -194z" />
<glyph unicode="&#xd3;" horiz-adv-x="1257" d="M94 700q0 63 0.5 99t3.5 89t8.5 87t16 77.5t25.5 75.5t38 66.5t53 64.5q77 76 171 114t219 38t219.5 -38t171.5 -114q29 -30 52 -64.5t38 -66.5t25.5 -76t16 -77t8.5 -87t3.5 -89t0.5 -99t-0.5 -99t-3.5 -89t-8.5 -87.5t-16 -77.5t-25.5 -75.5t-38 -66t-52 -64.5 q-77 -77 -171.5 -115t-219.5 -38t-219 38t-171 115q-23 23 -42 49t-33.5 51t-25.5 56t-18 57t-12 63t-8 64t-4 70t-1.5 71.5t-0.5 77.5zM441 699.5q0 -122.5 6.5 -193.5t16 -97.5t28.5 -50.5q21 -27 56.5 -45t80.5 -18q30 0 57.5 9t47 22.5t33.5 31.5q18 24 27.5 50.5 t16.5 97.5t7 193.5t-7 194t-16.5 99t-27.5 51.5q-21 26 -57 43.5t-81 17.5t-81 -17t-56 -44q-19 -24 -28.5 -51.5t-16 -99t-6.5 -194zM527 1640q2 24 11.5 45t35.5 63l74 118q2 4 6.5 10.5t6.5 10t6 9.5t6.5 9.5t6.5 9t6.5 9t6 7.5t7 7l7 6t6.5 6q33 21 68 21q39 0 75 -22 q23 -15 38.5 -34t22 -40t4.5 -42q-2 -25 -11.5 -46t-35.5 -63l-73 -118q-16 -25 -23 -35t-19.5 -25.5t-24.5 -22.5q-32 -22 -68 -22q-38 0 -75 23q-34 21 -50.5 51.5t-13.5 64.5z" />
<glyph unicode="&#xd4;" horiz-adv-x="1257" d="M94 700q0 63 0.5 99t3.5 89t8.5 87t16 77.5t25.5 75.5t38 66.5t53 64.5q77 76 171 114t219 38t219.5 -38t171.5 -114q29 -30 52 -64.5t38 -66.5t25.5 -76t16 -77t8.5 -87t3.5 -89t0.5 -99t-0.5 -99t-3.5 -89t-8.5 -87.5t-16 -77.5t-25.5 -75.5t-38 -66t-52 -64.5 q-77 -77 -171.5 -115t-219.5 -38t-219 38t-171 115q-23 23 -42 49t-33.5 51t-25.5 56t-18 57t-12 63t-8 64t-4 70t-1.5 71.5t-0.5 77.5zM287.5 1590q-8.5 32 1.5 62q7 21 19.5 37t44.5 49l137 137q23 23 37.5 35.5t43 26t58.5 13.5t58.5 -13.5t43.5 -26t38 -35.5l136 -137 q33 -33 45.5 -49t19.5 -37q10 -30 1 -62t-35 -59q-54 -54 -120 -32q-21 7 -38 19.5t-48 43.5l-101 101l-100 -101q-31 -31 -48 -43.5t-38 -19.5q-66 -22 -120 32q-27 27 -35.5 59zM441 699.5q0 -122.5 6.5 -193.5t16 -97.5t28.5 -50.5q21 -27 56.5 -45t80.5 -18q30 0 57.5 9 t47 22.5t33.5 31.5q18 24 27.5 50.5t16.5 97.5t7 193.5t-7 194t-16.5 99t-27.5 51.5q-21 26 -57 43.5t-81 17.5t-81 -17t-56 -44q-19 -24 -28.5 -51.5t-16 -99t-6.5 -194z" />
<glyph unicode="&#xd5;" horiz-adv-x="1257" d="M94 700q0 63 0.5 99t3.5 89t8.5 87t16 77.5t25.5 75.5t38 66.5t53 64.5q77 76 171 114t219 38t219.5 -38t171.5 -114q29 -30 52 -64.5t38 -66.5t25.5 -76t16 -77t8.5 -87t3.5 -89t0.5 -99t-0.5 -99t-3.5 -89t-8.5 -87.5t-16 -77.5t-25.5 -75.5t-38 -66t-52 -64.5 q-77 -77 -171.5 -115t-219.5 -38t-219 38t-171 115q-23 23 -42 49t-33.5 51t-25.5 56t-18 57t-12 63t-8 64t-4 70t-1.5 71.5t-0.5 77.5zM238 1673q0 57 63 110q42 33 86.5 46.5t104.5 13.5q47 0 80.5 -8t81.5 -34q15 -9 27 -14.5t24 -9.5t24.5 -5.5t26.5 -1.5q44 0 87 29 q39 27 71 27q50 0 82 -39q24 -31 24 -76q0 -56 -64 -110q-42 -33 -85.5 -46.5t-104.5 -13.5q-31 0 -53.5 3t-48.5 12t-59 27q-15 9 -27.5 14.5t-24.5 9t-24.5 5t-27.5 1.5q-44 0 -85 -28q-40 -27 -72 -27q-51 0 -83 39q-23 30 -23 76zM441 699.5q0 -122.5 6.5 -193.5 t16 -97.5t28.5 -50.5q21 -27 56.5 -45t80.5 -18q30 0 57.5 9t47 22.5t33.5 31.5q18 24 27.5 50.5t16.5 97.5t7 193.5t-7 194t-16.5 99t-27.5 51.5q-21 26 -57 43.5t-81 17.5t-81 -17t-56 -44q-19 -24 -28.5 -51.5t-16 -99t-6.5 -194z" />
<glyph unicode="&#xd6;" horiz-adv-x="1257" d="M94 700q0 63 0.5 99t3.5 89t8.5 87t16 77.5t25.5 75.5t38 66.5t53 64.5q77 76 171 114t219 38t219.5 -38t171.5 -114q29 -30 52 -64.5t38 -66.5t25.5 -76t16 -77t8.5 -87t3.5 -89t0.5 -99t-0.5 -99t-3.5 -89t-8.5 -87.5t-16 -77.5t-25.5 -75.5t-38 -66t-52 -64.5 q-77 -77 -171.5 -115t-219.5 -38t-219 38t-171 115q-23 23 -42 49t-33.5 51t-25.5 56t-18 57t-12 63t-8 64t-4 70t-1.5 71.5t-0.5 77.5zM242 1678q0 32 12.5 61t33.5 50t50.5 34t61 13t60.5 -13t50.5 -34t34 -50t12.5 -61q0 -42 -21.5 -78.5t-57.5 -57.5t-79 -21 q-64 0 -110.5 46t-46.5 111zM441 699.5q0 -122.5 6.5 -193.5t16 -97.5t28.5 -50.5q21 -27 56.5 -45t80.5 -18q30 0 57.5 9t47 22.5t33.5 31.5q18 24 27.5 50.5t16.5 97.5t7 193.5t-7 194t-16.5 99t-27.5 51.5q-21 26 -57 43.5t-81 17.5t-81 -17t-56 -44q-19 -24 -28.5 -51.5 t-16 -99t-6.5 -194zM702 1678q0 32 12.5 61t33.5 50t50 34t61 13t61 -13t50.5 -34t34 -50t12.5 -61q0 -42 -21.5 -78.5t-57.5 -57.5t-79 -21q-65 0 -111 46t-46 111z" />
<glyph unicode="&#xd8;" horiz-adv-x="1257" d="M94 700q0 63 0.5 99t3.5 89t8.5 87t16 77.5t25.5 75.5t38 66.5t53 64.5q77 76 171 114t219 38q103 0 188 -27l3 6q14 28 23 43t18 25.5t21 19.5q54 42 124 6q23 -11 38.5 -27t23.5 -35.5t7 -40.5q0 -22 -6.5 -42.5t-26.5 -59.5l-15 -29q28 -30 50 -64t36 -65t24 -74.5 t15 -76t8 -86t3.5 -88t0.5 -96.5q0 -64 -0.5 -99t-3.5 -89t-8.5 -87.5t-16 -77.5t-25.5 -75.5t-38 -66t-52 -64.5q-77 -77 -171.5 -115t-219.5 -38q-102 0 -187 27l-3 -5q-21 -41 -33 -58t-30 -31q-53 -41 -124 -5q-33 17 -51.5 44t-18.5 58q0 22 7 42.5t27 60.5l15 30 q-28 29 -49.5 63t-36 65.5t-24.5 74.5t-15 76t-8 85t-3.5 88t-0.5 97zM441 700q0 -108 4 -184l271 568q-42 21 -87 21t-81 -17t-56 -44q-19 -24 -28.5 -51.5t-16 -99t-6.5 -193.5zM541 316q41 -21 88 -21q30 0 57.5 9t47 22.5t33.5 31.5q18 24 27.5 50.5t16.5 97.5t7 194 q0 116 -6 184z" />
<glyph unicode="&#xd9;" horiz-adv-x="1296" d="M116 492v684q0 47 1 66t5.5 40t14.5 41q19 37 60 60.5t92 23.5t91.5 -23.5t60.5 -60.5q14 -29 17.5 -55t3.5 -92v-677q0 -96 49.5 -150t135.5 -54q87 0 137.5 54t50.5 150v677q0 64 3.5 91t18.5 56q19 37 60 60.5t92 23.5t91 -23t60 -61q15 -29 18.5 -56t3.5 -91v-684 q0 -113 -43 -208t-115.5 -159.5t-170 -100.5t-206.5 -36t-205.5 36t-169 100.5t-114.5 159.5t-42 208zM357 1833q-3 33 13.5 63.5t50.5 52.5q37 22 75 22q36 0 68 -21q5 -3 9.5 -7t8 -8t8.5 -10t7.5 -9.5t8 -12t8 -11.5t8.5 -13t8 -13l74 -118q26 -42 35.5 -63t11.5 -45 q2 -22 -4.5 -43t-22 -40t-38.5 -33q-36 -23 -74 -23q-36 0 -69 22q-4 3 -8.5 7t-8 7.5t-8.5 10t-8 10t-8.5 11.5t-7.5 11.5t-8 13t-8 12.5l-74 118q-26 42 -35.5 63t-11.5 46z" />
<glyph unicode="&#xda;" horiz-adv-x="1296" d="M116 492v684q0 47 1 66t5.5 40t14.5 41q19 37 60 60.5t92 23.5t91.5 -23.5t60.5 -60.5q14 -29 17.5 -55t3.5 -92v-677q0 -96 49.5 -150t135.5 -54q87 0 137.5 54t50.5 150v677q0 64 3.5 91t18.5 56q19 37 60 60.5t92 23.5t91 -23t60 -61q15 -29 18.5 -56t3.5 -91v-684 q0 -113 -43 -208t-115.5 -159.5t-170 -100.5t-206.5 -36t-205.5 36t-169 100.5t-114.5 159.5t-42 208zM546 1640q2 24 11.5 45t35.5 63l74 118q13 20 17.5 27t14.5 21t18 22t16 14q33 21 69 21q37 0 74 -22q34 -22 51 -52.5t14 -63.5q-2 -17 -6.5 -31.5t-13.5 -31.5t-27 -46 l-74 -118q-1 -2 -3 -5q-41 -63 -63 -78q-33 -22 -68 -22q-38 0 -74 23q-35 21 -52 52t-14 64z" />
<glyph unicode="&#xdb;" horiz-adv-x="1296" d="M116 492v684q0 47 1 66t5.5 40t14.5 41q19 37 60 60.5t92 23.5t91.5 -23.5t60.5 -60.5q14 -29 17.5 -55t3.5 -92v-677q0 -96 49.5 -150t135.5 -54q87 0 137.5 54t50.5 150v677q0 64 3.5 91t18.5 56q19 37 60 60.5t92 23.5t91 -23t60 -61q15 -29 18.5 -56t3.5 -91v-684 q0 -113 -43 -208t-115.5 -159.5t-170 -100.5t-206.5 -36t-205.5 36t-169 100.5t-114.5 159.5t-42 208zM307.5 1589.5q-8.5 32.5 1.5 62.5q7 21 19.5 37.5t43.5 48.5l137 137q17 17 28 26.5t29.5 22.5t39 19.5t43.5 6.5t43 -6.5t39 -19.5t29.5 -22.5t27.5 -26.5l137 -137 q22 -22 33.5 -35.5t18.5 -24.5t12 -26q10 -30 1.5 -62t-35.5 -59q-54 -54 -120 -32q-21 7 -38 19.5t-48 43.5l-100 101l-101 -101q-31 -31 -48 -43.5t-38 -19.5q-66 -22 -120 32q-26 26 -34.5 58.5z" />
<glyph unicode="&#xdc;" horiz-adv-x="1296" d="M116 492v684q0 47 1 66t5.5 40t14.5 41q19 37 60 60.5t92 23.5t91.5 -23.5t60.5 -60.5q14 -29 17.5 -55t3.5 -92v-677q0 -96 49.5 -150t135.5 -54q87 0 137.5 54t50.5 150v677q0 64 3.5 91t18.5 56q19 37 60 60.5t92 23.5t91 -23t60 -61q15 -29 18.5 -56t3.5 -91v-684 q0 -113 -43 -208t-115.5 -159.5t-170 -100.5t-206.5 -36t-205.5 36t-169 100.5t-114.5 159.5t-42 208zM261 1678q0 65 46.5 111.5t111 46.5t111 -46.5t46.5 -111.5t-46.5 -111t-111 -46t-111 46t-46.5 111zM722 1678q0 65 46 111.5t110 46.5q26 0 50 -8t43.5 -23t34 -34 t22.5 -43t8 -50q0 -42 -21.5 -78.5t-57.5 -57.5t-79 -21q-64 0 -110 46t-46 111z" />
<glyph unicode="&#xdd;" horiz-adv-x="1094" d="M37 1255q0 39 24 75t68 58q38 19 80 19q45 0 82 -26q16 -11 27.5 -26t21.5 -33t30 -57l177 -361l179 361l22.5 45t17 30t18.5 23.5t20 17.5q37 26 82 26q42 0 81 -19q43 -22 67 -58t24 -75q0 -29 -9 -54t-36 -80l-292 -583v-314q0 -64 -3.5 -91t-18.5 -56 q-19 -38 -60 -61.5t-91.5 -23.5t-91 23.5t-60.5 61.5q-14 29 -18 56t-4 91v314l-291 583q-28 55 -37 80t-9 54zM445 1640q3 24 12 45t35 63l74 118q3 4 8 11.5t7 11.5t6.5 10.5t7.5 10.5t7 9.5t7 9t7 8t8 7.5l8 6q32 21 68 21q38 0 75 -22q23 -15 38 -34t21.5 -40t4.5 -42 q-2 -25 -11 -46t-36 -63l-73 -118q-16 -25 -22.5 -35t-19.5 -25.5t-24 -22.5q-33 -22 -68 -22q-38 0 -75 23q-35 21 -51.5 51.5t-13.5 64.5z" />
<glyph unicode="&#xde;" horiz-adv-x="1232" d="M139 224v952q0 64 3.5 91t18.5 56q19 37 60 60.5t92 23.5q34 0 64 -11t52 -29.5t35 -43.5q15 -29 18.5 -56t3.5 -91v-18h210q91 0 169 -25t134 -67.5t96 -100t59.5 -123t19.5 -134.5q0 -88 -31.5 -168t-90 -143.5t-151 -101.5t-205.5 -38h-210v-33q0 -64 -3.5 -91 t-18.5 -56q-20 -38 -60 -61.5t-91 -23.5t-92 23.5t-60 61.5q-15 29 -18.5 56t-3.5 91zM486 564h195q45 0 79.5 21t51.5 53t17 70q0 58 -40.5 101t-107.5 43h-195v-288z" />
<glyph unicode="&#xdf;" horiz-adv-x="1145" d="M122 210v810q0 85 24 152t66 111t101.5 73.5t128.5 42t149 12.5q82 0 151.5 -13t126.5 -41t96.5 -69.5t61 -100.5t21.5 -131q0 -146 -120 -214q26 -13 45 -27.5t37.5 -38t28 -58t9.5 -79.5v-330q0 -62 -21 -121.5t-63 -101.5q-90 -90 -231 -90h-5q-101 0 -147 46 q-39 39 -39 97q0 64 37 100q32 32 85 35q30 1 46 18.5t16 57.5v289q0 41 -16 58t-46 18q-60 3 -90 33q-32 32 -32 87q0 57 32 89q12 11 27 18t29 9.5t34 3.5q30 2 46 19t16 58q0 40 -25 65q-34 34 -110 34q-43 0 -71.5 -9t-45 -28.5t-23.5 -45.5t-7 -63v-775q0 -59 -3.5 -86 t-16.5 -53q-17 -35 -55 -57t-86 -22t-86 22t-56 57q-12 26 -15.5 52.5t-3.5 86.5z" />
<glyph unicode="&#xe0;" horiz-adv-x="1056" d="M49 332q0 62 21.5 116t64.5 97.5t115 68.5t165 25h208v27q0 71 -36 101.5t-113 30.5q-27 0 -65 -8.5t-67 -20.5q-64 -26 -98 -26q-56 0 -90 43q-36 43 -36 97q0 47 29.5 80t68.5 50q126 56 264 56q229 0 347.5 -95.5t118.5 -287.5v-476q0 -60 -3.5 -86.5t-16.5 -52.5 q-17 -35 -55.5 -57t-86.5 -22q-59 0 -94 26t-57 68q-58 -53 -107.5 -74.5t-129.5 -21.5q-79 0 -144.5 25t-110.5 69q-45 45 -68.5 109.5t-23.5 138.5zM228 1492q-3 33 13 63.5t51 52.5q38 23 75 23q34 0 68 -22q4 -3 8.5 -7t8 -7.5t8.5 -10t8 -10t8.5 -12t7.5 -11.5t8 -13 t8 -13l74 -118q27 -42 36 -62.5t11 -44.5q2 -22 -4.5 -43t-21.5 -40t-38 -33q-39 -23 -75 -23q-34 0 -68 22q-11 7 -24 22.5t-20 25.5t-22 35l-73 118q-19 30 -28 46t-13.5 30.5t-5.5 31.5zM358 338q0 -25 12.5 -44t39 -30.5t64.5 -11.5q28 0 46.5 3t35.5 11t33 23 q13 12 20.5 27t10.5 34t3 47v27h-154q-54 0 -82.5 -22.5t-28.5 -63.5z" />
<glyph unicode="&#xe1;" horiz-adv-x="1056" d="M49 332q0 62 21.5 116t64.5 97.5t115 68.5t165 25h208v27q0 71 -36 101.5t-113 30.5q-27 0 -65 -8.5t-67 -20.5q-64 -26 -98 -26q-56 0 -90 43q-36 43 -36 97q0 47 29.5 80t68.5 50q126 56 264 56q229 0 347.5 -95.5t118.5 -287.5v-476q0 -60 -3.5 -86.5t-16.5 -52.5 q-17 -35 -55.5 -57t-86.5 -22q-59 0 -94 26t-57 68q-58 -53 -107.5 -74.5t-129.5 -21.5q-79 0 -144.5 25t-110.5 69q-45 45 -68.5 109.5t-23.5 138.5zM358 338q0 -25 12.5 -44t39 -30.5t64.5 -11.5q28 0 46.5 3t35.5 11t33 23q13 12 20.5 27t10.5 34t3 47v27h-154 q-54 0 -82.5 -22.5t-28.5 -63.5zM417 1300q2 24 11 44.5t36 62.5l74 118q15 25 22 35.5t20 25.5t24 23q34 22 67 22q37 0 75 -23q35 -22 51.5 -52.5t13.5 -63.5q-2 -25 -11 -45t-36 -63l-74 -118q-16 -25 -22.5 -35t-19.5 -25.5t-24 -22.5q-34 -22 -67 -22q-37 0 -75 23 q-35 22 -51.5 52.5t-13.5 63.5z" />
<glyph unicode="&#xe2;" horiz-adv-x="1056" d="M49 332q0 62 21.5 116t64.5 97.5t115 68.5t165 25h208v27q0 71 -36 101.5t-113 30.5q-27 0 -65 -8.5t-67 -20.5q-64 -26 -98 -26q-56 0 -90 43q-36 43 -36 97q0 47 29.5 80t68.5 50q126 56 264 56q229 0 347.5 -95.5t118.5 -287.5v-476q0 -60 -3.5 -86.5t-16.5 -52.5 q-17 -35 -55.5 -57t-86.5 -22q-59 0 -94 26t-57 68q-58 -53 -107.5 -74.5t-129.5 -21.5q-79 0 -144.5 25t-110.5 69q-45 45 -68.5 109.5t-23.5 138.5zM177 1250q-9 32 2 62q7 21 19 37t45 49l136 136q23 23 38 36t44 26t58 13q23 0 43.5 -6t39 -19.5t29 -23t28.5 -26.5 l136 -136q32 -33 44.5 -49t19.5 -37q11 -30 2 -62t-35.5 -58.5t-58 -35.5t-61.5 2q-21 7 -38 19.5t-49 44.5l-100 100l-100 -100q-32 -32 -49 -44.5t-38 -19.5q-30 -11 -61.5 -2t-58 35.5t-35.5 58.5zM358 338q0 -25 12.5 -44t39 -30.5t64.5 -11.5q28 0 46.5 3t35.5 11 t33 23q13 12 20.5 27t10.5 34t3 47v27h-154q-54 0 -82.5 -22.5t-28.5 -63.5z" />
<glyph unicode="&#xe3;" horiz-adv-x="1056" d="M49 332q0 62 21.5 116t64.5 97.5t115 68.5t165 25h208v27q0 71 -36 101.5t-113 30.5q-27 0 -65 -8.5t-67 -20.5q-64 -26 -98 -26q-56 0 -90 43q-36 43 -36 97q0 47 29.5 80t68.5 50q126 56 264 56q229 0 347.5 -95.5t118.5 -287.5v-476q0 -60 -3.5 -86.5t-16.5 -52.5 q-17 -35 -55.5 -57t-86.5 -22q-59 0 -94 26t-57 68q-58 -53 -107.5 -74.5t-129.5 -21.5q-79 0 -144.5 25t-110.5 69q-45 45 -68.5 109.5t-23.5 138.5zM128 1334q0 55 64 109q42 34 86 47.5t104 13.5q46 0 80 -8t81 -34q31 -17 53 -24t51 -7q42 0 85 29q39 26 72 26 q51 0 83 -39q23 -30 23 -76q0 -56 -63 -109q-43 -33 -87 -47t-104 -14q-47 0 -80.5 8.5t-81.5 33.5q-30 17 -52 24t-50 7q-44 0 -87 -29q-38 -26 -71 -26q-50 0 -82 40q-24 30 -24 75zM358 338q0 -25 12.5 -44t39 -30.5t64.5 -11.5q28 0 46.5 3t35.5 11t33 23q13 12 20.5 27 t10.5 34t3 47v27h-154q-54 0 -82.5 -22.5t-28.5 -63.5z" />
<glyph unicode="&#xe4;" horiz-adv-x="1056" d="M49 332q0 62 21.5 116t64.5 97.5t115 68.5t165 25h208v27q0 71 -36 101.5t-113 30.5q-27 0 -65 -8.5t-67 -20.5q-64 -26 -98 -26q-56 0 -90 43q-36 43 -36 97q0 47 29.5 80t68.5 50q126 56 264 56q229 0 347.5 -95.5t118.5 -287.5v-476q0 -60 -3.5 -86.5t-16.5 -52.5 q-17 -35 -55.5 -57t-86.5 -22q-59 0 -94 26t-57 68q-58 -53 -107.5 -74.5t-129.5 -21.5q-79 0 -144.5 25t-110.5 69q-45 45 -68.5 109.5t-23.5 138.5zM132 1337q0 65 46 111t111 46t111 -46t46 -111t-46 -111t-111 -46t-111 46t-46 111zM358 338q0 -25 12.5 -44t39 -30.5 t64.5 -11.5q28 0 46.5 3t35.5 11t33 23q13 12 20.5 27t10.5 34t3 47v27h-154q-54 0 -82.5 -22.5t-28.5 -63.5zM591 1337q0 65 46.5 111t111.5 46t111 -46t46 -111t-46 -111t-111 -46q-32 0 -61 12.5t-50.5 33.5t-34 50t-12.5 61z" />
<glyph unicode="&#xe5;" horiz-adv-x="1056" d="M49 332q0 62 21.5 116t64.5 97.5t115 68.5t165 25h208v27q0 71 -36 101.5t-113 30.5q-27 0 -65 -8.5t-67 -20.5q-64 -26 -98 -26q-56 0 -90 43q-36 43 -36 97q0 47 29.5 80t68.5 50q126 56 264 56q229 0 347.5 -95.5t118.5 -287.5v-476q0 -60 -3.5 -86.5t-16.5 -52.5 q-17 -35 -55.5 -57t-86.5 -22q-59 0 -94 26t-57 68q-58 -53 -107.5 -74.5t-129.5 -21.5q-79 0 -144.5 25t-110.5 69q-45 45 -68.5 109.5t-23.5 138.5zM248 1437q0 112 79.5 192t192 80t191.5 -79.5t79 -192t-79 -192.5t-191.5 -80t-192 80t-79.5 192zM358 338 q0 -25 12.5 -44t39 -30.5t64.5 -11.5q28 0 46.5 3t35.5 11t33 23q13 12 20.5 27t10.5 34t3 47v27h-154q-54 0 -82.5 -22.5t-28.5 -63.5zM417 1437q0 -42 30.5 -72t72 -30t71.5 30t30 72t-30 72.5t-71.5 30.5t-72 -30.5t-30.5 -72.5z" />
<glyph unicode="&#xe6;" horiz-adv-x="1646" d="M53 332q0 62 21.5 116t64 97.5t114.5 68.5t166 25h208v27q0 71 -36 101.5t-113 30.5q-14 0 -31.5 -2.5t-35 -6.5t-34.5 -9t-31 -11q-64 -26 -98 -26q-56 0 -91 43t-35 97q0 47 29.5 80t68.5 50q126 56 264 56q217 0 334 -88q116 88 283 88q108 0 196.5 -36.5t147 -100 t92 -146.5t37.5 -178q4 -97 -43 -144q-18 -18 -42.5 -27.5t-42.5 -11t-47 -1.5h-455q0 -69 51 -118t140 -49q88 0 159 47q35 24 59.5 33t51.5 9q47 0 87.5 -40t40.5 -94q0 -76 -100 -145q-114 -79 -302 -79q-242 0 -370 128q-37 -34 -74.5 -58t-69.5 -37.5t-71.5 -21 t-70.5 -9.5t-76 -2q-159 0 -253 96q-45 46 -69 110t-24 138zM362 338q0 -39 29.5 -62.5t86.5 -23.5q28 0 46.5 3t35 11t33.5 23q19 18 26.5 42t7.5 66v27h-153q-55 0 -83.5 -23t-28.5 -63zM944 639h315q0 45 -19 83q-40 82 -139 82q-101 0 -140 -82q-17 -39 -17 -83z" />
<glyph unicode="&#xe7;" horiz-adv-x="936" d="M75 529q0 96 17 175t45 134t68 97.5t81.5 67t90 40t89.5 21t84 5.5q107 0 183 -33q61 -26 108.5 -72.5t47.5 -102.5q0 -58 -45 -106q-17 -19 -44.5 -31.5t-54.5 -12.5q-26 0 -47.5 8.5t-52.5 29.5q-47 30 -95 30q-58 0 -100 -42q-53 -55 -53 -208t53 -208q42 -42 100 -42 q48 0 95 30q31 20 52.5 28.5t47.5 8.5q27 0 54.5 -12.5t44.5 -31.5q45 -48 45 -105q0 -56 -47.5 -102.5t-108.5 -72.5q-76 -34 -183 -34q-43 0 -84 5.5t-89.5 21.5t-90 40.5t-81.5 67t-68 97t-45 134t-17 175.5zM269 -407q2 25 11 45.5t36 62.5l74 119q2 2 8 12t8 13 t7.5 11.5t8.5 12t7.5 10t8.5 10t8.5 7.5t8.5 7q32 21 68 21q38 0 75 -22q35 -22 51 -52.5t13 -63.5q-1 -17 -5.5 -31.5t-13.5 -31.5t-28 -46l-74 -118q-1 -2 -7.5 -12t-8.5 -13t-7.5 -11.5t-8 -12t-7.5 -10t-8.5 -10t-8 -7.5t-9.5 -7q-32 -21 -68 -21q-38 0 -75 22 q-34 22 -50.5 52.5t-13.5 63.5z" />
<glyph unicode="&#xe8;" horiz-adv-x="1093" d="M75 529q0 102 22.5 188.5t64 151t100 110t131 68t155.5 22.5q87 0 161.5 -23.5t130 -66t95.5 -100.5t62 -127t25 -144q4 -97 -43 -144q-13 -14 -29 -22.5t-35.5 -12t-32.5 -4.5t-35 -1h-455q0 -69 50.5 -118t139.5 -49q88 0 159 47q61 42 112 42q47 0 87.5 -40t40.5 -94 q0 -76 -100 -145q-114 -79 -303 -79q-54 0 -102 6t-100 22t-94.5 41.5t-82 67.5t-66 97t-42.5 133.5t-16 173.5zM264 1492q-3 33 14 63.5t51 52.5q39 23 75 23q34 0 68 -22q5 -3 9.5 -7t8 -7.5t8.5 -10t7.5 -10t8 -12t7.5 -11.5t8.5 -13t8.5 -13l74 -118q26 -42 35 -62.5 t12 -44.5q2 -33 -14.5 -63.5t-51.5 -52.5q-38 -23 -74 -23q-34 0 -68 22q-11 7 -24 22.5t-19.5 25.5t-22.5 35l-73 118q-27 44 -36.5 64t-11.5 44zM392 639h314q0 47 -18 83q-40 82 -140 82t-139 -82q-17 -39 -17 -83z" />
<glyph unicode="&#xe9;" horiz-adv-x="1093" d="M75 529q0 102 22.5 188.5t64 151t100 110t131 68t155.5 22.5q87 0 161.5 -23.5t130 -66t95.5 -100.5t62 -127t25 -144q4 -97 -43 -144q-13 -14 -29 -22.5t-35.5 -12t-32.5 -4.5t-35 -1h-455q0 -69 50.5 -118t139.5 -49q88 0 159 47q61 42 112 42q47 0 87.5 -40t40.5 -94 q0 -76 -100 -145q-114 -79 -303 -79q-54 0 -102 6t-100 22t-94.5 41.5t-82 67.5t-66 97t-42.5 133.5t-16 173.5zM392 639h314q0 47 -18 83q-40 82 -140 82t-139 -82q-17 -39 -17 -83zM454 1300q2 24 11 44.5t36 62.5l74 118q16 25 23 35.5t19.5 25.5t23.5 23q34 22 67 22 q37 0 75 -23q35 -22 52 -52.5t14 -63.5q-2 -25 -11.5 -45t-35.5 -63l-74 -118q-16 -25 -23 -35t-19.5 -25.5t-24.5 -22.5q-33 -22 -68 -22t-74 23q-34 22 -51 52.5t-14 63.5z" />
<glyph unicode="&#xea;" horiz-adv-x="1093" d="M75 529q0 102 22.5 188.5t64 151t100 110t131 68t155.5 22.5q87 0 161.5 -23.5t130 -66t95.5 -100.5t62 -127t25 -144q4 -97 -43 -144q-13 -14 -29 -22.5t-35.5 -12t-32.5 -4.5t-35 -1h-455q0 -69 50.5 -118t139.5 -49q88 0 159 47q61 42 112 42q47 0 87.5 -40t40.5 -94 q0 -76 -100 -145q-114 -79 -303 -79q-54 0 -102 6t-100 22t-94.5 41.5t-82 67.5t-66 97t-42.5 133.5t-16 173.5zM214.5 1250q-8.5 32 1.5 62q7 21 19.5 37t44.5 49l137 136q22 23 37.5 36t44 26t58.5 13t58.5 -13.5t43 -26t37.5 -35.5l136 -136q33 -33 45.5 -49t19.5 -37 q10 -30 1 -62t-35 -58.5t-58 -35.5t-62 2q-21 7 -37.5 19.5t-48.5 44.5l-100 100l-101 -100q-32 -32 -49 -44.5t-37 -19.5q-30 -11 -62 -2t-58.5 35.5t-35 58.5zM392 639h314q0 47 -18 83q-40 82 -140 82t-139 -82q-17 -39 -17 -83z" />
<glyph unicode="&#xeb;" horiz-adv-x="1093" d="M75 529q0 102 22.5 188.5t64 151t100 110t131 68t155.5 22.5q87 0 161.5 -23.5t130 -66t95.5 -100.5t62 -127t25 -144q4 -97 -43 -144q-13 -14 -29 -22.5t-35.5 -12t-32.5 -4.5t-35 -1h-455q0 -69 50.5 -118t139.5 -49q88 0 159 47q61 42 112 42q47 0 87.5 -40t40.5 -94 q0 -76 -100 -145q-114 -79 -303 -79q-54 0 -102 6t-100 22t-94.5 41.5t-82 67.5t-66 97t-42.5 133.5t-16 173.5zM169 1337q0 65 46.5 111t111 46t111 -46t46.5 -111q0 -42 -21.5 -78.5t-57.5 -57.5t-79 -21q-64 0 -110.5 46t-46.5 111zM392 639h314q0 47 -18 83 q-40 82 -140 82t-139 -82q-17 -39 -17 -83zM629 1337q0 65 46 111t111 46t111.5 -46t46.5 -111t-46.5 -111t-111.5 -46t-111 46t-46 111z" />
<glyph unicode="&#xec;" horiz-adv-x="565" d="M-9 1492q-3 33 13.5 63.5t51.5 52.5q38 23 75 23q34 0 68 -22q4 -3 7.5 -6t7.5 -7.5t7 -8t7.5 -9t7 -9t7 -10.5t7 -10.5t7.5 -11.5t7 -12l74 -118q27 -42 36 -62.5t11 -44.5q2 -22 -4.5 -43t-21.5 -40t-38 -33q-39 -23 -75 -23q-35 0 -68 22q-5 3 -9.5 7t-8 7.5t-8.5 10 t-7.5 10t-8 11.5t-7.5 11.5t-8.5 13t-8.5 12.5l-74 118q-26 43 -35.5 63t-11.5 45zM122 210v596q0 42 1 64t5 40t13 36q18 35 56 56.5t86 21.5t86 -21.5t55 -56.5q13 -26 16.5 -53t3.5 -87v-596q0 -59 -3.5 -86t-16.5 -53q-17 -35 -55 -57t-86 -22t-86 22t-56 57 q-12 26 -15.5 52.5t-3.5 86.5z" />
<glyph unicode="&#xed;" horiz-adv-x="565" d="M122 210v596q0 42 1 64t5 40t13 36q18 35 56 56.5t86 21.5t86 -21.5t55 -56.5q13 -26 16.5 -53t3.5 -87v-596q0 -59 -3.5 -86t-16.5 -53q-17 -35 -55 -57t-86 -22t-86 22t-56 57q-12 26 -15.5 52.5t-3.5 86.5zM180 1300q3 24 12 44t36 63l73 118q16 25 23 35.5t19.5 25.5 t24.5 23q34 22 68 22q35 0 74 -23q34 -22 51 -52.5t14 -63.5q-2 -25 -11 -45t-36 -63l-74 -118q-16 -25 -22.5 -35t-19.5 -25.5t-24 -22.5q-34 -22 -67 -22q-37 0 -75 23q-35 22 -51.5 52.5t-14.5 63.5z" />
<glyph unicode="&#xee;" horiz-adv-x="565" d="M-58.5 1250q-8.5 32 1.5 62q8 21 20 37.5t44 48.5l137 136q23 23 37.5 35.5t43 26t58.5 13.5t58.5 -13.5t43 -26t37.5 -35.5l138 -136q22 -22 33.5 -35.5t18 -24.5t11.5 -26q10 -30 1.5 -62t-35 -58.5t-58.5 -35.5t-62 2q-20 7 -37 19.5t-49 44.5l-100 100l-101 -100 q-32 -32 -48.5 -44.5t-37.5 -19.5q-30 -11 -62 -2t-58 35.5t-34.5 58.5zM122 210v596q0 42 1 64t5 40t13 36q18 35 56 56.5t86 21.5t86 -21.5t55 -56.5q13 -26 16.5 -53t3.5 -87v-596q0 -59 -3.5 -86t-16.5 -53q-17 -35 -55 -57t-86 -22t-86 22t-56 57q-12 26 -15.5 52.5 t-3.5 86.5z" />
<glyph unicode="&#xef;" horiz-adv-x="565" d="M-89 1337q0 65 46 111t111 46t111 -46t46 -111t-46 -111t-111 -46t-111 46t-46 111zM122 210v596q0 42 1 64t5 40t13 36q18 35 56 56.5t86 21.5t86 -21.5t55 -56.5q13 -26 16.5 -53t3.5 -87v-596q0 -59 -3.5 -86t-16.5 -53q-17 -35 -55 -57t-86 -22t-86 22t-56 57 q-12 26 -15.5 52.5t-3.5 86.5zM341 1337q0 65 46 111t111 46t111.5 -46t46.5 -111t-46.5 -111t-111.5 -46t-111 46t-46 111z" />
<glyph unicode="&#xf0;" horiz-adv-x="1080" d="M100 509q0 151 24 237t88 154q52 56 136 93q74 33 151 35l-39 79h-127q-65 0 -96 13q-27 13 -42 39t-15 60q0 23 7 42t19.5 33t30.5 23q31 14 96 14h68q17 43 58.5 70.5t88.5 27.5q43 0 79 -26q31 -24 57 -72h107q66 0 97 -14q56 -27 56 -98q0 -34 -14.5 -60t-41.5 -39 q-29 -13 -87 -13h-4l99 -198q85 -175 85 -400q0 -152 -24 -237t-88 -154q-120 -130 -328.5 -130t-328.5 130q-64 69 -88 154t-24 237zM422 508.5q0 -83.5 8 -130t34 -72.5q27 -27 76.5 -27t76.5 27q26 26 34 72.5t8 130.5q0 55 -2.5 88t-12 64.5t-27.5 49.5q-28 28 -76.5 28 t-76.5 -28q-26 -25 -34 -72t-8 -130.5z" />
<glyph unicode="&#xf1;" horiz-adv-x="1137" d="M122 210v638q0 60 3.5 86.5t15.5 52.5q18 35 56 57t86 22q60 0 95 -26.5t57 -67.5q47 47 114 72t134 25q146 0 237 -90q62 -62 84 -134t22 -168v-467q0 -60 -3.5 -86.5t-15.5 -52.5q-18 -35 -56 -57t-86 -22q-32 0 -60.5 10.5t-49 28t-31.5 40.5q-13 26 -16.5 53t-3.5 86 v423q0 43 -14 73.5t-35.5 45t-41.5 21t-39 6.5q-15 0 -30.5 -3.5t-33.5 -13.5t-32.5 -25.5t-24 -42.5t-9.5 -61v-423q0 -59 -3.5 -86t-16.5 -53q-17 -35 -55 -57t-86 -22t-86 22t-56 57q-12 26 -15.5 52.5t-3.5 86.5zM182 1334q0 55 65 109q42 34 86 47.5t105 13.5 q31 0 53.5 -3t48.5 -12t59 -27q31 -17 52.5 -24t50.5 -7q42 0 85 29q38 26 72 26q51 0 83 -39q24 -31 24 -76q0 -55 -65 -109q-42 -33 -86 -47t-105 -14q-46 0 -79.5 8.5t-81.5 33.5q-31 17 -52.5 24t-50.5 7q-42 0 -85 -29q-38 -26 -72 -26q-51 0 -83 40q-24 30 -24 75z " />
<glyph unicode="&#xf2;" horiz-adv-x="1080" d="M84 529q0 156 25.5 245t91.5 160q127 135 339 135q214 0 341 -135q34 -36 55.5 -74t35 -87t19 -107t5.5 -137q0 -80 -5.5 -138t-19 -106.5t-35 -86.5t-55.5 -74q-127 -136 -341 -136q-212 0 -339 136q-66 72 -91.5 160t-25.5 245zM249 1492q-3 33 13.5 63.5t51.5 52.5 q38 23 74 23q34 0 68 -22q11 -8 24 -23t19.5 -25.5t22.5 -35.5l74 -118q27 -42 36 -62.5t11 -44.5q2 -22 -4.5 -43t-22 -40t-38.5 -33q-38 -23 -75 -23q-33 0 -67 22q-11 7 -24 22.5t-20 25.5t-22 35l-74 118q-27 43 -36 63t-11 45zM407 529q0 -59 3 -96t13.5 -70.5 t30.5 -53.5q30 -30 86.5 -30t86.5 30q29 29 38 80t9 140q0 59 -3 96t-13.5 70.5t-30.5 53.5q-30 30 -86.5 30t-86.5 -30q-29 -29 -38 -80t-9 -140z" />
<glyph unicode="&#xf3;" horiz-adv-x="1080" d="M84 529q0 156 25.5 245t91.5 160q127 135 339 135q214 0 341 -135q34 -36 55.5 -74t35 -87t19 -107t5.5 -137q0 -80 -5.5 -138t-19 -106.5t-35 -86.5t-55.5 -74q-127 -136 -341 -136q-212 0 -339 136q-66 72 -91.5 160t-25.5 245zM407 529q0 -59 3 -96t13.5 -70.5 t30.5 -53.5q30 -30 86.5 -30t86.5 30q29 29 38 80t9 140q0 59 -3 96t-13.5 70.5t-30.5 53.5q-30 30 -86.5 30t-86.5 -30q-29 -29 -38 -80t-9 -140zM439 1300q1 17 6 31.5t13.5 30.5t27.5 45l74 118q1 3 7.5 13t8.5 13t7.5 11.5t8 12t7.5 10t8.5 10t8.5 7.5t9 7q34 22 68 22 q37 0 75 -23q35 -22 51 -52.5t13 -63.5q-2 -25 -11 -45t-36 -63l-74 -118q-1 -3 -7.5 -12.5t-8.5 -13t-7.5 -11.5t-8 -11.5t-7.5 -10t-8.5 -10t-8.5 -7.5t-9 -7q-34 -22 -68 -22q-37 0 -75 23q-34 22 -50.5 52.5t-13.5 63.5z" />
<glyph unicode="&#xf4;" horiz-adv-x="1080" d="M84 529q0 156 25.5 245t91.5 160q127 135 339 135q214 0 341 -135q34 -36 55.5 -74t35 -87t19 -107t5.5 -137q0 -80 -5.5 -138t-19 -106.5t-35 -86.5t-55.5 -74q-127 -136 -341 -136q-212 0 -339 136q-66 72 -91.5 160t-25.5 245zM199 1250q-9 32 2 62q7 21 19 37.5 t44 48.5l137 136q24 23 38.5 35.5t43 26t58 13.5t58.5 -13t44 -26t38 -36l136 -136q32 -33 44.5 -49t19.5 -37q11 -30 2 -62t-35.5 -58.5t-58 -35.5t-61.5 2q-15 5 -26.5 12t-25 18.5t-35.5 33.5l-101 100l-99 -100q-32 -32 -49 -44.5t-38 -19.5q-30 -11 -61.5 -2t-58 35.5 t-35.5 58.5zM407 529q0 -59 3 -96t13.5 -70.5t30.5 -53.5q30 -30 86.5 -30t86.5 30q29 29 38 80t9 140q0 59 -3 96t-13.5 70.5t-30.5 53.5q-30 30 -86.5 30t-86.5 -30q-29 -29 -38 -80t-9 -140z" />
<glyph unicode="&#xf5;" horiz-adv-x="1080" d="M84 529q0 156 25.5 245t91.5 160q127 135 339 135q214 0 341 -135q34 -36 55.5 -74t35 -87t19 -107t5.5 -137q0 -80 -5.5 -138t-19 -106.5t-35 -86.5t-55.5 -74q-127 -136 -341 -136q-212 0 -339 136q-66 72 -91.5 160t-25.5 245zM150 1334q0 56 63 109q29 23 58 36.5 t61 19t72 5.5q46 0 80 -8t81 -34q31 -17 53 -24t50 -7q42 0 86 29q38 26 72 26q50 0 82 -39q24 -31 24 -76q0 -55 -64 -109q-43 -34 -86.5 -47.5t-103.5 -13.5q-46 0 -80 8.5t-82 33.5q-30 17 -52 24t-51 7q-42 0 -86 -29q-38 -26 -72 -26q-50 0 -82 40q-23 29 -23 75z M407 529q0 -59 3 -96t13.5 -70.5t30.5 -53.5q30 -30 86.5 -30t86.5 30q29 29 38 80t9 140q0 59 -3 96t-13.5 70.5t-30.5 53.5q-30 30 -86.5 30t-86.5 -30q-29 -29 -38 -80t-9 -140z" />
<glyph unicode="&#xf6;" horiz-adv-x="1080" d="M84 529q0 156 25.5 245t91.5 160q127 135 339 135q214 0 341 -135q34 -36 55.5 -74t35 -87t19 -107t5.5 -137q0 -80 -5.5 -138t-19 -106.5t-35 -86.5t-55.5 -74q-127 -136 -341 -136q-212 0 -339 136q-66 72 -91.5 160t-25.5 245zM154 1337q0 65 46 111t111 46t111 -46 t46 -111q0 -42 -21 -78.5t-57.5 -57.5t-78.5 -21q-65 0 -111 46t-46 111zM407 529q0 -59 3 -96t13.5 -70.5t30.5 -53.5q30 -30 86.5 -30t86.5 30q29 29 38 80t9 140q0 59 -3 96t-13.5 70.5t-30.5 53.5q-30 30 -86.5 30t-86.5 -30q-29 -29 -38 -80t-9 -140zM613 1337 q0 65 46.5 111t111.5 46t111 -46t46 -111t-46 -111t-111 -46t-111.5 46t-46.5 111z" />
<glyph unicode="&#xf7;" d="M88 580q0 28 9.5 54t25.5 44.5t36 29.5q24 11 49 14.5t77 3.5h523q36 0 57 -1.5t37 -5.5t32 -11q32 -17 51.5 -51t19.5 -77t-19.5 -77.5t-51.5 -50.5q-23 -11 -47.5 -14t-78.5 -3h-523q-54 0 -78.5 3t-47.5 14q-8 5 -16.5 11t-15.5 13.5t-13 16.5t-10.5 19t-8 20.5 t-5.5 22.5t-2 25zM340 140q0 86 60.5 146.5t146 60.5t146 -60.5t60.5 -146.5q0 -56 -27.5 -103.5t-75.5 -75t-104 -27.5q-85 0 -145.5 60t-60.5 146zM340 1018q0 85 60.5 145.5t146 60.5t146 -60.5t60.5 -145.5q0 -42 -16.5 -80.5t-44 -66t-66 -44t-80.5 -16.5 q-56 0 -103.5 27.5t-75 75t-27.5 104.5z" />
<glyph unicode="&#xf8;" horiz-adv-x="1080" d="M84 529q0 156 25.5 245t91.5 160q127 135 339 135q96 0 180 -29l12 21q21 35 33 50t28 26q51 34 112 -3q59 -36 55 -99q-2 -34 -36 -89l-23 -36q54 -66 74.5 -151.5t20.5 -229.5q0 -80 -5.5 -138t-19 -106.5t-35 -86.5t-55.5 -74q-127 -136 -341 -136q-95 0 -178 29 l-12 -20q-20 -34 -33 -49.5t-29 -26.5q-51 -34 -112 3q-60 36 -55 99q1 19 9 37.5t28 51.5l22 36q-54 66 -75 150.5t-21 230.5zM407 529q0 -70 3 -100l197 335q-25 15 -67 15q-56 0 -86 -30q-29 -29 -38 -80t-9 -140zM474 293q24 -14 66 -14q57 0 87 30q29 29 38 80t9 140 q0 59 -4 99z" />
<glyph unicode="&#xf9;" horiz-adv-x="1137" d="M112 381v467q0 60 3.5 86.5t16.5 52.5q17 35 55.5 57t86.5 22t85.5 -22t55.5 -57q12 -26 16 -53t4 -86v-424q0 -43 13.5 -73.5t35.5 -45t41.5 -20.5t39 -6t39 6t41.5 20.5t35.5 45t13.5 73.5v424q0 60 3.5 86.5t15.5 52.5q18 35 56 57t86 22t86 -22t55 -57q13 -26 17 -53 t4 -86v-638q0 -59 -4 -86t-17 -53q-17 -35 -55 -57t-86 -22q-59 0 -94 26t-57 68q-48 -47 -115 -72.5t-133 -25.5q-148 0 -238 91q-63 62 -84.5 134t-21.5 168zM273 1492q-3 33 13 63.5t51 52.5q38 23 75 23q34 0 68 -22q4 -3 9 -7t8.5 -7.5t8 -10t7.5 -10t8.5 -12 t7.5 -11.5t8.5 -13t7.5 -13l74 -118q27 -42 36 -62.5t11 -44.5q2 -22 -4.5 -43t-21.5 -40t-38 -33q-38 -23 -75 -23q-34 0 -68 22q-5 3 -9.5 7t-8 7.5t-8.5 10t-7.5 10t-8 11.5t-7.5 11.5t-8.5 13t-7.5 12.5l-74 118q-27 43 -36 63t-11 45z" />
<glyph unicode="&#xfa;" horiz-adv-x="1137" d="M112 381v467q0 60 3.5 86.5t16.5 52.5q17 35 55.5 57t86.5 22t85.5 -22t55.5 -57q12 -26 16 -53t4 -86v-424q0 -43 13.5 -73.5t35.5 -45t41.5 -20.5t39 -6t39 6t41.5 20.5t35.5 45t13.5 73.5v424q0 60 3.5 86.5t15.5 52.5q18 35 56 57t86 22t86 -22t55 -57q13 -26 17 -53 t4 -86v-638q0 -59 -4 -86t-17 -53q-17 -35 -55 -57t-86 -22q-59 0 -94 26t-57 68q-48 -47 -115 -72.5t-133 -25.5q-148 0 -238 91q-63 62 -84.5 134t-21.5 168zM462 1300q2 24 11 44.5t36 62.5l74 118q16 25 22.5 35.5t19.5 25.5t24 23q34 22 67 22q37 0 75 -23 q35 -22 51.5 -52.5t13.5 -63.5q-2 -25 -11 -45t-36 -63l-74 -118q-16 -25 -22.5 -35t-19.5 -25.5t-24 -22.5q-34 -22 -67 -22q-37 0 -75 23q-35 22 -51.5 52.5t-13.5 63.5z" />
<glyph unicode="&#xfb;" horiz-adv-x="1137" d="M112 381v467q0 60 3.5 86.5t16.5 52.5q17 35 55.5 57t86.5 22t85.5 -22t55.5 -57q12 -26 16 -53t4 -86v-424q0 -43 13.5 -73.5t35.5 -45t41.5 -20.5t39 -6t39 6t41.5 20.5t35.5 45t13.5 73.5v424q0 60 3.5 86.5t15.5 52.5q18 35 56 57t86 22t86 -22t55 -57q13 -26 17 -53 t4 -86v-638q0 -59 -4 -86t-17 -53q-17 -35 -55 -57t-86 -22q-59 0 -94 26t-57 68q-48 -47 -115 -72.5t-133 -25.5q-148 0 -238 91q-63 62 -84.5 134t-21.5 168zM222 1250q-9 32 2 62q7 21 19.5 37t44.5 49l136 136q23 23 38 36t44 26t58.5 13t58 -13.5t43 -26t38.5 -35.5 l137 -136q32 -32 44 -48.5t19 -37.5q11 -30 2 -62t-35.5 -58.5t-58 -35.5t-61.5 2q-21 7 -38 19.5t-49 44.5l-100 100l-100 -100q-32 -32 -49 -44.5t-38 -19.5q-30 -11 -61.5 -2t-58 35.5t-35.5 58.5z" />
<glyph unicode="&#xfc;" horiz-adv-x="1137" d="M112 381v467q0 60 3.5 86.5t16.5 52.5q17 35 55.5 57t86.5 22t85.5 -22t55.5 -57q12 -26 16 -53t4 -86v-424q0 -43 13.5 -73.5t35.5 -45t41.5 -20.5t39 -6t39 6t41.5 20.5t35.5 45t13.5 73.5v424q0 60 3.5 86.5t15.5 52.5q18 35 56 57t86 22t86 -22t55 -57q13 -26 17 -53 t4 -86v-638q0 -59 -4 -86t-17 -53q-17 -35 -55 -57t-86 -22q-59 0 -94 26t-57 68q-48 -47 -115 -72.5t-133 -25.5q-148 0 -238 91q-63 62 -84.5 134t-21.5 168zM177 1337q0 65 46 111t111 46t111.5 -46t46.5 -111t-46.5 -111t-111.5 -46t-111 46t-46 111zM637 1337 q0 43 21 79t57 57t79 21q65 0 111 -46t46 -111t-46 -111t-111 -46t-111 46t-46 111z" />
<glyph unicode="&#xfd;" horiz-adv-x="929" d="M31.5 931q0.5 18 5.5 34q14 43 56.5 72t95.5 29q29 0 52.5 -10t38.5 -22.5t27.5 -36t19 -40.5t15.5 -45l123 -407l123 407q8 28 14.5 45t19.5 40t28 36.5t38.5 23t52.5 9.5q35 0 67 -13.5t54 -36.5t31 -51q5 -16 5.5 -34t-4 -39.5t-8.5 -35.5t-12 -39l-326 -947 q-29 -83 -82 -140q-86 -88 -230 -88q-108 0 -148 39q-43 43 -43 107q0 76 47 114q22 18 42 23.5t57 5.5q65 0 92 81l22 67l-249 738q-8 23 -12.5 38.5t-8.5 36.5t-3.5 39zM363 1300q2 24 11 44.5t36 62.5l74 118q2 4 7 12t7.5 11.5t7 10.5t7 10.5t6.5 9t7.5 9t7.5 8t7.5 7.5 t7.5 6q34 22 68 22q37 0 75 -23q35 -22 51 -52.5t13 -63.5q-2 -25 -11 -45t-36 -63l-73 -118q-15 -25 -22 -35t-20 -25.5t-24 -22.5q-34 -22 -68 -22q-36 0 -75 23q-34 22 -50.5 52.5t-13.5 63.5z" />
<glyph unicode="&#xfe;" horiz-adv-x="1118" d="M122 -132v1321q0 26 0.5 41.5t1.5 30.5t3 25.5t5.5 21t8.5 21.5q18 35 56 56.5t86 21.5t86 -21.5t55 -56.5q13 -26 16.5 -53t3.5 -87v-208q89 88 237 88q51 0 97 -10.5t86 -32t70 -53.5q28 -29 47.5 -69t30 -77t15.5 -94t6 -96t1 -108t-1 -108t-6 -96t-15.5 -94t-30 -77 t-47.5 -70q-45 -46 -110.5 -71t-142.5 -25q-148 0 -237 89v-209q0 -59 -3.5 -86.5t-16.5 -53.5q-17 -35 -55 -56.5t-86 -21.5t-86 21.5t-56 56.5q-12 26 -15.5 53t-3.5 87zM444 528.5q0 -51.5 2.5 -85.5t10.5 -67.5t22 -53t39 -31.5t60 -12t59.5 12t39 31.5t22.5 53t10 67.5 t2 86q0 43 -1.5 72.5t-6 60t-14 50t-24 36t-36.5 24t-51 7.5q-35 0 -60 -12t-39 -31.5t-22 -53t-10.5 -68t-2.5 -86z" />
<glyph unicode="&#xff;" horiz-adv-x="929" d="M31.5 931q0.5 18 5.5 34q14 43 56.5 72t95.5 29q29 0 52.5 -10t38.5 -22.5t27.5 -36t19 -40.5t15.5 -45l123 -407l123 407q8 28 14.5 45t19.5 40t28 36.5t38.5 23t52.5 9.5q35 0 67 -13.5t54 -36.5t31 -51q5 -16 5.5 -34t-4 -39.5t-8.5 -35.5t-12 -39l-326 -947 q-29 -83 -82 -140q-86 -88 -230 -88q-108 0 -148 39q-43 43 -43 107q0 76 47 114q22 18 42 23.5t57 5.5q65 0 92 81l22 67l-249 738q-8 23 -12.5 38.5t-8.5 36.5t-3.5 39zM78 1337q0 65 46 111t111 46t111.5 -46t46.5 -111q0 -42 -21.5 -78.5t-57.5 -57.5t-79 -21 q-65 0 -111 46t-46 111zM538 1337q0 65 46 111t111 46t111 -46t46 -111t-46 -111t-111 -46t-111 46t-46 111z" />
<glyph unicode="&#x131;" horiz-adv-x="565" d="M122 210v596q0 42 1 64t5 40t13 36q18 35 56 56.5t86 21.5t86 -21.5t55 -56.5q13 -26 16.5 -53t3.5 -87v-596q0 -59 -3.5 -86t-16.5 -53q-17 -35 -55 -57t-86 -22t-86 22t-56 57q-12 26 -15.5 52.5t-3.5 86.5z" />
<glyph unicode="&#x152;" horiz-adv-x="1868" d="M94 700q0 63 0.5 99t3.5 89t8.5 87t16 77.5t25.5 75.5t38 66.5t53 64.5q77 76 171 114t219 38q137 0 236 -60q17 17 37.5 27.5t44.5 15t40 5.5t41 1h545q57 0 82.5 -3.5t50.5 -15.5q33 -16 53.5 -53t20.5 -82t-20.5 -81.5t-53.5 -52.5q-25 -12 -50.5 -15.5t-82.5 -3.5 h-410v-234h322q56 0 81.5 -3t50.5 -15q33 -16 54 -53.5t21 -81.5q0 -30 -10 -57t-27 -47t-38 -31q-26 -12 -51.5 -15.5t-80.5 -3.5h-322v-246h410q57 0 82.5 -3t50.5 -15q33 -16 53.5 -53t20.5 -81.5t-20.5 -82t-53.5 -53.5q-25 -11 -50.5 -14.5t-82.5 -3.5h-545 q-35 0 -56 1.5t-53 13t-54 33.5q-98 -60 -236 -60q-125 0 -219 38t-171 115q-23 23 -42 49t-33.5 51t-25.5 56t-18 57t-12 63t-8 64t-4 70t-1.5 71.5t-0.5 77.5zM441 699.5q0 -122.5 6.5 -193.5t16 -97.5t28.5 -50.5q21 -27 56.5 -45t80.5 -18q30 0 57.5 9t47 22.5 t33.5 31.5q18 24 27.5 50.5t16.5 97.5t7 193.5t-7 194t-16.5 99t-27.5 51.5q-21 26 -57 43.5t-81 17.5t-81 -17t-56 -44q-19 -24 -28.5 -51.5t-16 -99t-6.5 -194z" />
<glyph unicode="&#x153;" horiz-adv-x="1693" d="M84 529q0 156 25.5 245t91.5 160q127 135 339 135q184 0 308 -103q122 103 300 103q72 0 136.5 -16.5t115 -47t91.5 -72.5t69 -93.5t44 -110t18 -121.5q4 -97 -43 -144q-19 -19 -46 -28.5t-44 -10.5t-50 -1h-448q0 -69 51 -118t140 -49q88 0 159 47q35 24 59.5 33t51.5 9 q47 0 88 -40t41 -94q0 -75 -101 -145q-114 -79 -302 -79q-218 0 -339 98q-121 -98 -299 -98q-212 0 -339 136q-66 72 -91.5 160t-25.5 245zM407 529q0 -59 3 -96t13.5 -70.5t30.5 -53.5q30 -30 86.5 -30t86.5 30q29 29 38 80t9 140q0 59 -3 96t-13.5 70.5t-30.5 53.5 q-30 30 -86.5 30t-86.5 -30q-29 -29 -38 -80t-9 -140zM991 639h315q0 45 -19 83q-40 82 -139 82q-100 0 -139 -82q-18 -41 -18 -83z" />
<glyph unicode="&#x178;" horiz-adv-x="1094" d="M37 1255q0 39 24 75t68 58q38 19 80 19q45 0 82 -26q16 -11 27.5 -26t21.5 -33t30 -57l177 -361l179 361l22.5 45t17 30t18.5 23.5t20 17.5q37 26 82 26q42 0 81 -19q43 -22 67 -58t24 -75q0 -29 -9 -54t-36 -80l-292 -583v-314q0 -64 -3.5 -91t-18.5 -56 q-19 -38 -60 -61.5t-91.5 -23.5t-91 23.5t-60.5 61.5q-14 29 -18 56t-4 91v314l-291 583q-28 55 -37 80t-9 54zM157 1678q0 65 46.5 111.5t111.5 46.5t111 -46.5t46 -111.5t-46 -111t-111 -46t-111.5 46t-46.5 111zM617 1678q0 43 21.5 79t57.5 57.5t79 21.5q65 0 111 -46.5 t46 -111.5t-46 -111t-111 -46t-111.5 46t-46.5 111z" />
<glyph unicode="&#x192;" horiz-adv-x="963" d="M84 670q0 37 16.5 66t45.5 43q20 9 40.5 12t65.5 3h52l64 315q16 82 48.5 143t77.5 98t98 55t115 18h5q85 0 131 -22q66 -33 66 -115q0 -83 -64 -115q-34 -17 -75 -18h-2q-47 -3 -69 -19t-29 -49l-58 -291h46q44 0 65 -3t41 -12q29 -14 45 -42.5t16 -66t-16 -66 t-45 -41.5q-21 -10 -42 -13.5t-64 -3.5h-95l-144 -723q-7 -32 -10 -45t-9.5 -33.5t-16 -34t-23.5 -27.5q-37 -33 -95 -33q-64 0 -112 45q-20 18 -30 40t-10 50t2.5 46.5t8.5 50.5l131 664h-3q-44 0 -64.5 3.5t-41.5 13.5q-29 13 -45.5 41.5t-16.5 65.5z" />
<glyph unicode="&#x2c6;" horiz-adv-x="983" d="M150 1250q-9 32 2 62q7 21 19 37.5t44 48.5l137 136q24 23 38.5 35.5t43 26t58 13.5t58 -13.5t43 -26t38.5 -35.5l137 -136q32 -32 44 -48.5t19 -37.5q11 -30 2 -62t-35 -59q-55 -55 -119 -33q-21 7 -38.5 20t-49.5 44l-99 100l-100 -100q-32 -31 -49.5 -44t-38.5 -20 q-64 -22 -119 33q-26 27 -35 59z" />
<glyph unicode="&#x2c7;" horiz-adv-x="983" d="M150 1503.5q9 32.5 35 58.5q55 55 119 34q21 -8 38.5 -20.5t49.5 -44.5l100 -100l99 100q32 32 49.5 44.5t38.5 20.5q64 21 119 -34q26 -26 35 -58.5t-2 -62.5q-7 -21 -19 -37.5t-44 -47.5l-137 -137q-24 -23 -38.5 -35.5t-43 -26t-58 -13.5t-58 13.5t-43 26t-38.5 35.5 l-137 137q-22 21 -33.5 34.5t-18 25t-11.5 25.5q-11 30 -2 62.5z" />
<glyph unicode="&#x2d8;" horiz-adv-x="983" d="M160 1390q0 42 30 77q37 42 84 42q29 0 69 -27q72 -54 148.5 -54t148.5 54q40 27 69 27q47 0 84 -42q30 -35 30 -77q0 -59 -68 -115q-60 -51 -119 -70.5t-144.5 -19.5t-144.5 19.5t-119 70.5q-68 56 -68 115z" />
<glyph unicode="&#x2d9;" horiz-adv-x="983" d="M325 1341q0 65 46.5 111.5t111.5 46.5t111 -46.5t46 -111.5t-46 -111t-111 -46t-111.5 46t-46.5 111z" />
<glyph unicode="&#x2da;" horiz-adv-x="983" d="M238 1437q0 113 79.5 192.5t191.5 79.5t191.5 -80t79.5 -192t-79.5 -192t-191.5 -80q-74 0 -136.5 36.5t-98.5 99t-36 136.5zM407 1437q0 -42 30 -72t72 -30t72.5 30t30.5 72q0 27 -14 51t-38 38t-51 14q-42 0 -72 -30.5t-30 -72.5z" />
<glyph unicode="&#x2db;" horiz-adv-x="1080" d="M269 -407q2 25 11 45.5t36 62.5l74 119q2 2 8 12t8 13t7.5 11.5t8.5 12t7.5 10t8.5 10t8.5 7.5t8.5 7q32 21 68 21q38 0 75 -22q35 -22 51 -52.5t13 -63.5q-1 -17 -5.5 -31.5t-13.5 -31.5t-28 -46l-74 -118q-1 -2 -7.5 -12t-8.5 -13t-7.5 -11.5t-8 -12t-7.5 -10t-8.5 -10 t-8 -7.5t-9.5 -7q-32 -21 -68 -21q-38 0 -75 22q-34 22 -50.5 52.5t-13.5 63.5z" />
<glyph unicode="&#x2dc;" horiz-adv-x="983" d="M150 1334q0 56 63 109q29 23 58 36.5t61 19t72 5.5q46 0 80 -8t81 -34q31 -17 53 -24t50 -7q42 0 86 29q38 26 72 26q50 0 82 -39q24 -31 24 -76q0 -55 -64 -109q-43 -34 -86.5 -47.5t-103.5 -13.5q-46 0 -80 8.5t-82 33.5q-30 17 -52 24t-51 7q-42 0 -86 -29 q-38 -26 -72 -26q-50 0 -82 40q-23 29 -23 75z" />
<glyph unicode="&#x2dd;" horiz-adv-x="983" d="M97 1300q1 17 6.5 31.5t14 30t27.5 45.5l73 118q16 25 22.5 35.5t19.5 25.5t24 23q34 22 68 22q36 0 74 -23q35 -22 51.5 -52.5t14.5 -63.5q-3 -25 -12 -45t-36 -63l-73 -118q-13 -19 -17.5 -26t-14.5 -21t-18 -22t-17 -14q-34 -22 -67 -22q-36 0 -75 23q-34 22 -51 52.5 t-14 63.5zM547 1300q2 24 11.5 44t36.5 63l73 118q16 25 23 35.5t19.5 25.5t23.5 23q34 22 69 22t73 -23q35 -22 52 -52.5t14 -63.5q-2 -25 -11 -45t-36 -63l-74 -118q-16 -25 -23 -35t-19.5 -25.5t-23.5 -22.5q-34 -22 -68 -22q-36 0 -75 23q-34 22 -51 52.5t-14 63.5z" />
<glyph unicode="&#x3a9;" horiz-adv-x="1407" d="M47 153.5q0 44.5 21 81.5t54 53q25 12 50 15t81 3h6q-34 44 -51 95q-39 117 -39 299q0 54 0.5 86.5t2 79.5t5.5 77.5t11 70t17.5 68.5t25.5 61.5t36 60.5t47 55q77 76 170.5 114t219 38t220 -38t170.5 -114q30 -30 53 -64.5t38 -66.5t25.5 -76t16 -77t8 -87t3 -89 t0.5 -99q0 -182 -39 -299q-16 -51 -51 -95h6q56 0 81.5 -3t49.5 -15q33 -16 54 -53t21 -81.5t-21 -82t-54 -53.5q-24 -12 -49.5 -15t-81.5 -3h-271q-26 0 -42 1.5t-38 9t-37 23.5q-37 37 -37 111q0 39 15.5 65.5t46.5 50.5q17 13 23.5 18.5t17 16.5t16.5 22.5t12 29.5 q33 89 33 352q0 122 -7 193.5t-16.5 99t-27.5 51.5q-21 26 -57 43.5t-81 17.5t-81 -17t-57 -44q-13 -18 -21 -36.5t-15.5 -55t-10.5 -98t-3 -154.5q0 -266 31 -352q8 -23 19 -39t19.5 -23.5t30.5 -24.5q31 -24 47.5 -51t16.5 -65q0 -74 -38 -111q-22 -22 -49.5 -28t-67.5 -6 h-272q-38 0 -58.5 1t-38 5t-34.5 12q-33 16 -54 53.5t-21 82z" />
<glyph unicode="&#x3c0;" horiz-adv-x="1163" d="M122 210v651q0 33 1.5 52t12 49t31.5 51t51 31.5t49 12t52 1.5h527q24 0 38 -1t36.5 -4.5t41 -13.5t34.5 -26q21 -21 32 -51t12.5 -49t1.5 -52v-651q0 -60 -3.5 -86.5t-16.5 -52.5q-17 -35 -55 -57t-86 -22t-86 22t-56 57q-12 26 -15.5 52.5t-3.5 86.5v557h-276v-557 q0 -59 -3.5 -86t-16.5 -53q-17 -35 -55 -57t-86 -22t-86 22t-56 57q-12 26 -15.5 52.5t-3.5 86.5z" />
<glyph unicode="&#x400;" horiz-adv-x="1191" d="M139 211v977q0 35 2 56.5t13.5 53t33.5 54t54 34t53 13t56 1.5h546q38 0 58.5 -1.5t38 -5t34.5 -12.5q33 -16 54 -53t21 -82q0 -22 -5.5 -43.5t-15.5 -38.5t-24 -30.5t-30 -21.5q-25 -12 -50 -15.5t-81 -3.5h-411v-234h322q39 0 59.5 -1t38 -5t34.5 -12q33 -16 54 -53.5 t21 -82t-21 -81.5t-54 -53q-26 -12 -51.5 -15.5t-80.5 -3.5h-322v-246h411q56 0 81 -3t50 -15q33 -16 54 -53t21 -81.5t-21 -82t-54 -53.5q-25 -12 -50 -15t-81 -3h-546q-26 0 -41.5 1t-39.5 5t-44.5 14.5t-37.5 27.5q-22 22 -33.5 54t-13.5 53.5t-2 55.5zM327 1833 q-3 33 14 63.5t52 52.5q36 22 74 22q35 0 68 -21q11 -8 23.5 -23t19.5 -25.5t23 -35.5l73 -118q27 -43 36.5 -63.5t11.5 -44.5q3 -33 -14 -64t-51 -52q-37 -23 -75 -23q-35 0 -67 22q-12 7 -24.5 22.5t-19.5 25.5t-23 35l-74 118q-26 42 -35.5 63t-11.5 46z" />
<glyph unicode="&#x401;" horiz-adv-x="1191" d="M139 211v977q0 35 2 56.5t13.5 53t33.5 54t54 34t53 13t56 1.5h546q38 0 58.5 -1.5t38 -5t34.5 -12.5q33 -16 54 -53t21 -82q0 -22 -5.5 -43.5t-15.5 -38.5t-24 -30.5t-30 -21.5q-25 -12 -50 -15.5t-81 -3.5h-411v-234h322q39 0 59.5 -1t38 -5t34.5 -12q33 -16 54 -53.5 t21 -82t-21 -81.5t-54 -53q-26 -12 -51.5 -15.5t-80.5 -3.5h-322v-246h411q56 0 81 -3t50 -15q33 -16 54 -53t21 -81.5t-21 -82t-54 -53.5q-25 -12 -50 -15t-81 -3h-546q-26 0 -41.5 1t-39.5 5t-44.5 14.5t-37.5 27.5q-22 22 -33.5 54t-13.5 53.5t-2 55.5zM232 1678 q0 65 46.5 111.5t111 46.5t110.5 -46.5t46 -111.5t-46 -111t-110.5 -46t-111 46t-46.5 111zM692 1678q0 43 21.5 79t57.5 57.5t79 21.5q64 0 110.5 -46.5t46.5 -111.5t-46.5 -111t-111 -46t-111 46t-46.5 111z" />
<glyph unicode="&#x402;" horiz-adv-x="1430" d="M47 1246q0 45 21 82t54 53q25 12 50 15.5t81 3.5h636q39 0 59 -1.5t37.5 -5t34.5 -12.5q33 -16 54 -53t21 -82t-21 -81.5t-54 -52.5q-24 -12 -49.5 -15.5t-81.5 -3.5h-205v-196h220q211 0 340 -121.5t129 -325.5q0 -132 -54.5 -236t-152.5 -162t-224 -60h-6q-38 0 -78 19 q-83 38 -83 140q0 90 60 128q17 12 57 16l7 1q57 8 93 50t36 102q0 46 -19.5 81t-53 53t-77.5 18h-194v-376q0 -64 -3.5 -91t-18.5 -56q-12 -25 -34.5 -44t-52.5 -30t-64 -11q-51 0 -91.5 23.5t-59.5 61.5q-15 29 -18.5 56t-3.5 91v869h-85q-56 0 -81 3.5t-50 15.5 q-33 16 -54 52.5t-21 81.5z" />
<glyph unicode="&#x403;" horiz-adv-x="1098" d="M139 224v964q0 35 2 56.5t13.5 53t33.5 54t54 34t53 13t56 1.5h495q23 0 37.5 -0.5t29 -1.5t24.5 -3t20 -5.5t20 -8.5q33 -16 54 -53t21 -82t-21 -81.5t-54 -52.5q-25 -12 -50 -15.5t-81 -3.5h-360v-869q0 -64 -3.5 -91t-18.5 -56q-20 -38 -60 -61.5t-91 -23.5t-92 23.5 t-60 61.5q-15 29 -18.5 56t-3.5 91zM424 1640q2 24 11.5 44.5t36.5 63.5l73 118q13 20 17.5 27t14.5 21t18 22t17 14q32 21 68 21q37 0 74 -22q34 -22 51 -52.5t14 -63.5q-2 -25 -11.5 -46t-35.5 -63l-74 -118q-16 -25 -23 -35t-19.5 -25.5t-23.5 -22.5q-33 -22 -68 -22 q-38 0 -74 23q-35 21 -52 52t-14 64z" />
<glyph unicode="&#x404;" horiz-adv-x="1188" d="M94 700q0 63 0.5 99t3.5 89t8.5 87t16 77.5t25.5 75.5t38 66.5t53 64.5q51 50 107.5 83.5t126 51t152.5 17.5q129 0 209 -23.5t144 -81.5q50 -45 81.5 -96.5t41.5 -90t10 -73.5q0 -83 -48 -131t-119 -48q-53 0 -92 27q-18 12 -34.5 30.5t-28.5 36.5t-29 48q-12 21 -24 37 t-25 27t-28 18t-31 10.5t-35 3.5q-76 0 -124 -61q-15 -21 -24.5 -42.5t-16 -56t-8.5 -86.5h160q56 0 81 -3t50 -15q33 -16 54 -53.5t21 -82t-21 -81.5t-54 -53q-25 -12 -51 -15.5t-80 -3.5h-161q2 -43 5.5 -73t10 -53t14.5 -38.5t20 -31.5q48 -61 124 -61q32 0 56.5 9.5 t46 31t40.5 56.5q26 44 46 70t46 44q39 27 92 27q71 0 119 -48t48 -131q0 -56 -30.5 -126t-102.5 -134q-64 -58 -144 -82t-209 -24q-123 0 -216 38t-170 115q-23 23 -42 49t-33.5 51t-25.5 56t-18 57t-12 63t-8 64t-4 70t-1.5 71.5t-0.5 77.5z" />
<glyph unicode="&#x405;" horiz-adv-x="1168" d="M42 236q0 29 12.5 59.5t34.5 52.5q38 37 94 37q26 0 51 -8.5t84 -32.5q118 -51 229 -51q100 0 150.5 33t50.5 94q0 52 -27 83q-29 29 -93 37l-169 24q-186 26 -281 124q-96 99 -96 282q0 95 35 176t100 140t161.5 92t213.5 33q167 0 302 -53q66 -26 104.5 -70t38.5 -99 q0 -57 -41 -106q-39 -47 -100 -47q-40 0 -122 33q-91 40 -191 40q-83 0 -126 -37t-43 -81q0 -47 28 -75q32 -33 96 -41l169 -23q184 -26 275 -117q105 -102 105 -307q0 -104 -43 -188.5t-117.5 -138.5t-172 -83.5t-209.5 -29.5q-202 0 -320 48q-92 36 -137.5 82t-45.5 118z " />
<glyph unicode="&#x406;" horiz-adv-x="624" d="M139 224v952q0 64 3.5 91t18.5 56q19 37 60 60.5t92 23.5q34 0 64 -11t52 -29.5t35 -43.5q15 -29 18.5 -56t3.5 -91v-952q0 -64 -3.5 -91t-18.5 -56q-20 -38 -60 -61.5t-91 -23.5t-92 23.5t-60 61.5q-15 29 -18.5 56t-3.5 91z" />
<glyph unicode="&#x407;" horiz-adv-x="624" d="M-60 1678q0 65 46 111.5t111 46.5t111 -46.5t46 -111.5t-46 -111t-111 -46t-111 46t-46 111zM139 224v952q0 64 3.5 91t18.5 56q19 37 60 60.5t92 23.5q34 0 64 -11t52 -29.5t35 -43.5q15 -29 18.5 -56t3.5 -91v-952q0 -64 -3.5 -91t-18.5 -56q-20 -38 -60 -61.5 t-91 -23.5t-92 23.5t-60 61.5q-15 29 -18.5 56t-3.5 91zM371 1678q0 32 12.5 61t33.5 50t50 34t61 13q65 0 111 -46.5t46 -111.5t-46 -111t-111 -46t-111 46t-46 111z" />
<glyph unicode="&#x408;" horiz-adv-x="1039" d="M47 199q0 30 13.5 60.5t35.5 49.5q38 33 91 33q12 0 22 -1t22 -4.5t18 -5.5t22.5 -8t23.5 -8q49 -18 101 -18q83 0 132.5 47t49.5 144v688q0 64 3.5 91t18.5 56q19 38 59.5 61t91 23t91.5 -23.5t60 -60.5q15 -29 18.5 -56t3.5 -91v-696q0 -97 -29.5 -178.5t-80.5 -138.5 t-119 -97t-143.5 -59t-155.5 -19q-171 0 -274 76q-41 31 -58 62.5t-17 72.5z" />
<glyph unicode="&#x409;" horiz-adv-x="2054" d="M47 155q0 69 43 112q22 22 48 31t66 10q26 1 47.5 8.5t38.5 21.5t30.5 30t23 40.5t17 46t11.5 53.5t7 57t4 62t1.5 62t0.5 64v435q0 35 2 56.5t13.5 53t33.5 54.5q17 17 37 27.5t44.5 14.5t40 5t41.5 1h499q36 0 56.5 -1.5t52.5 -13t54.5 -34t33.5 -54.5t13 -52.5 t2 -56.5v-288h210q113 0 205.5 -37.5t151 -101t90 -143.5t31.5 -168q0 -58 -14 -113.5t-40.5 -105.5t-68 -92.5t-93.5 -73t-119 -48t-143 -17.5h-345q-26 0 -41.5 1t-40 5t-44.5 14.5t-37 27.5q-22 22 -33.5 54t-13.5 53.5t-2 55.5v882h-243v-365q0 -175 -18 -301 t-52 -208.5t-90.5 -131t-125.5 -68t-164 -19.5q-66 0 -93.5 3t-52.5 15q-33 16 -54 54t-21 83zM1308 309h194q68 0 108.5 42t40.5 99.5t-40.5 99t-108.5 41.5h-194v-282z" />
<glyph unicode="&#x40a;" horiz-adv-x="1944" d="M139 224v952q0 64 3.5 91t18.5 56q19 37 60 60.5t92 23.5q34 0 64 -11t52 -29.5t35 -43.5q15 -29 18.5 -56t3.5 -91v-276h366v276q0 47 0.5 66t5 40t15.5 41q19 37 60 60.5t91.5 23.5t91.5 -23.5t60 -60.5q15 -29 18 -55t3 -92v-276h210q113 0 205.5 -37.5t151 -101 t90 -143.5t31.5 -168q0 -58 -14 -113.5t-40.5 -105.5t-67.5 -92.5t-93 -73t-119.5 -48t-143.5 -17.5h-344q-36 0 -56.5 1.5t-52.5 13t-54.5 33.5t-33.5 54t-12.5 53t-1.5 56v382h-366v-369q0 -64 -3.5 -91t-18.5 -56q-20 -38 -60 -61.5t-91 -23.5t-92 23.5t-60 61.5 q-15 29 -18.5 56t-3.5 91zM1197 306h195q68 0 109 43t41 101.5t-41 100.5t-109 42h-195v-287z" />
<glyph unicode="&#x40b;" horiz-adv-x="1469" d="M47 1246q0 45 21 82t54 53q25 12 50 15.5t81 3.5h637q23 0 38 -0.5t29 -1.5t24 -3t20 -5.5t20 -8.5q22 -10 39 -30.5t26.5 -47.5t9.5 -57q0 -45 -21 -81.5t-54 -52.5q-24 -12 -49.5 -15.5t-81.5 -3.5h-206v-196h222q139 0 245.5 -55t165 -155t58.5 -229v-234 q0 -64 -3.5 -91t-18.5 -56q-20 -38 -60.5 -61.5t-91.5 -23.5t-91.5 23.5t-59.5 61.5q-15 29 -18.5 56t-3.5 91v234q0 40 -19 72.5t-53.5 51t-77.5 18.5h-194v-376q0 -64 -3.5 -91t-18.5 -56q-12 -25 -34.5 -44t-52.5 -30t-64 -11q-51 0 -91.5 23.5t-59.5 61.5 q-15 29 -18.5 56t-3.5 91v869h-85q-56 0 -81 3.5t-50 15.5q-33 16 -54 52.5t-21 81.5z" />
<glyph unicode="&#x40c;" horiz-adv-x="1272" d="M139 224v952q0 64 3.5 91t18.5 56q19 37 60 60.5t92 23.5q34 0 64 -11t52 -29.5t35 -43.5q15 -29 18.5 -56t3.5 -91v-297h30l353 424q48 58 80.5 81t79.5 23q57 0 105 -40q59 -50 59 -116q0 -39 -16 -71t-61 -84l-325 -366l356 -427q45 -54 61 -84.5t16 -68.5 q0 -66 -60 -117q-48 -41 -104 -41q-47 0 -80 23.5t-80 81.5l-384 459h-30v-332q0 -64 -3.5 -91t-18.5 -56q-20 -38 -60 -61.5t-91 -23.5t-92 23.5t-60 61.5q-15 29 -18.5 56t-3.5 91zM543 1640q2 24 11.5 45t35.5 63l74 118q13 20 17.5 27t14.5 21t18 22t17 14q32 21 67 21 q38 0 75 -22q34 -22 51 -52.5t14 -63.5q-2 -25 -11.5 -46t-35.5 -63l-74 -118q-16 -25 -23 -35t-19.5 -25.5t-23.5 -22.5q-33 -22 -67 -22q-39 0 -75 23q-23 14 -38.5 33t-22.5 40t-5 43z" />
<glyph unicode="&#x40d;" horiz-adv-x="1375" d="M139 205v971q0 64 3.5 91t18.5 56q19 37 60 60.5t92 23.5q34 0 64 -11t52 -29.5t35 -43.5q15 -29 18.5 -56t3.5 -91v-519l376 593q56 88 100.5 122.5t105.5 34.5q73 0 122 -49q28 -27 37 -66t9 -98v-970q0 -66 -3 -92t-18 -55q-19 -38 -60 -61.5t-91.5 -23.5t-91.5 23.5 t-60 61.5q-15 29 -18 55t-3 92v519l-376 -592q-56 -88 -101 -123.5t-106 -35.5q-73 0 -122 49q-19 20 -30 47t-14 53.5t-3 63.5zM396 1833q-2 33 14 63.5t51 52.5q37 22 75 22q35 0 68 -21q4 -3 8.5 -7t8 -8t8.5 -10t8 -9.5t8.5 -12t7.5 -11.5t8 -13t8 -13l74 -118 q27 -42 36 -63t11 -45q3 -34 -13.5 -64.5t-50.5 -51.5q-37 -23 -75 -23q-36 0 -68 22q-5 3 -9.5 7t-8 7.5t-8.5 10t-7.5 10t-8 11.5t-7.5 11.5t-8.5 13t-8.5 12.5l-73 118q-27 42 -36 63t-12 46z" />
<glyph unicode="&#x40e;" horiz-adv-x="1071" d="M38 1253q-3 30 8 55t35 48q51 51 123 51q60 0 97 -34q22 -19 34.5 -43t34.5 -82l166 -451l166 451q22 58 34.5 82t33.5 43q37 34 97 34q73 0 124 -51q24 -23 34.5 -48t7.5 -55t-9.5 -53.5t-21.5 -62.5l-317 -850q-50 -133 -141 -210t-224 -77h-28q-56 0 -81.5 3t-50.5 15 q-33 16 -54 53.5t-21 82t21 81.5t54 53q24 11 48.5 14.5t72.5 3.5q59 0 85 48l-297 783q-15 39 -21.5 62.5t-9.5 53.5zM204 1683q0 42 30 77q37 42 84 42q29 0 69 -27q72 -54 148.5 -54t148.5 54q40 27 70 27q46 0 83 -42q30 -35 30 -77q0 -60 -67 -115q-41 -34 -80.5 -54 t-83 -28.5t-101 -8.5t-100.5 8.5t-82.5 28t-79.5 54.5q-69 56 -69 115z" />
<glyph unicode="&#x40f;" horiz-adv-x="1336" d="M139 211v965q0 64 3.5 91t18.5 56q19 37 60 60.5t92 23.5q34 0 64 -11t52 -29.5t35 -43.5q15 -29 18.5 -56t3.5 -91v-870h366v870q0 47 0.5 66t5 40t15.5 41q19 37 60 60.5t91.5 23.5t91.5 -23.5t60 -60.5q15 -29 18 -55t3 -92v-965q0 -35 -1.5 -56t-13 -53t-33.5 -54 t-54 -33.5t-53 -13t-56 -1.5h-157v-73q0 -61 -3 -87.5t-16 -51.5q-11 -23 -32 -41t-49.5 -28t-60.5 -10t-60 10t-48.5 28t-32.5 41q-7 13 -10.5 25.5t-6 29t-3 35t-0.5 49.5v73h-156q-26 0 -41.5 1t-39.5 5t-44.5 14.5t-37.5 27.5q-22 22 -33.5 54t-13.5 53.5t-2 55.5z" />
<glyph unicode="&#x410;" horiz-adv-x="1272" d="M38 147q3 30 9.5 53t21.5 63l374 993q18 47 33.5 71t38.5 42q47 38 121.5 38t121.5 -38q22 -18 37.5 -42t33.5 -71l374 -993q15 -40 21.5 -63t9.5 -53t-8 -55t-35 -49q-51 -51 -123 -51q-59 0 -97 36q-22 19 -35 43.5t-34 80.5l-20 56h-491l-21 -56q-21 -56 -34 -80.5 t-35 -43.5q-38 -36 -97 -36q-72 0 -123 51q-24 24 -35 49t-8 55zM494 495h284l-142 390z" />
<glyph unicode="&#x411;" horiz-adv-x="1246" d="M139 211v977q0 35 2 56.5t13.5 53t33.5 54t54 34t53 13t56 1.5h548q38 0 58.5 -1.5t38 -5t34.5 -12.5q33 -16 54 -53t21 -82q0 -22 -5.5 -43.5t-15.5 -38.5t-24 -30.5t-30 -21.5q-25 -12 -50 -15.5t-81 -3.5h-413v-193h234q108 0 196.5 -33.5t147.5 -93.5t91.5 -142.5 t32.5 -180.5t-32 -180.5t-91 -142.5t-148 -93.5t-197 -33.5h-369q-26 0 -41.5 1t-39.5 5t-44.5 14.5t-37.5 27.5q-22 22 -33.5 54t-13.5 53.5t-2 55.5zM486 306h218q63 0 101.5 41t38.5 103t-38.5 101.5t-101.5 39.5h-218v-285z" />
<glyph unicode="&#x412;" horiz-adv-x="1283" d="M139 211v977q0 35 2 56.5t13.5 53t33.5 54t54 34t53 13t56 1.5h371q107 0 192 -29.5t140.5 -83t84.5 -127.5t29 -165q0 -46 -12 -87.5t-29 -70.5t-40 -55t-39 -39t-33 -25q25 -16 40.5 -27t43.5 -39t45 -57.5t30.5 -77.5t13.5 -104q0 -131 -58 -225.5t-155.5 -141 t-223.5 -46.5h-400q-26 0 -41.5 1t-39.5 5t-44.5 14.5t-37.5 27.5q-22 22 -33.5 54t-13.5 53.5t-2 55.5zM486 306h232q65 0 95.5 37.5t30.5 89.5q0 50 -30.5 86t-95.5 36h-232v-249zM486 863h214q65 0 94.5 33.5t29.5 80.5q0 23 -6.5 42.5t-20 36.5t-38.5 27t-59 10h-214 v-230z" />
<glyph unicode="&#x413;" horiz-adv-x="1098" d="M139 224v964q0 35 2 56.5t13.5 53t33.5 54t54 34t53 13t56 1.5h495q23 0 37.5 -0.5t29 -1.5t24.5 -3t20 -5.5t20 -8.5q33 -16 54 -53t21 -82t-21 -81.5t-54 -52.5q-25 -12 -50 -15.5t-81 -3.5h-360v-869q0 -64 -3.5 -91t-18.5 -56q-20 -38 -60 -61.5t-91 -23.5t-92 23.5 t-60 61.5q-15 29 -18.5 56t-3.5 91z" />
<glyph unicode="&#x414;" horiz-adv-x="1421" d="M36 -73v161q0 42 1 64t5 40.5t13 35.5q14 31 45.5 51t72.5 25q68 179 104 412.5t36 472.5v14q0 21 1 35t5 37.5t14 44t27 36.5q15 16 33 25.5t40 13t36 4.5t40 1h495q35 0 56 -1.5t52.5 -13t54 -34t34 -54t13 -53t1.5 -56.5v-882q48 0 85.5 -21.5t55.5 -56.5 q8 -17 12.5 -35t6 -41t1.5 -64v-161q0 -59 -4 -86t-16 -53q-12 -23 -32.5 -41t-49 -28t-60.5 -10q-48 0 -86 22t-56 57q-12 25 -15.5 51.5t-3.5 87.5v73h-695v-73q0 -59 -3.5 -86t-16.5 -53q-18 -36 -55.5 -57.5t-85.5 -21.5q-32 0 -60.5 10t-49.5 28t-32 41 q-13 25 -16 51.5t-3 87.5zM523 306h346v787h-220v-37q0 -232 -32 -404.5t-94 -345.5z" />
<glyph unicode="&#x415;" horiz-adv-x="1191" d="M139 211v977q0 35 2 56.5t13.5 53t33.5 54t54 34t53 13t56 1.5h546q38 0 58.5 -1.5t38 -5t34.5 -12.5q33 -16 54 -53t21 -82q0 -22 -5.5 -43.5t-15.5 -38.5t-24 -30.5t-30 -21.5q-25 -12 -50 -15.5t-81 -3.5h-411v-234h322q39 0 59.5 -1t38 -5t34.5 -12q33 -16 54 -53.5 t21 -82t-21 -81.5t-54 -53q-26 -12 -51.5 -15.5t-80.5 -3.5h-322v-246h411q56 0 81 -3t50 -15q33 -16 54 -53t21 -81.5t-21 -82t-54 -53.5q-25 -12 -50 -15t-81 -3h-546q-26 0 -41.5 1t-39.5 5t-44.5 14.5t-37.5 27.5q-22 22 -33.5 54t-13.5 53.5t-2 55.5z" />
<glyph unicode="&#x416;" horiz-adv-x="1920" d="M49 150q0 38 16 68.5t61 84.5l356 427l-326 366q-44 52 -60 84t-16 71q0 66 59 116q48 40 105 40q47 0 79.5 -23t80.5 -81l352 -424h31v297q0 64 3.5 91t18.5 56q13 25 35 43.5t52 29.5t64 11q51 0 92 -23.5t60 -60.5q15 -29 18.5 -56t3.5 -91v-297h30l353 424 q48 58 80.5 81t79.5 23q56 0 104 -40q60 -51 60 -116q0 -39 -16 -71t-61 -84l-325 -366l356 -427q45 -54 61 -84.5t16 -68.5q0 -66 -60 -117q-48 -41 -104 -41q-47 0 -80 23.5t-80 81.5l-384 459h-30v-332q0 -64 -3.5 -91t-18.5 -56q-19 -38 -60 -61.5t-92 -23.5t-91.5 23.5 t-59.5 61.5q-15 29 -18.5 56t-3.5 91v332h-31l-383 -459q-47 -58 -80 -81.5t-80 -23.5q-56 0 -104 41q-60 51 -60 117z" />
<glyph unicode="&#x417;" horiz-adv-x="1223" d="M78 346q0 82 47 126q48 45 115 45q40 0 65 -9t52 -27q36 -25 77 -99q28 -51 67 -73t107 -22q84 0 128.5 39t44.5 102q0 68 -41.5 108t-127.5 40h-25q-52 0 -75.5 3t-45.5 13q-30 15 -49 48t-19 75q0 21 5 40.5t14 35t21.5 28t27.5 19.5q22 11 46.5 14t74.5 3h25 q71 0 112.5 36t41.5 98q0 28 -11 52t-31 40.5t-49.5 25.5t-63.5 9q-66 0 -105 -21.5t-66 -73.5q-40 -72 -77 -97q-53 -37 -114 -37q-66 0 -114 45q-47 44 -47 122q0 133 125 244q72 64 164 88.5t224 24.5q148 0 263 -48t179.5 -138.5t64.5 -209.5q0 -91 -47 -168t-122 -123 q85 -43 137 -123.5t52 -183.5q0 -128 -67 -225.5t-187.5 -150.5t-276.5 -53q-135 0 -228 25t-165 89q-126 112 -126 244z" />
<glyph unicode="&#x418;" horiz-adv-x="1375" d="M139 205v971q0 64 3.5 91t18.5 56q19 37 60 60.5t92 23.5q34 0 64 -11t52 -29.5t35 -43.5q15 -29 18.5 -56t3.5 -91v-519l376 593q56 88 100.5 122.5t105.5 34.5q73 0 122 -49q28 -27 37 -66t9 -98v-970q0 -66 -3 -92t-18 -55q-19 -38 -60 -61.5t-91.5 -23.5t-91.5 23.5 t-60 61.5q-15 29 -18 55t-3 92v519l-376 -592q-56 -88 -101 -123.5t-106 -35.5q-73 0 -122 49q-19 20 -30 47t-14 53.5t-3 63.5z" />
<glyph unicode="&#x419;" horiz-adv-x="1375" d="M139 205v971q0 64 3.5 91t18.5 56q19 37 60 60.5t92 23.5q34 0 64 -11t52 -29.5t35 -43.5q15 -29 18.5 -56t3.5 -91v-519l376 593q56 88 100.5 122.5t105.5 34.5q73 0 122 -49q28 -27 37 -66t9 -98v-970q0 -66 -3 -92t-18 -55q-19 -38 -60 -61.5t-91.5 -23.5t-91.5 23.5 t-60 61.5q-15 29 -18 55t-3 92v519l-376 -592q-56 -88 -101 -123.5t-106 -35.5q-73 0 -122 49q-19 20 -30 47t-14 53.5t-3 63.5zM357 1730q0 43 29 77q37 42 83 42q31 0 71 -27q72 -54 148 -54t148 54q40 27 70 27q47 0 84 -42q30 -35 30 -77q0 -59 -69 -115 q-59 -51 -118 -71t-144.5 -20t-145 20t-119.5 71q-67 55 -67 115z" />
<glyph unicode="&#x41a;" horiz-adv-x="1272" d="M139 224v952q0 64 3.5 91t18.5 56q19 37 60 60.5t92 23.5q34 0 64 -11t52 -29.5t35 -43.5q15 -29 18.5 -56t3.5 -91v-297h30l353 424q48 58 80.5 81t79.5 23q57 0 105 -40q59 -50 59 -116q0 -39 -16 -71t-61 -84l-325 -366l356 -427q45 -54 61 -84.5t16 -68.5 q0 -66 -60 -117q-48 -41 -104 -41q-47 0 -80 23.5t-80 81.5l-384 459h-30v-332q0 -64 -3.5 -91t-18.5 -56q-20 -38 -60 -61.5t-91 -23.5t-92 23.5t-60 61.5q-15 29 -18.5 56t-3.5 91z" />
<glyph unicode="&#x41b;" horiz-adv-x="1446" d="M47 155q0 69 43 112q22 22 48 31t66 10q26 1 47.5 8.5t38.5 21.5t30.5 30t23 40.5t17 46t11.5 53.5t7 57t4 62t1.5 62t0.5 64v435q0 35 2 56.5t13.5 53t33.5 54.5q17 17 37 27.5t44.5 14.5t40 5t41.5 1h499q36 0 56.5 -1.5t52.5 -13t54.5 -34t33.5 -54.5t13 -52.5 t2 -56.5v-964q0 -45 -1.5 -66t-6 -41t-15.5 -40q-19 -38 -59.5 -61.5t-91 -23.5t-91.5 23.5t-60 61.5q-15 29 -18.5 56t-3.5 91v869h-243v-365q0 -175 -18 -301t-52 -208.5t-90.5 -131t-125.5 -68t-164 -19.5q-66 0 -93.5 3t-52.5 15q-33 16 -54 54t-21 83z" />
<glyph unicode="&#x41c;" horiz-adv-x="1587" d="M139 224v973q0 60 10.5 97.5t40.5 67.5q46 46 115 46q63 0 102 -27q41 -27 85 -98l302 -516l303 516q43 71 85 98q39 27 101 27q70 0 116 -46q29 -29 39.5 -67t10.5 -98v-973q0 -66 -3.5 -92t-17.5 -55q-20 -38 -60.5 -61.5t-91.5 -23.5q-34 0 -64.5 11t-52.5 30t-35 44 q-15 29 -18 55t-3 92v446l-160 -276q-30 -52 -62.5 -74.5t-86.5 -22.5t-86 22.5t-62 74.5l-160 276v-446q0 -64 -3.5 -91t-18.5 -56q-20 -38 -60 -61.5t-91 -23.5t-92 23.5t-60 61.5q-15 29 -18.5 56t-3.5 91z" />
<glyph unicode="&#x41d;" horiz-adv-x="1336" d="M139 224v952q0 64 3.5 91t18.5 56q19 37 60 60.5t92 23.5q34 0 64 -11t52 -29.5t35 -43.5q15 -29 18.5 -56t3.5 -91v-315h366v315q0 47 0.5 66t5 40t15.5 41q19 37 60 60.5t91.5 23.5t91.5 -23.5t60 -60.5q15 -29 18 -55t3 -92v-952q0 -66 -3 -92t-18 -55 q-19 -38 -60 -61.5t-91.5 -23.5t-91.5 23.5t-60 61.5q-15 29 -18 55t-3 92v331h-366v-331q0 -64 -3.5 -91t-18.5 -56q-20 -38 -60 -61.5t-91 -23.5t-92 23.5t-60 61.5q-15 29 -18.5 56t-3.5 91z" />
<glyph unicode="&#x41e;" horiz-adv-x="1257" d="M94 700q0 63 0.5 99t3.5 89t8.5 87t16 77.5t25.5 75.5t38 66.5t53 64.5q77 76 171 114t219 38t219.5 -38t171.5 -114q29 -30 52 -64.5t38 -66.5t25.5 -76t16 -77t8.5 -87t3.5 -89t0.5 -99t-0.5 -99t-3.5 -89t-8.5 -87.5t-16 -77.5t-25.5 -75.5t-38 -66t-52 -64.5 q-77 -77 -171.5 -115t-219.5 -38t-219 38t-171 115q-23 23 -42 49t-33.5 51t-25.5 56t-18 57t-12 63t-8 64t-4 70t-1.5 71.5t-0.5 77.5zM441 699.5q0 -122.5 6.5 -193.5t16 -97.5t28.5 -50.5q21 -27 56.5 -45t80.5 -18q30 0 57.5 9t47 22.5t33.5 31.5q18 24 27.5 50.5 t16.5 97.5t7 193.5t-7 194t-16.5 99t-27.5 51.5q-21 26 -57 43.5t-81 17.5t-81 -17t-56 -44q-19 -24 -28.5 -51.5t-16 -99t-6.5 -194z" />
<glyph unicode="&#x41f;" horiz-adv-x="1336" d="M139 224v964q0 35 2 56.5t13.5 53t33.5 54t54 34t53 13t56 1.5h635q35 0 56 -1.5t53 -13t54 -34t33.5 -54.5t13 -52.5t1.5 -56.5v-964q0 -66 -3 -92t-18 -55q-19 -38 -60 -61.5t-91.5 -23.5t-91.5 23.5t-60 61.5q-15 29 -18 55t-3 92v869h-366v-869q0 -64 -3.5 -91 t-18.5 -56q-20 -38 -60 -61.5t-91 -23.5t-92 23.5t-60 61.5q-15 29 -18.5 56t-3.5 91z" />
<glyph unicode="&#x420;" horiz-adv-x="1232" d="M139 224v964q0 35 2 56.5t13.5 53t33.5 54t54 34t53 13t56 1.5h345q113 0 205.5 -38t151 -101.5t90 -143.5t31.5 -167.5t-31.5 -167.5t-90 -143.5t-151 -101.5t-205.5 -38h-210v-275q0 -64 -3.5 -91t-18.5 -56q-20 -38 -60 -61.5t-91 -23.5t-92 23.5t-60 61.5 q-15 29 -18.5 56t-3.5 91zM486 806h195q67 0 107.5 42.5t40.5 101t-40.5 101t-107.5 42.5h-195v-287z" />
<glyph unicode="&#x421;" horiz-adv-x="1188" d="M94 700q0 63 0.5 99t3.5 89t8.5 87t16 77.5t25.5 75.5t38 66.5t53 64.5q51 50 107.5 83.5t126 51t152.5 17.5q129 0 209 -23.5t144 -81.5q50 -45 81.5 -96.5t41.5 -90t10 -73.5q0 -83 -48 -131t-119 -48q-53 0 -92 27q-18 12 -34.5 30.5t-28.5 36.5t-29 48q-12 21 -24 37 t-25 27t-28 18t-31 10.5t-35 3.5q-76 0 -124 -61q-31 -41 -41.5 -108.5t-10.5 -236t10.5 -235.5t41.5 -108q48 -61 124 -61q32 0 56.5 9.5t46 31t40.5 56.5q26 44 46 70t46 44q39 27 92 27q71 0 119 -48t48 -131q0 -56 -30.5 -126t-102.5 -134q-64 -58 -144 -82t-209 -24 q-123 0 -216 38t-170 115q-23 23 -42 49t-33.5 51t-25.5 56t-18 57t-12 63t-8 64t-4 70t-1.5 71.5t-0.5 77.5z" />
<glyph unicode="&#x422;" horiz-adv-x="1141" d="M47 1246q0 45 21 82t54 53q25 12 50 15.5t81 3.5h636q39 0 59 -1.5t37.5 -5t34.5 -12.5q33 -16 54 -53t21 -82t-21 -81.5t-54 -52.5q-24 -12 -49.5 -15.5t-81.5 -3.5h-145v-869q0 -66 -3 -92t-18 -55q-19 -38 -60 -61.5t-92 -23.5q-34 0 -64 11t-52.5 30t-34.5 44 q-15 29 -18.5 55t-3.5 92v869h-145q-56 0 -81 3.5t-50 15.5q-33 16 -54 52.5t-21 81.5z" />
<glyph unicode="&#x423;" horiz-adv-x="1071" d="M38 1253q-3 30 8 55t35 48q51 51 123 51q60 0 97 -34q22 -19 34.5 -43t34.5 -82l166 -451l166 451q22 58 34.5 82t33.5 43q37 34 97 34q73 0 124 -51q24 -23 34.5 -48t7.5 -55t-9.5 -53.5t-21.5 -62.5l-317 -850q-50 -133 -141 -210t-224 -77h-28q-56 0 -81.5 3t-50.5 15 q-33 16 -54 53.5t-21 82t21 81.5t54 53q24 11 48.5 14.5t72.5 3.5q59 0 85 48l-297 783q-15 39 -21.5 62.5t-9.5 53.5z" />
<glyph unicode="&#x424;" horiz-adv-x="1688" d="M79 741q0 561 594 586v2q2 27 20 65q13 25 35 43.5t52.5 29.5t64.5 11q50 0 90.5 -23t60.5 -61q16 -37 20 -65v-2q594 -25 594 -586t-593 -585v-2q-2 -48 -21 -89q-20 -37 -60.5 -60.5t-91 -23.5t-91.5 23.5t-60 60.5q-20 41 -22 89v2q-592 24 -592 585zM422 741 q0 -150 60.5 -218t196.5 -77v590q-136 -9 -196.5 -77t-60.5 -218zM1011 446q135 9 195 77t60 218q0 102 -27 164.5t-82 93.5t-146 37v-590z" />
<glyph unicode="&#x425;" horiz-adv-x="1131" d="M55 154q0 31 11 60t42 83l245 423l-223 384q-30 53 -40.5 81.5t-10.5 60.5q0 88 84 137q44 24 87 24q25 0 47.5 -8t38.5 -19.5t32.5 -32t26.5 -36t25 -41.5l146 -260l146 260q15 25 25 41.5t26.5 36.5t32.5 31.5t39 19.5t48 8q43 0 87 -24q84 -49 84 -137 q0 -31 -10.5 -59.5t-41.5 -82.5l-222 -384l245 -423q31 -54 41.5 -83t10.5 -60q0 -89 -84 -138q-44 -24 -87 -24q-31 0 -57 11t-47 33.5t-34 41.5t-32 52l-170 301l-170 -301q-14 -26 -24 -42t-26.5 -36t-32.5 -31.5t-38.5 -20t-47.5 -8.5q-44 0 -88 24q-84 49 -84 138z" />
<glyph unicode="&#x426;" horiz-adv-x="1405" d="M139 211v965q0 64 3.5 91t18.5 56q19 37 60 60.5t92 23.5q34 0 64 -11t52 -29.5t35 -43.5q15 -29 18.5 -56t3.5 -91v-870h366v870q0 47 0.5 66t5 40t15.5 41q19 37 60 60.5t91.5 23.5t91.5 -23.5t60 -60.5q15 -29 18 -55t3 -92v-870q48 0 86.5 -21t55.5 -57 q13 -25 16 -52t3 -88v-161q0 -61 -3 -87.5t-16 -51.5q-8 -17 -22.5 -31.5t-32.5 -25t-40.5 -16.5t-46.5 -6q-48 0 -85.5 21.5t-55.5 57.5q-13 26 -16.5 53t-3.5 86v73h-685q-26 0 -41.5 1t-39.5 5t-44.5 14.5t-37.5 27.5q-22 22 -33.5 54t-13.5 53.5t-2 55.5z" />
<glyph unicode="&#x427;" horiz-adv-x="1279" d="M110 804v372q0 47 1 66t5.5 40t15.5 41q19 37 59.5 60.5t91.5 23.5t92 -23.5t60 -60.5q15 -29 18 -55t3 -92v-276q0 -38 15 -66t44.5 -42.5t71.5 -14.5q108 0 207 17v382q0 64 3.5 91t18.5 56q13 24 35 43t52.5 30t64.5 11q50 0 90.5 -23t59.5 -61q11 -21 15.5 -41 t5.5 -40.5t1 -65.5v-952q0 -64 -3.5 -91t-18.5 -56q-19 -38 -59.5 -61.5t-91 -23.5t-91.5 23.5t-60 61.5q-15 29 -18.5 56t-3.5 91v273q-174 -29 -317 -29q-73 0 -139 22.5t-116.5 64.5t-81 107t-30.5 142z" />
<glyph unicode="&#x428;" horiz-adv-x="1932" d="M139 211v965q0 64 3.5 91t18.5 56q19 37 60 60.5t92 23.5q34 0 64 -11t52 -29.5t35 -43.5q15 -29 18.5 -56t3.5 -91v-870h307v870q0 64 3.5 91t18.5 56q13 24 35 43t52.5 30t64.5 11q50 0 90.5 -23t59.5 -61q15 -29 19 -56t4 -91v-870h307v870q0 64 3.5 91t18.5 56 q19 37 60 60.5t91.5 23.5t91 -23t59.5 -61q15 -29 18.5 -56t3.5 -91v-965q0 -35 -1.5 -56t-13 -53t-33.5 -54t-54 -33.5t-53 -13t-56 -1.5h-1231q-26 0 -41.5 1t-39.5 5t-44.5 14.5t-37.5 27.5q-22 22 -33.5 54t-13.5 53.5t-2 55.5z" />
<glyph unicode="&#x429;" horiz-adv-x="2000" d="M139 211v965q0 64 3.5 91t18.5 56q19 37 60 60.5t92 23.5q34 0 64 -11t52 -29.5t35 -43.5q15 -29 18.5 -56t3.5 -91v-870h307v870q0 64 3.5 91t18.5 56q13 24 35 43t52.5 30t64.5 11q50 0 90.5 -23t59.5 -61q15 -29 19 -56t4 -91v-870h307v870q0 64 3.5 91t18.5 56 q19 37 60 60.5t91.5 23.5t91 -23t59.5 -61q15 -29 18.5 -56t3.5 -91v-870q48 0 86 -21t55 -57q13 -25 17 -52.5t4 -87.5v-161q0 -59 -4 -86t-17 -53q-17 -36 -55 -57.5t-86 -21.5t-86 22t-56 57q-12 25 -15.5 51.5t-3.5 87.5v73h-1281q-26 0 -41.5 1t-39.5 5t-44.5 14.5 t-37.5 27.5q-22 22 -33.5 54t-13.5 53.5t-2 55.5z" />
<glyph unicode="&#x42a;" horiz-adv-x="1474" d="M47 1246q0 45 21 82t54 53q25 12 50 15.5t81 3.5h263q36 0 56.5 -1.5t52.5 -13t54.5 -34t34 -54.5t13 -52.5t1.5 -56.5v-288h210q113 0 205.5 -37.5t151 -101t90 -143.5t31.5 -168q0 -69 -19.5 -135t-59.5 -123t-96 -100t-134 -67.5t-169 -24.5h-346q-35 0 -56 1.5 t-53 13t-54 33.5t-33.5 54t-13 53t-1.5 56v882h-128q-56 0 -81 3.5t-50 15.5q-33 16 -54 52.5t-21 81.5zM728 306h195q67 0 107.5 43t40.5 101q0 38 -17 70t-51.5 52.5t-79.5 20.5h-195v-287z" />
<glyph unicode="&#x42b;" horiz-adv-x="1785" d="M139 211v965q0 64 3.5 91t18.5 56q19 37 60 60.5t92 23.5q34 0 64 -11t52 -29.5t35 -43.5q15 -29 18.5 -56t3.5 -91v-276h210q113 0 205.5 -37.5t151 -101t90 -143.5t31.5 -167.5t-31.5 -168t-90 -143.5t-151 -101t-205.5 -38h-345q-26 0 -41.5 1t-39.5 5t-44.5 14.5 t-37.5 27.5q-22 22 -33.5 54t-13.5 53.5t-2 55.5zM486 306h195q67 0 107.5 43t40.5 101q0 38 -17 70t-51.5 52.5t-79.5 20.5h-195v-287zM1301 224v952q0 47 0.5 66t5.5 40t15 41q12 24 34.5 43t53 30t64.5 11q50 0 91 -23.5t60 -60.5q15 -29 18 -55t3 -92v-952q0 -66 -3 -92 t-18 -55q-12 -25 -34.5 -44t-53 -30t-64 -11t-64 11t-53 30t-34.5 44q-15 29 -18 55t-3 92z" />
<glyph unicode="&#x42c;" horiz-adv-x="1232" d="M139 211v965q0 64 3.5 91t18.5 56q19 37 60 60.5t92 23.5q34 0 64 -11t52 -29.5t35 -43.5q15 -29 18.5 -56t3.5 -91v-276h210q113 0 205.5 -37.5t151 -101t90 -143.5t31.5 -167.5t-31.5 -168t-90 -143.5t-151 -101t-205.5 -38h-345q-26 0 -41.5 1t-39.5 5t-44.5 14.5 t-37.5 27.5q-22 22 -33.5 54t-13.5 53.5t-2 55.5zM486 306h195q67 0 107.5 43t40.5 101q0 38 -17 70t-51.5 52.5t-79.5 20.5h-195v-287z" />
<glyph unicode="&#x42d;" horiz-adv-x="1188" d="M78 354q0 83 48 131t119 48q52 0 92 -27q26 -18 46 -44t45 -70q8 -14 15.5 -25t15 -20t15.5 -16.5t17 -13.5t18 -10t19 -7t20.5 -4t22.5 -1q77 0 124 61q24 31 35.5 72t15.5 124h-161q-38 0 -59 1.5t-38 5.5t-35 12q-33 16 -54 53t-21 81.5t21 82t54 53.5q25 12 50.5 15 t81.5 3h160q-4 76 -15.5 115t-34.5 70q-47 61 -124 61q-32 0 -56.5 -9.5t-45.5 -30.5t-41 -56q-26 -45 -45.5 -71t-45.5 -44q-40 -27 -92 -27q-71 0 -119 48t-48 131q0 57 30 126t102 134q65 58 145 81.5t209 23.5q82 0 151.5 -17.5t126.5 -51t107 -83.5q30 -30 53 -64.5 t38.5 -66.5t26 -75.5t16 -77.5t8 -87t3 -89t0.5 -99t-0.5 -99t-3 -89.5t-8 -87t-16 -77t-26 -75.5t-38.5 -66.5t-53 -64.5q-76 -77 -169.5 -115t-215.5 -38q-129 0 -209 24t-145 82q-72 64 -102 134t-30 126z" />
<glyph unicode="&#x42e;" horiz-adv-x="1808" d="M139 224v952q0 64 3.5 91t18.5 56q19 37 60 60.5t92 23.5q34 0 64 -11t52 -29.5t35 -43.5q15 -29 18.5 -56t3.5 -91v-315h161q6 133 36 227.5t106 170.5q38 38 79.5 66t89.5 47.5t103 29t119 9.5q125 0 219 -38t171 -114q29 -30 52 -64.5t38.5 -66.5t26 -75.5t16 -77.5 t8 -87t3.5 -89t1 -99t-1 -99t-3.5 -89.5t-8 -87t-16 -77t-26 -75.5t-38.5 -66.5t-52 -64.5q-77 -77 -171 -115t-219 -38q-85 0 -155.5 18t-127.5 51t-108 84q-78 78 -107.5 175.5t-34.5 238.5h-161v-331q0 -64 -3.5 -91t-18.5 -56q-20 -38 -60 -61.5t-91 -23.5t-92 23.5 t-60 61.5q-15 29 -18.5 56t-3.5 91zM991 700q0 -93 3 -154.5t10.5 -97.5t15.5 -54t22 -36q10 -13 23.5 -24t31 -20t39 -14t44.5 -5q45 0 80.5 18t56.5 45q18 24 27.5 50.5t16.5 97.5t7 193.5t-6.5 194t-16.5 99t-28 51.5q-21 27 -56.5 44t-80.5 17t-81.5 -17.5t-56.5 -43.5 q-19 -24 -28.5 -51.5t-16 -99t-6.5 -193.5z" />
<glyph unicode="&#x42f;" horiz-adv-x="1275" d="M98 154q0 31 10.5 59.5t41.5 82.5l156 275q-98 61 -151 162t-53 216q0 88 31.5 168t90 143.5t151 101.5t205.5 38h345q36 0 56.5 -1.5t52.5 -13t54.5 -34t34 -54.5t13 -52.5t1.5 -56.5v-964q0 -64 -3.5 -91t-18.5 -56q-20 -38 -60.5 -61.5t-91 -23.5t-91.5 23.5t-60 61.5 q-15 29 -18.5 56t-3.5 91v275h-140l-210 -369q-15 -26 -25 -42t-26.5 -36t-32.5 -31.5t-38.5 -20t-47.5 -8.5q-44 0 -88 24q-84 49 -84 138zM446 949.5q0 -58.5 41 -101t109 -42.5h194v287h-194q-68 0 -109 -42.5t-41 -101z" />
<glyph unicode="&#x430;" horiz-adv-x="1056" d="M49 332q0 62 21.5 116t64.5 97.5t115 68.5t165 25h208v27q0 71 -36 101.5t-113 30.5q-27 0 -65 -8.5t-67 -20.5q-64 -26 -98 -26q-56 0 -90 43q-36 43 -36 97q0 47 29.5 80t68.5 50q126 56 264 56q229 0 347.5 -95.5t118.5 -287.5v-476q0 -60 -3.5 -86.5t-16.5 -52.5 q-17 -35 -55.5 -57t-86.5 -22q-59 0 -94 26t-57 68q-58 -53 -107.5 -74.5t-129.5 -21.5q-79 0 -144.5 25t-110.5 69q-45 45 -68.5 109.5t-23.5 138.5zM358 338q0 -25 12.5 -44t39 -30.5t64.5 -11.5q28 0 46.5 3t35.5 11t33 23q13 12 20.5 27t10.5 34t3 47v27h-154 q-54 0 -82.5 -22.5t-28.5 -63.5z" />
<glyph unicode="&#x431;" d="M102 555q0 96 0.5 152t3.5 128.5t9 115t17 95t27 85.5t39.5 69.5t54.5 64.5t71 54q78 49 187.5 76t231.5 27q36 0 56.5 -1.5t37 -5.5t32.5 -11q32 -17 51.5 -51t19.5 -77t-19.5 -77.5t-51.5 -50.5q-16 -8 -32.5 -11.5t-36.5 -4.5t-57 -1q-73 0 -123.5 -6.5t-95.5 -23.5 t-84 -48q-35 -27 -53.5 -69t-18.5 -82q29 43 99.5 76t165.5 33q155 0 243 -79q35 -31 61.5 -75t43.5 -96.5t25.5 -113t8.5 -126.5q0 -149 -32.5 -244t-95.5 -163q-38 -41 -88.5 -69t-109.5 -42.5t-125 -14.5q-228 0 -348 126q-60 65 -87 170t-27 271zM424 517 q0 -149 42 -202q28 -36 93 -36q64 0 94 40q39 55 39 198q0 125 -35 179q-31 45 -98 45q-23 0 -39.5 -3t-32.5 -13t-27 -27q-36 -54 -36 -181z" />
<glyph unicode="&#x432;" horiz-adv-x="1098" d="M122 197v664q0 33 1.5 52t12 49t31.5 51t51 31.5t49 12t52 1.5h343q155 0 245.5 -80.5t90.5 -216.5q0 -71 -27 -123t-88 -96q71 -43 101.5 -97t30.5 -134q0 -142 -90 -226.5t-241 -84.5h-365q-33 0 -52 1.5t-49 12t-51 31.5t-31.5 51t-12 49t-1.5 52zM444 234h156 q29 0 51 11.5t33.5 32t11.5 48.5q0 44 -26 68.5t-70 24.5h-156v-185zM444 651h142q45 0 70 23.5t25 64.5q0 40 -25 62.5t-70 22.5h-142v-173z" />
<glyph unicode="&#x433;" horiz-adv-x="878" d="M122 210v651q0 33 1.5 52t12 49t31.5 51t51 31.5t49 12t52 1.5h332q52 0 77 -3.5t49 -14.5q31 -17 51 -51t20 -77t-20 -77t-51 -51q-23 -11 -47.5 -14t-78.5 -3h-207v-557q0 -59 -3.5 -86t-16.5 -53q-17 -35 -55 -57t-86 -22t-86 22t-56 57q-12 26 -15.5 52.5t-3.5 86.5z " />
<glyph unicode="&#x434;" horiz-adv-x="1220" d="M22 -30v114q0 54 3.5 80t14.5 50q13 26 38.5 44.5t58.5 24.5q91 239 91 501v77q0 24 0.5 38.5t4.5 37t14 41.5t26 35t34.5 26t41 13.5t36.5 4.5t38 1h409q33 0 52.5 -1.5t49 -12t50.5 -31.5t31.5 -51t12 -49t1.5 -52v-574q44 0 79.5 -20t52.5 -53q11 -24 15 -50.5 t4 -79.5v-114q0 -36 -1.5 -58t-6 -38.5t-11.5 -32.5q-11 -22 -30.5 -38.5t-46 -25.5t-55.5 -9q-44 0 -79.5 20t-51.5 53q-12 24 -16 50t-4 79v30h-555v-30q0 -36 -2 -58t-6 -38.5t-12 -32.5q-16 -33 -51.5 -53t-79.5 -20t-79.5 20t-52.5 53q-11 24 -14.5 49.5t-3.5 79.5z M456 287h251v480h-173v-64q0 -111 -20.5 -220t-57.5 -196z" />
<glyph unicode="&#x435;" horiz-adv-x="1093" d="M75 529q0 102 22.5 188.5t64 151t100 110t131 68t155.5 22.5q87 0 161.5 -23.5t130 -66t95.5 -100.5t62 -127t25 -144q4 -97 -43 -144q-13 -14 -29 -22.5t-35.5 -12t-32.5 -4.5t-35 -1h-455q0 -69 50.5 -118t139.5 -49q88 0 159 47q61 42 112 42q47 0 87.5 -40t40.5 -94 q0 -76 -100 -145q-114 -79 -303 -79q-54 0 -102 6t-100 22t-94.5 41.5t-82 67.5t-66 97t-42.5 133.5t-16 173.5zM392 639h314q0 47 -18 83q-40 82 -140 82t-139 -82q-17 -39 -17 -83z" />
<glyph unicode="&#x436;" horiz-adv-x="1562" d="M51 140q0 30 17 60.5t57 75.5l233 264l-218 241q-40 44 -56.5 75.5t-16.5 64.5q0 61 52 107q43 38 98 38q26 0 49.5 -10.5t44.5 -29t50 -52.5l256 -293h3v167q0 59 4 86t16 53q18 35 55.5 57t85.5 22t86.5 -22t56.5 -57q12 -26 15.5 -52.5t3.5 -86.5v-167h3l256 293 q43 50 74 71t70 21q55 0 98 -38q53 -47 53 -107q0 -33 -17 -64.5t-57 -75.5l-218 -241l233 -264q40 -45 57 -75.5t17 -60.5q0 -60 -54 -108q-45 -40 -100 -40q-38 0 -66 19.5t-74 72.5l-271 308h-4v-182q0 -60 -3.5 -86.5t-15.5 -52.5q-18 -35 -56.5 -57t-86.5 -22t-85.5 22 t-55.5 57q-12 26 -16 53t-4 86v182h-4l-271 -308q-46 -53 -74 -72.5t-67 -19.5q-53 0 -98 40q-55 48 -55 108z" />
<glyph unicode="&#x437;" horiz-adv-x="990" d="M77 195q0 56 39.5 94t86.5 38q29 0 49.5 -5.5t57.5 -23.5q43 -22 72.5 -31.5t69.5 -9.5q47 0 76.5 9.5t43.5 28.5t14 49q0 77 -118 77h-22q-41 0 -61 3.5t-39 12.5q-28 13 -43 39.5t-15 62t15 62.5t43 40q13 6 24.5 9t29 4.5t46.5 1.5h13q56 0 85.5 20t29.5 57 q0 42 -28.5 60.5t-93.5 18.5q-37 0 -68 -8.5t-72 -29.5q-23 -13 -40 -19t-30 -8t-31 -2q-39 0 -74 35q-38 38 -38 93q0 82 92 136q56 32 120.5 46t166.5 14q125 0 218.5 -34.5t144 -100t50.5 -152.5q0 -69 -36.5 -128.5t-95.5 -94.5q67 -34 107 -96t40 -142q0 -99 -56 -175 t-153 -117t-219 -41q-107 0 -173.5 15t-125.5 48q-102 56 -102 144z" />
<glyph unicode="&#x438;" horiz-adv-x="1160" d="M122 189v659q0 60 3.5 86.5t15.5 52.5q18 35 56 57t86 22q24 0 46.5 -6t40.5 -16.5t32 -25t22 -31.5q9 -18 13.5 -36t5.5 -40.5t1 -62.5v-298l242 363q29 43 51.5 70.5t46 46.5t47 27.5t52.5 8.5q66 0 108 -42q27 -27 37.5 -64t10.5 -91v-659q0 -60 -3.5 -86.5 t-15.5 -52.5q-18 -35 -56.5 -57t-86.5 -22t-85.5 22t-55.5 57q-12 26 -16 53t-4 86v297l-241 -362q-38 -57 -67 -89t-60 -48t-70 -16q-67 0 -108 42q-28 27 -38 64t-10 91z" />
<glyph unicode="&#x439;" horiz-adv-x="1160" d="M122 189v659q0 60 3.5 86.5t15.5 52.5q18 35 56 57t86 22q24 0 46.5 -6t40.5 -16.5t32 -25t22 -31.5q9 -18 13.5 -36t5.5 -40.5t1 -62.5v-298l242 363q29 43 51.5 70.5t46 46.5t47 27.5t52.5 8.5q66 0 108 -42q27 -27 37.5 -64t10.5 -91v-659q0 -60 -3.5 -86.5 t-15.5 -52.5q-18 -35 -56.5 -57t-86.5 -22t-85.5 22t-55.5 57q-12 26 -16 53t-4 86v297l-241 -362q-38 -57 -67 -89t-60 -48t-70 -16q-67 0 -108 42q-28 27 -38 64t-10 91zM254 1390q0 42 30 77q37 42 84 42q30 0 70 -27q72 -54 148 -54t148 54q40 27 70 27q47 0 84 -42 q29 -34 29 -77q0 -60 -67 -115q-60 -51 -119.5 -70.5t-145 -19.5t-144.5 19.5t-118 70.5q-69 56 -69 115z" />
<glyph unicode="&#x43a;" horiz-adv-x="1063" d="M122 210v638q0 60 3.5 86.5t15.5 52.5q18 35 56 57t86 22q24 0 46.5 -6t40.5 -16.5t32 -25t22 -31.5q9 -18 13.5 -36t5.5 -40.5t1 -62.5v-167h3l257 293q43 50 74 71t70 21q55 0 98 -38q51 -46 51 -107q0 -33 -16.5 -64.5t-56.5 -75.5l-217 -241l233 -264 q20 -22 33.5 -39.5t22.5 -34.5t13.5 -31.5t4.5 -30.5q0 -60 -55 -108q-45 -40 -99 -40q-38 0 -66 19.5t-74 72.5l-272 308h-4v-182q0 -59 -3.5 -86t-16.5 -53q-17 -35 -55 -57t-86 -22t-86 22t-56 57q-12 26 -15.5 52.5t-3.5 86.5z" />
<glyph unicode="&#x43b;" horiz-adv-x="1176" d="M32 139q0 42 18.5 75.5t49.5 47.5q21 11 37 14q25 6 42 23.5t31.5 55.5t21.5 105.5t7 166.5v234q0 33 1.5 52t12 49t31.5 51t51 31.5t49 12t52 1.5h422q33 0 52 -1.5t49 -12t51 -31.5t31.5 -51t12 -49t1.5 -52v-643q0 -59 -3.5 -86t-16.5 -53q-18 -36 -55.5 -57.5 t-85.5 -21.5t-86.5 21.5t-55.5 57.5q-13 25 -16.5 51.5t-3.5 87.5v549h-183v-189q0 -137 -14 -236.5t-40 -165.5t-68.5 -105t-94.5 -55t-123 -16q-72 0 -109 17q-31 15 -49.5 48t-18.5 74z" />
<glyph unicode="&#x43c;" horiz-adv-x="1354" d="M122 210v659q0 54 10 91t38 64q41 42 108 42q56 0 98.5 -34t98.5 -119l203 -303l201 303q29 43 51.5 70.5t46 46.5t47 27.5t52.5 8.5q67 0 109 -42q27 -27 37.5 -64t10.5 -91v-659q0 -60 -3.5 -86.5t-16.5 -52.5q-11 -23 -32 -40.5t-49.5 -28t-60.5 -10.5q-48 0 -85.5 22 t-55.5 57q-12 26 -16 53t-4 86v231l-94 -142q-12 -18 -20 -28.5t-21.5 -25t-26 -22t-31 -13.5t-39.5 -6q-26 0 -47.5 7.5t-38.5 23t-28 28.5t-25 36l-95 142v-231q0 -59 -3.5 -86t-16.5 -53q-17 -35 -55 -57t-86 -22t-86 22t-56 57q-12 26 -15.5 52.5t-3.5 86.5z" />
<glyph unicode="&#x43d;" horiz-adv-x="1137" d="M122 210v638q0 60 3.5 86.5t15.5 52.5q18 35 56 57t86 22q24 0 46.5 -6t40.5 -16.5t32 -25t22 -31.5q9 -18 13.5 -36t5.5 -40.5t1 -62.5v-165h250v165q0 60 3.5 86.5t15.5 52.5q18 35 56 57t86 22t86 -22t55 -57q13 -26 17 -53t4 -86v-638q0 -59 -4 -86t-17 -53 q-17 -35 -55 -57t-86 -22t-86 22t-56 57q-12 26 -15.5 52.5t-3.5 86.5v186h-250v-186q0 -59 -3.5 -86t-16.5 -53q-17 -35 -55 -57t-86 -22t-86 22t-56 57q-12 26 -15.5 52.5t-3.5 86.5z" />
<glyph unicode="&#x43e;" horiz-adv-x="1080" d="M84 529q0 156 25.5 245t91.5 160q127 135 339 135q214 0 341 -135q34 -36 55.5 -74t35 -87t19 -107t5.5 -137q0 -80 -5.5 -138t-19 -106.5t-35 -86.5t-55.5 -74q-127 -136 -341 -136q-212 0 -339 136q-66 72 -91.5 160t-25.5 245zM407 529q0 -59 3 -96t13.5 -70.5 t30.5 -53.5q30 -30 86.5 -30t86.5 30q29 29 38 80t9 140q0 59 -3 96t-13.5 70.5t-30.5 53.5q-30 30 -86.5 30t-86.5 -30q-29 -29 -38 -80t-9 -140z" />
<glyph unicode="&#x43f;" horiz-adv-x="1137" d="M122 210v651q0 33 1.5 52t12 49t31.5 51t51 31.5t49 12t52 1.5h501q33 0 52 -1.5t49 -12t50.5 -31.5t31.5 -51t12.5 -49t1.5 -52v-651q0 -59 -4 -86t-17 -53q-17 -35 -55 -57t-86 -22t-86 22t-56 57q-12 26 -15.5 52.5t-3.5 86.5v557h-250v-557q0 -59 -3.5 -86t-16.5 -53 q-17 -35 -55 -57t-86 -22t-86 22t-56 57q-12 26 -15.5 52.5t-3.5 86.5z" />
<glyph unicode="&#x440;" horiz-adv-x="1118" d="M122 -132v980q0 60 3.5 86.5t15.5 52.5q18 35 56 57t86 22q60 0 95 -26.5t57 -67.5q51 50 107 73.5t137 23.5q51 0 97.5 -10.5t87 -32t70.5 -53.5q28 -29 47.5 -69t30 -77t15.5 -94t6 -96t1 -108t-1 -108t-6 -96t-15.5 -94t-30 -77t-47.5 -70q-45 -46 -110.5 -71 t-142.5 -25q-148 0 -237 89v-209q0 -59 -3.5 -86.5t-16.5 -53.5q-17 -35 -55 -56.5t-86 -21.5t-86 21.5t-56 56.5q-12 26 -15.5 53t-3.5 87zM444 528.5q0 -51.5 2.5 -85.5t10.5 -67.5t22 -53t39 -31.5t60 -12t59.5 12t39 31.5t22.5 53t10 67.5t2 86q0 43 -1.5 72.5t-6 60 t-14 50t-24 36t-36.5 24t-51 7.5q-35 0 -60 -12t-39 -31.5t-22 -53t-10.5 -68t-2.5 -86z" />
<glyph unicode="&#x441;" horiz-adv-x="936" d="M75 529q0 96 17 175t45 134t68 97.5t81.5 67t90 40t89.5 21t84 5.5q107 0 183 -33q61 -26 108.5 -72.5t47.5 -102.5q0 -58 -45 -106q-17 -19 -44.5 -31.5t-54.5 -12.5q-26 0 -47.5 8.5t-52.5 29.5q-47 30 -95 30q-58 0 -100 -42q-53 -55 -53 -208t53 -208q42 -42 100 -42 q48 0 95 30q31 20 52.5 28.5t47.5 8.5q27 0 54.5 -12.5t44.5 -31.5q45 -48 45 -105q0 -56 -47.5 -102.5t-108.5 -72.5q-76 -34 -183 -34q-43 0 -84 5.5t-89.5 21.5t-90 40.5t-81.5 67t-68 97t-45 134t-17 175.5z" />
<glyph unicode="&#x442;" horiz-adv-x="947" d="M32 912q0 43 19 77.5t51 50.5q23 11 48.5 14.5t77.5 3.5h492q36 0 56.5 -1.5t37 -5.5t32.5 -11q31 -16 50.5 -50.5t19.5 -77.5t-19.5 -77.5t-50.5 -50.5q-23 -11 -47.5 -14t-78.5 -3h-84v-549q0 -41 -1.5 -63.5t-6 -40t-13.5 -35.5q-17 -36 -55 -57.5t-86 -21.5t-86 21.5 t-56 57.5q-8 18 -12.5 36t-5.5 39.5t-1 63.5v549h-85q-54 0 -78.5 3t-47.5 14q-32 16 -51 50.5t-19 77.5z" />
<glyph unicode="&#x443;" horiz-adv-x="929" d="M31.5 931q0.5 18 5.5 34q14 43 56.5 72t95.5 29q29 0 52.5 -10t38.5 -22.5t27.5 -36t19 -40.5t15.5 -45l123 -407l123 407q8 28 14.5 45t19.5 40t28 36.5t38.5 23t52.5 9.5q35 0 67 -13.5t54 -36.5t31 -51q5 -16 5.5 -34t-4 -39.5t-8.5 -35.5t-12 -39l-326 -947 q-29 -83 -82 -140q-86 -88 -230 -88q-108 0 -148 39q-43 43 -43 107q0 76 47 114q22 18 42 23.5t57 5.5q65 0 92 81l22 67l-249 738q-8 23 -12.5 38.5t-8.5 36.5t-3.5 39z" />
<glyph unicode="&#x444;" horiz-adv-x="1465" d="M71 528.5q0 106.5 24 193t67.5 147t106.5 102.5t138 64.5t165 28.5v125q0 32 0.5 50t2.5 35t6 29t10 26q18 35 56 56.5t86 21.5t86 -21.5t56 -56.5q6 -14 10 -26t6 -28.5t3 -35.5t1 -50v-125q74 -5 138.5 -21.5t121 -45.5t100.5 -72.5t76 -100t48.5 -131.5t16.5 -164 q0 -133 -36.5 -233t-104.5 -163.5t-157.5 -97t-202.5 -41.5v-126q0 -59 -4 -86.5t-16 -53.5q-12 -23 -32.5 -40.5t-49 -27.5t-60.5 -10q-48 0 -86 21.5t-56 56.5q-12 26 -15.5 53t-3.5 87v126q-90 6 -165 28t-138 64.5t-106.5 103t-67.5 146.5t-24 192.5zM394 529 q0 -70 12 -120t37 -79.5t57 -43.5t76 -16v518q-90 -4 -136 -63t-46 -196zM891 270q90 4 136 63t46 196t-46 196t-136 63v-518z" />
<glyph unicode="&#x445;" horiz-adv-x="928" d="M54 136q0 32 11.5 62t42.5 77l171 260l-162 247q-30 46 -41.5 76t-11.5 62q0 72 73 118q45 27 84 27q49 0 81.5 -27t73.5 -93l89 -142l89 142q41 66 73 93t81 27q40 0 84 -27q74 -47 74 -118q0 -22 -4.5 -41t-16 -42t-32.5 -55l-162 -247l172 -260q30 -46 41.5 -76.5 t11.5 -62.5q0 -72 -73 -118q-43 -26 -84 -26q-50 0 -83.5 28t-71.5 92l-99 162l-98 -162q-39 -64 -72.5 -92t-83.5 -28q-41 0 -83 26q-74 47 -74 118z" />
<glyph unicode="&#x446;" horiz-adv-x="1207" d="M122 197v651q0 60 3.5 86.5t15.5 52.5q18 35 56 57t86 22q24 0 46.5 -6t40.5 -16.5t32 -25t22 -31.5q9 -18 13.5 -36t5.5 -40.5t1 -62.5v-557h250v557q0 60 3.5 86.5t15.5 52.5q18 35 56 57t86 22t86 -22t55 -57q13 -26 17 -53t4 -86v-557q29 0 55 -9.5t45.5 -25.5 t30.5 -38q8 -17 12 -33.5t5 -38t1 -58.5v-118q0 -28 -0.5 -45.5t-2.5 -33t-5.5 -27t-9.5 -23.5q-17 -33 -52 -53t-79 -20t-79.5 20t-52.5 53q-6 12 -9.5 23.5t-5.5 27t-3 33.5t-1 45v30h-547q-33 0 -52 1.5t-49 12t-51 31.5t-31.5 51t-12 49t-1.5 52z" />
<glyph unicode="&#x447;" d="M96 610v238q0 59 3.5 86t16.5 53q18 35 55.5 57t85.5 22t86.5 -22t55.5 -57q13 -26 16.5 -52.5t3.5 -86.5v-142q0 -44 25.5 -69t71.5 -25q32 0 133 11v225q0 60 3.5 86.5t15.5 52.5q18 35 56 57t86 22t86 -22t55 -57q7 -14 11 -26t6 -28.5t3 -35.5t1 -49v-638 q0 -59 -4 -86t-17 -53q-17 -35 -55 -57t-86 -22t-86 22t-56 57q-12 26 -15.5 52.5t-3.5 86.5v140q-146 -22 -262 -22q-122 0 -206.5 78.5t-84.5 203.5z" />
<glyph unicode="&#x448;" horiz-adv-x="1639" d="M122 197v651q0 60 3.5 86.5t15.5 52.5q18 35 56 57t86 22q24 0 46.5 -6t40.5 -16.5t32 -25t22 -31.5q9 -18 13.5 -36t5.5 -40.5t1 -62.5v-557h215v557q0 59 3.5 86t16.5 53q17 35 55 57t86 22t85.5 -22t55.5 -57q13 -26 16.5 -53t3.5 -86v-557h214v557q0 59 4 86t16 53 q18 35 56 57t86 22t86 -22t56 -57q12 -26 15.5 -52.5t3.5 -86.5v-651q0 -33 -1.5 -52t-12 -49t-31.5 -51t-51 -31.5t-49 -12t-52 -1.5h-1002q-33 0 -52 1.5t-49 12t-51 31.5t-31.5 51t-12 49t-1.5 52z" />
<glyph unicode="&#x449;" horiz-adv-x="1708" d="M122 197v651q0 60 3.5 86.5t15.5 52.5q18 35 56 57t86 22q24 0 46.5 -6t40.5 -16.5t32 -25t22 -31.5q9 -18 13.5 -36t5.5 -40.5t1 -62.5v-557h215v557q0 59 3.5 86t16.5 53q17 35 55 57t86 22t85.5 -22t55.5 -57q13 -26 16.5 -53t3.5 -86v-557h214v557q0 59 4 86t16 53 q18 35 56 57t86 22t86 -22t56 -57q12 -26 15.5 -52.5t3.5 -86.5v-557q29 0 55 -9.5t45.5 -25.5t30.5 -38q8 -17 12 -33.5t5.5 -38.5t1.5 -58v-118q0 -53 -3.5 -79t-15.5 -50q-17 -33 -52 -53t-79 -20t-79.5 20t-52.5 53q-11 24 -15 50t-4 79v30h-1048q-33 0 -52 1.5t-49 12 t-51 31.5t-31.5 51t-12 49t-1.5 52z" />
<glyph unicode="&#x44a;" horiz-adv-x="1206" d="M32 912q0 43 19 77.5t51 50.5q23 11 48.5 14.5t77.5 3.5h162q24 0 38 -1t36.5 -4.5t41 -13.5t34.5 -26q21 -21 32 -51t12.5 -49t1.5 -52v-165h204q160 0 261 -98t101 -250q0 -153 -101.5 -250.5t-260.5 -97.5h-347q-32 0 -49.5 1t-43.5 9.5t-45 25.5q-12 10 -20.5 24.5 t-12.5 26t-6 27.5t-2.5 24t-0.5 22v607h-35q-54 0 -78.5 3t-47.5 14q-32 16 -51 50.5t-19 77.5zM586 250h136q111 0 111 98t-111 98h-136v-196z" />
<glyph unicode="&#x44b;" horiz-adv-x="1550" d="M122 197v651q0 60 3.5 86.5t15.5 52.5q18 35 56 57t86 22q24 0 46.5 -6t40.5 -16.5t32 -25t22 -31.5q9 -18 13.5 -36t5.5 -40.5t1 -62.5v-152h205q160 0 261 -98t101 -250q0 -153 -101.5 -250.5t-260.5 -97.5h-330q-33 0 -52 1.5t-49 12t-51 31.5t-31.5 51t-12 49 t-1.5 52zM444 250h136q112 0 112 98t-112 98h-136v-196zM1107 210v638q0 59 3.5 86t16.5 53q18 35 55.5 57t85.5 22t86 -22t55 -57q13 -26 16.5 -53t3.5 -86v-638q0 -59 -3.5 -86t-16.5 -53q-17 -35 -55 -57t-86 -22q-24 0 -46 6t-40 16.5t-32 25t-23 31.5q-13 26 -16.5 53 t-3.5 86z" />
<glyph unicode="&#x44c;" horiz-adv-x="1065" d="M122 197v651q0 60 3.5 86.5t15.5 52.5q18 35 56 57t86 22q24 0 46.5 -6t40.5 -16.5t32 -25t22 -31.5q9 -18 13.5 -36t5.5 -40.5t1 -62.5v-152h205q160 0 261 -98t101 -250q0 -153 -101.5 -250.5t-260.5 -97.5h-330q-33 0 -52 1.5t-49 12t-51 31.5t-31.5 51t-12 49 t-1.5 52zM444 250h136q112 0 112 98t-112 98h-136v-196z" />
<glyph unicode="&#x44d;" horiz-adv-x="936" d="M49 197q0 57 45 105q17 19 44.5 31.5t54.5 12.5q18 0 33.5 -4t30.5 -11.5t36 -21.5q47 -30 94 -30q59 0 101 42q31 33 43 95h-85q-41 0 -61 3t-39 12q-28 13 -43 39.5t-15 62t15 63t43 40.5q19 8 38.5 11t61.5 3h84q-13 55 -42 87q-42 42 -101 42q-47 0 -94 -30 q-21 -14 -36 -21.5t-31 -12t-33 -4.5q-27 0 -54.5 12.5t-44.5 31.5q-45 48 -45 106q0 56 47.5 102.5t107.5 72.5q77 33 183 33q43 0 84 -5.5t89.5 -21t90.5 -40t82 -67t68 -97.5t45 -134t17 -175t-17 -175.5t-45 -134t-68 -97t-82 -67t-90.5 -40.5t-89.5 -21.5t-84 -5.5 q-106 0 -183 34q-60 26 -107.5 72.5t-47.5 102.5z" />
<glyph unicode="&#x44e;" horiz-adv-x="1572" d="M122 210v638q0 60 3.5 86.5t15.5 52.5q18 35 56 57t86 22q24 0 46.5 -6t40.5 -16.5t32 -25t22 -31.5q9 -18 13.5 -36t5.5 -40.5t1 -62.5v-171h139q9 85 34.5 144t74.5 113q128 135 340 135q213 0 341 -135q44 -48 69 -103t35.5 -125.5t10.5 -176.5q0 -158 -24.5 -246 t-90.5 -159q-128 -136 -341 -136q-212 0 -340 136q-52 56 -77.5 119.5t-33.5 157.5h-137v-191q0 -59 -3.5 -86t-16.5 -53q-17 -35 -55 -57t-86 -22t-86 22t-56 57q-12 26 -15.5 52.5t-3.5 86.5zM899 529q0 -89 9 -140t38 -80q29 -30 86 -30t86 30q29 29 38 80t9 140 q0 59 -2.5 96t-13.5 70.5t-31 53.5q-29 30 -86 30t-86 -30q-20 -20 -31 -53.5t-13.5 -70.5t-2.5 -96z" />
<glyph unicode="&#x44f;" horiz-adv-x="1106" d="M85 136q0 31 11.5 61t41.5 78l103 164q-69 50 -108 122.5t-39 156.5q0 148 102 244t260 96h332q33 0 52 -1.5t49 -12t51 -31.5t31.5 -51t12 -49t1.5 -52v-651q0 -60 -3.5 -86.5t-15.5 -52.5q-18 -35 -56 -57t-86 -22t-86 22t-55 57q-13 26 -17 53t-4 86v149h-110 l-154 -247q-26 -43 -46.5 -67t-47.5 -38.5t-61 -14.5q-41 0 -84 26q-74 47 -74 118zM409 704q0 -42 28.5 -69t73.5 -27h151v195h-151q-45 0 -73.5 -29t-28.5 -70z" />
<glyph unicode="&#x450;" horiz-adv-x="1093" d="M75 529q0 102 22.5 188.5t64 151t100 110t131 68t155.5 22.5q87 0 161.5 -23.5t130 -66t95.5 -100.5t62 -127t25 -144q4 -97 -43 -144q-13 -14 -29 -22.5t-35.5 -12t-32.5 -4.5t-35 -1h-455q0 -69 50.5 -118t139.5 -49q88 0 159 47q61 42 112 42q47 0 87.5 -40t40.5 -94 q0 -76 -100 -145q-114 -79 -303 -79q-54 0 -102 6t-100 22t-94.5 41.5t-82 67.5t-66 97t-42.5 133.5t-16 173.5zM264 1492q-3 33 14 63.5t51 52.5q39 23 75 23q34 0 68 -22q5 -3 9.5 -7t8 -7.5t8.5 -10t7.5 -10t8 -12t7.5 -11.5t8.5 -13t8.5 -13l74 -118q26 -42 35 -62.5 t12 -44.5q2 -33 -14.5 -63.5t-51.5 -52.5q-38 -23 -74 -23q-34 0 -68 22q-11 7 -24 22.5t-19.5 25.5t-22.5 35l-73 118q-27 44 -36.5 64t-11.5 44zM392 639h314q0 47 -18 83q-40 82 -140 82t-139 -82q-17 -39 -17 -83z" />
<glyph unicode="&#x451;" horiz-adv-x="1093" d="M75 529q0 102 22.5 188.5t64 151t100 110t131 68t155.5 22.5q87 0 161.5 -23.5t130 -66t95.5 -100.5t62 -127t25 -144q4 -97 -43 -144q-13 -14 -29 -22.5t-35.5 -12t-32.5 -4.5t-35 -1h-455q0 -69 50.5 -118t139.5 -49q88 0 159 47q61 42 112 42q47 0 87.5 -40t40.5 -94 q0 -76 -100 -145q-114 -79 -303 -79q-54 0 -102 6t-100 22t-94.5 41.5t-82 67.5t-66 97t-42.5 133.5t-16 173.5zM169 1337q0 65 46.5 111t111 46t111 -46t46.5 -111q0 -42 -21.5 -78.5t-57.5 -57.5t-79 -21q-64 0 -110.5 46t-46.5 111zM392 639h314q0 47 -18 83 q-40 82 -140 82t-139 -82q-17 -39 -17 -83zM629 1337q0 65 46 111t111 46t111.5 -46t46.5 -111t-46.5 -111t-111.5 -46t-111 46t-46 111z" />
<glyph unicode="&#x452;" horiz-adv-x="1137" d="M0 1185.5q0 37.5 16 66t44 42.5q29 13 72 15q17 45 57 71.5t94.5 26.5t94.5 -26.5t56 -71.5h176q44 0 64.5 -3t40.5 -12q29 -14 45.5 -42.5t16.5 -66t-16.5 -66t-45.5 -42.5q-10 -5 -19 -7.5t-21.5 -4.5t-27 -2.5t-37.5 -0.5h-166v-155q49 43 113 67t126 24 q146 0 237 -90q62 -62 84 -134t22 -168v-647q0 -38 -8 -74.5t-24.5 -72t-44 -65.5t-62 -52.5t-82.5 -35.5t-103 -13h-6q-84 0 -130 22q-67 33 -67 114q0 42 17.5 71.5t47.5 44.5t80 18q60 2 60 67v580q0 42 -14 73t-35.5 45.5t-41.5 20.5t-39 6t-39 -6t-41.5 -20.5 t-35.5 -45.5t-14 -73v-353q0 -59 -3.5 -86t-16.5 -53q-17 -35 -55 -57t-86 -22t-86 22t-56 57q-12 26 -15.5 52.5t-3.5 86.5v853q-39 3 -62 14q-28 14 -44 42.5t-16 66z" />
<glyph unicode="&#x453;" horiz-adv-x="878" d="M122 210v651q0 33 1.5 52t12 49t31.5 51t51 31.5t49 12t52 1.5h332q52 0 77 -3.5t49 -14.5q31 -17 51 -51t20 -77t-20 -77t-51 -51q-23 -11 -47.5 -14t-78.5 -3h-207v-557q0 -59 -3.5 -86t-16.5 -53q-17 -35 -55 -57t-86 -22t-86 22t-56 57q-12 26 -15.5 52.5t-3.5 86.5z M311 1300q2 24 11 44.5t36 62.5l74 118q2 4 7 12t7.5 11.5t7 10.5t7 10.5t7 9t7.5 9t7 8t7.5 7.5t7.5 6q34 22 68 22q37 0 75 -23q35 -22 51.5 -52.5t13.5 -63.5q-2 -25 -11.5 -45t-35.5 -63l-74 -118q-2 -3 -8.5 -12.5t-8.5 -13t-7.5 -11.5t-8 -11.5t-7.5 -10t-8.5 -10 t-8 -7.5t-9.5 -7q-33 -22 -68 -22q-36 0 -75 23q-34 22 -50.5 52.5t-13.5 63.5z" />
<glyph unicode="&#x454;" horiz-adv-x="936" d="M75 529q0 96 17 175t45 134t68 97.5t81.5 67t90 40t89.5 21t84 5.5q107 0 183 -33q61 -26 108.5 -72.5t47.5 -102.5q0 -58 -45 -106q-17 -19 -44.5 -31.5t-54.5 -12.5q-26 0 -47.5 8.5t-52.5 29.5q-47 30 -95 30q-58 0 -100 -42q-29 -32 -42 -87h84q29 0 46 -1.5t28.5 -4 t24.5 -8.5q28 -13 43.5 -40.5t15.5 -62.5t-15.5 -62t-43.5 -40q-19 -9 -38.5 -12t-60.5 -3h-85q12 -62 43 -95q42 -42 100 -42q48 0 95 30q31 20 52.5 28.5t47.5 8.5q27 0 54.5 -12.5t44.5 -31.5q45 -48 45 -105q0 -56 -47.5 -102.5t-108.5 -72.5q-76 -34 -183 -34 q-43 0 -84 5.5t-89.5 21.5t-90 40.5t-81.5 67t-68 97t-45 134t-17 175.5z" />
<glyph unicode="&#x455;" horiz-adv-x="990" d="M41 197q0 32 14.5 62t36.5 47q42 31 85 31q38 0 97 -31q35 -18 66 -29t66 -16.5t78 -5.5q58 0 96.5 19.5t38.5 55.5q0 61 -77 67l-163 16q-306 29 -306 307q0 49 12 93t34.5 79t53 64t67 50t78.5 35t86 21t89 7q145 0 262 -43q66 -24 100 -58q36 -37 36 -93 q0 -28 -12.5 -56.5t-30.5 -45.5q-39 -36 -87 -36q-29 0 -88 24q-37 16 -61.5 25t-59.5 16.5t-66 7.5q-45 0 -74 -18t-29 -48t18 -43t51 -17l163 -16q160 -16 239.5 -102.5t79.5 -219.5q0 -73 -24 -133t-66 -101t-100.5 -69.5t-125.5 -41.5t-142 -13q-124 0 -209 21.5 t-155 69.5q-71 49 -71 118z" />
<glyph unicode="&#x456;" horiz-adv-x="565" d="M105 1302q0 73 52.5 125.5t126 52.5t126 -52.5t52.5 -126t-52.5 -126.5t-126.5 -53q-48 0 -89 24.5t-65 66t-24 89.5zM122 210v596q0 42 1 64t5 40t13 36q18 35 56 56.5t86 21.5t86 -21.5t55 -56.5q13 -26 16.5 -53t3.5 -87v-596q0 -59 -3.5 -86t-16.5 -53 q-17 -35 -55 -57t-86 -22t-86 22t-56 57q-12 26 -15.5 52.5t-3.5 86.5z" />
<glyph unicode="&#x457;" horiz-adv-x="565" d="M-89 1337q0 65 46 111t111 46t111 -46t46 -111t-46 -111t-111 -46t-111 46t-46 111zM122 210v596q0 42 1 64t5 40t13 36q18 35 56 56.5t86 21.5t86 -21.5t55 -56.5q13 -26 16.5 -53t3.5 -87v-596q0 -59 -3.5 -86t-16.5 -53q-17 -35 -55 -57t-86 -22t-86 22t-56 57 q-12 26 -15.5 52.5t-3.5 86.5zM341 1337q0 65 46 111t111 46t111.5 -46t46.5 -111t-46.5 -111t-111.5 -46t-111 46t-46 111z" />
<glyph unicode="&#x458;" horiz-adv-x="565" d="M-83 -218q0 42 17.5 71.5t48.5 44.5q29 15 79 18q60 2 60 67v823q0 42 1 64t5 40t13 36q18 35 56 56.5t86 21.5t86 -21.5t55 -56.5q13 -26 16.5 -53t3.5 -87v-847q0 -38 -8 -74.5t-24.5 -72t-43.5 -65.5t-62 -52.5t-83 -35.5t-103 -13h-6q-84 0 -129 22q-68 33 -68 114z M105 1302q0 73 52.5 125.5t126 52.5t126 -52.5t52.5 -126t-52.5 -126.5t-126.5 -53q-48 0 -89 24.5t-65 66t-24 89.5z" />
<glyph unicode="&#x459;" horiz-adv-x="1758" d="M32 135q0 40 17.5 72.5t47.5 46.5q37 17 84 18q23 0 38.5 4.5t32.5 16.5t28 36t20.5 62t14 97.5t4.5 138.5v234q0 33 1.5 52t12 49t31.5 51q16 16 35 26t41.5 13.5t36.5 4.5t39 1h426q33 0 52 -1.5t49 -12t50.5 -31.5t31.5 -51t12.5 -49t1.5 -52v-165h204q160 0 261 -98 t101 -250q0 -153 -101.5 -250.5t-260.5 -97.5h-348q-32 0 -49 1t-43 9.5t-45 25.5q-15 13 -24 29.5t-12.5 35.5t-4.5 30.5t-1 28.5v607h-187v-189q0 -137 -14 -236.5t-40 -165.5t-68.5 -105t-94.5 -55t-123 -16h-108q-47 0 -84 16q-30 15 -47.5 47t-17.5 72zM1139 250h135 q112 0 112 98t-112 98h-135v-196z" />
<glyph unicode="&#x45a;" horiz-adv-x="1636" d="M122 210v638q0 60 3.5 86.5t15.5 52.5q18 35 56 57t86 22q24 0 46.5 -6t40.5 -16.5t32 -25t22 -31.5q9 -18 13.5 -36t5.5 -40.5t1 -62.5v-152h250v152q0 60 3.5 86.5t15.5 52.5q18 35 56 57t86 22t86 -22t55 -57q13 -26 17 -53t4 -86v-152h204q160 0 261 -98t101 -250 q0 -153 -101.5 -250.5t-260.5 -97.5h-330q-33 0 -52 1.5t-49 12t-51 31.5t-31.5 51t-12 49t-1.5 52v212h-250v-199q0 -59 -3.5 -86t-16.5 -53q-17 -35 -55 -57t-86 -22t-86 22t-56 57q-12 26 -15.5 52.5t-3.5 86.5zM1017 250h135q112 0 112 98t-112 98h-135v-196z" />
<glyph unicode="&#x45b;" horiz-adv-x="1137" d="M0 1185.5q0 37.5 16 66t44 42.5q29 13 72 15q17 45 57 71.5t94.5 26.5t94.5 -26.5t56 -71.5h176q44 0 64.5 -3t40.5 -12q29 -14 45.5 -42.5t16.5 -66t-16.5 -66t-45.5 -42.5q-10 -5 -19 -7.5t-21.5 -4.5t-27 -2.5t-37.5 -0.5h-166v-155q49 43 113 67t126 24 q146 0 237 -90q62 -62 84 -134t22 -168v-396q0 -60 -3.5 -86.5t-15.5 -52.5q-18 -35 -56 -57t-86 -22q-32 0 -60.5 10.5t-49 28t-31.5 40.5q-13 26 -16.5 53t-3.5 86v353q0 42 -14 73t-35.5 45.5t-41.5 20.5t-39 6t-39 -6t-41.5 -20.5t-35.5 -45.5t-14 -73v-353 q0 -59 -3.5 -86t-16.5 -53q-17 -35 -55 -57t-86 -22t-86 22t-56 57q-12 26 -15.5 52.5t-3.5 86.5v853q-39 3 -62 14q-28 14 -44 42.5t-16 66z" />
<glyph unicode="&#x45c;" horiz-adv-x="1063" d="M122 210v638q0 60 3.5 86.5t15.5 52.5q18 35 56 57t86 22q24 0 46.5 -6t40.5 -16.5t32 -25t22 -31.5q9 -18 13.5 -36t5.5 -40.5t1 -62.5v-167h3l257 293q43 50 74 71t70 21q55 0 98 -38q51 -46 51 -107q0 -33 -16.5 -64.5t-56.5 -75.5l-217 -241l233 -264 q20 -22 33.5 -39.5t22.5 -34.5t13.5 -31.5t4.5 -30.5q0 -60 -55 -108q-45 -40 -99 -40q-38 0 -66 19.5t-74 72.5l-272 308h-4v-182q0 -59 -3.5 -86t-16.5 -53q-17 -35 -55 -57t-86 -22t-86 22t-56 57q-12 26 -15.5 52.5t-3.5 86.5zM453 1300q2 24 11 44.5t36 62.5l74 118 q16 25 23 35.5t19.5 25.5t23.5 23q34 22 68 22q36 0 74 -23q35 -22 52 -52.5t14 -63.5q-2 -25 -11.5 -45t-35.5 -63l-74 -118q-13 -19 -17.5 -26t-14.5 -21t-18 -22t-17 -14q-33 -22 -68 -22t-74 23q-34 22 -51 52.5t-14 63.5z" />
<glyph unicode="&#x45d;" horiz-adv-x="1160" d="M122 189v659q0 60 3.5 86.5t15.5 52.5q18 35 56 57t86 22q24 0 46.5 -6t40.5 -16.5t32 -25t22 -31.5q9 -18 13.5 -36t5.5 -40.5t1 -62.5v-298l242 363q29 43 51.5 70.5t46 46.5t47 27.5t52.5 8.5q66 0 108 -42q27 -27 37.5 -64t10.5 -91v-659q0 -60 -3.5 -86.5 t-15.5 -52.5q-18 -35 -56.5 -57t-86.5 -22t-85.5 22t-55.5 57q-12 26 -16 53t-4 86v297l-241 -362q-38 -57 -67 -89t-60 -48t-70 -16q-67 0 -108 42q-28 27 -38 64t-10 91zM294 1492q-3 33 13.5 63.5t51.5 52.5q38 23 75 23q33 0 67 -22q11 -8 24 -23t19.5 -25.5t22.5 -35.5 l74 -118q27 -42 36 -62.5t11 -44.5q3 -33 -13.5 -63.5t-51.5 -52.5q-38 -23 -75 -23q-33 0 -67 22q-11 7 -24 22.5t-19.5 25.5t-22.5 35l-74 118q-27 43 -36 63t-11 45z" />
<glyph unicode="&#x45e;" horiz-adv-x="929" d="M31.5 931q0.5 18 5.5 34q14 43 56.5 72t95.5 29q29 0 52.5 -10t38.5 -22.5t27.5 -36t19 -40.5t15.5 -45l123 -407l123 407q8 28 14.5 45t19.5 40t28 36.5t38.5 23t52.5 9.5q35 0 67 -13.5t54 -36.5t31 -51q5 -16 5.5 -34t-4 -39.5t-8.5 -35.5t-12 -39l-326 -947 q-29 -83 -82 -140q-86 -88 -230 -88q-108 0 -148 39q-43 43 -43 107q0 76 47 114q22 18 42 23.5t57 5.5q65 0 92 81l22 67l-249 738q-8 23 -12.5 38.5t-8.5 36.5t-3.5 39zM116 1390q0 42 30 77q37 42 83 42q30 0 70 -27q72 -54 148.5 -54t148.5 54q40 27 69 27q47 0 84 -42 q30 -35 30 -77q0 -59 -69 -115q-40 -34 -79.5 -54t-82.5 -28t-101 -8q-85 0 -144.5 19.5t-119.5 70.5q-67 55 -67 115z" />
<glyph unicode="&#x45f;" horiz-adv-x="1137" d="M122 197v651q0 60 3.5 86.5t15.5 52.5q18 35 56 57t86 22q24 0 46.5 -6t40.5 -16.5t32 -25t22 -31.5q9 -18 13.5 -36t5.5 -40.5t1 -62.5v-557h250v557q0 60 3.5 86.5t15.5 52.5q18 35 56 57t86 22t86 -22t55 -57q13 -26 17 -53t4 -86v-651q0 -33 -1.5 -52t-12.5 -49 t-31.5 -51t-50.5 -31.5t-49 -12t-52 -1.5h-100v-30q0 -53 -4 -79t-15 -50q-17 -33 -52.5 -53t-79.5 -20t-79 20t-52 53q-12 24 -15.5 50t-3.5 79v30h-100q-33 0 -52 1.5t-49 12t-51 31.5t-31.5 51t-12 49t-1.5 52z" />
<glyph unicode="&#x462;" horiz-adv-x="1291" d="M17 1154q0 40 17.5 70.5t47.5 45.5q22 11 44.5 14t72.5 3h7q14 56 59.5 88t106.5 32q39 0 73.5 -14t58.5 -41.5t33 -64.5h161q34 0 52.5 -1t34 -4.5t30.5 -11.5q29 -14 46 -45t17 -71t-17 -71t-46 -45q-22 -11 -44.5 -14.5t-72.5 -3.5h-154v-120h211q112 0 204.5 -37.5 t151 -101t90.5 -143.5t32 -167.5t-32 -168t-90.5 -143.5t-151 -101t-204.5 -38h-345q-35 0 -56 1.5t-53 13t-54 33.5t-33.5 54t-13 53t-1.5 56v809q-50 0 -72.5 3.5t-44.5 14.5q-30 14 -47.5 45t-17.5 71zM544 306h195q68 0 109 43t41 101.5t-41 100.5t-109 42h-195v-287z " />
<glyph unicode="&#x463;" horiz-adv-x="1206" d="M32 934.5q0 37.5 15.5 65.5t44.5 42q21 9 42 12.5t65 3.5h64v131q0 41 1.5 63.5t5.5 40.5t13 36q18 35 55.5 56.5t85.5 21.5t86.5 -21.5t55.5 -56.5q13 -26 16.5 -52.5t3.5 -87.5v-131h95q43 0 63.5 -3.5t41.5 -12.5q19 -9 33 -25t21.5 -37t7.5 -46q0 -37 -16.5 -66 t-45.5 -42q-20 -10 -40.5 -13t-64.5 -3h-95v-114h204q160 0 261 -98t101 -250q0 -153 -101.5 -250.5t-260.5 -97.5h-330q-33 0 -52 1.5t-48.5 12t-50.5 31.5t-32 50.5t-12.5 49.5t-1.5 52v613h-64q-45 0 -66 3t-41 13q-29 13 -44.5 42t-15.5 66.5zM586 250h136q111 0 111 98 t-111 98h-136v-196z" />
<glyph unicode="&#x472;" horiz-adv-x="1257" d="M94 700q0 63 0.5 99t3.5 89t8.5 87t16 77.5t25.5 75.5t38 66.5t53 64.5q77 76 171 114t219 38t219.5 -38t171.5 -114q29 -30 52 -64.5t38 -66.5t25.5 -76t16 -77t8.5 -87t3.5 -89t0.5 -99t-0.5 -99t-3.5 -89t-8.5 -87.5t-16 -77.5t-25.5 -75.5t-38 -66t-52 -64.5 q-77 -77 -171.5 -115t-219.5 -38t-219 38t-171 115q-23 23 -42 49t-33.5 51t-25.5 56t-18 57t-12 63t-8 64t-4 70t-1.5 71.5t-0.5 77.5zM443 574q2 -71 9.5 -114.5t15.5 -62.5t24 -39q21 -27 56.5 -45t80.5 -18q30 0 57.5 9t47 22.5t33.5 31.5q22 29 33 71.5t15 144.5h-372z M444 860h370q-5 83 -16 120.5t-31 63.5q-21 26 -57 43.5t-81 17.5t-81 -17t-56 -44q-14 -18 -22 -35.5t-15 -54.5t-11 -94z" />
<glyph unicode="&#x473;" horiz-adv-x="1080" d="M84 529q0 156 25.5 245t91.5 160q127 135 339 135q214 0 341 -135q34 -36 55.5 -74t35 -87t19 -107t5.5 -137q0 -80 -5.5 -138t-19 -106.5t-35 -86.5t-55.5 -74q-127 -136 -341 -136q-212 0 -339 136q-66 72 -91.5 160t-25.5 245zM411 424q4 -77 42 -115q30 -30 87.5 -30 t87.5 30q38 38 42 115h-259zM412 639h257q-4 72 -42 110q-30 30 -86.5 30t-86.5 -30q-38 -38 -42 -110z" />
<glyph unicode="&#x474;" horiz-adv-x="1155" d="M39 1278q6 43 36 74t64.5 43t65.5 12q63 0 103 -40q20 -20 31.5 -43.5t31.5 -82.5l207 -639l207 639q19 57 31 81t33 45q40 40 101 40q32 0 66 -12t64.5 -43t35.5 -74q4 -30 -1 -57.5t-23 -80.5l-328 -983q-17 -51 -32.5 -78t-36.5 -45q-45 -42 -117 -42t-117 42 q-21 18 -36 44.5t-32 78.5l-329 983q-18 54 -23 81.5t-2 56.5z" />
<glyph unicode="&#x475;" horiz-adv-x="929" d="M31.5 931q0.5 18 5.5 34q14 43 56.5 72t95.5 29q19 0 35 -3.5t28.5 -11t22.5 -14.5t19 -21t15 -22.5t13 -26.5t10 -27t10 -28l123 -378l123 378q7 21 11 32t12 30t15.5 29.5t19.5 24.5t25 20.5t31 12t39 5.5q35 0 67 -13.5t54 -36.5t31 -51q5 -16 5.5 -34t-4 -39.5 t-8.5 -35.5t-12 -39l-223 -660q-17 -51 -32.5 -78t-36.5 -45q-46 -42 -117.5 -42t-116.5 42q-21 18 -36 44.5t-33 78.5l-223 660q-8 23 -12.5 38.5t-8.5 36.5t-3.5 39z" />
<glyph unicode="&#x490;" horiz-adv-x="1089" d="M139 224v964q0 35 2 56.5t13.5 53t33.5 54t54 34t53 13t56 1.5h370v73q0 60 3.5 86.5t15.5 52.5q18 35 56 57t86 22t86 -22t55 -57q13 -26 16.5 -52.5t3.5 -86.5v-168q0 -36 -2 -56.5t-13 -52.5t-33.5 -54.5t-54.5 -33.5t-52.5 -13t-56.5 -2h-345v-869q0 -64 -3.5 -91 t-18.5 -56q-20 -38 -60 -61.5t-91 -23.5t-92 23.5t-60 61.5q-15 29 -18.5 56t-3.5 91z" />
<glyph unicode="&#x491;" horiz-adv-x="870" d="M122 210v651q0 33 1.5 52t12 49t31.5 51t51 31.5t49 12t52 1.5h220v30q0 36 1.5 58t5.5 38.5t12 32.5q11 22 30.5 38t45.5 25t55 9q44 0 79.5 -19.5t52.5 -52.5q11 -24 14.5 -49.5t3.5 -79.5v-118q0 -55 -3.5 -81t-14.5 -50q-11 -22 -30.5 -38t-45.5 -25t-56 -9h-245 v-557q0 -59 -3.5 -86t-16.5 -53q-17 -35 -55 -57t-86 -22t-86 22t-56 57q-12 26 -15.5 52.5t-3.5 86.5z" />
<glyph unicode="&#x492;" horiz-adv-x="1159" d="M17 706q0 16 3 30.5t8.5 27.5t13.5 24t18 19.5t22 14.5q22 11 44.5 14t74.5 3v349q0 36 1.5 56.5t12.5 52.5t33.5 54.5t54.5 34t52.5 13t56.5 1.5h494q39 0 59.5 -1.5t37.5 -5t35 -12.5q33 -16 54 -53t21 -82q0 -22 -6 -43.5t-16 -38.5t-23.5 -30.5t-29.5 -21.5 q-25 -12 -50.5 -15.5t-81.5 -3.5h-360v-254h154q50 0 72.5 -3t44.5 -14q29 -15 46.5 -46t17.5 -70.5t-17.5 -70.5t-46.5 -46q-22 -11 -44.5 -14t-72.5 -3h-154v-348q0 -66 -3 -92t-18 -55q-19 -38 -60 -61.5t-91.5 -23.5t-91.5 23.5t-60 61.5q-15 29 -18 55t-3 92v348h-2 q-50 0 -72.5 3t-44.5 14q-20 10 -34.5 27t-22.5 40t-8 50z" />
<glyph unicode="&#x493;" horiz-adv-x="955" d="M32 538.5q0 37.5 15.5 66t44.5 42.5q20 9 41 12t66 3v199q0 33 1.5 52t12 49t31.5 51q16 16 35 26t41.5 13.5t36.5 4.5t39 1h332q52 0 77 -3.5t48 -14.5q32 -17 51.5 -51t19.5 -77t-19.5 -77t-51.5 -51q-22 -11 -47 -14t-78 -3h-207v-105h66q44 0 65 -3t41 -12 q29 -14 45 -42.5t16 -66t-16 -65.5t-45 -42q-21 -10 -42 -13t-64 -3h-66v-205q0 -59 -3.5 -86t-16.5 -53q-18 -35 -55.5 -57t-85.5 -22t-86 22t-56 57q-13 26 -16 52.5t-3 86.5v205q-44 0 -65 3t-42 13q-29 14 -44.5 42t-15.5 65.5z" />
<glyph unicode="&#x496;" horiz-adv-x="2002" d="M49 150q0 38 16 68.5t61 84.5l356 427l-326 366q-44 52 -60 84t-16 71q0 66 59 116q48 40 105 40q47 0 79.5 -23t80.5 -81l352 -424h31v297q0 64 3.5 91t18.5 56q13 25 35 43.5t52 29.5t64 11q51 0 92 -23.5t60 -60.5q15 -29 18.5 -56t3.5 -91v-297h30l353 424 q48 58 80.5 81t79.5 23q56 0 104 -40q60 -51 60 -116q0 -39 -16 -71t-61 -84l-325 -366l356 -424q48 0 86 -21t55 -57q7 -13 11 -25.5t6 -29t2.5 -35.5t0.5 -50v-161q0 -41 -1 -63.5t-5.5 -40t-13.5 -35.5q-17 -36 -55 -57.5t-86 -21.5t-86 22t-56 57q-12 25 -15.5 51.5 t-3.5 87.5v85q-28 18 -85 85l-385 459h-30v-332q0 -64 -3.5 -91t-18.5 -56q-19 -38 -60 -61.5t-92 -23.5t-91.5 23.5t-59.5 61.5q-15 29 -18.5 56t-3.5 91v332h-31l-383 -459q-47 -58 -80 -81.5t-80 -23.5q-56 0 -104 41q-60 51 -60 117z" />
<glyph unicode="&#x497;" horiz-adv-x="1615" d="M51 140q0 30 17 60.5t57 75.5l233 264l-218 241q-40 44 -56.5 75.5t-16.5 64.5q0 61 52 107q43 38 98 38q26 0 49.5 -10.5t44.5 -29t50 -52.5l256 -293h3v167q0 59 4 86t16 53q18 35 55.5 57t85.5 22t86.5 -22t56.5 -57q12 -26 15.5 -52.5t3.5 -86.5v-167h3l256 293 q43 50 74 71t70 21q55 0 98 -38q53 -47 53 -107q0 -33 -17 -64.5t-57 -75.5l-218 -241l221 -249q43 -1 78 -20.5t52 -52.5q11 -24 14.5 -50t3.5 -80v-118v-37t-1.5 -29t-3.5 -24t-5 -19.5t-8 -19.5q-17 -33 -52 -53t-79 -20t-79.5 20t-52.5 53q-11 24 -15 50t-4 79v56 q-17 14 -56 58l-271 308h-4v-182q0 -60 -3.5 -86.5t-15.5 -52.5q-18 -35 -56.5 -57t-86.5 -22t-85.5 22t-55.5 57q-12 26 -16 53t-4 86v182h-4l-271 -308q-46 -53 -74 -72.5t-67 -19.5q-53 0 -98 40q-55 48 -55 108z" />
<glyph unicode="&#x49a;" horiz-adv-x="1353" d="M139 224v952q0 64 3.5 91t18.5 56q19 37 60 60.5t92 23.5q34 0 64 -11t52 -29.5t35 -43.5q15 -29 18.5 -56t3.5 -91v-297h31l352 424q51 61 82.5 82.5t71.5 21.5q60 0 109 -41q28 -24 44.5 -56t16.5 -66q0 -26 -7 -47t-22.5 -42.5t-47.5 -58.5l-325 -366l354 -424 q48 0 86 -21t55 -57q13 -25 17 -52.5t4 -87.5v-161q0 -59 -4 -86t-17 -53q-17 -36 -55 -57.5t-86 -21.5t-85.5 21.5t-55.5 57.5q-13 26 -16.5 53t-3.5 86v85q-28 18 -84 85l-383 459h-31v-332q0 -64 -3.5 -91t-18.5 -56q-20 -38 -60 -61.5t-91 -23.5t-92 23.5t-60 61.5 q-15 29 -18.5 56t-3.5 91z" />
<glyph unicode="&#x49b;" horiz-adv-x="1117" d="M122 210v638q0 60 3.5 86.5t15.5 52.5q18 35 56 57t86 22q24 0 46.5 -6t40.5 -16.5t32 -25t22 -31.5q9 -18 13.5 -36t5.5 -40.5t1 -62.5v-167h4l256 293q44 52 73 72t68 20q54 0 99 -40q53 -48 53 -109q0 -30 -16.5 -60t-56.5 -76l-216 -241l218 -249q44 0 79.5 -20 t52.5 -53q11 -24 14.5 -50t3.5 -80v-118q0 -54 -3.5 -79.5t-14.5 -49.5q-11 -22 -30.5 -38.5t-45.5 -25.5t-56 -9q-17 0 -34 3.5t-31.5 9.5t-27.5 15t-22.5 20.5t-16.5 24.5q-11 24 -14.5 49.5t-3.5 79.5v56q-18 14 -56 58l-272 308h-4v-182q0 -59 -3.5 -86t-16.5 -53 q-17 -35 -55 -57t-86 -22t-86 22t-56 57q-12 26 -15.5 52.5t-3.5 86.5z" />
<glyph unicode="&#x49c;" horiz-adv-x="1532" d="M139 224v952q0 64 3.5 91t18.5 56q19 37 60 60.5t92 23.5q34 0 64 -11t52 -29.5t35 -43.5q15 -29 18.5 -56t3.5 -91v-297h86v58q0 50 3 72.5t14 44.5q15 29 46 46t70.5 17t70.5 -17t46 -46q7 -15 11 -30.5t5 -34t1 -52.5v-58h60l220 391q19 33 32 52t34 41.5t47 33 t57 10.5q44 0 88 -24q84 -49 84 -137q0 -31 -10.5 -59.5t-41.5 -82.5l-222 -384l245 -424q21 -36 31.5 -59t15 -42.5t4.5 -40.5q0 -89 -84 -138q-44 -24 -87 -24q-25 0 -47.5 8.5t-38.5 20t-32.5 31.5t-26.5 36t-25 42l-241 426h-62v-79q0 -50 -3 -72.5t-14 -44.5 q-15 -29 -46 -46.5t-70.5 -17.5t-70.5 17.5t-46 46.5q-11 22 -14 44.5t-3 72.5v79h-86v-332q0 -64 -3.5 -91t-18.5 -56q-20 -38 -60 -61.5t-91 -23.5t-92 23.5t-60 61.5q-15 29 -18.5 56t-3.5 91z" />
<glyph unicode="&#x49d;" horiz-adv-x="1332" d="M122 210v638q0 60 3.5 86.5t15.5 52.5q18 35 56 57t86 22q24 0 46.5 -6t40.5 -16.5t32 -25t22 -31.5q9 -18 13.5 -36t5.5 -40.5t1 -62.5v-167h65v42q0 43 3 64t13 41q14 29 42 45.5t66 16.5q24 0 45.5 -7.5t37.5 -21t25 -33.5q10 -20 12.5 -40.5t2.5 -64.5v-42h38 l166 265q41 65 72.5 92.5t80.5 27.5q39 0 86 -28q23 -14 40.5 -34t26.5 -42.5t9 -44.5q0 -29 -12 -58t-43 -76l-163 -248l172 -260q30 -46 41.5 -76.5t11.5 -62.5q0 -71 -74 -118q-43 -26 -84 -26q-49 0 -81.5 27.5t-72.5 92.5l-174 280h-40v-48q0 -31 -1 -49t-4 -30.5 t-10 -26.5q-14 -29 -42.5 -45t-66 -16t-65.5 16t-42 45q-6 14 -9.5 26.5t-5 31t-1.5 48.5v48h-65v-182q0 -59 -3.5 -86t-16.5 -53q-17 -35 -55 -57t-86 -22t-86 22t-56 57q-12 26 -15.5 52.5t-3.5 86.5z" />
<glyph unicode="&#x4a2;" horiz-adv-x="1405" d="M139 224v952q0 64 3.5 91t18.5 56q19 37 60 60.5t92 23.5q34 0 64 -11t52 -29.5t35 -43.5q15 -29 18.5 -56t3.5 -91v-315h366v315q0 47 0.5 66t5 40t15.5 41q19 37 60 60.5t91.5 23.5t91.5 -23.5t60 -60.5q15 -29 18 -55t3 -92v-870q48 0 86.5 -21t55.5 -57 q13 -25 16 -52t3 -88v-161q0 -61 -3 -87.5t-16 -51.5q-8 -17 -22.5 -31.5t-32.5 -25t-40.5 -16.5t-46.5 -6q-48 0 -85.5 21.5t-55.5 57.5q-13 26 -16.5 53t-3.5 86v65h-12q-50 0 -91 23.5t-60 61.5q-15 29 -18 55t-3 92v331h-366v-331q0 -64 -3.5 -91t-18.5 -56 q-20 -38 -60 -61.5t-91 -23.5t-92 23.5t-60 61.5q-15 29 -18.5 56t-3.5 91z" />
<glyph unicode="&#x4a3;" horiz-adv-x="1207" d="M122 210v638q0 60 3.5 86.5t15.5 52.5q18 35 56 57t86 22q24 0 46.5 -6t40.5 -16.5t32 -25t22 -31.5q9 -18 13.5 -36t5.5 -40.5t1 -62.5v-165h250v165q0 60 3.5 86.5t15.5 52.5q18 35 56 57t86 22t86 -22t55 -57q13 -26 17 -53t4 -86v-557q29 0 55 -9.5t45.5 -25.5 t30.5 -38q8 -17 12 -33.5t5 -38t1 -58.5v-118q0 -28 -0.5 -45.5t-2.5 -33t-5.5 -27t-9.5 -23.5q-17 -33 -52 -53t-79 -20t-79.5 20t-52.5 53q-6 12 -9.5 23.5t-5.5 27t-3 33.5t-1 45v22h-11q-48 0 -86 22t-56 57q-12 26 -15.5 52.5t-3.5 86.5v186h-250v-186q0 -59 -3.5 -86 t-16.5 -53q-17 -35 -55 -57t-86 -22t-86 22t-56 57q-12 26 -15.5 52.5t-3.5 86.5z" />
<glyph unicode="&#x4ae;" horiz-adv-x="1094" d="M37 1255q0 39 24 75t68 58q38 19 80 19q45 0 82 -26q16 -11 27.5 -26t21.5 -33t30 -57l177 -361l179 361l22.5 45t17 30t18.5 23.5t20 17.5q37 26 82 26q42 0 81 -19q43 -22 67 -58t24 -75q0 -29 -9 -54t-36 -80l-292 -583v-314q0 -64 -3.5 -91t-18.5 -56 q-19 -38 -60 -61.5t-91.5 -23.5t-91 23.5t-60.5 61.5q-14 29 -18 56t-4 91v314l-291 583q-28 55 -37 80t-9 54z" />
<glyph unicode="&#x4af;" horiz-adv-x="1019" d="M33 941q5 53 52.5 89t105.5 36q54 0 89 -33q19 -18 31.5 -41.5t31.5 -73.5l167 -460l168 460q19 50 31.5 73.5t30.5 41.5q36 33 89 33q58 0 106 -36t53 -89q2 -27 -4 -54t-24 -75l-288 -776v-168q0 -60 -3.5 -87t-15.5 -53q-18 -35 -56 -56.5t-86 -21.5q-32 0 -60.5 10 t-49 27.5t-31.5 40.5q-6 11 -9 21.5t-5.5 21t-3.5 26t-1.5 31t-0.5 40.5v168l-290 776q-18 47 -24 74t-3 55z" />
<glyph unicode="&#x4b0;" horiz-adv-x="1094" d="M37 1255q0 39 24 75t68 58q38 19 80 19q45 0 82 -26q16 -11 27.5 -26t21.5 -33t30 -57l177 -361l179 361l22.5 45t17 30t18.5 23.5t20 17.5q37 26 82 26q42 0 81 -19q43 -22 67 -58t24 -75q0 -29 -9 -54t-36 -80l-292 -583h4q50 0 72.5 -3.5t44.5 -14.5q29 -14 46 -45 t17 -71t-17 -70.5t-46 -45.5q-22 -11 -44.5 -14t-72.5 -3h-4v-47q0 -64 -3.5 -91t-18.5 -56q-19 -38 -60 -61.5t-91.5 -23.5t-91 23.5t-60.5 61.5q-14 29 -18 56t-4 91v47h-3q-50 0 -72.5 3t-45.5 14q-19 10 -33 26.5t-22 40t-8 49.5q0 40 17 71t46 45q16 8 31.5 11.5 t33.5 5t53 1.5h3l-291 583q-28 55 -37 80t-9 54z" />
<glyph unicode="&#x4b1;" horiz-adv-x="1019" d="M33 941q5 53 52.5 89t105.5 36q54 0 89 -33q19 -18 31.5 -41.5t31.5 -73.5l167 -460l168 460q19 50 31.5 73.5t30.5 41.5q36 33 89 33q58 0 106 -36t53 -89q2 -27 -4 -54t-24 -75l-288 -759h43q45 0 66 -3t41 -13q29 -13 45 -42t16 -66t-16 -65.5t-45 -42.5 q-21 -9 -42 -12.5t-65 -3.5h-44q-3 -44 -18 -77q-18 -35 -56 -56.5t-86 -21.5q-32 0 -60.5 10t-49 27.5t-31.5 40.5q-16 33 -19 77h-45q-43 0 -64 3.5t-41 12.5q-29 14 -45.5 42.5t-16.5 65.5t16.5 66t45.5 42q14 7 26.5 10t30.5 4.5t48 1.5h44l-290 759q-18 47 -24 74 t-3 55z" />
<glyph unicode="&#x4b2;" horiz-adv-x="1224" d="M52 160q2 30 12.5 55.5t43.5 81.5l245 423l-223 383q-32 55 -42.5 80.5t-12.5 55.5q-2 41 21 80.5t66 63.5q45 24 91 24q21 0 38 -4t32 -13.5t26.5 -20t24.5 -28t22.5 -33t23.5 -39.5l146 -259l146 259q21 37 35 57.5t34 41.5t43.5 30t53.5 9q47 0 93 -24 q28 -16 48.5 -40t30 -50.5t8.5 -53.5q-2 -29 -13 -54.5t-43 -81.5l-222 -383l248 -429q44 0 79.5 -20t52.5 -53q8 -17 12 -33.5t5.5 -38.5t1.5 -58v-118q0 -36 -1.5 -58t-5.5 -38.5t-12 -32.5q-11 -22 -30.5 -38.5t-46 -25.5t-55.5 -9t-55 9t-45.5 25.5t-30.5 38.5 q-12 24 -16 50t-4 79v30q-25 3 -45 13t-38 31t-30.5 39.5t-31.5 53.5l-166 294l-169 -300q-16 -30 -27 -47.5t-27 -37t-31 -30t-35.5 -17.5t-45.5 -7q-47 0 -92 24q-43 24 -66 64t-21 80z" />
<glyph unicode="&#x4b3;" horiz-adv-x="1003" d="M51 140q0 52 56 135l172 261l-163 247q-56 85 -56 134q0 34 20.5 66.5t55.5 54.5q48 28 87 28q49 0 80.5 -27.5t71.5 -92.5l90 -143l90 143q28 44 46.5 67t45 38t60.5 15q38 0 86 -28q23 -14 40.5 -34t26.5 -42.5t9 -44.5q0 -29 -12.5 -58t-42.5 -76l-163 -248l161 -244 q29 0 55.5 -9.5t46 -25.5t30.5 -38q11 -24 14.5 -50t3.5 -80v-118q0 -37 -1.5 -58t-5.5 -38t-11 -33q-11 -22 -30.5 -38.5t-46 -25.5t-55.5 -9q-44 0 -79.5 20t-51.5 53q-12 24 -16 50t-4 79v33q-25 11 -47 36.5t-50 72.5l-99 162l-99 -162q-41 -65 -72.5 -92.5t-80.5 -27.5 q-40 0 -86 27q-35 22 -55.5 54.5t-20.5 66.5z" />
<glyph unicode="&#x4b6;" horiz-adv-x="1347" d="M110 804v372q0 47 1 66t5.5 40t15.5 41q19 37 59.5 60.5t91.5 23.5t92 -23.5t60 -60.5q15 -29 18 -55t3 -92v-276q0 -38 15 -66t44.5 -42.5t71.5 -14.5q108 0 207 17v382q0 64 3.5 91t18.5 56q13 24 35 43t52.5 30t64.5 11q50 0 90.5 -23t59.5 -61q11 -21 15.5 -41 t5.5 -40.5t1 -65.5v-870q33 0 61 -9.5t48.5 -27t32.5 -41.5q12 -25 16 -52.5t4 -87.5v-161q0 -59 -4 -86t-16 -53q-18 -36 -56 -57.5t-86 -21.5t-86 22t-56 57q-12 25 -15.5 51.5t-3.5 87.5v65h-11q-51 0 -92 23.5t-60 61.5q-15 29 -18.5 56t-3.5 91v273q-174 -29 -317 -29 q-73 0 -139 22.5t-116.5 64.5t-81 107t-30.5 142z" />
<glyph unicode="&#x4b7;" horiz-adv-x="1162" d="M96 610v238q0 59 3.5 86t16.5 53q18 35 55.5 57t85.5 22t86.5 -22t55.5 -57q13 -26 16.5 -52.5t3.5 -86.5v-142q0 -44 25.5 -69t71.5 -25q32 0 133 11v225q0 60 3.5 86.5t15.5 52.5q18 35 56 57t86 22t86 -22t55 -57q7 -14 11 -26t6 -28.5t3 -35.5t1 -49v-557 q29 0 55 -9.5t45.5 -25.5t30.5 -38q11 -24 14.5 -50t3.5 -80v-118q0 -54 -3.5 -79.5t-14.5 -49.5q-17 -33 -52.5 -53t-79.5 -20t-79.5 20t-52.5 53q-11 24 -14.5 49.5t-3.5 79.5v22h-11q-48 0 -86 22t-56 57q-12 26 -15.5 52.5t-3.5 86.5v140q-146 -22 -262 -22 q-122 0 -206.5 78.5t-84.5 203.5z" />
<glyph unicode="&#x4b8;" horiz-adv-x="1381" d="M110 804v372q0 47 1 66t5.5 40t15.5 41q19 37 59.5 60.5t91.5 23.5t92 -23.5t60 -60.5q15 -29 18 -55t3 -92v-276q0 -58 16 -86.5t70 -34.5v77q0 34 1.5 53t5.5 34t12 30q14 30 45 47t71 17t70 -17t45 -47q11 -22 14.5 -45t3.5 -72v-71q49 4 86 9l1 382q0 47 0.5 66t5 40 t15.5 41q19 37 60 60.5t91.5 23.5t91.5 -23.5t60 -60.5q15 -29 18 -55t3 -92v-952q0 -66 -3 -92t-18 -55q-19 -38 -60 -61.5t-91.5 -23.5t-91.5 23.5t-60 61.5q-15 29 -18 55t-3 92v273l-87 -10v-91q0 -48 -3.5 -71t-14.5 -46q-15 -29 -45.5 -46.5t-70 -17.5t-70.5 17.5 t-45 46.5q-12 23 -15.5 46t-3.5 71v72h-80q-171 0 -261.5 87.5t-90.5 248.5z" />
<glyph unicode="&#x4b9;" horiz-adv-x="1240" d="M96 610v238q0 59 3.5 86t16.5 53q18 35 55.5 57t85.5 22t86.5 -22t55.5 -57q13 -26 16.5 -52.5t3.5 -86.5v-142q0 -75 65 -91v45q0 45 3 66t12 41q14 29 42.5 45t66.5 16q25 0 46 -7.5t36.5 -21t24.5 -32.5q10 -21 13.5 -42t3.5 -65v-42q34 2 64 5v225q0 59 3.5 86 t16.5 53q18 35 55.5 57t85.5 22t86.5 -22t55.5 -57q9 -18 13 -36t5 -40t1 -63v-638q0 -60 -3 -86.5t-16 -52.5q-17 -35 -55.5 -57t-86.5 -22t-85.5 22t-55.5 57q-13 26 -16.5 53t-3.5 86v141q-47 -6 -64 -7v-62q0 -30 -2 -48.5t-5 -31t-10 -26.5q-7 -15 -17.5 -26t-24 -19 t-30.5 -12t-35 -4q-38 0 -66.5 16t-42.5 45q-9 20 -12 41t-3 65v47q-37 -1 -77 -1q-135 0 -223 78t-88 204z" />
<glyph unicode="&#x4ba;" horiz-adv-x="1279" d="M139 224v952q0 64 3.5 91t18.5 56q19 37 60 60.5t92 23.5q34 0 64 -11t52 -29.5t35 -43.5q15 -29 18.5 -56t3.5 -91v-274q174 30 318 30q72 0 138 -22.5t117 -64.5t81 -106.5t30 -142.5v-372q0 -64 -3.5 -91t-18.5 -56q-19 -38 -60 -61.5t-91.5 -23.5t-91 23.5 t-59.5 61.5q-15 29 -18.5 56t-3.5 91v275q0 59 -34 91.5t-97 32.5q-108 0 -207 -17v-382q0 -64 -3.5 -91t-18.5 -56q-20 -38 -60 -61.5t-91 -23.5t-92 23.5t-60 61.5q-15 29 -18.5 56t-3.5 91z" />
<glyph unicode="&#x4bb;" d="M122 210v638q0 60 3.5 86.5t15.5 52.5q18 35 56 57t86 22q24 0 46.5 -6t40.5 -16.5t32 -25t22 -31.5q9 -18 13.5 -36t5.5 -40.5t1 -62.5v-140q146 22 262 22q122 0 206 -79t84 -203v-238q0 -60 -3 -86.5t-16 -52.5q-17 -35 -55.5 -57t-86.5 -22q-32 0 -60 10.5t-48.5 28 t-32.5 40.5q-13 26 -16.5 53t-3.5 86v142q0 29 -11.5 50.5t-33 32.5t-51.5 11q-53 0 -134 -11v-225q0 -59 -3.5 -86t-16.5 -53q-17 -35 -55 -57t-86 -22t-86 22t-56 57q-12 26 -15.5 52.5t-3.5 86.5z" />
<glyph unicode="&#x4c0;" horiz-adv-x="624" d="M139 224v952q0 64 3.5 91t18.5 56q19 37 60 60.5t92 23.5q34 0 64 -11t52 -29.5t35 -43.5q15 -29 18.5 -56t3.5 -91v-952q0 -64 -3.5 -91t-18.5 -56q-20 -38 -60 -61.5t-91 -23.5t-92 23.5t-60 61.5q-15 29 -18.5 56t-3.5 91z" />
<glyph unicode="&#x4cf;" horiz-adv-x="565" d="M122 211v978q0 26 0.5 41.5t1.5 30.5t3 25.5t5.5 21t8.5 21.5q18 35 56 56.5t86 21.5t86 -21.5t55 -56.5q13 -26 16.5 -53t3.5 -87v-978q0 -59 -3.5 -86t-16.5 -53q-17 -35 -55 -57t-86 -22t-86 22t-56 57q-12 26 -15.5 52.5t-3.5 86.5z" />
<glyph unicode="&#x4d8;" horiz-adv-x="1240" d="M98 551v18q0 35 2 56.5t13.5 53t33.5 54t54 33.5t53 12.5t56 1.5h490q-2 122 -15 176.5t-38 87.5q-48 61 -124 61q-50 0 -86 -22t-65 -74q-24 -43 -43.5 -68t-45.5 -44q-41 -29 -94 -29q-70 0 -119 49q-46 46 -46 129q0 55 34.5 125t111.5 137q64 55 146 79t205 24 q120 0 213.5 -38t169.5 -114q30 -30 52.5 -65t38 -66t25.5 -76t15 -76.5t7.5 -87.5t3 -89t0.5 -99q0 -63 -0.5 -99t-3.5 -89.5t-8.5 -87t-16 -77t-25.5 -75.5t-38 -66.5t-53 -64.5q-77 -77 -170.5 -115t-218.5 -38q-82 0 -145.5 15t-121 49.5t-117.5 93.5q-130 130 -130 405 zM425 523q3 -38 7.5 -66t11 -47t13 -30t15.5 -24q21 -27 57 -44t81.5 -17t81.5 17t57 44q19 25 30 59.5t16 107.5h-370z" />
<glyph unicode="&#x4d9;" horiz-adv-x="1093" d="M72 450q-4 96 43 143q18 18 43 27.5t42.5 11t47.5 1.5h455q0 69 -51 118.5t-139 49.5q-87 0 -160 -48q-61 -42 -112 -42q-46 0 -87 40.5t-41 94.5q0 76 100 145q115 78 303 78q54 0 102 -5.5t100 -21.5t95 -41.5t82 -67.5t66 -97t43 -133.5t16 -173.5 q0 -127 -35.5 -229.5t-98.5 -170.5t-150 -104.5t-191 -36.5q-107 0 -196 37t-147.5 100.5t-92 146.5t-37.5 178zM388 419q0 -45 18 -83q40 -83 139 -83q102 0 140 83q18 39 18 83h-315z" />
<glyph unicode="&#x4e2;" horiz-adv-x="1375" d="M139 205v971q0 64 3.5 91t18.5 56q19 37 60 60.5t92 23.5q34 0 64 -11t52 -29.5t35 -43.5q15 -29 18.5 -56t3.5 -91v-519l376 593q56 88 100.5 122.5t105.5 34.5q73 0 122 -49q28 -27 37 -66t9 -98v-970q0 -66 -3 -92t-18 -55q-19 -38 -60 -61.5t-91.5 -23.5t-91.5 23.5 t-60 61.5q-15 29 -18 55t-3 92v519l-376 -592q-56 -88 -101 -123.5t-106 -35.5q-73 0 -122 49q-19 20 -30 47t-14 53.5t-3 63.5zM360 1701q0 25 7 46t20.5 37t32.5 25q21 9 42 12.5t65 3.5h323q43 0 63.5 -3.5t41.5 -12.5q29 -14 45.5 -42.5t16.5 -65.5t-16.5 -66t-45.5 -42 q-21 -10 -41.5 -13.5t-63.5 -3.5h-323q-44 0 -65 3.5t-42 13.5q-28 13 -44 42t-16 66z" />
<glyph unicode="&#x4e3;" horiz-adv-x="1160" d="M122 189v659q0 60 3.5 86.5t15.5 52.5q18 35 56 57t86 22q24 0 46.5 -6t40.5 -16.5t32 -25t22 -31.5q9 -18 13.5 -36t5.5 -40.5t1 -62.5v-298l242 363q29 43 51.5 70.5t46 46.5t47 27.5t52.5 8.5q66 0 108 -42q27 -27 37.5 -64t10.5 -91v-659q0 -60 -3.5 -86.5 t-15.5 -52.5q-18 -35 -56.5 -57t-86.5 -22t-85.5 22t-55.5 57q-12 26 -16 53t-4 86v297l-241 -362q-38 -57 -67 -89t-60 -48t-70 -16q-67 0 -108 42q-28 27 -38 64t-10 91zM257 1360.5q0 37.5 16.5 66t45.5 42.5q20 9 40.5 12t64.5 3h323q45 0 65.5 -3t40.5 -12 q29 -14 45 -42.5t16 -66t-16 -66t-45 -41.5q-20 -10 -41 -13.5t-65 -3.5h-323q-43 0 -64 3.5t-41 13.5q-29 14 -45.5 42t-16.5 65.5z" />
<glyph unicode="&#x4e8;" horiz-adv-x="1257" d="M94 700q0 63 0.5 99t3.5 89t8.5 87t16 77.5t25.5 75.5t38 66.5t53 64.5q77 76 171 114t219 38t219.5 -38t171.5 -114q29 -30 52 -64.5t38 -66.5t25.5 -76t16 -77t8.5 -87t3.5 -89t0.5 -99t-0.5 -99t-3.5 -89t-8.5 -87.5t-16 -77.5t-25.5 -75.5t-38 -66t-52 -64.5 q-77 -77 -171.5 -115t-219.5 -38t-219 38t-171 115q-23 23 -42 49t-33.5 51t-25.5 56t-18 57t-12 63t-8 64t-4 70t-1.5 71.5t-0.5 77.5zM443 574q2 -71 9.5 -114.5t15.5 -62.5t24 -39q21 -27 56.5 -45t80.5 -18q30 0 57.5 9t47 22.5t33.5 31.5q22 29 33 71.5t15 144.5h-372z M444 860h370q-5 83 -16 120.5t-31 63.5q-21 26 -57 43.5t-81 17.5t-81 -17t-56 -44q-14 -18 -22 -35.5t-15 -54.5t-11 -94z" />
<glyph unicode="&#x4e9;" horiz-adv-x="1080" d="M84 529q0 156 25.5 245t91.5 160q127 135 339 135q214 0 341 -135q34 -36 55.5 -74t35 -87t19 -107t5.5 -137q0 -80 -5.5 -138t-19 -106.5t-35 -86.5t-55.5 -74q-127 -136 -341 -136q-212 0 -339 136q-66 72 -91.5 160t-25.5 245zM411 424q4 -77 42 -115q30 -30 87.5 -30 t87.5 30q38 38 42 115h-259zM412 639h257q-4 72 -42 110q-30 30 -86.5 30t-86.5 -30q-38 -38 -42 -110z" />
<glyph unicode="&#x4ee;" horiz-adv-x="1071" d="M38 1253q-3 30 8 55t35 48q51 51 123 51q60 0 97 -34q22 -19 34.5 -43t34.5 -82l166 -451l166 451q22 58 34.5 82t33.5 43q37 34 97 34q73 0 124 -51q24 -23 34.5 -48t7.5 -55t-9.5 -53.5t-21.5 -62.5l-317 -850q-50 -133 -141 -210t-224 -77h-28q-56 0 -81.5 3t-50.5 15 q-33 16 -54 53.5t-21 82t21 81.5t54 53q24 11 48.5 14.5t72.5 3.5q59 0 85 48l-297 783q-15 39 -21.5 62.5t-9.5 53.5zM206 1701q0 37 16.5 65.5t45.5 42.5q14 6 26.5 9.5t30.5 5t48 1.5h323q44 0 65 -3.5t42 -12.5q28 -14 44 -42t16 -66q0 -25 -7 -46t-20.5 -37t-32.5 -25 q-15 -7 -27.5 -10.5t-31 -5t-48.5 -1.5h-323q-43 0 -63.5 3.5t-41.5 13.5q-29 13 -45.5 42t-16.5 66z" />
<glyph unicode="&#x4ef;" horiz-adv-x="929" d="M31.5 931q0.5 18 5.5 34q14 43 56.5 72t95.5 29q29 0 52.5 -10t38.5 -22.5t27.5 -36t19 -40.5t15.5 -45l123 -407l123 407q8 28 14.5 45t19.5 40t28 36.5t38.5 23t52.5 9.5q35 0 67 -13.5t54 -36.5t31 -51q5 -16 5.5 -34t-4 -39.5t-8.5 -35.5t-12 -39l-326 -947 q-29 -83 -82 -140q-86 -88 -230 -88q-108 0 -148 39q-43 43 -43 107q0 76 47 114q22 18 42 23.5t57 5.5q65 0 92 81l22 67l-249 738q-8 23 -12.5 38.5t-8.5 36.5t-3.5 39zM136 1360.5q0 37.5 16.5 66t45.5 42.5q20 9 40.5 12t64.5 3h323q45 0 65.5 -3t40.5 -12 q29 -14 45 -42.5t16 -66t-16 -66t-45 -41.5q-20 -10 -41 -13.5t-65 -3.5h-323q-43 0 -63.5 3.5t-41.5 13.5q-29 14 -45.5 42t-16.5 65.5z" />
<glyph unicode="&#x2013;" d="M88 579q0 29 9.5 54.5t25.5 44t36 29.5q24 11 49 14.5t77 3.5h523q36 0 57 -1.5t37 -5.5t32 -11q32 -17 51.5 -51t19.5 -77t-19.5 -77.5t-51.5 -50.5q-16 -7 -32.5 -11t-36.5 -5t-57 -1h-523q-54 0 -78.5 3t-47.5 14q-20 11 -36 29.5t-25.5 44t-9.5 54.5z" />
<glyph unicode="&#x2014;" horiz-adv-x="2148" d="M88 580q0 28 9.5 54t25.5 44.5t36 29.5q24 11 49 14.5t77 3.5h1579q36 0 57 -1.5t37 -5.5t32 -11q32 -17 51 -51t19 -77t-19 -77.5t-51 -50.5q-16 -8 -32.5 -11.5t-36.5 -4.5t-57 -1h-1579q-54 0 -78.5 3t-47.5 14q-8 5 -16.5 11t-15.5 13.5t-13 16.5t-10.5 19t-8 20.5 t-5.5 22.5t-2 25z" />
<glyph unicode="&#x2018;" horiz-adv-x="594" d="M86 909q-3 29 2 57t23 82l66 197q13 39 21 59t18 36.5t24 30.5q40 40 102 40q31 0 65.5 -12.5t64.5 -43.5t36 -73q3 -30 -1.5 -57.5t-22.5 -81.5l-66 -197q-20 -59 -31 -82.5t-32 -43.5q-40 -40 -103 -40q-31 0 -65.5 12t-64.5 43t-36 74z" />
<glyph unicode="&#x2019;" horiz-adv-x="594" d="M86 909q-3 29 2 57t23 82l66 197q13 39 21 59t18 36.5t24 30.5q40 40 102 40q31 0 65.5 -12.5t64.5 -43.5t36 -73q3 -30 -1.5 -57.5t-22.5 -81.5l-66 -197q-20 -59 -31 -82.5t-32 -43.5q-40 -40 -103 -40q-31 0 -65.5 12t-64.5 43t-36 74z" />
<glyph unicode="&#x201a;" horiz-adv-x="594" d="M86 -155q-3 30 2 58t23 82l66 196q19 58 31 82.5t32 44.5q39 40 102 40q31 0 65.5 -12.5t64.5 -43.5t36 -74q3 -18 1 -37.5t-7.5 -42t-17.5 -58.5l-66 -198q-20 -58 -31 -82t-32 -44q-40 -40 -103 -40q-31 0 -65.5 12.5t-64.5 43.5t-36 73z" />
<glyph unicode="&#x201c;" horiz-adv-x="1081" d="M86 909q-3 29 2 57t23 82l66 197q13 39 21 59t18 36.5t24 30.5q40 40 102 40q31 0 65.5 -12.5t64.5 -43.5t36 -73q3 -30 -1.5 -57.5t-22.5 -81.5l-66 -197q-20 -59 -31 -82.5t-32 -43.5q-40 -40 -103 -40q-31 0 -65.5 12t-64.5 43t-36 74zM574 909q-3 29 2 57t23 82 l65 197q14 39 21.5 59t17.5 36.5t25 30.5q40 40 101 40q32 0 66 -12.5t64.5 -43.5t36.5 -73q3 -30 -1.5 -57.5t-22.5 -81.5l-67 -197q-19 -59 -30.5 -82.5t-31.5 -43.5q-40 -40 -103 -40q-31 0 -65.5 12t-65 43t-35.5 74z" />
<glyph unicode="&#x201d;" horiz-adv-x="1081" d="M86 909q-3 29 2 57t23 82l66 197q13 39 21 59t18 36.5t24 30.5q40 40 102 40q31 0 65.5 -12.5t64.5 -43.5t36 -73q3 -30 -1.5 -57.5t-22.5 -81.5l-66 -197q-20 -59 -31 -82.5t-32 -43.5q-40 -40 -103 -40q-31 0 -65.5 12t-64.5 43t-36 74zM574 909q-3 29 2 57t23 82 l65 197q14 39 21.5 59t17.5 36.5t25 30.5q40 40 101 40q32 0 66 -12.5t64.5 -43.5t36.5 -73q3 -30 -1.5 -57.5t-22.5 -81.5l-67 -197q-19 -59 -30.5 -82.5t-31.5 -43.5q-40 -40 -103 -40q-31 0 -65.5 12t-65 43t-35.5 74z" />
<glyph unicode="&#x201e;" horiz-adv-x="1081" d="M86 -155q-3 30 2 58t23 82l66 196q19 58 31 82.5t32 44.5q39 40 102 40q31 0 65.5 -12.5t64.5 -43.5t36 -74q3 -18 1 -37.5t-7.5 -42t-17.5 -58.5l-66 -198q-20 -58 -31 -82t-32 -44q-40 -40 -103 -40q-31 0 -65.5 12.5t-64.5 43.5t-36 73zM572.5 -126.5 q-0.5 12.5 3 29.5t9 35.5t14.5 46.5l65 196q20 58 31.5 82.5t32.5 44.5q39 40 101 40q32 0 66 -12.5t64.5 -43.5t36.5 -74q3 -30 -1.5 -57.5t-22.5 -80.5l-67 -198q-19 -58 -30.5 -82t-31.5 -44q-40 -40 -103 -40q-31 0 -65.5 12.5t-65 43.5t-35.5 73q-1 16 -1.5 28.5z" />
<glyph unicode="&#x2020;" horiz-adv-x="1108" d="M84 912q0 43 20 77t52 51q23 11 48 14.5t77 3.5h113v131q0 61 3 87.5t16 52.5q17 35 55.5 56.5t86.5 21.5q32 0 60 -10t48.5 -27.5t32.5 -40.5q12 -26 15.5 -52.5t3.5 -87.5v-131h113q35 0 56 -1.5t37 -5.5t32 -11q32 -17 51.5 -51t19.5 -77t-19.5 -77t-51.5 -51 q-23 -11 -47.5 -14t-77.5 -3h-113v-557q0 -60 -3.5 -86.5t-15.5 -52.5q-18 -35 -55.5 -57t-85.5 -22t-86.5 22t-55.5 57q-13 26 -16 52.5t-3 86.5v557h-113q-54 0 -78.5 3t-46.5 14q-21 11 -37 29.5t-25.5 44t-9.5 54.5z" />
<glyph unicode="&#x2021;" horiz-adv-x="1108" d="M84 146q0 43 20 77t52 51q22 11 46.5 14t78.5 3h113v476h-113q-54 0 -78.5 3t-46.5 14q-21 11 -37 29.5t-25.5 44t-9.5 54.5q0 43 20 77t52 51q23 11 48 14.5t77 3.5h113v131q0 61 3 87.5t16 52.5q17 35 55.5 56.5t86.5 21.5q32 0 60 -10t48.5 -27.5t32.5 -40.5 q12 -26 15.5 -52.5t3.5 -87.5v-131h113q35 0 56 -1.5t37 -5.5t32 -11q32 -17 51.5 -51t19.5 -77t-19.5 -77t-51.5 -51q-23 -11 -47.5 -14t-77.5 -3h-113v-476h113q27 0 43.5 -0.5t32 -2.5t26.5 -5.5t23 -8.5q32 -17 51.5 -51t19.5 -77t-19.5 -78t-51.5 -51 q-23 -11 -47.5 -14t-77.5 -3h-113v-132q0 -60 -3.5 -87t-15.5 -53q-18 -35 -55.5 -56.5t-85.5 -21.5t-86.5 21.5t-55.5 56.5q-13 26 -16 53t-3 87v132h-113q-54 0 -78.5 3t-46.5 14q-21 11 -37 30t-25.5 44.5t-9.5 54.5z" />
<glyph unicode="&#x2022;" d="M227 581q0 65 25 124.5t68 102.5t102 68t124 25q33 0 64.5 -6.5t60 -18.5t54.5 -29.5t47.5 -39t39.5 -47.5t30 -54.5t18.5 -60.5t6.5 -64q0 -87 -43 -161t-117 -117t-161 -43t-160.5 43t-116 117t-42.5 161z" />
<glyph unicode="&#x2026;" horiz-adv-x="1737" d="M83 200.5q0 85.5 60 146t146 60.5t146 -60.5t60 -146t-60 -146t-146 -60.5t-146 60.5t-60 146zM662 201q0 56 28 103.5t75.5 75t103.5 27.5q85 0 145.5 -60.5t60.5 -146t-60.5 -146t-146 -60.5t-146 60.5t-60.5 146.5zM1242 201q0 56 27.5 103.5t75 75t104.5 27.5 q85 0 145.5 -60.5t60.5 -146t-60.5 -146t-146 -60.5t-146 60.5t-60.5 146.5z" />
<glyph unicode="&#x2030;" horiz-adv-x="2415" d="M88 951v188q0 67 24.5 120.5t66 86t94 49t112.5 16.5t112.5 -16.5t94.5 -49t66.5 -86t24.5 -120.5v-188q0 -68 -24.5 -121t-66.5 -85.5t-94.5 -49t-112.5 -16.5t-112.5 16.5t-94 49t-66 85.5t-24.5 121zM317 959q0 -76 68 -76q69 0 69 76v172q0 76 -69 76q-68 0 -68 -76 v-172zM432 100q0 20 6 38.5t24 54.5l559 1115q11 19 17 30.5t12.5 21t12.5 15.5t14 12q27 20 60 20q25 0 53 -13q63 -32 63 -94q0 -20 -6 -38.5t-25 -54.5l-560 -1115q-19 -38 -29.5 -53t-25.5 -27q-28 -20 -60 -20q-25 0 -54 14q-61 31 -61 94zM1002 261v187 q0 68 24.5 121.5t66.5 86t94.5 49.5t112.5 17t112.5 -17t94 -49.5t65.5 -86t24 -121.5v-187q0 -68 -24 -121t-65.5 -85.5t-94 -49.5t-112.5 -17t-112.5 17t-94.5 49.5t-66.5 85.5t-24.5 121zM1231 270q0 -77 69 -77q68 0 68 77v171q0 76 -68 76q-69 0 -69 -76v-171z M1734 261v187q0 68 24.5 121.5t66 86t94.5 49.5t112.5 17t112 -17t94 -49.5t66 -86t24.5 -121.5v-187q0 -68 -24 -121t-66 -85.5t-94.5 -49.5t-112 -17t-112.5 17t-94.5 49.5t-66 85.5t-24.5 121zM1962 270q0 -77 69 -77t69 77v171q0 76 -69 76t-69 -76v-171z" />
<glyph unicode="&#x2039;" horiz-adv-x="738" d="M59 550l292 293q39 39 59.5 54t45.5 24q34 11 74 0t71 -42.5t42.5 -70.5t-0.5 -74q-8 -25 -24 -45.5t-55 -59.5l-78 -79l78 -78q39 -38 55 -59t24 -46q12 -35 0.5 -74.5t-42.5 -71t-71 -42.5t-74 1q-25 8 -45 23t-60 55z" />
<glyph unicode="&#x203a;" horiz-adv-x="738" d="M94.5 292.5q-11.5 39.5 0.5 74.5q4 13 10 23.5t15.5 23.5t21.5 25.5t32 32.5l78 78l-78 79q-39 39 -55 59.5t-24 45.5q-12 35 -0.5 74t43 70.5t71 42.5t73.5 0q26 -9 46 -24t59 -54l293 -293l-293 -292q-40 -40 -60 -55t-45 -23q-34 -12 -73.5 -1t-71 42.5t-43 71z" />
<glyph unicode="&#x2044;" horiz-adv-x="349" d="M-236 100q0 19 6 38t25 55l560 1115q20 38 30.5 53t25.5 26q27 20 58 20q27 0 55 -13q62 -32 62 -94q0 -20 -6 -39t-24 -54l-561 -1115q-19 -38 -29.5 -53t-25.5 -27q-28 -20 -60 -20q-25 0 -54 14q-62 32 -62 94z" />
<glyph unicode="&#x20ac;" horiz-adv-x="1333" d="M84 544q0 23 6.5 42t19.5 34t30 23q31 14 97 14h3v90h-3q-64 0 -97 14q-56 27 -56 98t56 98q33 15 97 15h15q11 87 42 157t90 130q77 76 170.5 114t216.5 38q87 0 149 -10t111 -33t92 -62q72 -65 103 -134.5t31 -125.5q0 -82 -49 -131q-48 -48 -118 -48q-54 0 -94 27 q-25 18 -45 44t-46 71q-29 52 -62 74t-80 22q-76 0 -124 -61q-25 -35 -35 -72h74q63 0 96 -15q55 -27 55 -98t-55 -98q-33 -14 -96 -14h-92v-90h92q65 0 96 -14q13 -6 23.5 -16t17.5 -22.5t10.5 -28t3.5 -32.5q0 -71 -55 -98q-31 -13 -96 -13h-75q10 -41 36 -77 q48 -61 124 -61q47 0 80 22t62 75q26 44 45.5 70t45.5 44q40 27 94 27q70 0 118 -48q49 -49 49 -131q0 -56 -31 -126t-103 -134q-64 -58 -144 -82t-208 -24q-123 0 -216.5 38t-170.5 115q-59 59 -90 130.5t-43 161.5h-14q-66 0 -97 13q-56 27 -56 98z" />
<glyph unicode="&#x2122;" horiz-adv-x="1912" d="M92 1298q0 30 13 53.5t36 34.5q28 14 88 14h383q60 0 88 -14q15 -7 26 -20t17 -30.5t6 -37.5q0 -30 -13 -53.5t-36 -34.5q-30 -15 -88 -15h-74v-485q0 -42 -3 -61t-12 -38q-13 -28 -40 -43.5t-63 -15.5q-23 0 -43 7t-35 20t-23 32q-9 19 -12.5 38.5t-3.5 60.5v485h-74 q-58 0 -88 15q-23 11 -36 34.5t-13 53.5zM857 710v533q0 24 1.5 39.5t10.5 41t27 42.5q42 41 101 41q44 0 74 -15q35 -17 64 -70l186 -334l187 334q29 53 63 70q30 15 73 15q61 0 103 -41q14 -13 22.5 -29.5t11.5 -35t4 -30t1 -28.5v-533q0 -21 -1 -35.5t-3 -26t-4.5 -19.5 t-7.5 -18q-13 -28 -39.5 -43.5t-62 -15.5t-62.5 15.5t-40 43.5q-9 19 -12 38t-3 61v280l-99 -188q-8 -17 -21.5 -30.5t-30 -24t-37 -16t-42.5 -5.5q-44 0 -79 21t-53 55l-97 188v-280q0 -41 -3.5 -60.5t-12.5 -38.5q-13 -28 -39.5 -43.5t-62 -15.5t-62.5 15.5t-40 43.5 q-9 19 -12 38t-3 61z" />
<glyph unicode="&#x2202;" horiz-adv-x="1102" d="M100 509q0 76 5.5 132.5t18.5 104t34 85t54 71.5q118 128 321 128q76 0 124 -23v2q0 5 -2 13.5t-7 21t-13 25.5t-21.5 26t-30.5 23t-41.5 16t-53.5 6q-52 0 -132 -39q-38 -19 -59.5 -24.5t-50.5 -5.5q-47 0 -86.5 38.5t-39.5 95.5q0 88 102 144q58 32 123.5 47t157.5 15 q119 0 211 -36t150 -102t87.5 -154.5t29.5 -195.5v-414q0 -152 -24 -237t-88 -154q-120 -130 -328.5 -130t-328.5 130q-64 69 -88 154t-24 237zM422 508.5q0 -83.5 8 -130t34 -72.5q27 -27 76.5 -27t76.5 27q26 26 34 72.5t8 130.5q0 55 -2.5 88t-12 64.5t-27.5 49.5 q-28 28 -76.5 28t-76.5 -28q-26 -25 -34 -72t-8 -130.5z" />
<glyph unicode="&#x2206;" horiz-adv-x="1248" d="M37 165q0 42 32 124l362 967q18 47 33.5 70.5t37.5 41.5q48 38 122 38t122 -38q22 -18 38 -42t34 -70l362 -967q32 -82 32 -124q0 -75 -50 -120q-31 -28 -67.5 -36.5t-102.5 -8.5h-736q-66 0 -102.5 8.5t-67.5 36.5q-49 44 -49 120zM408 306h433l-217 579z" />
<glyph unicode="&#x220f;" horiz-adv-x="1336" d="M139 -118v1401q0 34 2 55.5t13.5 53.5t33.5 54t54 33.5t53 13t56 1.5h635q35 0 56 -1.5t53 -13t54 -33.5q17 -17 27.5 -37.5t14.5 -45t5 -39.5t1 -41v-1401q0 -66 -3 -92t-18 -55q-19 -38 -60 -61.5t-91.5 -23.5t-91.5 23.5t-60 61.5q-15 29 -18 55t-3 92v1306h-366 v-1306q0 -64 -3.5 -91t-18.5 -56q-20 -38 -60.5 -61.5t-90.5 -23.5q-34 0 -64.5 11t-52.5 30t-35 44q-15 29 -18.5 56t-3.5 91z" />
<glyph unicode="&#x2211;" horiz-adv-x="1137" d="M79 -180q0 50 44 137l309 617l-309 617q-44 87 -44 137q0 74 53 121q31 27 72 36t108 9h573q56 0 81.5 -3.5t50.5 -14.5q33 -17 54 -53.5t21 -81.5t-21 -82t-54 -53q-25 -12 -50.5 -15t-81.5 -3h-376l238 -478q36 -71 36 -136t-36 -136l-238 -477h376q56 0 81.5 -3.5 t50.5 -15.5q33 -16 54 -53t21 -82q0 -22 -6 -43.5t-16 -38.5t-23.5 -30.5t-29.5 -21.5q-25 -12 -50.5 -15.5t-81.5 -3.5h-573q-67 0 -108 9.5t-72 36.5q-53 46 -53 120z" />
<glyph unicode="&#x221a;" horiz-adv-x="1225" d="M39 936q6 43 36 74t64.5 43.5t65.5 12.5q63 0 103 -41q20 -20 31.5 -43.5t31.5 -81.5l93 -281l197 598q19 57 27.5 78.5t20.5 41t29 33.5q37 30 96 30h139q39 0 59.5 -1.5t38 -5t34.5 -12.5q32 -16 50 -46q25 -40 25 -89q0 -37 -17 -73q-22 -45 -58 -61 q-13 -7 -24.5 -10.5t-28.5 -5.5t-36 -2.5t-52 -0.5l-286 -858q-14 -44 -37 -98q-20 -49 -44.5 -80.5t-57.5 -48t-76 -16.5q-62 0 -103.5 35.5t-71.5 109.5l-224 660q-18 54 -23 82t-2 57z" />
<glyph unicode="&#x221e;" horiz-adv-x="1722" d="M92 581q0 85 25.5 157.5t75.5 128.5t129.5 87.5t180.5 31.5t193.5 -47.5t164.5 -125.5q72 78 164.5 125.5t193.5 47.5t181 -31.5t129.5 -87.5t75 -128.5t25.5 -157.5t-25.5 -158t-75 -128.5t-129.5 -87t-181 -31.5q-100 0 -193 47.5t-165 125.5q-72 -78 -164.5 -125.5 t-193.5 -47.5t-180.5 31.5t-129.5 87t-75.5 128.5t-25.5 158zM407 581q0 -31 14 -53.5t35 -32.5t45 -10q26 0 52.5 16t42.5 32.5t41 47.5q-15 18 -24 28.5t-24.5 25.5t-27.5 23t-28 14t-32 6q-38 0 -66 -25.5t-28 -71.5zM1085 581q25 -31 41.5 -47.5t43 -32.5t51.5 -16 t45.5 10t34.5 32.5t14 53.5q0 46 -28 71.5t-66 25.5q-19 0 -37.5 -7.5t-37 -24.5t-30.5 -29.5t-31 -35.5z" />
<glyph unicode="&#x222b;" horiz-adv-x="923" d="M96 -218q0 28 8 51t22.5 39.5t34.5 25.5q30 15 80 18q59 2 59 67v1126q0 45 12 88.5t37.5 84.5t62.5 72t92 49.5t121 18.5h6q85 0 130 -22q67 -33 67 -115q0 -83 -65 -115q-34 -17 -75 -18q-65 -3 -65 -67v-1126q0 -38 -8.5 -74.5t-25 -72t-43.5 -65.5t-61.5 -52.5 t-82.5 -35.5t-103 -13h-6q-84 0 -130 22q-67 33 -67 114z" />
<glyph unicode="&#x2248;" horiz-adv-x="1300" d="M88 304q0 75 81 142q65 55 127 76.5t145 21.5q126 0 242 -66q86 -50 165 -50q63 0 127 48q44 33 91 33q64 0 110 -55q37 -44 37 -98q0 -74 -80 -142q-65 -54 -127 -76t-145 -22q-124 0 -242 66q-86 50 -165 50q-64 0 -128 -47q-45 -33 -90 -33q-64 0 -110 54 q-38 45 -38 98zM88 804q0 74 81 142q33 27 64 46t64 30.5t67.5 16.5t76.5 5q126 0 242 -67q85 -49 165 -49q64 0 127 47q46 34 91 34q63 0 110 -56q37 -44 37 -98q0 -74 -80 -142q-27 -22 -52 -38.5t-50.5 -28t-52.5 -18t-55.5 -10t-61.5 -3.5q-122 0 -242 68 q-85 49 -165 49q-64 0 -128 -48q-45 -33 -90 -33q-64 0 -110 55q-38 44 -38 98z" />
<glyph unicode="&#x2260;" horiz-adv-x="1257" d="M88 334q0 43 20 77.5t51 50.5q12 6 23.5 9.5t26.5 5.5t32 2.5t44 0.5h155l121 202h-276q-54 0 -78.5 3t-47.5 14q-20 11 -36 29.5t-25.5 44t-9.5 54t9.5 54t25.5 44.5t36 29q24 12 49 15t77 3h450l112 185q21 35 33 50t28 26q51 34 112 -3q60 -36 55 -98q-3 -34 -37 -90 l-42 -70h1q64 0 102 -18q32 -16 51.5 -50t19.5 -77q0 -29 -9 -54.5t-25 -44t-37 -29.5q-23 -11 -47.5 -14t-78.5 -3h-152l-121 -202h273q53 0 78 -3.5t48 -14.5q32 -16 51.5 -50.5t19.5 -77.5q0 -29 -9 -54.5t-25 -44t-37 -29.5q-23 -11 -47.5 -14t-78.5 -3h-447l-111 -185 q-21 -35 -33.5 -50.5t-28.5 -25.5q-51 -35 -112 3q-59 36 -55 99q3 34 37 89l41 70h-2q-67 0 -103 17q-31 17 -51 51t-20 77z" />
<glyph unicode="&#x2264;" d="M96 305q0 60 41.5 108t100.5 48q29 0 52 -7.5t73 -32.5l471 -235q48 -24 68.5 -38.5t37.5 -36.5q27 -36 27 -78q0 -61 -41.5 -108.5t-100.5 -47.5q-20 0 -35 3t-35.5 11t-54.5 25l-472 237q-47 23 -67.5 38t-37.5 37q-27 36 -27 77zM96 849q0 24 5 44t16 36t21.5 28 t28.5 24t29.5 18.5t31.5 16.5l473 237q50 25 73 32t52 7q58 0 100 -47.5t42 -107.5q0 -43 -27 -79q-17 -22 -37.5 -36.5t-68.5 -38.5l-269 -134l269 -136q33 -16 52 -27.5t30.5 -21.5t23.5 -25q27 -36 27 -78q0 -61 -42 -108.5t-100 -47.5q-29 0 -52 7.5t-73 31.5l-473 238 q-20 10 -31.5 16.5t-29.5 18t-28.5 23.5t-21.5 28t-16 36.5t-5 44.5z" />
<glyph unicode="&#x2265;" d="M126 561q0 42 27 78q17 22 37 36t67 38l270 136l-270 134q-47 24 -67 38.5t-37 36.5q-27 36 -27 79q0 60 41.5 107.5t100.5 47.5q28 0 51.5 -7t73.5 -32l473 -237q24 -12 37.5 -20t34 -23.5t31.5 -31.5t19 -40t8 -52q0 -24 -5 -44.5t-15.5 -36.5t-21 -28t-28 -23.5 t-29.5 -18.5t-31 -16l-473 -238q-35 -17 -55 -25t-35 -11t-35 -3q-59 0 -100.5 47.5t-41.5 108.5zM127 33q0 42 27 78q17 22 37 37t67 38l473 235q34 18 54 26t35.5 11t34.5 3q24 0 46 -8.5t39 -24t30 -35t19.5 -42.5t6.5 -46q0 -42 -25 -77q-18 -22 -38 -37t-68 -38 l-471 -237q-35 -17 -55 -25t-35.5 -11t-34.5 -3q-39 0 -72.5 22.5t-51.5 58.5t-18 75z" />
<glyph unicode="&#x25ca;" horiz-adv-x="1024" d="M88 700q0 65 37 136l220 441q15 29 26 46.5t31 40t47.5 33t63.5 10.5q28 0 52 -8t40 -19.5t31.5 -31.5t23.5 -34t20 -37l220 -441q36 -71 36 -136t-36 -136l-220 -441q-12 -24 -20 -37.5t-23.5 -34t-31.5 -31.5t-40 -19.5t-52 -8.5q-36 0 -63.5 11t-47.5 33t-31 40 t-26 47l-220 441q-37 71 -37 136zM394 700l119 -238l118 238l-118 238z" />
<glyph unicode="&#x25fc;" horiz-adv-x="1066" d="M0 0v1067h1067v-1067h-1067z" />
<glyph unicode="&#xfb01;" horiz-adv-x="1249" d="M17 892.5q0 37.5 16.5 66t45.5 41.5q20 10 41.5 13.5t64.5 3.5h1v92q0 45 11.5 88.5t37 84.5t62.5 72t92 49.5t121 18.5h6q84 0 130 -22q66 -33 66 -115q0 -83 -64 -115q-34 -17 -75 -18q-65 -3 -65 -67v-68h37q30 0 48.5 -1.5t31.5 -5t27 -10.5q29 -13 44.5 -41.5 t15.5 -65.5q0 -25 -7 -46.5t-20.5 -37.5t-32.5 -25q-20 -9 -41 -12t-66 -3h-37v-559q0 -60 -3.5 -86.5t-15.5 -52.5q-12 -23 -32.5 -40.5t-49 -28t-60.5 -10.5q-48 0 -86 22t-56 57q-12 26 -15.5 52.5t-3.5 86.5v559h-1q-44 0 -65 3t-41 12q-29 14 -45.5 42.5t-16.5 66z M788 1301.5q0 73.5 53 126t126.5 52.5t126 -52.5t52.5 -126t-52.5 -126.5t-126 -53t-126.5 53t-53 126.5zM806 210v596q0 61 3.5 87.5t16.5 52.5q17 35 55.5 56.5t86.5 21.5q24 0 46 -5.5t40 -16t32 -25t23 -31.5q12 -26 16 -53t4 -87v-596q0 -59 -4 -86t-16 -53 q-18 -35 -55.5 -57t-85.5 -22t-86.5 22t-55.5 57q-13 26 -16.5 52.5t-3.5 86.5z" />
</font>
</defs>
</svg>
