<?xml version="1.0" standalone="no"?>
<!DOCTYPE svg PUBLIC "-//W3C//DTD SVG 1.1//EN" "http://www.w3.org/Graphics/SVG/1.1/DTD/svg11.dtd" >
<svg xmlns="http://www.w3.org/2000/svg">
<metadata></metadata>
<defs>
<font id="din_round_prolight" horiz-adv-x="1125" >
<font-face units-per-em="2048" ascent="1565" descent="-483" />
<missing-glyph horiz-adv-x="558" />
<glyph horiz-adv-x="0" />
<glyph horiz-adv-x="0" />
<glyph horiz-adv-x="682" />
<glyph unicode="&#xd;" horiz-adv-x="558" />
<glyph unicode=" "  horiz-adv-x="558" />
<glyph unicode="&#x09;" horiz-adv-x="558" />
<glyph unicode="&#xa0;" horiz-adv-x="558" />
<glyph unicode="!" horiz-adv-x="665" d="M278 81q0 36 26 62t62 26t62 -26t26 -62t-26 -61.5t-62 -25.5t-62 25.5t-26 61.5zM307 494v993q0 40 13 60q15 22 46 22t46 -22q13 -20 13 -60v-993q0 -40 -13 -60q-16 -22 -46.5 -22t-45.5 22q-13 20 -13 60z" />
<glyph unicode="&#x22;" horiz-adv-x="813" d="M180 1258v239q0 37 12 55q14 21 44.5 21t44.5 -21q12 -18 12 -55v-239q0 -38 -12 -55q-14 -22 -44.5 -22t-44.5 22q-12 17 -12 55zM520 1258v239q0 35 13 55q14 21 44.5 21t45.5 -21q12 -18 12 -55v-239q0 -38 -12 -55q-15 -22 -45.5 -22t-44.5 22q-13 19 -13 55z" />
<glyph unicode="#" horiz-adv-x="1399" d="M139 572q0 25 19 39q17 12 52 12h167l68 335h-171q-35 0 -50 10q-21 16 -21 40t21 40q15 10 50 10h190l89 446q7 36 25 52q14 13 35 13q23 0 38 -15q12 -13 15 -28t-3 -44l-84 -424h353l89 446q7 36 24 52q15 13 37 13t37 -15q12 -12 15 -27.5t-3 -44.5l-85 -424h146 q35 0 50 -10q21 -16 21 -40t-21 -40q-15 -10 -50 -10h-166l-67 -335h169q33 0 50 -12q19 -14 19 -39t-19 -39q-17 -12 -50 -12h-189l-93 -465q-6 -35 -24 -52q-15 -13 -37 -13t-37 15q-12 13 -14.5 28t2.5 44l89 443h-354l-93 -465q-7 -37 -24 -52q-14 -13 -36 -13 q-23 0 -38 15q-12 13 -14.5 28t3.5 44l88 443h-147q-35 0 -52 12q-19 14 -19 39zM491 623h354l68 335h-354z" />
<glyph unicode="$" horiz-adv-x="1286" d="M127 202q0 26 16 42q17 17 40 17q10 0 21.5 -5.5t18.5 -10.5t22 -17q83 -69 159 -99t176 -36v646l-34 6q-93 14 -156 40t-122 75q-124 104 -124 286q0 122 52.5 215t151 147t232.5 63v134q0 35 11 50q15 20 39.5 20t39.5 -20q11 -15 11 -50v-133q68 -3 124.5 -17 t107.5 -38.5t108 -64.5q44 -31 44 -62q0 -20 -12 -33q-16 -19 -41 -19q-19 0 -62 29q-73 53 -132.5 75t-136.5 27v-635l62 -10q110 -18 170.5 -40t109.5 -63q64 -53 99 -131t35 -172q0 -187 -128 -302.5t-348 -127.5v-176q0 -35 -11 -51q-15 -20 -39.5 -20t-39.5 20 q-11 16 -11 51v176q-123 5 -220.5 39.5t-190.5 111.5q-42 32 -42 63zM261 1150q0 -138 80 -205q48 -40 98.5 -60.5t134.5 -33.5l6 -1v619q-150 -10 -234.5 -95t-84.5 -224zM681 93q166 10 262 94.5t96 226.5q0 145 -86 219q-41 37 -85 52.5t-140 31.5l-47 7v-631z" />
<glyph unicode="%" horiz-adv-x="1813" d="M151 1045v235q0 131 80.5 212t209.5 81q128 0 207.5 -81t79.5 -212v-235q0 -131 -79 -211t-208 -80t-209.5 80t-80.5 211zM247 1050q0 -213 194 -213q190 0 190 213v225q0 216 -190 216q-194 0 -194 -216v-225zM494 27q-3 18 11 45l729 1456q13 29 29 36q7 5 17 5 q9 0 20 -6q21 -11 24 -29t-11 -45l-729 -1457q-13 -29 -29 -36q-7 -5 -17 -5t-21 6q-20 10 -23 30zM1087 278v235q0 86 36.5 153t102 104t150.5 37q128 0 207.5 -81.5t79.5 -212.5v-235q0 -131 -79 -211t-208 -80t-209 80t-80 211zM1183 282q0 -211 193 -211q68 0 111 26 t61 72t18 113v226q0 215 -190 215q-193 0 -193 -215v-226z" />
<glyph unicode="&#x26;" horiz-adv-x="1592" d="M184 431q0 50 10.5 95.5t25.5 81.5t44 73.5t54 63t68.5 60t73 55.5t81.5 56q-32 39 -50 61.5t-45 62.5t-41.5 71t-25.5 71.5t-11 80.5q0 130 93 220t225 90t225 -90.5t93 -222.5q0 -89 -48 -156t-132 -125l-116 -78l447 -541q46 68 64.5 137t24.5 182q3 47 16 67 q15 21 44 21t44 -21q13 -18 13 -61q0 -102 -33 -218q-32 -111 -101 -195l136 -163q31 -37 31 -63q0 -24 -22 -42q-16 -13 -36 -13q-16 0 -30.5 10t-34.5 34l-123 149q-22 -22 -47.5 -43.5t-72.5 -51t-97 -50.5t-119.5 -36.5t-142.5 -15.5q-142 0 -252.5 55.5t-171.5 156.5 t-61 232zM303 439q0 -101 45 -180t128 -123t191 -44q105 0 205.5 38t210.5 135l-474 572q-44 -29 -70 -47t-62.5 -46t-58 -50t-46.5 -52.5t-38 -60t-22 -66t-9 -76.5zM487 1267q0 -41 12.5 -78.5t45.5 -87.5t95 -122l37 25q54 34 87 59.5t64 57.5t45 66t14 73 q0 90 -57.5 149t-143.5 59q-56 0 -101.5 -25.5t-71.5 -72t-26 -103.5z" />
<glyph unicode="'" horiz-adv-x="472" d="M180 1258v239q0 37 12 55q14 21 44.5 21t44.5 -21q12 -18 12 -55v-239q0 -38 -12 -55q-14 -22 -44.5 -22t-44.5 22q-12 17 -12 55z" />
<glyph unicode="(" horiz-adv-x="621" d="M219 173v1214q0 124 42 204q36 69 99 132q32 32 56 32q23 0 38 -15t15 -38q0 -24 -32 -56q-52 -52 -73 -99q-31 -63 -31 -173v-1188q0 -110 31 -173q21 -47 73 -99q32 -32 32 -56q0 -23 -15 -38t-38 -15q-24 0 -56 32q-63 63 -99 132q-42 80 -42 204z" />
<glyph unicode=")" horiz-adv-x="621" d="M153 -142q0 23 33 56q52 52 73 99q30 61 30 173v1188q0 112 -30 173q-21 47 -73 99q-33 33 -33 56q0 22 16 38q15 15 38 15q24 0 56 -32q62 -63 99 -132q41 -80 41 -204v-1214q0 -124 -41 -204q-37 -69 -99 -132q-32 -32 -56 -32q-23 0 -38 15q-16 16 -16 38z" />
<glyph unicode="*" horiz-adv-x="1042" d="M184 1030q6 14 33 31l217 131l-217 131q-27 16 -33 32q-8 20 3 38q11 17 32 20q18 2 44 -13l214 -130v250q0 32 11 45q12 18 33 18q22 0 34 -18q10 -12 10 -45v-250l215 130q26 15 44 13q21 -3 32 -20q11 -18 3 -38q-6 -16 -33 -32l-218 -131l218 -131q28 -17 33 -31 q8 -20 -3 -38q-12 -19 -32 -22q-16 -1 -44 15l-215 128v-250q0 -32 -10 -44q-11 -17 -34 -17q-21 0 -33 17q-11 13 -11 44v250l-214 -128q-28 -16 -44 -15q-20 3 -32 22q-11 18 -3 38z" />
<glyph unicode="+" d="M107 577.5q0 24.5 20 39.5q16 11 51 11h335v335q0 35 10 50q15 21 39.5 21t39.5 -21q11 -15 11 -50v-335h336q35 0 50 -11q20 -14 20 -39t-20 -40q-15 -10 -50 -10h-336v-336q0 -35 -11 -51q-14 -19 -39 -19t-40 19q-10 16 -10 51v336h-335q-35 0 -51 10q-20 15 -20 39.5 z" />
<glyph unicode="," horiz-adv-x="491" d="M92 -209q-6 20 6 57l97 289q11 34 26 47q14 11 35 11q19 0 34 -11t20 -28q6 -19 -6 -55l-96 -289q-11 -34 -27 -47q-14 -11 -34 -11q-14 0 -25 5t-19 13.5t-11 18.5z" />
<glyph unicode="-" horiz-adv-x="933" d="M171 578q0 25 19 39q16 11 51 11h451q35 0 51 -11q20 -15 20 -39.5t-20 -39.5q-16 -10 -51 -10h-451q-35 0 -51 10q-19 15 -19 40z" />
<glyph unicode="." horiz-adv-x="577" d="M188 94q0 42 29.5 71.5t71.5 29.5q27 0 50.5 -13.5t37.5 -37t14 -50.5q0 -41 -30 -70.5t-72 -29.5t-71.5 29t-29.5 71z" />
<glyph unicode="/" horiz-adv-x="740" d="M19 -136q-6 17 7 57l584 1754q18 56 60 56q38 0 51 -35q7 -19 -5 -57l-585 -1752q-10 -29 -23.5 -43.5t-35.5 -14.5q-19 0 -33 9.5t-20 25.5z" />
<glyph unicode="0" d="M153 403v754q0 182 115 299t295 117t295 -117t115 -299v-754q0 -182 -115 -299t-295 -117t-295 117t-115 299zM268 402q0 -90 33 -160t100.5 -112t161.5 -42q140 0 218 88t78 226v756q0 138 -78 226t-218 88t-217.5 -88t-77.5 -226v-756z" />
<glyph unicode="1" d="M271 1235q3 18 31 46l254 256q33 32 68 32q28 0 46 -18.5t18 -69.5v-1414q0 -37 -12 -54q-14 -22 -44.5 -22t-45.5 22q-11 17 -11 54v1338l-199 -199q-27 -27 -46 -30q-27 -3 -45 15q-18 17 -14 44z" />
<glyph unicode="2" d="M144 52q0 24 39 75l587 775q52 69 76.5 135.5t24.5 148.5q0 85 -34 149.5t-101 100.5t-159 36q-52 0 -98 -12.5t-86.5 -38.5t-70 -72t-42.5 -108q-10 -52 -21 -68q-15 -23 -44 -23q-28 0 -42 21q-10 16 -10 40q0 50 28 121.5t83 126.5q113 114 303 114q187 0 297.5 -104 t110.5 -283q0 -97 -29.5 -175t-94.5 -162l-568 -748h629q35 0 51 -11q20 -15 20 -39.5t-20 -39.5q-16 -11 -51 -11h-677q-28 0 -40.5 0.5t-25.5 4.5t-22 12q-13 15 -13 35z" />
<glyph unicode="3" d="M100 333q0 43 18 61q15 15 37.5 15t34.5 -13q18 -17 23 -58q34 -250 317 -250q93 0 169.5 39.5t122.5 116t46 174.5q0 160 -83 245.5t-246 85.5q-33 0 -50 12q-20 15 -20 39t20 39q17 12 50 12q149 0 224.5 83.5t75.5 230.5q0 142 -84 224.5t-218 82.5q-246 0 -292 -225 q-9 -47 -25 -63q-13 -13 -37 -13q-25 0 -40 18q-12 16 -12 46q0 58 30 121t75 109q38 38 83 62t98.5 35t119.5 11q120 0 214 -48.5t148 -142t54 -217.5q0 -265 -225 -358q121 -36 187.5 -133.5t66.5 -255.5q0 -95 -36.5 -176.5t-98 -137t-144 -86.5t-173.5 -31 q-119 0 -196.5 28.5t-136.5 88.5q-45 44 -71 104.5t-26 124.5z" />
<glyph unicode="4" d="M76 305q0 18 13 44l585 1169q16 34 34 44q12 7 26 7q19 0 34 -14t15 -36q0 -18 -15 -48l-558 -1116h503v427q0 37 11 55q15 22 45 22t45 -22q12 -18 12 -55v-427h144q35 0 51 -10q20 -16 20 -40t-20 -40q-16 -10 -51 -10h-144v-188q0 -37 -12 -54q-14 -22 -44.5 -22 t-45.5 22q-11 17 -11 54v188h-570q-30 0 -45 8q-22 14 -22 42z" />
<glyph unicode="5" d="M162 325q0 30 12 46q16 20 41 20q23 0 38 -15q15 -16 24 -62q46 -226 290 -226q65 0 121.5 20t93.5 58q27 26 45.5 61t28 66t14.5 74.5t5.5 71.5t0.5 74q0 45 -2.5 83t-10 82t-20.5 78.5t-35.5 67.5t-52 55t-73 35.5t-97.5 13.5q-92 0 -157.5 -30t-111.5 -101 q-11 -17 -27 -31q-12 -11 -34 -11q-24 0 -38 14q-16 16 -16 52v672q0 36 16 52q15 15 53 15h622q35 0 51 -11q19 -14 19 -39t-19 -40q-16 -11 -51 -11h-589v-545q57 60 125.5 87.5t169.5 27.5q168 0 263 -95q40 -39 66.5 -90t39.5 -108t18.5 -109.5t5.5 -113.5 q0 -66 -4 -114.5t-15.5 -105.5t-37.5 -106t-66 -89q-112 -111 -301 -111q-99 0 -172 25.5t-130 81.5q-29 30 -52.5 68t-37 81t-13.5 82z" />
<glyph unicode="6" d="M153 425q0 76 21 153t68 173l383 767q16 34 33 44q11 7 27 7q19 0 34 -14t15 -36q0 -18 -15 -48l-313 -628q80 33 173 33q76 0 141.5 -21.5t113.5 -61.5t82 -94t51 -119.5t17 -138.5q0 -94 -28 -176.5t-79.5 -144t-131 -97.5t-176.5 -36t-176 32.5t-131.5 91t-80.5 138.5 t-28 176zM268 431q0 -157 80.5 -250t218.5 -93t220.5 93.5t82.5 249.5q0 95 -33.5 172t-103.5 125t-166 48q-91 0 -159 -42t-104 -120t-36 -183z" />
<glyph unicode="7" d="M186 1284v209q0 37 15 52t54 15h672q22 0 34.5 -1t22 -4.5t16.5 -10.5q15 -15 15 -37q0 -17 -17 -65l-523 -1395q-13 -37 -29 -48q-12 -8 -25 -8q-20 0 -35 10.5t-19 27.5q-5 19 9 56l515 1374h-590v-175q0 -35 -13 -55q-15 -22 -45 -22t-45 22q-12 18 -12 55z" />
<glyph unicode="8" d="M117 423q0 130 66 228.5t183 160.5q-70 38 -118 89.5t-73.5 118.5t-25.5 145q0 115 52 208t146.5 146.5t215 53.5t215.5 -53.5t147 -146.5t52 -208q0 -118 -55 -207t-159 -146q57 -30 101.5 -69t77.5 -87t50.5 -107.5t17.5 -125.5q0 -122 -58.5 -222t-161 -157t-228 -57 t-227.5 57t-160 157t-58 222zM230 423q0 -144 95.5 -239.5t237.5 -95.5t238 95.5t96 239.5t-96 240t-238 96t-237.5 -96t-95.5 -240zM263 1165q0 -134 83.5 -221t216.5 -87q131 0 215.5 86t84.5 222q0 134 -84 220.5t-216.5 86.5t-216 -86.5t-83.5 -220.5z" />
<glyph unicode="9" d="M142 1120q0 94 28 176t79.5 144t130.5 97.5t176 35.5q130 0 225 -56.5t143.5 -155t48.5 -226.5q0 -51 -9.5 -101t-29 -105t-50.5 -120l-382 -767q-9 -20 -16.5 -29t-17.5 -15q-12 -7 -26 -7q-20 0 -34.5 14t-14.5 36q0 18 15 48l313 628q-80 -33 -173 -33 q-95 0 -172.5 34t-128 93t-78 138.5t-27.5 170.5zM257 1129q0 -95 33 -172t102.5 -125t166.5 -48q138 0 219 93.5t81 251.5q0 157 -81.5 250t-218.5 93q-69 0 -125 -24.5t-95 -69t-60.5 -108.5t-21.5 -141z" />
<glyph unicode=":" horiz-adv-x="639" d="M249 94.5q0 41.5 30 71t72 29.5t71.5 -29.5t29.5 -71.5t-29.5 -71t-71.5 -29t-72 29.5t-30 71zM249 751q0 21 8.5 39.5t22 32.5t32 22t39.5 8q42 0 71.5 -30t29.5 -72t-29.5 -71t-71.5 -29q-27 0 -50.5 13t-37.5 36.5t-14 50.5z" />
<glyph unicode=";" horiz-adv-x="639" d="M223 -209q-6 20 6 57l96 289q11 34 27 47q14 11 33 11q20 0 35.5 -11t20.5 -28q5 -19 -7 -55l-97 -289q-11 -36 -26 -47q-13 -11 -34 -11q-20 0 -35 10.5t-19 26.5zM282 751q0 28 13.5 51t37 37t50.5 14q42 0 72 -30t30 -71.5t-30 -71t-72 -29.5t-71.5 29t-29.5 71z" />
<glyph unicode="&#x3c;" d="M212 578q0 14 5 26.5t11.5 21t21 18.5t25 15.5l31.5 16.5l504 254q32 16 48 16q22 0 35.5 -15t13.5 -34q0 -16 -6 -27q-11 -18 -44 -34l-514 -258l514 -259q33 -16 44 -34q6 -12 6 -26q0 -19 -13.5 -34t-35.5 -15q-18 0 -48 15l-504 253q-25 13 -38.5 21t-28.5 20 t-21 26.5t-6 32.5z" />
<glyph unicode="=" d="M107 407.5q0 24.5 20 39.5q16 11 51 11h771q35 0 50 -11q20 -14 20 -39t-20 -40q-15 -11 -50 -11h-771q-35 0 -51 11q-20 15 -20 39.5zM107 744.5q0 24.5 20 39.5q16 11 51 11h771q35 0 50 -11q20 -14 20 -39t-20 -40q-15 -11 -50 -11h-771q-35 0 -51 11q-20 15 -20 39.5 z" />
<glyph unicode="&#x3e;" d="M219 259q0 14 7 26q10 18 44 34l513 259l-513 258q-34 16 -44 34q-7 11 -7 27q0 19 14 34t36 15q16 0 48 -16l504 -254q26 -13 38.5 -20.5t28 -19.5t21.5 -26t6 -32t-6.5 -32.5t-21.5 -26.5t-28 -20t-38 -21l-504 -253q-30 -15 -48 -15q-22 0 -36 15t-14 34z" />
<glyph unicode="?" horiz-adv-x="1068" d="M175 1212q0 44 14 90t38 87t54 73q110 111 286 111q110 0 200.5 -50t142.5 -138.5t52 -196.5q0 -70 -24.5 -130t-71.5 -131l-184 -272q-18 -25 -27.5 -54t-12 -54t-2.5 -60q0 -38 -12 -56q-14 -21 -45 -21t-45 21q-12 18 -12 56q0 79 11.5 123.5t52.5 104.5l184 272 q39 57 57 100.5t18 100.5q0 122 -81 204t-201 82q-121 0 -197 -73q-68 -65 -82 -176q-5 -37 -14 -52q-15 -23 -48 -23q-11 0 -22.5 5.5t-17.5 15.5q-11 16 -11 41zM495 81q0 36 26 62t62 26t62 -26t26 -62t-26 -61.5t-62 -25.5t-62 25.5t-26 61.5z" />
<glyph unicode="@" horiz-adv-x="1526" d="M167 345v766q0 208 120 331q114 118 309 118h335q195 0 309 -118q121 -124 121 -331v-1044q0 -37 -12 -54q-14 -22 -44.5 -22t-45.5 22q-12 19 -12 54v69q-65 -86 -140 -117.5t-174 -31.5q-80 0 -148 25t-110 67q-138 138 -138 450q0 310 138 448q42 42 110 67t148 25 q99 0 174 -31.5t140 -117.5v186q0 97 -20 154t-70 107q-48 48 -107 70t-140 22h-292q-81 0 -140.5 -22t-107.5 -70q-50 -50 -70 -107t-20 -154v-761q0 -55 4.5 -90.5t17.5 -62.5t26 -43.5t40 -43.5q13 -13 18.5 -19.5t11 -17t5.5 -20.5q0 -24 -17 -42q-16 -16 -40.5 -16 t-58.5 35q-44 43 -67.5 80t-38 96t-14.5 144zM651 529q0 -45 2 -83t7.5 -79t16 -75t26 -67t38.5 -57.5t52 -43.5t69 -28.5t87 -9.5q54 0 98 13t74.5 35.5t53.5 56.5t36.5 70.5t21.5 83.5t11 89.5t3 94t-3 94t-11 89t-21.5 83t-36.5 70.5t-53.5 56.5t-74.5 35.5t-98 13 t-98 -13t-74.5 -35.5t-53.5 -56.5t-36.5 -70.5t-22 -83t-11 -89t-2.5 -93.5z" />
<glyph unicode="A" horiz-adv-x="1318" d="M66 93l525 1403q12 35 22 49q16 24 46 24t46 -24q12 -17 24 -49l523 -1403q8 -18 10 -31q1 -6 1 -13q1 -7 -1 -15q-2 -14 -14 -25q-18 -18 -45 -18q-14 0 -28 9q-19 13 -33 51l-124 328h-716l-124 -328q-15 -38 -34 -51q-13 -9 -27 -9q-28 0 -45 18q-15 15 -15 40 q0 19 9 44zM338 485h642l-321 884z" />
<glyph unicode="B" horiz-adv-x="1470" d="M241 71v1418q0 38 17 55q16 16 54 16h503q131 0 232.5 -47t160.5 -140.5t59 -220.5q0 -122 -65.5 -217t-178.5 -133q126 -42 196.5 -142t70.5 -235q0 -205 -123 -315t-335 -110h-521q-37 0 -53 16q-17 17 -17 55zM360 105h460q161 0 257 86t96 234t-96 234t-257 86h-460 v-640zM360 851h442q58 0 108.5 10.5t94.5 33.5t75.5 58t49.5 85.5t18 113.5q0 79 -27 138t-75.5 94.5t-109.5 53t-134 17.5h-442v-604z" />
<glyph unicode="C" horiz-adv-x="1410" d="M180 780q0 106 1.5 170t6.5 132t15 109t27.5 85t42.5 77.5t62 70.5q70 71 168 110t212 39q270 0 428 -203q38 -51 63.5 -113.5t25.5 -98.5q0 -28 -15 -43t-38.5 -15t-38.5 15q-17 17 -29 57q-43 139 -146.5 217.5t-249.5 78.5q-177 0 -297 -120q-28 -28 -47.5 -57 t-33 -68t-21 -76.5t-11.5 -98.5t-5 -118.5t-1 -149.5t1 -149t5 -118t11.5 -99t21 -76.5t33 -67.5t47.5 -57q121 -121 297 -121q146 0 249.5 79t146.5 218q11 39 29 56q15 15 38.5 15t38.5 -15t15 -43q0 -36 -25.5 -98.5t-63.5 -113.5q-158 -203 -428 -203q-114 0 -212 39 t-168 110q-37 37 -62 70.5t-42.5 77.5t-27.5 85t-15 109t-6.5 132t-1.5 170z" />
<glyph unicode="D" horiz-adv-x="1485" d="M241 71v1420q0 36 17 53q16 16 53 16h454q247 0 390 -142q31 -31 55 -71t40 -79t27 -91.5t16.5 -94t8.5 -102t3.5 -99t0.5 -101.5t-0.5 -101.5t-3.5 -99t-8.5 -102t-16.5 -94t-27 -91.5t-40 -79t-55 -71q-143 -142 -390 -142h-454q-37 0 -53 16q-17 17 -17 55zM360 105 h376q220 0 335 121q24 25 43 59.5t31 67t20.5 79.5t13 81t6.5 89.5t2.5 87t0.5 90.5t-0.5 90.5t-2.5 87t-6.5 89.5t-13 81t-20.5 79.5t-31 67t-43 59.5q-115 121 -335 121h-376v-1350z" />
<glyph unicode="E" horiz-adv-x="1309" d="M241 71v1420q0 36 17 53q16 16 53 16h810q40 0 55 -11q20 -15 20 -41t-20 -42q-15 -11 -55 -11h-761v-616h638q40 0 55 -11q21 -16 21 -41.5t-21 -41.5q-15 -11 -55 -11h-638v-629h761q40 0 55 -11q20 -15 20 -41.5t-20 -41.5q-15 -11 -55 -11h-810q-37 0 -53 16 q-17 17 -17 55z" />
<glyph unicode="F" horiz-adv-x="1261" d="M241 74v1417q0 36 17 53q16 16 53 16h810q40 0 55 -11q20 -15 20 -41t-20 -42q-15 -11 -55 -11h-761v-642h638q40 0 55 -11q21 -16 21 -41t-21 -42q-15 -11 -55 -11h-638v-634q0 -41 -13 -61q-15 -22 -46.5 -22t-45.5 22q-14 21 -14 61z" />
<glyph unicode="G" horiz-adv-x="1430" d="M180 780q0 106 1.5 170t6.5 132t15 109t27.5 85t42.5 77.5t62 70.5q70 71 168 110t212 39q270 0 428 -203q38 -51 63.5 -113.5t25.5 -98.5q0 -28 -15 -43t-38.5 -15t-38.5 15q-17 17 -29 57q-43 139 -146.5 217.5t-249.5 78.5q-177 0 -297 -120q-28 -28 -47.5 -57 t-33 -68t-21 -76.5t-11.5 -98.5t-5 -118.5t-1 -149.5t1 -149t5 -118t11.5 -99t21 -76.5t33 -67.5t47.5 -57q121 -121 297 -121q174 0 295 121q73 73 97 173.5t24 305.5h-350q-39 0 -54 11q-22 16 -22 41.5t22 41.5q15 11 54 11h400q38 0 53 -15t15 -52v-38 q-1 -125 -6.5 -200.5t-22.5 -143t-46.5 -115t-79.5 -97.5q-71 -71 -168 -110t-211 -39t-212 39t-168 110q-37 37 -62 70.5t-42.5 77.5t-27.5 85t-15 109t-6.5 132t-1.5 170z" />
<glyph unicode="H" horiz-adv-x="1531" d="M241 74v1413q0 39 14 60q14 22 45.5 22t46.5 -22q13 -20 13 -60v-648h813v648q0 40 13 60q14 22 45.5 22t46.5 -22q12 -20 12 -60v-1413q0 -41 -12 -61q-15 -22 -46.5 -22t-45.5 22q-13 20 -13 61v660h-813v-660q0 -41 -13 -61q-15 -22 -46.5 -22t-45.5 22q-14 21 -14 61 z" />
<glyph unicode="I" horiz-adv-x="600" d="M241 74v1413q0 39 14 60q14 22 45.5 22t46.5 -22q13 -20 13 -60v-1413q0 -41 -13 -61q-15 -22 -46.5 -22t-45.5 22q-14 21 -14 61z" />
<glyph unicode="J" horiz-adv-x="1071" d="M57 135q0 21 14 38q16 20 39 20t65 -33q34 -24 66 -39t67.5 -22t78.5 -7q169 0 258 101.5t89 291.5v1002q0 40 13 60q15 22 46 22t46 -22q14 -21 14 -60v-1027q0 -214 -127 -343.5t-339 -129.5q-88 0 -157.5 22t-137.5 70q-35 25 -35 56z" />
<glyph unicode="K" horiz-adv-x="1428" d="M241 74v1413q0 39 14 60q14 22 45.5 22t46.5 -22q13 -20 13 -60v-888l767 934q27 36 55 36q22 0 38 -14q22 -19 20 -45q-1 -19 -26 -51l-399 -485l497 -873q18 -34 18 -54q0 -32 -28 -47q-15 -9 -30 -9q-23 0 -37 14t-27 37l-477 841l-371 -448v-361q0 -41 -13 -61 q-15 -22 -46.5 -22t-45.5 22q-14 21 -14 61z" />
<glyph unicode="L" horiz-adv-x="1252" d="M241 71v1416q0 39 14 60q14 22 45.5 22t46.5 -22q13 -20 13 -60v-1382h761q40 0 55 -11q20 -15 20 -41.5t-20 -41.5q-15 -11 -55 -11h-810q-37 0 -53 16q-17 17 -17 55z" />
<glyph unicode="M" horiz-adv-x="1792" d="M241 74v1414q0 42 21 64q17 17 43 17q23 0 40 -11q16 -10 34 -50l518 -1151l516 1151q18 39 36 50q16 11 39 11q26 0 43 -17q21 -21 21 -64v-1414q0 -41 -13 -61q-15 -22 -46.5 -22t-45.5 22q-14 21 -14 61v1201l-451 -990q-17 -37 -35.5 -54.5t-50 -17.5t-50 17.5 t-35.5 54.5l-451 990v-1201q0 -41 -13 -61q-15 -22 -46.5 -22t-45.5 22q-14 21 -14 61z" />
<glyph unicode="N" horiz-adv-x="1618" d="M241 74v1413q0 42 21 63q18 19 46 19q38 0 65 -42l887 -1310v1270q0 40 13 60q15 22 46.5 22t45.5 -22q13 -20 13 -60v-1413q0 -44 -20 -64q-18 -19 -46 -19q-39 0 -67 42l-885 1310v-1269q0 -41 -13 -61q-15 -22 -46.5 -22t-45.5 22q-14 21 -14 61z" />
<glyph unicode="O" horiz-adv-x="1428" d="M180 780q0 106 1.5 170t6.5 132t15 109t27.5 85t42.5 77.5t62 70.5q70 71 168 110t212 39t211 -39t168 -110q36 -37 61 -70.5t43 -77.5t27.5 -85t15 -109t7 -132t1.5 -170t-1.5 -170t-7 -132t-15 -109t-27.5 -85t-43 -77.5t-61 -70.5q-71 -71 -168 -110t-211 -39t-212 39 t-168 110q-37 37 -62 70.5t-42.5 77.5t-27.5 85t-15 109t-6.5 132t-1.5 170zM299 780q0 -92 1 -149t5 -118t11.5 -99t21 -76.5t33 -67.5t47.5 -57q121 -121 297 -121q174 0 295 121q34 33 55.5 71.5t35 80t20 107.5t8.5 132t2 176q0 78 -1 129.5t-3.5 106.5t-8 91t-14 73.5 t-21.5 64.5t-31 53t-42 50q-120 120 -295 120q-177 0 -297 -120q-28 -28 -47.5 -57t-33 -68t-21 -76.5t-11.5 -98.5t-5 -118.5t-1 -149.5z" />
<glyph unicode="P" horiz-adv-x="1382" d="M241 74v1417q0 36 17 53q16 16 53 16h502q136 0 242 -52t167.5 -155t61.5 -242t-61.5 -242t-167.5 -155.5t-242 -52.5h-453v-587q0 -41 -13 -61q-15 -22 -46.5 -22t-45.5 22q-14 21 -14 61zM360 767h440q168 0 267 87t99 257t-99 257t-267 87h-440v-688z" />
<glyph unicode="Q" horiz-adv-x="1428" d="M180 780q0 106 1.5 170t6.5 132t15 109t27.5 85t42.5 77.5t62 70.5q70 71 168 110t212 39t211 -39t168 -110q36 -37 61 -70.5t43 -77.5t27.5 -85t15 -109t7 -132t1.5 -170q0 -113 -2 -180.5t-8 -136.5t-18 -113t-32.5 -86t-51.5 -80l136 -136q27 -27 31 -47q1 -5 1 -10 q0 -20 -18 -37q-17 -17 -36 -17q-5 0 -11 1q-22 5 -47 30l-136 135q-141 -116 -342 -116q-114 0 -212 39t-168 110q-37 37 -62 70.5t-42.5 77.5t-27.5 85t-15 109t-6.5 132t-1.5 170zM299 780q0 -92 1 -149t5 -118t11.5 -99t21 -76.5t33 -67.5t47.5 -57q121 -121 297 -121 q150 0 262 91l-170 172q-27 27 -31 47q-6 26 15.5 47.5t47.5 15.5q22 -4 47 -30l169 -169q49 72 62.5 178.5t13.5 335.5q0 78 -1 129.5t-3.5 106.5t-8 91t-14 73.5t-21.5 64.5t-31 53t-42 50q-120 120 -295 120q-177 0 -297 -120q-28 -28 -47.5 -57t-33 -68t-21 -76.5 t-11.5 -98.5t-5 -118.5t-1 -149.5z" />
<glyph unicode="R" horiz-adv-x="1439" d="M241 74v1417q0 36 17 53q16 16 53 16h524q96 0 177 -27.5t141.5 -79.5t94.5 -132t34 -179q0 -173 -96 -282.5t-264 -138.5l355 -620q18 -34 18 -54q0 -32 -28 -47q-16 -9 -30 -9q-23 0 -36.5 13.5t-26.5 37.5l-389 677h-425v-645q0 -41 -13 -61q-15 -22 -46.5 -22 t-45.5 22q-14 21 -14 61zM360 824h460q76 0 138 19t108.5 57t71.5 99t25 141q0 157 -93 236t-250 79h-460v-631z" />
<glyph unicode="S" horiz-adv-x="1286" d="M127 202q0 26 16 42q17 17 40 17q10 0 21.5 -5.5t18.5 -10.5t22 -17q94 -78 180 -107t213 -29q185 0 293 85.5t108 236.5q0 145 -86 219q-29 26 -56.5 40.5t-65.5 24t-103 19.5l-182 28q-93 14 -156 40t-122 75q-124 104 -124 286q0 196 131 311.5t354 115.5 q124 0 211 -27t181 -94q44 -31 44 -62q0 -20 -12 -33q-16 -19 -41 -19q-19 0 -62 29q-84 61 -153 82.5t-174 21.5q-169 0 -265.5 -86t-96.5 -235q0 -138 80 -205q48 -40 99 -61t135 -33l168 -27q110 -18 170.5 -40t109.5 -63q64 -53 99 -131t35 -172q0 -198 -141.5 -314.5 t-384.5 -116.5q-143 0 -251 33.5t-211 118.5q-42 32 -42 63z" />
<glyph unicode="T" horiz-adv-x="1180" d="M57 1507.5q0 25.5 21 41.5q15 11 55 11h916q39 0 54 -11q22 -16 22 -41.5t-22 -41.5q-15 -11 -54 -11h-401v-1381q0 -41 -12 -61q-15 -22 -46.5 -22t-45.5 22q-13 20 -13 61v1381h-398q-40 0 -55 11q-21 16 -21 41.5z" />
<glyph unicode="U" horiz-adv-x="1507" d="M219 506v981q0 40 13 60q15 22 46 22t46 -22q13 -20 13 -60v-966q0 -194 115 -311.5t302.5 -117.5t302 117.5t114.5 311.5v966q0 40 12 60q15 22 46.5 22t45.5 -22q13 -20 13 -60v-981q0 -151 -67.5 -269t-189.5 -184t-277 -66t-277 66t-190 184.5t-68 268.5z" />
<glyph unicode="V" horiz-adv-x="1169" d="M42 1531q5 17 20 27.5t34 10.5q21 0 35 -11q14 -12 25 -47l429 -1309l428 1309q11 34 27 47q14 11 34 11t35 -10.5t20 -27.5q1 -6 1 -13q0 -17 -8 -44l-470 -1413q-14 -40 -26 -52q-17 -18 -40.5 -18t-40.5 18q-14 13 -27 52l-470 1413q-8 25 -8 42q0 9 2 15z" />
<glyph unicode="W" horiz-adv-x="1866" d="M77 1535q5 16 20 25t31 9q22 0 36 -12q15 -14 24 -53l323 -1303l348 1296q10 37 26 52q19 17 48 17q31 0 49 -17q17 -15 26 -52l348 -1296l323 1303q9 39 24 53q14 12 36 12q16 0 31 -9t20 -25q3 -9 3 -21q0 -16 -5 -37l-353 -1414q-4 -17 -10.5 -30.5t-15.5 -21.5 q-19 -20 -48 -20t-48 20q-17 17 -27 52l-353 1300l-352 -1300q-10 -35 -27 -52q-19 -20 -48 -20t-48 20q-18 18 -27 52l-352 1414q-5 21 -5 37q0 12 3 21z" />
<glyph unicode="X" horiz-adv-x="1178" d="M98 47q0 18 20 54l399 699l-377 659q-18 34 -18 54q0 32 28 47q15 9 30 9q23 0 36.5 -13.5t26.5 -37.5l347 -618l351 625q8 15 13.5 22.5t17 14.5t27.5 7q15 0 30 -9q28 -15 28 -47q0 -20 -18 -54l-379 -659l401 -699q20 -36 20 -54q0 -31 -29 -47q-16 -9 -30 -9 q-23 0 -36.5 13.5t-26.5 37.5l-369 654l-370 -654q-8 -15 -14.5 -24.5t-20 -18t-29.5 -8.5q-13 0 -29 9q-29 16 -29 47z" />
<glyph unicode="Y" horiz-adv-x="1081" d="M54 1523q3 26 31 39q12 7 25 7q14 0 24 -6q20 -12 36 -46l371 -742l372 742q16 34 36 46q9 6 23 6q13 0 26 -7q28 -13 31 -39v-5q0 -17 -16 -51l-413 -826v-567q0 -41 -13 -61q-14 -22 -45.5 -22t-46.5 22q-12 20 -12 61v567l-413 826q-16 33 -16 51v5z" />
<glyph unicode="Z" horiz-adv-x="1191" d="M109 52q0 18 23 59l801 1344h-713q-39 0 -54 11q-22 16 -22 41.5t22 41.5q15 11 54 11h790q38 0 53 -15q16 -16 16 -37q0 -18 -23 -59l-801 -1344h748q39 0 54 -11q22 -16 22 -41.5t-22 -41.5q-15 -11 -54 -11h-825q-38 0 -53 15q-16 16 -16 37z" />
<glyph unicode="[" horiz-adv-x="642" d="M213 -94v1748q0 38 15 53q16 16 52 16h195q35 0 51 -12q20 -15 20 -39q0 -25 -20 -39q-15 -11 -51 -11h-149v-1683h149q35 0 51 -12q20 -14 20 -38q0 -25 -20 -40q-16 -12 -51 -12h-195q-36 0 -52 16q-15 15 -15 53z" />
<glyph unicode="\" horiz-adv-x="740" d="M21 1696q6 16 20 25.5t33 9.5q22 0 35.5 -14t23.5 -42l581 -1754q12 -38 5 -57q-13 -35 -51 -35q-42 0 -60 58l-580 1752q-13 40 -7 57z" />
<glyph unicode="]" horiz-adv-x="642" d="M96 -111q0 23 21 38q16 12 50 12h149v1683h-149q-35 0 -50 11q-21 15 -21 39t21 39q16 12 50 12h195q36 0 52 -16q15 -15 15 -53v-1748q0 -38 -15 -53q-16 -16 -52 -16h-195q-34 0 -50 12q-21 15 -21 40z" />
<glyph unicode="^" d="M194 922q0 16 16 48l254 504q14 27 21 39.5t19.5 27.5t26.5 21.5t32 6.5t32 -6.5t26 -21.5t19.5 -27.5t20.5 -39.5l256 -504q15 -29 15 -48q0 -21 -15 -35t-35 -14q-13 0 -24 7q-19 10 -35 43l-260 518l-259 -518q-16 -33 -35 -43q-12 -7 -25 -7q-20 0 -35 14t-15 35z " />
<glyph unicode="_" d="M59 -309q0 22 17 34q12 10 45 10h885q32 0 45 -10q16 -12 16 -34.5t-16 -33.5q-13 -10 -45 -10h-885q-33 0 -45 10q-17 12 -17 34z" />
<glyph unicode="`" horiz-adv-x="1095" d="M381 1568q0 29 28 47q14 9 30 9t31 -12t28 -33l117 -190q21 -32 21 -49q0 -29 -28 -47q-13 -9 -29 -9q-18 0 -32 11q-12 9 -28 34l-118 189q-20 33 -20 50z" />
<glyph unicode="a" horiz-adv-x="1148" d="M121 291q0 95 44.5 164t127 105t193.5 36h346v101q0 137 -67.5 205t-218.5 68q-92 0 -149.5 -24.5t-117.5 -84.5q-29 -29 -58 -29q-21 0 -35 14q-15 15 -15 37q0 47 101 115q56 38 121 54.5t153 16.5q198 0 299.5 -88.5t101.5 -257.5v-656q0 -35 -13 -54q-14 -22 -45 -22 q-29 0 -44 22q-13 19 -13 54v38q-66 -66 -138 -92t-184 -26q-118 0 -190 22t-122 74q-77 81 -77 208zM234 291q0 -104 68.5 -154.5t207.5 -50.5q87 0 150 15.5t114 65.5q58 56 58 201v135h-339q-128 0 -193.5 -54t-65.5 -158z" />
<glyph unicode="b" horiz-adv-x="1187" d="M213 67v1426q0 37 12 54q14 22 44.5 22t45.5 -22q11 -17 11 -54v-573q34 45 71 75t77 46t79 22t87 6q80 0 148.5 -25t110.5 -67q138 -138 138 -448q0 -312 -138 -450q-42 -42 -110.5 -67t-148.5 -25q-100 0 -174.5 31.5t-139.5 117.5v-69q0 -37 -11 -54 q-15 -22 -45.5 -22t-44.5 22q-12 17 -12 54zM326 528.5q0 -51.5 3 -94t11.5 -89t22 -83t36.5 -70t53.5 -56t74.5 -35.5t98 -13t98 13t74.5 35.5t53 56t36 70t22 83t11 89t2.5 94t-2.5 94t-11 89t-22 82.5t-36 70t-53 56t-74.5 35t-98 13t-98 -13t-74.5 -35t-53.5 -56 t-36.5 -70t-22 -82.5t-11.5 -89t-3 -94z" />
<glyph unicode="c" horiz-adv-x="1076" d="M151 528.5q0 252.5 123 396.5t340 144q86 0 152.5 -24.5t124.5 -75.5q32 -27 44 -44t12 -37q0 -19 -18 -35q-16 -14 -34 -14q-15 0 -28.5 8.5t-41.5 33.5q-56 48 -103.5 67.5t-107.5 19.5q-182 0 -277 -138q-39 -57 -55.5 -125.5t-16.5 -175.5q0 -73 7 -126t23 -95.5 t42 -81.5q95 -138 277 -138q60 0 107.5 19.5t103.5 67.5q28 25 41.5 33.5t28.5 8.5q18 0 34 -14q18 -16 18 -35q0 -20 -12 -37t-44 -44q-58 -51 -124.5 -75.5t-152.5 -24.5q-217 0 -340 144.5t-123 397z" />
<glyph unicode="d" horiz-adv-x="1187" d="M151 529q0 310 138 448q42 42 110.5 67t148.5 25q99 0 174 -31.5t139 -117.5v573q0 37 12 54q14 22 45 22t45 -22q12 -17 12 -54v-1426q0 -37 -12 -54q-14 -22 -45 -22t-45 22q-12 17 -12 54v69q-64 -86 -139 -117.5t-174 -31.5q-80 0 -148.5 25t-110.5 67 q-138 138 -138 450zM265 528.5q0 -51.5 3 -94t11 -89t21.5 -83t36.5 -70t53.5 -56t74.5 -35.5t98 -13t98 13t74.5 35.5t53.5 56t36.5 70t22 83t11 89t2.5 94t-2.5 94t-11 89t-22 82.5t-36.5 70t-53.5 56t-74.5 35t-98 13t-98 -13t-74.5 -35t-53.5 -56t-36.5 -70t-21.5 -82.5 t-11 -89t-3 -94z" />
<glyph unicode="e" horiz-adv-x="1145" d="M151 529q0 259 113 399.5t313 140.5q130 0 225.5 -60.5t146 -172.5t50.5 -264q0 -38 -15 -53t-53 -15h-666q0 -201 88.5 -308.5t255.5 -107.5q148 0 244 83q25 23 37 30.5t26 7.5q20 0 35 -16t15 -36q0 -21 -22 -46t-43.5 -39.5t-45.5 -27.5q-98 -57 -253 -57 q-219 0 -335 139t-116 403zM265 598h622q-3 70 -10 108.5t-26 85.5q-33 82 -106.5 129t-167.5 47t-167.5 -47.5t-106.5 -128.5q-20 -48 -27 -87t-11 -107z" />
<glyph unicode="f" horiz-adv-x="665" d="M90 1010q0 24 17 36q14 10 47 10h89v228q0 124 66.5 200t188.5 76h33q39 0 54 -11q20 -14 20 -39t-20 -40q-15 -11 -50 -11h-18q-41 0 -71.5 -12t-49.5 -34.5t-29 -55t-10 -73.5v-228h183q34 0 47 -10q18 -12 18 -36t-18 -36q-13 -10 -47 -10h-183v-897q0 -37 -11 -54 q-15 -22 -45.5 -22t-44.5 22q-13 19 -13 54v897h-89q-33 0 -47 10q-17 12 -17 36z" />
<glyph unicode="g" horiz-adv-x="1187" d="M151 529q0 310 138 448q42 42 110.5 67t148.5 25q99 0 174 -31.5t139 -117.5v69q0 37 12 54q14 22 45 22t45 -22q12 -17 12 -54v-1048q0 -133 -50.5 -236t-150 -162.5t-233.5 -59.5q-71 0 -123 11t-100 37q-24 13 -45.5 27t-45.5 38.5t-24 43.5q0 25 16.5 40t35.5 15 q5 0 9.5 -1t9.5 -3.5t9 -5t9.5 -7t9.5 -8t10.5 -9.5t11.5 -10q80 -69 217 -69q81 0 143.5 27.5t100.5 77t57 115.5t19 146v188q-64 -86 -139 -117.5t-174 -31.5q-80 0 -148.5 25t-110.5 67q-138 138 -138 450zM265 528.5q0 -51.5 3 -94t11 -89t21.5 -83t36.5 -70t53.5 -56 t74.5 -35.5t98 -13t98 13t74.5 35.5t53.5 56t36.5 70t22 83t11 89t2.5 94t-2.5 94t-11 89t-22 82.5t-36.5 70t-53.5 56t-74.5 35t-98 13t-98 -13t-74.5 -35t-53.5 -56t-36.5 -70t-21.5 -82.5t-11 -89t-3 -94z" />
<glyph unicode="h" horiz-adv-x="1228" d="M213 67v1426q0 37 12 54q14 22 44.5 22t45.5 -22q11 -17 11 -54v-562q119 138 312 138q178 0 282 -101q110 -103 110 -293v-608q0 -35 -12 -54q-15 -22 -45.5 -22t-44.5 22q-12 17 -12 54v586q0 153 -74.5 234t-216.5 81q-95 0 -162 -36.5t-102 -107.5t-35 -171v-586 q0 -37 -11 -54q-15 -22 -45.5 -22t-44.5 22q-12 17 -12 54z" />
<glyph unicode="i" horiz-adv-x="538" d="M188 1493q0 33 24 56.5t57.5 23.5t57.5 -23.5t24 -57t-24 -57.5t-57 -24q-17 0 -32 6.5t-26 17.5t-17.5 26t-6.5 32zM213 67v922q0 37 12 54q14 22 44.5 22t45.5 -22q11 -17 11 -54v-922q0 -37 -11 -54q-15 -22 -45.5 -22t-44.5 22q-12 17 -12 54z" />
<glyph unicode="j" horiz-adv-x="538" d="M-35 -453.5q0 24.5 20 39.5q15 11 50 11h17q54 0 90.5 21t53.5 60t17 94v1217q0 37 12 54q14 22 44.5 22t45.5 -22q11 -17 11 -54v-1217q0 -124 -65.5 -200t-187.5 -76h-33q-40 0 -55 11q-20 15 -20 39.5zM188 1493q0 33 24 56.5t57.5 23.5t57.5 -23.5t24 -57t-24 -57.5 t-57 -24q-17 0 -32 6.5t-26 17.5t-17.5 26t-6.5 32z" />
<glyph unicode="k" horiz-adv-x="1116" d="M213 67v1426q0 37 12 54q14 22 44.5 22t45.5 -22q11 -17 11 -54v-1032l504 574q13 14 22.5 21.5t17 10t17.5 2.5q19 0 32 -12q18 -16 18 -36q0 -25 -27 -56l-267 -302l362 -567q19 -30 19 -49q0 -30 -27 -47q-13 -9 -30 -9q-18 0 -31 10.5t-28 34.5l-344 544l-238 -270 v-243q0 -37 -11 -54q-15 -22 -45.5 -22t-44.5 22q-12 17 -12 54z" />
<glyph unicode="l" horiz-adv-x="628" d="M209 276v1217q0 37 11 54q15 22 45.5 22t44.5 -22q12 -17 12 -54v-1217q0 -84 40 -129.5t121 -45.5h17q35 0 50 -11q19 -15 19 -40t-19 -39q-15 -11 -55 -11h-33q-122 0 -187.5 76t-65.5 200z" />
<glyph unicode="m" horiz-adv-x="1930" d="M213 67v922q0 37 12 54q14 22 44.5 22t45.5 -22q11 -17 11 -54v-58q119 138 313 138q46 0 88.5 -8t79.5 -24t69 -39t57.5 -53.5t44.5 -68.5q59 94 151 143.5t209 49.5q86 0 158.5 -26.5t122.5 -74.5q112 -107 112 -293v-608q0 -37 -12 -54q-14 -22 -44.5 -22t-44.5 22 q-13 19 -13 54v586q0 152 -75.5 233.5t-216.5 81.5q-54 0 -100.5 -13t-82.5 -38.5t-61 -61.5t-38.5 -82t-13.5 -100v-606q0 -35 -13 -54q-14 -22 -44.5 -22t-44.5 22q-12 17 -12 54v586q0 152 -75 233.5t-216 81.5t-219.5 -83t-78.5 -232v-586q0 -37 -11 -54 q-15 -22 -45.5 -22t-44.5 22q-12 17 -12 54z" />
<glyph unicode="n" horiz-adv-x="1228" d="M213 67v922q0 37 12 54q14 22 44.5 22t45.5 -22q11 -17 11 -54v-58q119 138 312 138q178 0 282 -101q110 -103 110 -293v-608q0 -35 -12 -54q-15 -22 -45.5 -22t-44.5 22q-12 17 -12 54v586q0 153 -74.5 234t-216.5 81q-95 0 -162 -36.5t-102 -107.5t-35 -171v-586 q0 -37 -11 -54q-15 -22 -45.5 -22t-44.5 22q-12 17 -12 54z" />
<glyph unicode="o" horiz-adv-x="1156" d="M151 529q0 50 2.5 91t11 89.5t23 88.5t39 81t58.5 74q115 116 294 116q177 0 293 -116q42 -41 69.5 -92t41 -108.5t18.5 -109t5 -114.5q0 -51 -3 -92t-11.5 -89.5t-22.5 -89t-38.5 -81.5t-58.5 -74q-116 -116 -293 -116q-179 0 -294 116q-42 41 -70 92t-41 108.5 t-18 109.5t-5 116zM265 529q0 -43 2 -78t8 -76.5t16.5 -75t28.5 -66t42 -56.5q88 -89 217 -89q127 0 216 89q57 56 77 146.5t20 205.5q0 114 -20 204t-77 147q-89 88 -216 88q-129 0 -217 -88q-30 -30 -50 -71.5t-30 -90t-13.5 -92.5t-3.5 -97z" />
<glyph unicode="p" horiz-adv-x="1187" d="M213 -437v1426q0 37 12 54q14 22 44.5 22t45.5 -22q11 -17 11 -54v-69q34 45 71 75t77 46t79 22t87 6q80 0 148.5 -25t110.5 -67q138 -138 138 -448q0 -312 -138 -450q-42 -42 -110.5 -67t-148.5 -25q-100 0 -174.5 31.5t-139.5 117.5v-573q0 -36 -11 -54 q-15 -22 -45.5 -22t-44.5 22q-12 18 -12 54zM326 528.5q0 -51.5 3 -94t11.5 -89t22 -83t36.5 -70t53.5 -56t74.5 -35.5t98 -13t98 13t74.5 35.5t53 56t36 70t22 83t11 89t2.5 94t-2.5 94t-11 89t-22 82.5t-36 70t-53 56t-74.5 35t-98 13t-98 -13t-74.5 -35t-53.5 -56 t-36.5 -70t-22 -82.5t-11.5 -89t-3 -94z" />
<glyph unicode="q" horiz-adv-x="1187" d="M151 529q0 310 138 448q42 42 110.5 67t148.5 25q99 0 174 -31.5t139 -117.5v69q0 37 12 54q14 22 45 22t45 -22q12 -17 12 -54v-1426q0 -36 -12 -54q-14 -22 -45 -22t-45 22q-12 18 -12 54v573q-64 -86 -139 -117.5t-174 -31.5q-80 0 -148.5 25t-110.5 67 q-138 138 -138 450zM265 528.5q0 -51.5 3 -94t11 -89t21.5 -83t36.5 -70t53.5 -56t74.5 -35.5t98 -13t98 13t74.5 35.5t53.5 56t36.5 70t22 83t11 89t2.5 94t-2.5 94t-11 89t-22 82.5t-36.5 70t-53.5 56t-74.5 35t-98 13t-98 -13t-74.5 -35t-53.5 -56t-36.5 -70t-21.5 -82.5 t-11 -89t-3 -94z" />
<glyph unicode="r" horiz-adv-x="895" d="M213 67v922q0 37 12 54q14 22 44.5 22t45.5 -22q11 -17 11 -54v-73q45 72 129 112.5t178 40.5q111 0 193 -50q26 -16 40.5 -31.5t14.5 -36.5q0 -22 -15 -37q-17 -17 -40 -17q-19 0 -67 30q-67 41 -146 41q-91 0 -157 -44.5t-98 -116t-32 -159.5v-581q0 -37 -11 -54 q-15 -22 -45.5 -22t-44.5 22q-12 17 -12 54z" />
<glyph unicode="s" horiz-adv-x="1081" d="M121 151q0 22 17 39q13 13 35 13q24 0 63 -30q116 -85 297 -85q156 0 237 53.5t81 159.5q0 54 -22.5 91t-67 57.5t-113.5 26.5l-175 16q-318 27 -318 277q0 137 103.5 218.5t276.5 81.5q171 0 304 -72q29 -15 39 -33q7 -11 7 -26q0 -12 -11 -26q-16 -20 -39 -20 q-17 0 -53 20q-108 58 -247 58q-130 0 -200 -52t-70 -149q0 -81 52 -124t163 -52l171 -15q56 -5 99.5 -15t84 -30t67 -50t42.5 -76t16 -106q0 -145 -114.5 -229.5t-308.5 -84.5q-221 0 -370 103q-46 30 -46 61z" />
<glyph unicode="t" horiz-adv-x="711" d="M83 1010q0 24 18 36q13 10 47 10h88v270q0 37 12 54q15 23 45 23t45 -23q13 -19 13 -54v-270h183q33 0 47 -10q17 -12 17 -36t-17 -36q-14 -10 -47 -10h-183v-688q0 -84 39.5 -129.5t119.5 -45.5h19q35 0 50 -11q19 -15 19 -40t-19 -39q-15 -11 -56 -11h-32 q-122 0 -188.5 76t-66.5 200v688h-88q-34 0 -47 10q-18 12 -18 36z" />
<glyph unicode="u" horiz-adv-x="1228" d="M199 381v608q0 35 13 54q14 22 44.5 22t45.5 -22q12 -17 12 -54v-586q0 -153 74 -234t217 -81q142 0 220 82t78 233v586q0 37 12 54q14 22 44.5 22t45.5 -22q11 -17 11 -54v-922q0 -37 -11 -54q-15 -22 -45.5 -22t-44.5 22q-12 17 -12 54v58q-119 -138 -311 -138 q-179 0 -283 101q-110 103 -110 293z" />
<glyph unicode="v" horiz-adv-x="941" d="M72 1030q12 35 51 35q15 0 26.5 -7t19 -19t13.5 -31l289 -869l290 869q9 29 22.5 43t36.5 14q38 0 51 -35q3 -7 3 -17q0 -16 -8 -40l-315 -906q-14 -44 -37 -62q-17 -14 -43 -14t-43 14q-22 17 -36 62l-315 906q-8 24 -8 40q0 10 3 17z" />
<glyph unicode="w" horiz-adv-x="1560" d="M88 1031q5 14 19.5 24t32.5 10q23 0 38 -15q11 -11 20 -45l249 -866l242 822q19 68 44 88q20 16 47 16t47 -16q25 -20 44 -88l242 -822l249 866q9 34 20 45q15 15 38 15q18 0 32.5 -10t19.5 -24q3 -8 3 -19q0 -16 -6 -38l-265 -879q-10 -34 -20 -55t-24 -33 q-20 -16 -47.5 -16t-46.5 16q-25 20 -44 88l-242 806l-242 -806q-19 -68 -44 -88q-19 -16 -46.5 -16t-47.5 16q-24 20 -44 88l-265 879q-6 22 -6 38q0 11 3 19z" />
<glyph unicode="x" horiz-adv-x="945" d="M105 47q0 17 20 49l273 433l-272 431q-20 32 -20 49q0 29 28 47q13 9 30 9q12 0 22 -5t18.5 -14.5t18.5 -25.5l250 -413l251 413q14 24 27.5 34.5t31.5 10.5q17 0 30 -9q27 -17 27 -47q0 -19 -19 -49l-272 -431l273 -433q19 -30 19 -49q0 -30 -27 -47q-13 -9 -30 -9 q-18 0 -31.5 11t-27.5 34l-252 412l-252 -412q-14 -23 -27 -34t-31 -11q-17 0 -30 9q-28 18 -28 47z" />
<glyph unicode="y" horiz-adv-x="941" d="M72 1030q12 35 51 35q15 0 26.5 -7t19 -19t13.5 -31l289 -869l290 869q9 29 22.5 43t36.5 14q38 0 51 -35q3 -7 3 -17q0 -16 -8 -40l-438 -1260q-28 -83 -72 -124q-72 -66 -186 -66q-36 0 -52 10q-21 14 -21 40t21 40q14 10 46 10q67 0 108 32t67 111l78 234l-340 973 q-8 24 -8 40q0 10 3 17z" />
<glyph unicode="z" horiz-adv-x="983" d="M109 55q0 24 24 56l599 845h-523q-36 0 -52 10q-19 15 -19 40t19 39q16 11 52 11h584q42 0 58 -13q19 -16 19 -41q0 -27 -23 -57l-600 -844h558q35 0 50 -11q19 -15 19 -40t-19 -39q-15 -11 -50 -11h-619q-41 0 -57 13q-20 16 -20 42z" />
<glyph unicode="{" horiz-adv-x="692" d="M105 780q0 21 14 35q13 13 44 15q44 4 80 40q39 40 39 132v453q0 88 12.5 132t44.5 76q58 58 176 58h4q34 0 53 -10q22 -11 22 -39q0 -26 -19 -39q-16 -11 -56 -11q-39 0 -58 -6t-34 -21q-17 -17 -23.5 -48.5t-6.5 -93.5v-454q0 -83 -31.5 -133.5t-102.5 -85.5 q36 -18 60.5 -38t41 -46.5t24.5 -59.5t8 -75v-452q0 -62 6.5 -93.5t23.5 -48.5q15 -15 33.5 -20.5t58.5 -5.5q39 0 56 -12q19 -12 19 -38q0 -29 -22 -40q-17 -8 -53 -8h-4q-119 0 -176 56q-32 32 -44.5 76t-12.5 132v452q0 92 -39 131q-36 36 -80 40q-31 2 -44 15 q-14 14 -14 35z" />
<glyph unicode="|" horiz-adv-x="694" d="M291 -94v1748q0 36 13 55q15 22 45 22t45 -22q12 -18 12 -55v-1748q0 -37 -12 -55q-15 -22 -45 -22t-45 22q-13 20 -13 55z" />
<glyph unicode="}" horiz-adv-x="692" d="M98 -109q0 25 21 38q17 12 54 12q40 0 59 5.5t33 20.5q18 17 24 48.5t6 93.5v452q0 42 8 75t25 59.5t41.5 46.5t59.5 38q-70 35 -102 85.5t-32 133.5v454q0 62 -6 93.5t-24 48.5q-15 15 -33.5 21t-58 6t-54.5 11q-21 13 -21 39q0 28 23 39q19 10 52 10h5q117 0 175 -58 q32 -32 44.5 -76t12.5 -132v-453q0 -92 39 -132q37 -36 82 -40q31 -2 44 -15q12 -12 12 -34.5t-12 -35.5q-13 -13 -44 -15q-45 -4 -82 -40q-39 -39 -39 -131v-452q0 -88 -12.5 -132t-44.5 -76q-57 -56 -175 -56h-5q-35 0 -52 8q-23 12 -23 40z" />
<glyph unicode="~" d="M125 539q0 27 32 59q56 55 105 75.5t108 20.5q12 0 24 -1t25 -3.5t24 -5t25 -7.5t24 -8.5t25.5 -9.5t24.5 -10t26 -11t26 -11q4 -2 12 -5q36 -16 55 -23.5t47 -14.5t53 -7q43 0 74 13.5t72 53.5q27 27 51 27q17 0 31 -14q13 -13 13 -30q0 -27 -34 -60q-55 -55 -104 -75.5 t-108 -20.5q-17 0 -37 3t-34 6.5t-39 12.5t-35 13t-40 17t-38 16q-4 2 -13 6q-35 16 -54 23.5t-47 14.5t-53 7q-43 0 -74 -14.5t-73 -54.5q-25 -26 -50 -26q-18 0 -31 13t-13 31z" />
<glyph unicode="&#xa1;" horiz-adv-x="665" d="M215 975q0 23 12 43.5t32 32.5t44 12q36 0 62 -26t26 -62t-26 -62t-62 -26t-62 26t-26 62zM243 -430v992q0 39 14 61q15 21 46 21t46 -21q13 -20 13 -61v-992q0 -41 -13 -61q-15 -22 -46 -22t-46 22q-14 22 -14 61z" />
<glyph unicode="&#xa2;" horiz-adv-x="1076" d="M151 802q0 231 103.5 372t290.5 165v160q0 35 10 50q15 20 40 20t40 -20q10 -15 10 -50v-157q139 -8 246 -99q22 -18 33 -30.5t17 -24.5t6 -26q0 -19 -18 -35q-16 -14 -34 -14q-15 0 -28.5 8.5t-41.5 33.5q-32 28 -61.5 46t-58 27.5t-60.5 12.5v-878q32 2 60.5 12t58 28 t61.5 46q28 25 41.5 33.5t28.5 8.5q18 0 34 -14q18 -16 18 -35q0 -20 -12 -37t-44 -44q-105 -91 -246 -99v-201q0 -35 -10 -50q-15 -20 -40 -20t-40 20q-10 15 -10 50v204q-187 24 -290.5 165t-103.5 372zM265 802q0 -72 7 -125t23 -95.5t42 -81.5q75 -110 208 -133v869 q-133 -23 -208 -132q-39 -57 -55.5 -126t-16.5 -176z" />
<glyph unicode="&#xa3;" horiz-adv-x="1175" d="M101 789q0 21 17 34q12 9 45 9h86v268q0 214 127 343.5t339 129.5q82 0 158 -22.5t131 -67.5q37 -30 37 -59q0 -19 -13 -35q-15 -19 -39 -19q-23 0 -59 28q-89 70 -215 70q-167 0 -257 -102t-90 -290v-244h293q33 0 45 -9q17 -13 17 -34t-17 -34q-14 -10 -45 -10h-293 v-640h625q39 0 52 -11q20 -16 20 -41.5t-20 -41.5q-13 -11 -52 -11h-673q-38 0 -54 16q-17 17 -17 55v674h-86q-32 0 -45 10q-17 13 -17 34z" />
<glyph unicode="&#xa5;" horiz-adv-x="1081" d="M54 1523q3 26 31 39q12 7 25 7q14 0 24 -6q20 -12 36 -46l371 -742l372 742q16 34 36 46q9 6 23 6q13 0 26 -7q28 -13 31 -39q3 -17 -16 -56l-311 -621h183q31 0 45 -10q17 -13 17 -34t-17 -34q-13 -9 -45 -9h-227l-58 -118v-110h285q31 0 45 -11q17 -12 17 -33 q0 -22 -17 -34q-13 -10 -45 -10h-285v-369q0 -41 -13 -61q-14 -22 -45.5 -22t-46.5 22q-12 20 -12 61v369h-288q-33 0 -45 10q-16 11 -16 34q0 21 16 33q14 11 45 11h288v110l-60 118h-228q-33 0 -45 9q-16 12 -16 34t16 34q14 10 45 10h184l-309 621q-19 38 -16 56z" />
<glyph unicode="&#xa7;" horiz-adv-x="1240" d="M213 541q0 132 68 228.5t173 144.5q-107 46 -162.5 119.5t-55.5 189.5q0 107 52.5 187.5t139 121.5t193.5 41q126 0 216.5 -45.5t132.5 -129.5q36 -70 36 -127q0 -29 -15 -48q-15 -18 -42 -18q-28 0 -44 22q-11 15 -16 48q-16 103 -82 149t-186 46q-62 0 -111 -15 t-84 -45.5t-54 -77.5t-19 -109q0 -178 199 -234l182 -51q138 -38 216 -145.5t78 -251.5q0 -131 -68 -227.5t-174 -144.5q51 -17 93 -47.5t71.5 -71.5t45.5 -92t16 -109q0 -160 -109.5 -263t-281.5 -103q-131 0 -225.5 47.5t-137.5 132.5q-34 68 -34 125q0 34 17 52 q16 16 39 16t39 -16q14 -15 20 -55q30 -197 282 -197q127 0 200.5 68t73.5 193q0 87 -56 152.5t-151 92.5l-182 50q-137 38 -215 146t-78 251zM331 541q0 -71 17 -123t60 -98q83 -90 213 -90q128 0 211 90q43 46 60.5 98t17.5 123.5t-17.5 123.5t-60.5 98q-83 90 -211 90 q-130 0 -213 -90q-29 -31 -46.5 -65.5t-24 -71.5t-6.5 -85z" />
<glyph unicode="&#xa8;" horiz-adv-x="1095" d="M270 1396q0 17 6.5 32t17 25.5t25.5 17t32 6.5q34 0 57 -23.5t23 -57.5q0 -16 -6 -31t-17 -26t-25.5 -17.5t-31.5 -6.5q-22 0 -41 11t-29.5 29.5t-10.5 40.5zM725 1396q0 17 6.5 32t17.5 25.5t26 17t32 6.5q33 0 56.5 -23.5t23.5 -57.5q0 -22 -10.5 -40.5t-29 -29.5 t-40.5 -11q-34 0 -58 24t-24 57z" />
<glyph unicode="&#xa9;" horiz-adv-x="1958" d="M186 780q0 162 63 308.5t169 253t252.5 169t308.5 62.5t309 -62.5t253 -169t169 -253t63 -308.5t-63 -308.5t-169 -252.5t-253 -169t-309 -63q-108 0 -211 28.5t-190 79.5t-160 124t-124 160t-79.5 190t-28.5 211zM278 780q0 -81 18.5 -160t53.5 -148.5t83 -131.5 t109 -111t130 -84.5t147.5 -54.5t159.5 -19q141 0 271 57t224.5 153t150.5 227t56 272.5t-56 272.5t-150.5 227t-224.5 153.5t-271 57.5t-271 -57.5t-224 -153.5t-150 -227t-56 -273zM654 780q0 66 12.5 124t39 107.5t66 85t96 56t126.5 20.5q122 0 202 -71 q23 -21 31.5 -33.5t8.5 -26.5q0 -16 -10 -26q-12 -11 -28 -11q-17 0 -54 31q-39 34 -72.5 46.5t-77.5 12.5q-57 0 -101 -17t-72 -45.5t-46.5 -69.5t-25.5 -85.5t-7 -97.5t7 -97.5t25.5 -85.5t46.5 -69.5t72 -45.5t101 -17q44 0 77.5 12.5t72.5 46.5q37 31 54 31q16 0 28 -11 q10 -10 10 -26q0 -14 -8.5 -26.5t-31.5 -33.5q-80 -71 -202 -71q-86 0 -152.5 31t-107 85t-60.5 124t-20 153z" />
<glyph unicode="&#xaa;" horiz-adv-x="981" d="M127 947q0 114 78.5 178.5t215.5 64.5h265v92q0 101 -54 150t-176 49q-72 0 -120 -23.5t-93 -76.5q-17 -19 -41 -19q-17 0 -28.5 12t-11.5 33q0 40 80 101q78 58 214 58q108 0 181.5 -32.5t109 -93.5t35.5 -150v-515q0 -35 -9 -47q-15 -20 -39 -20t-38 20q-10 12 -10 47 v22q-53 -52 -108 -72t-141 -20q-94 0 -150.5 17.5t-97.5 59.5q-29 30 -45.5 73.5t-16.5 91.5zM224 949q0 -81 51 -119.5t162 -38.5q74 0 122 14.5t84 50.5q24 24 33.5 60t9.5 94v103h-255q-207 0 -207 -164z" />
<glyph unicode="&#xab;" horiz-adv-x="1201" d="M91 545l377 376q28 28 46 31q26 4 44.5 -14.5t15.5 -44.5q-3 -18 -32 -46l-302 -302l302 -303q29 -28 32 -46q3 -26 -15.5 -44t-44.5 -15q-18 3 -46 31zM548 545l376 376q29 28 46 31q27 4 45.5 -14.5t14.5 -44.5q-3 -18 -31 -46l-302 -302l302 -303q28 -28 31 -46 q4 -26 -14.5 -44t-45.5 -15q-17 3 -46 31z" />
<glyph unicode="&#xac;" d="M107 577q0 23 20 38q17 12 51 12h763q36 0 52 -16q15 -15 15 -52v-264q0 -35 -11 -50q-14 -19 -39 -19t-40 19q-11 15 -11 50v231h-729q-35 0 -51 11q-20 15 -20 40z" />
<glyph unicode="&#xae;" horiz-adv-x="1958" d="M186 780q0 162 63 308.5t169 253t252.5 169t308.5 62.5t309 -62.5t253 -169t169 -253t63 -308.5t-63 -308.5t-169 -252.5t-253 -169t-309 -63q-108 0 -211 28.5t-190 79.5t-160 124t-124 160t-79.5 190t-28.5 211zM278 780q0 -81 18.5 -160t53.5 -148.5t83 -131.5 t109 -111t130 -84.5t147.5 -54.5t159.5 -19q141 0 271 57t224.5 153t150.5 227t56 272.5t-56 272.5t-150.5 227t-224.5 153.5t-271 57.5t-271 -57.5t-224 -153.5t-150 -227t-56 -273zM764 453v657q0 30 12 42q14 13 43 13h190q63 0 117 -27.5t86.5 -79.5t32.5 -117 q0 -85 -46.5 -139t-126.5 -75l150 -254q15 -25 15 -43q0 -20 -20 -32q-12 -6 -24 -6q-25 0 -46 37l-170 290h-125v-266q0 -32 -11 -45q-12 -16 -33 -16q-23 0 -34 16q-10 12 -10 45zM852 796h146q71 0 115.5 39t44.5 105.5t-44.5 105.5t-115.5 39h-146v-289z" />
<glyph unicode="&#xaf;" horiz-adv-x="1095" d="M258 1387q0 25 19 39q15 11 50 11h502q35 0 51 -11q20 -15 20 -39t-20 -39q-17 -12 -51 -12h-502q-33 0 -50 12q-19 15 -19 39z" />
<glyph unicode="&#xb0;" horiz-adv-x="1002" d="M157 1231.5q0 93.5 46 173t125.5 125.5t173.5 46t173 -46t125 -125.5t46 -173t-46 -173t-125 -125.5t-173 -46t-173.5 46t-125.5 125.5t-46 173zM257 1231.5q0 -108.5 70 -180.5t175 -72q69 0 125 33t88 90.5t32 129.5q0 108 -70 179.5t-175 71.5t-175 -71.5t-70 -180z " />
<glyph unicode="&#xb1;" d="M107 50.5q0 24.5 20 39.5q16 11 51 11h771q35 0 50 -11q20 -15 20 -40t-20 -39q-15 -11 -50 -11h-771q-35 0 -51 11q-20 15 -20 39.5zM107 644q0 24 20 40q16 10 51 10h335v336q0 35 10 51q15 19 40 19t39 -19q11 -16 11 -51v-336h336q35 0 50 -10q20 -15 20 -40t-20 -39 q-15 -11 -50 -11h-336v-335q0 -35 -11 -50q-15 -21 -39.5 -21t-39.5 21q-10 15 -10 50v335h-335q-35 0 -51 11q-20 15 -20 39z" />
<glyph unicode="&#xb4;" horiz-adv-x="1095" d="M521 1345q0 18 20 50l118 190q12 21 28 33q15 12 32 12q14 0 29 -10q28 -18 28 -47q0 -19 -20 -49l-118 -190q-16 -25 -28 -34q-14 -11 -31 -11t-30 9q-28 18 -28 47z" />
<glyph unicode="&#xb5;" horiz-adv-x="1242" d="M213 -437v1426q0 37 12 54q14 22 44.5 22t45.5 -22q11 -17 11 -54v-586q0 -153 75 -234t217 -81q143 0 220.5 82t77.5 233v586q0 37 12 54q14 22 44.5 22t45.5 -22q12 -19 12 -54v-922q0 -35 -12 -54q-15 -22 -45.5 -22t-44.5 22q-12 17 -12 54v58q-119 -138 -311 -138 q-176 0 -279 96v-520q0 -36 -12 -56q-13 -20 -44 -20q-28 0 -44 20q-13 16 -13 56z" />
<glyph unicode="&#xb6;" horiz-adv-x="1267" d="M98 1144q0 82 31 156t87.5 132.5t146 93t198.5 34.5h401q37 0 52 -15q16 -16 16 -52v-1930q0 -35 -12 -54q-15 -22 -45.5 -22t-44.5 22q-12 18 -12 54v1892h-268v-1892q0 -36 -11 -54q-15 -22 -45.5 -22t-44.5 22q-12 18 -12 54v1165q-101 0 -185 35.5t-138 95t-84 133 t-30 152.5z" />
<glyph unicode="&#xb7;" horiz-adv-x="654" d="M227 579q0 42 29.5 71t71 29t71 -29t29.5 -71q0 -28 -13.5 -51t-36.5 -37t-51 -14q-41 0 -70.5 30t-29.5 72z" />
<glyph unicode="&#xb8;" horiz-adv-x="1156" d="M369 -428q0 17 20 49l118 190q14 23 28 34t31 11t30 -9q28 -18 28 -47q0 -17 -21 -49l-117 -191q-15 -23 -28 -33q-15 -12 -32 -12q-15 0 -29 10q-28 18 -28 47z" />
<glyph unicode="&#xba;" horiz-adv-x="994" d="M157 1137q0 107 22.5 191.5t83.5 145.5q92 92 234.5 92t234.5 -92q61 -61 83 -145t22 -192q0 -69 -7 -122t-31.5 -112.5t-66.5 -102.5q-92 -92 -234.5 -92t-234.5 92q-32 33 -54 73t-32.5 85.5t-15 87t-4.5 91.5zM255 1137.5q0 -43.5 2 -74.5t8.5 -71t21.5 -72.5 t39 -56.5q71 -70 171.5 -70t171.5 70q24 24 39.5 56.5t22 72.5t8 71t1.5 74q0 35 -0.5 59.5t-5 58t-11.5 59t-21 52t-33 45.5q-70 70 -171.5 70t-171.5 -70q-24 -24 -39 -56t-21.5 -72t-8.5 -71t-2 -74.5z" />
<glyph unicode="&#xbb;" horiz-adv-x="1201" d="M172 197q3 19 30 46l303 303l-303 303q-27 26 -30 46q-3 26 14 43q18 19 45 15q18 -3 46 -31l377 -376l-377 -377q-28 -28 -46 -31q-27 -3 -45 15q-17 17 -14 44zM629 197q3 19 30 46l303 303l-303 303q-27 26 -30 46q-3 26 14 43q18 19 45 15q18 -3 46 -31l377 -376 l-377 -377q-28 -28 -46 -31q-27 -3 -45 15q-17 17 -14 44z" />
<glyph unicode="&#xbf;" horiz-adv-x="1068" d="M107 -132q0 70 24.5 130t71.5 131l184 272q25 36 33.5 75.5t8.5 92.5q0 37 13 56q14 21 45 21t45 -21q12 -18 12 -56q0 -79 -11.5 -123.5t-52.5 -104.5l-185 -270q-38 -57 -56 -101t-18 -102q0 -122 80.5 -204t200.5 -82q121 0 197 73q68 65 82 176q4 37 14 52 q15 23 48 23q27 0 40 -19q12 -18 12 -42q0 -65 -30 -133.5t-77 -117.5q-110 -111 -286 -111q-110 0 -201 50.5t-142.5 138.5t-51.5 196zM399 975q0 23 12 43.5t32 32.5t44 12q36 0 62 -26t26 -62t-26 -62t-62 -26t-62 26t-26 62z" />
<glyph unicode="&#xc0;" horiz-adv-x="1318" d="M66 93l525 1403q12 35 22 49q16 24 46 24t46 -24q12 -17 24 -49l523 -1403q7 -18 9.5 -31t0 -27.5t-13.5 -25.5q-18 -18 -45 -18q-14 0 -28 9q-19 13 -33 51l-124 328h-716l-124 -328q-15 -38 -34 -51q-13 -9 -27 -9q-28 0 -45 18q-27 27 -6 84zM338 485h642l-321 884z M462 1984q0 29 28 47q15 9 29 9q17 0 32 -11q16 -12 28 -33l118 -190q20 -32 20 -50q0 -29 -28 -47q-13 -9 -30 -9t-31 11q-12 9 -28 34l-117 190q-21 32 -21 49z" />
<glyph unicode="&#xc1;" horiz-adv-x="1318" d="M66 93l525 1403q12 35 22 49q16 24 46 24t46 -24q12 -17 24 -49l523 -1403q7 -18 9.5 -31t0 -27.5t-13.5 -25.5q-18 -18 -45 -18q-14 0 -28 9q-19 13 -33 51l-124 328h-716l-124 -328q-15 -38 -34 -51q-13 -9 -27 -9q-28 0 -45 18q-27 27 -6 84zM338 485h642l-321 884z M602 1762q0 17 21 50l117 189q14 23 28 34t32 11q16 0 29 -9q28 -18 28 -47q0 -17 -20 -49l-118 -190q-15 -24 -28 -34q-15 -11 -32 -11q-14 0 -29 9q-28 18 -28 47z" />
<glyph unicode="&#xc2;" horiz-adv-x="1318" d="M66 93l525 1403q12 35 22 49q16 24 46 24t46 -24q12 -17 24 -49l523 -1403q7 -18 9.5 -31t0 -27.5t-13.5 -25.5q-18 -18 -45 -18q-14 0 -28 9q-19 13 -33 51l-124 328h-716l-124 -328q-15 -38 -34 -51q-13 -9 -27 -9q-28 0 -45 18q-27 27 -6 84zM338 485h642l-321 884z M377 1755q3 19 27 44l207 207q27 27 48 27q23 0 49 -27l207 -207q24 -25 28 -44q3 -23 -15 -41t-42 -15q-19 3 -44 28l-183 183l-183 -183q-24 -25 -44 -28q-22 -3 -40 15t-15 41z" />
<glyph unicode="&#xc3;" horiz-adv-x="1318" d="M66 93l525 1403q12 35 22 49q16 24 46 24t46 -24q12 -17 24 -49l523 -1403q7 -18 9.5 -31t0 -27.5t-13.5 -25.5q-18 -18 -45 -18q-14 0 -28 9q-19 13 -33 51l-124 328h-716l-124 -328q-15 -38 -34 -51q-13 -9 -27 -9q-28 0 -45 18q-27 27 -6 84zM332 1799q0 26 33 55 q34 30 65.5 46t49.5 19t42 3q30 0 56.5 -7t46 -16.5t49.5 -28.5q19 -12 31 -18.5t28.5 -14t31.5 -11t31 -3.5q26 0 46.5 7.5t50.5 34.5q32 28 51 28q17 0 29 -12q15 -15 15 -31q0 -26 -34 -56q-33 -29 -65 -45t-50.5 -19t-42.5 -3q-30 0 -56.5 7t-45 16t-49.5 28 q-38 24 -65.5 35.5t-57.5 11.5q-10 0 -17 -0.5t-16.5 -2.5t-18 -6.5t-20 -12.5t-24.5 -19q-33 -29 -50 -29q-16 0 -29 13q-15 15 -15 31zM338 485h642l-321 884z" />
<glyph unicode="&#xc4;" horiz-adv-x="1318" d="M66 93l525 1403q12 35 22 49q16 24 46 24t46 -24q12 -17 24 -49l523 -1403q7 -18 9.5 -31t0 -27.5t-13.5 -25.5q-18 -18 -45 -18q-14 0 -28 9q-19 13 -33 51l-124 328h-716l-124 -328q-15 -38 -34 -51q-13 -9 -27 -9q-28 0 -45 18q-27 27 -6 84zM338 485h642l-321 884z M351 1813q0 33 23.5 56.5t57 23.5t57.5 -23.5t24 -57t-24 -57.5t-58 -24q-16 0 -31 6.5t-25.5 17.5t-17 26t-6.5 32zM807 1812.5q0 33.5 23 57t57 23.5t57.5 -23.5t23.5 -56.5q0 -23 -10.5 -41.5t-29.5 -29.5t-41 -11q-34 0 -57 24t-23 57.5z" />
<glyph unicode="&#xc5;" horiz-adv-x="1318" d="M66 93l525 1403q12 35 22 49q16 24 46 24t46 -24q12 -17 24 -49l523 -1403q7 -18 9.5 -31t0 -27.5t-13.5 -25.5q-18 -18 -45 -18q-14 0 -28 9q-19 13 -33 51l-124 328h-716l-124 -328q-15 -38 -34 -51q-13 -9 -27 -9q-28 0 -45 18q-27 27 -6 84zM338 485h642l-321 884z M410 1884.5q0 103.5 73 177t176.5 73.5t177 -73.5t73.5 -177.5q0 -68 -34 -125t-91.5 -90.5t-125.5 -33.5q-103 0 -176 73t-73 176.5zM500 1884.5q0 -66.5 46.5 -113t112.5 -46.5q44 0 81 21t58.5 58t21.5 80q0 67 -47 114t-113.5 47t-113 -47t-46.5 -113.5z" />
<glyph unicode="&#xc6;" horiz-adv-x="1937" d="M56 37q-3 18 16 56l698 1400q18 36 38 52q18 15 46 15h894q41 0 56 -11q20 -15 20 -41t-20 -42q-15 -11 -56 -11h-760v-616h638q40 0 55 -11q20 -15 20 -41.5t-20 -41.5q-15 -11 -55 -11h-638v-629h760q41 0 56 -11q20 -15 20 -41.5t-20 -41.5q-15 -11 -56 -11h-809 q-38 0 -54 16t-16 55v308h-532l-165 -336q-16 -34 -36 -46q-9 -6 -24 -6q-12 0 -25 7q-28 14 -31 39zM391 485h478v970z" />
<glyph unicode="&#xc7;" horiz-adv-x="1410" d="M180 780q0 106 1.5 170t6.5 132t15 109t27.5 85t42.5 77.5t62 70.5q70 71 168 110t212 39q270 0 428 -203q38 -51 63.5 -113.5t25.5 -98.5q0 -28 -15 -43t-38.5 -15t-38.5 15q-17 17 -29 57q-43 139 -146.5 217.5t-249.5 78.5q-177 0 -297 -120q-28 -28 -47.5 -57 t-33 -68t-21 -76.5t-11.5 -98.5t-5 -118.5t-1 -149.5t1 -149t5 -118t11.5 -99t21 -76.5t33 -67.5t47.5 -57q121 -121 297 -121q146 0 249.5 79t146.5 218q11 39 29 56q15 15 38.5 15t38.5 -15t15 -43q0 -36 -25.5 -98.5t-63.5 -113.5q-158 -203 -428 -203q-114 0 -212 39 t-168 110q-37 37 -62 70.5t-42.5 77.5t-27.5 85t-15 109t-6.5 132t-1.5 170zM532 -428q0 19 19 49l119 190q14 24 27 34q13 11 32 11q17 0 30 -9q26 -17 26 -47q0 -19 -19 -49l-119 -191q-16 -25 -26 -33q-16 -12 -33 -12q-15 0 -29 10q-27 17 -27 47z" />
<glyph unicode="&#xc8;" horiz-adv-x="1309" d="M241 71v1420q0 36 17 53q16 16 53 16h810q40 0 55 -11q20 -15 20 -41t-20 -42q-15 -11 -55 -11h-761v-616h638q40 0 55 -11q21 -16 21 -41.5t-21 -41.5q-15 -11 -55 -11h-638v-629h761q40 0 55 -11q20 -15 20 -41.5t-20 -41.5q-15 -11 -55 -11h-810q-37 0 -53 16 q-17 17 -17 55zM489 1984q0 30 27 47q14 9 30 9q17 0 32 -11q13 -11 27 -33l118 -190q20 -30 20 -50q0 -30 -27 -47q-13 -9 -30 -9q-18 0 -32 11q-10 7 -27 34l-119 190q-19 30 -19 49z" />
<glyph unicode="&#xc9;" horiz-adv-x="1309" d="M241 71v1420q0 36 17 53q16 16 53 16h810q40 0 55 -11q20 -15 20 -41t-20 -42q-15 -11 -55 -11h-761v-616h638q40 0 55 -11q21 -16 21 -41.5t-21 -41.5q-15 -11 -55 -11h-638v-629h761q40 0 55 -11q20 -15 20 -41.5t-20 -41.5q-15 -11 -55 -11h-810q-37 0 -53 16 q-17 17 -17 55zM629 1762q0 19 19 50l119 189q15 24 27 34q14 11 32 11q17 0 30 -9q27 -17 27 -47q0 -19 -20 -49l-118 -190q-16 -25 -27 -34q-15 -11 -32 -11q-16 0 -30 9q-27 18 -27 47z" />
<glyph unicode="&#xca;" horiz-adv-x="1309" d="M241 71v1420q0 36 17 53q16 16 53 16h810q40 0 55 -11q20 -15 20 -41t-20 -42q-15 -11 -55 -11h-761v-616h638q40 0 55 -11q21 -16 21 -41.5t-21 -41.5q-15 -11 -55 -11h-638v-629h761q40 0 55 -11q20 -15 20 -41.5t-20 -41.5q-15 -11 -55 -11h-810q-37 0 -53 16 q-17 17 -17 55zM403 1755q4 20 27 44l208 207q26 27 47.5 27t48.5 -27l208 -207q23 -24 26 -44q3 -24 -14 -41q-18 -18 -41 -15q-20 3 -44 28l-183 183l-183 -183q-25 -25 -44 -28q-24 -3 -42 15q-17 17 -14 41z" />
<glyph unicode="&#xcb;" horiz-adv-x="1309" d="M241 71v1420q0 36 17 53q16 16 53 16h810q40 0 55 -11q20 -15 20 -41t-20 -42q-15 -11 -55 -11h-761v-616h638q40 0 55 -11q21 -16 21 -41.5t-21 -41.5q-15 -11 -55 -11h-638v-629h761q40 0 55 -11q20 -15 20 -41.5t-20 -41.5q-15 -11 -55 -11h-810q-37 0 -53 16 q-17 17 -17 55zM377 1812.5q0 33.5 23.5 57t57.5 23.5t57.5 -23.5t23.5 -57t-23.5 -57.5t-57.5 -24t-57.5 24t-23.5 57.5zM832 1812.5q0 33.5 24 57t58 23.5t57.5 -23.5t23.5 -56.5q0 -23 -11 -41.5t-29.5 -29.5t-40.5 -11q-34 0 -58 24t-24 57.5z" />
<glyph unicode="&#xcc;" horiz-adv-x="600" d="M103 1984q0 29 28 47q14 9 29 9q16 0 32 -11q15 -12 27 -33l118 -190q20 -32 20 -50q0 -29 -27 -47q-13 -9 -29 -9q-19 0 -32 11q-12 9 -28 34l-118 190q-20 32 -20 49zM241 74v1413q0 39 14 60q14 22 45.5 22t46.5 -22q13 -20 13 -60v-1413q0 -41 -13 -61 q-15 -22 -46.5 -22t-45.5 22q-14 21 -14 61z" />
<glyph unicode="&#xcd;" horiz-adv-x="600" d="M241 74v1413q0 39 14 60q14 22 45.5 22t46.5 -22q13 -20 13 -60v-1413q0 -41 -13 -61q-15 -22 -46.5 -22t-45.5 22q-14 21 -14 61zM243 1762q0 17 20 50l118 189q13 23 28 34q13 11 32 11q16 0 29 -9q28 -18 28 -47q0 -17 -21 -49l-117 -190q-15 -24 -28 -34 q-15 -11 -31 -11t-30 9q-28 18 -28 47z" />
<glyph unicode="&#xce;" horiz-adv-x="600" d="M17 1755q3 19 28 44l208 207q26 27 47.5 27t48.5 -27l206 -207q25 -25 28 -44q3 -23 -15 -41t-40 -15q-20 3 -44 28l-183 183l-183 -183q-25 -25 -44 -28q-24 -3 -42 15t-15 41zM241 74v1413q0 39 14 60q14 22 45.5 22t46.5 -22q13 -20 13 -60v-1413q0 -41 -13 -61 q-15 -22 -46.5 -22t-45.5 22q-14 21 -14 61z" />
<glyph unicode="&#xcf;" horiz-adv-x="600" d="M18 1812.5q0 33.5 24 57t57.5 23.5t57.5 -23.5t24 -57t-24 -57.5t-57.5 -24t-57.5 24t-24 57.5zM241 74v1413q0 39 14 60q14 22 45.5 22t46.5 -22q13 -20 13 -60v-1413q0 -41 -13 -61q-15 -22 -46.5 -22t-45.5 22q-14 21 -14 61zM419 1813q0 16 6.5 31t17.5 25.5t26 17 t32 6.5q34 0 57.5 -23.5t23.5 -57t-24 -57.5t-57.5 -24t-57.5 24t-24 58z" />
<glyph unicode="&#xd0;" horiz-adv-x="1509" d="M79 786.5q0 25.5 19 39.5q16 11 51 11h116v654q0 37 16 53t54 16h454q248 0 390 -142q27 -27 49 -59.5t37.5 -71t27 -74.5t18 -83.5t11 -84t6 -90t2 -86.5t0.5 -89q0 -64 -0.5 -101.5t-3.5 -99t-8.5 -102t-16.5 -93.5t-27 -92t-40 -79t-55 -71q-142 -142 -390 -142h-454 q-38 0 -54 16t-16 55v665h-116q-35 0 -51 11q-19 14 -19 39.5zM383 105h378q219 0 335 121q24 25 43 59.5t31 67t20.5 79.5t12.5 81t6.5 89.5t2.5 87v90.5v90.5t-2.5 87t-6.5 89.5t-12.5 81t-20.5 79.5t-31 67t-43 59.5q-116 121 -335 121h-378v-618h330q35 0 50 -11 q19 -14 19 -39.5t-19 -39.5q-15 -11 -50 -11h-330v-631z" />
<glyph unicode="&#xd1;" horiz-adv-x="1618" d="M241 74v1413q0 42 21 63q18 19 46 19q38 0 65 -42l887 -1310v1270q0 40 13 60q15 22 46.5 22t45.5 -22q13 -20 13 -60v-1413q0 -44 -20 -64q-18 -19 -46 -19q-39 0 -67 42l-885 1310v-1269q0 -41 -13 -61q-15 -22 -46.5 -22t-45.5 22q-14 21 -14 61zM483 1799q0 27 32 55 q26 23 49 37.5t43.5 20.5t34 8t31.5 2q30 0 56.5 -7t45 -16.5t49.5 -28.5q38 -23 65.5 -35t57.5 -12q26 0 46 7.5t50 34.5q32 28 51 28q18 0 30 -12q13 -14 13 -31q0 -26 -33 -56q-34 -29 -65.5 -45t-49.5 -19t-42 -3q-30 0 -56.5 7t-46 16.5t-49.5 27.5q-19 12 -31 19 t-28.5 14.5t-31.5 10.5t-31 3q-10 0 -17 -0.5t-16.5 -2.5t-18 -6.5t-20 -12.5t-24.5 -19q-33 -29 -51 -29q-17 0 -30 13q-13 14 -13 31z" />
<glyph unicode="&#xd2;" horiz-adv-x="1428" d="M180 780q0 106 1.5 170t6.5 132t15 109t27.5 85t42.5 77.5t62 70.5q70 71 168 110t212 39t211 -39t168 -110q36 -37 61 -70.5t43 -77.5t27.5 -85t15 -109t7 -132t1.5 -170t-1.5 -170t-7 -132t-15 -109t-27.5 -85t-43 -77.5t-61 -70.5q-71 -71 -168 -110t-211 -39t-212 39 t-168 110q-37 37 -62 70.5t-42.5 77.5t-27.5 85t-15 109t-6.5 132t-1.5 170zM299 780q0 -92 1 -149t5 -118t11.5 -99t21 -76.5t33 -67.5t47.5 -57q121 -121 297 -121q174 0 295 121q34 33 55.5 71.5t35 80t20 107.5t8.5 132t2 176q0 78 -1 129.5t-3.5 106.5t-8 91t-14 73.5 t-21.5 64.5t-31 53t-42 50q-120 120 -295 120q-177 0 -297 -120q-28 -28 -47.5 -57t-33 -68t-21 -76.5t-11.5 -98.5t-5 -118.5t-1 -149.5zM517 1984q0 29 28 47q14 9 30 9q15 0 31 -11q15 -12 27 -33l118 -190q20 -32 20 -50q0 -29 -27 -47q-13 -9 -29 -9q-19 0 -32 11 q-12 9 -28 34l-118 190q-20 32 -20 49z" />
<glyph unicode="&#xd3;" horiz-adv-x="1428" d="M180 780q0 106 1.5 170t6.5 132t15 109t27.5 85t42.5 77.5t62 70.5q70 71 168 110t212 39t211 -39t168 -110q36 -37 61 -70.5t43 -77.5t27.5 -85t15 -109t7 -132t1.5 -170t-1.5 -170t-7 -132t-15 -109t-27.5 -85t-43 -77.5t-61 -70.5q-71 -71 -168 -110t-211 -39t-212 39 t-168 110q-37 37 -62 70.5t-42.5 77.5t-27.5 85t-15 109t-6.5 132t-1.5 170zM299 780q0 -92 1 -149t5 -118t11.5 -99t21 -76.5t33 -67.5t47.5 -57q121 -121 297 -121q174 0 295 121q34 33 55.5 71.5t35 80t20 107.5t8.5 132t2 176q0 78 -1 129.5t-3.5 106.5t-8 91t-14 73.5 t-21.5 64.5t-31 53t-42 50q-120 120 -295 120q-177 0 -297 -120q-28 -28 -47.5 -57t-33 -68t-21 -76.5t-11.5 -98.5t-5 -118.5t-1 -149.5zM657 1762q0 17 20 50l118 189q13 23 28 34q14 11 32 11q16 0 29 -9q28 -18 28 -47q0 -19 -20 -49l-118 -190q-15 -24 -28 -34 q-15 -11 -31 -11t-30 9q-28 18 -28 47z" />
<glyph unicode="&#xd4;" horiz-adv-x="1428" d="M180 780q0 106 1.5 170t6.5 132t15 109t27.5 85t42.5 77.5t62 70.5q70 71 168 110t212 39t211 -39t168 -110q36 -37 61 -70.5t43 -77.5t27.5 -85t15 -109t7 -132t1.5 -170t-1.5 -170t-7 -132t-15 -109t-27.5 -85t-43 -77.5t-61 -70.5q-71 -71 -168 -110t-211 -39t-212 39 t-168 110q-37 37 -62 70.5t-42.5 77.5t-27.5 85t-15 109t-6.5 132t-1.5 170zM299 780q0 -92 1 -149t5 -118t11.5 -99t21 -76.5t33 -67.5t47.5 -57q121 -121 297 -121q174 0 295 121q34 33 55.5 71.5t35 80t20 107.5t8.5 132t2 176q0 78 -1 129.5t-3.5 106.5t-8 91t-14 73.5 t-21.5 64.5t-31 53t-42 50q-120 120 -295 120q-177 0 -297 -120q-28 -28 -47.5 -57t-33 -68t-21 -76.5t-11.5 -98.5t-5 -118.5t-1 -149.5zM431 1755q3 19 28 44l208 207q26 27 47.5 27t48.5 -27l206 -207q25 -25 28 -44q3 -24 -14 -41q-18 -18 -41 -15q-20 3 -44 28 l-183 183l-183 -183q-25 -25 -44 -28q-24 -3 -42 15t-15 41z" />
<glyph unicode="&#xd5;" horiz-adv-x="1428" d="M180 780q0 106 1.5 170t6.5 132t15 109t27.5 85t42.5 77.5t62 70.5q70 71 168 110t212 39t211 -39t168 -110q36 -37 61 -70.5t43 -77.5t27.5 -85t15 -109t7 -132t1.5 -170t-1.5 -170t-7 -132t-15 -109t-27.5 -85t-43 -77.5t-61 -70.5q-71 -71 -168 -110t-211 -39t-212 39 t-168 110q-37 37 -62 70.5t-42.5 77.5t-27.5 85t-15 109t-6.5 132t-1.5 170zM299 780q0 -92 1 -149t5 -118t11.5 -99t21 -76.5t33 -67.5t47.5 -57q121 -121 297 -121q174 0 295 121q34 33 55.5 71.5t35 80t20 107.5t8.5 132t2 176q0 78 -1 129.5t-3.5 106.5t-8 91t-14 73.5 t-21.5 64.5t-31 53t-42 50q-120 120 -295 120q-177 0 -297 -120q-28 -28 -47.5 -57t-33 -68t-21 -76.5t-11.5 -98.5t-5 -118.5t-1 -149.5zM386 1799q0 26 33 55q34 30 66 46t50.5 19t42.5 3q43 0 74 -12t77 -40q25 -15 41 -23.5t38.5 -16t43.5 -7.5q26 0 45.5 7.5t50.5 34.5 q32 28 50 28q19 0 30 -12q14 -14 14 -31q0 -26 -33 -56q-34 -29 -65.5 -45t-49.5 -19t-42 -3q-44 0 -75.5 12t-76.5 39q-26 16 -41.5 24.5t-38 15.5t-42.5 7q-26 0 -46 -7t-50 -34q-33 -29 -52 -29q-16 0 -29 13q-15 15 -15 31z" />
<glyph unicode="&#xd6;" horiz-adv-x="1428" d="M180 780q0 106 1.5 170t6.5 132t15 109t27.5 85t42.5 77.5t62 70.5q70 71 168 110t212 39t211 -39t168 -110q36 -37 61 -70.5t43 -77.5t27.5 -85t15 -109t7 -132t1.5 -170t-1.5 -170t-7 -132t-15 -109t-27.5 -85t-43 -77.5t-61 -70.5q-71 -71 -168 -110t-211 -39t-212 39 t-168 110q-37 37 -62 70.5t-42.5 77.5t-27.5 85t-15 109t-6.5 132t-1.5 170zM299 780q0 -92 1 -149t5 -118t11.5 -99t21 -76.5t33 -67.5t47.5 -57q121 -121 297 -121q174 0 295 121q34 33 55.5 71.5t35 80t20 107.5t8.5 132t2 176q0 78 -1 129.5t-3.5 106.5t-8 91t-14 73.5 t-21.5 64.5t-31 53t-42 50q-120 120 -295 120q-177 0 -297 -120q-28 -28 -47.5 -57t-33 -68t-21 -76.5t-11.5 -98.5t-5 -118.5t-1 -149.5zM406 1812.5q0 33.5 23.5 57t57.5 23.5t57 -23.5t23 -57t-23.5 -57.5t-57 -24t-57 24t-23.5 57.5zM861 1813q0 33 24 56.5t57.5 23.5 t57 -23.5t23.5 -57t-23.5 -57.5t-56.5 -24q-22 0 -41 11t-30 29.5t-11 41.5z" />
<glyph unicode="&#xd8;" horiz-adv-x="1428" d="M180 780q0 106 1.5 170t6.5 132t15 109t27.5 85t42.5 77.5t62 70.5q70 71 168 110t212 39q160 0 284 -75l59 117q16 33 36 43q22 12 46 0q23 -11 27 -36q3 -17 -15 -54l-67 -136q33 -33 57 -64.5t42 -63t29.5 -73.5t19 -81.5t10.5 -101.5t4.5 -119.5t1.5 -148.5 q0 -106 -1.5 -170t-7 -132t-15 -109t-27.5 -85t-43 -77.5t-61 -70.5q-71 -71 -168 -110t-211 -39q-161 0 -286 75l-59 -117q-16 -33 -35 -43q-22 -12 -46 0q-22 10 -27 37q-3 18 14 54l69 135q-39 38 -65.5 73t-45.5 80t-29.5 86.5t-16 109.5t-7 132.5t-1.5 170.5zM299 780 q0 -103 1.5 -165t6.5 -126t16 -104.5t29 -78t45 -70.5l554 1161q-102 71 -236 71q-177 0 -297 -120q-28 -28 -47.5 -57t-33 -68t-21 -76.5t-11.5 -98.5t-5 -118.5t-1 -149.5zM477 164q104 -72 238 -72q174 0 295 121q34 33 55.5 71.5t35 80t20 107.5t8.5 132t2 176 q0 73 -0.5 121.5t-3 101t-6.5 87t-11.5 71t-18 63t-25 52t-33.5 48.5z" />
<glyph unicode="&#xd9;" horiz-adv-x="1507" d="M219 506v981q0 40 13 60q15 22 46 22t46 -22q13 -20 13 -60v-966q0 -194 115 -311.5t302.5 -117.5t302 117.5t114.5 311.5v966q0 40 12 60q15 22 46.5 22t45.5 -22q13 -20 13 -60v-981q0 -151 -67.5 -269t-189.5 -184t-277 -66t-277 66t-190 184.5t-68 268.5zM555 1984 q0 29 28 47q15 9 29 9q17 0 32 -11q16 -12 28 -33l118 -190q20 -32 20 -50q0 -29 -28 -47q-13 -9 -30 -9t-31 11q-11 9 -28 34l-117 190q-21 32 -21 49z" />
<glyph unicode="&#xda;" horiz-adv-x="1507" d="M219 506v981q0 40 13 60q15 22 46 22t46 -22q13 -20 13 -60v-966q0 -194 115 -311.5t302.5 -117.5t302 117.5t114.5 311.5v966q0 40 12 60q15 22 46.5 22t45.5 -22q13 -20 13 -60v-981q0 -151 -67.5 -269t-189.5 -184t-277 -66t-277 66t-190 184.5t-68 268.5zM696 1762 q0 17 20 50l118 189q13 23 27 34t32 11q17 0 29 -9q28 -18 28 -47q0 -17 -20 -49l-118 -190q-15 -24 -28 -34q-15 -11 -32 -11q-14 0 -29 9q-27 18 -27 47z" />
<glyph unicode="&#xdb;" horiz-adv-x="1507" d="M219 506v981q0 40 13 60q15 22 46 22t46 -22q13 -20 13 -60v-966q0 -194 115 -311.5t302.5 -117.5t302 117.5t114.5 311.5v966q0 40 12 60q15 22 46.5 22t45.5 -22q13 -20 13 -60v-981q0 -151 -67.5 -269t-189.5 -184t-277 -66t-277 66t-190 184.5t-68 268.5zM470 1755 q3 19 28 44l206 207q27 27 48 27q23 0 49 -27l207 -207q25 -25 28 -44q3 -23 -15 -41t-42 -15q-19 3 -44 28l-183 183l-183 -183q-25 -25 -43 -28q-23 -3 -41 15t-15 41z" />
<glyph unicode="&#xdc;" horiz-adv-x="1507" d="M219 506v981q0 40 13 60q15 22 46 22t46 -22q13 -20 13 -60v-966q0 -194 115 -311.5t302.5 -117.5t302 117.5t114.5 311.5v966q0 40 12 60q15 22 46.5 22t45.5 -22q13 -20 13 -60v-981q0 -151 -67.5 -269t-189.5 -184t-277 -66t-277 66t-190 184.5t-68 268.5zM444 1812.5 q0 33.5 23.5 57t57 23.5t57.5 -23.5t24 -57t-24 -57.5t-57.5 -24t-57 24t-23.5 57.5zM900 1812.5q0 33.5 23 57t57 23.5t57.5 -23.5t23.5 -57t-23.5 -57.5t-57 -24t-57 24t-23.5 57.5z" />
<glyph unicode="&#xdd;" horiz-adv-x="1081" d="M54 1523q3 26 31 39q12 7 25 7q14 0 24 -6q20 -12 36 -46l371 -742l372 742q16 34 36 46q9 6 23 6q13 0 26 -7q28 -13 31 -39q3 -17 -16 -56l-413 -826v-567q0 -41 -13 -61q-14 -22 -45.5 -22t-46.5 22q-12 20 -12 61v567l-413 826q-19 38 -16 56zM485 1762q0 19 19 50 l119 189q14 24 26 34q14 11 33 11q17 0 30 -9q26 -17 26 -47q0 -19 -19 -49l-119 -190q-16 -25 -26 -34q-16 -11 -33 -11q-15 0 -30 9q-26 18 -26 47z" />
<glyph unicode="&#xde;" horiz-adv-x="1415" d="M241 74v1413q0 39 14 60q14 22 45.5 22t46.5 -22q13 -20 13 -60v-251h453q81 0 152.5 -19t130 -57t100.5 -91.5t65 -125.5t23 -157q0 -139 -61.5 -241.5t-167.5 -155t-242 -52.5h-453v-263q0 -41 -13 -61q-15 -22 -46.5 -22t-45.5 22q-14 21 -14 61zM360 443h440 q169 0 267.5 86.5t98.5 256.5q0 115 -46.5 193.5t-127.5 115t-192 36.5h-440v-688z" />
<glyph unicode="&#xdf;" horiz-adv-x="1204" d="M213 67v1081q0 198 112 311.5t311 113.5q66 0 125 -13t110.5 -41.5t88.5 -69.5t58 -100t21 -130q0 -175 -138 -268q83 -44 111.5 -102.5t28.5 -169.5v-386q0 -139 -85 -218q-45 -40 -93 -57.5t-116 -17.5h-55q-39 0 -54 11q-20 14 -20 39t20 40q15 11 50 11h43 q93 0 144 51q28 26 40 62t12 90v390q0 55 -11.5 90t-39.5 61q-51 52 -142 52h-49q-34 0 -48 10q-19 14 -19 38t19 37q14 11 48 11h28q96 0 155 62t59 164q0 54 -20.5 103t-55.5 83q-75 69 -228 69q-152 0 -224.5 -87t-72.5 -239v-1081q0 -37 -11 -54q-15 -22 -45.5 -22 t-44.5 22q-12 17 -12 54z" />
<glyph unicode="&#xe0;" horiz-adv-x="1148" d="M121 291q0 95 44.5 164t127 105t193.5 36h346v101q0 137 -67.5 205t-218.5 68q-92 0 -149.5 -24.5t-117.5 -84.5q-29 -29 -58 -29q-21 0 -35 14q-15 15 -15 37q0 47 101 115q56 38 121 54.5t153 16.5q198 0 299.5 -88.5t101.5 -257.5v-656q0 -35 -13 -54q-14 -22 -45 -22 q-29 0 -44 22q-13 19 -13 54v38q-66 -66 -138 -92t-184 -26q-118 0 -190 22t-122 74q-77 81 -77 208zM234 291q0 -104 68.5 -154.5t207.5 -50.5q87 0 150 15.5t114 65.5q58 56 58 201v135h-339q-128 0 -193.5 -54t-65.5 -158zM349 1568q0 29 27 47q14 9 30 9t32 -12 q13 -10 26 -33l119 -190q19 -31 19 -49q0 -30 -26 -47q-13 -9 -30 -9q-19 0 -32 11q-10 7 -27 34l-119 189q-19 31 -19 50z" />
<glyph unicode="&#xe1;" horiz-adv-x="1148" d="M121 291q0 95 44.5 164t127 105t193.5 36h346v101q0 137 -67.5 205t-218.5 68q-92 0 -149.5 -24.5t-117.5 -84.5q-29 -29 -58 -29q-21 0 -35 14q-15 15 -15 37q0 47 101 115q56 38 121 54.5t153 16.5q198 0 299.5 -88.5t101.5 -257.5v-656q0 -35 -13 -54q-14 -22 -45 -22 q-29 0 -44 22q-13 19 -13 54v38q-66 -66 -138 -92t-184 -26q-118 0 -190 22t-122 74q-77 81 -77 208zM234 291q0 -104 68.5 -154.5t207.5 -50.5q87 0 150 15.5t114 65.5q58 56 58 201v135h-339q-128 0 -193.5 -54t-65.5 -158zM489 1345q0 20 19 50l119 190q13 22 27 33 q15 12 32 12q15 0 30 -10q27 -17 27 -47q0 -19 -20 -49l-118 -190q-18 -27 -27 -34q-14 -11 -32 -11q-17 0 -30 9q-27 17 -27 47z" />
<glyph unicode="&#xe2;" horiz-adv-x="1148" d="M121 291q0 95 44.5 164t127 105t193.5 36h346v101q0 137 -67.5 205t-218.5 68q-92 0 -149.5 -24.5t-117.5 -84.5q-29 -29 -58 -29q-21 0 -35 14q-15 15 -15 37q0 47 101 115q56 38 121 54.5t153 16.5q198 0 299.5 -88.5t101.5 -257.5v-656q0 -35 -13 -54q-14 -22 -45 -22 q-29 0 -44 22q-13 19 -13 54v38q-66 -66 -138 -92t-184 -26q-118 0 -190 22t-122 74q-77 81 -77 208zM234 291q0 -104 68.5 -154.5t207.5 -50.5q87 0 150 15.5t114 65.5q58 56 58 201v135h-339q-128 0 -193.5 -54t-65.5 -158zM263 1339q4 20 27 43l208 208q25 26 47.5 26 t48.5 -26l207 -208q24 -23 27 -43q3 -25 -14 -42t-41 -14q-20 3 -44 28l-183 183l-183 -183q-25 -25 -44 -28q-25 -3 -42 14t-14 42z" />
<glyph unicode="&#xe3;" horiz-adv-x="1148" d="M121 291q0 95 44.5 164t127 105t193.5 36h346v101q0 137 -67.5 205t-218.5 68q-92 0 -149.5 -24.5t-117.5 -84.5q-29 -29 -58 -29q-21 0 -35 14q-15 15 -15 37q0 47 101 115q56 38 121 54.5t153 16.5q198 0 299.5 -88.5t101.5 -257.5v-656q0 -35 -13 -54q-14 -22 -45 -22 q-29 0 -44 22q-13 19 -13 54v38q-66 -66 -138 -92t-184 -26q-118 0 -190 22t-122 74q-77 81 -77 208zM218 1398q0 27 32 55q26 23 49.5 37.5t44 20.5t34 7.5t31.5 1.5q43 0 74 -11.5t77 -39.5q38 -24 65.5 -35.5t57.5 -11.5q25 0 45 7.5t51 34.5q33 29 50 29t30 -13 q14 -14 14 -31q0 -26 -33 -55q-49 -43 -84.5 -55.5t-72.5 -12.5q-44 0 -75 11.5t-76 39.5q-19 12 -31.5 19t-29 14t-31.5 10.5t-31 3.5q-18 0 -29 -2t-28.5 -11.5t-39.5 -28.5q-31 -27 -50 -27q-18 0 -30 11q-14 14 -14 32zM234 291q0 -104 68.5 -154.5t207.5 -50.5 q87 0 150 15.5t114 65.5q58 56 58 201v135h-339q-128 0 -193.5 -54t-65.5 -158z" />
<glyph unicode="&#xe4;" horiz-adv-x="1148" d="M121 291q0 95 44.5 164t127 105t193.5 36h346v101q0 137 -67.5 205t-218.5 68q-92 0 -149.5 -24.5t-117.5 -84.5q-29 -29 -58 -29q-21 0 -35 14q-15 15 -15 37q0 47 101 115q56 38 121 54.5t153 16.5q198 0 299.5 -88.5t101.5 -257.5v-656q0 -35 -13 -54q-14 -22 -45 -22 q-29 0 -44 22q-13 19 -13 54v38q-66 -66 -138 -92t-184 -26q-118 0 -190 22t-122 74q-77 81 -77 208zM234 291q0 -104 68.5 -154.5t207.5 -50.5q87 0 150 15.5t114 65.5q58 56 58 201v135h-339q-128 0 -193.5 -54t-65.5 -158zM236 1396q0 17 6.5 32t17.5 25.5t26 17t32 6.5 q34 0 57.5 -23.5t23.5 -57t-24 -57.5t-57.5 -24t-57.5 24t-24 57zM692 1396q0 17 6.5 32t17.5 25.5t26 17t32 6.5q33 0 57 -23.5t24 -57t-24 -57.5t-57.5 -24t-57.5 24t-24 57z" />
<glyph unicode="&#xe5;" horiz-adv-x="1148" d="M121 291q0 95 44.5 164t127 105t193.5 36h346v101q0 137 -67.5 205t-218.5 68q-92 0 -149.5 -24.5t-117.5 -84.5q-29 -29 -58 -29q-21 0 -35 14q-15 15 -15 37q0 47 101 115q56 38 121 54.5t153 16.5q198 0 299.5 -88.5t101.5 -257.5v-656q0 -35 -13 -54q-14 -22 -45 -22 q-29 0 -44 22q-13 19 -13 54v38q-66 -66 -138 -92t-184 -26q-118 0 -190 22t-122 74q-77 81 -77 208zM234 291q0 -104 68.5 -154.5t207.5 -50.5q87 0 150 15.5t114 65.5q58 56 58 201v135h-339q-128 0 -193.5 -54t-65.5 -158zM295 1483.5q0 103.5 73.5 176.5t177 73 t176.5 -73t73 -177t-73 -176.5t-176.5 -72.5t-177 73t-73.5 176.5zM385 1483.5q0 -66.5 47 -113t113.5 -46.5t113 46t46.5 113t-46.5 114t-113 47t-113.5 -47t-47 -113.5z" />
<glyph unicode="&#xe6;" horiz-adv-x="1826" d="M121 291q0 95 44.5 164t127 105t193.5 36h346v101q0 137 -67.5 205t-218.5 68q-92 0 -149.5 -24.5t-117.5 -84.5q-29 -29 -58 -29q-21 0 -35 14q-15 15 -15 37q0 47 101 115q56 38 121 54.5t153 16.5q285 0 369 -184q54 90 141.5 137t200.5 47q130 0 225.5 -60.5 t146.5 -173t51 -264.5q0 -37 -16 -53q-15 -15 -53 -15h-665q0 -134 39 -226.5t116 -140.5t188 -48q149 0 244 83q26 23 37.5 30.5t25.5 7.5q20 0 35.5 -16t15.5 -36q0 -16 -12 -34t-31.5 -33.5t-35.5 -26t-33 -19.5q-97 -57 -252 -57q-269 0 -380 197q-66 -106 -156 -151.5 t-237 -45.5q-118 0 -190 22t-122 74q-77 81 -77 208zM234 291q0 -104 68.5 -154.5t207.5 -50.5q87 0 150 15.5t114 65.5q58 56 58 201v135h-339q-128 0 -193.5 -54t-65.5 -158zM946 596h622q-4 70 -11 109.5t-26 86.5q-33 82 -106.5 129t-167.5 47q-93 0 -167 -47.5 t-107 -128.5q-19 -48 -26.5 -88t-10.5 -108z" />
<glyph unicode="&#xe7;" horiz-adv-x="1076" d="M151 528.5q0 252.5 123 396.5t340 144q86 0 152.5 -24.5t124.5 -75.5q32 -27 44 -44t12 -37q0 -19 -18 -35q-16 -14 -34 -14q-15 0 -28.5 8.5t-41.5 33.5q-56 48 -103.5 67.5t-107.5 19.5q-182 0 -277 -138q-39 -57 -55.5 -125.5t-16.5 -175.5q0 -73 7 -126t23 -95.5 t42 -81.5q95 -138 277 -138q60 0 107.5 19.5t103.5 67.5q28 25 41.5 33.5t28.5 8.5q18 0 34 -14q18 -16 18 -35q0 -20 -12 -37t-44 -44q-58 -51 -124.5 -75.5t-152.5 -24.5q-217 0 -340 144.5t-123 397zM408 -428q0 19 19 49l119 190q13 23 28 34q13 11 30.5 11t30.5 -9 q26 -17 26 -47q0 -19 -19 -49l-119 -191q-16 -25 -27 -33q-15 -12 -32 -12q-14 0 -29 10q-27 18 -27 47z" />
<glyph unicode="&#xe8;" horiz-adv-x="1145" d="M151 529q0 259 113 399.5t313 140.5q130 0 225.5 -60.5t146 -172.5t50.5 -264q0 -38 -15 -53t-53 -15h-666q0 -201 88.5 -308.5t255.5 -107.5q148 0 244 83q25 23 37 30.5t26 7.5q20 0 35 -16t15 -36q0 -21 -22 -46t-43.5 -39.5t-45.5 -27.5q-98 -57 -253 -57 q-219 0 -335 139t-116 403zM265 598h622q-3 70 -10 108.5t-26 85.5q-33 82 -106.5 129t-167.5 47t-167.5 -47.5t-106.5 -128.5q-20 -48 -27 -87t-11 -107zM379 1568q0 29 28 47q14 9 30 9q15 0 31 -12q15 -12 27 -33l118 -190q20 -32 20 -49q0 -29 -27 -47q-13 -9 -29 -9 q-19 0 -32 11q-12 9 -28 34l-118 189q-20 33 -20 50z" />
<glyph unicode="&#xe9;" horiz-adv-x="1145" d="M151 529q0 259 113 399.5t313 140.5q130 0 225.5 -60.5t146 -172.5t50.5 -264q0 -38 -15 -53t-53 -15h-666q0 -201 88.5 -308.5t255.5 -107.5q148 0 244 83q25 23 37 30.5t26 7.5q20 0 35 -16t15 -36q0 -21 -22 -46t-43.5 -39.5t-45.5 -27.5q-98 -57 -253 -57 q-219 0 -335 139t-116 403zM265 598h622q-3 70 -10 108.5t-26 85.5q-33 82 -106.5 129t-167.5 47t-167.5 -47.5t-106.5 -128.5q-20 -48 -27 -87t-11 -107zM519 1345q0 18 20 50l118 190q12 21 28 33q15 12 32 12q14 0 29 -10q28 -18 28 -47q0 -19 -20 -49l-118 -190 q-17 -25 -28 -34q-14 -11 -31 -11t-30 9q-28 18 -28 47z" />
<glyph unicode="&#xea;" horiz-adv-x="1145" d="M151 529q0 259 113 399.5t313 140.5q130 0 225.5 -60.5t146 -172.5t50.5 -264q0 -38 -15 -53t-53 -15h-666q0 -201 88.5 -308.5t255.5 -107.5q148 0 244 83q25 23 37 30.5t26 7.5q20 0 35 -16t15 -36q0 -21 -22 -46t-43.5 -39.5t-45.5 -27.5q-98 -57 -253 -57 q-219 0 -335 139t-116 403zM265 598h622q-3 70 -10 108.5t-26 85.5q-33 82 -106.5 129t-167.5 47t-167.5 -47.5t-106.5 -128.5q-20 -48 -27 -87t-11 -107zM293 1339q3 19 28 43l208 208q25 26 47.5 26t48.5 -26l206 -208q25 -24 28 -43q3 -25 -14 -42t-41 -14q-20 3 -44 28 l-183 183l-183 -183q-25 -25 -44 -28q-25 -3 -42 14q-18 18 -15 42z" />
<glyph unicode="&#xeb;" horiz-adv-x="1145" d="M151 529q0 259 113 399.5t313 140.5q130 0 225.5 -60.5t146 -172.5t50.5 -264q0 -38 -15 -53t-53 -15h-666q0 -201 88.5 -308.5t255.5 -107.5q148 0 244 83q25 23 37 30.5t26 7.5q20 0 35 -16t15 -36q0 -21 -22 -46t-43.5 -39.5t-45.5 -27.5q-98 -57 -253 -57 q-219 0 -335 139t-116 403zM265 598h622q-3 70 -10 108.5t-26 85.5q-33 82 -106.5 129t-167.5 47t-167.5 -47.5t-106.5 -128.5q-20 -48 -27 -87t-11 -107zM268 1396q0 17 6 32t17 25.5t26 17t32 6.5q34 0 57 -23.5t23 -57t-23.5 -57.5t-57 -24t-57 24t-23.5 57zM723 1396.5 q0 33.5 24 57t57.5 23.5t57 -23.5t23.5 -57.5q0 -13 -4 -25.5t-11.5 -22.5t-17 -17.5t-22 -11.5t-25.5 -4q-34 0 -58 24t-24 57.5z" />
<glyph unicode="&#xec;" horiz-adv-x="538" d="M73 1569q0 29 27 47q14 9 29 9q17 0 33 -11q13 -11 26 -34l119 -190q19 -31 19 -49q0 -30 -26 -47q-13 -9 -30 -9q-19 0 -32 11q-10 7 -27 34l-119 189q-19 31 -19 50zM213 67v922q0 37 12 54q14 22 44.5 22t45.5 -22q11 -17 11 -54v-922q0 -37 -11 -54 q-15 -22 -45.5 -22t-44.5 22q-12 17 -12 54z" />
<glyph unicode="&#xed;" horiz-adv-x="538" d="M213 67v922q0 37 12 54q14 22 44.5 22t45.5 -22q11 -17 11 -54v-922q0 -37 -11 -54q-15 -22 -45.5 -22t-44.5 22q-12 17 -12 54zM213 1345q0 20 19 50l119 190q13 22 27 33q15 12 32 12q15 0 30 -10q27 -17 27 -47q0 -19 -20 -49l-119 -190q-17 -27 -26 -34 q-14 -11 -32 -11q-17 0 -30 9q-27 17 -27 47z" />
<glyph unicode="&#xee;" horiz-adv-x="538" d="M-13 1339q4 20 27 43l207 208q26 26 48.5 26t48.5 -26l206 -208q25 -24 28 -43q3 -25 -14 -42t-42 -14q-19 3 -43 28l-183 183l-183 -183q-25 -25 -44 -28q-25 -3 -42 14t-14 42zM213 67v922q0 37 12 54q14 22 44.5 22t45.5 -22q11 -17 11 -54v-922q0 -37 -11 -54 q-15 -22 -45.5 -22t-44.5 22q-12 17 -12 54z" />
<glyph unicode="&#xef;" horiz-adv-x="538" d="M-12 1396.5q0 33.5 24 57t57.5 23.5t57 -23.5t23.5 -57.5q0 -16 -6.5 -31t-17 -26t-25.5 -17.5t-31 -6.5q-34 0 -58 24t-24 57.5zM213 67v922q0 37 12 54q14 22 44.5 22t45.5 -22q11 -17 11 -54v-922q0 -37 -11 -54q-15 -22 -45.5 -22t-44.5 22q-12 17 -12 54zM389 1396 q0 34 23.5 57.5t57.5 23.5t57.5 -23.5t23.5 -57t-24 -57.5t-57 -24q-22 0 -40.5 11t-29.5 29.5t-11 40.5z" />
<glyph unicode="&#xf0;" horiz-adv-x="1152" d="M149 528.5q0 62.5 5.5 116t19 110.5t41 107.5t67.5 90.5q116 116 295 116q104 0 163 -36l-112 225h-212q-32 0 -45 10q-16 12 -16 34t16 33q13 10 45 10h168l-63 126q-15 30 -15 48q0 22 15 36t34 14q16 0 27 -7q17 -10 33 -44l87 -173h126q33 0 45 -10q16 -11 16 -33 t-16 -34q-12 -10 -45 -10h-82l165 -329q55 -110 74 -194.5t19 -205.5q0 -63 -5.5 -116.5t-19.5 -110.5t-41.5 -108t-67.5 -91q-116 -116 -293 -116q-179 0 -295 116q-40 40 -67.5 91t-41 108t-19 110.5t-5.5 116zM263 528.5q0 -56.5 3 -97t11.5 -91t28.5 -92t51 -73.5 q90 -89 220 -89q128 0 218 89q31 32 51.5 73.5t29 92t11 91t2.5 97t-2.5 96.5t-11 90.5t-29 92t-51.5 73.5q-90 89 -218 89q-130 0 -220 -89q-31 -32 -51 -73.5t-28.5 -92t-11.5 -90.5t-3 -96.5z" />
<glyph unicode="&#xf1;" horiz-adv-x="1228" d="M213 67v922q0 37 12 54q14 22 44.5 22t45.5 -22q11 -17 11 -54v-58q119 138 312 138q178 0 282 -101q110 -103 110 -293v-608q0 -35 -12 -54q-15 -22 -45.5 -22t-44.5 22q-12 17 -12 54v586q0 153 -74.5 234t-216.5 81q-95 0 -162 -36.5t-102 -107.5t-35 -171v-586 q0 -37 -11 -54q-15 -22 -45.5 -22t-44.5 22q-12 17 -12 54zM303 1398q0 27 32 55q34 30 66 46t50 18.5t42 2.5q44 0 75 -11.5t76 -39.5q39 -24 66 -35.5t57 -11.5q26 0 46 7.5t50 34.5q33 29 51 29q17 0 30 -13q14 -14 14 -31q0 -26 -34 -55q-48 -43 -84 -55.5t-73 -12.5 q-43 0 -75 11.5t-77 39.5q-26 16 -41.5 24.5t-37.5 15.5t-43 7q-17 0 -28 -2t-29 -11.5t-39 -28.5q-32 -27 -50 -27q-19 0 -30 11q-14 14 -14 32z" />
<glyph unicode="&#xf2;" horiz-adv-x="1156" d="M151 529q0 50 2.5 91t11 89.5t23 88.5t39 81t58.5 74q115 116 294 116q177 0 293 -116q42 -41 69.5 -92t41 -108.5t18.5 -109t5 -114.5q0 -51 -3 -92t-11.5 -89.5t-22.5 -89t-38.5 -81.5t-58.5 -74q-116 -116 -293 -116q-179 0 -294 116q-42 41 -70 92t-41 108.5 t-18 109.5t-5 116zM265 529q0 -43 2 -78t8 -76.5t16.5 -75t28.5 -66t42 -56.5q88 -89 217 -89q127 0 216 89q57 56 77 146.5t20 205.5q0 114 -20 204t-77 147q-89 88 -216 88q-129 0 -217 -88q-30 -30 -50 -71.5t-30 -90t-13.5 -92.5t-3.5 -97zM381 1568q0 29 28 47 q14 9 30 9t31 -12t28 -33l117 -190q21 -32 21 -49q0 -29 -28 -47q-13 -9 -29 -9q-18 0 -32 11q-12 9 -28 34l-118 189q-20 33 -20 50z" />
<glyph unicode="&#xf3;" horiz-adv-x="1156" d="M151 529q0 50 2.5 91t11 89.5t23 88.5t39 81t58.5 74q115 116 294 116q177 0 293 -116q42 -41 69.5 -92t41 -108.5t18.5 -109t5 -114.5q0 -51 -3 -92t-11.5 -89.5t-22.5 -89t-38.5 -81.5t-58.5 -74q-116 -116 -293 -116q-179 0 -294 116q-42 41 -70 92t-41 108.5 t-18 109.5t-5 116zM265 529q0 -43 2 -78t8 -76.5t16.5 -75t28.5 -66t42 -56.5q88 -89 217 -89q127 0 216 89q57 56 77 146.5t20 205.5q0 114 -20 204t-77 147q-89 88 -216 88q-129 0 -217 -88q-30 -30 -50 -71.5t-30 -90t-13.5 -92.5t-3.5 -97zM521 1345q0 18 20 50l118 190 q12 21 28 33q15 12 32 12q14 0 29 -10q28 -18 28 -47q0 -19 -20 -49l-118 -190q-16 -25 -28 -34q-14 -11 -31 -11t-30 9q-28 18 -28 47z" />
<glyph unicode="&#xf4;" horiz-adv-x="1156" d="M151 529q0 50 2.5 91t11 89.5t23 88.5t39 81t58.5 74q115 116 294 116q177 0 293 -116q42 -41 69.5 -92t41 -108.5t18.5 -109t5 -114.5q0 -51 -3 -92t-11.5 -89.5t-22.5 -89t-38.5 -81.5t-58.5 -74q-116 -116 -293 -116q-179 0 -294 116q-42 41 -70 92t-41 108.5 t-18 109.5t-5 116zM265 529q0 -43 2 -78t8 -76.5t16.5 -75t28.5 -66t42 -56.5q88 -89 217 -89q127 0 216 89q57 56 77 146.5t20 205.5q0 114 -20 204t-77 147q-89 88 -216 88q-129 0 -217 -88q-30 -30 -50 -71.5t-30 -90t-13.5 -92.5t-3.5 -97zM295 1339q4 19 28 43l208 208 q25 26 47.5 26t48.5 -26l207 -208q24 -24 27 -43q4 -25 -13.5 -42t-41.5 -14q-20 3 -44 28l-183 183l-183 -183q-25 -25 -44 -28q-25 -3 -42 14q-18 18 -15 42z" />
<glyph unicode="&#xf5;" horiz-adv-x="1156" d="M151 529q0 50 2.5 91t11 89.5t23 88.5t39 81t58.5 74q115 116 294 116q177 0 293 -116q42 -41 69.5 -92t41 -108.5t18.5 -109t5 -114.5q0 -51 -3 -92t-11.5 -89.5t-22.5 -89t-38.5 -81.5t-58.5 -74q-116 -116 -293 -116q-179 0 -294 116q-42 41 -70 92t-41 108.5 t-18 109.5t-5 116zM250 1398q0 26 34 55q25 23 48.5 37.5t44 20.5t34 7.5t31.5 1.5q43 0 74 -11.5t77 -39.5q12 -7 20.5 -12t19.5 -11t20.5 -10t20 -7.5t21 -5t21.5 -1.5q26 0 45.5 7.5t50.5 34.5q33 29 50 29q18 0 30 -13q14 -14 14 -31q0 -26 -33 -55q-49 -43 -84.5 -55.5 t-72.5 -12.5q-23 0 -42.5 3t-38.5 10.5t-33.5 15.5t-37.5 22q-26 16 -41.5 24.5t-37.5 15.5t-43 7q-17 0 -28.5 -2t-29 -11.5t-38.5 -28.5q-32 -27 -52 -27q-17 0 -29 11q-15 15 -15 32zM265 529q0 -43 2 -78t8 -76.5t16.5 -75t28.5 -66t42 -56.5q88 -89 217 -89 q127 0 216 89q57 56 77 146.5t20 205.5q0 114 -20 204t-77 147q-89 88 -216 88q-129 0 -217 -88q-30 -30 -50 -71.5t-30 -90t-13.5 -92.5t-3.5 -97z" />
<glyph unicode="&#xf6;" horiz-adv-x="1156" d="M151 529q0 50 2.5 91t11 89.5t23 88.5t39 81t58.5 74q115 116 294 116q177 0 293 -116q42 -41 69.5 -92t41 -108.5t18.5 -109t5 -114.5q0 -51 -3 -92t-11.5 -89.5t-22.5 -89t-38.5 -81.5t-58.5 -74q-116 -116 -293 -116q-179 0 -294 116q-42 41 -70 92t-41 108.5 t-18 109.5t-5 116zM265 529q0 -43 2 -78t8 -76.5t16.5 -75t28.5 -66t42 -56.5q88 -89 217 -89q127 0 216 89q57 56 77 146.5t20 205.5q0 114 -20 204t-77 147q-89 88 -216 88q-129 0 -217 -88q-30 -30 -50 -71.5t-30 -90t-13.5 -92.5t-3.5 -97zM270 1396q0 17 6.5 32 t17 25.5t25.5 17t32 6.5q34 0 57 -23.5t23 -57.5q0 -16 -6 -31t-17 -26t-25.5 -17.5t-31.5 -6.5q-22 0 -41 11t-29.5 29.5t-10.5 40.5zM725 1396q0 17 6.5 32t17.5 25.5t26 17t32 6.5q33 0 56.5 -23.5t23.5 -57.5q0 -22 -10.5 -40.5t-29 -29.5t-40.5 -11q-34 0 -58 24 t-24 57z" />
<glyph unicode="&#xf7;" d="M107 577.5q0 24.5 20 39.5q16 11 51 11h771q35 0 50 -11q20 -14 20 -39t-20 -40q-15 -10 -50 -10h-771q-35 0 -51 10q-20 15 -20 39.5zM462 206q0 41 30 71t71 30t71 -30t30 -70.5t-30 -71t-71 -30.5t-71 30t-30 71zM462 949q0 41 30 71t71 30t71 -30t30 -71 q0 -27 -13.5 -50t-37 -36.5t-50.5 -13.5q-41 0 -71 29.5t-30 70.5z" />
<glyph unicode="&#xf8;" horiz-adv-x="1156" d="M151 529q0 62 5.5 115.5t19.5 110.5t41.5 107.5t67.5 90.5q115 116 294 116q130 0 229 -64l68 117q6 11 11 18t11 12t12 7t14 2q14 0 25 -6q21 -13 21 -38q0 -14 -14 -38l-79 -131q74 -76 101.5 -182.5t27.5 -236.5q0 -63 -5.5 -116.5t-19.5 -110.5t-41.5 -108t-67.5 -91 q-116 -116 -293 -116q-132 0 -231 64l-72 -118q-12 -22 -22.5 -31t-25.5 -9q-13 0 -25 6q-21 13 -21 38q0 14 15 38l80 135q-72 76 -99 182.5t-27 236.5zM265 529q0 -68 3.5 -116t19.5 -108t46 -101l420 713q-78 53 -175 53q-130 0 -219 -89q-32 -32 -52 -73.5t-28.5 -92 t-11.5 -90.5t-3 -96zM399 141q79 -55 180 -55q128 0 218 89q31 32 51.5 73.5t29.5 92t11.5 91.5t2.5 97q0 105 -13.5 185.5t-57.5 140.5z" />
<glyph unicode="&#xf9;" horiz-adv-x="1228" d="M199 381v608q0 35 13 54q14 22 44.5 22t45.5 -22q12 -17 12 -54v-586q0 -153 74 -234t217 -81q142 0 220 82t78 233v586q0 37 12 54q14 22 44.5 22t45.5 -22q11 -17 11 -54v-922q0 -37 -11 -54q-15 -22 -45.5 -22t-44.5 22q-12 17 -12 54v58q-119 -138 -311 -138 q-179 0 -283 101q-110 103 -110 293zM411 1568q0 29 28 47q14 9 29 9q17 0 32 -12t28 -33l117 -190q21 -32 21 -49q0 -29 -28 -47q-13 -9 -30.5 -9t-30.5 11q-12 9 -28 34l-119 189q-19 31 -19 50z" />
<glyph unicode="&#xfa;" horiz-adv-x="1228" d="M199 381v608q0 35 13 54q14 22 44.5 22t45.5 -22q12 -17 12 -54v-586q0 -153 74 -234t217 -81q142 0 220 82t78 233v586q0 37 12 54q14 22 44.5 22t45.5 -22q11 -17 11 -54v-922q0 -37 -11 -54q-15 -22 -45.5 -22t-44.5 22q-12 17 -12 54v58q-119 -138 -311 -138 q-179 0 -283 101q-110 103 -110 293zM551 1345q0 18 20 50l118 190q12 21 28 33q15 12 31 12q15 0 30 -10q28 -18 28 -47q0 -17 -21 -49l-117 -190q-17 -25 -28 -34q-14 -11 -32 -11q-16 0 -29 9q-28 18 -28 47z" />
<glyph unicode="&#xfb;" horiz-adv-x="1228" d="M199 381v608q0 35 13 54q14 22 44.5 22t45.5 -22q12 -17 12 -54v-586q0 -153 74 -234t217 -81q142 0 220 82t78 233v586q0 37 12 54q14 22 44.5 22t45.5 -22q11 -17 11 -54v-922q0 -37 -11 -54q-15 -22 -45.5 -22t-44.5 22q-12 17 -12 54v58q-119 -138 -311 -138 q-179 0 -283 101q-110 103 -110 293zM325 1339q3 19 28 43l207 208q25 26 47.5 26t48.5 -26l207 -208q25 -24 28 -43q3 -24 -15 -42q-17 -17 -41 -14q-20 3 -44 28l-183 183l-183 -183q-25 -25 -44 -28q-25 -3 -42 14t-14 42z" />
<glyph unicode="&#xfc;" horiz-adv-x="1228" d="M199 381v608q0 35 13 54q14 22 44.5 22t45.5 -22q12 -17 12 -54v-586q0 -153 74 -234t217 -81q142 0 220 82t78 233v586q0 37 12 54q14 22 44.5 22t45.5 -22q11 -17 11 -54v-922q0 -37 -11 -54q-15 -22 -45.5 -22t-44.5 22q-12 17 -12 54v58q-119 -138 -311 -138 q-179 0 -283 101q-110 103 -110 293zM300 1396.5q0 33.5 23 57t57 23.5t57.5 -23.5t23.5 -57t-23.5 -57.5t-57.5 -24t-57 24t-23 57.5zM755 1396q0 22 11 40.5t29.5 29.5t40.5 11q33 0 57 -23.5t24 -57t-24 -57.5t-57.5 -24t-57 24t-23.5 57z" />
<glyph unicode="&#xfd;" horiz-adv-x="941" d="M72 1030q12 35 51 35q15 0 26.5 -7t19 -19t13.5 -31l289 -869l290 869q9 29 22.5 43t36.5 14q38 0 51 -35q7 -19 -5 -57l-438 -1260q-28 -83 -72 -124q-72 -66 -186 -66q-36 0 -52 10q-21 14 -21 40t21 40q14 10 46 10q67 0 108 32t67 111l78 234l-340 973q-12 38 -5 57z M414 1345q0 18 20 50l118 190q12 21 28 33q15 12 31 12q15 0 30 -10q28 -18 28 -47q0 -17 -21 -49l-117 -190q-16 -25 -28 -34q-14 -11 -32 -11q-16 0 -29 9q-28 18 -28 47z" />
<glyph unicode="&#xfe;" horiz-adv-x="1187" d="M213 -437v1930q0 37 12 54q14 22 44.5 22t45.5 -22q11 -17 11 -54v-573q34 45 71 75t77 46t79 22t87 6q80 0 148.5 -25t110.5 -67q138 -138 138 -448q0 -312 -138 -450q-42 -42 -110.5 -67t-148.5 -25q-100 0 -174.5 31.5t-139.5 117.5v-573q0 -36 -11 -54 q-15 -22 -45.5 -22t-44.5 22q-12 18 -12 54zM326 528.5q0 -51.5 3 -94t11.5 -89t22 -83t36.5 -70t53.5 -56t74.5 -35.5t98 -13t98 13t74.5 35.5t53 56t36 70t22 83t11 89t2.5 94t-2.5 94t-11 89t-22 82.5t-36 70t-53 56t-74.5 35t-98 13t-98 -13t-74.5 -35t-53.5 -56 t-36.5 -70t-22 -82.5t-11.5 -89t-3 -94z" />
<glyph unicode="&#xff;" horiz-adv-x="941" d="M72 1030q12 35 51 35q15 0 26.5 -7t19 -19t13.5 -31l289 -869l290 869q9 29 22.5 43t36.5 14q38 0 51 -35q7 -19 -5 -57l-438 -1260q-28 -83 -72 -124q-72 -66 -186 -66q-36 0 -52 10q-21 14 -21 40t21 40q14 10 46 10q67 0 108 32t67 111l78 234l-340 973q-12 38 -5 57z M163 1396.5q0 33.5 23 57t57 23.5t57.5 -23.5t23.5 -57t-23.5 -57.5t-57.5 -24t-57 24t-23 57.5zM618 1396.5q0 33.5 23.5 57t57.5 23.5q22 0 40.5 -11t29.5 -29.5t11 -40.5q0 -33 -24 -57t-57.5 -24t-57 24t-23.5 57.5z" />
<glyph unicode="&#x131;" horiz-adv-x="538" d="M213 67v922q0 37 12 54q14 22 44.5 22t45.5 -22q11 -17 11 -54v-922q0 -37 -11 -54q-15 -22 -45.5 -22t-44.5 22q-12 17 -12 54z" />
<glyph unicode="&#x152;" horiz-adv-x="2199" d="M180 780q0 106 1.5 170t6.5 132t15 109t27.5 85t42.5 77.5t62 70.5q70 71 168 110t212 39q79 0 152 -19.5t141.5 -62.5t122.5 -107v107q0 37 16 53t54 16h810q39 0 54 -11q21 -16 21 -41.5t-21 -41.5q-15 -11 -54 -11h-762v-616h638q41 0 56 -11q20 -15 20 -41.5 t-20 -41.5q-15 -11 -56 -11h-638v-629h762q39 0 54 -11q21 -16 21 -41.5t-21 -41.5q-15 -11 -54 -11h-810q-38 0 -54 16t-16 55v104q-161 -188 -416 -188q-114 0 -212 39t-168 110q-37 37 -62 70.5t-42.5 77.5t-27.5 85t-15 109t-6.5 132t-1.5 170zM299 780q0 -92 1 -149 t5 -118t11.5 -99t21 -76.5t33 -67.5t47.5 -57q121 -121 297 -121q174 0 295 121q34 33 55.5 71.5t35 80t20 107.5t8.5 132t2 176q0 78 -1 129.5t-3.5 106.5t-8 91t-14 73.5t-21.5 64.5t-31 53t-42 50q-120 120 -295 120q-177 0 -297 -120q-28 -28 -47.5 -57t-33 -68 t-21 -76.5t-11.5 -98.5t-5 -118.5t-1 -149.5z" />
<glyph unicode="&#x153;" horiz-adv-x="1886" d="M151 529q0 50 2.5 91t11 89.5t23 88.5t39 81t58.5 74q115 116 294 116q124 0 221.5 -59.5t150.5 -169.5q53 112 146 170.5t220 58.5q196 0 309.5 -133.5t113.5 -363.5q0 -38 -15 -53t-53 -15h-666q0 -201 88.5 -308.5t255.5 -107.5q148 0 243 83q18 16 25.5 22t17.5 11 t20 5q20 0 35.5 -16t15.5 -36q0 -11 -6 -23t-15.5 -23t-21 -21t-25 -19t-23.5 -15t-21 -12q-97 -57 -252 -57q-285 0 -392 229q-52 -109 -150 -169t-222 -60q-179 0 -294 116q-42 41 -70 92t-41 108.5t-18 109.5t-5 116zM265 529q0 -43 2 -78t8 -76.5t16.5 -75t28.5 -66 t42 -56.5q88 -89 217 -89q127 0 216 89q57 56 77 146.5t20 205.5q0 114 -20 204t-77 147q-89 88 -216 88q-129 0 -217 -88q-30 -30 -50 -71.5t-30 -90t-13.5 -92.5t-3.5 -97zM1006 598h623q-2 35 -4.5 58.5t-6.5 46.5t-10.5 43.5t-16.5 45.5q-33 82 -106.5 129t-167.5 47 q-93 0 -167 -47.5t-107 -128.5q-19 -48 -26.5 -87t-10.5 -107z" />
<glyph unicode="&#x178;" horiz-adv-x="1081" d="M54 1523q3 26 31 39q12 7 25 7q14 0 24 -6q20 -12 36 -46l371 -742l372 742q16 34 36 46q9 6 23 6q13 0 26 -7q28 -13 31 -39q3 -17 -16 -56l-413 -826v-567q0 -41 -13 -61q-14 -22 -45.5 -22t-46.5 22q-12 20 -12 61v567l-413 826q-19 38 -16 56zM232 1813q0 33 24 56.5 t57.5 23.5t57.5 -23.5t24 -57t-24 -57.5t-57 -24q-17 0 -32 6.5t-26 17.5t-17.5 26t-6.5 32zM688 1812.5q0 33.5 24 57t57.5 23.5t57.5 -23.5t24 -57t-24 -57.5t-57.5 -24t-57.5 24t-24 57.5z" />
<glyph unicode="&#x192;" horiz-adv-x="862" d="M57 791q0 23 18 36q14 10 47 10h193l89 447q27 134 103 205t199 71h31q37 0 55 -11q20 -13 20 -39q0 -28 -20 -42q-13 -9 -48 -9h-35q-74 0 -125 -49.5t-70 -143.5l-86 -429h186q34 0 47 -10q18 -13 18 -36q0 -22 -18 -36q-15 -10 -47 -10h-204l-238 -1193 q-6 -35 -24 -52q-15 -13 -37 -13q-21 0 -36 15q-12 13 -15 28t2 44l233 1171h-173q-32 0 -47 10q-18 14 -18 36z" />
<glyph unicode="&#x2c6;" horiz-adv-x="1095" d="M295 1339q4 19 28 43l208 208q25 26 47.5 26t48.5 -26l207 -208q24 -24 27 -43q4 -25 -13.5 -42t-41.5 -14q-20 3 -44 28l-183 183l-183 -183q-25 -25 -44 -28q-25 -3 -42 14q-18 18 -15 42z" />
<glyph unicode="&#x2c7;" horiz-adv-x="1095" d="M295 1558q-3 24 15 42q17 17 42 14q21 -4 44 -27l183 -183l183 183q23 23 44 27q24 3 41.5 -14.5t13.5 -41.5q-3 -19 -27 -44l-207 -206q-27 -27 -48.5 -27t-47.5 27l-208 206q-24 25 -28 44z" />
<glyph unicode="&#x2d8;" horiz-adv-x="1095" d="M289 1451q-3 24 15 42q17 17 42 14q19 -4 43 -28q46 -45 89.5 -69.5t100.5 -24.5q39 0 74.5 13.5t60.5 32t54 48.5q25 24 44 28q25 3 42 -14.5t14 -41.5q-3 -19 -28 -44q-121 -121 -261 -121q-141 0 -262 121q-25 25 -28 44z" />
<glyph unicode="&#x2d9;" horiz-adv-x="1095" d="M498 1413.5q0 33.5 23.5 57.5t57 24t57 -24t23.5 -58q0 -22 -10.5 -40.5t-29 -29.5t-40.5 -11q-34 0 -57.5 24t-23.5 57.5z" />
<glyph unicode="&#x2da;" horiz-adv-x="1095" d="M328 1483.5q0 103.5 73.5 176.5t177 73t176.5 -73t73 -177t-73 -176.5t-176.5 -72.5t-177 73t-73.5 176.5zM418 1483.5q0 -66.5 47 -113t113.5 -46.5t113 46t46.5 113t-46.5 114t-113 47t-113.5 -47t-47 -113.5z" />
<glyph unicode="&#x2db;" horiz-adv-x="1156" d="M369 -428q0 17 20 49l118 190q10 16 18.5 25.5t18.5 14.5t22 5q17 0 30 -9q28 -18 28 -47q0 -17 -21 -49l-117 -191q-27 -45 -60 -45q-15 0 -29 10q-28 18 -28 47z" />
<glyph unicode="&#x2dc;" horiz-adv-x="1095" d="M250 1398q0 26 34 55q25 23 48.5 37.5t44 20.5t34 7.5t31.5 1.5q43 0 74 -11.5t77 -39.5q12 -7 20.5 -12t19.5 -11t20.5 -10t20 -7.5t21 -5t21.5 -1.5q26 0 45.5 7.5t50.5 34.5q33 29 50 29q18 0 30 -13q14 -14 14 -31q0 -26 -33 -55q-49 -43 -84.5 -55.5t-72.5 -12.5 q-23 0 -42.5 3t-38.5 10.5t-33.5 15.5t-37.5 22q-26 16 -41.5 24.5t-37.5 15.5t-43 7q-17 0 -28.5 -2t-29 -11.5t-38.5 -28.5q-32 -27 -52 -27q-17 0 -29 11q-15 15 -15 32z" />
<glyph unicode="&#x2dd;" horiz-adv-x="1095" d="M377 1345q0 18 20 50l118 190q12 21 27 33q16 12 33 12q14 0 28 -10q28 -18 28 -47q0 -17 -20 -49l-118 -190q-16 -25 -28 -34q-13 -11 -30.5 -11t-30.5 9q-27 18 -27 47zM705 1345q0 18 20 50l118 190q12 21 28 33q15 12 32 12q15 0 29 -10q28 -18 28 -47q0 -19 -19 -49 l-119 -190q-16 -25 -28 -34q-14 -11 -31 -11t-30 9q-28 18 -28 47z" />
<glyph unicode="&#x3a9;" horiz-adv-x="1507" d="M211 52.5q0 26.5 20 41.5q15 11 55 11h143q-100 79 -142 156q-43 77 -55.5 192t-12.5 327q0 106 1.5 170t7 132t15 109t27.5 85t43 77.5t61 70.5q71 71 168.5 110t211.5 39q77 0 147 -18t128 -51t104 -80q37 -37 62 -70.5t42.5 -77.5t27.5 -85t15 -109t6.5 -132t1.5 -170 q0 -212 -12.5 -327t-54.5 -192t-142 -156h143q39 0 55 -11q20 -15 20 -41.5t-20 -41.5q-16 -11 -55 -11h-265q-40 0 -55 11q-21 16 -21 41q0 23 11.5 37t36.5 28q59 34 102.5 76t79.5 100q37 62 48.5 173t11.5 314q0 78 -1 129.5t-4 106.5t-8 91t-14 73.5t-22 64.5t-30.5 53 t-41.5 50q-120 120 -296 120t-296 -120q-34 -33 -55.5 -71.5t-35 -80t-20 -108t-8.5 -132.5t-2 -176q0 -203 11 -314t49 -173q36 -58 79.5 -100t102.5 -76q24 -14 36 -28t12 -37q0 -25 -21 -41q-16 -11 -55 -11h-265q-40 0 -55 11q-20 15 -20 41.5z" />
<glyph unicode="&#x3c0;" horiz-adv-x="1242" d="M213 67v922q0 37 15 52t52 15h682q37 0 52 -15q16 -16 16 -52v-922q0 -35 -12 -54q-15 -22 -45.5 -22t-44.5 22q-12 17 -12 54v889h-590v-889q0 -37 -11 -54q-15 -22 -45.5 -22t-44.5 22q-12 17 -12 54z" />
<glyph unicode="&#x400;" horiz-adv-x="1309" d="M241 71v1420q0 36 17 53q16 16 53 16h810q40 0 55 -11q20 -15 20 -41t-20 -42q-15 -11 -55 -11h-761v-616h638q40 0 55 -11q21 -16 21 -41.5t-21 -41.5q-15 -11 -55 -11h-638v-629h761q40 0 55 -11q20 -15 20 -41.5t-20 -41.5q-15 -11 -55 -11h-810q-37 0 -53 16 q-17 17 -17 55zM489 1984q0 30 27 47q14 9 30 9q17 0 32 -11q13 -11 27 -33l118 -190q20 -30 20 -50q0 -30 -27 -47q-13 -9 -30 -9q-18 0 -32 11q-10 7 -27 34l-119 190q-19 30 -19 49z" />
<glyph unicode="&#x401;" horiz-adv-x="1309" d="M241 71v1420q0 36 17 53q16 16 53 16h810q40 0 55 -11q20 -15 20 -41t-20 -42q-15 -11 -55 -11h-761v-616h638q40 0 55 -11q21 -16 21 -41.5t-21 -41.5q-15 -11 -55 -11h-638v-629h761q40 0 55 -11q20 -15 20 -41.5t-20 -41.5q-15 -11 -55 -11h-810q-37 0 -53 16 q-17 17 -17 55zM377 1812.5q0 33.5 23.5 57t57.5 23.5t57.5 -23.5t23.5 -57t-23.5 -57.5t-57.5 -24t-57.5 24t-23.5 57.5zM832 1812.5q0 33.5 24 57t58 23.5t57.5 -23.5t23.5 -56.5q0 -23 -11 -41.5t-29.5 -29.5t-40.5 -11q-34 0 -58 24t-24 57.5z" />
<glyph unicode="&#x402;" horiz-adv-x="1638" d="M57 1507.5q0 25.5 21 41.5q15 11 55 11h916q39 0 54 -11q22 -16 22 -41.5t-22 -41.5q-15 -11 -54 -11h-466v-512h373q216 0 343 -124t127 -346q0 -223 -127 -348t-343 -125h-22q-39 0 -54 11q-21 15 -21 41.5t21 41.5q15 11 54 11h9q177 0 271.5 91.5t94.5 274 t-94.5 274.5t-271.5 92h-360v-763q0 -40 -14 -61q-15 -22 -46 -22t-46 22q-13 20 -13 61v1381h-331q-40 0 -55 11q-21 16 -21 41.5z" />
<glyph unicode="&#x403;" horiz-adv-x="1230" d="M241 74v1417q0 36 17 53q16 16 53 16h788q39 0 54 -11q22 -16 22 -41.5t-22 -41.5q-15 -11 -54 -11h-739v-1381q0 -41 -13 -61q-15 -22 -46.5 -22t-45.5 22q-14 21 -14 61zM597 1762q0 17 20 50l118 189q14 23 28 34t31 11t30 -9q28 -18 28 -47q0 -17 -21 -49l-117 -190 q-15 -24 -28 -34q-15 -11 -32 -11q-15 0 -29 9q-28 18 -28 47z" />
<glyph unicode="&#x404;" horiz-adv-x="1410" d="M180 780q0 106 1.5 170t6.5 132t15 109t27.5 85t42.5 77.5t62 70.5q70 71 168 110t212 39q270 0 428 -203q38 -51 63.5 -113.5t25.5 -98.5q0 -28 -15 -43t-38.5 -15t-38.5 15q-17 17 -29 57q-43 139 -146.5 217.5t-249.5 78.5q-177 0 -297 -120q-39 -39 -62.5 -82 t-36 -107t-16.5 -133.5t-4 -186.5h559q39 0 55 -11q20 -15 20 -41.5t-20 -41.5q-16 -11 -55 -11h-559q0 -97 2.5 -158.5t9 -120.5t20 -98.5t34.5 -75.5t53 -68q121 -121 297 -121q146 0 249.5 79t146.5 218q11 39 29 56q15 15 38.5 15t38.5 -15t15 -43q0 -36 -25.5 -98.5 t-63.5 -113.5q-158 -203 -428 -203q-114 0 -212 39t-168 110q-37 37 -62 70.5t-42.5 77.5t-27.5 85t-15 109t-6.5 132t-1.5 170z" />
<glyph unicode="&#x405;" horiz-adv-x="1286" d="M127 202q0 26 16 42q17 17 40 17q10 0 21.5 -5.5t18.5 -10.5t22 -17q94 -78 180 -107t213 -29q185 0 293 85.5t108 236.5q0 145 -86 219q-29 26 -56.5 40.5t-65.5 24t-103 19.5l-182 28q-93 14 -156 40t-122 75q-124 104 -124 286q0 196 131 311.5t354 115.5 q124 0 211 -27t181 -94q44 -31 44 -62q0 -20 -12 -33q-16 -19 -41 -19q-19 0 -62 29q-84 61 -153 82.5t-174 21.5q-169 0 -265.5 -86t-96.5 -235q0 -138 80 -205q48 -40 99 -61t135 -33l168 -27q110 -18 170.5 -40t109.5 -63q64 -53 99 -131t35 -172q0 -198 -141.5 -314.5 t-384.5 -116.5q-143 0 -251 33.5t-211 118.5q-42 32 -42 63z" />
<glyph unicode="&#x406;" horiz-adv-x="600" d="M241 74v1413q0 39 14 60q14 22 45.5 22t46.5 -22q13 -20 13 -60v-1413q0 -41 -13 -61q-15 -22 -46.5 -22t-45.5 22q-14 21 -14 61z" />
<glyph unicode="&#x407;" horiz-adv-x="600" d="M-9 1812.5q0 33.5 24 57t57.5 23.5t57 -23.5t23.5 -57t-23.5 -57.5t-57 -24t-57.5 24t-24 57.5zM241 74v1413q0 39 14 60q14 22 45.5 22t46.5 -22q13 -20 13 -60v-1413q0 -41 -13 -61q-15 -22 -46.5 -22t-45.5 22q-14 21 -14 61zM447 1812.5q0 33.5 24 57t57.5 23.5 t57 -23.5t23.5 -57t-23.5 -57.5t-57 -24t-57.5 24t-24 57.5z" />
<glyph unicode="&#x408;" horiz-adv-x="1071" d="M57 135q0 21 14 38q16 20 39 20t65 -33q34 -24 66 -39t67.5 -22t78.5 -7q169 0 258 101.5t89 291.5v1002q0 40 13 60q15 22 46 22t46 -22q14 -21 14 -60v-1027q0 -214 -127 -343.5t-339 -129.5q-88 0 -157.5 22t-137.5 70q-35 25 -35 56z" />
<glyph unicode="&#x409;" horiz-adv-x="2329" d="M57 52.5q0 25.5 21 41.5q12 9 42 11q45 1 82 12.5t73 38t64 69t51.5 108t39 152.5t24 205t8.5 263v538q0 37 16 53t55 16h703q37 0 53 -16q17 -17 17 -53v-592h454q101 0 187.5 -30.5t149.5 -87t98.5 -142t35.5 -190.5q0 -139 -61.5 -242t-167.5 -155t-242 -52h-502 q-38 0 -54 16t-16 55v1384h-609v-563q0 -244 -29 -416.5t-87.5 -277t-140 -151.5t-193.5 -47q-37 0 -51 11q-21 16 -21 41.5zM1306 105h440q168 0 267 87t99 257t-99 257t-267 87h-440v-688z" />
<glyph unicode="&#x40a;" horiz-adv-x="2313" d="M241 74v1413q0 39 14 60q14 22 45.5 22t46.5 -22q13 -20 13 -60v-588h813v588q0 40 13 60q14 22 45.5 22t46.5 -22q12 -20 12 -60v-588h454q101 0 187.5 -30.5t149.5 -87t99 -142t36 -190.5q0 -139 -62 -242t-168 -155t-242 -52h-502q-37 0 -53 16t-16 55v722h-813v-719 q0 -41 -13 -61q-15 -22 -46.5 -22t-45.5 22q-14 21 -14 61zM1290 105h441q168 0 267 87t99 257t-99 257t-267 87h-441v-688z" />
<glyph unicode="&#x40b;" horiz-adv-x="1629" d="M57 1507.5q0 25.5 21 41.5q15 11 55 11h916q39 0 54 -11q22 -16 22 -41.5t-22 -41.5q-15 -11 -54 -11h-474v-512h372q213 0 342 -123t129 -327v-419q0 -41 -13 -61q-15 -22 -46 -22t-46 22q-14 21 -14 61v419q0 165 -96 254.5t-270 89.5h-358v-763q0 -40 -14 -61 q-15 -22 -46.5 -22t-45.5 22q-13 20 -13 61v1381h-323q-40 0 -55 11q-21 16 -21 41.5z" />
<glyph unicode="&#x40c;" horiz-adv-x="1296" d="M241 74v1413q0 39 14 60q14 22 45.5 22t46.5 -22q13 -20 13 -60v-627h116l554 673q28 36 56 36q22 0 38 -14q21 -19 20 -45q-1 -17 -27 -51l-532 -638l587 -720q24 -32 25 -51q2 -26 -20 -45q-15 -14 -37 -14q-28 0 -56 37l-598 727h-126v-681q0 -41 -13 -61 q-15 -22 -46.5 -22t-45.5 22q-14 21 -14 61zM615 1762q0 17 21 50l118 189q15 24 27 34q14 11 32 11q16 0 29 -9q28 -18 28 -47q0 -19 -19 -49l-119 -190q-15 -24 -28 -34q-15 -11 -31 -11q-15 0 -30 9q-28 18 -28 47z" />
<glyph unicode="&#x40d;" horiz-adv-x="1577" d="M241 73v1414q0 39 14 60q14 22 45.5 22t46.5 -22q13 -20 13 -60v-1290l847 1328q28 44 67 44q27 0 43 -16q19 -20 19 -65v-1414q0 -41 -12 -61q-15 -22 -46.5 -22t-45.5 22q-13 20 -13 61v1289l-849 -1328q-28 -44 -66 -44q-27 0 -43 16q-20 21 -20 66zM595 1984 q0 29 28 47q14 9 29 9q17 0 32 -11q15 -12 28 -33l117 -190q21 -32 21 -50q0 -29 -28 -47q-13 -9 -30 -9t-31 11q-12 9 -28 34l-119 190q-19 30 -19 49z" />
<glyph unicode="&#x40e;" horiz-adv-x="1095" d="M41.5 1498q-2.5 13 0.5 27.5t14 26.5q17 17 45 17q15 0 28 -9q20 -13 34 -51l396 -1019l374 1019q14 38 33 51q14 9 29 9q28 0 45 -17q11 -12 14 -26.5t0 -27.5t-10 -31l-444 -1183q-55 -148 -130.5 -216t-183.5 -68h-41q-39 0 -55 11q-20 15 -20 41.5t20 41.5 q16 11 55 11h8q86 0 135 40t85 135l23 61l-445 1126q-7 18 -9.5 31zM284 1867q-4 24 15 42q17 17 40 14q21 -4 44 -27q45 -45 89.5 -70t101 -25t100 24.5t89.5 70.5q23 23 44 27q24 3 41.5 -14t13.5 -42q-3 -19 -27 -44q-121 -121 -261 -121q-142 0 -263 121q-24 25 -27 44z " />
<glyph unicode="&#x40f;" horiz-adv-x="1531" d="M241 71v1416q0 39 14 60q14 22 45.5 22t46.5 -22q13 -20 13 -60v-1382h813v1382q0 40 13 60q14 22 45.5 22t46.5 -22q12 -20 12 -60v-1416q0 -39 -16 -55t-53 -16h-396v-321q0 -40 -13 -60q-15 -22 -45.5 -22t-46.5 22q-14 22 -14 60v321h-395q-37 0 -53 16 q-17 17 -17 55z" />
<glyph unicode="&#x410;" horiz-adv-x="1318" d="M66 93l525 1403q12 35 22 49q16 24 46 24t46 -24q12 -17 24 -49l523 -1403q7 -18 9.5 -31t0 -27.5t-13.5 -25.5q-18 -18 -45 -18q-14 0 -28 9q-19 13 -33 51l-124 328h-716l-124 -328q-15 -38 -34 -51q-13 -9 -27 -9q-28 0 -45 18q-27 27 -6 84zM338 485h642l-321 884z " />
<glyph unicode="&#x411;" horiz-adv-x="1386" d="M241 71v1420q0 36 17 53q16 16 53 16h815q39 0 54 -11q21 -15 21 -41t-21 -42q-15 -11 -54 -11h-766v-556h457q102 0 188 -30.5t149 -87t98.5 -142t35.5 -190.5q0 -139 -61.5 -242t-167.5 -155t-242 -52h-506q-37 0 -53 16q-17 17 -17 55zM360 105h445q167 0 266.5 87 t99.5 257t-99 257t-267 87h-445v-688z" />
<glyph unicode="&#x412;" horiz-adv-x="1470" d="M241 71v1418q0 38 17 55q16 16 54 16h503q131 0 232.5 -47t160.5 -140.5t59 -220.5q0 -122 -65.5 -217t-178.5 -133q126 -42 196.5 -142t70.5 -235q0 -205 -123 -315t-335 -110h-521q-37 0 -53 16q-17 17 -17 55zM360 105h460q161 0 257 86t96 234t-96 234t-257 86h-460 v-640zM360 851h442q58 0 108.5 10.5t94.5 33.5t75.5 58t49.5 85.5t18 113.5q0 79 -27 138t-75.5 94.5t-109.5 53t-134 17.5h-442v-604z" />
<glyph unicode="&#x413;" horiz-adv-x="1230" d="M241 74v1417q0 36 17 53q16 16 53 16h788q39 0 54 -11q22 -16 22 -41.5t-22 -41.5q-15 -11 -54 -11h-739v-1381q0 -41 -13 -61q-15 -22 -46.5 -22t-45.5 22q-14 21 -14 61z" />
<glyph unicode="&#x414;" horiz-adv-x="1489" d="M44 35q0 38 16 54t53 16h73q109 172 155 380t46 506v500q0 36 17 53q17 16 48 16h694q37 0 53 -16q18 -17 18 -53v-1386h115q38 0 54 -16q17 -17 17 -54v-356q0 -38 -14 -60q-16 -22 -46.5 -22t-45.5 22q-13 20 -13 60v321h-1121v-321q0 -38 -14 -60q-16 -22 -46.5 -22 t-45.5 22q-13 20 -13 60v356zM317 105h781v1350h-598v-570q0 -225 -44.5 -427t-138.5 -353z" />
<glyph unicode="&#x415;" horiz-adv-x="1309" d="M241 71v1420q0 36 17 53q16 16 53 16h810q40 0 55 -11q20 -15 20 -41t-20 -42q-15 -11 -55 -11h-761v-616h638q40 0 55 -11q21 -16 21 -41.5t-21 -41.5q-15 -11 -55 -11h-638v-629h761q40 0 55 -11q20 -15 20 -41.5t-20 -41.5q-15 -11 -55 -11h-810q-37 0 -53 16 q-17 17 -17 55z" />
<glyph unicode="&#x416;" horiz-adv-x="1959" d="M100 50q1 18 26 51l587 720l-533 638q-26 34 -27 51q-2 25 21 45q16 14 38 14q28 0 56 -36l552 -673h100v627q0 40 13 60q15 22 46 22t46 -22q14 -21 14 -60v-627h101l553 673q27 36 55 36q22 0 38 -14q23 -20 21 -45q-1 -17 -27 -51l-532 -638l586 -720q25 -33 27 -51 q1 -25 -22 -45q-15 -14 -37 -14q-27 0 -56 37l-600 731h-107v-685q0 -40 -14 -61q-15 -22 -46 -22t-46 22q-13 20 -13 61v685h-107l-599 -731q-29 -37 -57 -37q-21 0 -36 14q-23 20 -21 45z" />
<glyph unicode="&#x417;" horiz-adv-x="1357" d="M164 401q0 27 15 42q16 16 41 16q24 0 38 -14t26 -54q43 -141 147.5 -220t254.5 -79q107 0 191.5 39t133.5 115.5t49 178.5q0 160 -89 240t-256 80h-129q-37 0 -54 11q-22 17 -22 41q0 25 22 42q17 12 54 12h135q150 0 232 81t82 231q0 145 -95 225t-254 80 q-146 0 -250 -79t-147 -218q-12 -43 -26 -56q-14 -14 -37 -14q-26 0 -42 16q-15 15 -15 42q0 36 25 97.5t64 112.5q158 204 428 204q134 0 240 -49t166 -142t60 -216q0 -132 -57 -221.5t-177 -139.5q261 -89 261 -384q0 -79 -25 -148t-70.5 -121t-106.5 -89.5t-135.5 -56.5 t-155.5 -19q-279 0 -437 203q-38 51 -61.5 112.5t-23.5 98.5z" />
<glyph unicode="&#x418;" horiz-adv-x="1577" d="M241 73v1414q0 39 14 60q14 22 45.5 22t46.5 -22q13 -20 13 -60v-1290l847 1328q28 44 67 44q27 0 43 -16q19 -20 19 -65v-1414q0 -41 -12 -61q-15 -22 -46.5 -22t-45.5 22q-13 20 -13 61v1289l-849 -1328q-28 -44 -66 -44q-27 0 -43 16q-20 21 -20 66z" />
<glyph unicode="&#x419;" horiz-adv-x="1577" d="M241 73v1414q0 39 14 60q14 22 45.5 22t46.5 -22q13 -20 13 -60v-1290l847 1328q28 44 67 44q27 0 43 -16q19 -20 19 -65v-1414q0 -41 -12 -61q-15 -22 -46.5 -22t-45.5 22q-13 20 -13 61v1289l-849 -1328q-28 -44 -66 -44q-27 0 -43 16q-20 21 -20 66zM503 1867 q-3 25 14 42t42 14q20 -4 43 -27q46 -46 89.5 -70.5t100 -24.5t101 25t89.5 70q24 24 43 27q25 3 42 -14q18 -18 15 -42q-3 -19 -28 -44q-121 -121 -262 -121q-140 0 -261 121q-25 25 -28 44z" />
<glyph unicode="&#x41a;" horiz-adv-x="1296" d="M241 74v1413q0 39 14 60q14 22 45.5 22t46.5 -22q13 -20 13 -60v-627h116l554 673q28 36 56 36q22 0 38 -14q21 -19 20 -45q-1 -17 -27 -51l-532 -638l587 -720q24 -32 25 -51q2 -26 -20 -45q-15 -14 -37 -14q-28 0 -56 37l-598 727h-126v-681q0 -41 -13 -61 q-15 -22 -46.5 -22t-45.5 22q-14 21 -14 61z" />
<glyph unicode="&#x41b;" horiz-adv-x="1546" d="M57 52.5q0 25.5 21 41.5q12 9 44 11q45 1 82 12.5t73 38t63.5 69t51 108t38.5 152.5t23.5 205t8.5 263v538q0 37 16 53t55 16h703q37 0 53 -16q17 -17 17 -53v-1417q0 -40 -13 -61q-15 -22 -46.5 -22t-45.5 22q-13 20 -13 61v1381h-609v-563q0 -244 -29 -416.5 t-87.5 -277t-140 -151.5t-193.5 -47q-37 0 -51 11q-21 16 -21 41.5z" />
<glyph unicode="&#x41c;" horiz-adv-x="1792" d="M241 74v1414q0 42 21 64q17 17 43 17q23 0 40 -11q16 -10 34 -50l518 -1151l516 1151q18 39 36 50q16 11 39 11q26 0 43 -17q21 -21 21 -64v-1414q0 -41 -13 -61q-15 -22 -46.5 -22t-45.5 22q-14 21 -14 61v1201l-451 -990q-17 -37 -35.5 -54.5t-50 -17.5t-50 17.5 t-35.5 54.5l-451 990v-1201q0 -41 -13 -61q-15 -22 -46.5 -22t-45.5 22q-14 21 -14 61z" />
<glyph unicode="&#x41d;" horiz-adv-x="1531" d="M241 74v1413q0 39 14 60q14 22 45.5 22t46.5 -22q13 -20 13 -60v-648h813v648q0 40 13 60q14 22 45.5 22t46.5 -22q12 -20 12 -60v-1413q0 -41 -12 -61q-15 -22 -46.5 -22t-45.5 22q-13 20 -13 61v660h-813v-660q0 -41 -13 -61q-15 -22 -46.5 -22t-45.5 22q-14 21 -14 61 z" />
<glyph unicode="&#x41e;" horiz-adv-x="1428" d="M180 780q0 106 1.5 170t6.5 132t15 109t27.5 85t42.5 77.5t62 70.5q70 71 168 110t212 39t211 -39t168 -110q36 -37 61 -70.5t43 -77.5t27.5 -85t15 -109t7 -132t1.5 -170t-1.5 -170t-7 -132t-15 -109t-27.5 -85t-43 -77.5t-61 -70.5q-71 -71 -168 -110t-211 -39t-212 39 t-168 110q-37 37 -62 70.5t-42.5 77.5t-27.5 85t-15 109t-6.5 132t-1.5 170zM299 780q0 -92 1 -149t5 -118t11.5 -99t21 -76.5t33 -67.5t47.5 -57q121 -121 297 -121q174 0 295 121q34 33 55.5 71.5t35 80t20 107.5t8.5 132t2 176q0 78 -1 129.5t-3.5 106.5t-8 91t-14 73.5 t-21.5 64.5t-31 53t-42 50q-120 120 -295 120q-177 0 -297 -120q-28 -28 -47.5 -57t-33 -68t-21 -76.5t-11.5 -98.5t-5 -118.5t-1 -149.5z" />
<glyph unicode="&#x41f;" horiz-adv-x="1531" d="M241 74v1417q0 36 17 53q16 16 53 16h910q37 0 53 -16t16 -53v-1417q0 -41 -12 -61q-15 -22 -46.5 -22t-45.5 22q-13 20 -13 61v1381h-813v-1381q0 -41 -13 -61q-15 -22 -46.5 -22t-45.5 22q-14 21 -14 61z" />
<glyph unicode="&#x420;" horiz-adv-x="1382" d="M241 74v1417q0 36 17 53q16 16 53 16h502q136 0 242 -52t167.5 -155t61.5 -242t-61.5 -242t-167.5 -155.5t-242 -52.5h-453v-587q0 -41 -13 -61q-15 -22 -46.5 -22t-45.5 22q-14 21 -14 61zM360 767h440q168 0 267 87t99 257t-99 257t-267 87h-440v-688z" />
<glyph unicode="&#x421;" horiz-adv-x="1410" d="M180 780q0 106 1.5 170t6.5 132t15 109t27.5 85t42.5 77.5t62 70.5q70 71 168 110t212 39q270 0 428 -203q38 -51 63.5 -113.5t25.5 -98.5q0 -28 -15 -43t-38.5 -15t-38.5 15q-17 17 -29 57q-43 139 -146.5 217.5t-249.5 78.5q-177 0 -297 -120q-28 -28 -47.5 -57 t-33 -68t-21 -76.5t-11.5 -98.5t-5 -118.5t-1 -149.5t1 -149t5 -118t11.5 -99t21 -76.5t33 -67.5t47.5 -57q121 -121 297 -121q146 0 249.5 79t146.5 218q11 39 29 56q15 15 38.5 15t38.5 -15t15 -43q0 -36 -25.5 -98.5t-63.5 -113.5q-158 -203 -428 -203q-114 0 -212 39 t-168 110q-37 37 -62 70.5t-42.5 77.5t-27.5 85t-15 109t-6.5 132t-1.5 170z" />
<glyph unicode="&#x422;" horiz-adv-x="1180" d="M57 1507.5q0 25.5 21 41.5q15 11 55 11h916q39 0 54 -11q22 -16 22 -41.5t-22 -41.5q-15 -11 -54 -11h-401v-1381q0 -41 -12 -61q-15 -22 -46.5 -22t-45.5 22q-13 20 -13 61v1381h-398q-40 0 -55 11q-21 16 -21 41.5z" />
<glyph unicode="&#x423;" horiz-adv-x="1095" d="M41.5 1498q-2.5 13 0.5 27.5t14 26.5q17 17 45 17q15 0 28 -9q20 -13 34 -51l396 -1019l374 1019q14 38 33 51q14 9 29 9q28 0 45 -17q11 -12 14 -26.5t0 -27.5t-10 -31l-444 -1183q-55 -148 -130.5 -216t-183.5 -68h-41q-39 0 -55 11q-20 15 -20 41.5t20 41.5 q16 11 55 11h8q86 0 135 40t85 135l23 61l-445 1126q-7 18 -9.5 31z" />
<glyph unicode="&#x424;" horiz-adv-x="1664" d="M123 832q0 156 37 271t115.5 195.5t202.5 122.5t296 47v70q0 40 12 60q15 21 46.5 21t45.5 -21q14 -22 14 -60v-70q340 -9 495.5 -166t155.5 -470q0 -155 -37 -270t-115.5 -195.5t-202.5 -122.5t-296 -47v-131q0 -38 -14 -60q-14 -21 -45.5 -21t-46.5 21q-12 20 -12 60 v131q-340 9 -495.5 166t-155.5 469zM241 832.5q0 -100.5 15.5 -179t53 -145t98 -111t152.5 -69.5t214 -27v1064q-122 -2 -214 -27.5t-152 -69.5t-98 -111t-53.5 -145.5t-15.5 -179zM892 301q122 2 213.5 27t152 69.5t98 111t53 145t15.5 179t-15.5 179t-53 145.5t-98 111 t-152 69.5t-213.5 27.5v-1064z" />
<glyph unicode="&#x425;" horiz-adv-x="1178" d="M98 47q0 18 20 54l399 699l-377 659q-18 34 -18 54q0 32 28 47q15 9 30 9q23 0 36.5 -13.5t26.5 -37.5l347 -618l351 625q8 15 13.5 22.5t17 14.5t27.5 7q15 0 30 -9q28 -15 28 -47q0 -20 -18 -54l-379 -659l401 -699q20 -36 20 -54q0 -31 -29 -47q-16 -9 -30 -9 q-23 0 -36.5 13.5t-26.5 37.5l-369 654l-370 -654q-8 -15 -14.5 -24.5t-20 -18t-29.5 -8.5q-13 0 -29 9q-29 16 -29 47z" />
<glyph unicode="&#x426;" horiz-adv-x="1564" d="M241 71v1416q0 39 14 60q14 22 45.5 22t46.5 -22q13 -20 13 -60v-1382h813v1382q0 40 13 60q14 22 45.5 22t46.5 -22q12 -20 12 -60v-1382h117q37 0 53.5 -16t16.5 -54v-356q0 -40 -13 -60q-16 -22 -46.5 -22t-45.5 22q-13 20 -13 60v321h-1048q-37 0 -53 16 q-17 17 -17 55z" />
<glyph unicode="&#x427;" horiz-adv-x="1410" d="M175 984v503q0 40 13 60q15 22 46.5 22t45.5 -22q13 -20 13 -60v-488q0 -74 19 -130t49 -88.5t74.5 -52t86.5 -25.5t93 -6q114 0 437 62v728q0 40 13 60q14 22 45.5 22t46.5 -22q14 -21 14 -60v-1413q0 -40 -14 -61q-15 -22 -46.5 -22t-45.5 22q-13 20 -13 61v583 q-313 -65 -456 -65q-69 0 -127.5 11t-114 39.5t-94 72t-62 112.5t-23.5 157z" />
<glyph unicode="&#x428;" horiz-adv-x="2191" d="M241 71v1416q0 39 14 60q14 22 45.5 22t46.5 -22q13 -20 13 -60v-1382h677v1382q0 40 13 60q14 22 45.5 22t46.5 -22q13 -20 13 -60v-1382h677v1382q0 40 13 60q14 22 45.5 22t46.5 -22q14 -21 14 -60v-1416q0 -38 -18 -55q-16 -16 -53 -16h-1569q-37 0 -53 16 q-17 17 -17 55z" />
<glyph unicode="&#x429;" horiz-adv-x="2223" d="M241 71v1416q0 39 14 60q14 22 45.5 22t46.5 -22q13 -20 13 -60v-1382h677v1382q0 40 13 60q14 22 45.5 22t46.5 -22q13 -20 13 -60v-1382h677v1382q0 40 13 60q14 22 45.5 22t46.5 -22q14 -21 14 -60v-1382h115q38 0 54 -16q17 -17 17 -54v-356q0 -40 -13 -60 q-16 -22 -46 -22q-32 0 -47 22q-13 20 -13 60v321h-1707q-37 0 -53 16q-17 17 -17 55z" />
<glyph unicode="&#x42a;" horiz-adv-x="1599" d="M57 1507.5q0 25.5 21 41.5q15 11 55 11h369q37 0 53 -16q17 -17 17 -53v-592h458q102 0 188 -30.5t149 -87t98.5 -142t35.5 -190.5q0 -139 -61.5 -242t-167.5 -155t-242 -52h-507q-37 0 -53 16t-16 55v1384h-321q-40 0 -55 11q-21 16 -21 41.5zM572 105h444q168 0 267 87 t99 257t-99 257t-267 87h-444v-688z" />
<glyph unicode="&#x42b;" horiz-adv-x="1870" d="M241 71v1416q0 39 14 60q14 22 45.5 22t46.5 -22q13 -20 13 -60v-588h457q102 0 188 -30.5t149 -87t98.5 -142t35.5 -190.5q0 -139 -61.5 -242t-167.5 -155t-242 -52h-506q-37 0 -53 16q-17 17 -17 55zM360 105h445q167 0 266.5 87t99.5 257t-99 257t-267 87h-445v-688z M1512 74v1413q0 40 13 60q15 22 46 22t46 -22q14 -21 14 -60v-1413q0 -40 -14 -61q-15 -22 -46 -22t-46 22q-13 20 -13 61z" />
<glyph unicode="&#x42c;" horiz-adv-x="1386" d="M241 71v1416q0 39 14 60q14 22 45.5 22t46.5 -22q13 -20 13 -60v-588h457q102 0 188 -30.5t149 -87t98.5 -142t35.5 -190.5q0 -139 -61.5 -242t-167.5 -155t-242 -52h-506q-37 0 -53 16q-17 17 -17 55zM360 105h445q167 0 266.5 87t99.5 257t-99 257t-267 87h-445v-688z " />
<glyph unicode="&#x42d;" horiz-adv-x="1410" d="M180 402q0 28 15 43t38.5 15t38.5 -15q17 -17 29 -56q43 -139 146.5 -218t249.5 -79q175 0 296 121q32 32 53 68t34.5 75.5t20.5 98.5t9 120.5t3 158.5h-560q-39 0 -54 11q-22 16 -22 41.5t22 41.5q15 11 54 11h560q-1 117 -5 186.5t-17 133.5t-36 107t-62 82 q-120 120 -296 120q-146 0 -249.5 -78.5t-146.5 -217.5q-13 -40 -29 -57q-15 -15 -38.5 -15t-38.5 15t-15 43q0 36 25 98.5t64 113.5q157 203 428 203q114 0 211.5 -39t167.5 -110q37 -37 62 -70.5t42.5 -77.5t27.5 -85t15.5 -109t7 -132t1.5 -170t-1.5 -170t-7 -132 t-15.5 -109t-27.5 -85t-42.5 -77.5t-62 -70.5q-70 -71 -167.5 -110t-211.5 -39q-271 0 -428 203q-39 51 -64 113.5t-25 98.5z" />
<glyph unicode="&#x42e;" horiz-adv-x="1972" d="M241 74v1413q0 39 14 60q14 22 45.5 22t46.5 -22q13 -20 13 -60v-648h363q1 108 4 176t12 132.5t26.5 108.5t44.5 85t68 83q47 47 105 80t128.5 51t146.5 18q114 0 211.5 -39t167.5 -110q37 -37 62 -70.5t42.5 -77.5t27.5 -85t15 -109t6.5 -132t1.5 -170t-1.5 -170 t-6.5 -132t-15 -109t-27.5 -85t-42.5 -77.5t-62 -70.5q-70 -71 -167.5 -110t-211.5 -39t-211.5 39t-168.5 110q-35 35 -59.5 67.5t-42 73t-27.5 80.5t-16 101t-7.5 121.5t-2.5 154.5h-363v-660q0 -41 -13 -61q-15 -22 -46.5 -22t-45.5 22q-14 21 -14 61zM841 780 q0 -110 2 -176t8.5 -132t20 -107.5t35 -80t55.5 -71.5q121 -121 296 -121t296 121q33 33 55 71.5t35.5 80t20 107.5t8.5 132t2 176q0 78 -1 129.5t-4 106.5t-8 91t-14 73.5t-22 64.5t-30.5 53t-41.5 50q-120 120 -296 120t-296 -120q-34 -33 -55.5 -71.5t-35 -80t-20 -108 t-8.5 -132.5t-2 -176z" />
<glyph unicode="&#x42f;" horiz-adv-x="1438" d="M144 47q0 18 20 54l328 577q-154 36 -246 148.5t-92 284.5q0 104 36 189.5t99 142t149.5 87t187.5 30.5h502q37 0 53 -16t16 -53v-1417q0 -41 -13 -61q-14 -22 -45.5 -22t-46.5 22q-12 20 -12 61v587h-459l-355 -619q-26 -51 -63 -51q-14 0 -30 9q-29 16 -29 47z M273 1111q0 -170 99 -257t267 -87h441v688h-441q-110 0 -191 -36.5t-128 -115t-47 -192.5z" />
<glyph unicode="&#x430;" horiz-adv-x="1148" d="M121 291q0 95 44.5 164t127 105t193.5 36h346v101q0 137 -67.5 205t-218.5 68q-92 0 -149.5 -24.5t-117.5 -84.5q-29 -29 -58 -29q-21 0 -35 14q-15 15 -15 37q0 47 101 115q56 38 121 54.5t153 16.5q198 0 299.5 -88.5t101.5 -257.5v-656q0 -35 -13 -54q-14 -22 -45 -22 q-29 0 -44 22q-13 19 -13 54v38q-66 -66 -138 -92t-184 -26q-118 0 -190 22t-122 74q-77 81 -77 208zM234 291q0 -104 68.5 -154.5t207.5 -50.5q87 0 150 15.5t114 65.5q58 56 58 201v135h-339q-128 0 -193.5 -54t-65.5 -158z" />
<glyph unicode="&#x431;" horiz-adv-x="1156" d="M165 636q0 111 0.5 177t2.5 143.5t5 120.5t10 93.5t16 79t23 61t31.5 55.5t41.5 47q45 45 114.5 76t151 46.5t155 21.5t151.5 6q39 0 54 -10q22 -17 22 -42t-22 -42q-15 -11 -54 -11q-371 0 -488 -117q-36 -36 -58.5 -81t-32.5 -105.5t-13 -115.5t-3 -140 q51 82 137.5 125t188.5 43q175 0 274 -97q138 -131 138 -441q0 -159 -30 -259.5t-99 -168.5q-54 -54 -129.5 -84t-159.5 -30q-157 0 -265 87t-141 237q-21 95 -21 325zM276 521q0 -135 24 -214t77 -134q41 -41 97.5 -64t117.5 -23q40 0 79.5 10.5t74 30t61.5 46.5 q51 54 72 131.5t21 216.5t-22 224t-71 136q-41 41 -98 64t-117.5 23t-117 -23t-97.5 -64q-51 -53 -76 -138.5t-25 -221.5z" />
<glyph unicode="&#x432;" horiz-adv-x="1173" d="M213 67v922q0 37 15 52t52 15h414q91 0 160.5 -33.5t108.5 -95t39 -143.5q0 -87 -48.5 -148t-133.5 -88q91 -29 145 -96.5t54 -164.5q0 -134 -84 -210.5t-230 -76.5h-425q-37 0 -52 15t-15 52zM326 96h355q105 0 164.5 54t59.5 145q0 94 -59.5 149.5t-163.5 55.5h-356 v-404zM326 592h345q103 0 159.5 49t56.5 137t-56 135t-160 47h-345v-368z" />
<glyph unicode="&#x433;" horiz-adv-x="920" d="M213 67v922q0 37 15 52t52 15h531q35 0 50 -11q20 -14 20 -39t-20 -40q-15 -10 -50 -10h-485v-889q0 -37 -11 -54q-15 -22 -45.5 -22t-44.5 22q-12 17 -12 54z" />
<glyph unicode="&#x434;" horiz-adv-x="1206" d="M55 33q0 37 16 53q15 15 52 15h61q35 50 59 97.5t47.5 122.5t35 182t11.5 246v240q0 36 16 52q15 15 53 15h491q37 0 52 -15t15 -52v-888h96q38 0 53 -15q16 -16 16 -53v-294q0 -35 -13 -55q-14 -21 -45 -21t-45 21q-12 18 -12 55v261h-845v-261q0 -35 -13 -55 q-14 -21 -44.5 -21t-45.5 21q-11 18 -11 55v294zM311 101h540v855h-406v-235q0 -245 -36 -390t-98 -230z" />
<glyph unicode="&#x435;" horiz-adv-x="1145" d="M151 529q0 259 113 399.5t313 140.5q130 0 225.5 -60.5t146 -172.5t50.5 -264q0 -38 -15 -53t-53 -15h-666q0 -201 88.5 -308.5t255.5 -107.5q148 0 244 83q25 23 37 30.5t26 7.5q20 0 35 -16t15 -36q0 -21 -22 -46t-43.5 -39.5t-45.5 -27.5q-98 -57 -253 -57 q-219 0 -335 139t-116 403zM265 598h622q-3 70 -10 108.5t-26 85.5q-33 82 -106.5 129t-167.5 47t-167.5 -47.5t-106.5 -128.5q-20 -48 -27 -87t-11 -107z" />
<glyph unicode="&#x436;" horiz-adv-x="1514" d="M92 40q0 24 28 55l408 466l-366 400q-28 31 -28 55q0 22 17 37q13 12 32 12q15 0 26.5 -7t30.5 -28l380 -433h80v392q0 35 13 54q14 22 44.5 22t44.5 -22q12 -17 12 -54v-392h82l378 433q13 15 22.5 22.5t17 10t17.5 2.5q19 0 32 -12q17 -15 17 -37q0 -25 -26 -55 l-366 -400l407 -466q27 -30 27 -55q0 -22 -17 -37q-14 -12 -32 -12q-15 0 -26.5 7t-30.5 29l-419 478h-83v-438q0 -37 -12 -54q-14 -22 -44.5 -22t-44.5 22q-13 19 -13 54v438h-83l-419 -478q-19 -22 -30.5 -29t-26.5 -7q-18 0 -32 12q-17 15 -17 37z" />
<glyph unicode="&#x437;" horiz-adv-x="1044" d="M119 149q0 20 14 35q14 16 37 16q24 0 55 -26q38 -31 78 -50t85 -27.5t101 -8.5q131 0 211 54t80 151q0 65 -31.5 111t-85.5 68t-126 22h-97q-34 0 -47 10q-21 15 -21 38.5t21 38.5q13 10 47 10h101q99 0 159.5 50t60.5 141q0 90 -71 139t-198 49q-75 0 -127 -15.5 t-97 -49.5q-37 -27 -57 -27q-25 0 -40 18q-14 15 -14 33q0 28 40 56q113 84 295 84q111 0 196 -33t133.5 -98t48.5 -154q0 -55 -20 -102t-60.5 -83t-97.5 -53q90 -25 142.5 -93.5t52.5 -161.5q0 -139 -107.5 -220.5t-290.5 -81.5q-109 0 -185.5 22t-146.5 78q-38 31 -38 60z " />
<glyph unicode="&#x438;" horiz-adv-x="1243" d="M213 74v915q0 37 12 54q14 22 44.5 22t45.5 -22q11 -17 11 -54v-823l563 844q35 55 75 55q29 0 46 -17q21 -22 21 -65v-916q0 -35 -12 -54q-15 -22 -45.5 -22t-44.5 22q-12 17 -12 54v824l-563 -845q-35 -55 -75 -55q-29 0 -46 18q-20 20 -20 65z" />
<glyph unicode="&#x439;" horiz-adv-x="1243" d="M213 74v915q0 37 12 54q14 22 44.5 22t45.5 -22q11 -17 11 -54v-823l563 844q35 55 75 55q29 0 46 -17q21 -22 21 -65v-916q0 -35 -12 -54q-15 -22 -45.5 -22t-44.5 22q-12 17 -12 54v824l-563 -845q-35 -55 -75 -55q-29 0 -46 18q-20 20 -20 65zM327 1451 q-3 24 14.5 41.5t41.5 14.5q19 -4 44 -28q21 -22 40 -37t43 -29t51 -21t56 -7q57 0 101 24.5t89 69.5q24 24 44 28q24 3 41.5 -14.5t13.5 -41.5q-3 -19 -28 -44q-120 -121 -261 -121t-262 121q-24 25 -28 44z" />
<glyph unicode="&#x43a;" horiz-adv-x="1033" d="M213 67v922q0 37 12 54q14 22 44.5 22t45.5 -22q11 -17 11 -54v-392h89l379 433q18 21 30 28t28 7q17 0 31 -12q18 -16 18 -37q0 -24 -28 -55l-366 -400l408 -466q28 -31 28 -55q0 -21 -19 -37q-13 -12 -31 -12q-10 0 -18 3t-17.5 10.5t-21.5 22.5l-420 478h-90v-438 q0 -37 -11 -54q-15 -22 -45.5 -22t-44.5 22q-12 17 -12 54z" />
<glyph unicode="&#x43b;" horiz-adv-x="1173" d="M40 50q0 25 19 40q11 8 46 10q28 2 52 11t50 29.5t45.5 57t36 88.5t25 130.5t8.5 177.5v395q0 37 15 52t54 15h504q37 0 52 -15t15 -52v-922q0 -37 -12 -54q-14 -22 -44.5 -22t-45.5 22q-11 17 -11 54v889h-418v-404q0 -124 -16.5 -219.5t-45 -158t-71 -102t-91 -56 t-107.5 -16.5q-27 0 -41 11q-19 14 -19 39z" />
<glyph unicode="&#x43c;" horiz-adv-x="1424" d="M213 67v917q0 42 21 64q17 17 43 17q27 0 44 -15.5t31 -44.5l361 -711l359 711q10 19 19 31t23.5 20.5t32.5 8.5q26 0 43 -17q22 -23 22 -64v-917q0 -35 -13 -54q-14 -22 -44.5 -22t-44.5 22q-12 17 -12 54v776l-304 -588q-18 -37 -35 -53.5t-46 -16.5q-30 0 -48 17 t-36 53l-303 588v-776q0 -37 -11 -54q-15 -22 -45.5 -22t-44.5 22q-12 17 -12 54z" />
<glyph unicode="&#x43d;" horiz-adv-x="1228" d="M213 67v922q0 37 12 54q14 22 44.5 22t45.5 -22q11 -17 11 -54v-393h577v393q0 37 12 54q14 22 44.5 22t45.5 -22q11 -17 11 -54v-922q0 -37 -11 -54q-15 -22 -45.5 -22t-44.5 22q-12 17 -12 54v428h-577v-428q0 -37 -11 -54q-15 -22 -45.5 -22t-44.5 22q-12 17 -12 54z " />
<glyph unicode="&#x43e;" horiz-adv-x="1156" d="M151 529q0 50 2.5 91t11 89.5t23 88.5t39 81t58.5 74q115 116 294 116q177 0 293 -116q42 -41 69.5 -92t41 -108.5t18.5 -109t5 -114.5q0 -51 -3 -92t-11.5 -89.5t-22.5 -89t-38.5 -81.5t-58.5 -74q-116 -116 -293 -116q-179 0 -294 116q-42 41 -70 92t-41 108.5 t-18 109.5t-5 116zM265 529q0 -43 2 -78t8 -76.5t16.5 -75t28.5 -66t42 -56.5q88 -89 217 -89q127 0 216 89q57 56 77 146.5t20 205.5q0 114 -20 204t-77 147q-89 88 -216 88q-129 0 -217 -88q-30 -30 -50 -71.5t-30 -90t-13.5 -92.5t-3.5 -97z" />
<glyph unicode="&#x43f;" horiz-adv-x="1228" d="M213 67v922q0 37 15 52t52 15h669q38 0 52.5 -15t14.5 -52v-922q0 -37 -11 -54q-15 -22 -45.5 -22t-44.5 22q-12 17 -12 54v889h-577v-889q0 -37 -11 -54q-15 -22 -45.5 -22t-44.5 22q-12 17 -12 54z" />
<glyph unicode="&#x440;" horiz-adv-x="1187" d="M213 -437v1426q0 37 12 54q14 22 44.5 22t45.5 -22q11 -17 11 -54v-69q34 45 71 75t77 46t79 22t87 6q80 0 148.5 -25t110.5 -67q138 -138 138 -448q0 -312 -138 -450q-42 -42 -110.5 -67t-148.5 -25q-100 0 -174.5 31.5t-139.5 117.5v-573q0 -36 -11 -54 q-15 -22 -45.5 -22t-44.5 22q-12 18 -12 54zM326 528.5q0 -51.5 3 -94t11.5 -89t22 -83t36.5 -70t53.5 -56t74.5 -35.5t98 -13t98 13t74.5 35.5t53 56t36 70t22 83t11 89t2.5 94t-2.5 94t-11 89t-22 82.5t-36 70t-53 56t-74.5 35t-98 13t-98 -13t-74.5 -35t-53.5 -56 t-36.5 -70t-22 -82.5t-11.5 -89t-3 -94z" />
<glyph unicode="&#x441;" horiz-adv-x="1076" d="M151 528.5q0 252.5 123 396.5t340 144q86 0 152.5 -24.5t124.5 -75.5q32 -27 44 -44t12 -37q0 -19 -18 -35q-16 -14 -34 -14q-15 0 -28.5 8.5t-41.5 33.5q-56 48 -103.5 67.5t-107.5 19.5q-182 0 -277 -138q-39 -57 -55.5 -125.5t-16.5 -175.5q0 -73 7 -126t23 -95.5 t42 -81.5q95 -138 277 -138q60 0 107.5 19.5t103.5 67.5q28 25 41.5 33.5t28.5 8.5q18 0 34 -14q18 -16 18 -35q0 -20 -12 -37t-44 -44q-58 -51 -124.5 -75.5t-152.5 -24.5q-217 0 -340 144.5t-123 397z" />
<glyph unicode="&#x442;" horiz-adv-x="948" d="M40 1006q0 25 19 39q15 11 50 11h730q35 0 50 -11q21 -15 21 -39.5t-21 -39.5q-15 -10 -50 -10h-307v-889q0 -35 -13 -54q-14 -22 -45 -22t-45 22q-12 17 -12 54v889h-308q-35 0 -50 10q-19 15 -19 40z" />
<glyph unicode="&#x443;" horiz-adv-x="941" d="M72 1030q12 35 51 35q15 0 26.5 -7t19 -19t13.5 -31l289 -869l290 869q9 29 22.5 43t36.5 14q38 0 51 -35q7 -19 -5 -57l-438 -1260q-28 -83 -72 -124q-72 -66 -186 -66q-36 0 -52 10q-21 14 -21 40t21 40q14 10 46 10q67 0 108 32t67 111l78 234l-340 973q-12 38 -5 57z " />
<glyph unicode="&#x444;" horiz-adv-x="1483" d="M140 528.5q0 255.5 141.5 392.5t403.5 148v424q0 37 12 54q14 22 44.5 22t44.5 -22q12 -17 12 -54v-424q262 -11 403.5 -148t141.5 -392.5t-141.5 -392.5t-403.5 -149v-424q0 -36 -12 -54q-14 -22 -44.5 -22t-44.5 22q-12 18 -12 54v424q-262 12 -403.5 149t-141.5 392.5 zM255 528.5q0 -200.5 109.5 -319.5t320.5 -126v890q-211 -7 -320.5 -125.5t-109.5 -319zM798 83q142 5 240 62.5t144.5 154.5t46.5 229q0 199 -109.5 318t-321.5 126v-890z" />
<glyph unicode="&#x445;" horiz-adv-x="945" d="M105 47q0 17 20 49l273 433l-272 431q-20 32 -20 49q0 29 28 47q13 9 30 9q12 0 22 -5t18.5 -14.5t18.5 -25.5l250 -413l251 413q14 24 27.5 34.5t31.5 10.5q17 0 30 -9q27 -17 27 -47q0 -19 -19 -49l-272 -431l273 -433q19 -30 19 -49q0 -30 -27 -47q-13 -9 -30 -9 q-18 0 -31.5 11t-27.5 34l-252 412l-252 -412q-14 -23 -27 -34t-31 -11q-17 0 -30 9q-28 18 -28 47z" />
<glyph unicode="&#x446;" horiz-adv-x="1257" d="M213 67v922q0 37 12 54q14 22 44.5 22t45.5 -22q11 -17 11 -54v-888h577v888q0 37 12 54q14 22 44.5 22t45.5 -22q11 -17 11 -54v-888h95q37 0 52 -15q16 -16 16 -53v-294q0 -37 -12 -55q-14 -21 -44.5 -21t-45.5 21q-12 20 -12 55v261h-785q-37 0 -52 15t-15 52z" />
<glyph unicode="&#x447;" horiz-adv-x="1153" d="M162 688v301q0 37 11 54q15 22 45.5 22t44.5 -22q12 -17 12 -54v-290q0 -115 57 -163.5t164 -48.5q138 0 331 39v463q0 37 12 54q14 22 44.5 22t45.5 -22q13 -19 13 -54v-922q0 -35 -13 -54q-15 -22 -45.5 -22t-44.5 22q-12 17 -12 54v360q-224 -46 -351 -46 q-314 0 -314 307z" />
<glyph unicode="&#x448;" horiz-adv-x="1739" d="M213 67v922q0 37 12 54q14 22 44.5 22t45.5 -22q11 -17 11 -54v-888h487v888q0 37 12 54q14 22 45 22t45 -22q12 -17 12 -54v-888h486v888q0 37 12 54q15 22 45.5 22t44.5 -22q12 -17 12 -54v-922q0 -37 -15 -52t-53 -15h-1179q-37 0 -52 15t-15 52z" />
<glyph unicode="&#x449;" horiz-adv-x="1771" d="M213 67v922q0 37 12 54q14 22 44.5 22t45.5 -22q11 -17 11 -54v-888h487v888q0 37 12 54q14 22 45 22t45 -22q12 -17 12 -54v-888h486v888q0 37 12 54q15 22 45.5 22t44.5 -22q12 -17 12 -54v-888h99q38 0 53 -15t15 -53v-294q0 -37 -12 -55q-14 -21 -45 -21t-45 21 q-12 18 -12 55v261h-1300q-37 0 -52 15t-15 52z" />
<glyph unicode="&#x44a;" horiz-adv-x="1215" d="M40 1006q0 25 19 39q15 11 50 11h272q38 0 53 -15t15 -52v-366h353q148 0 237.5 -85t89.5 -226.5t-89.5 -226.5t-237.5 -85h-399q-37 0 -52 15q-16 16 -16 52v889h-226q-35 0 -50 10q-19 15 -19 40zM449 101h335q232 0 232 210t-232 210h-335v-420z" />
<glyph unicode="&#x44b;" horiz-adv-x="1511" d="M213 67v922q0 37 12 54q14 22 44.5 22t45.5 -22q11 -17 11 -54v-366h353q148 0 237.5 -85t89.5 -226.5t-89.5 -226.5t-237.5 -85h-399q-37 0 -52 15t-15 52zM326 101h335q234 0 234 210t-234 210h-335v-420zM1186 67v922q0 37 11 54q15 22 45.5 22t44.5 -22 q12 -17 12 -54v-922q0 -37 -12 -54q-14 -22 -44.5 -22t-45.5 22q-11 17 -11 54z" />
<glyph unicode="&#x44c;" horiz-adv-x="1092" d="M213 67v922q0 37 12 54q14 22 44.5 22t45.5 -22q11 -17 11 -54v-366h353q148 0 237.5 -85t89.5 -226.5t-89.5 -226.5t-237.5 -85h-399q-37 0 -52 15t-15 52zM326 101h335q234 0 234 210t-234 210h-335v-420z" />
<glyph unicode="&#x44d;" horiz-adv-x="1076" d="M131 168q0 20 17 35q15 14 35 14q14 0 27.5 -8.5t42.5 -33.5q55 -48 102 -67.5t107 -19.5q183 0 277 138q37 54 54 117t19 156h-421q-37 0 -52 10q-19 15 -19 40t19 39q15 11 52 11h419q-7 138 -71 231q-94 138 -277 138q-60 0 -107 -19.5t-102 -67.5 q-29 -25 -42.5 -33.5t-27.5 -8.5q-20 0 -35 14q-17 15 -17 35q0 14 5.5 26t17 24.5t32.5 30.5q59 51 125 75.5t151 24.5q218 0 341 -144t123 -396.5t-123 -397t-341 -144.5q-85 0 -151 24.5t-125 75.5q-32 27 -43.5 44t-11.5 37z" />
<glyph unicode="&#x44e;" horiz-adv-x="1563" d="M213 67v922q0 37 12 54q14 22 44.5 22t45.5 -22q11 -17 11 -54v-396h233q5 111 34.5 201.5t97.5 158.5q116 116 294 116t294 -116q41 -41 69 -92t41.5 -108.5t18 -109t4.5 -115t-4.5 -115.5t-18 -109.5t-41.5 -108.5t-69 -92q-116 -116 -294 -116t-294 116 q-50 49 -80.5 117t-41 131t-12.5 141h-231v-425q0 -37 -11 -54q-15 -22 -45.5 -22t-44.5 22q-12 17 -12 54zM672 528.5q0 -53.5 3.5 -97.5t13 -93t29.5 -90.5t50 -70.5q89 -89 217 -89t217 89q30 29 50 70.5t29.5 90.5t13 93t3.5 97.5t-3.5 97.5t-13 92.5t-29.5 90t-50 71.5 q-89 88 -217 88t-217 -88q-30 -30 -50 -71.5t-29.5 -90t-13 -92.5t-3.5 -97.5z" />
<glyph unicode="&#x44f;" horiz-adv-x="1158" d="M135 47q0 19 19 49l220 347q-51 14 -92.5 41.5t-70.5 65.5t-44.5 88t-15.5 107q0 141 89 226t237 85h404q37 0 52 -15q16 -16 16 -52v-922q0 -37 -12 -54q-14 -22 -44.5 -22t-45.5 22q-12 19 -12 54v362h-343l-242 -393q-14 -23 -27 -34t-31 -11q-17 0 -29 9 q-28 18 -28 47zM265 743q0 -68 27.5 -117.5t79 -76t120.5 -26.5h343v437h-335q-75 0 -128 -25.5t-80 -74t-27 -117.5z" />
<glyph unicode="&#x450;" horiz-adv-x="1145" d="M151 529q0 259 113 399.5t313 140.5q130 0 225.5 -60.5t146 -172.5t50.5 -264q0 -38 -15 -53t-53 -15h-666q0 -201 88.5 -308.5t255.5 -107.5q148 0 244 83q25 23 37 30.5t26 7.5q20 0 35 -16t15 -36q0 -21 -22 -46t-43.5 -39.5t-45.5 -27.5q-98 -57 -253 -57 q-219 0 -335 139t-116 403zM265 598h622q-3 70 -10 108.5t-26 85.5q-33 82 -106.5 129t-167.5 47t-167.5 -47.5t-106.5 -128.5q-20 -48 -27 -87t-11 -107zM379 1568q0 29 28 47q14 9 30 9q15 0 31 -12q15 -12 27 -33l118 -190q20 -32 20 -49q0 -29 -27 -47q-13 -9 -29 -9 q-19 0 -32 11q-12 9 -28 34l-118 189q-20 33 -20 50z" />
<glyph unicode="&#x451;" horiz-adv-x="1145" d="M151 529q0 259 113 399.5t313 140.5q130 0 225.5 -60.5t146 -172.5t50.5 -264q0 -38 -15 -53t-53 -15h-666q0 -201 88.5 -308.5t255.5 -107.5q148 0 244 83q25 23 37 30.5t26 7.5q20 0 35 -16t15 -36q0 -21 -22 -46t-43.5 -39.5t-45.5 -27.5q-98 -57 -253 -57 q-219 0 -335 139t-116 403zM265 598h622q-3 70 -10 108.5t-26 85.5q-33 82 -106.5 129t-167.5 47t-167.5 -47.5t-106.5 -128.5q-20 -48 -27 -87t-11 -107zM268 1396q0 17 6 32t17 25.5t26 17t32 6.5q34 0 57 -23.5t23 -57t-23.5 -57.5t-57 -24t-57 24t-23.5 57zM723 1396.5 q0 33.5 24 57t57.5 23.5t57 -23.5t23.5 -57.5q0 -13 -4 -25.5t-11.5 -22.5t-17 -17.5t-22 -11.5t-25.5 -4q-34 0 -58 24t-24 57.5z" />
<glyph unicode="&#x452;" horiz-adv-x="1228" d="M65 1302q0 21 17 33q13 10 45 10h86v148q0 37 12 54q14 22 44.5 22t45.5 -22q11 -17 11 -54v-148h504q33 0 45 -10q17 -12 17 -33q0 -22 -17 -34q-12 -10 -45 -10h-504v-327q119 138 312 138q178 0 282 -101q110 -103 110 -293v-861q0 -66 -18.5 -123t-54.5 -101t-94 -69 t-131 -25h-35q-35 0 -51 11q-19 14 -19 39t19 40q16 11 51 11h16q95 0 149 60.5t54 158.5v837q0 153 -74.5 234t-216.5 81q-95 0 -162 -36.5t-102 -107.5t-35 -171v-586q0 -37 -11 -54q-15 -22 -45.5 -22t-44.5 22q-12 17 -12 54v1191h-86q-32 0 -45 10q-17 12 -17 34z" />
<glyph unicode="&#x453;" horiz-adv-x="920" d="M213 67v922q0 37 15 52t52 15h531q35 0 50 -11q20 -14 20 -39t-20 -40q-15 -10 -50 -10h-485v-889q0 -37 -11 -54q-15 -22 -45.5 -22t-44.5 22q-12 17 -12 54zM445 1345q0 20 19 50l119 190q13 22 27 33q15 12 32 12q16 0 30 -10q27 -17 27 -47q0 -19 -20 -49l-118 -190 q-18 -27 -27 -34q-14 -11 -32 -11q-17 0 -30 9q-27 17 -27 47z" />
<glyph unicode="&#x454;" horiz-adv-x="1076" d="M151 528.5q0 252.5 123 396.5t340 144q86 0 152.5 -24.5t124.5 -75.5q32 -27 44 -44t12 -37q0 -19 -18 -35q-16 -14 -34 -14q-15 0 -28.5 8.5t-41.5 33.5q-56 48 -103.5 67.5t-107.5 19.5q-182 0 -277 -138q-22 -31 -36.5 -65.5t-22.5 -74.5t-12 -91h437q36 0 51 -11 q20 -14 20 -39t-20 -40q-15 -10 -51 -10h-438q2 -94 18.5 -156.5t53.5 -116.5q95 -138 277 -138q60 0 107.5 19.5t103.5 67.5q28 25 41.5 33.5t28.5 8.5q18 0 34 -14q18 -16 18 -35q0 -20 -12 -37t-44 -44q-58 -51 -124.5 -75.5t-152.5 -24.5q-217 0 -340 144.5t-123 397z " />
<glyph unicode="&#x455;" horiz-adv-x="1081" d="M121 151q0 22 17 39q13 13 35 13q24 0 63 -30q116 -85 297 -85q156 0 237 53.5t81 159.5q0 54 -22.5 91t-67 57.5t-113.5 26.5l-175 16q-318 27 -318 277q0 137 103.5 218.5t276.5 81.5q171 0 304 -72q29 -15 39 -33q7 -11 7 -26q0 -12 -11 -26q-16 -20 -39 -20 q-17 0 -53 20q-108 58 -247 58q-130 0 -200 -52t-70 -149q0 -81 52 -124t163 -52l171 -15q56 -5 99.5 -15t84 -30t67 -50t42.5 -76t16 -106q0 -145 -114.5 -229.5t-308.5 -84.5q-221 0 -370 103q-46 30 -46 61z" />
<glyph unicode="&#x456;" horiz-adv-x="538" d="M188 1493q0 33 24 56.5t57.5 23.5t57.5 -23.5t24 -57t-24 -57.5t-57 -24q-17 0 -32 6.5t-26 17.5t-17.5 26t-6.5 32zM213 67v922q0 37 12 54q14 22 44.5 22t45.5 -22q11 -17 11 -54v-922q0 -37 -11 -54q-15 -22 -45.5 -22t-44.5 22q-12 17 -12 54z" />
<glyph unicode="&#x457;" horiz-adv-x="538" d="M-12 1396.5q0 33.5 24 57t57.5 23.5t57 -23.5t23.5 -57.5q0 -16 -6.5 -31t-17 -26t-25.5 -17.5t-31 -6.5q-34 0 -58 24t-24 57.5zM213 67v922q0 37 12 54q14 22 44.5 22t45.5 -22q11 -17 11 -54v-922q0 -37 -11 -54q-15 -22 -45.5 -22t-44.5 22q-12 17 -12 54zM389 1396 q0 34 23.5 57.5t57.5 23.5t57.5 -23.5t23.5 -57t-24 -57.5t-57 -24q-22 0 -40.5 11t-29.5 29.5t-11 40.5z" />
<glyph unicode="&#x458;" horiz-adv-x="538" d="M-35 -453.5q0 24.5 20 39.5q15 11 50 11h17q54 0 90.5 21t53.5 60t17 94v1217q0 37 12 54q14 22 44.5 22t45.5 -22q11 -17 11 -54v-1217q0 -124 -65.5 -200t-187.5 -76h-33q-40 0 -55 11q-20 15 -20 39.5zM188 1493q0 33 24 56.5t57.5 23.5t57.5 -23.5t24 -57t-24 -57.5 t-57 -24q-17 0 -32 6.5t-26 17.5t-17.5 26t-6.5 32z" />
<glyph unicode="&#x459;" horiz-adv-x="1750" d="M40 50q0 25 19 40q11 8 46 10q28 2 52 11t50 29.5t45.5 57t36 88.5t25 130.5t8.5 177.5v395q0 37 15 52t54 15h525q37 0 52 -15q16 -16 16 -52v-366h352q148 0 237.5 -85t89.5 -226.5t-89.5 -226.5t-237.5 -85h-398q-38 0 -53 15t-15 52v889h-439v-404q0 -435 -201 -525 q-58 -27 -130 -27q-27 0 -41 11q-19 14 -19 39zM984 101h335q233 0 233 210t-233 210h-335v-420z" />
<glyph unicode="&#x45a;" horiz-adv-x="1778" d="M213 67v922q0 37 12 54q14 22 44.5 22t45.5 -22q11 -17 11 -54v-366h573v366q0 37 12 54q14 22 44.5 22t44.5 -22q12 -17 12 -54v-366h353q148 0 237.5 -85t89.5 -226.5t-89.5 -226.5t-237.5 -85h-399q-37 0 -52 15t-15 52v454h-573v-454q0 -37 -11 -54 q-15 -22 -45.5 -22t-44.5 22q-12 17 -12 54zM1012 101h336q232 0 232 210t-232 210h-336v-420z" />
<glyph unicode="&#x45b;" horiz-adv-x="1228" d="M65 1302q0 21 17 33q13 10 45 10h86v148q0 37 12 54q14 22 44.5 22t45.5 -22q11 -17 11 -54v-148h504q33 0 45 -10q17 -12 17 -33q0 -22 -17 -34q-12 -10 -45 -10h-504v-327q119 138 312 138q178 0 282 -101q110 -103 110 -293v-608q0 -35 -12 -54q-15 -22 -45.5 -22 t-44.5 22q-12 17 -12 54v586q0 153 -74.5 234t-216.5 81q-95 0 -162 -36.5t-102 -107.5t-35 -171v-586q0 -37 -11 -54q-15 -22 -45.5 -22t-44.5 22q-12 17 -12 54v1191h-86q-32 0 -45 10q-17 12 -17 34z" />
<glyph unicode="&#x45c;" horiz-adv-x="1033" d="M213 67v922q0 37 12 54q14 22 44.5 22t45.5 -22q11 -17 11 -54v-392h89l379 433q18 21 30 28t28 7q17 0 31 -12q18 -16 18 -37q0 -24 -28 -55l-366 -400l408 -466q28 -31 28 -55q0 -21 -19 -37q-13 -12 -31 -12q-10 0 -18 3t-17.5 10.5t-21.5 22.5l-420 478h-90v-438 q0 -37 -11 -54q-15 -22 -45.5 -22t-44.5 22q-12 17 -12 54zM501 1345q0 20 19 50l119 190q12 21 28 33q15 12 31 12q15 0 30 -10q27 -18 27 -47q0 -17 -20 -49l-118 -190q-16 -25 -27 -34q-14 -11 -33 -11q-16 0 -28 9q-28 18 -28 47z" />
<glyph unicode="&#x45d;" horiz-adv-x="1243" d="M213 74v915q0 37 12 54q14 22 44.5 22t45.5 -22q11 -17 11 -54v-823l563 844q35 55 75 55q29 0 46 -17q21 -22 21 -65v-916q0 -35 -12 -54q-15 -22 -45.5 -22t-44.5 22q-12 17 -12 54v824l-563 -845q-35 -55 -75 -55q-29 0 -46 18q-20 20 -20 65zM419 1568q0 29 28 47 q15 9 29 9q17 0 32 -12q16 -12 28 -33l118 -190q20 -32 20 -49q0 -29 -28 -47q-13 -9 -29 -9q-18 0 -32 11q-11 9 -28 34l-117 189q-21 33 -21 50z" />
<glyph unicode="&#x45e;" horiz-adv-x="941" d="M72 1030q12 35 51 35q15 0 26.5 -7t19 -19t13.5 -31l289 -869l290 869q9 29 22.5 43t36.5 14q38 0 51 -35q7 -19 -5 -57l-438 -1260q-28 -83 -72 -124q-72 -66 -186 -66q-36 0 -52 10q-21 14 -21 40t21 40q14 10 46 10q67 0 108 32t67 111l78 234l-340 973q-12 38 -5 57z M182 1451q-3 24 14 41.5t42 14.5q19 -4 43 -28q46 -45 89.5 -69.5t100 -24.5t100.5 24.5t89 69.5q25 24 44 28q25 3 42 -14q18 -18 15 -42q-3 -19 -28 -44q-121 -121 -262 -121q-140 0 -261 121q-25 25 -28 44z" />
<glyph unicode="&#x45f;" horiz-adv-x="1228" d="M213 67v922q0 37 12 54q14 22 44.5 22t45.5 -22q11 -17 11 -54v-888h577v888q0 37 12 54q14 22 44.5 22t45.5 -22q11 -17 11 -54v-922q0 -37 -14.5 -52t-52.5 -15h-277v-261q0 -35 -13 -55q-14 -21 -44.5 -21t-45.5 21q-12 18 -12 55v261h-277q-37 0 -52 15t-15 52z" />
<glyph unicode="&#x462;" horiz-adv-x="1410" d="M79 1271q0 25 19 40q16 10 51 10h116v166q0 40 13 60q15 22 46 22t46 -22q13 -20 13 -60v-166h327q35 0 51 -10q19 -15 19 -40t-19 -39q-16 -11 -51 -11h-327v-322h458q136 0 242 -52.5t168 -155.5t62 -242t-62 -242t-168 -155t-242 -52h-506q-38 0 -54 16t-16 55v1150 h-116q-35 0 -51 11q-19 14 -19 39zM383 105h445q168 0 267 87t99 257t-99 257t-267 87h-445v-688z" />
<glyph unicode="&#x463;" horiz-adv-x="1215" d="M40 1006q0 25 19 39q15 11 50 11h226v437q0 35 13 54q14 22 44.5 22t45.5 -22q11 -17 11 -54v-437h270q35 0 50 -11q20 -14 20 -39t-20 -40q-15 -10 -50 -10h-270v-333h353q148 0 237.5 -85t89.5 -226.5t-89.5 -226.5t-237.5 -85h-399q-37 0 -52 15q-16 16 -16 52v889 h-226q-35 0 -50 10q-19 15 -19 40zM449 101h335q232 0 232 210t-232 210h-335v-420z" />
<glyph unicode="&#x472;" horiz-adv-x="1428" d="M180 780q0 106 1.5 170t6.5 132t15 109t27.5 85t42.5 77.5t62 70.5q70 71 168 110t212 39t211 -39t168 -110q36 -37 61 -70.5t43 -77.5t27.5 -85t15 -109t7 -132t1.5 -170t-1.5 -170t-7 -132t-15 -109t-27.5 -85t-43 -77.5t-61 -70.5q-71 -71 -168 -110t-211 -39t-212 39 t-168 110q-37 37 -62 70.5t-42.5 77.5t-27.5 85t-15 109t-6.5 132t-1.5 170zM299 734q0 -97 2.5 -158.5t9 -120.5t20 -98.5t34.5 -75.5t53 -68q121 -121 297 -121q174 0 295 121q40 40 63.5 83t36.5 108.5t17 137t4 192.5h-832zM299 839h832q-1 225 -23.5 329.5t-97.5 179.5 q-120 120 -295 120q-177 0 -297 -120q-39 -39 -62.5 -82t-36 -107t-16.5 -133.5t-4 -186.5z" />
<glyph unicode="&#x473;" horiz-adv-x="1156" d="M151 529q0 50 2.5 91t11 89.5t23 88.5t39 81t58.5 74q115 116 294 116q177 0 293 -116q42 -41 69.5 -92t41 -108.5t18.5 -109t5 -114.5q0 -51 -3 -92t-11.5 -89.5t-22.5 -89t-38.5 -81.5t-58.5 -74q-116 -116 -293 -116q-179 0 -294 116q-42 41 -70 92t-41 108.5 t-18 109.5t-5 116zM265 495q5 -228 97 -318q88 -89 217 -89q127 0 216 89q93 93 97 318h-627zM266 592h623q-8 201 -94 288q-89 88 -216 88q-129 0 -217 -88t-96 -288z" />
<glyph unicode="&#x474;" horiz-adv-x="1169" d="M42 1531q5 17 20 27.5t34 10.5q21 0 35 -11q14 -12 25 -47l429 -1309l428 1309q11 34 27 47q14 11 34 11t35 -10.5t20 -27.5q5 -19 -7 -57l-470 -1413q-14 -40 -26 -52q-17 -18 -40.5 -18t-40.5 18q-14 13 -27 52l-470 1413q-12 38 -6 57z" />
<glyph unicode="&#x475;" horiz-adv-x="941" d="M72 1030q12 35 51 35q15 0 26.5 -7t19 -19t13.5 -31l289 -869l290 869q9 29 22.5 43t36.5 14q38 0 51 -35q7 -19 -5 -57l-315 -906q-14 -44 -37 -62q-17 -14 -43 -14t-43 14q-22 17 -36 62l-315 906q-12 38 -5 57z" />
<glyph unicode="&#x490;" horiz-adv-x="1221" d="M241 74v1417q0 36 17 53q16 16 53 16h737v300q0 40 12 60q16 22 46.5 22t45.5 -22q14 -22 14 -60v-335q0 -37 -17 -54q-16 -16 -53 -16h-736v-1381q0 -41 -13 -61q-15 -22 -46.5 -22t-45.5 22q-14 21 -14 61z" />
<glyph unicode="&#x491;" horiz-adv-x="921" d="M213 67v922q0 37 15 52t52 15h488v283q0 38 12 55q14 22 45 22t45 -22q12 -17 12 -55v-316q0 -38 -15 -52.5t-53 -14.5h-488v-889q0 -37 -11 -54q-15 -22 -45.5 -22t-44.5 22q-12 17 -12 54z" />
<glyph unicode="&#x492;" horiz-adv-x="1255" d="M79 786.5q0 25.5 19 39.5q16 11 51 11h116v654q0 37 16 53t54 16h789q39 0 54 -11q20 -15 20 -41t-20 -42q-15 -11 -54 -11h-741v-618h327q35 0 51 -11q19 -14 19 -39.5t-19 -39.5q-16 -11 -51 -11h-327v-662q0 -41 -13 -61q-15 -22 -46 -22t-46 22q-13 20 -13 61v662 h-116q-35 0 -51 11q-19 14 -19 39.5z" />
<glyph unicode="&#x493;" horiz-adv-x="943" d="M89 545.5q0 22.5 16 34.5q12 10 45 10h86v399q0 36 17 52q15 15 52 15h530q35 0 50 -11q20 -15 20 -39.5t-20 -39.5q-15 -10 -50 -10h-484v-366h246q33 0 45 -10q16 -12 16 -34.5t-16 -34.5q-12 -9 -45 -9h-246v-435q0 -35 -13 -54q-14 -22 -44.5 -22t-45.5 22 q-12 17 -12 54v435h-86q-33 0 -45 9q-16 12 -16 34.5z" />
<glyph unicode="&#x496;" horiz-adv-x="2068" d="M100 50q1 18 26 51l587 720l-533 638q-26 34 -27 51q-2 25 21 45q16 14 38 14q28 0 56 -36l552 -673h100v627q0 40 13 60q15 22 46 22t46 -22q14 -21 14 -60v-627h101l553 673q27 36 55 36q22 0 38 -14q23 -20 21 -45q-1 -17 -27 -51l-532 -638l582 -716h81 q37 0 53.5 -16t16.5 -54v-356q0 -40 -13 -60q-16 -22 -46.5 -22t-45.5 22q-13 20 -13 60v321h-69q-27 0 -55 36l-593 723h-107v-685q0 -40 -14 -61q-15 -22 -46 -22t-46 22q-13 20 -13 61v685h-107l-599 -731q-29 -37 -57 -37q-21 0 -36 14q-23 20 -21 45z" />
<glyph unicode="&#x497;" horiz-adv-x="1606" d="M92 40q0 24 28 55l408 466l-366 400q-28 31 -28 55q0 22 17 37q13 12 32 12q15 0 26.5 -7t30.5 -28l380 -433h80v392q0 35 13 54q14 22 44.5 22t44.5 -22q12 -17 12 -54v-392h82l378 433q13 15 22.5 22.5t17 10t17.5 2.5q19 0 32 -12q17 -15 17 -37q0 -25 -26 -55 l-366 -400l401 -460h70q38 0 53 -15t15 -53v-294q0 -37 -12 -55q-14 -21 -44.5 -21t-45.5 21q-12 18 -12 55v261h-48q-14 0 -25.5 7t-30.5 28l-412 470h-83v-438q0 -37 -12 -54q-14 -22 -44.5 -22t-44.5 22q-13 19 -13 54v438h-83l-419 -478q-19 -22 -30.5 -29t-26.5 -7 q-18 0 -32 12q-17 15 -17 37z" />
<glyph unicode="&#x49a;" horiz-adv-x="1405" d="M241 74v1413q0 39 14 60q14 22 45.5 22t46.5 -22q13 -20 13 -60v-627h116l554 673q28 36 56 36q22 0 38 -14q21 -19 20 -45q-1 -17 -27 -51l-532 -638l583 -716h81q38 0 54 -16t16 -54v-356q0 -40 -13 -60q-15 -22 -45.5 -22t-46.5 22q-13 22 -13 60v321h-68 q-27 0 -56 36l-591 719h-126v-681q0 -41 -13 -61q-15 -22 -46.5 -22t-45.5 22q-14 21 -14 61z" />
<glyph unicode="&#x49b;" d="M213 67v922q0 37 12 54q14 22 44.5 22t45.5 -22q11 -17 11 -54v-392h89l379 433q18 21 30 28t28 7q17 0 31 -12q18 -16 18 -37q0 -24 -28 -55l-366 -400l404 -460h68q39 0 54 -15t15 -53v-294q0 -37 -12 -55q-15 -21 -45.5 -21t-44.5 21q-13 20 -13 55v261h-48 q-15 0 -26.5 7t-30.5 28l-412 470h-90v-438q0 -37 -11 -54q-15 -22 -45.5 -22t-44.5 22q-12 17 -12 54z" />
<glyph unicode="&#x49c;" horiz-adv-x="1399" d="M241 74v1413q0 39 14 60q14 22 45.5 22t46.5 -22q13 -20 13 -60v-627h181v292q0 35 11 51q15 20 39.5 20t39.5 -20q11 -16 11 -51v-292h137l373 665q6 11 10.5 17t11.5 13t16.5 10.5t21.5 3.5q14 0 29 -9q29 -16 29 -47q0 -18 -19 -54l-374 -651l406 -707q19 -36 19 -54 q0 -31 -29 -47q-15 -9 -30 -9q-22 0 -36 13.5t-27 37.5l-403 713h-135v-291q0 -35 -11 -50q-14 -19 -39 -19t-40 19q-11 15 -11 50v291h-181v-681q0 -41 -13 -61q-15 -22 -46.5 -22t-45.5 22q-14 21 -14 61z" />
<glyph unicode="&#x49d;" horiz-adv-x="1129" d="M213 67v922q0 37 12 54q14 22 44.5 22t45.5 -22q11 -17 11 -54v-392h130v239q0 32 9 45q13 17 34.5 17t34.5 -17q10 -13 10 -45v-239h93l254 423q14 24 27.5 34.5t31.5 10.5q16 0 29 -9q28 -18 28 -47q0 -19 -19 -49l-264 -416l282 -448q19 -30 19 -49q0 -30 -27 -47 q-13 -9 -30 -9q-18 0 -31.5 11t-26.5 34l-285 469h-81v-246q0 -33 -10 -45q-13 -17 -34.5 -17t-34.5 17q-9 12 -9 45v246h-130v-438q0 -37 -11 -54q-15 -22 -45.5 -22t-44.5 22q-12 17 -12 54z" />
<glyph unicode="&#x4a2;" horiz-adv-x="1516" d="M241 74v1413q0 39 14 60q14 22 45.5 22t46.5 -22q13 -20 13 -60v-648h813v648q0 40 13 60q14 22 45.5 22t46.5 -22q12 -20 12 -60v-1382h69q37 0 53 -16t16 -54v-356q0 -40 -12 -60q-16 -22 -46.5 -22t-45.5 22q-13 20 -13 60v321h-69q-37 0 -53 16t-16 55v663h-813v-660 q0 -41 -13 -61q-15 -22 -46.5 -22t-45.5 22q-14 21 -14 61z" />
<glyph unicode="&#x4a3;" horiz-adv-x="1211" d="M213 67v922q0 37 12 54q14 22 44.5 22t45.5 -22q11 -17 11 -54v-393h577v393q0 37 12 54q14 22 44.5 22t45.5 -22q11 -17 11 -54v-888h49q37 0 52 -15q16 -16 16 -53v-294q0 -37 -12 -55q-14 -21 -44.5 -21t-45.5 21q-12 20 -12 55v261h-49q-37 0 -52 15t-15 52v428h-577 v-428q0 -37 -11 -54q-15 -22 -45.5 -22t-44.5 22q-12 17 -12 54z" />
<glyph unicode="&#x4ae;" horiz-adv-x="1081" d="M54 1523q3 26 31 39q12 7 25 7q14 0 24 -6q20 -12 36 -46l371 -742l372 742q16 34 36 46q9 6 23 6q13 0 26 -7q28 -13 31 -39q3 -17 -16 -56l-413 -826v-567q0 -41 -13 -61q-14 -22 -45.5 -22t-46.5 22q-12 20 -12 61v567l-413 826q-19 38 -16 56z" />
<glyph unicode="&#x4af;" horiz-adv-x="1000" d="M71 1028q4 17 18.5 27t34.5 10q13 0 25 -8q16 -11 30 -48l322 -858l322 858q13 37 30 48q12 8 24 8q20 0 35 -10t19 -27q5 -20 -9 -56l-365 -972v-437q0 -36 -11 -54q-15 -22 -45.5 -22t-44.5 22q-12 18 -12 54v437l-365 972q-13 36 -8 56z" />
<glyph unicode="&#x4b0;" horiz-adv-x="1081" d="M54 1523q3 26 31 39q12 7 25 7q14 0 24 -6q20 -12 36 -46l371 -742l372 742q16 34 36 46q9 6 23 6q13 0 26 -7q28 -13 31 -39q3 -17 -16 -56l-413 -826h222q35 0 50 -11q20 -15 20 -39.5t-20 -39.5q-15 -11 -50 -11h-222v-466q0 -41 -13 -61q-14 -22 -45.5 -22t-46.5 22 q-12 20 -12 61v466h-222q-35 0 -50 11q-21 15 -21 39.5t21 39.5q15 11 50 11h222l-413 826q-19 38 -16 56z" />
<glyph unicode="&#x4b1;" horiz-adv-x="1000" d="M71 1028q4 17 18.5 27t34.5 10q13 0 25 -8q16 -11 30 -48l322 -858l322 858q13 37 30 48q12 8 24 8q20 0 35 -10t19 -27q5 -20 -9 -56l-365 -972h156q32 0 45 -10q16 -11 16 -33.5t-16 -34.5q-13 -10 -45 -10h-156v-349q0 -36 -11 -54q-15 -22 -45.5 -22t-44.5 22 q-12 18 -12 54v349h-155q-33 0 -45 10q-16 12 -16 34.5t16 33.5q12 10 45 10h155l-365 972q-13 36 -8 56z" />
<glyph unicode="&#x4b2;" horiz-adv-x="1290" d="M98 47q0 18 20 54l399 699l-377 659q-18 34 -18 54q0 32 28 47q15 9 30 9q23 0 36.5 -13.5t26.5 -37.5l347 -618l351 625q8 15 13.5 22.5t17 14.5t27.5 7q15 0 30 -9q28 -15 28 -47q0 -20 -18 -54l-379 -659q398 -694 398 -695h75q38 0 54 -16t16 -54v-356q0 -40 -13 -60 q-16 -22 -46.5 -22t-45.5 22q-13 20 -13 60v321h-69q-22 0 -36 13.5t-27 36.5l-363 646l-370 -654q-8 -15 -14.5 -24.5t-20 -18t-29.5 -8.5q-13 0 -29 9q-29 16 -29 47z" />
<glyph unicode="&#x4b3;" horiz-adv-x="1019" d="M105 47q0 17 20 49l273 433l-272 431q-20 32 -20 49q0 29 28 47q13 9 30 9q12 0 22 -5t18.5 -14.5t18.5 -25.5l250 -413l251 413q14 24 27.5 34.5t31.5 10.5q17 0 30 -9q27 -17 27 -47q0 -19 -19 -49l-272 -431l271 -428h53q38 0 53 -15q16 -16 16 -53v-294 q0 -35 -13 -55q-15 -21 -45.5 -21t-44.5 21q-12 18 -12 55v261h-48q-18 0 -31.5 10.5t-27.5 34.5l-247 403l-252 -412q-14 -23 -27 -34t-31 -11q-17 0 -30 9q-28 18 -28 47z" />
<glyph unicode="&#x4b6;" horiz-adv-x="1395" d="M175 984v503q0 40 13 60q15 22 46.5 22t45.5 -22q13 -20 13 -60v-488q0 -74 19 -130t49 -88.5t74.5 -52t86.5 -25.5t93 -6q114 0 437 62v728q0 40 13 60q14 22 45.5 22t46.5 -22q14 -21 14 -60v-1382h67q37 0 53 -16q18 -17 18 -54v-356q0 -38 -14 -60q-16 -22 -46.5 -22 t-45.5 22q-13 20 -13 60v321h-68q-38 0 -54 16t-16 55v586q-313 -65 -456 -65q-69 0 -127.5 11t-114 39.5t-94 72t-62 112.5t-23.5 157z" />
<glyph unicode="&#x4b7;" horiz-adv-x="1135" d="M162 688v301q0 37 11 54q15 22 45.5 22t44.5 -22q12 -17 12 -54v-290q0 -115 57 -163.5t164 -48.5q138 0 331 39v463q0 37 12 54q14 22 44.5 22t45.5 -22q13 -19 13 -54v-888h48q37 0 52 -15t15 -53v-294q0 -37 -12 -55q-14 -21 -44.5 -21t-44.5 21q-12 18 -12 55v261 h-48q-39 0 -54 15t-15 52v360q-224 -46 -351 -46q-314 0 -314 307z" />
<glyph unicode="&#x4b8;" horiz-adv-x="1410" d="M175 984v503q0 40 13 60q15 22 46.5 22t45.5 -22q13 -20 13 -60v-488q0 -74 19 -130t49 -88.5t74.5 -52t86.5 -25.5t93 -6h9v291q0 35 11 50q14 19 39 19t40 -19q10 -15 10 -50v-285q103 12 328 56v728q0 40 13 60q14 22 45.5 22t46.5 -22q14 -21 14 -60v-1413 q0 -40 -14 -61q-15 -22 -46.5 -22t-45.5 22q-13 20 -13 61v583q-189 -41 -328 -57v-300q0 -36 -10 -52q-15 -19 -40 -19t-39 19q-11 16 -11 52v292h-28q-69 0 -127.5 11t-114 39.5t-94 72t-62 112.5t-23.5 157z" />
<glyph unicode="&#x4b9;" horiz-adv-x="1153" d="M162 688v301q0 37 11 54q15 22 45.5 22t44.5 -22q12 -17 12 -54v-290q0 -115 57 -163.5t164 -48.5h11v236q0 33 10 45q11 16 34 16t34 -16q10 -12 10 -45v-232q98 7 232 35v463q0 37 12 54q14 22 44.5 22t45.5 -22q13 -19 13 -54v-922q0 -35 -13 -54q-15 -22 -45.5 -22 t-44.5 22q-12 17 -12 54v360q-150 -31 -232 -40v-241q0 -33 -10 -45q-11 -16 -34 -16t-34 16q-10 12 -10 45v235h-31q-314 0 -314 307z" />
<glyph unicode="&#x4ba;" horiz-adv-x="1410" d="M241 74v1413q0 39 14 60q14 22 45.5 22t46.5 -22q13 -20 13 -60v-584q313 65 455 65q49 0 92.5 -5.5t86 -18.5t78.5 -33.5t66.5 -51.5t52 -71t33.5 -93.5t12 -117.5v-503q0 -41 -13 -61q-15 -22 -46 -22t-46 22q-14 21 -14 61v487q0 75 -19 130.5t-49 88t-74 52t-86 25.5 t-94 6q-118 0 -435 -61v-728q0 -41 -13 -61q-15 -22 -46.5 -22t-45.5 22q-14 21 -14 61z" />
<glyph unicode="&#x4bb;" horiz-adv-x="1153" d="M213 67v930q0 37 12 55q15 22 45 22t45 -22q11 -18 11 -55v-368q225 46 351 46q316 0 316 -307v-301q0 -35 -13 -54q-14 -22 -45 -22q-29 0 -44 22q-13 19 -13 54v290q0 115 -57 163.5t-164 48.5q-143 0 -331 -38v-464q0 -37 -11 -54q-15 -22 -45.5 -22t-44.5 22 q-12 17 -12 54z" />
<glyph unicode="&#x4c0;" horiz-adv-x="600" d="M241 74v1413q0 39 14 60q14 22 45.5 22t46.5 -22q13 -20 13 -60v-1413q0 -41 -13 -61q-15 -22 -46.5 -22t-45.5 22q-14 21 -14 61z" />
<glyph unicode="&#x4cf;" horiz-adv-x="538" d="M213 67v1426q0 37 12 54q14 22 44.5 22t45.5 -22q11 -17 11 -54v-1426q0 -37 -11 -54q-15 -22 -45.5 -22t-44.5 22q-12 17 -12 54z" />
<glyph unicode="&#x4d8;" horiz-adv-x="1430" d="M182 692v38q0 37 15 52t52 15h884q0 88 -1.5 144t-6 114t-12.5 96t-21.5 75.5t-32.5 66t-47 55.5q-120 120 -295 120q-97 0 -177.5 -36t-136 -102.5t-83.5 -157.5q-12 -40 -29 -57q-15 -15 -37 -15q-24 0 -39 15q-16 16 -16 43q0 36 25 98.5t64 113.5q157 203 429 203 q114 0 211 -39t168 -110q36 -37 61 -70.5t43 -77.5t27.5 -85t15 -109t7 -132t1.5 -170t-1.5 -170t-7 -132t-15 -109t-27.5 -85t-43 -77.5t-61 -70.5q-71 -71 -168 -110t-211 -39t-211.5 39t-168.5 110q-50 50 -79.5 97.5t-46.5 115t-22.5 143t-6.5 200.5zM301 692 q0 -139 9 -221t34.5 -145t76.5 -113q120 -121 296 -121q174 0 295 121q73 73 96 172t25 307h-832z" />
<glyph unicode="&#x4d9;" horiz-adv-x="1145" d="M147 485q0 36 16 52q15 15 52 15h666q0 134 -39.5 227t-116.5 141t-188 48q-148 0 -244 -83q-24 -22 -36 -29t-27 -7q-13 0 -24.5 7t-18.5 18.5t-7 24.5q0 11 5.5 23t15.5 23t21 21t24.5 19t24 15.5t20.5 11.5q98 57 253 57q219 0 335 -138t116 -402q0 -259 -113 -400.5 t-313 -141.5q-196 0 -309 134t-113 364zM259 458q2 -47 5.5 -75.5t10.5 -57t20 -61.5q33 -82 106.5 -129t167.5 -47t167.5 47.5t106.5 128.5q20 48 27 87t11 107h-622z" />
<glyph unicode="&#x4e2;" horiz-adv-x="1577" d="M241 73v1414q0 39 14 60q14 22 45.5 22t46.5 -22q13 -20 13 -60v-1290l847 1328q28 44 67 44q27 0 43 -16q19 -20 19 -65v-1414q0 -41 -12 -61q-15 -22 -46.5 -22t-45.5 22q-13 20 -13 61v1289l-849 -1328q-28 -44 -66 -44q-27 0 -43 16q-20 21 -20 66zM471 1804 q0 23 20 39q17 11 50 11h502q34 0 51 -11q19 -15 19 -39q0 -25 -19 -40q-17 -11 -51 -11h-502q-33 0 -50 11q-20 16 -20 40z" />
<glyph unicode="&#x4e3;" horiz-adv-x="1243" d="M213 74v915q0 37 12 54q14 22 44.5 22t45.5 -22q11 -17 11 -54v-823l563 844q35 55 75 55q29 0 46 -17q21 -22 21 -65v-916q0 -35 -12 -54q-15 -22 -45.5 -22t-44.5 22q-12 17 -12 54v824l-563 -845q-35 -55 -75 -55q-29 0 -46 18q-20 20 -20 65zM293 1387q0 24 21 39 q15 11 50 11h502q35 0 50 -11q19 -14 19 -39q0 -24 -19 -39q-17 -12 -50 -12h-502q-34 0 -50 12q-21 15 -21 39z" />
<glyph unicode="&#x4e8;" horiz-adv-x="1428" d="M180 780q0 106 1.5 170t6.5 132t15 109t27.5 85t42.5 77.5t62 70.5q70 71 168 110t212 39t211 -39t168 -110q36 -37 61 -70.5t43 -77.5t27.5 -85t15 -109t7 -132t1.5 -170t-1.5 -170t-7 -132t-15 -109t-27.5 -85t-43 -77.5t-61 -70.5q-71 -71 -168 -110t-211 -39t-212 39 t-168 110q-37 37 -62 70.5t-42.5 77.5t-27.5 85t-15 109t-6.5 132t-1.5 170zM299 734q0 -97 2.5 -158.5t9 -120.5t20 -98.5t34.5 -75.5t53 -68q121 -121 297 -121q174 0 295 121q40 40 63.5 83t36.5 108.5t17 137t4 192.5h-832zM299 839h832q-1 225 -23.5 329.5t-97.5 179.5 q-120 120 -295 120q-177 0 -297 -120q-39 -39 -62.5 -82t-36 -107t-16.5 -133.5t-4 -186.5z" />
<glyph unicode="&#x4e9;" horiz-adv-x="1156" d="M151 529q0 50 2.5 91t11 89.5t23 88.5t39 81t58.5 74q115 116 294 116q177 0 293 -116q42 -41 69.5 -92t41 -108.5t18.5 -109t5 -114.5q0 -51 -3 -92t-11.5 -89.5t-22.5 -89t-38.5 -81.5t-58.5 -74q-116 -116 -293 -116q-179 0 -294 116q-42 41 -70 92t-41 108.5 t-18 109.5t-5 116zM265 495q5 -228 97 -318q88 -89 217 -89q127 0 216 89q93 93 97 318h-627zM266 592h623q-8 201 -94 288q-89 88 -216 88q-129 0 -217 -88t-96 -288z" />
<glyph unicode="&#x4ee;" horiz-adv-x="1095" d="M41.5 1498q-2.5 13 0.5 27.5t14 26.5q17 17 45 17q15 0 28 -9q20 -13 34 -51l396 -1019l374 1019q14 38 33 51q14 9 29 9q28 0 45 -17q11 -12 14 -26.5t0 -27.5t-10 -31l-444 -1183q-55 -148 -130.5 -216t-183.5 -68h-41q-39 0 -55 11q-20 15 -20 41.5t20 41.5 q16 11 55 11h8q86 0 135 40t85 135l23 61l-445 1126q-7 18 -9.5 31zM272 1804q0 24 19 39q17 11 50 11h502q35 0 52 -11q19 -15 19 -39q0 -25 -19 -40q-17 -11 -52 -11h-502q-33 0 -50 11q-19 15 -19 40z" />
<glyph unicode="&#x4ef;" horiz-adv-x="941" d="M72 1030q12 35 51 35q15 0 26.5 -7t19 -19t13.5 -31l289 -869l290 869q9 29 22.5 43t36.5 14q38 0 51 -35q7 -19 -5 -57l-438 -1260q-28 -83 -72 -124q-72 -66 -186 -66q-36 0 -52 10q-21 14 -21 40t21 40q14 10 46 10q67 0 108 32t67 111l78 234l-340 973q-12 38 -5 57z M150 1387q0 24 20 39q15 11 50 11h502q35 0 51 -11q19 -14 19 -39q0 -24 -19 -39q-17 -12 -51 -12h-502q-33 0 -50 12q-20 15 -20 39z" />
<glyph unicode="&#x2013;" d="M107 577.5q0 24.5 20 39.5q16 11 51 11h771q35 0 50 -11q20 -14 20 -39t-20 -40q-15 -10 -50 -10h-771q-35 0 -51 10q-20 15 -20 39.5z" />
<glyph unicode="&#x2014;" horiz-adv-x="1912" d="M107 579q0 24 20 39q16 11 51 11h1558q35 0 50 -11q20 -15 20 -39t-20 -40q-15 -10 -50 -10h-1558q-35 0 -51 10q-20 16 -20 40z" />
<glyph unicode="&#x2018;" horiz-adv-x="508" d="M153 1220q-5 17 7 55l80 240q11 34 26 47q14 11 35 11q19 0 34 -10.5t20 -27.5q6 -19 -6 -56l-80 -240q-11 -34 -27 -47q-14 -11 -33 -11q-20 0 -35.5 11t-20.5 28z" />
<glyph unicode="&#x2019;" horiz-adv-x="508" d="M153 1220q-5 17 7 55l80 240q11 34 26 47q14 11 35 11q19 0 34 -10.5t20 -27.5q6 -19 -6 -56l-80 -240q-11 -34 -27 -47q-14 -11 -33 -11q-20 0 -35.5 11t-20.5 28z" />
<glyph unicode="&#x201a;" horiz-adv-x="508" d="M153 -209q-5 18 7 57l80 240q11 34 26 47q14 11 35 11q19 0 34 -11t20 -28q6 -19 -6 -56l-80 -239q-11 -34 -27 -47q-14 -11 -33 -11q-20 0 -35.5 10.5t-20.5 26.5z" />
<glyph unicode="&#x201c;" horiz-adv-x="847" d="M153 1220q-5 17 7 55l80 240q11 34 26 47q14 11 35 11q19 0 34 -10.5t20 -27.5q6 -19 -6 -56l-80 -240q-11 -34 -27 -47q-14 -11 -33 -11q-20 0 -35.5 11t-20.5 28zM493 1220q-5 19 7 55l80 240q11 35 26 47q13 11 34 11q13 0 24.5 -5t19 -13.5t10.5 -19.5q6 -19 -6 -56 l-80 -240q-12 -35 -26 -47q-14 -11 -34 -11t-35 11t-20 28z" />
<glyph unicode="&#x201d;" horiz-adv-x="847" d="M153 1220q-5 17 7 55l80 240q11 34 26 47q14 11 35 11q19 0 34 -10.5t20 -27.5q6 -19 -6 -56l-80 -240q-11 -34 -27 -47q-14 -11 -33 -11q-20 0 -35.5 11t-20.5 28zM493 1220q-5 19 7 55l80 240q11 35 26 47q13 11 34 11q13 0 24.5 -5t19 -13.5t10.5 -19.5q6 -19 -6 -56 l-80 -240q-12 -35 -26 -47q-14 -11 -34 -11t-35 11t-20 28z" />
<glyph unicode="&#x201e;" horiz-adv-x="847" d="M153 -209q-5 18 7 57l80 240q11 34 26 47q14 11 35 11q19 0 34 -11t20 -28q6 -19 -6 -56l-80 -239q-11 -34 -27 -47q-14 -11 -33 -11q-20 0 -35.5 10.5t-20.5 26.5zM493 -209q-5 20 7 57l80 240q11 35 26 47q13 11 34 11q19 0 34 -11t20 -28q6 -19 -6 -56l-80 -239 q-12 -36 -26 -47t-34 -11t-35 10.5t-20 26.5z" />
<glyph unicode="&#x2020;" horiz-adv-x="1344" d="M166 1056q0 25 19 40q15 10 50 10h380v387q0 35 13 54q14 22 45 22t45 -22q12 -17 12 -54v-387h380q35 0 50 -10q20 -16 20 -40t-20 -40q-15 -10 -50 -10h-380v-939q0 -37 -12 -54q-14 -22 -45 -22t-45 22q-13 19 -13 54v939h-380q-35 0 -50 10q-19 15 -19 40z" />
<glyph unicode="&#x2021;" horiz-adv-x="1344" d="M166 0q0 25 19 40q15 10 50 10h380v956h-380q-35 0 -50 10q-19 15 -19 40t19 40q15 10 50 10h380v387q0 35 13 54q14 22 45 22t45 -22q12 -17 12 -54v-387h380q35 0 50 -10q20 -16 20 -40t-20 -40q-15 -10 -50 -10h-380v-956h380q35 0 50 -10q20 -16 20 -40t-20 -40 q-15 -10 -50 -10h-380v-387q0 -36 -12 -54q-14 -22 -45 -22t-45 22q-13 19 -13 54v387h-380q-35 0 -50 10q-19 15 -19 40z" />
<glyph unicode="&#x2022;" d="M208 577.5q0 96.5 47.5 178.5t129.5 129.5t178 47.5t178 -47.5t130 -129.5t48 -178t-48 -178.5t-130 -130.5t-178 -48t-178 48t-129.5 130t-47.5 178.5z" />
<glyph unicode="&#x2026;" horiz-adv-x="1585" d="M188 94q0 42 29.5 71.5t71.5 29.5q27 0 50.5 -13.5t37.5 -37t14 -50.5q0 -41 -30 -70.5t-72 -29.5t-71.5 29t-29.5 71zM692 94q0 42 29.5 71.5t71.5 29.5t72 -29.5t30 -71.5q0 -27 -14 -50.5t-37.5 -36.5t-50.5 -13q-42 0 -71.5 29t-29.5 71zM1196 94q0 42 29.5 71.5 t71.5 29.5t71.5 -29.5t29.5 -71t-29.5 -71t-71.5 -29.5t-71.5 29t-29.5 71z" />
<glyph unicode="&#x2030;" horiz-adv-x="2559" d="M151 1045v235q0 131 80.5 212t209.5 81q128 0 207.5 -81t79.5 -212v-235q0 -131 -79 -211t-208 -80t-209.5 80t-80.5 211zM247 1050q0 -213 194 -213q190 0 190 213v225q0 216 -190 216q-194 0 -194 -216v-225zM494 27q-3 18 11 45l729 1456q13 29 29 36q7 5 17 5 q9 0 20 -6q21 -11 24 -29t-11 -45l-729 -1457q-13 -29 -29 -36q-7 -5 -17 -5t-21 6q-20 10 -23 30zM1087 278v235q0 86 36.5 153t102 104t150.5 37q128 0 207.5 -81.5t79.5 -212.5v-235q0 -131 -79 -211t-208 -80t-209 80t-80 211zM1183 282q0 -211 193 -211q68 0 111 26 t61 72t18 113v226q0 215 -190 215q-193 0 -193 -215v-226zM1832 278v235q0 131 80 212.5t209 81.5q84 0 149.5 -37t102 -104t36.5 -153v-235q0 -131 -79.5 -211t-208.5 -80t-209 80t-80 211zM1928 282q0 -211 193 -211q191 0 191 211v226q0 215 -191 215q-193 0 -193 -215 v-226z" />
<glyph unicode="&#x2039;" horiz-adv-x="744" d="M91 545l377 376q28 28 46 31q26 4 44.5 -14.5t15.5 -44.5q-3 -18 -32 -46l-302 -302l302 -303q29 -28 32 -46q3 -26 -15.5 -44t-44.5 -15q-18 3 -46 31z" />
<glyph unicode="&#x203a;" horiz-adv-x="744" d="M172 197q3 19 30 46l303 303l-303 303q-27 26 -30 46q-3 26 14 43q18 19 45 15q18 -3 46 -31l377 -376l-377 -377q-28 -28 -46 -31q-27 -3 -45 15q-17 17 -14 44z" />
<glyph unicode="&#x2044;" horiz-adv-x="387" d="M-220 27q-4 18 10 45l729 1456q13 29 29 36q7 5 17 5q11 0 21 -6q20 -10 23 -29q3 -18 -11 -45l-729 -1457q-13 -29 -27 -36q-7 -5 -19 -5q-9 0 -20 6q-21 11 -23 30z" />
<glyph unicode="&#x20ac;" horiz-adv-x="1531" d="M151 629q0 22 17 34q12 10 45 10h88v228h-88q-33 0 -45 10q-17 12 -17 34q0 21 17 33q14 11 45 11h90q6 169 37.5 260t115.5 175q70 71 167.5 110t211.5 39q271 0 429 -203q38 -51 63 -113.5t25 -98.5q0 -27 -16 -43q-15 -15 -38 -15t-38 15q-16 17 -28 57 q-43 138 -147 217t-250 79q-176 0 -296 -120q-62 -62 -87.5 -141t-30.5 -218h482q31 0 45 -11q16 -12 16 -33q0 -23 -16 -34q-12 -10 -45 -10h-485v-228h485q33 0 45 -10q16 -11 16 -33.5t-16 -34.5q-12 -10 -45 -10h-482q4 -146 29.5 -227t88.5 -145q121 -121 296 -121 q97 0 177 36.5t135.5 103t84.5 157.5q11 39 28 56q15 15 38 15t38 -15q16 -16 16 -43q0 -23 -10.5 -58.5t-31.5 -77.5t-46 -76q-158 -203 -429 -203q-114 0 -211.5 39t-167.5 110q-86 86 -117 179t-36 270h-90q-33 0 -45 10q-17 12 -17 34z" />
<glyph unicode="&#x2122;" horiz-adv-x="1771" d="M61 1516q0 22 17 34q12 10 45 10h525q33 0 45 -10q17 -12 17 -34t-17 -34q-12 -10 -45 -10h-214v-789q0 -33 -10 -47q-16 -21 -39 -21q-22 0 -37 21q-11 14 -11 47v789h-214q-33 0 -45 10q-17 12 -17 34zM874 683v787q0 23 1.5 37t4.5 23t9 15q13 15 42 15q25 0 39 -15 q17 -16 40 -64l253 -513l251 513q23 48 40 64q15 15 39 15q29 0 42 -15q9 -9 12 -25t3 -50v-787q0 -35 -10 -47q-15 -21 -38 -21t-39 21q-9 12 -9 47v660l-222 -438q-25 -50 -69 -50q-46 0 -71 50l-222 438v-660q0 -35 -9 -47q-15 -21 -38.5 -21t-38.5 21q-10 12 -10 47z " />
<glyph unicode="&#x2202;" horiz-adv-x="1182" d="M151 529q0 144 26.5 250.5t100.5 180.5q109 109 268 109q99 0 173 -31.5t138 -117.5v189q0 79 -19 145t-56.5 115.5t-99.5 77t-143 27.5q-137 0 -217 -69q-5 -5 -15.5 -14t-15 -12.5t-12 -8.5t-13.5 -7t-13 -2q-19 0 -35.5 15t-16.5 40q0 20 24 44t45.5 38t45.5 27 q48 26 100 37t123 11q136 0 234 -58t147.5 -161t49.5 -239v-586q0 -63 -5 -116t-18 -110.5t-39 -108.5t-65 -91q-112 -116 -282.5 -116t-282.5 116q-38 40 -64.5 91t-39.5 108.5t-18 110.5t-5 116zM265 529q0 -263 93 -356q86 -85 203 -85t203 85q93 93 93 356 q0 261 -93 354q-86 85 -203 85t-203 -85q-93 -93 -93 -354z" />
<glyph unicode="&#x2206;" horiz-adv-x="1309" d="M55 54q0 14 18 65l513 1377q13 35 23 49q16 24 46 24t46 -24q12 -17 23 -49l514 -1377q18 -51 18 -65q0 -22 -16 -38q-11 -10 -25.5 -13t-47.5 -3h-1024q-32 0 -47 3t-25 13q-16 16 -16 38zM193 105h924l-462 1264z" />
<glyph unicode="&#x220f;" horiz-adv-x="1531" d="M241 -430v2028q0 36 16 52q15 15 52 15h914q37 0 52 -15t15 -52v-2028q0 -41 -12 -61q-15 -22 -46.5 -22t-45.5 22q-13 20 -13 61v1990h-813v-1990q0 -41 -13 -61q-15 -22 -46.5 -22t-45.5 22t-14 61z" />
<glyph unicode="&#x2211;" horiz-adv-x="1132" d="M109 -454q0 16 14 44l495 991l-495 990q-14 28 -14 44q0 27 24 41q14 9 45 9h822q40 0 55 -11q21 -16 21 -41.5t-21 -41.5q-15 -11 -55 -11h-743l463 -929q13 -25 13 -50t-13 -50l-463 -930h743q40 0 55 -11q21 -16 21 -41.5t-21 -41.5q-15 -11 -55 -11h-822q-31 0 -45 9 q-24 14 -24 41z" />
<glyph unicode="&#x221a;" horiz-adv-x="1210" d="M42 1026q5 17 20 28t34 11q21 0 35 -11q14 -12 25 -47l263 -805l424 1295q11 36 28 50q16 13 44 13h165q39 0 54 -11q19 -13 19 -41.5t-19 -41.5q-15 -11 -54 -11h-130l-463 -1394q-13 -39 -27 -52q-17 -18 -40.5 -18t-40.5 18q-13 12 -26 52l-305 909q-12 37 -6 56z" />
<glyph unicode="&#x221e;" horiz-adv-x="1735" d="M157 579q0 140 92.5 234t233.5 94q105 0 193 -56t192 -184q105 131 191 185.5t197 54.5q93 0 167 -43t114.5 -118t40.5 -167q0 -140 -90.5 -232t-231.5 -92q-111 0 -198 53.5t-190 182.5q-42 -52 -78.5 -90t-73.5 -67t-74 -46.5t-76 -26t-83 -8.5q-141 0 -233.5 93 t-92.5 233zM263 579q0 -100 62.5 -162t163.5 -62q43 0 82 14.5t78 47t72 68t81 94.5q-40 49 -65 77.5t-59 62t-61 50.5t-60 28.5t-68 11.5q-100 0 -163 -64.5t-63 -165.5zM933 579q49 -59 81.5 -94.5t72 -68t78 -47t82.5 -14.5q49 0 91 16.5t71.5 45.5t46 70.5t16.5 91.5 q0 100 -62.5 163t-162.5 63q-44 0 -82.5 -14.5t-78 -48t-72 -68.5t-81.5 -95z" />
<glyph unicode="&#x222b;" horiz-adv-x="915" d="M153 -453.5q0 24.5 20 39.5q16 11 51 11h15q81 0 121.5 45.5t40.5 129.5v1512q0 124 66 200t188 76h37q35 0 51 -11q20 -15 20 -39.5t-20 -39.5q-16 -11 -51 -11h-15q-54 0 -91 -21t-54 -60t-17 -94v-1512q0 -124 -66 -200t-188 -76h-37q-35 0 -51 11q-20 15 -20 39.5z " />
<glyph unicode="&#x2248;" d="M125 358q0 27 32 59q56 56 105 76.5t108 20.5q15 0 30 -2t33 -6.5t29.5 -7.5t33.5 -11.5t30.5 -12t35 -14.5t32.5 -14q4 -2 12 -5q36 -16 55 -23.5t47 -14.5t53 -7q43 0 74 13.5t72 53.5q27 27 51 27q17 0 31 -14q13 -13 13 -30q0 -27 -34 -60q-55 -55 -104 -75.5 t-108 -20.5q-15 0 -30 2t-32 6t-30.5 8t-33 12t-30.5 12.5t-34 14t-33 13.5q-4 2 -13 6q-35 16 -54 23.5t-47 14.5t-53 7q-43 0 -74 -14t-73 -55q-25 -25 -50 -25q-18 0 -31 12.5t-13 30.5zM125 709q0 27 32 59q56 56 105 76.5t108 20.5q18 0 38 -3.5t34 -7t38.5 -12.5 t35 -13t40.5 -17t38 -16q4 -2 12 -5q36 -16 55 -23.5t47 -14.5t53 -7q43 0 73.5 14t72.5 54q26 26 51 26q18 0 31 -13t13 -31q0 -26 -34 -59q-55 -55 -104 -75.5t-108 -20.5q-17 0 -37 3t-34 6.5t-39 12.5t-35 13.5t-40 17t-38 15.5q-4 2 -13 6q-35 16 -54 23.5t-47 14.5 t-53 7q-43 0 -74 -14t-73 -55q-25 -25 -50 -25q-18 0 -31 12.5t-13 30.5z" />
<glyph unicode="&#x2260;" d="M107 405.5q0 24.5 20 39.5q16 11 51 11h261l142 236h-403q-35 0 -51 11q-20 15 -20 39.5t20 39.5q16 11 51 11h463l120 199q16 26 31 32q21 8 38 -3q19 -12 22 -31q1 -16 -15 -44l-92 -153h204q35 0 50 -11q20 -14 20 -39.5t-20 -39.5q-15 -11 -50 -11h-264l-143 -236 h407q35 0 50 -11q20 -14 20 -39.5t-20 -39.5q-15 -11 -50 -11h-466l-116 -191q-17 -27 -32 -33q-20 -8 -38 3q-18 12 -21 32q-2 17 14 44l88 145h-200q-35 0 -51 11q-20 15 -20 39.5z" />
<glyph unicode="&#x2264;" d="M212 401q0 20 14 35.5t35 15.5q18 0 48 -15l548 -274q33 -16 44 -36q6 -11 6 -24q0 -20 -14 -35.5t-35 -15.5q-18 0 -48 15l-548 274q-33 16 -44 36q-6 11 -6 24zM212 742q0 12 2.5 22t10 19t13.5 15.5t19.5 15t22 13t26.5 13.5l504 255q30 15 48 15q15 0 26.5 -7.5 t17 -18.5t5.5 -24q0 -14 -6 -25q-11 -19 -44 -35l-514 -258l514 -258q33 -16 44 -35q6 -11 6 -26q0 -20 -13.5 -35t-35.5 -15q-16 0 -48 16l-504 254q-26 13 -38.5 20.5t-28 20t-21.5 26t-6 32.5z" />
<glyph unicode="&#x2265;" d="M218 103q0 13 7 24q10 20 44 36l547 274q30 15 49 15q21 0 35 -15.5t14 -35.5q0 -13 -7 -24q-10 -20 -44 -36l-547 -274q-30 -15 -48 -15q-22 0 -36 15.5t-14 35.5zM219 423q0 15 7 26q10 19 44 35l513 258l-513 258q-34 16 -44 35q-7 11 -7 25q0 20 14 35t36 15 q18 0 48 -15l504 -255q26 -13 38.5 -20.5t28 -19.5t21.5 -26t6 -32.5t-6 -32t-21.5 -26t-28 -20t-38.5 -20.5l-504 -254q-32 -16 -48 -16q-22 0 -36 15t-14 35z" />
<glyph unicode="&#x25ca;" horiz-adv-x="1081" d="M107 780q0 22 14 50l322 644q13 27 20.5 39.5t19.5 27.5t26 21.5t32.5 6.5t32 -6.5t26 -21.5t19.5 -27.5t21 -39.5l322 -644q13 -25 13 -50t-13 -50l-322 -644q-9 -18 -14 -26.5t-13 -22t-14.5 -20t-15.5 -13.5t-19 -10t-23 -3q-18 0 -32 6.5t-26 21.5t-19.5 27.5 t-20.5 39.5l-322 644q-14 28 -14 50zM212 780l329 -660l330 660l-330 661z" />
<glyph unicode="&#x25fc;" horiz-adv-x="1062" d="M0 0v1063h1063v-1063h-1063z" />
<glyph unicode="&#xfb01;" horiz-adv-x="1199" d="M90 1010q0 24 17 36q14 10 47 10h89v228q0 124 66.5 200t188.5 76h33q39 0 54 -11q20 -14 20 -39t-20 -40q-15 -11 -50 -11h-18q-41 0 -71.5 -12t-49.5 -34.5t-29 -55t-10 -73.5v-228h183q34 0 47 -10q18 -12 18 -36t-18 -36q-13 -10 -47 -10h-183v-897q0 -37 -11 -54 q-15 -22 -45.5 -22t-44.5 22q-13 19 -13 54v897h-89q-33 0 -47 10q-17 12 -17 36zM850 1492.5q0 33.5 23 57t57 23.5t57.5 -23.5t23.5 -57t-23.5 -57.5t-57.5 -24t-57 24t-23 57.5zM873 67v922q0 37 12 54q14 22 45 22t45 -22q13 -19 13 -54v-922q0 -35 -13 -54 q-14 -22 -45 -22t-45 22q-12 17 -12 54z" />
<glyph unicode="&#xfb02;" horiz-adv-x="1285" d="M90 1010q0 24 17 36q14 10 47 10h89v228q0 124 66.5 200t188.5 76h33q39 0 54 -11q20 -14 20 -39t-20 -40q-15 -11 -50 -11h-18q-41 0 -71.5 -12t-49.5 -34.5t-29 -55t-10 -73.5v-228h183q34 0 47 -10q18 -12 18 -36t-18 -36q-13 -10 -47 -10h-183v-897q0 -37 -11 -54 q-15 -22 -45.5 -22t-44.5 22q-13 19 -13 54v897h-89q-33 0 -47 10q-17 12 -17 36zM865 276v1217q0 37 11 54q15 22 45.5 22t44.5 -22q12 -17 12 -54v-1217q0 -84 40 -129.5t120 -45.5h18q35 0 50 -11q20 -15 20 -39.5t-20 -39.5q-15 -11 -55 -11h-32q-122 0 -188 76t-66 200 z" />
</font>
</defs>
</svg>
